<?xml version="1.0" encoding="utf-8" standalone="no"?>
<!DOCTYPE svg PUBLIC "-//W3C//DTD SVG 1.1//EN"
  "http://www.w3.org/Graphics/SVG/1.1/DTD/svg11.dtd">
<svg xmlns:xlink="http://www.w3.org/1999/xlink" width="872.39952pt" height="152.397733pt" viewBox="0 0 872.39952 152.397733" xmlns="http://www.w3.org/2000/svg" version="1.1">
 <metadata>
  <rdf:RDF xmlns:dc="http://purl.org/dc/elements/1.1/" xmlns:cc="http://creativecommons.org/ns#" xmlns:rdf="http://www.w3.org/1999/02/22-rdf-syntax-ns#">
   <cc:Work>
    <dc:type rdf:resource="http://purl.org/dc/dcmitype/StillImage"/>
    <dc:format>image/svg+xml</dc:format>
    <dc:creator>
     <cc:Agent>
      <dc:title>Matplotlib, https://matplotlib.org/</dc:title>
     </cc:Agent>
    </dc:creator>
   </cc:Work>
  </rdf:RDF>
 </metadata>
 <defs>
  <style type="text/css">*{stroke-linejoin: round; stroke-linecap: butt}</style>
 </defs>
 <g id="figure_1">
  <g id="patch_1">
   <path d="M 0 152.397733 
L 872.39952 152.397733 
L 872.39952 0 
L 0 0 
z
" style="fill: #ffffff"/>
  </g>
  <g id="axes_1">
   <g id="patch_2">
    <path d="M 10.7 128.519608 
L 865.19952 128.519608 
L 865.19952 20.213731 
L 10.7 20.213731 
z
" style="fill: #ffffff"/>
   </g>
   <g id="matplotlib.axis_1">
    <g id="xtick_1">
     <g id="line2d_1">
      <defs>
       <path id="m8f1de1206a" d="M 0 0 
L 0 3.5 
" style="stroke: #000000; stroke-width: 0.8"/>
      </defs>
      <g>
       <use xlink:href="#m8f1de1206a" x="40.579199" y="128.519608" style="stroke: #000000; stroke-width: 0.8"/>
      </g>
     </g>
     <g id="text_1">
      <!-- −3 -->
      <g transform="translate(33.208105 143.118045) scale(0.1 -0.1)">
       <defs>
        <path id="DejaVuSans-2212" d="M 678 2272 
L 4684 2272 
L 4684 1741 
L 678 1741 
L 678 2272 
z
" transform="scale(0.015625)"/>
        <path id="DejaVuSans-33" d="M 2597 2516 
Q 3050 2419 3304 2112 
Q 3559 1806 3559 1356 
Q 3559 666 3084 287 
Q 2609 -91 1734 -91 
Q 1441 -91 1130 -33 
Q 819 25 488 141 
L 488 750 
Q 750 597 1062 519 
Q 1375 441 1716 441 
Q 2309 441 2620 675 
Q 2931 909 2931 1356 
Q 2931 1769 2642 2001 
Q 2353 2234 1838 2234 
L 1294 2234 
L 1294 2753 
L 1863 2753 
Q 2328 2753 2575 2939 
Q 2822 3125 2822 3475 
Q 2822 3834 2567 4026 
Q 2313 4219 1838 4219 
Q 1578 4219 1281 4162 
Q 984 4106 628 3988 
L 628 4550 
Q 988 4650 1302 4700 
Q 1616 4750 1894 4750 
Q 2613 4750 3031 4423 
Q 3450 4097 3450 3541 
Q 3450 3153 3228 2886 
Q 3006 2619 2597 2516 
z
" transform="scale(0.015625)"/>
       </defs>
       <use xlink:href="#DejaVuSans-2212"/>
       <use xlink:href="#DejaVuSans-33" x="83.789062"/>
      </g>
     </g>
    </g>
    <g id="xtick_2">
     <g id="line2d_2">
      <g>
       <use xlink:href="#m8f1de1206a" x="172.981298" y="128.519608" style="stroke: #000000; stroke-width: 0.8"/>
      </g>
     </g>
     <g id="text_2">
      <!-- −2 -->
      <g transform="translate(165.610204 143.118045) scale(0.1 -0.1)">
       <defs>
        <path id="DejaVuSans-32" d="M 1228 531 
L 3431 531 
L 3431 0 
L 469 0 
L 469 531 
Q 828 903 1448 1529 
Q 2069 2156 2228 2338 
Q 2531 2678 2651 2914 
Q 2772 3150 2772 3378 
Q 2772 3750 2511 3984 
Q 2250 4219 1831 4219 
Q 1534 4219 1204 4116 
Q 875 4013 500 3803 
L 500 4441 
Q 881 4594 1212 4672 
Q 1544 4750 1819 4750 
Q 2544 4750 2975 4387 
Q 3406 4025 3406 3419 
Q 3406 3131 3298 2873 
Q 3191 2616 2906 2266 
Q 2828 2175 2409 1742 
Q 1991 1309 1228 531 
z
" transform="scale(0.015625)"/>
       </defs>
       <use xlink:href="#DejaVuSans-2212"/>
       <use xlink:href="#DejaVuSans-32" x="83.789062"/>
      </g>
     </g>
    </g>
    <g id="xtick_3">
     <g id="line2d_3">
      <g>
       <use xlink:href="#m8f1de1206a" x="305.383397" y="128.519608" style="stroke: #000000; stroke-width: 0.8"/>
      </g>
     </g>
     <g id="text_3">
      <!-- −1 -->
      <g transform="translate(298.012303 143.118045) scale(0.1 -0.1)">
       <defs>
        <path id="DejaVuSans-31" d="M 794 531 
L 1825 531 
L 1825 4091 
L 703 3866 
L 703 4441 
L 1819 4666 
L 2450 4666 
L 2450 531 
L 3481 531 
L 3481 0 
L 794 0 
L 794 531 
z
" transform="scale(0.015625)"/>
       </defs>
       <use xlink:href="#DejaVuSans-2212"/>
       <use xlink:href="#DejaVuSans-31" x="83.789062"/>
      </g>
     </g>
    </g>
    <g id="xtick_4">
     <g id="line2d_4">
      <g>
       <use xlink:href="#m8f1de1206a" x="437.785496" y="128.519608" style="stroke: #000000; stroke-width: 0.8"/>
      </g>
     </g>
     <g id="text_4">
      <!-- 0 -->
      <g transform="translate(434.604246 143.118045) scale(0.1 -0.1)">
       <defs>
        <path id="DejaVuSans-30" d="M 2034 4250 
Q 1547 4250 1301 3770 
Q 1056 3291 1056 2328 
Q 1056 1369 1301 889 
Q 1547 409 2034 409 
Q 2525 409 2770 889 
Q 3016 1369 3016 2328 
Q 3016 3291 2770 3770 
Q 2525 4250 2034 4250 
z
M 2034 4750 
Q 2819 4750 3233 4129 
Q 3647 3509 3647 2328 
Q 3647 1150 3233 529 
Q 2819 -91 2034 -91 
Q 1250 -91 836 529 
Q 422 1150 422 2328 
Q 422 3509 836 4129 
Q 1250 4750 2034 4750 
z
" transform="scale(0.015625)"/>
       </defs>
       <use xlink:href="#DejaVuSans-30"/>
      </g>
     </g>
    </g>
    <g id="xtick_5">
     <g id="line2d_5">
      <g>
       <use xlink:href="#m8f1de1206a" x="570.187596" y="128.519608" style="stroke: #000000; stroke-width: 0.8"/>
      </g>
     </g>
     <g id="text_5">
      <!-- 1 -->
      <g transform="translate(567.006346 143.118045) scale(0.1 -0.1)">
       <use xlink:href="#DejaVuSans-31"/>
      </g>
     </g>
    </g>
    <g id="xtick_6">
     <g id="line2d_6">
      <g>
       <use xlink:href="#m8f1de1206a" x="702.589695" y="128.519608" style="stroke: #000000; stroke-width: 0.8"/>
      </g>
     </g>
     <g id="text_6">
      <!-- 2 -->
      <g transform="translate(699.408445 143.118045) scale(0.1 -0.1)">
       <use xlink:href="#DejaVuSans-32"/>
      </g>
     </g>
    </g>
    <g id="xtick_7">
     <g id="line2d_7">
      <g>
       <use xlink:href="#m8f1de1206a" x="834.991794" y="128.519608" style="stroke: #000000; stroke-width: 0.8"/>
      </g>
     </g>
     <g id="text_7">
      <!-- 3 -->
      <g transform="translate(831.810544 143.118045) scale(0.1 -0.1)">
       <use xlink:href="#DejaVuSans-33"/>
      </g>
     </g>
    </g>
   </g>
   <g id="matplotlib.axis_2"/>
   <g id="line2d_8">
    <path d="M 39.764652 128.519608 
L 39.764652 20.213731 
" clip-path="url(#p4cebb5528f)" style="fill: none; stroke: #000000; stroke-width: 1.5; stroke-linecap: square"/>
   </g>
   <g id="line2d_9">
    <path d="M 172.625011 128.519608 
L 172.625011 20.213731 
" clip-path="url(#p4cebb5528f)" style="fill: none; stroke: #000000; stroke-width: 1.5; stroke-linecap: square"/>
   </g>
   <g id="line2d_10">
    <path d="M 305.48537 128.519608 
L 305.48537 20.213731 
" clip-path="url(#p4cebb5528f)" style="fill: none; stroke: #000000; stroke-width: 1.5; stroke-linecap: square"/>
   </g>
   <g id="line2d_11">
    <path d="M 438.345729 128.519608 
L 438.345729 20.213731 
" clip-path="url(#p4cebb5528f)" style="fill: none; stroke: #000000; stroke-width: 1.5; stroke-linecap: square"/>
   </g>
   <g id="line2d_12">
    <path d="M 571.206088 128.519608 
L 571.206088 20.213731 
" clip-path="url(#p4cebb5528f)" style="fill: none; stroke: #000000; stroke-width: 1.5; stroke-linecap: square"/>
   </g>
   <g id="line2d_13">
    <path d="M 704.066448 128.519608 
L 704.066448 20.213731 
" clip-path="url(#p4cebb5528f)" style="fill: none; stroke: #000000; stroke-width: 1.5; stroke-linecap: square"/>
   </g>
   <g id="line2d_14">
    <path d="M 836.926807 128.519608 
L 836.926807 20.213731 
" clip-path="url(#p4cebb5528f)" style="fill: none; stroke: #000000; stroke-width: 1.5; stroke-linecap: square"/>
   </g>
   <g id="line2d_15">
    <path d="M 27.126365 128.519608 
L 27.126365 20.213731 
" clip-path="url(#p4cebb5528f)" style="fill: none; stroke: #ff0000; stroke-width: 1.5; stroke-linecap: square"/>
   </g>
   <g id="line2d_16">
    <path d="M 838.308267 128.519608 
L 838.308267 20.213731 
" clip-path="url(#p4cebb5528f)" style="fill: none; stroke: #ff0000; stroke-width: 1.5; stroke-linecap: square"/>
   </g>
   <g id="patch_3">
    <path d="M 10.7 128.519608 
L 10.7 20.213731 
" style="fill: none; stroke: #000000; stroke-width: 0.8; stroke-linejoin: miter; stroke-linecap: square"/>
   </g>
   <g id="patch_4">
    <path d="M 865.19952 128.519608 
L 865.19952 20.213731 
" style="fill: none; stroke: #000000; stroke-width: 0.8; stroke-linejoin: miter; stroke-linecap: square"/>
   </g>
   <g id="patch_5">
    <path d="M 10.7 128.519608 
L 865.19952 128.519608 
" style="fill: none; stroke: #000000; stroke-width: 0.8; stroke-linejoin: miter; stroke-linecap: square"/>
   </g>
   <g id="patch_6">
    <path d="M 10.7 20.213731 
L 865.19952 20.213731 
" style="fill: none; stroke: #000000; stroke-width: 0.8; stroke-linejoin: miter; stroke-linecap: square"/>
   </g>
   <g id="text_8">
    <g id="patch_7">
     <path d="M 26.126365 104.102607 
L 26.126365 44.630732 
Q 26.126365 44.630732 26.126365 44.630732 
L 16.44824 44.630732 
Q 16.44824 44.630732 16.44824 44.630732 
L 16.44824 104.102607 
Q 16.44824 104.102607 16.44824 104.102607 
L 26.126365 104.102607 
Q 26.126365 104.102607 26.126365 104.102607 
z
" style="fill: #ffffff"/>
    </g>
    <!-- min=-3.102 -->
    <g transform="translate(24.046678 104.102607) rotate(-90) scale(0.1 -0.1)">
     <defs>
      <path id="DejaVuSans-6d" d="M 3328 2828 
Q 3544 3216 3844 3400 
Q 4144 3584 4550 3584 
Q 5097 3584 5394 3201 
Q 5691 2819 5691 2113 
L 5691 0 
L 5113 0 
L 5113 2094 
Q 5113 2597 4934 2840 
Q 4756 3084 4391 3084 
Q 3944 3084 3684 2787 
Q 3425 2491 3425 1978 
L 3425 0 
L 2847 0 
L 2847 2094 
Q 2847 2600 2669 2842 
Q 2491 3084 2119 3084 
Q 1678 3084 1418 2786 
Q 1159 2488 1159 1978 
L 1159 0 
L 581 0 
L 581 3500 
L 1159 3500 
L 1159 2956 
Q 1356 3278 1631 3431 
Q 1906 3584 2284 3584 
Q 2666 3584 2933 3390 
Q 3200 3197 3328 2828 
z
" transform="scale(0.015625)"/>
      <path id="DejaVuSans-69" d="M 603 3500 
L 1178 3500 
L 1178 0 
L 603 0 
L 603 3500 
z
M 603 4863 
L 1178 4863 
L 1178 4134 
L 603 4134 
L 603 4863 
z
" transform="scale(0.015625)"/>
      <path id="DejaVuSans-6e" d="M 3513 2113 
L 3513 0 
L 2938 0 
L 2938 2094 
Q 2938 2591 2744 2837 
Q 2550 3084 2163 3084 
Q 1697 3084 1428 2787 
Q 1159 2491 1159 1978 
L 1159 0 
L 581 0 
L 581 3500 
L 1159 3500 
L 1159 2956 
Q 1366 3272 1645 3428 
Q 1925 3584 2291 3584 
Q 2894 3584 3203 3211 
Q 3513 2838 3513 2113 
z
" transform="scale(0.015625)"/>
      <path id="DejaVuSans-3d" d="M 678 2906 
L 4684 2906 
L 4684 2381 
L 678 2381 
L 678 2906 
z
M 678 1631 
L 4684 1631 
L 4684 1100 
L 678 1100 
L 678 1631 
z
" transform="scale(0.015625)"/>
      <path id="DejaVuSans-2d" d="M 313 2009 
L 1997 2009 
L 1997 1497 
L 313 1497 
L 313 2009 
z
" transform="scale(0.015625)"/>
      <path id="DejaVuSans-2e" d="M 684 794 
L 1344 794 
L 1344 0 
L 684 0 
L 684 794 
z
" transform="scale(0.015625)"/>
     </defs>
     <use xlink:href="#DejaVuSans-6d"/>
     <use xlink:href="#DejaVuSans-69" x="97.412109"/>
     <use xlink:href="#DejaVuSans-6e" x="125.195312"/>
     <use xlink:href="#DejaVuSans-3d" x="188.574219"/>
     <use xlink:href="#DejaVuSans-2d" x="272.363281"/>
     <use xlink:href="#DejaVuSans-33" x="308.447266"/>
     <use xlink:href="#DejaVuSans-2e" x="372.070312"/>
     <use xlink:href="#DejaVuSans-31" x="403.857422"/>
     <use xlink:href="#DejaVuSans-30" x="467.480469"/>
     <use xlink:href="#DejaVuSans-32" x="531.103516"/>
    </g>
   </g>
   <g id="text_9">
    <g id="patch_8">
     <path d="M 849.986392 103.764326 
L 849.986392 44.969013 
Q 849.986392 44.969013 849.986392 44.969013 
L 840.308267 44.969013 
Q 840.308267 44.969013 840.308267 44.969013 
L 840.308267 103.764326 
Q 840.308267 103.764326 840.308267 103.764326 
L 849.986392 103.764326 
Q 849.986392 103.764326 849.986392 103.764326 
z
" style="fill: #ffffff"/>
    </g>
    <!-- max=3.025 -->
    <g transform="translate(847.906705 103.764326) rotate(-90) scale(0.1 -0.1)">
     <defs>
      <path id="DejaVuSans-61" d="M 2194 1759 
Q 1497 1759 1228 1600 
Q 959 1441 959 1056 
Q 959 750 1161 570 
Q 1363 391 1709 391 
Q 2188 391 2477 730 
Q 2766 1069 2766 1631 
L 2766 1759 
L 2194 1759 
z
M 3341 1997 
L 3341 0 
L 2766 0 
L 2766 531 
Q 2569 213 2275 61 
Q 1981 -91 1556 -91 
Q 1019 -91 701 211 
Q 384 513 384 1019 
Q 384 1609 779 1909 
Q 1175 2209 1959 2209 
L 2766 2209 
L 2766 2266 
Q 2766 2663 2505 2880 
Q 2244 3097 1772 3097 
Q 1472 3097 1187 3025 
Q 903 2953 641 2809 
L 641 3341 
Q 956 3463 1253 3523 
Q 1550 3584 1831 3584 
Q 2591 3584 2966 3190 
Q 3341 2797 3341 1997 
z
" transform="scale(0.015625)"/>
      <path id="DejaVuSans-78" d="M 3513 3500 
L 2247 1797 
L 3578 0 
L 2900 0 
L 1881 1375 
L 863 0 
L 184 0 
L 1544 1831 
L 300 3500 
L 978 3500 
L 1906 2253 
L 2834 3500 
L 3513 3500 
z
" transform="scale(0.015625)"/>
      <path id="DejaVuSans-35" d="M 691 4666 
L 3169 4666 
L 3169 4134 
L 1269 4134 
L 1269 2991 
Q 1406 3038 1543 3061 
Q 1681 3084 1819 3084 
Q 2600 3084 3056 2656 
Q 3513 2228 3513 1497 
Q 3513 744 3044 326 
Q 2575 -91 1722 -91 
Q 1428 -91 1123 -41 
Q 819 9 494 109 
L 494 744 
Q 775 591 1075 516 
Q 1375 441 1709 441 
Q 2250 441 2565 725 
Q 2881 1009 2881 1497 
Q 2881 1984 2565 2268 
Q 2250 2553 1709 2553 
Q 1456 2553 1204 2497 
Q 953 2441 691 2322 
L 691 4666 
z
" transform="scale(0.015625)"/>
     </defs>
     <use xlink:href="#DejaVuSans-6d"/>
     <use xlink:href="#DejaVuSans-61" x="97.412109"/>
     <use xlink:href="#DejaVuSans-78" x="158.691406"/>
     <use xlink:href="#DejaVuSans-3d" x="217.871094"/>
     <use xlink:href="#DejaVuSans-33" x="301.660156"/>
     <use xlink:href="#DejaVuSans-2e" x="365.283203"/>
     <use xlink:href="#DejaVuSans-30" x="397.070312"/>
     <use xlink:href="#DejaVuSans-32" x="460.693359"/>
     <use xlink:href="#DejaVuSans-35" x="524.316406"/>
    </g>
   </g>
   <g id="text_10">
    <!-- tensor[1000] x∈[-3.102, 3.025] μ=0.004 σ=1.003 -->
    <g transform="translate(10.7 14.798437) scale(0.1 -0.1)">
     <defs>
      <path id="DejaVuSans-74" d="M 1172 4494 
L 1172 3500 
L 2356 3500 
L 2356 3053 
L 1172 3053 
L 1172 1153 
Q 1172 725 1289 603 
Q 1406 481 1766 481 
L 2356 481 
L 2356 0 
L 1766 0 
Q 1100 0 847 248 
Q 594 497 594 1153 
L 594 3053 
L 172 3053 
L 172 3500 
L 594 3500 
L 594 4494 
L 1172 4494 
z
" transform="scale(0.015625)"/>
      <path id="DejaVuSans-65" d="M 3597 1894 
L 3597 1613 
L 953 1613 
Q 991 1019 1311 708 
Q 1631 397 2203 397 
Q 2534 397 2845 478 
Q 3156 559 3463 722 
L 3463 178 
Q 3153 47 2828 -22 
Q 2503 -91 2169 -91 
Q 1331 -91 842 396 
Q 353 884 353 1716 
Q 353 2575 817 3079 
Q 1281 3584 2069 3584 
Q 2775 3584 3186 3129 
Q 3597 2675 3597 1894 
z
M 3022 2063 
Q 3016 2534 2758 2815 
Q 2500 3097 2075 3097 
Q 1594 3097 1305 2825 
Q 1016 2553 972 2059 
L 3022 2063 
z
" transform="scale(0.015625)"/>
      <path id="DejaVuSans-73" d="M 2834 3397 
L 2834 2853 
Q 2591 2978 2328 3040 
Q 2066 3103 1784 3103 
Q 1356 3103 1142 2972 
Q 928 2841 928 2578 
Q 928 2378 1081 2264 
Q 1234 2150 1697 2047 
L 1894 2003 
Q 2506 1872 2764 1633 
Q 3022 1394 3022 966 
Q 3022 478 2636 193 
Q 2250 -91 1575 -91 
Q 1294 -91 989 -36 
Q 684 19 347 128 
L 347 722 
Q 666 556 975 473 
Q 1284 391 1588 391 
Q 1994 391 2212 530 
Q 2431 669 2431 922 
Q 2431 1156 2273 1281 
Q 2116 1406 1581 1522 
L 1381 1569 
Q 847 1681 609 1914 
Q 372 2147 372 2553 
Q 372 3047 722 3315 
Q 1072 3584 1716 3584 
Q 2034 3584 2315 3537 
Q 2597 3491 2834 3397 
z
" transform="scale(0.015625)"/>
      <path id="DejaVuSans-6f" d="M 1959 3097 
Q 1497 3097 1228 2736 
Q 959 2375 959 1747 
Q 959 1119 1226 758 
Q 1494 397 1959 397 
Q 2419 397 2687 759 
Q 2956 1122 2956 1747 
Q 2956 2369 2687 2733 
Q 2419 3097 1959 3097 
z
M 1959 3584 
Q 2709 3584 3137 3096 
Q 3566 2609 3566 1747 
Q 3566 888 3137 398 
Q 2709 -91 1959 -91 
Q 1206 -91 779 398 
Q 353 888 353 1747 
Q 353 2609 779 3096 
Q 1206 3584 1959 3584 
z
" transform="scale(0.015625)"/>
      <path id="DejaVuSans-72" d="M 2631 2963 
Q 2534 3019 2420 3045 
Q 2306 3072 2169 3072 
Q 1681 3072 1420 2755 
Q 1159 2438 1159 1844 
L 1159 0 
L 581 0 
L 581 3500 
L 1159 3500 
L 1159 2956 
Q 1341 3275 1631 3429 
Q 1922 3584 2338 3584 
Q 2397 3584 2469 3576 
Q 2541 3569 2628 3553 
L 2631 2963 
z
" transform="scale(0.015625)"/>
      <path id="DejaVuSans-5b" d="M 550 4863 
L 1875 4863 
L 1875 4416 
L 1125 4416 
L 1125 -397 
L 1875 -397 
L 1875 -844 
L 550 -844 
L 550 4863 
z
" transform="scale(0.015625)"/>
      <path id="DejaVuSans-5d" d="M 1947 4863 
L 1947 -844 
L 622 -844 
L 622 -397 
L 1369 -397 
L 1369 4416 
L 622 4416 
L 622 4863 
L 1947 4863 
z
" transform="scale(0.015625)"/>
      <path id="DejaVuSans-20" transform="scale(0.015625)"/>
      <path id="DejaVuSans-2208" d="M 1072 1959 
Q 1094 1728 1291 1353 
Q 1522 919 1959 675 
Q 2388 438 2850 434 
L 5028 434 
L 5028 -63 
L 2850 -63 
Q 2250 -63 1695 246 
Q 1141 556 844 1106 
Q 547 1656 547 2241 
Q 547 2819 844 3369 
Q 1141 3919 1695 4231 
Q 2250 4544 2850 4544 
L 5028 4544 
L 5028 4047 
L 2850 4047 
Q 2388 4044 1959 3803 
Q 1525 3556 1291 3125 
Q 1091 2750 1063 2459 
L 5028 2459 
L 5028 1959 
L 1072 1959 
z
" transform="scale(0.015625)"/>
      <path id="DejaVuSans-2c" d="M 750 794 
L 1409 794 
L 1409 256 
L 897 -744 
L 494 -744 
L 750 256 
L 750 794 
z
" transform="scale(0.015625)"/>
      <path id="DejaVuSans-3bc" d="M 544 -1331 
L 544 3500 
L 1119 3500 
L 1119 1325 
Q 1119 872 1334 640 
Q 1550 409 1972 409 
Q 2434 409 2667 671 
Q 2900 934 2900 1459 
L 2900 3500 
L 3475 3500 
L 3475 806 
Q 3475 619 3529 530 
Q 3584 441 3700 441 
Q 3728 441 3778 458 
Q 3828 475 3916 513 
L 3916 50 
Q 3788 -22 3673 -56 
Q 3559 -91 3450 -91 
Q 3234 -91 3106 31 
Q 2978 153 2931 403 
Q 2775 156 2548 32 
Q 2322 -91 2016 -91 
Q 1697 -91 1473 31 
Q 1250 153 1119 397 
L 1119 -1331 
L 544 -1331 
z
" transform="scale(0.015625)"/>
      <path id="DejaVuSans-34" d="M 2419 4116 
L 825 1625 
L 2419 1625 
L 2419 4116 
z
M 2253 4666 
L 3047 4666 
L 3047 1625 
L 3713 1625 
L 3713 1100 
L 3047 1100 
L 3047 0 
L 2419 0 
L 2419 1100 
L 313 1100 
L 313 1709 
L 2253 4666 
z
" transform="scale(0.015625)"/>
      <path id="DejaVuSans-3c3" d="M 1959 3044 
Q 1484 3044 1228 2700 
Q 959 2341 959 1747 
Q 959 1119 1226 758 
Q 1494 397 1959 397 
Q 2419 397 2687 759 
Q 2956 1122 2956 1747 
Q 2956 2319 2688 2700 
Q 2441 3044 1959 3044 
z
M 1959 3500 
L 3869 3500 
L 3869 2925 
L 3225 2925 
Q 3566 2438 3566 1747 
Q 3566 888 3138 400 
Q 2709 -91 1959 -91 
Q 1206 -91 781 400 
Q 353 888 353 1747 
Q 353 2613 781 3097 
Q 1134 3500 1959 3500 
z
" transform="scale(0.015625)"/>
     </defs>
     <use xlink:href="#DejaVuSans-74"/>
     <use xlink:href="#DejaVuSans-65" x="39.208984"/>
     <use xlink:href="#DejaVuSans-6e" x="100.732422"/>
     <use xlink:href="#DejaVuSans-73" x="164.111328"/>
     <use xlink:href="#DejaVuSans-6f" x="216.210938"/>
     <use xlink:href="#DejaVuSans-72" x="277.392578"/>
     <use xlink:href="#DejaVuSans-5b" x="318.505859"/>
     <use xlink:href="#DejaVuSans-31" x="357.519531"/>
     <use xlink:href="#DejaVuSans-30" x="421.142578"/>
     <use xlink:href="#DejaVuSans-30" x="484.765625"/>
     <use xlink:href="#DejaVuSans-30" x="548.388672"/>
     <use xlink:href="#DejaVuSans-5d" x="612.011719"/>
     <use xlink:href="#DejaVuSans-20" x="651.025391"/>
     <use xlink:href="#DejaVuSans-78" x="682.8125"/>
     <use xlink:href="#DejaVuSans-2208" x="741.992188"/>
     <use xlink:href="#DejaVuSans-5b" x="829.101562"/>
     <use xlink:href="#DejaVuSans-2d" x="868.115234"/>
     <use xlink:href="#DejaVuSans-33" x="904.199219"/>
     <use xlink:href="#DejaVuSans-2e" x="967.822266"/>
     <use xlink:href="#DejaVuSans-31" x="999.609375"/>
     <use xlink:href="#DejaVuSans-30" x="1063.232422"/>
     <use xlink:href="#DejaVuSans-32" x="1126.855469"/>
     <use xlink:href="#DejaVuSans-2c" x="1190.478516"/>
     <use xlink:href="#DejaVuSans-20" x="1222.265625"/>
     <use xlink:href="#DejaVuSans-33" x="1254.052734"/>
     <use xlink:href="#DejaVuSans-2e" x="1317.675781"/>
     <use xlink:href="#DejaVuSans-30" x="1349.462891"/>
     <use xlink:href="#DejaVuSans-32" x="1413.085938"/>
     <use xlink:href="#DejaVuSans-35" x="1476.708984"/>
     <use xlink:href="#DejaVuSans-5d" x="1540.332031"/>
     <use xlink:href="#DejaVuSans-20" x="1579.345703"/>
     <use xlink:href="#DejaVuSans-3bc" x="1611.132812"/>
     <use xlink:href="#DejaVuSans-3d" x="1674.755859"/>
     <use xlink:href="#DejaVuSans-30" x="1758.544922"/>
     <use xlink:href="#DejaVuSans-2e" x="1822.167969"/>
     <use xlink:href="#DejaVuSans-30" x="1853.955078"/>
     <use xlink:href="#DejaVuSans-30" x="1917.578125"/>
     <use xlink:href="#DejaVuSans-34" x="1981.201172"/>
     <use xlink:href="#DejaVuSans-20" x="2044.824219"/>
     <use xlink:href="#DejaVuSans-3c3" x="2076.611328"/>
     <use xlink:href="#DejaVuSans-3d" x="2139.990234"/>
     <use xlink:href="#DejaVuSans-31" x="2223.779297"/>
     <use xlink:href="#DejaVuSans-2e" x="2287.402344"/>
     <use xlink:href="#DejaVuSans-30" x="2319.189453"/>
     <use xlink:href="#DejaVuSans-30" x="2382.8125"/>
     <use xlink:href="#DejaVuSans-33" x="2446.435547"/>
    </g>
   </g>
   <g id="patch_9">
    <path d="M 27.126365 128.519608 
L 69.820138 128.519608 
L 69.820138 126.68857 
L 27.126365 126.68857 
z
" clip-path="url(#p4cebb5528f)" style="fill: #00bfff"/>
   </g>
   <g id="patch_10">
    <path d="M 69.820138 128.519608 
L 112.513942 128.519608 
L 112.513942 124.247189 
L 69.820138 124.247189 
z
" clip-path="url(#p4cebb5528f)" style="fill: #00bfff"/>
   </g>
   <g id="patch_11">
    <path d="M 112.513942 128.519608 
L 155.207715 128.519608 
L 155.207715 121.195455 
L 112.513942 121.195455 
z
" clip-path="url(#p4cebb5528f)" style="fill: #00bfff"/>
   </g>
   <g id="patch_12">
    <path d="M 155.207715 128.519608 
L 197.901503 128.519608 
L 197.901503 122.41615 
L 155.207715 122.41615 
z
" clip-path="url(#p4cebb5528f)" style="fill: #00bfff"/>
   </g>
   <g id="patch_13">
    <path d="M 197.901503 128.519608 
L 240.595292 128.519608 
L 240.595292 108.378196 
L 197.901503 108.378196 
z
" clip-path="url(#p4cebb5528f)" style="fill: #00bfff"/>
   </g>
   <g id="patch_14">
    <path d="M 240.595292 128.519608 
L 283.289064 128.519608 
L 283.289064 91.898845 
L 240.595292 91.898845 
z
" clip-path="url(#p4cebb5528f)" style="fill: #00bfff"/>
   </g>
   <g id="patch_15">
    <path d="M 283.289064 128.519608 
L 325.982853 128.519608 
L 325.982853 89.457475 
L 283.289064 89.457475 
z
" clip-path="url(#p4cebb5528f)" style="fill: #00bfff"/>
   </g>
   <g id="patch_16">
    <path d="M 325.982853 128.519608 
L 368.676641 128.519608 
L 368.676641 59.55053 
L 325.982853 59.55053 
z
" clip-path="url(#p4cebb5528f)" style="fill: #00bfff"/>
   </g>
   <g id="patch_17">
    <path d="M 368.676641 128.519608 
L 411.370424 128.519608 
L 411.370424 55.888441 
L 368.676641 55.888441 
z
" clip-path="url(#p4cebb5528f)" style="fill: #00bfff"/>
   </g>
   <g id="patch_18">
    <path d="M 411.370424 128.519608 
L 454.064209 128.519608 
L 454.064209 49.174643 
L 411.370424 49.174643 
z
" clip-path="url(#p4cebb5528f)" style="fill: #00bfff"/>
   </g>
   <g id="patch_19">
    <path d="M 454.064209 128.519608 
L 496.757991 128.519608 
L 496.757991 56.498787 
L 454.064209 56.498787 
z
" clip-path="url(#p4cebb5528f)" style="fill: #00bfff"/>
   </g>
   <g id="patch_20">
    <path d="M 496.757991 128.519608 
L 539.45178 128.519608 
L 539.45178 61.991913 
L 496.757991 61.991913 
z
" clip-path="url(#p4cebb5528f)" style="fill: #00bfff"/>
   </g>
   <g id="patch_21">
    <path d="M 539.45178 128.519608 
L 582.145568 128.519608 
L 582.145568 79.691942 
L 539.45178 79.691942 
z
" clip-path="url(#p4cebb5528f)" style="fill: #00bfff"/>
   </g>
   <g id="patch_22">
    <path d="M 582.145568 128.519608 
L 624.839341 128.519608 
L 624.839341 93.729883 
L 582.145568 93.729883 
z
" clip-path="url(#p4cebb5528f)" style="fill: #00bfff"/>
   </g>
   <g id="patch_23">
    <path d="M 624.839341 128.519608 
L 667.533129 128.519608 
L 667.533129 103.495429 
L 624.839341 103.495429 
z
" clip-path="url(#p4cebb5528f)" style="fill: #00bfff"/>
   </g>
   <g id="patch_24">
    <path d="M 667.533129 128.519608 
L 710.226918 128.519608 
L 710.226918 111.429925 
L 667.533129 111.429925 
z
" clip-path="url(#p4cebb5528f)" style="fill: #00bfff"/>
   </g>
   <g id="patch_25">
    <path d="M 710.226918 128.519608 
L 752.92069 128.519608 
L 752.92069 122.416147 
L 710.226918 122.416147 
z
" clip-path="url(#p4cebb5528f)" style="fill: #00bfff"/>
   </g>
   <g id="patch_26">
    <path d="M 752.92069 128.519608 
L 795.614495 128.519608 
L 795.614495 127.298917 
L 752.92069 127.298917 
z
" clip-path="url(#p4cebb5528f)" style="fill: #00bfff"/>
   </g>
   <g id="patch_27">
    <path d="M 795.614495 128.519608 
L 838.308267 128.519608 
L 838.308267 126.078224 
L 795.614495 126.078224 
z
" clip-path="url(#p4cebb5528f)" style="fill: #00bfff"/>
   </g>
   <g id="line2d_17">
    <path d="M 10.7 128.079339 
L 19.331308 127.978086 
L 27.962617 127.856352 
L 36.593925 127.710674 
L 45.225233 127.537154 
L 53.856541 127.331439 
L 62.48785 127.088701 
L 71.119158 126.803631 
L 79.750466 126.470434 
L 88.381775 126.082845 
L 97.013083 125.634151 
L 105.644391 125.117225 
L 114.275699 124.52459 
L 122.907008 123.848485 
L 131.538316 123.080959 
L 140.169624 122.213988 
L 148.800933 121.239604 
L 157.432241 120.15005 
L 166.063549 118.937954 
L 174.694857 117.596518 
L 183.326166 116.119725 
L 191.957474 114.502554 
L 200.588782 112.741207 
L 209.220091 110.833337 
L 217.851399 108.778268 
L 226.482707 106.577211 
L 235.114015 104.233465 
L 243.745324 101.752583 
L 252.376632 99.142521 
L 261.00794 96.413739 
L 269.639248 93.579263 
L 278.270557 90.654691 
L 286.901865 87.658146 
L 295.533173 84.610172 
L 304.164482 81.533563 
L 312.79579 78.453137 
L 321.427098 75.395441 
L 330.058406 72.388404 
L 338.689715 69.46094 
L 347.321023 66.6425 
L 355.952331 63.962595 
L 364.58364 61.450286 
L 373.214948 59.133668 
L 381.846256 57.039352 
L 390.477564 55.191955 
L 399.108873 53.613619 
L 407.740181 52.323575 
L 416.371489 51.337746 
L 425.002798 50.668427 
L 433.634106 50.324024 
L 442.265414 50.308882 
L 450.896722 50.623193 
L 459.528031 51.262991 
L 468.159339 52.220234 
L 476.790647 53.482977 
L 485.421956 55.035615 
L 494.053264 56.859207 
L 502.684572 58.931859 
L 511.31588 61.229162 
L 519.947189 63.724668 
L 528.578497 66.390396 
L 537.209805 69.197351 
L 545.841114 72.116044 
L 554.472422 75.116996 
L 563.10373 78.171226 
L 571.735038 81.250697 
L 580.366347 84.328718 
L 588.997655 87.380301 
L 597.628963 90.382457 
L 606.260272 93.314425 
L 614.89158 96.157857 
L 623.522888 98.896917 
L 632.154196 101.518347 
L 640.785505 104.01145 
L 649.416813 106.368046 
L 658.048121 108.582365 
L 666.679429 110.65091 
L 675.310738 112.572285 
L 683.942046 114.347001 
L 692.573354 115.977263 
L 701.204663 117.466744 
L 709.835971 118.820362 
L 718.467279 120.044052 
L 727.098587 121.144549 
L 735.729896 122.129182 
L 744.361204 123.005678 
L 752.992512 123.781993 
L 761.623821 124.466154 
L 770.255129 125.06612 
L 778.886437 125.589676 
L 787.517745 126.044328 
L 796.149054 126.437237 
L 804.780362 126.775156 
L 813.41167 127.064394 
L 822.042979 127.310787 
L 830.674287 127.519691 
L 839.305595 127.695976 
L 847.936903 127.844039 
L 856.568212 127.967819 
L 865.19952 128.070818 
" clip-path="url(#p4cebb5528f)" style="fill: none; stroke: #1f77b4; stroke-width: 1.5; stroke-linecap: square"/>
   </g>
   <g id="text_11">
    <g id="patch_28">
     <path d="M 31.610746 38.30715 
L 47.918558 38.30715 
Q 50.918558 38.30715 50.918558 35.30715 
L 50.918558 25.629025 
Q 50.918558 22.629025 47.918558 22.629025 
L 31.610746 22.629025 
Q 28.610746 22.629025 28.610746 25.629025 
L 28.610746 35.30715 
Q 28.610746 38.30715 31.610746 38.30715 
z
" style="fill: #ffffff"/>
    </g>
    <!-- -3σ -->
    <g transform="translate(31.610746 33.227463) scale(0.1 -0.1)">
     <use xlink:href="#DejaVuSans-2d"/>
     <use xlink:href="#DejaVuSans-33" x="36.083984"/>
     <use xlink:href="#DejaVuSans-3c3" x="99.707031"/>
    </g>
   </g>
   <g id="text_12">
    <g id="patch_29">
     <path d="M 164.471105 38.30715 
L 180.778917 38.30715 
Q 183.778917 38.30715 183.778917 35.30715 
L 183.778917 25.629025 
Q 183.778917 22.629025 180.778917 22.629025 
L 164.471105 22.629025 
Q 161.471105 22.629025 161.471105 25.629025 
L 161.471105 35.30715 
Q 161.471105 38.30715 164.471105 38.30715 
z
" style="fill: #ffffff"/>
    </g>
    <!-- -2σ -->
    <g transform="translate(164.471105 33.227463) scale(0.1 -0.1)">
     <use xlink:href="#DejaVuSans-2d"/>
     <use xlink:href="#DejaVuSans-32" x="36.083984"/>
     <use xlink:href="#DejaVuSans-3c3" x="99.707031"/>
    </g>
   </g>
   <g id="text_13">
    <g id="patch_30">
     <path d="M 300.512714 38.30715 
L 310.458027 38.30715 
Q 313.458027 38.30715 313.458027 35.30715 
L 313.458027 25.629025 
Q 313.458027 22.629025 310.458027 22.629025 
L 300.512714 22.629025 
Q 297.512714 22.629025 297.512714 25.629025 
L 297.512714 35.30715 
Q 297.512714 38.30715 300.512714 38.30715 
z
" style="fill: #ffffff"/>
    </g>
    <!-- -σ -->
    <g transform="translate(300.512714 33.227463) scale(0.1 -0.1)">
     <use xlink:href="#DejaVuSans-2d"/>
     <use xlink:href="#DejaVuSans-3c3" x="36.083984"/>
    </g>
   </g>
   <g id="text_14">
    <g id="patch_31">
     <path d="M 434.666823 38.30715 
L 442.024636 38.30715 
Q 445.024636 38.30715 445.024636 35.30715 
L 445.024636 25.629025 
Q 445.024636 22.629025 442.024636 22.629025 
L 434.666823 22.629025 
Q 431.666823 22.629025 431.666823 25.629025 
L 431.666823 35.30715 
Q 431.666823 38.30715 434.666823 38.30715 
z
" style="fill: #ffffff"/>
    </g>
    <!-- μ -->
    <g transform="translate(434.666823 33.216525) scale(0.1 -0.1)">
     <defs>
      <path id="DejaVuSans-Bold-3bc" d="M 544 -1338 
L 544 3500 
L 1672 3500 
L 1672 1466 
Q 1672 1103 1828 926 
Q 1984 750 2303 750 
Q 2625 750 2781 926 
Q 2938 1103 2938 1466 
L 2938 3500 
L 4063 3500 
L 4063 1159 
Q 4063 938 4114 850 
Q 4166 763 4288 763 
Q 4344 763 4395 778 
Q 4447 794 4506 831 
L 4506 50 
Q 4341 -22 4195 -56 
Q 4050 -91 3909 -91 
Q 3631 -91 3454 26 
Q 3278 144 3169 403 
Q 3022 156 2811 32 
Q 2600 -91 2322 -91 
Q 2091 -91 1928 -17 
Q 1766 56 1672 206 
L 1672 -1338 
L 544 -1338 
z
" transform="scale(0.015625)"/>
     </defs>
     <use xlink:href="#DejaVuSans-Bold-3bc"/>
    </g>
   </g>
   <g id="text_15">
    <g id="patch_32">
     <path d="M 563.847495 38.30715 
L 578.564682 38.30715 
Q 581.564682 38.30715 581.564682 35.30715 
L 581.564682 25.629025 
Q 581.564682 22.629025 578.564682 22.629025 
L 563.847495 22.629025 
Q 560.847495 22.629025 560.847495 25.629025 
L 560.847495 35.30715 
Q 560.847495 38.30715 563.847495 38.30715 
z
" style="fill: #ffffff"/>
    </g>
    <!-- +σ -->
    <g transform="translate(563.847495 33.227463) scale(0.1 -0.1)">
     <defs>
      <path id="DejaVuSans-2b" d="M 2944 4013 
L 2944 2272 
L 4684 2272 
L 4684 1741 
L 2944 1741 
L 2944 0 
L 2419 0 
L 2419 1741 
L 678 1741 
L 678 2272 
L 2419 2272 
L 2419 4013 
L 2944 4013 
z
" transform="scale(0.015625)"/>
     </defs>
     <use xlink:href="#DejaVuSans-2b"/>
     <use xlink:href="#DejaVuSans-3c3" x="83.789062"/>
    </g>
   </g>
   <g id="text_16">
    <g id="patch_33">
     <path d="M 693.526604 38.30715 
L 714.606291 38.30715 
Q 717.606291 38.30715 717.606291 35.30715 
L 717.606291 25.629025 
Q 717.606291 22.629025 714.606291 22.629025 
L 693.526604 22.629025 
Q 690.526604 22.629025 690.526604 25.629025 
L 690.526604 35.30715 
Q 690.526604 38.30715 693.526604 38.30715 
z
" style="fill: #ffffff"/>
    </g>
    <!-- +2σ -->
    <g transform="translate(693.526604 33.227463) scale(0.1 -0.1)">
     <use xlink:href="#DejaVuSans-2b"/>
     <use xlink:href="#DejaVuSans-32" x="83.789062"/>
     <use xlink:href="#DejaVuSans-3c3" x="147.412109"/>
    </g>
   </g>
   <g id="text_17">
    <g id="patch_34">
     <path d="M 826.386963 38.30715 
L 847.46665 38.30715 
Q 850.46665 38.30715 850.46665 35.30715 
L 850.46665 25.629025 
Q 850.46665 22.629025 847.46665 22.629025 
L 826.386963 22.629025 
Q 823.386963 22.629025 823.386963 25.629025 
L 823.386963 35.30715 
Q 823.386963 38.30715 826.386963 38.30715 
z
" style="fill: #ffffff"/>
    </g>
    <!-- +3σ -->
    <g transform="translate(826.386963 33.227463) scale(0.1 -0.1)">
     <use xlink:href="#DejaVuSans-2b"/>
     <use xlink:href="#DejaVuSans-33" x="83.789062"/>
     <use xlink:href="#DejaVuSans-3c3" x="147.412109"/>
    </g>
   </g>
  </g>
 </g>
 <defs>
  <clipPath id="p4cebb5528f">
   <rect x="10.7" y="20.213731" width="854.49952" height="108.305876"/>
  </clipPath>
 </defs>
</svg>
