<?xml version="1.0" encoding="utf-8" standalone="no"?>
<!DOCTYPE svg PUBLIC "-//W3C//DTD SVG 1.1//EN"
  "http://www.w3.org/Graphics/SVG/1.1/DTD/svg11.dtd">
<svg xmlns:xlink="http://www.w3.org/1999/xlink" width="872.39952pt" height="152.406273pt" viewBox="0 0 872.39952 152.406273" xmlns="http://www.w3.org/2000/svg" version="1.1">
 <metadata>
  <rdf:RDF xmlns:dc="http://purl.org/dc/elements/1.1/" xmlns:cc="http://creativecommons.org/ns#" xmlns:rdf="http://www.w3.org/1999/02/22-rdf-syntax-ns#">
   <cc:Work>
    <dc:type rdf:resource="http://purl.org/dc/dcmitype/StillImage"/>
    <dc:format>image/svg+xml</dc:format>
    <dc:creator>
     <cc:Agent>
      <dc:title>Matplotlib, https://matplotlib.org/</dc:title>
     </cc:Agent>
    </dc:creator>
   </cc:Work>
  </rdf:RDF>
 </metadata>
 <defs>
  <style type="text/css">*{stroke-linejoin: round; stroke-linecap: butt}</style>
 </defs>
 <g id="figure_1">
  <g id="patch_1">
   <path d="M 0 152.406273 
L 872.39952 152.406273 
L 872.39952 0 
L 0 0 
z
" style="fill: #ffffff"/>
  </g>
  <g id="axes_1">
   <g id="patch_2">
    <path d="M 7.2 128.528148 
L 865.19952 128.528148 
L 865.19952 20.214138 
L 7.2 20.214138 
z
" style="fill: #ffffff"/>
   </g>
   <g id="matplotlib.axis_1">
    <g id="xtick_1">
     <g id="line2d_1">
      <defs>
       <path id="m8f1de1206a" d="M 0 0 
L 0 3.5 
" style="stroke: #000000; stroke-width: 0.8"/>
      </defs>
      <g>
       <use xlink:href="#m8f1de1206a" x="37.20158" y="128.528148" style="stroke: #000000; stroke-width: 0.8"/>
      </g>
     </g>
     <g id="text_1">
      <!-- −3 -->
      <g transform="translate(29.830486 143.126585) scale(0.1 -0.1)">
       <defs>
        <path id="DejaVuSans-2212" d="M 678 2272 
L 4684 2272 
L 4684 1741 
L 678 1741 
L 678 2272 
z
" transform="scale(0.015625)"/>
        <path id="DejaVuSans-33" d="M 2597 2516 
Q 3050 2419 3304 2112 
Q 3559 1806 3559 1356 
Q 3559 666 3084 287 
Q 2609 -91 1734 -91 
Q 1441 -91 1130 -33 
Q 819 25 488 141 
L 488 750 
Q 750 597 1062 519 
Q 1375 441 1716 441 
Q 2309 441 2620 675 
Q 2931 909 2931 1356 
Q 2931 1769 2642 2001 
Q 2353 2234 1838 2234 
L 1294 2234 
L 1294 2753 
L 1863 2753 
Q 2328 2753 2575 2939 
Q 2822 3125 2822 3475 
Q 2822 3834 2567 4026 
Q 2313 4219 1838 4219 
Q 1578 4219 1281 4162 
Q 984 4106 628 3988 
L 628 4550 
Q 988 4650 1302 4700 
Q 1616 4750 1894 4750 
Q 2613 4750 3031 4423 
Q 3450 4097 3450 3541 
Q 3450 3153 3228 2886 
Q 3006 2619 2597 2516 
z
" transform="scale(0.015625)"/>
       </defs>
       <use xlink:href="#DejaVuSans-2212"/>
       <use xlink:href="#DejaVuSans-33" transform="translate(83.789062 0)"/>
      </g>
     </g>
    </g>
    <g id="xtick_2">
     <g id="line2d_2">
      <g>
       <use xlink:href="#m8f1de1206a" x="170.145996" y="128.528148" style="stroke: #000000; stroke-width: 0.8"/>
      </g>
     </g>
     <g id="text_2">
      <!-- −2 -->
      <g transform="translate(162.774902 143.126585) scale(0.1 -0.1)">
       <defs>
        <path id="DejaVuSans-32" d="M 1228 531 
L 3431 531 
L 3431 0 
L 469 0 
L 469 531 
Q 828 903 1448 1529 
Q 2069 2156 2228 2338 
Q 2531 2678 2651 2914 
Q 2772 3150 2772 3378 
Q 2772 3750 2511 3984 
Q 2250 4219 1831 4219 
Q 1534 4219 1204 4116 
Q 875 4013 500 3803 
L 500 4441 
Q 881 4594 1212 4672 
Q 1544 4750 1819 4750 
Q 2544 4750 2975 4387 
Q 3406 4025 3406 3419 
Q 3406 3131 3298 2873 
Q 3191 2616 2906 2266 
Q 2828 2175 2409 1742 
Q 1991 1309 1228 531 
z
" transform="scale(0.015625)"/>
       </defs>
       <use xlink:href="#DejaVuSans-2212"/>
       <use xlink:href="#DejaVuSans-32" transform="translate(83.789062 0)"/>
      </g>
     </g>
    </g>
    <g id="xtick_3">
     <g id="line2d_3">
      <g>
       <use xlink:href="#m8f1de1206a" x="303.090412" y="128.528148" style="stroke: #000000; stroke-width: 0.8"/>
      </g>
     </g>
     <g id="text_3">
      <!-- −1 -->
      <g transform="translate(295.719318 143.126585) scale(0.1 -0.1)">
       <defs>
        <path id="DejaVuSans-31" d="M 794 531 
L 1825 531 
L 1825 4091 
L 703 3866 
L 703 4441 
L 1819 4666 
L 2450 4666 
L 2450 531 
L 3481 531 
L 3481 0 
L 794 0 
L 794 531 
z
" transform="scale(0.015625)"/>
       </defs>
       <use xlink:href="#DejaVuSans-2212"/>
       <use xlink:href="#DejaVuSans-31" transform="translate(83.789062 0)"/>
      </g>
     </g>
    </g>
    <g id="xtick_4">
     <g id="line2d_4">
      <g>
       <use xlink:href="#m8f1de1206a" x="436.034828" y="128.528148" style="stroke: #000000; stroke-width: 0.8"/>
      </g>
     </g>
     <g id="text_4">
      <!-- 0 -->
      <g transform="translate(432.853578 143.126585) scale(0.1 -0.1)">
       <defs>
        <path id="DejaVuSans-30" d="M 2034 4250 
Q 1547 4250 1301 3770 
Q 1056 3291 1056 2328 
Q 1056 1369 1301 889 
Q 1547 409 2034 409 
Q 2525 409 2770 889 
Q 3016 1369 3016 2328 
Q 3016 3291 2770 3770 
Q 2525 4250 2034 4250 
z
M 2034 4750 
Q 2819 4750 3233 4129 
Q 3647 3509 3647 2328 
Q 3647 1150 3233 529 
Q 2819 -91 2034 -91 
Q 1250 -91 836 529 
Q 422 1150 422 2328 
Q 422 3509 836 4129 
Q 1250 4750 2034 4750 
z
" transform="scale(0.015625)"/>
       </defs>
       <use xlink:href="#DejaVuSans-30"/>
      </g>
     </g>
    </g>
    <g id="xtick_5">
     <g id="line2d_5">
      <g>
       <use xlink:href="#m8f1de1206a" x="568.979244" y="128.528148" style="stroke: #000000; stroke-width: 0.8"/>
      </g>
     </g>
     <g id="text_5">
      <!-- 1 -->
      <g transform="translate(565.797994 143.126585) scale(0.1 -0.1)">
       <use xlink:href="#DejaVuSans-31"/>
      </g>
     </g>
    </g>
    <g id="xtick_6">
     <g id="line2d_6">
      <g>
       <use xlink:href="#m8f1de1206a" x="701.92366" y="128.528148" style="stroke: #000000; stroke-width: 0.8"/>
      </g>
     </g>
     <g id="text_6">
      <!-- 2 -->
      <g transform="translate(698.74241 143.126585) scale(0.1 -0.1)">
       <use xlink:href="#DejaVuSans-32"/>
      </g>
     </g>
    </g>
    <g id="xtick_7">
     <g id="line2d_7">
      <g>
       <use xlink:href="#m8f1de1206a" x="834.868076" y="128.528148" style="stroke: #000000; stroke-width: 0.8"/>
      </g>
     </g>
     <g id="text_7">
      <!-- 3 -->
      <g transform="translate(831.686826 143.126585) scale(0.1 -0.1)">
       <use xlink:href="#DejaVuSans-33"/>
      </g>
     </g>
    </g>
   </g>
   <g id="matplotlib.axis_2"/>
   <g id="line2d_8">
    <path d="M 145.595027 128.528148 
L 145.595027 20.214138 
" clip-path="url(#p3faa57d3e6)" style="fill: none; stroke: #000000; stroke-width: 1.5; stroke-linecap: square"/>
   </g>
   <g id="line2d_9">
    <path d="M 287.603843 128.528148 
L 287.603843 20.214138 
" clip-path="url(#p3faa57d3e6)" style="fill: none; stroke: #000000; stroke-width: 1.5; stroke-linecap: square"/>
   </g>
   <g id="line2d_10">
    <path d="M 429.61264 128.528148 
L 429.61264 20.214138 
" clip-path="url(#p3faa57d3e6)" style="fill: none; stroke: #000000; stroke-width: 1.5; stroke-linecap: square"/>
   </g>
   <g id="line2d_11">
    <path d="M 571.621441 128.528148 
L 571.621441 20.214138 
" clip-path="url(#p3faa57d3e6)" style="fill: none; stroke: #000000; stroke-width: 1.5; stroke-linecap: square"/>
   </g>
   <g id="line2d_12">
    <path d="M 713.630225 128.528148 
L 713.630225 20.214138 
" clip-path="url(#p3faa57d3e6)" style="fill: none; stroke: #000000; stroke-width: 1.5; stroke-linecap: square"/>
   </g>
   <g id="line2d_13">
    <path d="M 23.693644 128.528148 
L 23.693644 20.214138 
" clip-path="url(#p3faa57d3e6)" style="fill: none; stroke: #ff0000; stroke-width: 1.5; stroke-linecap: square"/>
   </g>
   <g id="line2d_14">
    <path d="M 838.198133 128.528148 
L 838.198133 20.214138 
" clip-path="url(#p3faa57d3e6)" style="fill: none; stroke: #ff0000; stroke-width: 1.5; stroke-linecap: square"/>
   </g>
   <g id="patch_3">
    <path d="M 7.2 128.528148 
L 7.2 20.214138 
" style="fill: none; stroke: #000000; stroke-width: 0.8; stroke-linejoin: miter; stroke-linecap: square"/>
   </g>
   <g id="patch_4">
    <path d="M 865.19952 128.528148 
L 865.19952 20.214138 
" style="fill: none; stroke: #000000; stroke-width: 0.8; stroke-linejoin: miter; stroke-linecap: square"/>
   </g>
   <g id="patch_5">
    <path d="M 7.2 128.528148 
L 865.19952 128.528148 
" style="fill: none; stroke: #000000; stroke-width: 0.8; stroke-linejoin: miter; stroke-linecap: square"/>
   </g>
   <g id="patch_6">
    <path d="M 7.2 20.214138 
L 865.19952 20.214138 
" style="fill: none; stroke: #000000; stroke-width: 0.8; stroke-linejoin: miter; stroke-linecap: square"/>
   </g>
   <g id="text_8">
    <g id="patch_7">
     <path d="M 22.693644 104.10708 
L 22.693644 44.635205 
Q 22.693644 44.635205 22.693644 44.635205 
L 13.015519 44.635205 
Q 13.015519 44.635205 13.015519 44.635205 
L 13.015519 104.10708 
Q 13.015519 104.10708 13.015519 104.10708 
L 22.693644 104.10708 
Q 22.693644 104.10708 22.693644 104.10708 
z
" style="fill: #ffffff"/>
    </g>
    <!-- min=-3.102 -->
    <g transform="translate(20.613956 104.10708) rotate(-90) scale(0.1 -0.1)">
     <defs>
      <path id="DejaVuSans-6d" d="M 3328 2828 
Q 3544 3216 3844 3400 
Q 4144 3584 4550 3584 
Q 5097 3584 5394 3201 
Q 5691 2819 5691 2113 
L 5691 0 
L 5113 0 
L 5113 2094 
Q 5113 2597 4934 2840 
Q 4756 3084 4391 3084 
Q 3944 3084 3684 2787 
Q 3425 2491 3425 1978 
L 3425 0 
L 2847 0 
L 2847 2094 
Q 2847 2600 2669 2842 
Q 2491 3084 2119 3084 
Q 1678 3084 1418 2786 
Q 1159 2488 1159 1978 
L 1159 0 
L 581 0 
L 581 3500 
L 1159 3500 
L 1159 2956 
Q 1356 3278 1631 3431 
Q 1906 3584 2284 3584 
Q 2666 3584 2933 3390 
Q 3200 3197 3328 2828 
z
" transform="scale(0.015625)"/>
      <path id="DejaVuSans-69" d="M 603 3500 
L 1178 3500 
L 1178 0 
L 603 0 
L 603 3500 
z
M 603 4863 
L 1178 4863 
L 1178 4134 
L 603 4134 
L 603 4863 
z
" transform="scale(0.015625)"/>
      <path id="DejaVuSans-6e" d="M 3513 2113 
L 3513 0 
L 2938 0 
L 2938 2094 
Q 2938 2591 2744 2837 
Q 2550 3084 2163 3084 
Q 1697 3084 1428 2787 
Q 1159 2491 1159 1978 
L 1159 0 
L 581 0 
L 581 3500 
L 1159 3500 
L 1159 2956 
Q 1366 3272 1645 3428 
Q 1925 3584 2291 3584 
Q 2894 3584 3203 3211 
Q 3513 2838 3513 2113 
z
" transform="scale(0.015625)"/>
      <path id="DejaVuSans-3d" d="M 678 2906 
L 4684 2906 
L 4684 2381 
L 678 2381 
L 678 2906 
z
M 678 1631 
L 4684 1631 
L 4684 1100 
L 678 1100 
L 678 1631 
z
" transform="scale(0.015625)"/>
      <path id="DejaVuSans-2d" d="M 313 2009 
L 1997 2009 
L 1997 1497 
L 313 1497 
L 313 2009 
z
" transform="scale(0.015625)"/>
      <path id="DejaVuSans-2e" d="M 684 794 
L 1344 794 
L 1344 0 
L 684 0 
L 684 794 
z
" transform="scale(0.015625)"/>
     </defs>
     <use xlink:href="#DejaVuSans-6d"/>
     <use xlink:href="#DejaVuSans-69" transform="translate(97.412109 0)"/>
     <use xlink:href="#DejaVuSans-6e" transform="translate(125.195312 0)"/>
     <use xlink:href="#DejaVuSans-3d" transform="translate(188.574219 0)"/>
     <use xlink:href="#DejaVuSans-2d" transform="translate(272.363281 0)"/>
     <use xlink:href="#DejaVuSans-33" transform="translate(308.447266 0)"/>
     <use xlink:href="#DejaVuSans-2e" transform="translate(372.070312 0)"/>
     <use xlink:href="#DejaVuSans-31" transform="translate(403.857422 0)"/>
     <use xlink:href="#DejaVuSans-30" transform="translate(467.480469 0)"/>
     <use xlink:href="#DejaVuSans-32" transform="translate(531.103516 0)"/>
    </g>
   </g>
   <g id="text_9">
    <g id="patch_8">
     <path d="M 849.876258 103.768799 
L 849.876258 44.973487 
Q 849.876258 44.973487 849.876258 44.973487 
L 840.198133 44.973487 
Q 840.198133 44.973487 840.198133 44.973487 
L 840.198133 103.768799 
Q 840.198133 103.768799 840.198133 103.768799 
L 849.876258 103.768799 
Q 849.876258 103.768799 849.876258 103.768799 
z
" style="fill: #ffffff"/>
    </g>
    <!-- max=3.025 -->
    <g transform="translate(847.796571 103.768799) rotate(-90) scale(0.1 -0.1)">
     <defs>
      <path id="DejaVuSans-61" d="M 2194 1759 
Q 1497 1759 1228 1600 
Q 959 1441 959 1056 
Q 959 750 1161 570 
Q 1363 391 1709 391 
Q 2188 391 2477 730 
Q 2766 1069 2766 1631 
L 2766 1759 
L 2194 1759 
z
M 3341 1997 
L 3341 0 
L 2766 0 
L 2766 531 
Q 2569 213 2275 61 
Q 1981 -91 1556 -91 
Q 1019 -91 701 211 
Q 384 513 384 1019 
Q 384 1609 779 1909 
Q 1175 2209 1959 2209 
L 2766 2209 
L 2766 2266 
Q 2766 2663 2505 2880 
Q 2244 3097 1772 3097 
Q 1472 3097 1187 3025 
Q 903 2953 641 2809 
L 641 3341 
Q 956 3463 1253 3523 
Q 1550 3584 1831 3584 
Q 2591 3584 2966 3190 
Q 3341 2797 3341 1997 
z
" transform="scale(0.015625)"/>
      <path id="DejaVuSans-78" d="M 3513 3500 
L 2247 1797 
L 3578 0 
L 2900 0 
L 1881 1375 
L 863 0 
L 184 0 
L 1544 1831 
L 300 3500 
L 978 3500 
L 1906 2253 
L 2834 3500 
L 3513 3500 
z
" transform="scale(0.015625)"/>
      <path id="DejaVuSans-35" d="M 691 4666 
L 3169 4666 
L 3169 4134 
L 1269 4134 
L 1269 2991 
Q 1406 3038 1543 3061 
Q 1681 3084 1819 3084 
Q 2600 3084 3056 2656 
Q 3513 2228 3513 1497 
Q 3513 744 3044 326 
Q 2575 -91 1722 -91 
Q 1428 -91 1123 -41 
Q 819 9 494 109 
L 494 744 
Q 775 591 1075 516 
Q 1375 441 1709 441 
Q 2250 441 2565 725 
Q 2881 1009 2881 1497 
Q 2881 1984 2565 2268 
Q 2250 2553 1709 2553 
Q 1456 2553 1204 2497 
Q 953 2441 691 2322 
L 691 4666 
z
" transform="scale(0.015625)"/>
     </defs>
     <use xlink:href="#DejaVuSans-6d"/>
     <use xlink:href="#DejaVuSans-61" transform="translate(97.412109 0)"/>
     <use xlink:href="#DejaVuSans-78" transform="translate(158.691406 0)"/>
     <use xlink:href="#DejaVuSans-3d" transform="translate(217.871094 0)"/>
     <use xlink:href="#DejaVuSans-33" transform="translate(301.660156 0)"/>
     <use xlink:href="#DejaVuSans-2e" transform="translate(365.283203 0)"/>
     <use xlink:href="#DejaVuSans-30" transform="translate(397.070312 0)"/>
     <use xlink:href="#DejaVuSans-32" transform="translate(460.693359 0)"/>
     <use xlink:href="#DejaVuSans-35" transform="translate(524.316406 0)"/>
    </g>
   </g>
   <g id="text_10">
    <!-- 100 samples (μ=-0.048, σ=1.068) of tensor[1000] x∈[-3.102, 3.025] μ=0.004 σ=1.003 -->
    <g transform="translate(7.2 14.798437) scale(0.1 -0.1)">
     <defs>
      <path id="DejaVuSans-20" transform="scale(0.015625)"/>
      <path id="DejaVuSans-73" d="M 2834 3397 
L 2834 2853 
Q 2591 2978 2328 3040 
Q 2066 3103 1784 3103 
Q 1356 3103 1142 2972 
Q 928 2841 928 2578 
Q 928 2378 1081 2264 
Q 1234 2150 1697 2047 
L 1894 2003 
Q 2506 1872 2764 1633 
Q 3022 1394 3022 966 
Q 3022 478 2636 193 
Q 2250 -91 1575 -91 
Q 1294 -91 989 -36 
Q 684 19 347 128 
L 347 722 
Q 666 556 975 473 
Q 1284 391 1588 391 
Q 1994 391 2212 530 
Q 2431 669 2431 922 
Q 2431 1156 2273 1281 
Q 2116 1406 1581 1522 
L 1381 1569 
Q 847 1681 609 1914 
Q 372 2147 372 2553 
Q 372 3047 722 3315 
Q 1072 3584 1716 3584 
Q 2034 3584 2315 3537 
Q 2597 3491 2834 3397 
z
" transform="scale(0.015625)"/>
      <path id="DejaVuSans-70" d="M 1159 525 
L 1159 -1331 
L 581 -1331 
L 581 3500 
L 1159 3500 
L 1159 2969 
Q 1341 3281 1617 3432 
Q 1894 3584 2278 3584 
Q 2916 3584 3314 3078 
Q 3713 2572 3713 1747 
Q 3713 922 3314 415 
Q 2916 -91 2278 -91 
Q 1894 -91 1617 61 
Q 1341 213 1159 525 
z
M 3116 1747 
Q 3116 2381 2855 2742 
Q 2594 3103 2138 3103 
Q 1681 3103 1420 2742 
Q 1159 2381 1159 1747 
Q 1159 1113 1420 752 
Q 1681 391 2138 391 
Q 2594 391 2855 752 
Q 3116 1113 3116 1747 
z
" transform="scale(0.015625)"/>
      <path id="DejaVuSans-6c" d="M 603 4863 
L 1178 4863 
L 1178 0 
L 603 0 
L 603 4863 
z
" transform="scale(0.015625)"/>
      <path id="DejaVuSans-65" d="M 3597 1894 
L 3597 1613 
L 953 1613 
Q 991 1019 1311 708 
Q 1631 397 2203 397 
Q 2534 397 2845 478 
Q 3156 559 3463 722 
L 3463 178 
Q 3153 47 2828 -22 
Q 2503 -91 2169 -91 
Q 1331 -91 842 396 
Q 353 884 353 1716 
Q 353 2575 817 3079 
Q 1281 3584 2069 3584 
Q 2775 3584 3186 3129 
Q 3597 2675 3597 1894 
z
M 3022 2063 
Q 3016 2534 2758 2815 
Q 2500 3097 2075 3097 
Q 1594 3097 1305 2825 
Q 1016 2553 972 2059 
L 3022 2063 
z
" transform="scale(0.015625)"/>
      <path id="DejaVuSans-28" d="M 1984 4856 
Q 1566 4138 1362 3434 
Q 1159 2731 1159 2009 
Q 1159 1288 1364 580 
Q 1569 -128 1984 -844 
L 1484 -844 
Q 1016 -109 783 600 
Q 550 1309 550 2009 
Q 550 2706 781 3412 
Q 1013 4119 1484 4856 
L 1984 4856 
z
" transform="scale(0.015625)"/>
      <path id="DejaVuSans-3bc" d="M 544 -1331 
L 544 3500 
L 1119 3500 
L 1119 1325 
Q 1119 872 1334 640 
Q 1550 409 1972 409 
Q 2434 409 2667 671 
Q 2900 934 2900 1459 
L 2900 3500 
L 3475 3500 
L 3475 806 
Q 3475 619 3529 530 
Q 3584 441 3700 441 
Q 3728 441 3778 458 
Q 3828 475 3916 513 
L 3916 50 
Q 3788 -22 3673 -56 
Q 3559 -91 3450 -91 
Q 3234 -91 3106 31 
Q 2978 153 2931 403 
Q 2775 156 2548 32 
Q 2322 -91 2016 -91 
Q 1697 -91 1473 31 
Q 1250 153 1119 397 
L 1119 -1331 
L 544 -1331 
z
" transform="scale(0.015625)"/>
      <path id="DejaVuSans-34" d="M 2419 4116 
L 825 1625 
L 2419 1625 
L 2419 4116 
z
M 2253 4666 
L 3047 4666 
L 3047 1625 
L 3713 1625 
L 3713 1100 
L 3047 1100 
L 3047 0 
L 2419 0 
L 2419 1100 
L 313 1100 
L 313 1709 
L 2253 4666 
z
" transform="scale(0.015625)"/>
      <path id="DejaVuSans-38" d="M 2034 2216 
Q 1584 2216 1326 1975 
Q 1069 1734 1069 1313 
Q 1069 891 1326 650 
Q 1584 409 2034 409 
Q 2484 409 2743 651 
Q 3003 894 3003 1313 
Q 3003 1734 2745 1975 
Q 2488 2216 2034 2216 
z
M 1403 2484 
Q 997 2584 770 2862 
Q 544 3141 544 3541 
Q 544 4100 942 4425 
Q 1341 4750 2034 4750 
Q 2731 4750 3128 4425 
Q 3525 4100 3525 3541 
Q 3525 3141 3298 2862 
Q 3072 2584 2669 2484 
Q 3125 2378 3379 2068 
Q 3634 1759 3634 1313 
Q 3634 634 3220 271 
Q 2806 -91 2034 -91 
Q 1263 -91 848 271 
Q 434 634 434 1313 
Q 434 1759 690 2068 
Q 947 2378 1403 2484 
z
M 1172 3481 
Q 1172 3119 1398 2916 
Q 1625 2713 2034 2713 
Q 2441 2713 2670 2916 
Q 2900 3119 2900 3481 
Q 2900 3844 2670 4047 
Q 2441 4250 2034 4250 
Q 1625 4250 1398 4047 
Q 1172 3844 1172 3481 
z
" transform="scale(0.015625)"/>
      <path id="DejaVuSans-2c" d="M 750 794 
L 1409 794 
L 1409 256 
L 897 -744 
L 494 -744 
L 750 256 
L 750 794 
z
" transform="scale(0.015625)"/>
      <path id="DejaVuSans-3c3" d="M 1959 3044 
Q 1484 3044 1228 2700 
Q 959 2341 959 1747 
Q 959 1119 1226 758 
Q 1494 397 1959 397 
Q 2419 397 2687 759 
Q 2956 1122 2956 1747 
Q 2956 2319 2688 2700 
Q 2441 3044 1959 3044 
z
M 1959 3500 
L 3869 3500 
L 3869 2925 
L 3225 2925 
Q 3566 2438 3566 1747 
Q 3566 888 3138 400 
Q 2709 -91 1959 -91 
Q 1206 -91 781 400 
Q 353 888 353 1747 
Q 353 2613 781 3097 
Q 1134 3500 1959 3500 
z
" transform="scale(0.015625)"/>
      <path id="DejaVuSans-36" d="M 2113 2584 
Q 1688 2584 1439 2293 
Q 1191 2003 1191 1497 
Q 1191 994 1439 701 
Q 1688 409 2113 409 
Q 2538 409 2786 701 
Q 3034 994 3034 1497 
Q 3034 2003 2786 2293 
Q 2538 2584 2113 2584 
z
M 3366 4563 
L 3366 3988 
Q 3128 4100 2886 4159 
Q 2644 4219 2406 4219 
Q 1781 4219 1451 3797 
Q 1122 3375 1075 2522 
Q 1259 2794 1537 2939 
Q 1816 3084 2150 3084 
Q 2853 3084 3261 2657 
Q 3669 2231 3669 1497 
Q 3669 778 3244 343 
Q 2819 -91 2113 -91 
Q 1303 -91 875 529 
Q 447 1150 447 2328 
Q 447 3434 972 4092 
Q 1497 4750 2381 4750 
Q 2619 4750 2861 4703 
Q 3103 4656 3366 4563 
z
" transform="scale(0.015625)"/>
      <path id="DejaVuSans-29" d="M 513 4856 
L 1013 4856 
Q 1481 4119 1714 3412 
Q 1947 2706 1947 2009 
Q 1947 1309 1714 600 
Q 1481 -109 1013 -844 
L 513 -844 
Q 928 -128 1133 580 
Q 1338 1288 1338 2009 
Q 1338 2731 1133 3434 
Q 928 4138 513 4856 
z
" transform="scale(0.015625)"/>
      <path id="DejaVuSans-6f" d="M 1959 3097 
Q 1497 3097 1228 2736 
Q 959 2375 959 1747 
Q 959 1119 1226 758 
Q 1494 397 1959 397 
Q 2419 397 2687 759 
Q 2956 1122 2956 1747 
Q 2956 2369 2687 2733 
Q 2419 3097 1959 3097 
z
M 1959 3584 
Q 2709 3584 3137 3096 
Q 3566 2609 3566 1747 
Q 3566 888 3137 398 
Q 2709 -91 1959 -91 
Q 1206 -91 779 398 
Q 353 888 353 1747 
Q 353 2609 779 3096 
Q 1206 3584 1959 3584 
z
" transform="scale(0.015625)"/>
      <path id="DejaVuSans-66" d="M 2375 4863 
L 2375 4384 
L 1825 4384 
Q 1516 4384 1395 4259 
Q 1275 4134 1275 3809 
L 1275 3500 
L 2222 3500 
L 2222 3053 
L 1275 3053 
L 1275 0 
L 697 0 
L 697 3053 
L 147 3053 
L 147 3500 
L 697 3500 
L 697 3744 
Q 697 4328 969 4595 
Q 1241 4863 1831 4863 
L 2375 4863 
z
" transform="scale(0.015625)"/>
      <path id="DejaVuSans-74" d="M 1172 4494 
L 1172 3500 
L 2356 3500 
L 2356 3053 
L 1172 3053 
L 1172 1153 
Q 1172 725 1289 603 
Q 1406 481 1766 481 
L 2356 481 
L 2356 0 
L 1766 0 
Q 1100 0 847 248 
Q 594 497 594 1153 
L 594 3053 
L 172 3053 
L 172 3500 
L 594 3500 
L 594 4494 
L 1172 4494 
z
" transform="scale(0.015625)"/>
      <path id="DejaVuSans-72" d="M 2631 2963 
Q 2534 3019 2420 3045 
Q 2306 3072 2169 3072 
Q 1681 3072 1420 2755 
Q 1159 2438 1159 1844 
L 1159 0 
L 581 0 
L 581 3500 
L 1159 3500 
L 1159 2956 
Q 1341 3275 1631 3429 
Q 1922 3584 2338 3584 
Q 2397 3584 2469 3576 
Q 2541 3569 2628 3553 
L 2631 2963 
z
" transform="scale(0.015625)"/>
      <path id="DejaVuSans-5b" d="M 550 4863 
L 1875 4863 
L 1875 4416 
L 1125 4416 
L 1125 -397 
L 1875 -397 
L 1875 -844 
L 550 -844 
L 550 4863 
z
" transform="scale(0.015625)"/>
      <path id="DejaVuSans-5d" d="M 1947 4863 
L 1947 -844 
L 622 -844 
L 622 -397 
L 1369 -397 
L 1369 4416 
L 622 4416 
L 622 4863 
L 1947 4863 
z
" transform="scale(0.015625)"/>
      <path id="DejaVuSans-2208" d="M 1072 1959 
Q 1094 1728 1291 1353 
Q 1522 919 1959 675 
Q 2388 438 2850 434 
L 5028 434 
L 5028 -63 
L 2850 -63 
Q 2250 -63 1695 246 
Q 1141 556 844 1106 
Q 547 1656 547 2241 
Q 547 2819 844 3369 
Q 1141 3919 1695 4231 
Q 2250 4544 2850 4544 
L 5028 4544 
L 5028 4047 
L 2850 4047 
Q 2388 4044 1959 3803 
Q 1525 3556 1291 3125 
Q 1091 2750 1063 2459 
L 5028 2459 
L 5028 1959 
L 1072 1959 
z
" transform="scale(0.015625)"/>
     </defs>
     <use xlink:href="#DejaVuSans-31"/>
     <use xlink:href="#DejaVuSans-30" transform="translate(63.623047 0)"/>
     <use xlink:href="#DejaVuSans-30" transform="translate(127.246094 0)"/>
     <use xlink:href="#DejaVuSans-20" transform="translate(190.869141 0)"/>
     <use xlink:href="#DejaVuSans-73" transform="translate(222.65625 0)"/>
     <use xlink:href="#DejaVuSans-61" transform="translate(274.755859 0)"/>
     <use xlink:href="#DejaVuSans-6d" transform="translate(336.035156 0)"/>
     <use xlink:href="#DejaVuSans-70" transform="translate(433.447266 0)"/>
     <use xlink:href="#DejaVuSans-6c" transform="translate(496.923828 0)"/>
     <use xlink:href="#DejaVuSans-65" transform="translate(524.707031 0)"/>
     <use xlink:href="#DejaVuSans-73" transform="translate(586.230469 0)"/>
     <use xlink:href="#DejaVuSans-20" transform="translate(638.330078 0)"/>
     <use xlink:href="#DejaVuSans-28" transform="translate(670.117188 0)"/>
     <use xlink:href="#DejaVuSans-3bc" transform="translate(709.130859 0)"/>
     <use xlink:href="#DejaVuSans-3d" transform="translate(772.753906 0)"/>
     <use xlink:href="#DejaVuSans-2d" transform="translate(856.542969 0)"/>
     <use xlink:href="#DejaVuSans-30" transform="translate(892.626953 0)"/>
     <use xlink:href="#DejaVuSans-2e" transform="translate(956.25 0)"/>
     <use xlink:href="#DejaVuSans-30" transform="translate(988.037109 0)"/>
     <use xlink:href="#DejaVuSans-34" transform="translate(1051.660156 0)"/>
     <use xlink:href="#DejaVuSans-38" transform="translate(1115.283203 0)"/>
     <use xlink:href="#DejaVuSans-2c" transform="translate(1178.90625 0)"/>
     <use xlink:href="#DejaVuSans-20" transform="translate(1210.693359 0)"/>
     <use xlink:href="#DejaVuSans-3c3" transform="translate(1242.480469 0)"/>
     <use xlink:href="#DejaVuSans-3d" transform="translate(1305.859375 0)"/>
     <use xlink:href="#DejaVuSans-31" transform="translate(1389.648438 0)"/>
     <use xlink:href="#DejaVuSans-2e" transform="translate(1453.271484 0)"/>
     <use xlink:href="#DejaVuSans-30" transform="translate(1485.058594 0)"/>
     <use xlink:href="#DejaVuSans-36" transform="translate(1548.681641 0)"/>
     <use xlink:href="#DejaVuSans-38" transform="translate(1612.304688 0)"/>
     <use xlink:href="#DejaVuSans-29" transform="translate(1675.927734 0)"/>
     <use xlink:href="#DejaVuSans-20" transform="translate(1714.941406 0)"/>
     <use xlink:href="#DejaVuSans-6f" transform="translate(1746.728516 0)"/>
     <use xlink:href="#DejaVuSans-66" transform="translate(1807.910156 0)"/>
     <use xlink:href="#DejaVuSans-20" transform="translate(1843.115234 0)"/>
     <use xlink:href="#DejaVuSans-74" transform="translate(1874.902344 0)"/>
     <use xlink:href="#DejaVuSans-65" transform="translate(1914.111328 0)"/>
     <use xlink:href="#DejaVuSans-6e" transform="translate(1975.634766 0)"/>
     <use xlink:href="#DejaVuSans-73" transform="translate(2039.013672 0)"/>
     <use xlink:href="#DejaVuSans-6f" transform="translate(2091.113281 0)"/>
     <use xlink:href="#DejaVuSans-72" transform="translate(2152.294922 0)"/>
     <use xlink:href="#DejaVuSans-5b" transform="translate(2193.408203 0)"/>
     <use xlink:href="#DejaVuSans-31" transform="translate(2232.421875 0)"/>
     <use xlink:href="#DejaVuSans-30" transform="translate(2296.044922 0)"/>
     <use xlink:href="#DejaVuSans-30" transform="translate(2359.667969 0)"/>
     <use xlink:href="#DejaVuSans-30" transform="translate(2423.291016 0)"/>
     <use xlink:href="#DejaVuSans-5d" transform="translate(2486.914062 0)"/>
     <use xlink:href="#DejaVuSans-20" transform="translate(2525.927734 0)"/>
     <use xlink:href="#DejaVuSans-78" transform="translate(2557.714844 0)"/>
     <use xlink:href="#DejaVuSans-2208" transform="translate(2616.894531 0)"/>
     <use xlink:href="#DejaVuSans-5b" transform="translate(2704.003906 0)"/>
     <use xlink:href="#DejaVuSans-2d" transform="translate(2743.017578 0)"/>
     <use xlink:href="#DejaVuSans-33" transform="translate(2779.101562 0)"/>
     <use xlink:href="#DejaVuSans-2e" transform="translate(2842.724609 0)"/>
     <use xlink:href="#DejaVuSans-31" transform="translate(2874.511719 0)"/>
     <use xlink:href="#DejaVuSans-30" transform="translate(2938.134766 0)"/>
     <use xlink:href="#DejaVuSans-32" transform="translate(3001.757812 0)"/>
     <use xlink:href="#DejaVuSans-2c" transform="translate(3065.380859 0)"/>
     <use xlink:href="#DejaVuSans-20" transform="translate(3097.167969 0)"/>
     <use xlink:href="#DejaVuSans-33" transform="translate(3128.955078 0)"/>
     <use xlink:href="#DejaVuSans-2e" transform="translate(3192.578125 0)"/>
     <use xlink:href="#DejaVuSans-30" transform="translate(3224.365234 0)"/>
     <use xlink:href="#DejaVuSans-32" transform="translate(3287.988281 0)"/>
     <use xlink:href="#DejaVuSans-35" transform="translate(3351.611328 0)"/>
     <use xlink:href="#DejaVuSans-5d" transform="translate(3415.234375 0)"/>
     <use xlink:href="#DejaVuSans-20" transform="translate(3454.248047 0)"/>
     <use xlink:href="#DejaVuSans-3bc" transform="translate(3486.035156 0)"/>
     <use xlink:href="#DejaVuSans-3d" transform="translate(3549.658203 0)"/>
     <use xlink:href="#DejaVuSans-30" transform="translate(3633.447266 0)"/>
     <use xlink:href="#DejaVuSans-2e" transform="translate(3697.070312 0)"/>
     <use xlink:href="#DejaVuSans-30" transform="translate(3728.857422 0)"/>
     <use xlink:href="#DejaVuSans-30" transform="translate(3792.480469 0)"/>
     <use xlink:href="#DejaVuSans-34" transform="translate(3856.103516 0)"/>
     <use xlink:href="#DejaVuSans-20" transform="translate(3919.726562 0)"/>
     <use xlink:href="#DejaVuSans-3c3" transform="translate(3951.513672 0)"/>
     <use xlink:href="#DejaVuSans-3d" transform="translate(4014.892578 0)"/>
     <use xlink:href="#DejaVuSans-31" transform="translate(4098.681641 0)"/>
     <use xlink:href="#DejaVuSans-2e" transform="translate(4162.304688 0)"/>
     <use xlink:href="#DejaVuSans-30" transform="translate(4194.091797 0)"/>
     <use xlink:href="#DejaVuSans-30" transform="translate(4257.714844 0)"/>
     <use xlink:href="#DejaVuSans-33" transform="translate(4321.337891 0)"/>
    </g>
   </g>
   <g id="patch_9">
    <path d="M 23.693644 128.528148 
L 102.60378 128.528148 
L 102.60378 120.319431 
L 23.693644 120.319431 
z
" clip-path="url(#p3faa57d3e6)" style="fill: #00bfff"/>
   </g>
   <g id="patch_10">
    <path d="M 102.60378 128.528148 
L 181.513916 128.528148 
L 181.513916 125.791909 
L 102.60378 125.791909 
z
" clip-path="url(#p3faa57d3e6)" style="fill: #00bfff"/>
   </g>
   <g id="patch_11">
    <path d="M 181.513916 128.528148 
L 260.424053 128.528148 
L 260.424053 109.374477 
L 181.513916 109.374477 
z
" clip-path="url(#p3faa57d3e6)" style="fill: #00bfff"/>
   </g>
   <g id="patch_12">
    <path d="M 260.424053 128.528148 
L 339.334189 128.528148 
L 339.334189 92.957044 
L 260.424053 92.957044 
z
" clip-path="url(#p3faa57d3e6)" style="fill: #00bfff"/>
   </g>
   <g id="patch_13">
    <path d="M 339.334189 128.528148 
L 418.244325 128.528148 
L 418.244325 76.539612 
L 339.334189 76.539612 
z
" clip-path="url(#p3faa57d3e6)" style="fill: #00bfff"/>
   </g>
   <g id="patch_14">
    <path d="M 418.244325 128.528148 
L 497.154461 128.528148 
L 497.154461 49.177225 
L 418.244325 49.177225 
z
" clip-path="url(#p3faa57d3e6)" style="fill: #00bfff"/>
   </g>
   <g id="patch_15">
    <path d="M 497.154461 128.528148 
L 576.064598 128.528148 
L 576.064598 90.220806 
L 497.154461 90.220806 
z
" clip-path="url(#p3faa57d3e6)" style="fill: #00bfff"/>
   </g>
   <g id="patch_16">
    <path d="M 576.064598 128.528148 
L 654.974734 128.528148 
L 654.974734 103.901999 
L 576.064598 103.901999 
z
" clip-path="url(#p3faa57d3e6)" style="fill: #00bfff"/>
   </g>
   <g id="patch_17">
    <path d="M 654.974734 128.528148 
L 733.88487 128.528148 
L 733.88487 117.583193 
L 654.974734 117.583193 
z
" clip-path="url(#p3faa57d3e6)" style="fill: #00bfff"/>
   </g>
   <g id="patch_18">
    <path d="M 733.88487 128.528148 
L 812.795038 128.528148 
L 812.795038 125.79191 
L 733.88487 125.79191 
z
" clip-path="url(#p3faa57d3e6)" style="fill: #00bfff"/>
   </g>
   <g id="line2d_15">
    <path d="M 7.2 127.801087 
L 15.866662 127.657983 
L 24.533324 127.490585 
L 33.199985 127.295583 
L 41.866647 127.069375 
L 50.533309 126.808071 
L 59.199971 126.5075 
L 67.866633 126.163232 
L 76.533295 125.770598 
L 85.199956 125.324731 
L 93.866618 124.820606 
L 102.53328 124.2531 
L 111.199942 123.617051 
L 119.866604 122.907345 
L 128.533265 122.118994 
L 137.199927 121.247241 
L 145.866589 120.287663 
L 154.533251 119.236292 
L 163.199913 118.089732 
L 171.866575 116.845287 
L 180.533236 115.501093 
L 189.199898 114.056241 
L 197.86656 112.510907 
L 206.533222 110.866464 
L 215.199884 109.125591 
L 223.866545 107.292365 
L 232.533207 105.372335 
L 241.199869 103.372573 
L 249.866531 101.301705 
L 258.533193 99.169908 
L 267.199855 96.988882 
L 275.866516 94.77179 
L 284.533178 92.533158 
L 293.19984 90.288757 
L 301.866502 88.055434 
L 310.533164 85.850926 
L 319.199825 83.69364 
L 327.866487 81.602408 
L 336.533149 79.596224 
L 345.199811 77.693957 
L 353.866473 75.914068 
L 362.533135 74.274305 
L 371.199796 72.791419 
L 379.866458 71.480874 
L 388.53312 70.35658 
L 397.199782 69.43065 
L 405.866444 68.713181 
L 414.533105 68.21207 
L 423.199767 67.932872 
L 431.866429 67.878694 
L 440.533091 68.050141 
L 449.199753 68.445301 
L 457.866415 69.059786 
L 466.533076 69.886805 
L 475.199738 70.917297 
L 483.8664 72.140092 
L 492.533062 73.542113 
L 501.199724 75.108609 
L 509.866385 76.823413 
L 518.533047 78.669218 
L 527.199709 80.627869 
L 535.866371 82.680657 
L 544.533033 84.80861 
L 553.199695 86.992786 
L 561.866356 89.214541 
L 570.533018 91.455788 
L 579.19968 93.699227 
L 587.866342 95.928549 
L 596.533004 98.128612 
L 605.199665 100.285586 
L 613.866327 102.387058 
L 622.532989 104.422116 
L 631.199651 106.381386 
L 639.866313 108.257054 
L 648.532975 110.042845 
L 657.199636 111.733983 
L 665.866298 113.327128 
L 674.53296 114.820294 
L 683.199622 116.212744 
L 691.866284 117.504881 
L 700.532945 118.698127 
L 709.199607 119.794796 
L 717.866269 120.797961 
L 726.532931 121.711334 
L 735.199593 122.539134 
L 743.866255 123.285971 
L 752.532916 123.956734 
L 761.199578 124.556491 
L 769.86624 125.090388 
L 778.532902 125.563578 
L 787.199564 125.98114 
L 795.866225 126.348023 
L 804.532887 126.668996 
L 813.199549 126.948607 
L 821.866211 127.191155 
L 830.532873 127.400665 
L 839.199535 127.580879 
L 847.866196 127.735246 
L 856.532858 127.866926 
L 865.19952 127.978786 
" clip-path="url(#p3faa57d3e6)" style="fill: none; stroke: #1f77b4; stroke-width: 1.5; stroke-linecap: square"/>
   </g>
   <g id="text_11">
    <g id="patch_19">
     <path d="M 137.441121 38.307963 
L 153.748934 38.307963 
Q 156.748934 38.307963 156.748934 35.307963 
L 156.748934 25.629838 
Q 156.748934 22.629838 153.748934 22.629838 
L 137.441121 22.629838 
Q 134.441121 22.629838 134.441121 25.629838 
L 134.441121 35.307963 
Q 134.441121 38.307963 137.441121 38.307963 
z
" style="fill: #ffffff"/>
    </g>
    <!-- -2σ -->
    <g transform="translate(137.441121 33.228276) scale(0.1 -0.1)">
     <use xlink:href="#DejaVuSans-2d"/>
     <use xlink:href="#DejaVuSans-32" transform="translate(36.083984 0)"/>
     <use xlink:href="#DejaVuSans-3c3" transform="translate(99.707031 0)"/>
    </g>
   </g>
   <g id="text_12">
    <g id="patch_20">
     <path d="M 282.631186 38.307963 
L 292.576499 38.307963 
Q 295.576499 38.307963 295.576499 35.307963 
L 295.576499 25.629838 
Q 295.576499 22.629838 292.576499 22.629838 
L 282.631186 22.629838 
Q 279.631186 22.629838 279.631186 25.629838 
L 279.631186 35.307963 
Q 279.631186 38.307963 282.631186 38.307963 
z
" style="fill: #ffffff"/>
    </g>
    <!-- -σ -->
    <g transform="translate(282.631186 33.228276) scale(0.1 -0.1)">
     <use xlink:href="#DejaVuSans-2d"/>
     <use xlink:href="#DejaVuSans-3c3" transform="translate(36.083984 0)"/>
    </g>
   </g>
   <g id="text_13">
    <g id="patch_21">
     <path d="M 425.933734 38.307963 
L 433.291547 38.307963 
Q 436.291547 38.307963 436.291547 35.307963 
L 436.291547 25.629838 
Q 436.291547 22.629838 433.291547 22.629838 
L 425.933734 22.629838 
Q 422.933734 22.629838 422.933734 25.629838 
L 422.933734 35.307963 
Q 422.933734 38.307963 425.933734 38.307963 
z
" style="fill: #ffffff"/>
    </g>
    <!-- μ -->
    <g transform="translate(425.933734 33.217338) scale(0.1 -0.1)">
     <defs>
      <path id="DejaVuSans-Bold-3bc" d="M 544 -1338 
L 544 3500 
L 1672 3500 
L 1672 1466 
Q 1672 1103 1828 926 
Q 1984 750 2303 750 
Q 2625 750 2781 926 
Q 2938 1103 2938 1466 
L 2938 3500 
L 4063 3500 
L 4063 1159 
Q 4063 938 4114 850 
Q 4166 763 4288 763 
Q 4344 763 4395 778 
Q 4447 794 4506 831 
L 4506 50 
Q 4341 -22 4195 -56 
Q 4050 -91 3909 -91 
Q 3631 -91 3454 26 
Q 3278 144 3169 403 
Q 3022 156 2811 32 
Q 2600 -91 2322 -91 
Q 2091 -91 1928 -17 
Q 1766 56 1672 206 
L 1672 -1338 
L 544 -1338 
z
" transform="scale(0.015625)"/>
     </defs>
     <use xlink:href="#DejaVuSans-Bold-3bc"/>
    </g>
   </g>
   <g id="text_14">
    <g id="patch_22">
     <path d="M 564.262848 38.307963 
L 578.980035 38.307963 
Q 581.980035 38.307963 581.980035 35.307963 
L 581.980035 25.629838 
Q 581.980035 22.629838 578.980035 22.629838 
L 564.262848 22.629838 
Q 561.262848 22.629838 561.262848 25.629838 
L 561.262848 35.307963 
Q 561.262848 38.307963 564.262848 38.307963 
z
" style="fill: #ffffff"/>
    </g>
    <!-- +σ -->
    <g transform="translate(564.262848 33.228276) scale(0.1 -0.1)">
     <defs>
      <path id="DejaVuSans-2b" d="M 2944 4013 
L 2944 2272 
L 4684 2272 
L 4684 1741 
L 2944 1741 
L 2944 0 
L 2419 0 
L 2419 1741 
L 678 1741 
L 678 2272 
L 2419 2272 
L 2419 4013 
L 2944 4013 
z
" transform="scale(0.015625)"/>
     </defs>
     <use xlink:href="#DejaVuSans-2b"/>
     <use xlink:href="#DejaVuSans-3c3" transform="translate(83.789062 0)"/>
    </g>
   </g>
   <g id="text_15">
    <g id="patch_23">
     <path d="M 703.090381 38.307963 
L 724.170069 38.307963 
Q 727.170069 38.307963 727.170069 35.307963 
L 727.170069 25.629838 
Q 727.170069 22.629838 724.170069 22.629838 
L 703.090381 22.629838 
Q 700.090381 22.629838 700.090381 25.629838 
L 700.090381 35.307963 
Q 700.090381 38.307963 703.090381 38.307963 
z
" style="fill: #ffffff"/>
    </g>
    <!-- +2σ -->
    <g transform="translate(703.090381 33.228276) scale(0.1 -0.1)">
     <use xlink:href="#DejaVuSans-2b"/>
     <use xlink:href="#DejaVuSans-32" transform="translate(83.789062 0)"/>
     <use xlink:href="#DejaVuSans-3c3" transform="translate(147.412109 0)"/>
    </g>
   </g>
  </g>
 </g>
 <defs>
  <clipPath id="p3faa57d3e6">
   <rect x="7.2" y="20.214138" width="857.99952" height="108.31401"/>
  </clipPath>
 </defs>
</svg>
