<?xml version="1.0" encoding="utf-8" standalone="no"?>
<!DOCTYPE svg PUBLIC "-//W3C//DTD SVG 1.1//EN"
  "http://www.w3.org/Graphics/SVG/1.1/DTD/svg11.dtd">
<svg xmlns:xlink="http://www.w3.org/1999/xlink" width="856.8pt" height="135.884972pt" viewBox="0 0 856.8 135.884972" xmlns="http://www.w3.org/2000/svg" version="1.1">
 <metadata>
  <rdf:RDF xmlns:dc="http://purl.org/dc/elements/1.1/" xmlns:cc="http://creativecommons.org/ns#" xmlns:rdf="http://www.w3.org/1999/02/22-rdf-syntax-ns#">
   <cc:Work>
    <dc:type rdf:resource="http://purl.org/dc/dcmitype/StillImage"/>
    <dc:date>2022-10-25T15:22:04.591246</dc:date>
    <dc:format>image/svg+xml</dc:format>
    <dc:creator>
     <cc:Agent>
      <dc:title>Matplotlib v3.6.1, https://matplotlib.org/</dc:title>
     </cc:Agent>
    </dc:creator>
   </cc:Work>
  </rdf:RDF>
 </metadata>
 <defs>
  <style type="text/css">*{stroke-linejoin: round; stroke-linecap: butt}</style>
 </defs>
 <g id="figure_1">
  <g id="patch_1">
   <path d="M 0 135.884972 
L 856.8 135.884972 
L 856.8 0 
L 0 0 
z
" style="fill: #ffffff"/>
  </g>
  <g id="axes_1">
   <g id="patch_2">
    <path d="M 10.7 112.006847 
L 849.6 112.006847 
L 849.6 19.427409 
L 10.7 19.427409 
z
" style="fill: #ffffff"/>
   </g>
   <g id="matplotlib.axis_1">
    <g id="xtick_1">
     <g id="line2d_1">
      <defs>
       <path id="m2122e79172" d="M 0 0 
L 0 3.5 
" style="stroke: #000000; stroke-width: 0.8"/>
      </defs>
      <g>
       <use xlink:href="#m2122e79172" x="24.492384" y="112.006847" style="stroke: #000000; stroke-width: 0.8"/>
      </g>
     </g>
     <g id="text_1">
      <!-- −6 -->
      <g transform="translate(17.121291 126.605284) scale(0.1 -0.1)">
       <defs>
        <path id="DejaVuSans-2212" d="M 678 2272 
L 4684 2272 
L 4684 1741 
L 678 1741 
L 678 2272 
z
" transform="scale(0.015625)"/>
        <path id="DejaVuSans-36" d="M 2113 2584 
Q 1688 2584 1439 2293 
Q 1191 2003 1191 1497 
Q 1191 994 1439 701 
Q 1688 409 2113 409 
Q 2538 409 2786 701 
Q 3034 994 3034 1497 
Q 3034 2003 2786 2293 
Q 2538 2584 2113 2584 
z
M 3366 4563 
L 3366 3988 
Q 3128 4100 2886 4159 
Q 2644 4219 2406 4219 
Q 1781 4219 1451 3797 
Q 1122 3375 1075 2522 
Q 1259 2794 1537 2939 
Q 1816 3084 2150 3084 
Q 2853 3084 3261 2657 
Q 3669 2231 3669 1497 
Q 3669 778 3244 343 
Q 2819 -91 2113 -91 
Q 1303 -91 875 529 
Q 447 1150 447 2328 
Q 447 3434 972 4092 
Q 1497 4750 2381 4750 
Q 2619 4750 2861 4703 
Q 3103 4656 3366 4563 
z
" transform="scale(0.015625)"/>
       </defs>
       <use xlink:href="#DejaVuSans-2212"/>
       <use xlink:href="#DejaVuSans-36" x="83.789062"/>
      </g>
     </g>
    </g>
    <g id="xtick_2">
     <g id="line2d_2">
      <g>
       <use xlink:href="#m2122e79172" x="159.71159" y="112.006847" style="stroke: #000000; stroke-width: 0.8"/>
      </g>
     </g>
     <g id="text_2">
      <!-- −4 -->
      <g transform="translate(152.340496 126.605284) scale(0.1 -0.1)">
       <defs>
        <path id="DejaVuSans-34" d="M 2419 4116 
L 825 1625 
L 2419 1625 
L 2419 4116 
z
M 2253 4666 
L 3047 4666 
L 3047 1625 
L 3713 1625 
L 3713 1100 
L 3047 1100 
L 3047 0 
L 2419 0 
L 2419 1100 
L 313 1100 
L 313 1709 
L 2253 4666 
z
" transform="scale(0.015625)"/>
       </defs>
       <use xlink:href="#DejaVuSans-2212"/>
       <use xlink:href="#DejaVuSans-34" x="83.789062"/>
      </g>
     </g>
    </g>
    <g id="xtick_3">
     <g id="line2d_3">
      <g>
       <use xlink:href="#m2122e79172" x="294.930795" y="112.006847" style="stroke: #000000; stroke-width: 0.8"/>
      </g>
     </g>
     <g id="text_3">
      <!-- −2 -->
      <g transform="translate(287.559701 126.605284) scale(0.1 -0.1)">
       <defs>
        <path id="DejaVuSans-32" d="M 1228 531 
L 3431 531 
L 3431 0 
L 469 0 
L 469 531 
Q 828 903 1448 1529 
Q 2069 2156 2228 2338 
Q 2531 2678 2651 2914 
Q 2772 3150 2772 3378 
Q 2772 3750 2511 3984 
Q 2250 4219 1831 4219 
Q 1534 4219 1204 4116 
Q 875 4013 500 3803 
L 500 4441 
Q 881 4594 1212 4672 
Q 1544 4750 1819 4750 
Q 2544 4750 2975 4387 
Q 3406 4025 3406 3419 
Q 3406 3131 3298 2873 
Q 3191 2616 2906 2266 
Q 2828 2175 2409 1742 
Q 1991 1309 1228 531 
z
" transform="scale(0.015625)"/>
       </defs>
       <use xlink:href="#DejaVuSans-2212"/>
       <use xlink:href="#DejaVuSans-32" x="83.789062"/>
      </g>
     </g>
    </g>
    <g id="xtick_4">
     <g id="line2d_4">
      <g>
       <use xlink:href="#m2122e79172" x="430.15" y="112.006847" style="stroke: #000000; stroke-width: 0.8"/>
      </g>
     </g>
     <g id="text_4">
      <!-- 0 -->
      <g transform="translate(426.96875 126.605284) scale(0.1 -0.1)">
       <defs>
        <path id="DejaVuSans-30" d="M 2034 4250 
Q 1547 4250 1301 3770 
Q 1056 3291 1056 2328 
Q 1056 1369 1301 889 
Q 1547 409 2034 409 
Q 2525 409 2770 889 
Q 3016 1369 3016 2328 
Q 3016 3291 2770 3770 
Q 2525 4250 2034 4250 
z
M 2034 4750 
Q 2819 4750 3233 4129 
Q 3647 3509 3647 2328 
Q 3647 1150 3233 529 
Q 2819 -91 2034 -91 
Q 1250 -91 836 529 
Q 422 1150 422 2328 
Q 422 3509 836 4129 
Q 1250 4750 2034 4750 
z
" transform="scale(0.015625)"/>
       </defs>
       <use xlink:href="#DejaVuSans-30"/>
      </g>
     </g>
    </g>
    <g id="xtick_5">
     <g id="line2d_5">
      <g>
       <use xlink:href="#m2122e79172" x="565.369205" y="112.006847" style="stroke: #000000; stroke-width: 0.8"/>
      </g>
     </g>
     <g id="text_5">
      <!-- 2 -->
      <g transform="translate(562.187955 126.605284) scale(0.1 -0.1)">
       <use xlink:href="#DejaVuSans-32"/>
      </g>
     </g>
    </g>
    <g id="xtick_6">
     <g id="line2d_6">
      <g>
       <use xlink:href="#m2122e79172" x="700.58841" y="112.006847" style="stroke: #000000; stroke-width: 0.8"/>
      </g>
     </g>
     <g id="text_6">
      <!-- 4 -->
      <g transform="translate(697.40716 126.605284) scale(0.1 -0.1)">
       <use xlink:href="#DejaVuSans-34"/>
      </g>
     </g>
    </g>
    <g id="xtick_7">
     <g id="line2d_7">
      <g>
       <use xlink:href="#m2122e79172" x="835.807616" y="112.006847" style="stroke: #000000; stroke-width: 0.8"/>
      </g>
     </g>
     <g id="text_7">
      <!-- 6 -->
      <g transform="translate(832.626366 126.605284) scale(0.1 -0.1)">
       <use xlink:href="#DejaVuSans-36"/>
      </g>
     </g>
    </g>
   </g>
   <g id="matplotlib.axis_2"/>
   <g id="line2d_8">
    <path d="M 461.610253 112.006847 
L 461.610253 19.427409 
" clip-path="url(#pe3678120f6)" style="fill: none; stroke: #000000; stroke-width: 1.5; stroke-linecap: square"/>
   </g>
   <g id="line2d_9">
    <path d="M 534.167652 112.006847 
L 534.167652 19.427409 
" clip-path="url(#pe3678120f6)" style="fill: none; stroke: #000000; stroke-width: 1.5; stroke-linecap: square"/>
   </g>
   <g id="line2d_10">
    <path d="M 606.725052 112.006847 
L 606.725052 19.427409 
" clip-path="url(#pe3678120f6)" style="fill: none; stroke: #000000; stroke-width: 1.5; stroke-linecap: square"/>
   </g>
   <g id="line2d_11">
    <path d="M 679.282452 112.006847 
L 679.282452 19.427409 
" clip-path="url(#pe3678120f6)" style="fill: none; stroke: #000000; stroke-width: 1.5; stroke-linecap: square"/>
   </g>
   <g id="line2d_12">
    <path d="M 751.839867 112.006847 
L 751.839867 19.427409 
" clip-path="url(#pe3678120f6)" style="fill: none; stroke: #000000; stroke-width: 1.5; stroke-linecap: square"/>
   </g>
   <g id="patch_3">
    <path d="M 10.7 112.006847 
L 10.7 19.427409 
" style="fill: none; stroke: #000000; stroke-width: 0.8; stroke-linejoin: miter; stroke-linecap: square"/>
   </g>
   <g id="patch_4">
    <path d="M 849.6 112.006847 
L 849.6 19.427409 
" style="fill: none; stroke: #000000; stroke-width: 0.8; stroke-linejoin: miter; stroke-linecap: square"/>
   </g>
   <g id="patch_5">
    <path d="M 10.7 112.006847 
L 849.6 112.006847 
" style="fill: none; stroke: #000000; stroke-width: 0.8; stroke-linejoin: miter; stroke-linecap: square"/>
   </g>
   <g id="patch_6">
    <path d="M 10.7 19.427409 
L 849.6 19.427409 
" style="fill: none; stroke: #000000; stroke-width: 0.8; stroke-linejoin: miter; stroke-linecap: square"/>
   </g>
   <g id="text_8">
    <g id="patch_7">
     <path d="M 491.788164 93.649159 
L 491.788164 37.785097 
Q 491.788164 34.785097 488.788164 34.785097 
L 479.110039 34.785097 
Q 476.110039 34.785097 476.110039 37.785097 
L 476.110039 93.649159 
Q 476.110039 96.649159 479.110039 96.649159 
L 488.788164 96.649159 
Q 491.788164 96.649159 491.788164 93.649159 
z
" style="fill: #ffffff"/>
    </g>
    <!-- min=0.882 -->
    <g transform="translate(486.708476 93.649159) rotate(-90) scale(0.1 -0.1)">
     <defs>
      <path id="DejaVuSans-6d" d="M 3328 2828 
Q 3544 3216 3844 3400 
Q 4144 3584 4550 3584 
Q 5097 3584 5394 3201 
Q 5691 2819 5691 2113 
L 5691 0 
L 5113 0 
L 5113 2094 
Q 5113 2597 4934 2840 
Q 4756 3084 4391 3084 
Q 3944 3084 3684 2787 
Q 3425 2491 3425 1978 
L 3425 0 
L 2847 0 
L 2847 2094 
Q 2847 2600 2669 2842 
Q 2491 3084 2119 3084 
Q 1678 3084 1418 2786 
Q 1159 2488 1159 1978 
L 1159 0 
L 581 0 
L 581 3500 
L 1159 3500 
L 1159 2956 
Q 1356 3278 1631 3431 
Q 1906 3584 2284 3584 
Q 2666 3584 2933 3390 
Q 3200 3197 3328 2828 
z
" transform="scale(0.015625)"/>
      <path id="DejaVuSans-69" d="M 603 3500 
L 1178 3500 
L 1178 0 
L 603 0 
L 603 3500 
z
M 603 4863 
L 1178 4863 
L 1178 4134 
L 603 4134 
L 603 4863 
z
" transform="scale(0.015625)"/>
      <path id="DejaVuSans-6e" d="M 3513 2113 
L 3513 0 
L 2938 0 
L 2938 2094 
Q 2938 2591 2744 2837 
Q 2550 3084 2163 3084 
Q 1697 3084 1428 2787 
Q 1159 2491 1159 1978 
L 1159 0 
L 581 0 
L 581 3500 
L 1159 3500 
L 1159 2956 
Q 1366 3272 1645 3428 
Q 1925 3584 2291 3584 
Q 2894 3584 3203 3211 
Q 3513 2838 3513 2113 
z
" transform="scale(0.015625)"/>
      <path id="DejaVuSans-3d" d="M 678 2906 
L 4684 2906 
L 4684 2381 
L 678 2381 
L 678 2906 
z
M 678 1631 
L 4684 1631 
L 4684 1100 
L 678 1100 
L 678 1631 
z
" transform="scale(0.015625)"/>
      <path id="DejaVuSans-2e" d="M 684 794 
L 1344 794 
L 1344 0 
L 684 0 
L 684 794 
z
" transform="scale(0.015625)"/>
      <path id="DejaVuSans-38" d="M 2034 2216 
Q 1584 2216 1326 1975 
Q 1069 1734 1069 1313 
Q 1069 891 1326 650 
Q 1584 409 2034 409 
Q 2484 409 2743 651 
Q 3003 894 3003 1313 
Q 3003 1734 2745 1975 
Q 2488 2216 2034 2216 
z
M 1403 2484 
Q 997 2584 770 2862 
Q 544 3141 544 3541 
Q 544 4100 942 4425 
Q 1341 4750 2034 4750 
Q 2731 4750 3128 4425 
Q 3525 4100 3525 3541 
Q 3525 3141 3298 2862 
Q 3072 2584 2669 2484 
Q 3125 2378 3379 2068 
Q 3634 1759 3634 1313 
Q 3634 634 3220 271 
Q 2806 -91 2034 -91 
Q 1263 -91 848 271 
Q 434 634 434 1313 
Q 434 1759 690 2068 
Q 947 2378 1403 2484 
z
M 1172 3481 
Q 1172 3119 1398 2916 
Q 1625 2713 2034 2713 
Q 2441 2713 2670 2916 
Q 2900 3119 2900 3481 
Q 2900 3844 2670 4047 
Q 2441 4250 2034 4250 
Q 1625 4250 1398 4047 
Q 1172 3844 1172 3481 
z
" transform="scale(0.015625)"/>
     </defs>
     <use xlink:href="#DejaVuSans-6d"/>
     <use xlink:href="#DejaVuSans-69" x="97.412109"/>
     <use xlink:href="#DejaVuSans-6e" x="125.195312"/>
     <use xlink:href="#DejaVuSans-3d" x="188.574219"/>
     <use xlink:href="#DejaVuSans-30" x="272.363281"/>
     <use xlink:href="#DejaVuSans-2e" x="335.986328"/>
     <use xlink:href="#DejaVuSans-38" x="367.773438"/>
     <use xlink:href="#DejaVuSans-38" x="431.396484"/>
     <use xlink:href="#DejaVuSans-32" x="495.019531"/>
    </g>
   </g>
   <g id="text_9">
    <g id="patch_8">
     <path d="M 826.146307 95.114784 
L 826.146307 36.319472 
Q 826.146307 33.319472 823.146307 33.319472 
L 813.468182 33.319472 
Q 810.468182 33.319472 810.468182 36.319472 
L 810.468182 95.114784 
Q 810.468182 98.114784 813.468182 98.114784 
L 823.146307 98.114784 
Q 826.146307 98.114784 826.146307 95.114784 
z
" style="fill: #ffffff"/>
    </g>
    <!-- max=5.640 -->
    <g transform="translate(821.066619 95.114784) rotate(-90) scale(0.1 -0.1)">
     <defs>
      <path id="DejaVuSans-61" d="M 2194 1759 
Q 1497 1759 1228 1600 
Q 959 1441 959 1056 
Q 959 750 1161 570 
Q 1363 391 1709 391 
Q 2188 391 2477 730 
Q 2766 1069 2766 1631 
L 2766 1759 
L 2194 1759 
z
M 3341 1997 
L 3341 0 
L 2766 0 
L 2766 531 
Q 2569 213 2275 61 
Q 1981 -91 1556 -91 
Q 1019 -91 701 211 
Q 384 513 384 1019 
Q 384 1609 779 1909 
Q 1175 2209 1959 2209 
L 2766 2209 
L 2766 2266 
Q 2766 2663 2505 2880 
Q 2244 3097 1772 3097 
Q 1472 3097 1187 3025 
Q 903 2953 641 2809 
L 641 3341 
Q 956 3463 1253 3523 
Q 1550 3584 1831 3584 
Q 2591 3584 2966 3190 
Q 3341 2797 3341 1997 
z
" transform="scale(0.015625)"/>
      <path id="DejaVuSans-78" d="M 3513 3500 
L 2247 1797 
L 3578 0 
L 2900 0 
L 1881 1375 
L 863 0 
L 184 0 
L 1544 1831 
L 300 3500 
L 978 3500 
L 1906 2253 
L 2834 3500 
L 3513 3500 
z
" transform="scale(0.015625)"/>
      <path id="DejaVuSans-35" d="M 691 4666 
L 3169 4666 
L 3169 4134 
L 1269 4134 
L 1269 2991 
Q 1406 3038 1543 3061 
Q 1681 3084 1819 3084 
Q 2600 3084 3056 2656 
Q 3513 2228 3513 1497 
Q 3513 744 3044 326 
Q 2575 -91 1722 -91 
Q 1428 -91 1123 -41 
Q 819 9 494 109 
L 494 744 
Q 775 591 1075 516 
Q 1375 441 1709 441 
Q 2250 441 2565 725 
Q 2881 1009 2881 1497 
Q 2881 1984 2565 2268 
Q 2250 2553 1709 2553 
Q 1456 2553 1204 2497 
Q 953 2441 691 2322 
L 691 4666 
z
" transform="scale(0.015625)"/>
     </defs>
     <use xlink:href="#DejaVuSans-6d"/>
     <use xlink:href="#DejaVuSans-61" x="97.412109"/>
     <use xlink:href="#DejaVuSans-78" x="158.691406"/>
     <use xlink:href="#DejaVuSans-3d" x="217.871094"/>
     <use xlink:href="#DejaVuSans-35" x="301.660156"/>
     <use xlink:href="#DejaVuSans-2e" x="365.283203"/>
     <use xlink:href="#DejaVuSans-36" x="397.070312"/>
     <use xlink:href="#DejaVuSans-34" x="460.693359"/>
     <use xlink:href="#DejaVuSans-30" x="524.316406"/>
    </g>
   </g>
   <g id="text_10">
    <!-- 100000 samples of tensor[3, 196, 196] n=115248 x∈[0.882, 5.640] μ=2.612 σ=1.073 -->
    <g transform="translate(29.765909 14.798437) scale(0.1 -0.1)">
     <defs>
      <path id="DejaVuSans-31" d="M 794 531 
L 1825 531 
L 1825 4091 
L 703 3866 
L 703 4441 
L 1819 4666 
L 2450 4666 
L 2450 531 
L 3481 531 
L 3481 0 
L 794 0 
L 794 531 
z
" transform="scale(0.015625)"/>
      <path id="DejaVuSans-20" transform="scale(0.015625)"/>
      <path id="DejaVuSans-73" d="M 2834 3397 
L 2834 2853 
Q 2591 2978 2328 3040 
Q 2066 3103 1784 3103 
Q 1356 3103 1142 2972 
Q 928 2841 928 2578 
Q 928 2378 1081 2264 
Q 1234 2150 1697 2047 
L 1894 2003 
Q 2506 1872 2764 1633 
Q 3022 1394 3022 966 
Q 3022 478 2636 193 
Q 2250 -91 1575 -91 
Q 1294 -91 989 -36 
Q 684 19 347 128 
L 347 722 
Q 666 556 975 473 
Q 1284 391 1588 391 
Q 1994 391 2212 530 
Q 2431 669 2431 922 
Q 2431 1156 2273 1281 
Q 2116 1406 1581 1522 
L 1381 1569 
Q 847 1681 609 1914 
Q 372 2147 372 2553 
Q 372 3047 722 3315 
Q 1072 3584 1716 3584 
Q 2034 3584 2315 3537 
Q 2597 3491 2834 3397 
z
" transform="scale(0.015625)"/>
      <path id="DejaVuSans-70" d="M 1159 525 
L 1159 -1331 
L 581 -1331 
L 581 3500 
L 1159 3500 
L 1159 2969 
Q 1341 3281 1617 3432 
Q 1894 3584 2278 3584 
Q 2916 3584 3314 3078 
Q 3713 2572 3713 1747 
Q 3713 922 3314 415 
Q 2916 -91 2278 -91 
Q 1894 -91 1617 61 
Q 1341 213 1159 525 
z
M 3116 1747 
Q 3116 2381 2855 2742 
Q 2594 3103 2138 3103 
Q 1681 3103 1420 2742 
Q 1159 2381 1159 1747 
Q 1159 1113 1420 752 
Q 1681 391 2138 391 
Q 2594 391 2855 752 
Q 3116 1113 3116 1747 
z
" transform="scale(0.015625)"/>
      <path id="DejaVuSans-6c" d="M 603 4863 
L 1178 4863 
L 1178 0 
L 603 0 
L 603 4863 
z
" transform="scale(0.015625)"/>
      <path id="DejaVuSans-65" d="M 3597 1894 
L 3597 1613 
L 953 1613 
Q 991 1019 1311 708 
Q 1631 397 2203 397 
Q 2534 397 2845 478 
Q 3156 559 3463 722 
L 3463 178 
Q 3153 47 2828 -22 
Q 2503 -91 2169 -91 
Q 1331 -91 842 396 
Q 353 884 353 1716 
Q 353 2575 817 3079 
Q 1281 3584 2069 3584 
Q 2775 3584 3186 3129 
Q 3597 2675 3597 1894 
z
M 3022 2063 
Q 3016 2534 2758 2815 
Q 2500 3097 2075 3097 
Q 1594 3097 1305 2825 
Q 1016 2553 972 2059 
L 3022 2063 
z
" transform="scale(0.015625)"/>
      <path id="DejaVuSans-6f" d="M 1959 3097 
Q 1497 3097 1228 2736 
Q 959 2375 959 1747 
Q 959 1119 1226 758 
Q 1494 397 1959 397 
Q 2419 397 2687 759 
Q 2956 1122 2956 1747 
Q 2956 2369 2687 2733 
Q 2419 3097 1959 3097 
z
M 1959 3584 
Q 2709 3584 3137 3096 
Q 3566 2609 3566 1747 
Q 3566 888 3137 398 
Q 2709 -91 1959 -91 
Q 1206 -91 779 398 
Q 353 888 353 1747 
Q 353 2609 779 3096 
Q 1206 3584 1959 3584 
z
" transform="scale(0.015625)"/>
      <path id="DejaVuSans-66" d="M 2375 4863 
L 2375 4384 
L 1825 4384 
Q 1516 4384 1395 4259 
Q 1275 4134 1275 3809 
L 1275 3500 
L 2222 3500 
L 2222 3053 
L 1275 3053 
L 1275 0 
L 697 0 
L 697 3053 
L 147 3053 
L 147 3500 
L 697 3500 
L 697 3744 
Q 697 4328 969 4595 
Q 1241 4863 1831 4863 
L 2375 4863 
z
" transform="scale(0.015625)"/>
      <path id="DejaVuSans-74" d="M 1172 4494 
L 1172 3500 
L 2356 3500 
L 2356 3053 
L 1172 3053 
L 1172 1153 
Q 1172 725 1289 603 
Q 1406 481 1766 481 
L 2356 481 
L 2356 0 
L 1766 0 
Q 1100 0 847 248 
Q 594 497 594 1153 
L 594 3053 
L 172 3053 
L 172 3500 
L 594 3500 
L 594 4494 
L 1172 4494 
z
" transform="scale(0.015625)"/>
      <path id="DejaVuSans-72" d="M 2631 2963 
Q 2534 3019 2420 3045 
Q 2306 3072 2169 3072 
Q 1681 3072 1420 2755 
Q 1159 2438 1159 1844 
L 1159 0 
L 581 0 
L 581 3500 
L 1159 3500 
L 1159 2956 
Q 1341 3275 1631 3429 
Q 1922 3584 2338 3584 
Q 2397 3584 2469 3576 
Q 2541 3569 2628 3553 
L 2631 2963 
z
" transform="scale(0.015625)"/>
      <path id="DejaVuSans-5b" d="M 550 4863 
L 1875 4863 
L 1875 4416 
L 1125 4416 
L 1125 -397 
L 1875 -397 
L 1875 -844 
L 550 -844 
L 550 4863 
z
" transform="scale(0.015625)"/>
      <path id="DejaVuSans-33" d="M 2597 2516 
Q 3050 2419 3304 2112 
Q 3559 1806 3559 1356 
Q 3559 666 3084 287 
Q 2609 -91 1734 -91 
Q 1441 -91 1130 -33 
Q 819 25 488 141 
L 488 750 
Q 750 597 1062 519 
Q 1375 441 1716 441 
Q 2309 441 2620 675 
Q 2931 909 2931 1356 
Q 2931 1769 2642 2001 
Q 2353 2234 1838 2234 
L 1294 2234 
L 1294 2753 
L 1863 2753 
Q 2328 2753 2575 2939 
Q 2822 3125 2822 3475 
Q 2822 3834 2567 4026 
Q 2313 4219 1838 4219 
Q 1578 4219 1281 4162 
Q 984 4106 628 3988 
L 628 4550 
Q 988 4650 1302 4700 
Q 1616 4750 1894 4750 
Q 2613 4750 3031 4423 
Q 3450 4097 3450 3541 
Q 3450 3153 3228 2886 
Q 3006 2619 2597 2516 
z
" transform="scale(0.015625)"/>
      <path id="DejaVuSans-2c" d="M 750 794 
L 1409 794 
L 1409 256 
L 897 -744 
L 494 -744 
L 750 256 
L 750 794 
z
" transform="scale(0.015625)"/>
      <path id="DejaVuSans-39" d="M 703 97 
L 703 672 
Q 941 559 1184 500 
Q 1428 441 1663 441 
Q 2288 441 2617 861 
Q 2947 1281 2994 2138 
Q 2813 1869 2534 1725 
Q 2256 1581 1919 1581 
Q 1219 1581 811 2004 
Q 403 2428 403 3163 
Q 403 3881 828 4315 
Q 1253 4750 1959 4750 
Q 2769 4750 3195 4129 
Q 3622 3509 3622 2328 
Q 3622 1225 3098 567 
Q 2575 -91 1691 -91 
Q 1453 -91 1209 -44 
Q 966 3 703 97 
z
M 1959 2075 
Q 2384 2075 2632 2365 
Q 2881 2656 2881 3163 
Q 2881 3666 2632 3958 
Q 2384 4250 1959 4250 
Q 1534 4250 1286 3958 
Q 1038 3666 1038 3163 
Q 1038 2656 1286 2365 
Q 1534 2075 1959 2075 
z
" transform="scale(0.015625)"/>
      <path id="DejaVuSans-5d" d="M 1947 4863 
L 1947 -844 
L 622 -844 
L 622 -397 
L 1369 -397 
L 1369 4416 
L 622 4416 
L 622 4863 
L 1947 4863 
z
" transform="scale(0.015625)"/>
      <path id="DejaVuSans-2208" d="M 1072 1959 
Q 1094 1728 1291 1353 
Q 1522 919 1959 675 
Q 2388 438 2850 434 
L 5028 434 
L 5028 -63 
L 2850 -63 
Q 2250 -63 1695 246 
Q 1141 556 844 1106 
Q 547 1656 547 2241 
Q 547 2819 844 3369 
Q 1141 3919 1695 4231 
Q 2250 4544 2850 4544 
L 5028 4544 
L 5028 4047 
L 2850 4047 
Q 2388 4044 1959 3803 
Q 1525 3556 1291 3125 
Q 1091 2750 1063 2459 
L 5028 2459 
L 5028 1959 
L 1072 1959 
z
" transform="scale(0.015625)"/>
      <path id="DejaVuSans-3bc" d="M 544 -1331 
L 544 3500 
L 1119 3500 
L 1119 1325 
Q 1119 872 1334 640 
Q 1550 409 1972 409 
Q 2434 409 2667 671 
Q 2900 934 2900 1459 
L 2900 3500 
L 3475 3500 
L 3475 806 
Q 3475 619 3529 530 
Q 3584 441 3700 441 
Q 3728 441 3778 458 
Q 3828 475 3916 513 
L 3916 50 
Q 3788 -22 3673 -56 
Q 3559 -91 3450 -91 
Q 3234 -91 3106 31 
Q 2978 153 2931 403 
Q 2775 156 2548 32 
Q 2322 -91 2016 -91 
Q 1697 -91 1473 31 
Q 1250 153 1119 397 
L 1119 -1331 
L 544 -1331 
z
" transform="scale(0.015625)"/>
      <path id="DejaVuSans-3c3" d="M 1959 3044 
Q 1484 3044 1228 2700 
Q 959 2341 959 1747 
Q 959 1119 1226 758 
Q 1494 397 1959 397 
Q 2419 397 2687 759 
Q 2956 1122 2956 1747 
Q 2956 2319 2688 2700 
Q 2441 3044 1959 3044 
z
M 1959 3500 
L 3869 3500 
L 3869 2925 
L 3225 2925 
Q 3566 2438 3566 1747 
Q 3566 888 3138 400 
Q 2709 -91 1959 -91 
Q 1206 -91 781 400 
Q 353 888 353 1747 
Q 353 2613 781 3097 
Q 1134 3500 1959 3500 
z
" transform="scale(0.015625)"/>
      <path id="DejaVuSans-37" d="M 525 4666 
L 3525 4666 
L 3525 4397 
L 1831 0 
L 1172 0 
L 2766 4134 
L 525 4134 
L 525 4666 
z
" transform="scale(0.015625)"/>
     </defs>
     <use xlink:href="#DejaVuSans-31"/>
     <use xlink:href="#DejaVuSans-30" x="63.623047"/>
     <use xlink:href="#DejaVuSans-30" x="127.246094"/>
     <use xlink:href="#DejaVuSans-30" x="190.869141"/>
     <use xlink:href="#DejaVuSans-30" x="254.492188"/>
     <use xlink:href="#DejaVuSans-30" x="318.115234"/>
     <use xlink:href="#DejaVuSans-20" x="381.738281"/>
     <use xlink:href="#DejaVuSans-73" x="413.525391"/>
     <use xlink:href="#DejaVuSans-61" x="465.625"/>
     <use xlink:href="#DejaVuSans-6d" x="526.904297"/>
     <use xlink:href="#DejaVuSans-70" x="624.316406"/>
     <use xlink:href="#DejaVuSans-6c" x="687.792969"/>
     <use xlink:href="#DejaVuSans-65" x="715.576172"/>
     <use xlink:href="#DejaVuSans-73" x="777.099609"/>
     <use xlink:href="#DejaVuSans-20" x="829.199219"/>
     <use xlink:href="#DejaVuSans-6f" x="860.986328"/>
     <use xlink:href="#DejaVuSans-66" x="922.167969"/>
     <use xlink:href="#DejaVuSans-20" x="957.373047"/>
     <use xlink:href="#DejaVuSans-74" x="989.160156"/>
     <use xlink:href="#DejaVuSans-65" x="1028.369141"/>
     <use xlink:href="#DejaVuSans-6e" x="1089.892578"/>
     <use xlink:href="#DejaVuSans-73" x="1153.271484"/>
     <use xlink:href="#DejaVuSans-6f" x="1205.371094"/>
     <use xlink:href="#DejaVuSans-72" x="1266.552734"/>
     <use xlink:href="#DejaVuSans-5b" x="1307.666016"/>
     <use xlink:href="#DejaVuSans-33" x="1346.679688"/>
     <use xlink:href="#DejaVuSans-2c" x="1410.302734"/>
     <use xlink:href="#DejaVuSans-20" x="1442.089844"/>
     <use xlink:href="#DejaVuSans-31" x="1473.876953"/>
     <use xlink:href="#DejaVuSans-39" x="1537.5"/>
     <use xlink:href="#DejaVuSans-36" x="1601.123047"/>
     <use xlink:href="#DejaVuSans-2c" x="1664.746094"/>
     <use xlink:href="#DejaVuSans-20" x="1696.533203"/>
     <use xlink:href="#DejaVuSans-31" x="1728.320312"/>
     <use xlink:href="#DejaVuSans-39" x="1791.943359"/>
     <use xlink:href="#DejaVuSans-36" x="1855.566406"/>
     <use xlink:href="#DejaVuSans-5d" x="1919.189453"/>
     <use xlink:href="#DejaVuSans-20" x="1958.203125"/>
     <use xlink:href="#DejaVuSans-6e" x="1989.990234"/>
     <use xlink:href="#DejaVuSans-3d" x="2053.369141"/>
     <use xlink:href="#DejaVuSans-31" x="2137.158203"/>
     <use xlink:href="#DejaVuSans-31" x="2200.78125"/>
     <use xlink:href="#DejaVuSans-35" x="2264.404297"/>
     <use xlink:href="#DejaVuSans-32" x="2328.027344"/>
     <use xlink:href="#DejaVuSans-34" x="2391.650391"/>
     <use xlink:href="#DejaVuSans-38" x="2455.273438"/>
     <use xlink:href="#DejaVuSans-20" x="2518.896484"/>
     <use xlink:href="#DejaVuSans-78" x="2550.683594"/>
     <use xlink:href="#DejaVuSans-2208" x="2609.863281"/>
     <use xlink:href="#DejaVuSans-5b" x="2696.972656"/>
     <use xlink:href="#DejaVuSans-30" x="2735.986328"/>
     <use xlink:href="#DejaVuSans-2e" x="2799.609375"/>
     <use xlink:href="#DejaVuSans-38" x="2831.396484"/>
     <use xlink:href="#DejaVuSans-38" x="2895.019531"/>
     <use xlink:href="#DejaVuSans-32" x="2958.642578"/>
     <use xlink:href="#DejaVuSans-2c" x="3022.265625"/>
     <use xlink:href="#DejaVuSans-20" x="3054.052734"/>
     <use xlink:href="#DejaVuSans-35" x="3085.839844"/>
     <use xlink:href="#DejaVuSans-2e" x="3149.462891"/>
     <use xlink:href="#DejaVuSans-36" x="3181.25"/>
     <use xlink:href="#DejaVuSans-34" x="3244.873047"/>
     <use xlink:href="#DejaVuSans-30" x="3308.496094"/>
     <use xlink:href="#DejaVuSans-5d" x="3372.119141"/>
     <use xlink:href="#DejaVuSans-20" x="3411.132812"/>
     <use xlink:href="#DejaVuSans-3bc" x="3442.919922"/>
     <use xlink:href="#DejaVuSans-3d" x="3506.542969"/>
     <use xlink:href="#DejaVuSans-32" x="3590.332031"/>
     <use xlink:href="#DejaVuSans-2e" x="3653.955078"/>
     <use xlink:href="#DejaVuSans-36" x="3685.742188"/>
     <use xlink:href="#DejaVuSans-31" x="3749.365234"/>
     <use xlink:href="#DejaVuSans-32" x="3812.988281"/>
     <use xlink:href="#DejaVuSans-20" x="3876.611328"/>
     <use xlink:href="#DejaVuSans-3c3" x="3908.398438"/>
     <use xlink:href="#DejaVuSans-3d" x="3971.777344"/>
     <use xlink:href="#DejaVuSans-31" x="4055.566406"/>
     <use xlink:href="#DejaVuSans-2e" x="4119.189453"/>
     <use xlink:href="#DejaVuSans-30" x="4150.976562"/>
     <use xlink:href="#DejaVuSans-37" x="4214.599609"/>
     <use xlink:href="#DejaVuSans-33" x="4278.222656"/>
    </g>
   </g>
   <g id="patch_9">
    <path d="M 489.788164 112.006847 
L 493.004964 112.006847 
L 493.004964 111.828015 
L 489.788164 111.828015 
z
" clip-path="url(#pe3678120f6)" style="fill: #00bfff"/>
   </g>
   <g id="patch_10">
    <path d="M 493.004964 112.006847 
L 496.221765 112.006847 
L 496.221765 111.331259 
L 493.004964 111.331259 
z
" clip-path="url(#pe3678120f6)" style="fill: #00bfff"/>
   </g>
   <g id="patch_11">
    <path d="M 496.221765 112.006847 
L 499.438566 112.006847 
L 499.438566 110.814632 
L 496.221765 110.814632 
z
" clip-path="url(#pe3678120f6)" style="fill: #00bfff"/>
   </g>
   <g id="patch_12">
    <path d="M 499.438566 112.006847 
L 502.655366 112.006847 
L 502.655366 108.529554 
L 499.438566 108.529554 
z
" clip-path="url(#pe3678120f6)" style="fill: #00bfff"/>
   </g>
   <g id="patch_13">
    <path d="M 502.655366 112.006847 
L 505.872167 112.006847 
L 505.872167 108.17189 
L 502.655366 108.17189 
z
" clip-path="url(#pe3678120f6)" style="fill: #00bfff"/>
   </g>
   <g id="patch_14">
    <path d="M 505.872167 112.006847 
L 509.088968 112.006847 
L 509.088968 104.277322 
L 505.872167 104.277322 
z
" clip-path="url(#pe3678120f6)" style="fill: #00bfff"/>
   </g>
   <g id="patch_15">
    <path d="M 509.088968 112.006847 
L 512.305768 112.006847 
L 512.305768 98.415601 
L 509.088968 98.415601 
z
" clip-path="url(#pe3678120f6)" style="fill: #00bfff"/>
   </g>
   <g id="patch_16">
    <path d="M 512.30576 112.006847 
L 515.522561 112.006847 
L 515.522561 98.455341 
L 512.30576 98.455341 
z
" clip-path="url(#pe3678120f6)" style="fill: #00bfff"/>
   </g>
   <g id="patch_17">
    <path d="M 515.522561 112.006847 
L 518.739361 112.006847 
L 518.739361 95.633768 
L 515.522561 95.633768 
z
" clip-path="url(#pe3678120f6)" style="fill: #00bfff"/>
   </g>
   <g id="patch_18">
    <path d="M 518.739361 112.006847 
L 521.956162 112.006847 
L 521.956162 93.110246 
L 518.739361 93.110246 
z
" clip-path="url(#pe3678120f6)" style="fill: #00bfff"/>
   </g>
   <g id="patch_19">
    <path d="M 521.956162 112.006847 
L 525.172963 112.006847 
L 525.172963 86.632547 
L 521.956162 86.632547 
z
" clip-path="url(#pe3678120f6)" style="fill: #00bfff"/>
   </g>
   <g id="patch_20">
    <path d="M 525.172963 112.006847 
L 528.389763 112.006847 
L 528.389763 92.037253 
L 525.172963 92.037253 
z
" clip-path="url(#pe3678120f6)" style="fill: #00bfff"/>
   </g>
   <g id="patch_21">
    <path d="M 528.389763 112.006847 
L 531.606564 112.006847 
L 531.606564 84.923707 
L 528.389763 84.923707 
z
" clip-path="url(#pe3678120f6)" style="fill: #00bfff"/>
   </g>
   <g id="patch_22">
    <path d="M 531.606556 112.006847 
L 534.823357 112.006847 
L 534.823357 87.467097 
L 531.606556 87.467097 
z
" clip-path="url(#pe3678120f6)" style="fill: #00bfff"/>
   </g>
   <g id="patch_23">
    <path d="M 534.823357 112.006847 
L 538.040157 112.006847 
L 538.040157 87.725412 
L 534.823357 87.725412 
z
" clip-path="url(#pe3678120f6)" style="fill: #00bfff"/>
   </g>
   <g id="patch_24">
    <path d="M 538.040157 112.006847 
L 541.256958 112.006847 
L 541.256958 83.691752 
L 538.040157 83.691752 
z
" clip-path="url(#pe3678120f6)" style="fill: #00bfff"/>
   </g>
   <g id="patch_25">
    <path d="M 541.256958 112.006847 
L 544.473759 112.006847 
L 544.473759 75.803265 
L 541.256958 75.803265 
z
" clip-path="url(#pe3678120f6)" style="fill: #00bfff"/>
   </g>
   <g id="patch_26">
    <path d="M 544.473759 112.006847 
L 547.690559 112.006847 
L 547.690559 66.643082 
L 544.473759 66.643082 
z
" clip-path="url(#pe3678120f6)" style="fill: #00bfff"/>
   </g>
   <g id="patch_27">
    <path d="M 547.690559 112.006847 
L 550.90736 112.006847 
L 550.90736 74.412348 
L 547.690559 74.412348 
z
" clip-path="url(#pe3678120f6)" style="fill: #00bfff"/>
   </g>
   <g id="patch_28">
    <path d="M 550.90736 112.006847 
L 554.124161 112.006847 
L 554.124161 49.713636 
L 550.90736 49.713636 
z
" clip-path="url(#pe3678120f6)" style="fill: #00bfff"/>
   </g>
   <g id="patch_29">
    <path d="M 554.124161 112.006847 
L 557.340961 112.006847 
L 557.340961 40.791895 
L 554.124161 40.791895 
z
" clip-path="url(#pe3678120f6)" style="fill: #00bfff"/>
   </g>
   <g id="patch_30">
    <path d="M 557.340961 112.006847 
L 560.557762 112.006847 
L 560.557762 42.063594 
L 557.340961 42.063594 
z
" clip-path="url(#pe3678120f6)" style="fill: #00bfff"/>
   </g>
   <g id="patch_31">
    <path d="M 560.557762 112.006847 
L 563.774563 112.006847 
L 563.774563 68.411535 
L 560.557762 68.411535 
z
" clip-path="url(#pe3678120f6)" style="fill: #00bfff"/>
   </g>
   <g id="patch_32">
    <path d="M 563.774555 112.006847 
L 566.991363 112.006847 
L 566.991363 52.714044 
L 563.774555 52.714044 
z
" clip-path="url(#pe3678120f6)" style="fill: #00bfff"/>
   </g>
   <g id="patch_33">
    <path d="M 566.991363 112.006847 
L 570.208164 112.006847 
L 570.208164 55.91315 
L 566.991363 55.91315 
z
" clip-path="url(#pe3678120f6)" style="fill: #00bfff"/>
   </g>
   <g id="patch_34">
    <path d="M 570.208164 112.006847 
L 573.424965 112.006847 
L 573.424965 67.596854 
L 570.208164 67.596854 
z
" clip-path="url(#pe3678120f6)" style="fill: #00bfff"/>
   </g>
   <g id="patch_35">
    <path d="M 573.424965 112.006847 
L 576.641765 112.006847 
L 576.641765 50.727018 
L 573.424965 50.727018 
z
" clip-path="url(#pe3678120f6)" style="fill: #00bfff"/>
   </g>
   <g id="patch_36">
    <path d="M 576.641765 112.006847 
L 579.858566 112.006847 
L 579.858566 57.006015 
L 576.641765 57.006015 
z
" clip-path="url(#pe3678120f6)" style="fill: #00bfff"/>
   </g>
   <g id="patch_37">
    <path d="M 579.858566 112.006847 
L 583.075367 112.006847 
L 583.075367 45.044127 
L 579.858566 45.044127 
z
" clip-path="url(#pe3678120f6)" style="fill: #00bfff"/>
   </g>
   <g id="patch_38">
    <path d="M 583.075367 112.006847 
L 586.292167 112.006847 
L 586.292167 49.038048 
L 583.075367 49.038048 
z
" clip-path="url(#pe3678120f6)" style="fill: #00bfff"/>
   </g>
   <g id="patch_39">
    <path d="M 586.292167 112.006847 
L 589.508968 112.006847 
L 589.508968 41.686056 
L 586.292167 41.686056 
z
" clip-path="url(#pe3678120f6)" style="fill: #00bfff"/>
   </g>
   <g id="patch_40">
    <path d="M 589.508968 112.006847 
L 592.725769 112.006847 
L 592.725769 47.031153 
L 589.508968 47.031153 
z
" clip-path="url(#pe3678120f6)" style="fill: #00bfff"/>
   </g>
   <g id="patch_41">
    <path d="M 592.725769 112.006847 
L 595.942569 112.006847 
L 595.942569 47.925314 
L 592.725769 47.925314 
z
" clip-path="url(#pe3678120f6)" style="fill: #00bfff"/>
   </g>
   <g id="patch_42">
    <path d="M 595.942569 112.006847 
L 599.15937 112.006847 
L 599.15937 42.003981 
L 595.942569 42.003981 
z
" clip-path="url(#pe3678120f6)" style="fill: #00bfff"/>
   </g>
   <g id="patch_43">
    <path d="M 599.15937 112.006847 
L 602.376171 112.006847 
L 602.376171 48.521419 
L 599.15937 48.521419 
z
" clip-path="url(#pe3678120f6)" style="fill: #00bfff"/>
   </g>
   <g id="patch_44">
    <path d="M 602.376171 112.006847 
L 605.592971 112.006847 
L 605.592971 54.681195 
L 602.376171 54.681195 
z
" clip-path="url(#pe3678120f6)" style="fill: #00bfff"/>
   </g>
   <g id="patch_45">
    <path d="M 605.592971 112.006847 
L 608.809772 112.006847 
L 608.809772 81.267581 
L 605.592971 81.267581 
z
" clip-path="url(#pe3678120f6)" style="fill: #00bfff"/>
   </g>
   <g id="patch_46">
    <path d="M 608.809772 112.006847 
L 612.026573 112.006847 
L 612.026573 77.929382 
L 608.809772 77.929382 
z
" clip-path="url(#pe3678120f6)" style="fill: #00bfff"/>
   </g>
   <g id="patch_47">
    <path d="M 612.026573 112.006847 
L 615.243373 112.006847 
L 615.243373 88.222165 
L 612.026573 88.222165 
z
" clip-path="url(#pe3678120f6)" style="fill: #00bfff"/>
   </g>
   <g id="patch_48">
    <path d="M 615.243373 112.006847 
L 618.460174 112.006847 
L 618.460174 94.938309 
L 615.243373 94.938309 
z
" clip-path="url(#pe3678120f6)" style="fill: #00bfff"/>
   </g>
   <g id="patch_49">
    <path d="M 618.460158 112.006847 
L 621.676959 112.006847 
L 621.676959 104.237582 
L 618.460158 104.237582 
z
" clip-path="url(#pe3678120f6)" style="fill: #00bfff"/>
   </g>
   <g id="patch_50">
    <path d="M 621.676959 112.006847 
L 624.893759 112.006847 
L 624.893759 100.144313 
L 621.676959 100.144313 
z
" clip-path="url(#pe3678120f6)" style="fill: #00bfff"/>
   </g>
   <g id="patch_51">
    <path d="M 624.893759 112.006847 
L 628.11056 112.006847 
L 628.11056 102.647963 
L 624.893759 102.647963 
z
" clip-path="url(#pe3678120f6)" style="fill: #00bfff"/>
   </g>
   <g id="patch_52">
    <path d="M 628.11056 112.006847 
L 631.327361 112.006847 
L 631.327361 103.860047 
L 628.11056 103.860047 
z
" clip-path="url(#pe3678120f6)" style="fill: #00bfff"/>
   </g>
   <g id="patch_53">
    <path d="M 631.327361 112.006847 
L 634.544161 112.006847 
L 634.544161 104.336933 
L 631.327361 104.336933 
z
" clip-path="url(#pe3678120f6)" style="fill: #00bfff"/>
   </g>
   <g id="patch_54">
    <path d="M 634.544161 112.006847 
L 637.760962 112.006847 
L 637.760962 104.416414 
L 634.544161 104.416414 
z
" clip-path="url(#pe3678120f6)" style="fill: #00bfff"/>
   </g>
   <g id="patch_55">
    <path d="M 637.760962 112.006847 
L 640.977763 112.006847 
L 640.977763 104.217712 
L 637.760962 104.217712 
z
" clip-path="url(#pe3678120f6)" style="fill: #00bfff"/>
   </g>
   <g id="patch_56">
    <path d="M 640.977763 112.006847 
L 644.194563 112.006847 
L 644.194563 105.449667 
L 640.977763 105.449667 
z
" clip-path="url(#pe3678120f6)" style="fill: #00bfff"/>
   </g>
   <g id="patch_57">
    <path d="M 644.194563 112.006847 
L 647.411364 112.006847 
L 647.411364 105.151613 
L 644.194563 105.151613 
z
" clip-path="url(#pe3678120f6)" style="fill: #00bfff"/>
   </g>
   <g id="patch_58">
    <path d="M 647.411364 112.006847 
L 650.628165 112.006847 
L 650.628165 104.416414 
L 647.411364 104.416414 
z
" clip-path="url(#pe3678120f6)" style="fill: #00bfff"/>
   </g>
   <g id="patch_59">
    <path d="M 650.628165 112.006847 
L 653.844965 112.006847 
L 653.844965 105.131743 
L 650.628165 105.131743 
z
" clip-path="url(#pe3678120f6)" style="fill: #00bfff"/>
   </g>
   <g id="patch_60">
    <path d="M 653.844965 112.006847 
L 657.061766 112.006847 
L 657.061766 104.396544 
L 653.844965 104.396544 
z
" clip-path="url(#pe3678120f6)" style="fill: #00bfff"/>
   </g>
   <g id="patch_61">
    <path d="M 657.061766 112.006847 
L 660.278567 112.006847 
L 660.278567 103.681216 
L 657.061766 103.681216 
z
" clip-path="url(#pe3678120f6)" style="fill: #00bfff"/>
   </g>
   <g id="patch_62">
    <path d="M 660.278567 112.006847 
L 663.495367 112.006847 
L 663.495367 104.138231 
L 660.278567 104.138231 
z
" clip-path="url(#pe3678120f6)" style="fill: #00bfff"/>
   </g>
   <g id="patch_63">
    <path d="M 663.495367 112.006847 
L 666.712168 112.006847 
L 666.712168 106.264347 
L 663.495367 106.264347 
z
" clip-path="url(#pe3678120f6)" style="fill: #00bfff"/>
   </g>
   <g id="patch_64">
    <path d="M 666.712168 112.006847 
L 669.928969 112.006847 
L 669.928969 104.714468 
L 666.712168 104.714468 
z
" clip-path="url(#pe3678120f6)" style="fill: #00bfff"/>
   </g>
   <g id="patch_65">
    <path d="M 669.928985 112.006847 
L 673.145785 112.006847 
L 673.145785 105.191353 
L 669.928985 105.191353 
z
" clip-path="url(#pe3678120f6)" style="fill: #00bfff"/>
   </g>
   <g id="patch_66">
    <path d="M 673.145785 112.006847 
L 676.362586 112.006847 
L 676.362586 106.264347 
L 673.145785 106.264347 
z
" clip-path="url(#pe3678120f6)" style="fill: #00bfff"/>
   </g>
   <g id="patch_67">
    <path d="M 676.362586 112.006847 
L 679.579387 112.006847 
L 679.579387 105.270835 
L 676.362586 105.270835 
z
" clip-path="url(#pe3678120f6)" style="fill: #00bfff"/>
   </g>
   <g id="patch_68">
    <path d="M 679.579387 112.006847 
L 682.796187 112.006847 
L 682.796187 106.045774 
L 679.579387 106.045774 
z
" clip-path="url(#pe3678120f6)" style="fill: #00bfff"/>
   </g>
   <g id="patch_69">
    <path d="M 682.796187 112.006847 
L 686.012988 112.006847 
L 686.012988 106.264347 
L 682.796187 106.264347 
z
" clip-path="url(#pe3678120f6)" style="fill: #00bfff"/>
   </g>
   <g id="patch_70">
    <path d="M 686.012988 112.006847 
L 689.229789 112.006847 
L 689.229789 106.840584 
L 686.012988 106.840584 
z
" clip-path="url(#pe3678120f6)" style="fill: #00bfff"/>
   </g>
   <g id="patch_71">
    <path d="M 689.229789 112.006847 
L 692.446589 112.006847 
L 692.446589 107.138637 
L 689.229789 107.138637 
z
" clip-path="url(#pe3678120f6)" style="fill: #00bfff"/>
   </g>
   <g id="patch_72">
    <path d="M 692.446589 112.006847 
L 695.66339 112.006847 
L 695.66339 108.350722 
L 692.446589 108.350722 
z
" clip-path="url(#pe3678120f6)" style="fill: #00bfff"/>
   </g>
   <g id="patch_73">
    <path d="M 695.66339 112.006847 
L 698.880191 112.006847 
L 698.880191 107.893707 
L 695.66339 107.893707 
z
" clip-path="url(#pe3678120f6)" style="fill: #00bfff"/>
   </g>
   <g id="patch_74">
    <path d="M 698.880191 112.006847 
L 702.096991 112.006847 
L 702.096991 107.516172 
L 698.880191 107.516172 
z
" clip-path="url(#pe3678120f6)" style="fill: #00bfff"/>
   </g>
   <g id="patch_75">
    <path d="M 702.096991 112.006847 
L 705.313776 112.006847 
L 705.313776 107.198248 
L 702.096991 107.198248 
z
" clip-path="url(#pe3678120f6)" style="fill: #00bfff"/>
   </g>
   <g id="patch_76">
    <path d="M 705.313776 112.006847 
L 708.53056 112.006847 
L 708.53056 107.098897 
L 705.313776 107.098897 
z
" clip-path="url(#pe3678120f6)" style="fill: #00bfff"/>
   </g>
   <g id="patch_77">
    <path d="M 708.530593 112.006847 
L 711.74741 112.006847 
L 711.74741 107.814226 
L 708.530593 107.814226 
z
" clip-path="url(#pe3678120f6)" style="fill: #00bfff"/>
   </g>
   <g id="patch_78">
    <path d="M 711.747377 112.006847 
L 714.964194 112.006847 
L 714.964194 106.343828 
L 711.747377 106.343828 
z
" clip-path="url(#pe3678120f6)" style="fill: #00bfff"/>
   </g>
   <g id="patch_79">
    <path d="M 714.964194 112.006847 
L 718.180979 112.006847 
L 718.180979 105.131743 
L 714.964194 105.131743 
z
" clip-path="url(#pe3678120f6)" style="fill: #00bfff"/>
   </g>
   <g id="patch_80">
    <path d="M 718.180979 112.006847 
L 721.397763 112.006847 
L 721.397763 105.390056 
L 718.180979 105.390056 
z
" clip-path="url(#pe3678120f6)" style="fill: #00bfff"/>
   </g>
   <g id="patch_81">
    <path d="M 721.397795 112.006847 
L 724.614612 112.006847 
L 724.614612 104.575376 
L 721.397795 104.575376 
z
" clip-path="url(#pe3678120f6)" style="fill: #00bfff"/>
   </g>
   <g id="patch_82">
    <path d="M 724.61458 112.006847 
L 727.831397 112.006847 
L 727.831397 102.687703 
L 724.61458 102.687703 
z
" clip-path="url(#pe3678120f6)" style="fill: #00bfff"/>
   </g>
   <g id="patch_83">
    <path d="M 727.831397 112.006847 
L 731.048181 112.006847 
L 731.048181 102.46913 
L 727.831397 102.46913 
z
" clip-path="url(#pe3678120f6)" style="fill: #00bfff"/>
   </g>
   <g id="patch_84">
    <path d="M 731.048181 112.006847 
L 734.264966 112.006847 
L 734.264966 100.76029 
L 731.048181 100.76029 
z
" clip-path="url(#pe3678120f6)" style="fill: #00bfff"/>
   </g>
   <g id="patch_85">
    <path d="M 734.264998 112.006847 
L 737.481815 112.006847 
L 737.481815 101.137824 
L 734.264998 101.137824 
z
" clip-path="url(#pe3678120f6)" style="fill: #00bfff"/>
   </g>
   <g id="patch_86">
    <path d="M 737.481783 112.006847 
L 740.698599 112.006847 
L 740.698599 99.11106 
L 737.481783 99.11106 
z
" clip-path="url(#pe3678120f6)" style="fill: #00bfff"/>
   </g>
   <g id="patch_87">
    <path d="M 740.698599 112.006847 
L 743.915384 112.006847 
L 743.915384 97.52144 
L 740.698599 97.52144 
z
" clip-path="url(#pe3678120f6)" style="fill: #00bfff"/>
   </g>
   <g id="patch_88">
    <path d="M 743.915384 112.006847 
L 747.132168 112.006847 
L 747.132168 99.409113 
L 743.915384 99.409113 
z
" clip-path="url(#pe3678120f6)" style="fill: #00bfff"/>
   </g>
   <g id="patch_89">
    <path d="M 747.132168 112.006847 
L 750.348953 112.006847 
L 750.348953 95.633768 
L 747.132168 95.633768 
z
" clip-path="url(#pe3678120f6)" style="fill: #00bfff"/>
   </g>
   <g id="patch_90">
    <path d="M 750.348953 112.006847 
L 753.565738 112.006847 
L 753.565738 99.766777 
L 750.348953 99.766777 
z
" clip-path="url(#pe3678120f6)" style="fill: #00bfff"/>
   </g>
   <g id="patch_91">
    <path d="M 753.56577 112.006847 
L 756.782587 112.006847 
L 756.782587 95.594026 
L 753.56577 95.594026 
z
" clip-path="url(#pe3678120f6)" style="fill: #00bfff"/>
   </g>
   <g id="patch_92">
    <path d="M 756.782554 112.006847 
L 759.999371 112.006847 
L 759.999371 94.699865 
L 756.782554 94.699865 
z
" clip-path="url(#pe3678120f6)" style="fill: #00bfff"/>
   </g>
   <g id="patch_93">
    <path d="M 759.999371 112.006847 
L 763.216156 112.006847 
L 763.216156 93.726223 
L 759.999371 93.726223 
z
" clip-path="url(#pe3678120f6)" style="fill: #00bfff"/>
   </g>
   <g id="patch_94">
    <path d="M 763.216156 112.006847 
L 766.43294 112.006847 
L 766.43294 96.984944 
L 763.216156 96.984944 
z
" clip-path="url(#pe3678120f6)" style="fill: #00bfff"/>
   </g>
   <g id="patch_95">
    <path d="M 766.432972 112.006847 
L 769.649789 112.006847 
L 769.649789 97.779753 
L 766.432972 97.779753 
z
" clip-path="url(#pe3678120f6)" style="fill: #00bfff"/>
   </g>
   <g id="patch_96">
    <path d="M 769.649757 112.006847 
L 772.866574 112.006847 
L 772.866574 97.46183 
L 769.649757 97.46183 
z
" clip-path="url(#pe3678120f6)" style="fill: #00bfff"/>
   </g>
   <g id="patch_97">
    <path d="M 772.866574 112.006847 
L 776.083358 112.006847 
L 776.083358 100.919251 
L 772.866574 100.919251 
z
" clip-path="url(#pe3678120f6)" style="fill: #00bfff"/>
   </g>
   <g id="patch_98">
    <path d="M 776.083358 112.006847 
L 779.300143 112.006847 
L 779.300143 103.065238 
L 776.083358 103.065238 
z
" clip-path="url(#pe3678120f6)" style="fill: #00bfff"/>
   </g>
   <g id="patch_99">
    <path d="M 779.300175 112.006847 
L 782.516992 112.006847 
L 782.516992 103.24407 
L 779.300175 103.24407 
z
" clip-path="url(#pe3678120f6)" style="fill: #00bfff"/>
   </g>
   <g id="patch_100">
    <path d="M 782.51696 112.006847 
L 785.733776 112.006847 
L 785.733776 102.608222 
L 782.51696 102.608222 
z
" clip-path="url(#pe3678120f6)" style="fill: #00bfff"/>
   </g>
   <g id="patch_101">
    <path d="M 785.733776 112.006847 
L 788.950561 112.006847 
L 788.950561 106.820713 
L 785.733776 106.820713 
z
" clip-path="url(#pe3678120f6)" style="fill: #00bfff"/>
   </g>
   <g id="patch_102">
    <path d="M 788.950561 112.006847 
L 792.167346 112.006847 
L 792.167346 104.257452 
L 788.950561 104.257452 
z
" clip-path="url(#pe3678120f6)" style="fill: #00bfff"/>
   </g>
   <g id="patch_103">
    <path d="M 792.167378 112.006847 
L 795.384195 112.006847 
L 795.384195 105.886812 
L 792.167378 105.886812 
z
" clip-path="url(#pe3678120f6)" style="fill: #00bfff"/>
   </g>
   <g id="patch_104">
    <path d="M 795.384162 112.006847 
L 798.600979 112.006847 
L 798.600979 105.330445 
L 795.384162 105.330445 
z
" clip-path="url(#pe3678120f6)" style="fill: #00bfff"/>
   </g>
   <g id="patch_105">
    <path d="M 798.600979 112.006847 
L 801.817764 112.006847 
L 801.817764 110.874243 
L 798.600979 110.874243 
z
" clip-path="url(#pe3678120f6)" style="fill: #00bfff"/>
   </g>
   <g id="patch_106">
    <path d="M 801.817796 112.006847 
L 805.034613 112.006847 
L 805.034613 111.45048 
L 801.817796 111.45048 
z
" clip-path="url(#pe3678120f6)" style="fill: #00bfff"/>
   </g>
   <g id="patch_107">
    <path d="M 805.03458 112.006847 
L 808.251397 112.006847 
L 808.251397 111.828015 
L 805.03458 111.828015 
z
" clip-path="url(#pe3678120f6)" style="fill: #00bfff"/>
   </g>
   <g id="patch_108">
    <path d="M 808.251397 112.006847 
L 811.468182 112.006847 
L 811.468182 111.967106 
L 808.251397 111.967106 
z
" clip-path="url(#pe3678120f6)" style="fill: #00bfff"/>
   </g>
   <g id="line2d_13">
    <path d="M 489.788164 112.006847 
L 489.788164 19.427409 
" clip-path="url(#pe3678120f6)" style="fill: none; stroke: #ff0000; stroke-width: 1.5; stroke-linecap: square"/>
   </g>
   <g id="line2d_14">
    <path d="M 811.468182 112.006847 
L 811.468182 19.427409 
" clip-path="url(#pe3678120f6)" style="fill: none; stroke: #ff0000; stroke-width: 1.5; stroke-linecap: square"/>
   </g>
   <g id="line2d_15">
    <path d="M 48.831818 112.006847 
L 56.535208 112.006847 
L 64.238598 112.006847 
L 71.94202 112.006847 
L 79.64541 112.006847 
L 87.348799 112.006847 
L 95.052221 112.006847 
L 102.755611 112.006847 
L 110.459001 112.006847 
L 118.162391 112.006847 
L 125.865781 112.006847 
L 133.569203 112.006847 
L 141.272592 112.006847 
L 148.975982 112.006847 
L 156.679404 112.006847 
L 164.382794 112.006847 
L 172.086184 112.006846 
L 179.789574 112.006846 
L 187.49298 112.006845 
L 195.196386 112.006843 
L 202.899775 112.00684 
L 210.603165 112.006835 
L 218.306571 112.006826 
L 226.009977 112.00681 
L 233.713367 112.006783 
L 241.416757 112.006737 
L 249.120162 112.00666 
L 256.823568 112.006534 
L 264.526958 112.006327 
L 272.230348 112.005994 
L 279.933754 112.005463 
L 287.63716 112.004628 
L 295.34055 112.003327 
L 303.043947 112.001326 
L 310.747345 111.998286 
L 318.450743 111.99372 
L 326.154141 111.986945 
L 333.857539 111.97701 
L 341.560937 111.962618 
L 349.264335 111.942019 
L 356.967732 111.91289 
L 364.67113 111.872199 
L 372.374528 111.81605 
L 380.077926 111.739516 
L 387.781324 111.636481 
L 395.484722 111.499484 
L 403.18812 111.319604 
L 410.891517 111.086383 
L 418.594915 110.787836 
L 426.298313 110.41055 
L 434.001711 109.939927 
L 441.705109 109.360551 
L 449.408507 108.656746 
L 457.111905 107.813293 
L 464.815302 106.816326 
L 472.5187 105.654353 
L 480.222074 104.319402 
L 487.925472 102.808184 
L 495.62887 101.123262 
L 503.332268 99.274047 
L 511.035665 97.277602 
L 518.739063 95.159106 
L 526.442461 92.95191 
L 534.145859 90.697117 
L 541.849257 88.442629 
L 549.552655 86.241693 
L 557.256053 84.150954 
L 564.95945 82.228126 
L 572.66284 80.52939 
L 580.366246 79.106696 
L 588.069652 78.005137 
L 595.773042 77.260572 
L 603.476432 76.897694 
L 611.179821 76.928661 
L 618.883227 77.352438 
L 626.586633 78.154832 
L 634.290023 79.309302 
L 641.993413 80.778395 
L 649.696819 82.51579 
L 657.400225 84.468693 
L 665.103614 86.580499 
L 672.807004 88.793493 
L 680.51041 91.051433 
L 688.213816 93.30178 
L 695.917206 95.497612 
L 703.620596 97.598993 
L 711.323986 99.573834 
L 719.027408 101.398256 
L 726.730797 103.056415 
L 734.434187 104.54004 
L 742.137609 105.847564 
L 749.840999 106.983071 
L 757.544389 107.955168 
L 765.247779 108.77579 
L 772.951168 109.459086 
L 780.65459 110.0204 
L 788.35798 110.475406 
L 796.061402 110.839425 
L 803.764792 111.126892 
L 811.468182 111.351007 
" clip-path="url(#pe3678120f6)" style="fill: none; stroke: #1f77b4; stroke-width: 1.5; stroke-linecap: square"/>
   </g>
   <g id="text_11">
    <g id="patch_109">
     <path d="M 453.456347 36.734506 
L 469.764159 36.734506 
Q 472.764159 36.734506 472.764159 33.734506 
L 472.764159 24.056381 
Q 472.764159 21.056381 469.764159 21.056381 
L 453.456347 21.056381 
Q 450.456347 21.056381 450.456347 24.056381 
L 450.456347 33.734506 
Q 450.456347 36.734506 453.456347 36.734506 
z
" style="fill: #ffffff"/>
    </g>
    <!-- -2σ -->
    <g transform="translate(453.456347 31.654819) scale(0.1 -0.1)">
     <defs>
      <path id="DejaVuSans-2d" d="M 313 2009 
L 1997 2009 
L 1997 1497 
L 313 1497 
L 313 2009 
z
" transform="scale(0.015625)"/>
     </defs>
     <use xlink:href="#DejaVuSans-2d"/>
     <use xlink:href="#DejaVuSans-32" x="36.083984"/>
     <use xlink:href="#DejaVuSans-3c3" x="99.707031"/>
    </g>
   </g>
   <g id="text_12">
    <g id="patch_110">
     <path d="M 529.194996 36.734506 
L 539.140309 36.734506 
Q 542.140309 36.734506 542.140309 33.734506 
L 542.140309 24.056381 
Q 542.140309 21.056381 539.140309 21.056381 
L 529.194996 21.056381 
Q 526.194996 21.056381 526.194996 24.056381 
L 526.194996 33.734506 
Q 526.194996 36.734506 529.194996 36.734506 
z
" style="fill: #ffffff"/>
    </g>
    <!-- -σ -->
    <g transform="translate(529.194996 31.654819) scale(0.1 -0.1)">
     <use xlink:href="#DejaVuSans-2d"/>
     <use xlink:href="#DejaVuSans-3c3" x="36.083984"/>
    </g>
   </g>
   <g id="text_13">
    <g id="patch_111">
     <path d="M 603.543802 36.734506 
L 609.906302 36.734506 
Q 612.906302 36.734506 612.906302 33.734506 
L 612.906302 24.056381 
Q 612.906302 21.056381 609.906302 21.056381 
L 603.543802 21.056381 
Q 600.543802 21.056381 600.543802 24.056381 
L 600.543802 33.734506 
Q 600.543802 36.734506 603.543802 36.734506 
z
" style="fill: #ffffff"/>
    </g>
    <!-- μ -->
    <g transform="translate(603.543802 31.654819) scale(0.1 -0.1)">
     <use xlink:href="#DejaVuSans-3bc"/>
    </g>
   </g>
   <g id="text_14">
    <g id="patch_112">
     <path d="M 671.923858 36.734506 
L 686.641045 36.734506 
Q 689.641045 36.734506 689.641045 33.734506 
L 689.641045 24.056381 
Q 689.641045 21.056381 686.641045 21.056381 
L 671.923858 21.056381 
Q 668.923858 21.056381 668.923858 24.056381 
L 668.923858 33.734506 
Q 668.923858 36.734506 671.923858 36.734506 
z
" style="fill: #ffffff"/>
    </g>
    <!-- +σ -->
    <g transform="translate(671.923858 31.654819) scale(0.1 -0.1)">
     <defs>
      <path id="DejaVuSans-2b" d="M 2944 4013 
L 2944 2272 
L 4684 2272 
L 4684 1741 
L 2944 1741 
L 2944 0 
L 2419 0 
L 2419 1741 
L 678 1741 
L 678 2272 
L 2419 2272 
L 2419 4013 
L 2944 4013 
z
" transform="scale(0.015625)"/>
     </defs>
     <use xlink:href="#DejaVuSans-2b"/>
     <use xlink:href="#DejaVuSans-3c3" x="83.789062"/>
    </g>
   </g>
   <g id="text_15">
    <g id="patch_113">
     <path d="M 741.300023 36.734506 
L 762.379711 36.734506 
Q 765.379711 36.734506 765.379711 33.734506 
L 765.379711 24.056381 
Q 765.379711 21.056381 762.379711 21.056381 
L 741.300023 21.056381 
Q 738.300023 21.056381 738.300023 24.056381 
L 738.300023 33.734506 
Q 738.300023 36.734506 741.300023 36.734506 
z
" style="fill: #ffffff"/>
    </g>
    <!-- +2σ -->
    <g transform="translate(741.300023 31.654819) scale(0.1 -0.1)">
     <use xlink:href="#DejaVuSans-2b"/>
     <use xlink:href="#DejaVuSans-32" x="83.789062"/>
     <use xlink:href="#DejaVuSans-3c3" x="147.412109"/>
    </g>
   </g>
  </g>
 </g>
 <defs>
  <clipPath id="pe3678120f6">
   <rect x="10.7" y="19.427409" width="838.9" height="92.579438"/>
  </clipPath>
 </defs>
</svg>
