<?xml version="1.0" encoding="utf-8" standalone="no"?>
<!DOCTYPE svg PUBLIC "-//W3C//DTD SVG 1.1//EN"
  "http://www.w3.org/Graphics/SVG/1.1/DTD/svg11.dtd">
<svg xmlns:xlink="http://www.w3.org/1999/xlink" width="856.8pt" height="135.884972pt" viewBox="0 0 856.8 135.884972" xmlns="http://www.w3.org/2000/svg" version="1.1">
 <metadata>
  <rdf:RDF xmlns:dc="http://purl.org/dc/elements/1.1/" xmlns:cc="http://creativecommons.org/ns#" xmlns:rdf="http://www.w3.org/1999/02/22-rdf-syntax-ns#">
   <cc:Work>
    <dc:type rdf:resource="http://purl.org/dc/dcmitype/StillImage"/>
    <dc:date>2022-10-26T12:17:03.451365</dc:date>
    <dc:format>image/svg+xml</dc:format>
    <dc:creator>
     <cc:Agent>
      <dc:title>Matplotlib v3.6.1, https://matplotlib.org/</dc:title>
     </cc:Agent>
    </dc:creator>
   </cc:Work>
  </rdf:RDF>
 </metadata>
 <defs>
  <style type="text/css">*{stroke-linejoin: round; stroke-linecap: butt}</style>
 </defs>
 <g id="figure_1">
  <g id="patch_1">
   <path d="M 0 135.884972 
L 856.8 135.884972 
L 856.8 0 
L 0 0 
z
" style="fill: #ffffff"/>
  </g>
  <g id="axes_1">
   <g id="patch_2">
    <path d="M 10.7 112.006847 
L 849.6 112.006847 
L 849.6 19.427409 
L 10.7 19.427409 
z
" style="fill: #ffffff"/>
   </g>
   <g id="matplotlib.axis_1">
    <g id="xtick_1">
     <g id="line2d_1">
      <defs>
       <path id="m8f3a2d42a0" d="M 0 0 
L 0 3.5 
" style="stroke: #000000; stroke-width: 0.8"/>
      </defs>
      <g>
       <use xlink:href="#m8f3a2d42a0" x="144.058082" y="112.006847" style="stroke: #000000; stroke-width: 0.8"/>
      </g>
     </g>
     <g id="text_1">
      <!-- −4 -->
      <g transform="translate(136.686988 126.605284) scale(0.1 -0.1)">
       <defs>
        <path id="DejaVuSans-2212" d="M 678 2272 
L 4684 2272 
L 4684 1741 
L 678 1741 
L 678 2272 
z
" transform="scale(0.015625)"/>
        <path id="DejaVuSans-34" d="M 2419 4116 
L 825 1625 
L 2419 1625 
L 2419 4116 
z
M 2253 4666 
L 3047 4666 
L 3047 1625 
L 3713 1625 
L 3713 1100 
L 3047 1100 
L 3047 0 
L 2419 0 
L 2419 1100 
L 313 1100 
L 313 1709 
L 2253 4666 
z
" transform="scale(0.015625)"/>
       </defs>
       <use xlink:href="#DejaVuSans-2212"/>
       <use xlink:href="#DejaVuSans-34" x="83.789062"/>
      </g>
     </g>
    </g>
    <g id="xtick_2">
     <g id="line2d_2">
      <g>
       <use xlink:href="#m8f3a2d42a0" x="287.023409" y="112.006847" style="stroke: #000000; stroke-width: 0.8"/>
      </g>
     </g>
     <g id="text_2">
      <!-- −2 -->
      <g transform="translate(279.652315 126.605284) scale(0.1 -0.1)">
       <defs>
        <path id="DejaVuSans-32" d="M 1228 531 
L 3431 531 
L 3431 0 
L 469 0 
L 469 531 
Q 828 903 1448 1529 
Q 2069 2156 2228 2338 
Q 2531 2678 2651 2914 
Q 2772 3150 2772 3378 
Q 2772 3750 2511 3984 
Q 2250 4219 1831 4219 
Q 1534 4219 1204 4116 
Q 875 4013 500 3803 
L 500 4441 
Q 881 4594 1212 4672 
Q 1544 4750 1819 4750 
Q 2544 4750 2975 4387 
Q 3406 4025 3406 3419 
Q 3406 3131 3298 2873 
Q 3191 2616 2906 2266 
Q 2828 2175 2409 1742 
Q 1991 1309 1228 531 
z
" transform="scale(0.015625)"/>
       </defs>
       <use xlink:href="#DejaVuSans-2212"/>
       <use xlink:href="#DejaVuSans-32" x="83.789062"/>
      </g>
     </g>
    </g>
    <g id="xtick_3">
     <g id="line2d_3">
      <g>
       <use xlink:href="#m8f3a2d42a0" x="429.988735" y="112.006847" style="stroke: #000000; stroke-width: 0.8"/>
      </g>
     </g>
     <g id="text_3">
      <!-- 0 -->
      <g transform="translate(426.807485 126.605284) scale(0.1 -0.1)">
       <defs>
        <path id="DejaVuSans-30" d="M 2034 4250 
Q 1547 4250 1301 3770 
Q 1056 3291 1056 2328 
Q 1056 1369 1301 889 
Q 1547 409 2034 409 
Q 2525 409 2770 889 
Q 3016 1369 3016 2328 
Q 3016 3291 2770 3770 
Q 2525 4250 2034 4250 
z
M 2034 4750 
Q 2819 4750 3233 4129 
Q 3647 3509 3647 2328 
Q 3647 1150 3233 529 
Q 2819 -91 2034 -91 
Q 1250 -91 836 529 
Q 422 1150 422 2328 
Q 422 3509 836 4129 
Q 1250 4750 2034 4750 
z
" transform="scale(0.015625)"/>
       </defs>
       <use xlink:href="#DejaVuSans-30"/>
      </g>
     </g>
    </g>
    <g id="xtick_4">
     <g id="line2d_4">
      <g>
       <use xlink:href="#m8f3a2d42a0" x="572.954062" y="112.006847" style="stroke: #000000; stroke-width: 0.8"/>
      </g>
     </g>
     <g id="text_4">
      <!-- 2 -->
      <g transform="translate(569.772812 126.605284) scale(0.1 -0.1)">
       <use xlink:href="#DejaVuSans-32"/>
      </g>
     </g>
    </g>
    <g id="xtick_5">
     <g id="line2d_5">
      <g>
       <use xlink:href="#m8f3a2d42a0" x="715.919388" y="112.006847" style="stroke: #000000; stroke-width: 0.8"/>
      </g>
     </g>
     <g id="text_5">
      <!-- 4 -->
      <g transform="translate(712.738138 126.605284) scale(0.1 -0.1)">
       <use xlink:href="#DejaVuSans-34"/>
      </g>
     </g>
    </g>
   </g>
   <g id="matplotlib.axis_2"/>
   <g id="line2d_6">
    <path d="M 463.251209 112.006847 
L 463.251209 19.427409 
" clip-path="url(#pa9fedd7e86)" style="fill: none; stroke: #000000; stroke-width: 1.5; stroke-linecap: square"/>
   </g>
   <g id="line2d_7">
    <path d="M 539.965107 112.006847 
L 539.965107 19.427409 
" clip-path="url(#pa9fedd7e86)" style="fill: none; stroke: #000000; stroke-width: 1.5; stroke-linecap: square"/>
   </g>
   <g id="line2d_8">
    <path d="M 616.679005 112.006847 
L 616.679005 19.427409 
" clip-path="url(#pa9fedd7e86)" style="fill: none; stroke: #000000; stroke-width: 1.5; stroke-linecap: square"/>
   </g>
   <g id="line2d_9">
    <path d="M 693.392903 112.006847 
L 693.392903 19.427409 
" clip-path="url(#pa9fedd7e86)" style="fill: none; stroke: #000000; stroke-width: 1.5; stroke-linecap: square"/>
   </g>
   <g id="line2d_10">
    <path d="M 770.106801 112.006847 
L 770.106801 19.427409 
" clip-path="url(#pa9fedd7e86)" style="fill: none; stroke: #000000; stroke-width: 1.5; stroke-linecap: square"/>
   </g>
   <g id="patch_3">
    <path d="M 10.7 112.006847 
L 10.7 19.427409 
" style="fill: none; stroke: #000000; stroke-width: 0.8; stroke-linejoin: miter; stroke-linecap: square"/>
   </g>
   <g id="patch_4">
    <path d="M 849.6 112.006847 
L 849.6 19.427409 
" style="fill: none; stroke: #000000; stroke-width: 0.8; stroke-linejoin: miter; stroke-linecap: square"/>
   </g>
   <g id="patch_5">
    <path d="M 10.7 112.006847 
L 849.6 112.006847 
" style="fill: none; stroke: #000000; stroke-width: 0.8; stroke-linejoin: miter; stroke-linecap: square"/>
   </g>
   <g id="patch_6">
    <path d="M 10.7 19.427409 
L 849.6 19.427409 
" style="fill: none; stroke: #000000; stroke-width: 0.8; stroke-linejoin: miter; stroke-linecap: square"/>
   </g>
   <g id="text_6">
    <g id="patch_7">
     <path d="M 495.04331 93.649159 
L 495.04331 37.785097 
Q 495.04331 34.785097 492.04331 34.785097 
L 482.365185 34.785097 
Q 479.365185 34.785097 479.365185 37.785097 
L 479.365185 93.649159 
Q 479.365185 96.649159 482.365185 96.649159 
L 492.04331 96.649159 
Q 495.04331 96.649159 495.04331 93.649159 
z
" style="fill: #ffffff"/>
    </g>
    <!-- min=0.882 -->
    <g transform="translate(489.963623 93.649159) rotate(-90) scale(0.1 -0.1)">
     <defs>
      <path id="DejaVuSans-6d" d="M 3328 2828 
Q 3544 3216 3844 3400 
Q 4144 3584 4550 3584 
Q 5097 3584 5394 3201 
Q 5691 2819 5691 2113 
L 5691 0 
L 5113 0 
L 5113 2094 
Q 5113 2597 4934 2840 
Q 4756 3084 4391 3084 
Q 3944 3084 3684 2787 
Q 3425 2491 3425 1978 
L 3425 0 
L 2847 0 
L 2847 2094 
Q 2847 2600 2669 2842 
Q 2491 3084 2119 3084 
Q 1678 3084 1418 2786 
Q 1159 2488 1159 1978 
L 1159 0 
L 581 0 
L 581 3500 
L 1159 3500 
L 1159 2956 
Q 1356 3278 1631 3431 
Q 1906 3584 2284 3584 
Q 2666 3584 2933 3390 
Q 3200 3197 3328 2828 
z
" transform="scale(0.015625)"/>
      <path id="DejaVuSans-69" d="M 603 3500 
L 1178 3500 
L 1178 0 
L 603 0 
L 603 3500 
z
M 603 4863 
L 1178 4863 
L 1178 4134 
L 603 4134 
L 603 4863 
z
" transform="scale(0.015625)"/>
      <path id="DejaVuSans-6e" d="M 3513 2113 
L 3513 0 
L 2938 0 
L 2938 2094 
Q 2938 2591 2744 2837 
Q 2550 3084 2163 3084 
Q 1697 3084 1428 2787 
Q 1159 2491 1159 1978 
L 1159 0 
L 581 0 
L 581 3500 
L 1159 3500 
L 1159 2956 
Q 1366 3272 1645 3428 
Q 1925 3584 2291 3584 
Q 2894 3584 3203 3211 
Q 3513 2838 3513 2113 
z
" transform="scale(0.015625)"/>
      <path id="DejaVuSans-3d" d="M 678 2906 
L 4684 2906 
L 4684 2381 
L 678 2381 
L 678 2906 
z
M 678 1631 
L 4684 1631 
L 4684 1100 
L 678 1100 
L 678 1631 
z
" transform="scale(0.015625)"/>
      <path id="DejaVuSans-2e" d="M 684 794 
L 1344 794 
L 1344 0 
L 684 0 
L 684 794 
z
" transform="scale(0.015625)"/>
      <path id="DejaVuSans-38" d="M 2034 2216 
Q 1584 2216 1326 1975 
Q 1069 1734 1069 1313 
Q 1069 891 1326 650 
Q 1584 409 2034 409 
Q 2484 409 2743 651 
Q 3003 894 3003 1313 
Q 3003 1734 2745 1975 
Q 2488 2216 2034 2216 
z
M 1403 2484 
Q 997 2584 770 2862 
Q 544 3141 544 3541 
Q 544 4100 942 4425 
Q 1341 4750 2034 4750 
Q 2731 4750 3128 4425 
Q 3525 4100 3525 3541 
Q 3525 3141 3298 2862 
Q 3072 2584 2669 2484 
Q 3125 2378 3379 2068 
Q 3634 1759 3634 1313 
Q 3634 634 3220 271 
Q 2806 -91 2034 -91 
Q 1263 -91 848 271 
Q 434 634 434 1313 
Q 434 1759 690 2068 
Q 947 2378 1403 2484 
z
M 1172 3481 
Q 1172 3119 1398 2916 
Q 1625 2713 2034 2713 
Q 2441 2713 2670 2916 
Q 2900 3119 2900 3481 
Q 2900 3844 2670 4047 
Q 2441 4250 2034 4250 
Q 1625 4250 1398 4047 
Q 1172 3844 1172 3481 
z
" transform="scale(0.015625)"/>
     </defs>
     <use xlink:href="#DejaVuSans-6d"/>
     <use xlink:href="#DejaVuSans-69" x="97.412109"/>
     <use xlink:href="#DejaVuSans-6e" x="125.195312"/>
     <use xlink:href="#DejaVuSans-3d" x="188.574219"/>
     <use xlink:href="#DejaVuSans-30" x="272.363281"/>
     <use xlink:href="#DejaVuSans-2e" x="335.986328"/>
     <use xlink:href="#DejaVuSans-38" x="367.773438"/>
     <use xlink:href="#DejaVuSans-38" x="431.396484"/>
     <use xlink:href="#DejaVuSans-32" x="495.019531"/>
    </g>
   </g>
   <g id="text_7">
    <g id="patch_8">
     <path d="M 847.829105 95.114784 
L 847.829105 36.319472 
Q 847.829105 33.319472 844.829105 33.319472 
L 835.15098 33.319472 
Q 832.15098 33.319472 832.15098 36.319472 
L 832.15098 95.114784 
Q 832.15098 98.114784 835.15098 98.114784 
L 844.829105 98.114784 
Q 847.829105 98.114784 847.829105 95.114784 
z
" style="fill: #ffffff"/>
    </g>
    <!-- max=5.640 -->
    <g transform="translate(842.749418 95.114784) rotate(-90) scale(0.1 -0.1)">
     <defs>
      <path id="DejaVuSans-61" d="M 2194 1759 
Q 1497 1759 1228 1600 
Q 959 1441 959 1056 
Q 959 750 1161 570 
Q 1363 391 1709 391 
Q 2188 391 2477 730 
Q 2766 1069 2766 1631 
L 2766 1759 
L 2194 1759 
z
M 3341 1997 
L 3341 0 
L 2766 0 
L 2766 531 
Q 2569 213 2275 61 
Q 1981 -91 1556 -91 
Q 1019 -91 701 211 
Q 384 513 384 1019 
Q 384 1609 779 1909 
Q 1175 2209 1959 2209 
L 2766 2209 
L 2766 2266 
Q 2766 2663 2505 2880 
Q 2244 3097 1772 3097 
Q 1472 3097 1187 3025 
Q 903 2953 641 2809 
L 641 3341 
Q 956 3463 1253 3523 
Q 1550 3584 1831 3584 
Q 2591 3584 2966 3190 
Q 3341 2797 3341 1997 
z
" transform="scale(0.015625)"/>
      <path id="DejaVuSans-78" d="M 3513 3500 
L 2247 1797 
L 3578 0 
L 2900 0 
L 1881 1375 
L 863 0 
L 184 0 
L 1544 1831 
L 300 3500 
L 978 3500 
L 1906 2253 
L 2834 3500 
L 3513 3500 
z
" transform="scale(0.015625)"/>
      <path id="DejaVuSans-35" d="M 691 4666 
L 3169 4666 
L 3169 4134 
L 1269 4134 
L 1269 2991 
Q 1406 3038 1543 3061 
Q 1681 3084 1819 3084 
Q 2600 3084 3056 2656 
Q 3513 2228 3513 1497 
Q 3513 744 3044 326 
Q 2575 -91 1722 -91 
Q 1428 -91 1123 -41 
Q 819 9 494 109 
L 494 744 
Q 775 591 1075 516 
Q 1375 441 1709 441 
Q 2250 441 2565 725 
Q 2881 1009 2881 1497 
Q 2881 1984 2565 2268 
Q 2250 2553 1709 2553 
Q 1456 2553 1204 2497 
Q 953 2441 691 2322 
L 691 4666 
z
" transform="scale(0.015625)"/>
      <path id="DejaVuSans-36" d="M 2113 2584 
Q 1688 2584 1439 2293 
Q 1191 2003 1191 1497 
Q 1191 994 1439 701 
Q 1688 409 2113 409 
Q 2538 409 2786 701 
Q 3034 994 3034 1497 
Q 3034 2003 2786 2293 
Q 2538 2584 2113 2584 
z
M 3366 4563 
L 3366 3988 
Q 3128 4100 2886 4159 
Q 2644 4219 2406 4219 
Q 1781 4219 1451 3797 
Q 1122 3375 1075 2522 
Q 1259 2794 1537 2939 
Q 1816 3084 2150 3084 
Q 2853 3084 3261 2657 
Q 3669 2231 3669 1497 
Q 3669 778 3244 343 
Q 2819 -91 2113 -91 
Q 1303 -91 875 529 
Q 447 1150 447 2328 
Q 447 3434 972 4092 
Q 1497 4750 2381 4750 
Q 2619 4750 2861 4703 
Q 3103 4656 3366 4563 
z
" transform="scale(0.015625)"/>
     </defs>
     <use xlink:href="#DejaVuSans-6d"/>
     <use xlink:href="#DejaVuSans-61" x="97.412109"/>
     <use xlink:href="#DejaVuSans-78" x="158.691406"/>
     <use xlink:href="#DejaVuSans-3d" x="217.871094"/>
     <use xlink:href="#DejaVuSans-35" x="301.660156"/>
     <use xlink:href="#DejaVuSans-2e" x="365.283203"/>
     <use xlink:href="#DejaVuSans-36" x="397.070312"/>
     <use xlink:href="#DejaVuSans-34" x="460.693359"/>
     <use xlink:href="#DejaVuSans-30" x="524.316406"/>
    </g>
   </g>
   <g id="text_8">
    <!-- 100000 samples of tensor[3, 196, 196] n=115248 x∈[0.882, 5.640] μ=2.612 σ=1.073 -->
    <g transform="translate(10.7 14.798437) scale(0.1 -0.1)">
     <defs>
      <path id="DejaVuSans-31" d="M 794 531 
L 1825 531 
L 1825 4091 
L 703 3866 
L 703 4441 
L 1819 4666 
L 2450 4666 
L 2450 531 
L 3481 531 
L 3481 0 
L 794 0 
L 794 531 
z
" transform="scale(0.015625)"/>
      <path id="DejaVuSans-20" transform="scale(0.015625)"/>
      <path id="DejaVuSans-73" d="M 2834 3397 
L 2834 2853 
Q 2591 2978 2328 3040 
Q 2066 3103 1784 3103 
Q 1356 3103 1142 2972 
Q 928 2841 928 2578 
Q 928 2378 1081 2264 
Q 1234 2150 1697 2047 
L 1894 2003 
Q 2506 1872 2764 1633 
Q 3022 1394 3022 966 
Q 3022 478 2636 193 
Q 2250 -91 1575 -91 
Q 1294 -91 989 -36 
Q 684 19 347 128 
L 347 722 
Q 666 556 975 473 
Q 1284 391 1588 391 
Q 1994 391 2212 530 
Q 2431 669 2431 922 
Q 2431 1156 2273 1281 
Q 2116 1406 1581 1522 
L 1381 1569 
Q 847 1681 609 1914 
Q 372 2147 372 2553 
Q 372 3047 722 3315 
Q 1072 3584 1716 3584 
Q 2034 3584 2315 3537 
Q 2597 3491 2834 3397 
z
" transform="scale(0.015625)"/>
      <path id="DejaVuSans-70" d="M 1159 525 
L 1159 -1331 
L 581 -1331 
L 581 3500 
L 1159 3500 
L 1159 2969 
Q 1341 3281 1617 3432 
Q 1894 3584 2278 3584 
Q 2916 3584 3314 3078 
Q 3713 2572 3713 1747 
Q 3713 922 3314 415 
Q 2916 -91 2278 -91 
Q 1894 -91 1617 61 
Q 1341 213 1159 525 
z
M 3116 1747 
Q 3116 2381 2855 2742 
Q 2594 3103 2138 3103 
Q 1681 3103 1420 2742 
Q 1159 2381 1159 1747 
Q 1159 1113 1420 752 
Q 1681 391 2138 391 
Q 2594 391 2855 752 
Q 3116 1113 3116 1747 
z
" transform="scale(0.015625)"/>
      <path id="DejaVuSans-6c" d="M 603 4863 
L 1178 4863 
L 1178 0 
L 603 0 
L 603 4863 
z
" transform="scale(0.015625)"/>
      <path id="DejaVuSans-65" d="M 3597 1894 
L 3597 1613 
L 953 1613 
Q 991 1019 1311 708 
Q 1631 397 2203 397 
Q 2534 397 2845 478 
Q 3156 559 3463 722 
L 3463 178 
Q 3153 47 2828 -22 
Q 2503 -91 2169 -91 
Q 1331 -91 842 396 
Q 353 884 353 1716 
Q 353 2575 817 3079 
Q 1281 3584 2069 3584 
Q 2775 3584 3186 3129 
Q 3597 2675 3597 1894 
z
M 3022 2063 
Q 3016 2534 2758 2815 
Q 2500 3097 2075 3097 
Q 1594 3097 1305 2825 
Q 1016 2553 972 2059 
L 3022 2063 
z
" transform="scale(0.015625)"/>
      <path id="DejaVuSans-6f" d="M 1959 3097 
Q 1497 3097 1228 2736 
Q 959 2375 959 1747 
Q 959 1119 1226 758 
Q 1494 397 1959 397 
Q 2419 397 2687 759 
Q 2956 1122 2956 1747 
Q 2956 2369 2687 2733 
Q 2419 3097 1959 3097 
z
M 1959 3584 
Q 2709 3584 3137 3096 
Q 3566 2609 3566 1747 
Q 3566 888 3137 398 
Q 2709 -91 1959 -91 
Q 1206 -91 779 398 
Q 353 888 353 1747 
Q 353 2609 779 3096 
Q 1206 3584 1959 3584 
z
" transform="scale(0.015625)"/>
      <path id="DejaVuSans-66" d="M 2375 4863 
L 2375 4384 
L 1825 4384 
Q 1516 4384 1395 4259 
Q 1275 4134 1275 3809 
L 1275 3500 
L 2222 3500 
L 2222 3053 
L 1275 3053 
L 1275 0 
L 697 0 
L 697 3053 
L 147 3053 
L 147 3500 
L 697 3500 
L 697 3744 
Q 697 4328 969 4595 
Q 1241 4863 1831 4863 
L 2375 4863 
z
" transform="scale(0.015625)"/>
      <path id="DejaVuSans-74" d="M 1172 4494 
L 1172 3500 
L 2356 3500 
L 2356 3053 
L 1172 3053 
L 1172 1153 
Q 1172 725 1289 603 
Q 1406 481 1766 481 
L 2356 481 
L 2356 0 
L 1766 0 
Q 1100 0 847 248 
Q 594 497 594 1153 
L 594 3053 
L 172 3053 
L 172 3500 
L 594 3500 
L 594 4494 
L 1172 4494 
z
" transform="scale(0.015625)"/>
      <path id="DejaVuSans-72" d="M 2631 2963 
Q 2534 3019 2420 3045 
Q 2306 3072 2169 3072 
Q 1681 3072 1420 2755 
Q 1159 2438 1159 1844 
L 1159 0 
L 581 0 
L 581 3500 
L 1159 3500 
L 1159 2956 
Q 1341 3275 1631 3429 
Q 1922 3584 2338 3584 
Q 2397 3584 2469 3576 
Q 2541 3569 2628 3553 
L 2631 2963 
z
" transform="scale(0.015625)"/>
      <path id="DejaVuSans-5b" d="M 550 4863 
L 1875 4863 
L 1875 4416 
L 1125 4416 
L 1125 -397 
L 1875 -397 
L 1875 -844 
L 550 -844 
L 550 4863 
z
" transform="scale(0.015625)"/>
      <path id="DejaVuSans-33" d="M 2597 2516 
Q 3050 2419 3304 2112 
Q 3559 1806 3559 1356 
Q 3559 666 3084 287 
Q 2609 -91 1734 -91 
Q 1441 -91 1130 -33 
Q 819 25 488 141 
L 488 750 
Q 750 597 1062 519 
Q 1375 441 1716 441 
Q 2309 441 2620 675 
Q 2931 909 2931 1356 
Q 2931 1769 2642 2001 
Q 2353 2234 1838 2234 
L 1294 2234 
L 1294 2753 
L 1863 2753 
Q 2328 2753 2575 2939 
Q 2822 3125 2822 3475 
Q 2822 3834 2567 4026 
Q 2313 4219 1838 4219 
Q 1578 4219 1281 4162 
Q 984 4106 628 3988 
L 628 4550 
Q 988 4650 1302 4700 
Q 1616 4750 1894 4750 
Q 2613 4750 3031 4423 
Q 3450 4097 3450 3541 
Q 3450 3153 3228 2886 
Q 3006 2619 2597 2516 
z
" transform="scale(0.015625)"/>
      <path id="DejaVuSans-2c" d="M 750 794 
L 1409 794 
L 1409 256 
L 897 -744 
L 494 -744 
L 750 256 
L 750 794 
z
" transform="scale(0.015625)"/>
      <path id="DejaVuSans-39" d="M 703 97 
L 703 672 
Q 941 559 1184 500 
Q 1428 441 1663 441 
Q 2288 441 2617 861 
Q 2947 1281 2994 2138 
Q 2813 1869 2534 1725 
Q 2256 1581 1919 1581 
Q 1219 1581 811 2004 
Q 403 2428 403 3163 
Q 403 3881 828 4315 
Q 1253 4750 1959 4750 
Q 2769 4750 3195 4129 
Q 3622 3509 3622 2328 
Q 3622 1225 3098 567 
Q 2575 -91 1691 -91 
Q 1453 -91 1209 -44 
Q 966 3 703 97 
z
M 1959 2075 
Q 2384 2075 2632 2365 
Q 2881 2656 2881 3163 
Q 2881 3666 2632 3958 
Q 2384 4250 1959 4250 
Q 1534 4250 1286 3958 
Q 1038 3666 1038 3163 
Q 1038 2656 1286 2365 
Q 1534 2075 1959 2075 
z
" transform="scale(0.015625)"/>
      <path id="DejaVuSans-5d" d="M 1947 4863 
L 1947 -844 
L 622 -844 
L 622 -397 
L 1369 -397 
L 1369 4416 
L 622 4416 
L 622 4863 
L 1947 4863 
z
" transform="scale(0.015625)"/>
      <path id="DejaVuSans-2208" d="M 1072 1959 
Q 1094 1728 1291 1353 
Q 1522 919 1959 675 
Q 2388 438 2850 434 
L 5028 434 
L 5028 -63 
L 2850 -63 
Q 2250 -63 1695 246 
Q 1141 556 844 1106 
Q 547 1656 547 2241 
Q 547 2819 844 3369 
Q 1141 3919 1695 4231 
Q 2250 4544 2850 4544 
L 5028 4544 
L 5028 4047 
L 2850 4047 
Q 2388 4044 1959 3803 
Q 1525 3556 1291 3125 
Q 1091 2750 1063 2459 
L 5028 2459 
L 5028 1959 
L 1072 1959 
z
" transform="scale(0.015625)"/>
      <path id="DejaVuSans-3bc" d="M 544 -1331 
L 544 3500 
L 1119 3500 
L 1119 1325 
Q 1119 872 1334 640 
Q 1550 409 1972 409 
Q 2434 409 2667 671 
Q 2900 934 2900 1459 
L 2900 3500 
L 3475 3500 
L 3475 806 
Q 3475 619 3529 530 
Q 3584 441 3700 441 
Q 3728 441 3778 458 
Q 3828 475 3916 513 
L 3916 50 
Q 3788 -22 3673 -56 
Q 3559 -91 3450 -91 
Q 3234 -91 3106 31 
Q 2978 153 2931 403 
Q 2775 156 2548 32 
Q 2322 -91 2016 -91 
Q 1697 -91 1473 31 
Q 1250 153 1119 397 
L 1119 -1331 
L 544 -1331 
z
" transform="scale(0.015625)"/>
      <path id="DejaVuSans-3c3" d="M 1959 3044 
Q 1484 3044 1228 2700 
Q 959 2341 959 1747 
Q 959 1119 1226 758 
Q 1494 397 1959 397 
Q 2419 397 2687 759 
Q 2956 1122 2956 1747 
Q 2956 2319 2688 2700 
Q 2441 3044 1959 3044 
z
M 1959 3500 
L 3869 3500 
L 3869 2925 
L 3225 2925 
Q 3566 2438 3566 1747 
Q 3566 888 3138 400 
Q 2709 -91 1959 -91 
Q 1206 -91 781 400 
Q 353 888 353 1747 
Q 353 2613 781 3097 
Q 1134 3500 1959 3500 
z
" transform="scale(0.015625)"/>
      <path id="DejaVuSans-37" d="M 525 4666 
L 3525 4666 
L 3525 4397 
L 1831 0 
L 1172 0 
L 2766 4134 
L 525 4134 
L 525 4666 
z
" transform="scale(0.015625)"/>
     </defs>
     <use xlink:href="#DejaVuSans-31"/>
     <use xlink:href="#DejaVuSans-30" x="63.623047"/>
     <use xlink:href="#DejaVuSans-30" x="127.246094"/>
     <use xlink:href="#DejaVuSans-30" x="190.869141"/>
     <use xlink:href="#DejaVuSans-30" x="254.492188"/>
     <use xlink:href="#DejaVuSans-30" x="318.115234"/>
     <use xlink:href="#DejaVuSans-20" x="381.738281"/>
     <use xlink:href="#DejaVuSans-73" x="413.525391"/>
     <use xlink:href="#DejaVuSans-61" x="465.625"/>
     <use xlink:href="#DejaVuSans-6d" x="526.904297"/>
     <use xlink:href="#DejaVuSans-70" x="624.316406"/>
     <use xlink:href="#DejaVuSans-6c" x="687.792969"/>
     <use xlink:href="#DejaVuSans-65" x="715.576172"/>
     <use xlink:href="#DejaVuSans-73" x="777.099609"/>
     <use xlink:href="#DejaVuSans-20" x="829.199219"/>
     <use xlink:href="#DejaVuSans-6f" x="860.986328"/>
     <use xlink:href="#DejaVuSans-66" x="922.167969"/>
     <use xlink:href="#DejaVuSans-20" x="957.373047"/>
     <use xlink:href="#DejaVuSans-74" x="989.160156"/>
     <use xlink:href="#DejaVuSans-65" x="1028.369141"/>
     <use xlink:href="#DejaVuSans-6e" x="1089.892578"/>
     <use xlink:href="#DejaVuSans-73" x="1153.271484"/>
     <use xlink:href="#DejaVuSans-6f" x="1205.371094"/>
     <use xlink:href="#DejaVuSans-72" x="1266.552734"/>
     <use xlink:href="#DejaVuSans-5b" x="1307.666016"/>
     <use xlink:href="#DejaVuSans-33" x="1346.679688"/>
     <use xlink:href="#DejaVuSans-2c" x="1410.302734"/>
     <use xlink:href="#DejaVuSans-20" x="1442.089844"/>
     <use xlink:href="#DejaVuSans-31" x="1473.876953"/>
     <use xlink:href="#DejaVuSans-39" x="1537.5"/>
     <use xlink:href="#DejaVuSans-36" x="1601.123047"/>
     <use xlink:href="#DejaVuSans-2c" x="1664.746094"/>
     <use xlink:href="#DejaVuSans-20" x="1696.533203"/>
     <use xlink:href="#DejaVuSans-31" x="1728.320312"/>
     <use xlink:href="#DejaVuSans-39" x="1791.943359"/>
     <use xlink:href="#DejaVuSans-36" x="1855.566406"/>
     <use xlink:href="#DejaVuSans-5d" x="1919.189453"/>
     <use xlink:href="#DejaVuSans-20" x="1958.203125"/>
     <use xlink:href="#DejaVuSans-6e" x="1989.990234"/>
     <use xlink:href="#DejaVuSans-3d" x="2053.369141"/>
     <use xlink:href="#DejaVuSans-31" x="2137.158203"/>
     <use xlink:href="#DejaVuSans-31" x="2200.78125"/>
     <use xlink:href="#DejaVuSans-35" x="2264.404297"/>
     <use xlink:href="#DejaVuSans-32" x="2328.027344"/>
     <use xlink:href="#DejaVuSans-34" x="2391.650391"/>
     <use xlink:href="#DejaVuSans-38" x="2455.273438"/>
     <use xlink:href="#DejaVuSans-20" x="2518.896484"/>
     <use xlink:href="#DejaVuSans-78" x="2550.683594"/>
     <use xlink:href="#DejaVuSans-2208" x="2609.863281"/>
     <use xlink:href="#DejaVuSans-5b" x="2696.972656"/>
     <use xlink:href="#DejaVuSans-30" x="2735.986328"/>
     <use xlink:href="#DejaVuSans-2e" x="2799.609375"/>
     <use xlink:href="#DejaVuSans-38" x="2831.396484"/>
     <use xlink:href="#DejaVuSans-38" x="2895.019531"/>
     <use xlink:href="#DejaVuSans-32" x="2958.642578"/>
     <use xlink:href="#DejaVuSans-2c" x="3022.265625"/>
     <use xlink:href="#DejaVuSans-20" x="3054.052734"/>
     <use xlink:href="#DejaVuSans-35" x="3085.839844"/>
     <use xlink:href="#DejaVuSans-2e" x="3149.462891"/>
     <use xlink:href="#DejaVuSans-36" x="3181.25"/>
     <use xlink:href="#DejaVuSans-34" x="3244.873047"/>
     <use xlink:href="#DejaVuSans-30" x="3308.496094"/>
     <use xlink:href="#DejaVuSans-5d" x="3372.119141"/>
     <use xlink:href="#DejaVuSans-20" x="3411.132812"/>
     <use xlink:href="#DejaVuSans-3bc" x="3442.919922"/>
     <use xlink:href="#DejaVuSans-3d" x="3506.542969"/>
     <use xlink:href="#DejaVuSans-32" x="3590.332031"/>
     <use xlink:href="#DejaVuSans-2e" x="3653.955078"/>
     <use xlink:href="#DejaVuSans-36" x="3685.742188"/>
     <use xlink:href="#DejaVuSans-31" x="3749.365234"/>
     <use xlink:href="#DejaVuSans-32" x="3812.988281"/>
     <use xlink:href="#DejaVuSans-20" x="3876.611328"/>
     <use xlink:href="#DejaVuSans-3c3" x="3908.398438"/>
     <use xlink:href="#DejaVuSans-3d" x="3971.777344"/>
     <use xlink:href="#DejaVuSans-31" x="4055.566406"/>
     <use xlink:href="#DejaVuSans-2e" x="4119.189453"/>
     <use xlink:href="#DejaVuSans-30" x="4150.976562"/>
     <use xlink:href="#DejaVuSans-37" x="4214.599609"/>
     <use xlink:href="#DejaVuSans-33" x="4278.222656"/>
    </g>
   </g>
   <g id="patch_9">
    <path d="M 493.04331 112.006847 
L 496.444387 112.006847 
L 496.444387 111.947002 
L 493.04331 111.947002 
z
" clip-path="url(#pa9fedd7e86)" style="fill: #00bfff"/>
   </g>
   <g id="patch_10">
    <path d="M 496.444387 112.006847 
L 499.845465 112.006847 
L 499.845465 111.727573 
L 496.444387 111.727573 
z
" clip-path="url(#pa9fedd7e86)" style="fill: #00bfff"/>
   </g>
   <g id="patch_11">
    <path d="M 499.845465 112.006847 
L 503.246542 112.006847 
L 503.246542 110.929646 
L 499.845465 110.929646 
z
" clip-path="url(#pa9fedd7e86)" style="fill: #00bfff"/>
   </g>
   <g id="patch_12">
    <path d="M 503.246542 112.006847 
L 506.647619 112.006847 
L 506.647619 108.436125 
L 503.246542 108.436125 
z
" clip-path="url(#pa9fedd7e86)" style="fill: #00bfff"/>
   </g>
   <g id="patch_13">
    <path d="M 506.647619 112.006847 
L 510.048696 112.006847 
L 510.048696 108.216695 
L 506.647619 108.216695 
z
" clip-path="url(#pa9fedd7e86)" style="fill: #00bfff"/>
   </g>
   <g id="patch_14">
    <path d="M 510.048696 112.006847 
L 513.449773 112.006847 
L 513.449773 104.187166 
L 510.048696 104.187166 
z
" clip-path="url(#pa9fedd7e86)" style="fill: #00bfff"/>
   </g>
   <g id="patch_15">
    <path d="M 513.449773 112.006847 
L 516.850851 112.006847 
L 516.850851 97.664116 
L 513.449773 97.664116 
z
" clip-path="url(#pa9fedd7e86)" style="fill: #00bfff"/>
   </g>
   <g id="patch_16">
    <path d="M 516.850842 112.006847 
L 520.251919 112.006847 
L 520.251919 98.861006 
L 516.850842 98.861006 
z
" clip-path="url(#pa9fedd7e86)" style="fill: #00bfff"/>
   </g>
   <g id="patch_17">
    <path d="M 520.251919 112.006847 
L 523.652997 112.006847 
L 523.652997 94.971113 
L 520.251919 94.971113 
z
" clip-path="url(#pa9fedd7e86)" style="fill: #00bfff"/>
   </g>
   <g id="patch_18">
    <path d="M 523.652997 112.006847 
L 527.054074 112.006847 
L 527.054074 92.537437 
L 523.652997 92.537437 
z
" clip-path="url(#pa9fedd7e86)" style="fill: #00bfff"/>
   </g>
   <g id="patch_19">
    <path d="M 527.054074 112.006847 
L 530.455151 112.006847 
L 530.455151 89.285886 
L 527.054074 89.285886 
z
" clip-path="url(#pa9fedd7e86)" style="fill: #00bfff"/>
   </g>
   <g id="patch_20">
    <path d="M 530.455151 112.006847 
L 533.856228 112.006847 
L 533.856228 91.719563 
L 530.455151 91.719563 
z
" clip-path="url(#pa9fedd7e86)" style="fill: #00bfff"/>
   </g>
   <g id="patch_21">
    <path d="M 533.856228 112.006847 
L 537.257305 112.006847 
L 537.257305 85.395994 
L 533.856228 85.395994 
z
" clip-path="url(#pa9fedd7e86)" style="fill: #00bfff"/>
   </g>
   <g id="patch_22">
    <path d="M 537.257297 112.006847 
L 540.658374 112.006847 
L 540.658374 87.151432 
L 537.257297 87.151432 
z
" clip-path="url(#pa9fedd7e86)" style="fill: #00bfff"/>
   </g>
   <g id="patch_23">
    <path d="M 540.658374 112.006847 
L 544.059451 112.006847 
L 544.059451 87.789772 
L 540.658374 87.789772 
z
" clip-path="url(#pa9fedd7e86)" style="fill: #00bfff"/>
   </g>
   <g id="patch_24">
    <path d="M 544.059451 112.006847 
L 547.460529 112.006847 
L 547.460529 82.922421 
L 544.059451 82.922421 
z
" clip-path="url(#pa9fedd7e86)" style="fill: #00bfff"/>
   </g>
   <g id="patch_25">
    <path d="M 547.460529 112.006847 
L 550.861606 112.006847 
L 550.861606 75.362065 
L 547.460529 75.362065 
z
" clip-path="url(#pa9fedd7e86)" style="fill: #00bfff"/>
   </g>
   <g id="patch_26">
    <path d="M 550.861606 112.006847 
L 554.262683 112.006847 
L 554.262683 65.687204 
L 550.861606 65.687204 
z
" clip-path="url(#pa9fedd7e86)" style="fill: #00bfff"/>
   </g>
   <g id="patch_27">
    <path d="M 554.262683 112.006847 
L 557.66376 112.006847 
L 557.66376 73.646524 
L 554.262683 73.646524 
z
" clip-path="url(#pa9fedd7e86)" style="fill: #00bfff"/>
   </g>
   <g id="patch_28">
    <path d="M 557.66376 112.006847 
L 561.064837 112.006847 
L 561.064837 48.591626 
L 557.66376 48.591626 
z
" clip-path="url(#pa9fedd7e86)" style="fill: #00bfff"/>
   </g>
   <g id="patch_29">
    <path d="M 561.064837 112.006847 
L 564.465915 112.006847 
L 564.465915 42.966243 
L 561.064837 42.966243 
z
" clip-path="url(#pa9fedd7e86)" style="fill: #00bfff"/>
   </g>
   <g id="patch_30">
    <path d="M 564.465915 112.006847 
L 567.866992 112.006847 
L 567.866992 40.951478 
L 564.465915 40.951478 
z
" clip-path="url(#pa9fedd7e86)" style="fill: #00bfff"/>
   </g>
   <g id="patch_31">
    <path d="M 567.866992 112.006847 
L 571.268069 112.006847 
L 571.268069 69.317772 
L 567.866992 69.317772 
z
" clip-path="url(#pa9fedd7e86)" style="fill: #00bfff"/>
   </g>
   <g id="patch_32">
    <path d="M 571.268061 112.006847 
L 574.669146 112.006847 
L 574.669146 53.618566 
L 571.268061 53.618566 
z
" clip-path="url(#pa9fedd7e86)" style="fill: #00bfff"/>
   </g>
   <g id="patch_33">
    <path d="M 574.669146 112.006847 
L 578.070223 112.006847 
L 578.070223 56.032291 
L 574.669146 56.032291 
z
" clip-path="url(#pa9fedd7e86)" style="fill: #00bfff"/>
   </g>
   <g id="patch_34">
    <path d="M 578.070223 112.006847 
L 581.471301 112.006847 
L 581.471301 66.465183 
L 578.070223 66.465183 
z
" clip-path="url(#pa9fedd7e86)" style="fill: #00bfff"/>
   </g>
   <g id="patch_35">
    <path d="M 581.471301 112.006847 
L 584.872378 112.006847 
L 584.872378 49.489294 
L 581.471301 49.489294 
z
" clip-path="url(#pa9fedd7e86)" style="fill: #00bfff"/>
   </g>
   <g id="patch_36">
    <path d="M 584.872378 112.006847 
L 588.273455 112.006847 
L 588.273455 57.50846 
L 584.872378 57.50846 
z
" clip-path="url(#pa9fedd7e86)" style="fill: #00bfff"/>
   </g>
   <g id="patch_37">
    <path d="M 588.273455 112.006847 
L 591.674532 112.006847 
L 591.674532 45.51961 
L 588.273455 45.51961 
z
" clip-path="url(#pa9fedd7e86)" style="fill: #00bfff"/>
   </g>
   <g id="patch_38">
    <path d="M 591.674532 112.006847 
L 595.07561 112.006847 
L 595.07561 47.374787 
L 591.674532 47.374787 
z
" clip-path="url(#pa9fedd7e86)" style="fill: #00bfff"/>
   </g>
   <g id="patch_39">
    <path d="M 595.07561 112.006847 
L 598.476687 112.006847 
L 598.476687 40.791895 
L 595.07561 40.791895 
z
" clip-path="url(#pa9fedd7e86)" style="fill: #00bfff"/>
   </g>
   <g id="patch_40">
    <path d="M 598.476687 112.006847 
L 601.877764 112.006847 
L 601.877764 47.454581 
L 598.476687 47.454581 
z
" clip-path="url(#pa9fedd7e86)" style="fill: #00bfff"/>
   </g>
   <g id="patch_41">
    <path d="M 601.877764 112.006847 
L 605.278841 112.006847 
L 605.278841 48.352249 
L 601.877764 48.352249 
z
" clip-path="url(#pa9fedd7e86)" style="fill: #00bfff"/>
   </g>
   <g id="patch_42">
    <path d="M 605.278841 112.006847 
L 608.679918 112.006847 
L 608.679918 41.92894 
L 605.278841 41.92894 
z
" clip-path="url(#pa9fedd7e86)" style="fill: #00bfff"/>
   </g>
   <g id="patch_43">
    <path d="M 608.679918 112.006847 
L 612.080996 112.006847 
L 612.080996 46.437225 
L 608.679918 46.437225 
z
" clip-path="url(#pa9fedd7e86)" style="fill: #00bfff"/>
   </g>
   <g id="patch_44">
    <path d="M 612.080996 112.006847 
L 615.482073 112.006847 
L 615.482073 55.812861 
L 612.080996 55.812861 
z
" clip-path="url(#pa9fedd7e86)" style="fill: #00bfff"/>
   </g>
   <g id="patch_45">
    <path d="M 615.482073 112.006847 
L 618.88315 112.006847 
L 618.88315 79.770611 
L 615.482073 79.770611 
z
" clip-path="url(#pa9fedd7e86)" style="fill: #00bfff"/>
   </g>
   <g id="patch_46">
    <path d="M 618.88315 112.006847 
L 622.284227 112.006847 
L 622.284227 76.459215 
L 618.88315 76.459215 
z
" clip-path="url(#pa9fedd7e86)" style="fill: #00bfff"/>
   </g>
   <g id="patch_47">
    <path d="M 622.284227 112.006847 
L 625.685304 112.006847 
L 625.685304 87.729928 
L 622.284227 87.729928 
z
" clip-path="url(#pa9fedd7e86)" style="fill: #00bfff"/>
   </g>
   <g id="patch_48">
    <path d="M 625.685304 112.006847 
L 629.086382 112.006847 
L 629.086382 95.070854 
L 625.685304 95.070854 
z
" clip-path="url(#pa9fedd7e86)" style="fill: #00bfff"/>
   </g>
   <g id="patch_49">
    <path d="M 629.086365 112.006847 
L 632.487442 112.006847 
L 632.487442 103.808151 
L 629.086365 103.808151 
z
" clip-path="url(#pa9fedd7e86)" style="fill: #00bfff"/>
   </g>
   <g id="patch_50">
    <path d="M 632.487442 112.006847 
L 635.888519 112.006847 
L 635.888519 100.317222 
L 632.487442 100.317222 
z
" clip-path="url(#pa9fedd7e86)" style="fill: #00bfff"/>
   </g>
   <g id="patch_51">
    <path d="M 635.888519 112.006847 
L 639.289596 112.006847 
L 639.289596 102.391831 
L 635.888519 102.391831 
z
" clip-path="url(#pa9fedd7e86)" style="fill: #00bfff"/>
   </g>
   <g id="patch_52">
    <path d="M 639.289596 112.006847 
L 642.690673 112.006847 
L 642.690673 104.3667 
L 639.289596 104.3667 
z
" clip-path="url(#pa9fedd7e86)" style="fill: #00bfff"/>
   </g>
   <g id="patch_53">
    <path d="M 642.690673 112.006847 
L 646.091751 112.006847 
L 646.091751 104.765663 
L 642.690673 104.765663 
z
" clip-path="url(#pa9fedd7e86)" style="fill: #00bfff"/>
   </g>
   <g id="patch_54">
    <path d="M 646.091751 112.006847 
L 649.492828 112.006847 
L 649.492828 105.244419 
L 646.091751 105.244419 
z
" clip-path="url(#pa9fedd7e86)" style="fill: #00bfff"/>
   </g>
   <g id="patch_55">
    <path d="M 649.492828 112.006847 
L 652.893905 112.006847 
L 652.893905 104.047529 
L 649.492828 104.047529 
z
" clip-path="url(#pa9fedd7e86)" style="fill: #00bfff"/>
   </g>
   <g id="patch_56">
    <path d="M 652.893905 112.006847 
L 656.294982 112.006847 
L 656.294982 104.985093 
L 652.893905 104.985093 
z
" clip-path="url(#pa9fedd7e86)" style="fill: #00bfff"/>
   </g>
   <g id="patch_57">
    <path d="M 656.294982 112.006847 
L 659.69606 112.006847 
L 659.69606 105.304263 
L 656.294982 105.304263 
z
" clip-path="url(#pa9fedd7e86)" style="fill: #00bfff"/>
   </g>
   <g id="patch_58">
    <path d="M 659.69606 112.006847 
L 663.097137 112.006847 
L 663.097137 105.623434 
L 659.69606 105.623434 
z
" clip-path="url(#pa9fedd7e86)" style="fill: #00bfff"/>
   </g>
   <g id="patch_59">
    <path d="M 663.097137 112.006847 
L 666.498214 112.006847 
L 666.498214 104.326803 
L 663.097137 104.326803 
z
" clip-path="url(#pa9fedd7e86)" style="fill: #00bfff"/>
   </g>
   <g id="patch_60">
    <path d="M 666.498214 112.006847 
L 669.899291 112.006847 
L 669.899291 104.167217 
L 666.498214 104.167217 
z
" clip-path="url(#pa9fedd7e86)" style="fill: #00bfff"/>
   </g>
   <g id="patch_61">
    <path d="M 669.899291 112.006847 
L 673.300368 112.006847 
L 673.300368 104.626025 
L 669.899291 104.626025 
z
" clip-path="url(#pa9fedd7e86)" style="fill: #00bfff"/>
   </g>
   <g id="patch_62">
    <path d="M 673.300368 112.006847 
L 676.701446 112.006847 
L 676.701446 104.147269 
L 673.300368 104.147269 
z
" clip-path="url(#pa9fedd7e86)" style="fill: #00bfff"/>
   </g>
   <g id="patch_63">
    <path d="M 676.701446 112.006847 
L 680.102523 112.006847 
L 680.102523 106.002449 
L 676.701446 106.002449 
z
" clip-path="url(#pa9fedd7e86)" style="fill: #00bfff"/>
   </g>
   <g id="patch_64">
    <path d="M 680.102523 112.006847 
L 683.5036 112.006847 
L 683.5036 105.88276 
L 680.102523 105.88276 
z
" clip-path="url(#pa9fedd7e86)" style="fill: #00bfff"/>
   </g>
   <g id="patch_65">
    <path d="M 683.503617 112.006847 
L 686.904694 112.006847 
L 686.904694 105.423952 
L 683.503617 105.423952 
z
" clip-path="url(#pa9fedd7e86)" style="fill: #00bfff"/>
   </g>
   <g id="patch_66">
    <path d="M 686.904694 112.006847 
L 690.305772 112.006847 
L 690.305772 105.523693 
L 686.904694 105.523693 
z
" clip-path="url(#pa9fedd7e86)" style="fill: #00bfff"/>
   </g>
   <g id="patch_67">
    <path d="M 690.305772 112.006847 
L 693.706849 112.006847 
L 693.706849 105.802967 
L 690.305772 105.802967 
z
" clip-path="url(#pa9fedd7e86)" style="fill: #00bfff"/>
   </g>
   <g id="patch_68">
    <path d="M 693.706849 112.006847 
L 697.107926 112.006847 
L 697.107926 106.142086 
L 693.706849 106.142086 
z
" clip-path="url(#pa9fedd7e86)" style="fill: #00bfff"/>
   </g>
   <g id="patch_69">
    <path d="M 697.107926 112.006847 
L 700.509003 112.006847 
L 700.509003 106.421361 
L 697.107926 106.421361 
z
" clip-path="url(#pa9fedd7e86)" style="fill: #00bfff"/>
   </g>
   <g id="patch_70">
    <path d="M 700.509003 112.006847 
L 703.91008 112.006847 
L 703.91008 106.64079 
L 700.509003 106.64079 
z
" clip-path="url(#pa9fedd7e86)" style="fill: #00bfff"/>
   </g>
   <g id="patch_71">
    <path d="M 703.91008 112.006847 
L 707.311158 112.006847 
L 707.311158 106.959961 
L 703.91008 106.959961 
z
" clip-path="url(#pa9fedd7e86)" style="fill: #00bfff"/>
   </g>
   <g id="patch_72">
    <path d="M 707.311158 112.006847 
L 710.712235 112.006847 
L 710.712235 108.436125 
L 707.311158 108.436125 
z
" clip-path="url(#pa9fedd7e86)" style="fill: #00bfff"/>
   </g>
   <g id="patch_73">
    <path d="M 710.712235 112.006847 
L 714.113312 112.006847 
L 714.113312 107.438717 
L 710.712235 107.438717 
z
" clip-path="url(#pa9fedd7e86)" style="fill: #00bfff"/>
   </g>
   <g id="patch_74">
    <path d="M 714.113312 112.006847 
L 717.514389 112.006847 
L 717.514389 107.059702 
L 714.113312 107.059702 
z
" clip-path="url(#pa9fedd7e86)" style="fill: #00bfff"/>
   </g>
   <g id="patch_75">
    <path d="M 717.514389 112.006847 
L 720.915449 112.006847 
L 720.915449 107.977317 
L 717.514389 107.977317 
z
" clip-path="url(#pa9fedd7e86)" style="fill: #00bfff"/>
   </g>
   <g id="patch_76">
    <path d="M 720.915449 112.006847 
L 724.31651 112.006847 
L 724.31651 106.940013 
L 720.915449 106.940013 
z
" clip-path="url(#pa9fedd7e86)" style="fill: #00bfff"/>
   </g>
   <g id="patch_77">
    <path d="M 724.316544 112.006847 
L 727.717638 112.006847 
L 727.717638 107.059702 
L 724.316544 107.059702 
z
" clip-path="url(#pa9fedd7e86)" style="fill: #00bfff"/>
   </g>
   <g id="patch_78">
    <path d="M 727.717604 112.006847 
L 731.118698 112.006847 
L 731.118698 106.441308 
L 727.717604 106.441308 
z
" clip-path="url(#pa9fedd7e86)" style="fill: #00bfff"/>
   </g>
   <g id="patch_79">
    <path d="M 731.118698 112.006847 
L 734.519758 112.006847 
L 734.519758 105.404004 
L 731.118698 105.404004 
z
" clip-path="url(#pa9fedd7e86)" style="fill: #00bfff"/>
   </g>
   <g id="patch_80">
    <path d="M 734.519758 112.006847 
L 737.920818 112.006847 
L 737.920818 104.705818 
L 734.519758 104.705818 
z
" clip-path="url(#pa9fedd7e86)" style="fill: #00bfff"/>
   </g>
   <g id="patch_81">
    <path d="M 737.920852 112.006847 
L 741.321947 112.006847 
L 741.321947 105.064885 
L 737.920852 105.064885 
z
" clip-path="url(#pa9fedd7e86)" style="fill: #00bfff"/>
   </g>
   <g id="patch_82">
    <path d="M 741.321913 112.006847 
L 744.723007 112.006847 
L 744.723007 102.232246 
L 741.321913 102.232246 
z
" clip-path="url(#pa9fedd7e86)" style="fill: #00bfff"/>
   </g>
   <g id="patch_83">
    <path d="M 744.723007 112.006847 
L 748.124067 112.006847 
L 748.124067 101.115148 
L 744.723007 101.115148 
z
" clip-path="url(#pa9fedd7e86)" style="fill: #00bfff"/>
   </g>
   <g id="patch_84">
    <path d="M 748.124067 112.006847 
L 751.525127 112.006847 
L 751.525127 101.434319 
L 748.124067 101.434319 
z
" clip-path="url(#pa9fedd7e86)" style="fill: #00bfff"/>
   </g>
   <g id="patch_85">
    <path d="M 751.525161 112.006847 
L 754.926256 112.006847 
L 754.926256 101.573956 
L 751.525161 101.573956 
z
" clip-path="url(#pa9fedd7e86)" style="fill: #00bfff"/>
   </g>
   <g id="patch_86">
    <path d="M 754.926222 112.006847 
L 758.327316 112.006847 
L 758.327316 98.102976 
L 754.926222 98.102976 
z
" clip-path="url(#pa9fedd7e86)" style="fill: #00bfff"/>
   </g>
   <g id="patch_87">
    <path d="M 758.327316 112.006847 
L 761.728376 112.006847 
L 761.728376 97.324997 
L 758.327316 97.324997 
z
" clip-path="url(#pa9fedd7e86)" style="fill: #00bfff"/>
   </g>
   <g id="patch_88">
    <path d="M 761.728376 112.006847 
L 765.129436 112.006847 
L 765.129436 98.681472 
L 761.728376 98.681472 
z
" clip-path="url(#pa9fedd7e86)" style="fill: #00bfff"/>
   </g>
   <g id="patch_89">
    <path d="M 765.129436 112.006847 
L 768.530496 112.006847 
L 768.530496 95.888729 
L 765.129436 95.888729 
z
" clip-path="url(#pa9fedd7e86)" style="fill: #00bfff"/>
   </g>
   <g id="patch_90">
    <path d="M 768.530496 112.006847 
L 771.931556 112.006847 
L 771.931556 99.938207 
L 768.530496 99.938207 
z
" clip-path="url(#pa9fedd7e86)" style="fill: #00bfff"/>
   </g>
   <g id="patch_91">
    <path d="M 771.931591 112.006847 
L 775.332685 112.006847 
L 775.332685 96.985878 
L 771.931591 96.985878 
z
" clip-path="url(#pa9fedd7e86)" style="fill: #00bfff"/>
   </g>
   <g id="patch_92">
    <path d="M 775.332651 112.006847 
L 778.733745 112.006847 
L 778.733745 92.357903 
L 775.332651 92.357903 
z
" clip-path="url(#pa9fedd7e86)" style="fill: #00bfff"/>
   </g>
   <g id="patch_93">
    <path d="M 778.733745 112.006847 
L 782.134805 112.006847 
L 782.134805 94.332773 
L 778.733745 94.332773 
z
" clip-path="url(#pa9fedd7e86)" style="fill: #00bfff"/>
   </g>
   <g id="patch_94">
    <path d="M 782.134805 112.006847 
L 785.535865 112.006847 
L 785.535865 96.945981 
L 782.134805 96.945981 
z
" clip-path="url(#pa9fedd7e86)" style="fill: #00bfff"/>
   </g>
   <g id="patch_95">
    <path d="M 785.535899 112.006847 
L 788.936994 112.006847 
L 788.936994 97.664116 
L 785.535899 97.664116 
z
" clip-path="url(#pa9fedd7e86)" style="fill: #00bfff"/>
   </g>
   <g id="patch_96">
    <path d="M 788.93696 112.006847 
L 792.338054 112.006847 
L 792.338054 97.604271 
L 788.93696 97.604271 
z
" clip-path="url(#pa9fedd7e86)" style="fill: #00bfff"/>
   </g>
   <g id="patch_97">
    <path d="M 792.338054 112.006847 
L 795.739114 112.006847 
L 795.739114 101.53406 
L 792.338054 101.53406 
z
" clip-path="url(#pa9fedd7e86)" style="fill: #00bfff"/>
   </g>
   <g id="patch_98">
    <path d="M 795.739114 112.006847 
L 799.140174 112.006847 
L 799.140174 103.109965 
L 795.739114 103.109965 
z
" clip-path="url(#pa9fedd7e86)" style="fill: #00bfff"/>
   </g>
   <g id="patch_99">
    <path d="M 799.140208 112.006847 
L 802.541303 112.006847 
L 802.541303 103.449083 
L 799.140208 103.449083 
z
" clip-path="url(#pa9fedd7e86)" style="fill: #00bfff"/>
   </g>
   <g id="patch_100">
    <path d="M 802.541268 112.006847 
L 805.942363 112.006847 
L 805.942363 101.673697 
L 802.541268 101.673697 
z
" clip-path="url(#pa9fedd7e86)" style="fill: #00bfff"/>
   </g>
   <g id="patch_101">
    <path d="M 805.942363 112.006847 
L 809.343423 112.006847 
L 809.343423 107.279132 
L 805.942363 107.279132 
z
" clip-path="url(#pa9fedd7e86)" style="fill: #00bfff"/>
   </g>
   <g id="patch_102">
    <path d="M 809.343423 112.006847 
L 812.744483 112.006847 
L 812.744483 104.027581 
L 809.343423 104.027581 
z
" clip-path="url(#pa9fedd7e86)" style="fill: #00bfff"/>
   </g>
   <g id="patch_103">
    <path d="M 812.744517 112.006847 
L 816.145611 112.006847 
L 816.145611 105.324211 
L 812.744517 105.324211 
z
" clip-path="url(#pa9fedd7e86)" style="fill: #00bfff"/>
   </g>
   <g id="patch_104">
    <path d="M 816.145577 112.006847 
L 819.546672 112.006847 
L 819.546672 105.862812 
L 816.145577 105.862812 
z
" clip-path="url(#pa9fedd7e86)" style="fill: #00bfff"/>
   </g>
   <g id="patch_105">
    <path d="M 819.546672 112.006847 
L 822.947732 112.006847 
L 822.947732 110.610475 
L 819.546672 110.610475 
z
" clip-path="url(#pa9fedd7e86)" style="fill: #00bfff"/>
   </g>
   <g id="patch_106">
    <path d="M 822.947766 112.006847 
L 826.34886 112.006847 
L 826.34886 111.567987 
L 822.947766 111.567987 
z
" clip-path="url(#pa9fedd7e86)" style="fill: #00bfff"/>
   </g>
   <g id="patch_107">
    <path d="M 826.348826 112.006847 
L 829.74992 112.006847 
L 829.74992 111.727573 
L 826.348826 111.727573 
z
" clip-path="url(#pa9fedd7e86)" style="fill: #00bfff"/>
   </g>
   <g id="patch_108">
    <path d="M 829.74992 112.006847 
L 833.15098 112.006847 
L 833.15098 111.986899 
L 829.74992 111.986899 
z
" clip-path="url(#pa9fedd7e86)" style="fill: #00bfff"/>
   </g>
   <g id="line2d_11">
    <path d="M 493.04331 112.006847 
L 493.04331 19.427409 
" clip-path="url(#pa9fedd7e86)" style="fill: none; stroke: #ff0000; stroke-width: 1.5; stroke-linecap: square"/>
   </g>
   <g id="line2d_12">
    <path d="M 833.15098 112.006847 
L 833.15098 19.427409 
" clip-path="url(#pa9fedd7e86)" style="fill: none; stroke: #ff0000; stroke-width: 1.5; stroke-linecap: square"/>
   </g>
   <g id="line2d_13">
    <path d="M 10.699984 112.006847 
L 19.173729 112.006847 
L 27.647475 112.006847 
L 36.121187 112.006847 
L 44.594933 112.006847 
L 53.068679 112.006847 
L 61.542391 112.006847 
L 70.016136 112.006847 
L 78.489882 112.006847 
L 86.963628 112.006847 
L 95.437374 112.006847 
L 103.911086 112.006847 
L 112.384832 112.006847 
L 120.858577 112.006847 
L 129.332289 112.006847 
L 137.806035 112.006847 
L 146.279781 112.006847 
L 154.753527 112.006846 
L 163.227255 112.006846 
L 171.700984 112.006845 
L 180.17473 112.006844 
L 188.648476 112.006841 
L 197.122205 112.006836 
L 205.595934 112.006826 
L 214.069679 112.00681 
L 222.543425 112.006781 
L 231.017154 112.006732 
L 239.490883 112.006648 
L 247.964629 112.006507 
L 256.438375 112.006273 
L 264.912103 112.005888 
L 273.385832 112.005265 
L 281.859578 112.00427 
L 290.333315 112.002699 
L 298.807053 112.000251 
L 307.28079 111.996486 
L 315.754527 111.99077 
L 324.228265 111.982201 
L 332.702002 111.969525 
L 341.175739 111.951013 
L 349.649477 111.924332 
L 358.123214 111.886381 
L 366.596951 111.833107 
L 375.070689 111.759314 
L 383.544426 111.658454 
L 392.018163 111.522444 
L 400.491901 111.341504 
L 408.965638 111.104061 
L 417.439375 110.796736 
L 425.913113 110.404462 
L 434.38685 109.910759 
L 442.860587 109.298193 
L 451.334325 108.54906 
L 459.808062 107.646268 
L 468.281799 106.574452 
L 476.755537 105.321261 
L 485.229299 103.878746 
L 493.703037 102.244833 
L 502.176774 100.424651 
L 510.650511 98.431735 
L 519.124249 96.288855 
L 527.597986 94.028417 
L 536.071723 91.69228 
L 544.545461 89.330947 
L 553.019198 87.002097 
L 561.492935 84.768442 
L 569.966673 82.695091 
L 578.44041 80.846437 
L 586.914156 79.28291 
L 595.387885 78.057687 
L 603.861613 77.213708 
L 612.335359 76.781173 
L 620.809105 76.775759 
L 629.282851 77.197656 
L 637.75658 78.031579 
L 646.230309 79.247674 
L 654.704054 80.803293 
L 663.1778 82.64548 
L 671.651529 84.713952 
L 680.125258 86.944366 
L 688.599004 89.271604 
L 697.07275 91.632854 
L 705.546478 93.970277 
L 714.020207 96.233174 
L 722.493953 98.37946 
L 730.967699 100.376477 
L 739.441445 102.201215 
L 747.915157 103.839915 
L 756.388902 105.287252 
L 764.862648 106.54514 
L 773.33636 107.621387 
L 781.810106 108.528262 
L 790.283852 109.281065 
L 798.757598 109.896855 
L 807.231343 110.393338 
L 815.705055 110.787959 
L 824.178801 111.097234 
L 832.652513 111.336266 
L 841.126259 111.51848 
L 849.600004 111.655495 
" clip-path="url(#pa9fedd7e86)" style="fill: none; stroke: #1f77b4; stroke-width: 1.5; stroke-linecap: square"/>
   </g>
   <g id="text_9">
    <g id="patch_109">
     <path d="M 455.097303 36.734506 
L 471.405115 36.734506 
Q 474.405115 36.734506 474.405115 33.734506 
L 474.405115 24.056381 
Q 474.405115 21.056381 471.405115 21.056381 
L 455.097303 21.056381 
Q 452.097303 21.056381 452.097303 24.056381 
L 452.097303 33.734506 
Q 452.097303 36.734506 455.097303 36.734506 
z
" style="fill: #ffffff"/>
    </g>
    <!-- -2σ -->
    <g transform="translate(455.097303 31.654819) scale(0.1 -0.1)">
     <defs>
      <path id="DejaVuSans-2d" d="M 313 2009 
L 1997 2009 
L 1997 1497 
L 313 1497 
L 313 2009 
z
" transform="scale(0.015625)"/>
     </defs>
     <use xlink:href="#DejaVuSans-2d"/>
     <use xlink:href="#DejaVuSans-32" x="36.083984"/>
     <use xlink:href="#DejaVuSans-3c3" x="99.707031"/>
    </g>
   </g>
   <g id="text_10">
    <g id="patch_110">
     <path d="M 534.992451 36.734506 
L 544.937764 36.734506 
Q 547.937764 36.734506 547.937764 33.734506 
L 547.937764 24.056381 
Q 547.937764 21.056381 544.937764 21.056381 
L 534.992451 21.056381 
Q 531.992451 21.056381 531.992451 24.056381 
L 531.992451 33.734506 
Q 531.992451 36.734506 534.992451 36.734506 
z
" style="fill: #ffffff"/>
    </g>
    <!-- -σ -->
    <g transform="translate(534.992451 31.654819) scale(0.1 -0.1)">
     <use xlink:href="#DejaVuSans-2d"/>
     <use xlink:href="#DejaVuSans-3c3" x="36.083984"/>
    </g>
   </g>
   <g id="text_11">
    <g id="patch_111">
     <path d="M 613.000099 36.734506 
L 620.357912 36.734506 
Q 623.357912 36.734506 623.357912 33.734506 
L 623.357912 24.056381 
Q 623.357912 21.056381 620.357912 21.056381 
L 613.000099 21.056381 
Q 610.000099 21.056381 610.000099 24.056381 
L 610.000099 33.734506 
Q 610.000099 36.734506 613.000099 36.734506 
z
" style="fill: #ffffff"/>
    </g>
    <!-- μ -->
    <g transform="translate(613.000099 31.643881) scale(0.1 -0.1)">
     <defs>
      <path id="DejaVuSans-Bold-3bc" d="M 544 -1338 
L 544 3500 
L 1672 3500 
L 1672 1466 
Q 1672 1103 1828 926 
Q 1984 750 2303 750 
Q 2625 750 2781 926 
Q 2938 1103 2938 1466 
L 2938 3500 
L 4063 3500 
L 4063 1159 
Q 4063 938 4114 850 
Q 4166 763 4288 763 
Q 4344 763 4395 778 
Q 4447 794 4506 831 
L 4506 50 
Q 4341 -22 4195 -56 
Q 4050 -91 3909 -91 
Q 3631 -91 3454 26 
Q 3278 144 3169 403 
Q 3022 156 2811 32 
Q 2600 -91 2322 -91 
Q 2091 -91 1928 -17 
Q 1766 56 1672 206 
L 1672 -1338 
L 544 -1338 
z
" transform="scale(0.015625)"/>
     </defs>
     <use xlink:href="#DejaVuSans-Bold-3bc"/>
    </g>
   </g>
   <g id="text_12">
    <g id="patch_112">
     <path d="M 686.03431 36.734506 
L 700.751497 36.734506 
Q 703.751497 36.734506 703.751497 33.734506 
L 703.751497 24.056381 
Q 703.751497 21.056381 700.751497 21.056381 
L 686.03431 21.056381 
Q 683.03431 21.056381 683.03431 24.056381 
L 683.03431 33.734506 
Q 683.03431 36.734506 686.03431 36.734506 
z
" style="fill: #ffffff"/>
    </g>
    <!-- +σ -->
    <g transform="translate(686.03431 31.654819) scale(0.1 -0.1)">
     <defs>
      <path id="DejaVuSans-2b" d="M 2944 4013 
L 2944 2272 
L 4684 2272 
L 4684 1741 
L 2944 1741 
L 2944 0 
L 2419 0 
L 2419 1741 
L 678 1741 
L 678 2272 
L 2419 2272 
L 2419 4013 
L 2944 4013 
z
" transform="scale(0.015625)"/>
     </defs>
     <use xlink:href="#DejaVuSans-2b"/>
     <use xlink:href="#DejaVuSans-3c3" x="83.789062"/>
    </g>
   </g>
   <g id="text_13">
    <g id="patch_113">
     <path d="M 759.566958 36.734506 
L 780.646645 36.734506 
Q 783.646645 36.734506 783.646645 33.734506 
L 783.646645 24.056381 
Q 783.646645 21.056381 780.646645 21.056381 
L 759.566958 21.056381 
Q 756.566958 21.056381 756.566958 24.056381 
L 756.566958 33.734506 
Q 756.566958 36.734506 759.566958 36.734506 
z
" style="fill: #ffffff"/>
    </g>
    <!-- +2σ -->
    <g transform="translate(759.566958 31.654819) scale(0.1 -0.1)">
     <use xlink:href="#DejaVuSans-2b"/>
     <use xlink:href="#DejaVuSans-32" x="83.789062"/>
     <use xlink:href="#DejaVuSans-3c3" x="147.412109"/>
    </g>
   </g>
  </g>
 </g>
 <defs>
  <clipPath id="pa9fedd7e86">
   <rect x="10.7" y="19.427409" width="838.9" height="92.579438"/>
  </clipPath>
 </defs>
</svg>
