<?xml version="1.0" encoding="utf-8" standalone="no"?>
<!DOCTYPE svg PUBLIC "-//W3C//DTD SVG 1.1//EN"
  "http://www.w3.org/Graphics/SVG/1.1/DTD/svg11.dtd">
<svg xmlns:xlink="http://www.w3.org/1999/xlink" width="872.39952pt" height="152.406273pt" viewBox="0 0 872.39952 152.406273" xmlns="http://www.w3.org/2000/svg" version="1.1">
 <metadata>
  <rdf:RDF xmlns:dc="http://purl.org/dc/elements/1.1/" xmlns:cc="http://creativecommons.org/ns#" xmlns:rdf="http://www.w3.org/1999/02/22-rdf-syntax-ns#">
   <cc:Work>
    <dc:type rdf:resource="http://purl.org/dc/dcmitype/StillImage"/>
    <dc:format>image/svg+xml</dc:format>
    <dc:creator>
     <cc:Agent>
      <dc:title>Matplotlib, https://matplotlib.org/</dc:title>
     </cc:Agent>
    </dc:creator>
   </cc:Work>
  </rdf:RDF>
 </metadata>
 <defs>
  <style type="text/css">*{stroke-linejoin: round; stroke-linecap: butt}</style>
 </defs>
 <g id="figure_1">
  <g id="patch_1">
   <path d="M 0 152.406273 
L 872.39952 152.406273 
L 872.39952 0 
L 0 0 
z
" style="fill: #ffffff"/>
  </g>
  <g id="axes_1">
   <g id="patch_2">
    <path d="M 10.7 128.528148 
L 865.19952 128.528148 
L 865.19952 20.214138 
L 10.7 20.214138 
z
" style="fill: #ffffff"/>
   </g>
   <g id="matplotlib.axis_1">
    <g id="xtick_1">
     <g id="line2d_1">
      <defs>
       <path id="m8f1de1206a" d="M 0 0 
L 0 3.5 
" style="stroke: #000000; stroke-width: 0.8"/>
      </defs>
      <g>
       <use xlink:href="#m8f1de1206a" x="47.479163" y="128.528148" style="stroke: #000000; stroke-width: 0.8"/>
      </g>
     </g>
     <g id="text_1">
      <!-- 1 -->
      <g transform="translate(44.297913 143.126585) scale(0.1 -0.1)">
       <defs>
        <path id="DejaVuSans-31" d="M 794 531 
L 1825 531 
L 1825 4091 
L 703 3866 
L 703 4441 
L 1819 4666 
L 2450 4666 
L 2450 531 
L 3481 531 
L 3481 0 
L 794 0 
L 794 531 
z
" transform="scale(0.015625)"/>
       </defs>
       <use xlink:href="#DejaVuSans-31"/>
      </g>
     </g>
    </g>
    <g id="xtick_2">
     <g id="line2d_2">
      <g>
       <use xlink:href="#m8f1de1206a" x="220.101017" y="128.528148" style="stroke: #000000; stroke-width: 0.8"/>
      </g>
     </g>
     <g id="text_2">
      <!-- 2 -->
      <g transform="translate(216.919767 143.126585) scale(0.1 -0.1)">
       <defs>
        <path id="DejaVuSans-32" d="M 1228 531 
L 3431 531 
L 3431 0 
L 469 0 
L 469 531 
Q 828 903 1448 1529 
Q 2069 2156 2228 2338 
Q 2531 2678 2651 2914 
Q 2772 3150 2772 3378 
Q 2772 3750 2511 3984 
Q 2250 4219 1831 4219 
Q 1534 4219 1204 4116 
Q 875 4013 500 3803 
L 500 4441 
Q 881 4594 1212 4672 
Q 1544 4750 1819 4750 
Q 2544 4750 2975 4387 
Q 3406 4025 3406 3419 
Q 3406 3131 3298 2873 
Q 3191 2616 2906 2266 
Q 2828 2175 2409 1742 
Q 1991 1309 1228 531 
z
" transform="scale(0.015625)"/>
       </defs>
       <use xlink:href="#DejaVuSans-32"/>
      </g>
     </g>
    </g>
    <g id="xtick_3">
     <g id="line2d_3">
      <g>
       <use xlink:href="#m8f1de1206a" x="392.722872" y="128.528148" style="stroke: #000000; stroke-width: 0.8"/>
      </g>
     </g>
     <g id="text_3">
      <!-- 3 -->
      <g transform="translate(389.541622 143.126585) scale(0.1 -0.1)">
       <defs>
        <path id="DejaVuSans-33" d="M 2597 2516 
Q 3050 2419 3304 2112 
Q 3559 1806 3559 1356 
Q 3559 666 3084 287 
Q 2609 -91 1734 -91 
Q 1441 -91 1130 -33 
Q 819 25 488 141 
L 488 750 
Q 750 597 1062 519 
Q 1375 441 1716 441 
Q 2309 441 2620 675 
Q 2931 909 2931 1356 
Q 2931 1769 2642 2001 
Q 2353 2234 1838 2234 
L 1294 2234 
L 1294 2753 
L 1863 2753 
Q 2328 2753 2575 2939 
Q 2822 3125 2822 3475 
Q 2822 3834 2567 4026 
Q 2313 4219 1838 4219 
Q 1578 4219 1281 4162 
Q 984 4106 628 3988 
L 628 4550 
Q 988 4650 1302 4700 
Q 1616 4750 1894 4750 
Q 2613 4750 3031 4423 
Q 3450 4097 3450 3541 
Q 3450 3153 3228 2886 
Q 3006 2619 2597 2516 
z
" transform="scale(0.015625)"/>
       </defs>
       <use xlink:href="#DejaVuSans-33"/>
      </g>
     </g>
    </g>
    <g id="xtick_4">
     <g id="line2d_4">
      <g>
       <use xlink:href="#m8f1de1206a" x="565.344727" y="128.528148" style="stroke: #000000; stroke-width: 0.8"/>
      </g>
     </g>
     <g id="text_4">
      <!-- 4 -->
      <g transform="translate(562.163477 143.126585) scale(0.1 -0.1)">
       <defs>
        <path id="DejaVuSans-34" d="M 2419 4116 
L 825 1625 
L 2419 1625 
L 2419 4116 
z
M 2253 4666 
L 3047 4666 
L 3047 1625 
L 3713 1625 
L 3713 1100 
L 3047 1100 
L 3047 0 
L 2419 0 
L 2419 1100 
L 313 1100 
L 313 1709 
L 2253 4666 
z
" transform="scale(0.015625)"/>
       </defs>
       <use xlink:href="#DejaVuSans-34"/>
      </g>
     </g>
    </g>
    <g id="xtick_5">
     <g id="line2d_5">
      <g>
       <use xlink:href="#m8f1de1206a" x="737.966581" y="128.528148" style="stroke: #000000; stroke-width: 0.8"/>
      </g>
     </g>
     <g id="text_5">
      <!-- 5 -->
      <g transform="translate(734.785331 143.126585) scale(0.1 -0.1)">
       <defs>
        <path id="DejaVuSans-35" d="M 691 4666 
L 3169 4666 
L 3169 4134 
L 1269 4134 
L 1269 2991 
Q 1406 3038 1543 3061 
Q 1681 3084 1819 3084 
Q 2600 3084 3056 2656 
Q 3513 2228 3513 1497 
Q 3513 744 3044 326 
Q 2575 -91 1722 -91 
Q 1428 -91 1123 -41 
Q 819 9 494 109 
L 494 744 
Q 775 591 1075 516 
Q 1375 441 1709 441 
Q 2250 441 2565 725 
Q 2881 1009 2881 1497 
Q 2881 1984 2565 2268 
Q 2250 2553 1709 2553 
Q 1456 2553 1204 2497 
Q 953 2441 691 2322 
L 691 4666 
z
" transform="scale(0.015625)"/>
       </defs>
       <use xlink:href="#DejaVuSans-35"/>
      </g>
     </g>
    </g>
   </g>
   <g id="matplotlib.axis_2"/>
   <g id="line2d_6">
    <path d="M 139.263255 128.528148 
L 139.263255 20.214138 
" clip-path="url(#pe38d55bcb6)" style="fill: none; stroke: #000000; stroke-width: 1.5; stroke-linecap: square"/>
   </g>
   <g id="line2d_7">
    <path d="M 325.132403 128.528148 
L 325.132403 20.214138 
" clip-path="url(#pe38d55bcb6)" style="fill: none; stroke: #000000; stroke-width: 1.5; stroke-linecap: square"/>
   </g>
   <g id="line2d_8">
    <path d="M 511.001552 128.528148 
L 511.001552 20.214138 
" clip-path="url(#pe38d55bcb6)" style="fill: none; stroke: #000000; stroke-width: 1.5; stroke-linecap: square"/>
   </g>
   <g id="line2d_9">
    <path d="M 696.8707 128.528148 
L 696.8707 20.214138 
" clip-path="url(#pe38d55bcb6)" style="fill: none; stroke: #000000; stroke-width: 1.5; stroke-linecap: square"/>
   </g>
   <g id="line2d_10">
    <path d="M 27.126364 128.528148 
L 27.126364 20.214138 
" clip-path="url(#pe38d55bcb6)" style="fill: none; stroke: #ff0000; stroke-width: 1.5; stroke-linecap: square"/>
   </g>
   <g id="line2d_11">
    <path d="M 848.444627 128.528148 
L 848.444627 20.214138 
" clip-path="url(#pe38d55bcb6)" style="fill: none; stroke: #ff0000; stroke-width: 1.5; stroke-linecap: square"/>
   </g>
   <g id="patch_3">
    <path d="M 10.7 128.528148 
L 10.7 20.214138 
" style="fill: none; stroke: #000000; stroke-width: 0.8; stroke-linejoin: miter; stroke-linecap: square"/>
   </g>
   <g id="patch_4">
    <path d="M 865.19952 128.528148 
L 865.19952 20.214138 
" style="fill: none; stroke: #000000; stroke-width: 0.8; stroke-linejoin: miter; stroke-linecap: square"/>
   </g>
   <g id="patch_5">
    <path d="M 10.7 128.528148 
L 865.19952 128.528148 
" style="fill: none; stroke: #000000; stroke-width: 0.8; stroke-linejoin: miter; stroke-linecap: square"/>
   </g>
   <g id="patch_6">
    <path d="M 10.7 20.214138 
L 865.19952 20.214138 
" style="fill: none; stroke: #000000; stroke-width: 0.8; stroke-linejoin: miter; stroke-linecap: square"/>
   </g>
   <g id="text_6">
    <g id="patch_7">
     <path d="M 26.126364 102.303174 
L 26.126364 46.439112 
Q 26.126364 46.439112 26.126364 46.439112 
L 16.448239 46.439112 
Q 16.448239 46.439112 16.448239 46.439112 
L 16.448239 102.303174 
Q 16.448239 102.303174 16.448239 102.303174 
L 26.126364 102.303174 
Q 26.126364 102.303174 26.126364 102.303174 
z
" style="fill: #ffffff"/>
    </g>
    <!-- min=0.882 -->
    <g transform="translate(24.046677 102.303174) rotate(-90) scale(0.1 -0.1)">
     <defs>
      <path id="DejaVuSans-6d" d="M 3328 2828 
Q 3544 3216 3844 3400 
Q 4144 3584 4550 3584 
Q 5097 3584 5394 3201 
Q 5691 2819 5691 2113 
L 5691 0 
L 5113 0 
L 5113 2094 
Q 5113 2597 4934 2840 
Q 4756 3084 4391 3084 
Q 3944 3084 3684 2787 
Q 3425 2491 3425 1978 
L 3425 0 
L 2847 0 
L 2847 2094 
Q 2847 2600 2669 2842 
Q 2491 3084 2119 3084 
Q 1678 3084 1418 2786 
Q 1159 2488 1159 1978 
L 1159 0 
L 581 0 
L 581 3500 
L 1159 3500 
L 1159 2956 
Q 1356 3278 1631 3431 
Q 1906 3584 2284 3584 
Q 2666 3584 2933 3390 
Q 3200 3197 3328 2828 
z
" transform="scale(0.015625)"/>
      <path id="DejaVuSans-69" d="M 603 3500 
L 1178 3500 
L 1178 0 
L 603 0 
L 603 3500 
z
M 603 4863 
L 1178 4863 
L 1178 4134 
L 603 4134 
L 603 4863 
z
" transform="scale(0.015625)"/>
      <path id="DejaVuSans-6e" d="M 3513 2113 
L 3513 0 
L 2938 0 
L 2938 2094 
Q 2938 2591 2744 2837 
Q 2550 3084 2163 3084 
Q 1697 3084 1428 2787 
Q 1159 2491 1159 1978 
L 1159 0 
L 581 0 
L 581 3500 
L 1159 3500 
L 1159 2956 
Q 1366 3272 1645 3428 
Q 1925 3584 2291 3584 
Q 2894 3584 3203 3211 
Q 3513 2838 3513 2113 
z
" transform="scale(0.015625)"/>
      <path id="DejaVuSans-3d" d="M 678 2906 
L 4684 2906 
L 4684 2381 
L 678 2381 
L 678 2906 
z
M 678 1631 
L 4684 1631 
L 4684 1100 
L 678 1100 
L 678 1631 
z
" transform="scale(0.015625)"/>
      <path id="DejaVuSans-30" d="M 2034 4250 
Q 1547 4250 1301 3770 
Q 1056 3291 1056 2328 
Q 1056 1369 1301 889 
Q 1547 409 2034 409 
Q 2525 409 2770 889 
Q 3016 1369 3016 2328 
Q 3016 3291 2770 3770 
Q 2525 4250 2034 4250 
z
M 2034 4750 
Q 2819 4750 3233 4129 
Q 3647 3509 3647 2328 
Q 3647 1150 3233 529 
Q 2819 -91 2034 -91 
Q 1250 -91 836 529 
Q 422 1150 422 2328 
Q 422 3509 836 4129 
Q 1250 4750 2034 4750 
z
" transform="scale(0.015625)"/>
      <path id="DejaVuSans-2e" d="M 684 794 
L 1344 794 
L 1344 0 
L 684 0 
L 684 794 
z
" transform="scale(0.015625)"/>
      <path id="DejaVuSans-38" d="M 2034 2216 
Q 1584 2216 1326 1975 
Q 1069 1734 1069 1313 
Q 1069 891 1326 650 
Q 1584 409 2034 409 
Q 2484 409 2743 651 
Q 3003 894 3003 1313 
Q 3003 1734 2745 1975 
Q 2488 2216 2034 2216 
z
M 1403 2484 
Q 997 2584 770 2862 
Q 544 3141 544 3541 
Q 544 4100 942 4425 
Q 1341 4750 2034 4750 
Q 2731 4750 3128 4425 
Q 3525 4100 3525 3541 
Q 3525 3141 3298 2862 
Q 3072 2584 2669 2484 
Q 3125 2378 3379 2068 
Q 3634 1759 3634 1313 
Q 3634 634 3220 271 
Q 2806 -91 2034 -91 
Q 1263 -91 848 271 
Q 434 634 434 1313 
Q 434 1759 690 2068 
Q 947 2378 1403 2484 
z
M 1172 3481 
Q 1172 3119 1398 2916 
Q 1625 2713 2034 2713 
Q 2441 2713 2670 2916 
Q 2900 3119 2900 3481 
Q 2900 3844 2670 4047 
Q 2441 4250 2034 4250 
Q 1625 4250 1398 4047 
Q 1172 3844 1172 3481 
z
" transform="scale(0.015625)"/>
     </defs>
     <use xlink:href="#DejaVuSans-6d"/>
     <use xlink:href="#DejaVuSans-69" x="97.412109"/>
     <use xlink:href="#DejaVuSans-6e" x="125.195312"/>
     <use xlink:href="#DejaVuSans-3d" x="188.574219"/>
     <use xlink:href="#DejaVuSans-30" x="272.363281"/>
     <use xlink:href="#DejaVuSans-2e" x="335.986328"/>
     <use xlink:href="#DejaVuSans-38" x="367.773438"/>
     <use xlink:href="#DejaVuSans-38" x="431.396484"/>
     <use xlink:href="#DejaVuSans-32" x="495.019531"/>
    </g>
   </g>
   <g id="text_7">
    <g id="patch_8">
     <path d="M 860.122752 103.768799 
L 860.122752 44.973487 
Q 860.122752 44.973487 860.122752 44.973487 
L 850.444627 44.973487 
Q 850.444627 44.973487 850.444627 44.973487 
L 850.444627 103.768799 
Q 850.444627 103.768799 850.444627 103.768799 
L 860.122752 103.768799 
Q 860.122752 103.768799 860.122752 103.768799 
z
" style="fill: #ffffff"/>
    </g>
    <!-- max=5.640 -->
    <g transform="translate(858.043065 103.768799) rotate(-90) scale(0.1 -0.1)">
     <defs>
      <path id="DejaVuSans-61" d="M 2194 1759 
Q 1497 1759 1228 1600 
Q 959 1441 959 1056 
Q 959 750 1161 570 
Q 1363 391 1709 391 
Q 2188 391 2477 730 
Q 2766 1069 2766 1631 
L 2766 1759 
L 2194 1759 
z
M 3341 1997 
L 3341 0 
L 2766 0 
L 2766 531 
Q 2569 213 2275 61 
Q 1981 -91 1556 -91 
Q 1019 -91 701 211 
Q 384 513 384 1019 
Q 384 1609 779 1909 
Q 1175 2209 1959 2209 
L 2766 2209 
L 2766 2266 
Q 2766 2663 2505 2880 
Q 2244 3097 1772 3097 
Q 1472 3097 1187 3025 
Q 903 2953 641 2809 
L 641 3341 
Q 956 3463 1253 3523 
Q 1550 3584 1831 3584 
Q 2591 3584 2966 3190 
Q 3341 2797 3341 1997 
z
" transform="scale(0.015625)"/>
      <path id="DejaVuSans-78" d="M 3513 3500 
L 2247 1797 
L 3578 0 
L 2900 0 
L 1881 1375 
L 863 0 
L 184 0 
L 1544 1831 
L 300 3500 
L 978 3500 
L 1906 2253 
L 2834 3500 
L 3513 3500 
z
" transform="scale(0.015625)"/>
      <path id="DejaVuSans-36" d="M 2113 2584 
Q 1688 2584 1439 2293 
Q 1191 2003 1191 1497 
Q 1191 994 1439 701 
Q 1688 409 2113 409 
Q 2538 409 2786 701 
Q 3034 994 3034 1497 
Q 3034 2003 2786 2293 
Q 2538 2584 2113 2584 
z
M 3366 4563 
L 3366 3988 
Q 3128 4100 2886 4159 
Q 2644 4219 2406 4219 
Q 1781 4219 1451 3797 
Q 1122 3375 1075 2522 
Q 1259 2794 1537 2939 
Q 1816 3084 2150 3084 
Q 2853 3084 3261 2657 
Q 3669 2231 3669 1497 
Q 3669 778 3244 343 
Q 2819 -91 2113 -91 
Q 1303 -91 875 529 
Q 447 1150 447 2328 
Q 447 3434 972 4092 
Q 1497 4750 2381 4750 
Q 2619 4750 2861 4703 
Q 3103 4656 3366 4563 
z
" transform="scale(0.015625)"/>
     </defs>
     <use xlink:href="#DejaVuSans-6d"/>
     <use xlink:href="#DejaVuSans-61" x="97.412109"/>
     <use xlink:href="#DejaVuSans-78" x="158.691406"/>
     <use xlink:href="#DejaVuSans-3d" x="217.871094"/>
     <use xlink:href="#DejaVuSans-35" x="301.660156"/>
     <use xlink:href="#DejaVuSans-2e" x="365.283203"/>
     <use xlink:href="#DejaVuSans-36" x="397.070312"/>
     <use xlink:href="#DejaVuSans-34" x="460.693359"/>
     <use xlink:href="#DejaVuSans-30" x="524.316406"/>
    </g>
   </g>
   <g id="text_8">
    <!-- 10000 samples (μ=2.608, σ=1.077) of tensor[3, 196, 196] n=115248 x∈[0.882, 5.640] μ=2.612 σ=1.073 -->
    <g transform="translate(10.7 14.798437) scale(0.1 -0.1)">
     <defs>
      <path id="DejaVuSans-20" transform="scale(0.015625)"/>
      <path id="DejaVuSans-73" d="M 2834 3397 
L 2834 2853 
Q 2591 2978 2328 3040 
Q 2066 3103 1784 3103 
Q 1356 3103 1142 2972 
Q 928 2841 928 2578 
Q 928 2378 1081 2264 
Q 1234 2150 1697 2047 
L 1894 2003 
Q 2506 1872 2764 1633 
Q 3022 1394 3022 966 
Q 3022 478 2636 193 
Q 2250 -91 1575 -91 
Q 1294 -91 989 -36 
Q 684 19 347 128 
L 347 722 
Q 666 556 975 473 
Q 1284 391 1588 391 
Q 1994 391 2212 530 
Q 2431 669 2431 922 
Q 2431 1156 2273 1281 
Q 2116 1406 1581 1522 
L 1381 1569 
Q 847 1681 609 1914 
Q 372 2147 372 2553 
Q 372 3047 722 3315 
Q 1072 3584 1716 3584 
Q 2034 3584 2315 3537 
Q 2597 3491 2834 3397 
z
" transform="scale(0.015625)"/>
      <path id="DejaVuSans-70" d="M 1159 525 
L 1159 -1331 
L 581 -1331 
L 581 3500 
L 1159 3500 
L 1159 2969 
Q 1341 3281 1617 3432 
Q 1894 3584 2278 3584 
Q 2916 3584 3314 3078 
Q 3713 2572 3713 1747 
Q 3713 922 3314 415 
Q 2916 -91 2278 -91 
Q 1894 -91 1617 61 
Q 1341 213 1159 525 
z
M 3116 1747 
Q 3116 2381 2855 2742 
Q 2594 3103 2138 3103 
Q 1681 3103 1420 2742 
Q 1159 2381 1159 1747 
Q 1159 1113 1420 752 
Q 1681 391 2138 391 
Q 2594 391 2855 752 
Q 3116 1113 3116 1747 
z
" transform="scale(0.015625)"/>
      <path id="DejaVuSans-6c" d="M 603 4863 
L 1178 4863 
L 1178 0 
L 603 0 
L 603 4863 
z
" transform="scale(0.015625)"/>
      <path id="DejaVuSans-65" d="M 3597 1894 
L 3597 1613 
L 953 1613 
Q 991 1019 1311 708 
Q 1631 397 2203 397 
Q 2534 397 2845 478 
Q 3156 559 3463 722 
L 3463 178 
Q 3153 47 2828 -22 
Q 2503 -91 2169 -91 
Q 1331 -91 842 396 
Q 353 884 353 1716 
Q 353 2575 817 3079 
Q 1281 3584 2069 3584 
Q 2775 3584 3186 3129 
Q 3597 2675 3597 1894 
z
M 3022 2063 
Q 3016 2534 2758 2815 
Q 2500 3097 2075 3097 
Q 1594 3097 1305 2825 
Q 1016 2553 972 2059 
L 3022 2063 
z
" transform="scale(0.015625)"/>
      <path id="DejaVuSans-28" d="M 1984 4856 
Q 1566 4138 1362 3434 
Q 1159 2731 1159 2009 
Q 1159 1288 1364 580 
Q 1569 -128 1984 -844 
L 1484 -844 
Q 1016 -109 783 600 
Q 550 1309 550 2009 
Q 550 2706 781 3412 
Q 1013 4119 1484 4856 
L 1984 4856 
z
" transform="scale(0.015625)"/>
      <path id="DejaVuSans-3bc" d="M 544 -1331 
L 544 3500 
L 1119 3500 
L 1119 1325 
Q 1119 872 1334 640 
Q 1550 409 1972 409 
Q 2434 409 2667 671 
Q 2900 934 2900 1459 
L 2900 3500 
L 3475 3500 
L 3475 806 
Q 3475 619 3529 530 
Q 3584 441 3700 441 
Q 3728 441 3778 458 
Q 3828 475 3916 513 
L 3916 50 
Q 3788 -22 3673 -56 
Q 3559 -91 3450 -91 
Q 3234 -91 3106 31 
Q 2978 153 2931 403 
Q 2775 156 2548 32 
Q 2322 -91 2016 -91 
Q 1697 -91 1473 31 
Q 1250 153 1119 397 
L 1119 -1331 
L 544 -1331 
z
" transform="scale(0.015625)"/>
      <path id="DejaVuSans-2c" d="M 750 794 
L 1409 794 
L 1409 256 
L 897 -744 
L 494 -744 
L 750 256 
L 750 794 
z
" transform="scale(0.015625)"/>
      <path id="DejaVuSans-3c3" d="M 1959 3044 
Q 1484 3044 1228 2700 
Q 959 2341 959 1747 
Q 959 1119 1226 758 
Q 1494 397 1959 397 
Q 2419 397 2687 759 
Q 2956 1122 2956 1747 
Q 2956 2319 2688 2700 
Q 2441 3044 1959 3044 
z
M 1959 3500 
L 3869 3500 
L 3869 2925 
L 3225 2925 
Q 3566 2438 3566 1747 
Q 3566 888 3138 400 
Q 2709 -91 1959 -91 
Q 1206 -91 781 400 
Q 353 888 353 1747 
Q 353 2613 781 3097 
Q 1134 3500 1959 3500 
z
" transform="scale(0.015625)"/>
      <path id="DejaVuSans-37" d="M 525 4666 
L 3525 4666 
L 3525 4397 
L 1831 0 
L 1172 0 
L 2766 4134 
L 525 4134 
L 525 4666 
z
" transform="scale(0.015625)"/>
      <path id="DejaVuSans-29" d="M 513 4856 
L 1013 4856 
Q 1481 4119 1714 3412 
Q 1947 2706 1947 2009 
Q 1947 1309 1714 600 
Q 1481 -109 1013 -844 
L 513 -844 
Q 928 -128 1133 580 
Q 1338 1288 1338 2009 
Q 1338 2731 1133 3434 
Q 928 4138 513 4856 
z
" transform="scale(0.015625)"/>
      <path id="DejaVuSans-6f" d="M 1959 3097 
Q 1497 3097 1228 2736 
Q 959 2375 959 1747 
Q 959 1119 1226 758 
Q 1494 397 1959 397 
Q 2419 397 2687 759 
Q 2956 1122 2956 1747 
Q 2956 2369 2687 2733 
Q 2419 3097 1959 3097 
z
M 1959 3584 
Q 2709 3584 3137 3096 
Q 3566 2609 3566 1747 
Q 3566 888 3137 398 
Q 2709 -91 1959 -91 
Q 1206 -91 779 398 
Q 353 888 353 1747 
Q 353 2609 779 3096 
Q 1206 3584 1959 3584 
z
" transform="scale(0.015625)"/>
      <path id="DejaVuSans-66" d="M 2375 4863 
L 2375 4384 
L 1825 4384 
Q 1516 4384 1395 4259 
Q 1275 4134 1275 3809 
L 1275 3500 
L 2222 3500 
L 2222 3053 
L 1275 3053 
L 1275 0 
L 697 0 
L 697 3053 
L 147 3053 
L 147 3500 
L 697 3500 
L 697 3744 
Q 697 4328 969 4595 
Q 1241 4863 1831 4863 
L 2375 4863 
z
" transform="scale(0.015625)"/>
      <path id="DejaVuSans-74" d="M 1172 4494 
L 1172 3500 
L 2356 3500 
L 2356 3053 
L 1172 3053 
L 1172 1153 
Q 1172 725 1289 603 
Q 1406 481 1766 481 
L 2356 481 
L 2356 0 
L 1766 0 
Q 1100 0 847 248 
Q 594 497 594 1153 
L 594 3053 
L 172 3053 
L 172 3500 
L 594 3500 
L 594 4494 
L 1172 4494 
z
" transform="scale(0.015625)"/>
      <path id="DejaVuSans-72" d="M 2631 2963 
Q 2534 3019 2420 3045 
Q 2306 3072 2169 3072 
Q 1681 3072 1420 2755 
Q 1159 2438 1159 1844 
L 1159 0 
L 581 0 
L 581 3500 
L 1159 3500 
L 1159 2956 
Q 1341 3275 1631 3429 
Q 1922 3584 2338 3584 
Q 2397 3584 2469 3576 
Q 2541 3569 2628 3553 
L 2631 2963 
z
" transform="scale(0.015625)"/>
      <path id="DejaVuSans-5b" d="M 550 4863 
L 1875 4863 
L 1875 4416 
L 1125 4416 
L 1125 -397 
L 1875 -397 
L 1875 -844 
L 550 -844 
L 550 4863 
z
" transform="scale(0.015625)"/>
      <path id="DejaVuSans-39" d="M 703 97 
L 703 672 
Q 941 559 1184 500 
Q 1428 441 1663 441 
Q 2288 441 2617 861 
Q 2947 1281 2994 2138 
Q 2813 1869 2534 1725 
Q 2256 1581 1919 1581 
Q 1219 1581 811 2004 
Q 403 2428 403 3163 
Q 403 3881 828 4315 
Q 1253 4750 1959 4750 
Q 2769 4750 3195 4129 
Q 3622 3509 3622 2328 
Q 3622 1225 3098 567 
Q 2575 -91 1691 -91 
Q 1453 -91 1209 -44 
Q 966 3 703 97 
z
M 1959 2075 
Q 2384 2075 2632 2365 
Q 2881 2656 2881 3163 
Q 2881 3666 2632 3958 
Q 2384 4250 1959 4250 
Q 1534 4250 1286 3958 
Q 1038 3666 1038 3163 
Q 1038 2656 1286 2365 
Q 1534 2075 1959 2075 
z
" transform="scale(0.015625)"/>
      <path id="DejaVuSans-5d" d="M 1947 4863 
L 1947 -844 
L 622 -844 
L 622 -397 
L 1369 -397 
L 1369 4416 
L 622 4416 
L 622 4863 
L 1947 4863 
z
" transform="scale(0.015625)"/>
      <path id="DejaVuSans-2208" d="M 1072 1959 
Q 1094 1728 1291 1353 
Q 1522 919 1959 675 
Q 2388 438 2850 434 
L 5028 434 
L 5028 -63 
L 2850 -63 
Q 2250 -63 1695 246 
Q 1141 556 844 1106 
Q 547 1656 547 2241 
Q 547 2819 844 3369 
Q 1141 3919 1695 4231 
Q 2250 4544 2850 4544 
L 5028 4544 
L 5028 4047 
L 2850 4047 
Q 2388 4044 1959 3803 
Q 1525 3556 1291 3125 
Q 1091 2750 1063 2459 
L 5028 2459 
L 5028 1959 
L 1072 1959 
z
" transform="scale(0.015625)"/>
     </defs>
     <use xlink:href="#DejaVuSans-31"/>
     <use xlink:href="#DejaVuSans-30" x="63.623047"/>
     <use xlink:href="#DejaVuSans-30" x="127.246094"/>
     <use xlink:href="#DejaVuSans-30" x="190.869141"/>
     <use xlink:href="#DejaVuSans-30" x="254.492188"/>
     <use xlink:href="#DejaVuSans-20" x="318.115234"/>
     <use xlink:href="#DejaVuSans-73" x="349.902344"/>
     <use xlink:href="#DejaVuSans-61" x="402.001953"/>
     <use xlink:href="#DejaVuSans-6d" x="463.28125"/>
     <use xlink:href="#DejaVuSans-70" x="560.693359"/>
     <use xlink:href="#DejaVuSans-6c" x="624.169922"/>
     <use xlink:href="#DejaVuSans-65" x="651.953125"/>
     <use xlink:href="#DejaVuSans-73" x="713.476562"/>
     <use xlink:href="#DejaVuSans-20" x="765.576172"/>
     <use xlink:href="#DejaVuSans-28" x="797.363281"/>
     <use xlink:href="#DejaVuSans-3bc" x="836.376953"/>
     <use xlink:href="#DejaVuSans-3d" x="900"/>
     <use xlink:href="#DejaVuSans-32" x="983.789062"/>
     <use xlink:href="#DejaVuSans-2e" x="1047.412109"/>
     <use xlink:href="#DejaVuSans-36" x="1079.199219"/>
     <use xlink:href="#DejaVuSans-30" x="1142.822266"/>
     <use xlink:href="#DejaVuSans-38" x="1206.445312"/>
     <use xlink:href="#DejaVuSans-2c" x="1270.068359"/>
     <use xlink:href="#DejaVuSans-20" x="1301.855469"/>
     <use xlink:href="#DejaVuSans-3c3" x="1333.642578"/>
     <use xlink:href="#DejaVuSans-3d" x="1397.021484"/>
     <use xlink:href="#DejaVuSans-31" x="1480.810547"/>
     <use xlink:href="#DejaVuSans-2e" x="1544.433594"/>
     <use xlink:href="#DejaVuSans-30" x="1576.220703"/>
     <use xlink:href="#DejaVuSans-37" x="1639.84375"/>
     <use xlink:href="#DejaVuSans-37" x="1703.466797"/>
     <use xlink:href="#DejaVuSans-29" x="1767.089844"/>
     <use xlink:href="#DejaVuSans-20" x="1806.103516"/>
     <use xlink:href="#DejaVuSans-6f" x="1837.890625"/>
     <use xlink:href="#DejaVuSans-66" x="1899.072266"/>
     <use xlink:href="#DejaVuSans-20" x="1934.277344"/>
     <use xlink:href="#DejaVuSans-74" x="1966.064453"/>
     <use xlink:href="#DejaVuSans-65" x="2005.273438"/>
     <use xlink:href="#DejaVuSans-6e" x="2066.796875"/>
     <use xlink:href="#DejaVuSans-73" x="2130.175781"/>
     <use xlink:href="#DejaVuSans-6f" x="2182.275391"/>
     <use xlink:href="#DejaVuSans-72" x="2243.457031"/>
     <use xlink:href="#DejaVuSans-5b" x="2284.570312"/>
     <use xlink:href="#DejaVuSans-33" x="2323.583984"/>
     <use xlink:href="#DejaVuSans-2c" x="2387.207031"/>
     <use xlink:href="#DejaVuSans-20" x="2418.994141"/>
     <use xlink:href="#DejaVuSans-31" x="2450.78125"/>
     <use xlink:href="#DejaVuSans-39" x="2514.404297"/>
     <use xlink:href="#DejaVuSans-36" x="2578.027344"/>
     <use xlink:href="#DejaVuSans-2c" x="2641.650391"/>
     <use xlink:href="#DejaVuSans-20" x="2673.4375"/>
     <use xlink:href="#DejaVuSans-31" x="2705.224609"/>
     <use xlink:href="#DejaVuSans-39" x="2768.847656"/>
     <use xlink:href="#DejaVuSans-36" x="2832.470703"/>
     <use xlink:href="#DejaVuSans-5d" x="2896.09375"/>
     <use xlink:href="#DejaVuSans-20" x="2935.107422"/>
     <use xlink:href="#DejaVuSans-6e" x="2966.894531"/>
     <use xlink:href="#DejaVuSans-3d" x="3030.273438"/>
     <use xlink:href="#DejaVuSans-31" x="3114.0625"/>
     <use xlink:href="#DejaVuSans-31" x="3177.685547"/>
     <use xlink:href="#DejaVuSans-35" x="3241.308594"/>
     <use xlink:href="#DejaVuSans-32" x="3304.931641"/>
     <use xlink:href="#DejaVuSans-34" x="3368.554688"/>
     <use xlink:href="#DejaVuSans-38" x="3432.177734"/>
     <use xlink:href="#DejaVuSans-20" x="3495.800781"/>
     <use xlink:href="#DejaVuSans-78" x="3527.587891"/>
     <use xlink:href="#DejaVuSans-2208" x="3586.767578"/>
     <use xlink:href="#DejaVuSans-5b" x="3673.876953"/>
     <use xlink:href="#DejaVuSans-30" x="3712.890625"/>
     <use xlink:href="#DejaVuSans-2e" x="3776.513672"/>
     <use xlink:href="#DejaVuSans-38" x="3808.300781"/>
     <use xlink:href="#DejaVuSans-38" x="3871.923828"/>
     <use xlink:href="#DejaVuSans-32" x="3935.546875"/>
     <use xlink:href="#DejaVuSans-2c" x="3999.169922"/>
     <use xlink:href="#DejaVuSans-20" x="4030.957031"/>
     <use xlink:href="#DejaVuSans-35" x="4062.744141"/>
     <use xlink:href="#DejaVuSans-2e" x="4126.367188"/>
     <use xlink:href="#DejaVuSans-36" x="4158.154297"/>
     <use xlink:href="#DejaVuSans-34" x="4221.777344"/>
     <use xlink:href="#DejaVuSans-30" x="4285.400391"/>
     <use xlink:href="#DejaVuSans-5d" x="4349.023438"/>
     <use xlink:href="#DejaVuSans-20" x="4388.037109"/>
     <use xlink:href="#DejaVuSans-3bc" x="4419.824219"/>
     <use xlink:href="#DejaVuSans-3d" x="4483.447266"/>
     <use xlink:href="#DejaVuSans-32" x="4567.236328"/>
     <use xlink:href="#DejaVuSans-2e" x="4630.859375"/>
     <use xlink:href="#DejaVuSans-36" x="4662.646484"/>
     <use xlink:href="#DejaVuSans-31" x="4726.269531"/>
     <use xlink:href="#DejaVuSans-32" x="4789.892578"/>
     <use xlink:href="#DejaVuSans-20" x="4853.515625"/>
     <use xlink:href="#DejaVuSans-3c3" x="4885.302734"/>
     <use xlink:href="#DejaVuSans-3d" x="4948.681641"/>
     <use xlink:href="#DejaVuSans-31" x="5032.470703"/>
     <use xlink:href="#DejaVuSans-2e" x="5096.09375"/>
     <use xlink:href="#DejaVuSans-30" x="5127.880859"/>
     <use xlink:href="#DejaVuSans-37" x="5191.503906"/>
     <use xlink:href="#DejaVuSans-33" x="5255.126953"/>
    </g>
   </g>
   <g id="patch_9">
    <path d="M 35.994674 128.528148 
L 44.51511 128.528148 
L 44.51511 128.334609 
L 35.994674 128.334609 
z
" clip-path="url(#pe38d55bcb6)" style="fill: #00bfff"/>
   </g>
   <g id="patch_10">
    <path d="M 44.51511 128.528148 
L 53.035545 128.528148 
L 53.035545 126.979841 
L 44.51511 126.979841 
z
" clip-path="url(#pe38d55bcb6)" style="fill: #00bfff"/>
   </g>
   <g id="patch_11">
    <path d="M 53.035545 128.528148 
L 61.555981 128.528148 
L 61.555981 123.689688 
L 53.035545 123.689688 
z
" clip-path="url(#pe38d55bcb6)" style="fill: #00bfff"/>
   </g>
   <g id="patch_12">
    <path d="M 61.555981 128.528148 
L 70.076417 128.528148 
L 70.076417 124.65738 
L 61.555981 124.65738 
z
" clip-path="url(#pe38d55bcb6)" style="fill: #00bfff"/>
   </g>
   <g id="patch_13">
    <path d="M 70.076417 128.528148 
L 78.596853 128.528148 
L 78.596853 118.270614 
L 70.076417 118.270614 
z
" clip-path="url(#pe38d55bcb6)" style="fill: #00bfff"/>
   </g>
   <g id="patch_14">
    <path d="M 78.596853 128.528148 
L 87.117289 128.528148 
L 87.117289 117.689999 
L 78.596853 117.689999 
z
" clip-path="url(#pe38d55bcb6)" style="fill: #00bfff"/>
   </g>
   <g id="patch_15">
    <path d="M 87.117289 128.528148 
L 95.637704 128.528148 
L 95.637704 114.399813 
L 87.117289 114.399813 
z
" clip-path="url(#pe38d55bcb6)" style="fill: #00bfff"/>
   </g>
   <g id="patch_16">
    <path d="M 95.637704 128.528148 
L 104.15814 128.528148 
L 104.15814 108.013081 
L 95.637704 108.013081 
z
" clip-path="url(#pe38d55bcb6)" style="fill: #00bfff"/>
   </g>
   <g id="patch_17">
    <path d="M 104.15814 128.528148 
L 112.678576 128.528148 
L 112.678576 105.884158 
L 104.15814 105.884158 
z
" clip-path="url(#pe38d55bcb6)" style="fill: #00bfff"/>
   </g>
   <g id="patch_18">
    <path d="M 112.678576 128.528148 
L 121.199012 128.528148 
L 121.199012 108.206619 
L 112.678576 108.206619 
z
" clip-path="url(#pe38d55bcb6)" style="fill: #00bfff"/>
   </g>
   <g id="patch_19">
    <path d="M 121.199012 128.528148 
L 129.719448 128.528148 
L 129.719448 103.561698 
L 121.199012 103.561698 
z
" clip-path="url(#pe38d55bcb6)" style="fill: #00bfff"/>
   </g>
   <g id="patch_20">
    <path d="M 129.719448 128.528148 
L 138.239884 128.528148 
L 138.239884 107.238927 
L 129.719448 107.238927 
z
" clip-path="url(#pe38d55bcb6)" style="fill: #00bfff"/>
   </g>
   <g id="patch_21">
    <path d="M 138.239884 128.528148 
L 146.76032 128.528148 
L 146.76032 99.497392 
L 138.239884 99.497392 
z
" clip-path="url(#pe38d55bcb6)" style="fill: #00bfff"/>
   </g>
   <g id="patch_22">
    <path d="M 146.76032 128.528148 
L 155.280756 128.528148 
L 155.280756 99.497392 
L 146.76032 99.497392 
z
" clip-path="url(#pe38d55bcb6)" style="fill: #00bfff"/>
   </g>
   <g id="patch_23">
    <path d="M 155.280756 128.528148 
L 163.801192 128.528148 
L 163.801192 94.465395 
L 155.280756 94.465395 
z
" clip-path="url(#pe38d55bcb6)" style="fill: #00bfff"/>
   </g>
   <g id="patch_24">
    <path d="M 163.801192 128.528148 
L 172.321627 128.528148 
L 172.321627 86.143245 
L 163.801192 86.143245 
z
" clip-path="url(#pe38d55bcb6)" style="fill: #00bfff"/>
   </g>
   <g id="patch_25">
    <path d="M 172.321627 128.528148 
L 180.842063 128.528148 
L 180.842063 78.014633 
L 172.321627 78.014633 
z
" clip-path="url(#pe38d55bcb6)" style="fill: #00bfff"/>
   </g>
   <g id="patch_26">
    <path d="M 180.842063 128.528148 
L 189.362499 128.528148 
L 189.362499 85.949706 
L 180.842063 85.949706 
z
" clip-path="url(#pe38d55bcb6)" style="fill: #00bfff"/>
   </g>
   <g id="patch_27">
    <path d="M 189.362499 128.528148 
L 197.882935 128.528148 
L 197.882935 59.241412 
L 189.362499 59.241412 
z
" clip-path="url(#pe38d55bcb6)" style="fill: #00bfff"/>
   </g>
   <g id="patch_28">
    <path d="M 197.882935 128.528148 
L 206.403371 128.528148 
L 206.403371 54.596491 
L 197.882935 54.596491 
z
" clip-path="url(#pe38d55bcb6)" style="fill: #00bfff"/>
   </g>
   <g id="patch_29">
    <path d="M 206.403371 128.528148 
L 214.923786 128.528148 
L 214.923786 60.0154 
L 206.403371 60.0154 
z
" clip-path="url(#pe38d55bcb6)" style="fill: #00bfff"/>
   </g>
   <g id="patch_30">
    <path d="M 214.923786 128.528148 
L 223.444222 128.528148 
L 223.444222 73.950328 
L 214.923786 73.950328 
z
" clip-path="url(#pe38d55bcb6)" style="fill: #00bfff"/>
   </g>
   <g id="patch_31">
    <path d="M 223.444222 128.528148 
L 231.964679 128.528148 
L 231.964679 80.143672 
L 223.444222 80.143672 
z
" clip-path="url(#pe38d55bcb6)" style="fill: #00bfff"/>
   </g>
   <g id="patch_32">
    <path d="M 231.964679 128.528148 
L 240.485094 128.528148 
L 240.485094 87.691453 
L 231.964679 87.691453 
z
" clip-path="url(#pe38d55bcb6)" style="fill: #00bfff"/>
   </g>
   <g id="patch_33">
    <path d="M 240.485094 128.528148 
L 249.005551 128.528148 
L 249.005551 69.692626 
L 240.485094 69.692626 
z
" clip-path="url(#pe38d55bcb6)" style="fill: #00bfff"/>
   </g>
   <g id="patch_34">
    <path d="M 249.005551 128.528148 
L 257.525966 128.528148 
L 257.525966 73.369579 
L 249.005551 73.369579 
z
" clip-path="url(#pe38d55bcb6)" style="fill: #00bfff"/>
   </g>
   <g id="patch_35">
    <path d="M 257.525966 128.528148 
L 266.046422 128.528148 
L 266.046422 64.854178 
L 257.525966 64.854178 
z
" clip-path="url(#pe38d55bcb6)" style="fill: #00bfff"/>
   </g>
   <g id="patch_36">
    <path d="M 266.046422 128.528148 
L 274.566838 128.528148 
L 274.566838 49.177225 
L 266.046422 49.177225 
z
" clip-path="url(#pe38d55bcb6)" style="fill: #00bfff"/>
   </g>
   <g id="patch_37">
    <path d="M 274.566838 128.528148 
L 283.087253 128.528148 
L 283.087253 61.176633 
L 274.566838 61.176633 
z
" clip-path="url(#pe38d55bcb6)" style="fill: #00bfff"/>
   </g>
   <g id="patch_38">
    <path d="M 283.087253 128.528148 
L 291.60771 128.528148 
L 291.60771 66.596019 
L 283.087253 66.596019 
z
" clip-path="url(#pe38d55bcb6)" style="fill: #00bfff"/>
   </g>
   <g id="patch_39">
    <path d="M 291.60771 128.528148 
L 300.128125 128.528148 
L 300.128125 61.56371 
L 291.60771 61.56371 
z
" clip-path="url(#pe38d55bcb6)" style="fill: #00bfff"/>
   </g>
   <g id="patch_40">
    <path d="M 300.128125 128.528148 
L 308.648581 128.528148 
L 308.648581 61.95111 
L 300.128125 61.95111 
z
" clip-path="url(#pe38d55bcb6)" style="fill: #00bfff"/>
   </g>
   <g id="patch_41">
    <path d="M 308.648581 128.528148 
L 317.168997 128.528148 
L 317.168997 71.240652 
L 308.648581 71.240652 
z
" clip-path="url(#pe38d55bcb6)" style="fill: #00bfff"/>
   </g>
   <g id="patch_42">
    <path d="M 317.168997 128.528148 
L 325.689453 128.528148 
L 325.689453 79.369521 
L 317.168997 79.369521 
z
" clip-path="url(#pe38d55bcb6)" style="fill: #00bfff"/>
   </g>
   <g id="patch_43">
    <path d="M 325.689453 128.528148 
L 334.209869 128.528148 
L 334.209869 99.110245 
L 325.689453 99.110245 
z
" clip-path="url(#pe38d55bcb6)" style="fill: #00bfff"/>
   </g>
   <g id="patch_44">
    <path d="M 334.209869 128.528148 
L 342.730325 128.528148 
L 342.730325 97.175008 
L 334.209869 97.175008 
z
" clip-path="url(#pe38d55bcb6)" style="fill: #00bfff"/>
   </g>
   <g id="patch_45">
    <path d="M 342.730325 128.528148 
L 351.25074 128.528148 
L 351.25074 105.109948 
L 342.730325 105.109948 
z
" clip-path="url(#pe38d55bcb6)" style="fill: #00bfff"/>
   </g>
   <g id="patch_46">
    <path d="M 351.25074 128.528148 
L 359.771197 128.528148 
L 359.771197 112.851578 
L 351.25074 112.851578 
z
" clip-path="url(#pe38d55bcb6)" style="fill: #00bfff"/>
   </g>
   <g id="patch_47">
    <path d="M 359.771197 128.528148 
L 368.291612 128.528148 
L 368.291612 118.851206 
L 359.771197 118.851206 
z
" clip-path="url(#pe38d55bcb6)" style="fill: #00bfff"/>
   </g>
   <g id="patch_48">
    <path d="M 368.291612 128.528148 
L 376.812069 128.528148 
L 376.812069 121.173707 
L 368.291612 121.173707 
z
" clip-path="url(#pe38d55bcb6)" style="fill: #00bfff"/>
   </g>
   <g id="patch_49">
    <path d="M 376.812069 128.528148 
L 385.332484 128.528148 
L 385.332484 115.561046 
L 376.812069 115.561046 
z
" clip-path="url(#pe38d55bcb6)" style="fill: #00bfff"/>
   </g>
   <g id="patch_50">
    <path d="M 385.332484 128.528148 
L 393.852899 128.528148 
L 393.852899 121.754288 
L 385.332484 121.754288 
z
" clip-path="url(#pe38d55bcb6)" style="fill: #00bfff"/>
   </g>
   <g id="patch_51">
    <path d="M 393.852899 128.528148 
L 402.373356 128.528148 
L 402.373356 123.302624 
L 393.852899 123.302624 
z
" clip-path="url(#pe38d55bcb6)" style="fill: #00bfff"/>
   </g>
   <g id="patch_52">
    <path d="M 402.373356 128.528148 
L 410.893771 128.528148 
L 410.893771 121.947827 
L 402.373356 121.947827 
z
" clip-path="url(#pe38d55bcb6)" style="fill: #00bfff"/>
   </g>
   <g id="patch_53">
    <path d="M 410.893771 128.528148 
L 419.414228 128.528148 
L 419.414228 121.173707 
L 410.893771 121.173707 
z
" clip-path="url(#pe38d55bcb6)" style="fill: #00bfff"/>
   </g>
   <g id="patch_54">
    <path d="M 419.414228 128.528148 
L 427.934643 128.528148 
L 427.934643 122.334905 
L 419.414228 122.334905 
z
" clip-path="url(#pe38d55bcb6)" style="fill: #00bfff"/>
   </g>
   <g id="patch_55">
    <path d="M 427.934643 128.528148 
L 436.455099 128.528148 
L 436.455099 120.980169 
L 427.934643 120.980169 
z
" clip-path="url(#pe38d55bcb6)" style="fill: #00bfff"/>
   </g>
   <g id="patch_56">
    <path d="M 436.455099 128.528148 
L 444.975515 128.528148 
L 444.975515 121.367211 
L 436.455099 121.367211 
z
" clip-path="url(#pe38d55bcb6)" style="fill: #00bfff"/>
   </g>
   <g id="patch_57">
    <path d="M 444.975515 128.528148 
L 453.495971 128.528148 
L 453.495971 120.980169 
L 444.975515 120.980169 
z
" clip-path="url(#pe38d55bcb6)" style="fill: #00bfff"/>
   </g>
   <g id="patch_58">
    <path d="M 453.495971 128.528148 
L 462.016386 128.528148 
L 462.016386 120.399516 
L 453.495971 120.399516 
z
" clip-path="url(#pe38d55bcb6)" style="fill: #00bfff"/>
   </g>
   <g id="patch_59">
    <path d="M 462.016386 128.528148 
L 470.536843 128.528148 
L 470.536843 121.367245 
L 462.016386 121.367245 
z
" clip-path="url(#pe38d55bcb6)" style="fill: #00bfff"/>
   </g>
   <g id="patch_60">
    <path d="M 470.536843 128.528148 
L 479.057258 128.528148 
L 479.057258 120.980133 
L 470.536843 120.980133 
z
" clip-path="url(#pe38d55bcb6)" style="fill: #00bfff"/>
   </g>
   <g id="patch_61">
    <path d="M 479.057258 128.528148 
L 487.577715 128.528148 
L 487.577715 120.01248 
L 479.057258 120.01248 
z
" clip-path="url(#pe38d55bcb6)" style="fill: #00bfff"/>
   </g>
   <g id="patch_62">
    <path d="M 487.577715 128.528148 
L 496.09813 128.528148 
L 496.09813 123.883216 
L 487.577715 123.883216 
z
" clip-path="url(#pe38d55bcb6)" style="fill: #00bfff"/>
   </g>
   <g id="patch_63">
    <path d="M 496.09813 128.528148 
L 504.618545 128.528148 
L 504.618545 120.012439 
L 496.09813 120.012439 
z
" clip-path="url(#pe38d55bcb6)" style="fill: #00bfff"/>
   </g>
   <g id="patch_64">
    <path d="M 504.618545 128.528148 
L 513.139002 128.528148 
L 513.139002 122.722011 
L 504.618545 122.722011 
z
" clip-path="url(#pe38d55bcb6)" style="fill: #00bfff"/>
   </g>
   <g id="patch_65">
    <path d="M 513.139002 128.528148 
L 521.659417 128.528148 
L 521.659417 122.141366 
L 513.139002 122.141366 
z
" clip-path="url(#pe38d55bcb6)" style="fill: #00bfff"/>
   </g>
   <g id="patch_66">
    <path d="M 521.659417 128.528148 
L 530.179874 128.528148 
L 530.179874 121.560783 
L 521.659417 121.560783 
z
" clip-path="url(#pe38d55bcb6)" style="fill: #00bfff"/>
   </g>
   <g id="patch_67">
    <path d="M 530.179874 128.528148 
L 538.700289 128.528148 
L 538.700289 122.141366 
L 530.179874 122.141366 
z
" clip-path="url(#pe38d55bcb6)" style="fill: #00bfff"/>
   </g>
   <g id="patch_68">
    <path d="M 538.700289 128.528148 
L 547.220746 128.528148 
L 547.220746 124.463852 
L 538.700289 124.463852 
z
" clip-path="url(#pe38d55bcb6)" style="fill: #00bfff"/>
   </g>
   <g id="patch_69">
    <path d="M 547.220746 128.528148 
L 555.741161 128.528148 
L 555.741161 124.076754 
L 547.220746 124.076754 
z
" clip-path="url(#pe38d55bcb6)" style="fill: #00bfff"/>
   </g>
   <g id="patch_70">
    <path d="M 555.741161 128.528148 
L 564.261617 128.528148 
L 564.261617 125.818617 
L 555.741161 125.818617 
z
" clip-path="url(#pe38d55bcb6)" style="fill: #00bfff"/>
   </g>
   <g id="patch_71">
    <path d="M 564.261617 128.528148 
L 572.782074 128.528148 
L 572.782074 124.270314 
L 564.261617 124.270314 
z
" clip-path="url(#pe38d55bcb6)" style="fill: #00bfff"/>
   </g>
   <g id="patch_72">
    <path d="M 572.782074 128.528148 
L 581.302489 128.528148 
L 581.302489 124.270293 
L 572.782074 124.270293 
z
" clip-path="url(#pe38d55bcb6)" style="fill: #00bfff"/>
   </g>
   <g id="patch_73">
    <path d="M 581.302489 128.528148 
L 589.822904 128.528148 
L 589.822904 123.302599 
L 581.302489 123.302599 
z
" clip-path="url(#pe38d55bcb6)" style="fill: #00bfff"/>
   </g>
   <g id="patch_74">
    <path d="M 589.822904 128.528148 
L 598.34332 128.528148 
L 598.34332 122.721983 
L 589.822904 122.721983 
z
" clip-path="url(#pe38d55bcb6)" style="fill: #00bfff"/>
   </g>
   <g id="patch_75">
    <path d="M 598.34332 128.528148 
L 606.863817 128.528148 
L 606.863817 122.334965 
L 598.34332 122.334965 
z
" clip-path="url(#pe38d55bcb6)" style="fill: #00bfff"/>
   </g>
   <g id="patch_76">
    <path d="M 606.863817 128.528148 
L 615.384233 128.528148 
L 615.384233 122.334905 
L 606.863817 122.334905 
z
" clip-path="url(#pe38d55bcb6)" style="fill: #00bfff"/>
   </g>
   <g id="patch_77">
    <path d="M 615.384233 128.528148 
L 623.904648 128.528148 
L 623.904648 122.141366 
L 615.384233 122.141366 
z
" clip-path="url(#pe38d55bcb6)" style="fill: #00bfff"/>
   </g>
   <g id="patch_78">
    <path d="M 623.904648 128.528148 
L 632.425063 128.528148 
L 632.425063 120.205978 
L 623.904648 120.205978 
z
" clip-path="url(#pe38d55bcb6)" style="fill: #00bfff"/>
   </g>
   <g id="patch_79">
    <path d="M 632.425063 128.528148 
L 640.945479 128.528148 
L 640.945479 122.334905 
L 632.425063 122.334905 
z
" clip-path="url(#pe38d55bcb6)" style="fill: #00bfff"/>
   </g>
   <g id="patch_80">
    <path d="M 640.945479 128.528148 
L 649.465976 128.528148 
L 649.465976 118.464225 
L 640.945479 118.464225 
z
" clip-path="url(#pe38d55bcb6)" style="fill: #00bfff"/>
   </g>
   <g id="patch_81">
    <path d="M 649.465976 128.528148 
L 657.986392 128.528148 
L 657.986392 115.561046 
L 649.465976 115.561046 
z
" clip-path="url(#pe38d55bcb6)" style="fill: #00bfff"/>
   </g>
   <g id="patch_82">
    <path d="M 657.986392 128.528148 
L 666.506807 128.528148 
L 666.506807 117.302895 
L 657.986392 117.302895 
z
" clip-path="url(#pe38d55bcb6)" style="fill: #00bfff"/>
   </g>
   <g id="patch_83">
    <path d="M 666.506807 128.528148 
L 675.027222 128.528148 
L 675.027222 114.206274 
L 666.506807 114.206274 
z
" clip-path="url(#pe38d55bcb6)" style="fill: #00bfff"/>
   </g>
   <g id="patch_84">
    <path d="M 675.027222 128.528148 
L 683.54772 128.528148 
L 683.54772 112.658116 
L 675.027222 112.658116 
z
" clip-path="url(#pe38d55bcb6)" style="fill: #00bfff"/>
   </g>
   <g id="patch_85">
    <path d="M 683.54772 128.528148 
L 692.068135 128.528148 
L 692.068135 114.206274 
L 683.54772 114.206274 
z
" clip-path="url(#pe38d55bcb6)" style="fill: #00bfff"/>
   </g>
   <g id="patch_86">
    <path d="M 692.068135 128.528148 
L 700.588551 128.528148 
L 700.588551 112.657963 
L 692.068135 112.657963 
z
" clip-path="url(#pe38d55bcb6)" style="fill: #00bfff"/>
   </g>
   <g id="patch_87">
    <path d="M 700.588551 128.528148 
L 709.108966 128.528148 
L 709.108966 114.206274 
L 700.588551 114.206274 
z
" clip-path="url(#pe38d55bcb6)" style="fill: #00bfff"/>
   </g>
   <g id="patch_88">
    <path d="M 709.108966 128.528148 
L 717.629464 128.528148 
L 717.629464 112.077505 
L 709.108966 112.077505 
z
" clip-path="url(#pe38d55bcb6)" style="fill: #00bfff"/>
   </g>
   <g id="patch_89">
    <path d="M 717.629464 128.528148 
L 726.149879 128.528148 
L 726.149879 109.367803 
L 717.629464 109.367803 
z
" clip-path="url(#pe38d55bcb6)" style="fill: #00bfff"/>
   </g>
   <g id="patch_90">
    <path d="M 726.149879 128.528148 
L 734.670294 128.528148 
L 734.670294 112.657963 
L 726.149879 112.657963 
z
" clip-path="url(#pe38d55bcb6)" style="fill: #00bfff"/>
   </g>
   <g id="patch_91">
    <path d="M 734.670294 128.528148 
L 743.19071 128.528148 
L 743.19071 113.23858 
L 734.670294 113.23858 
z
" clip-path="url(#pe38d55bcb6)" style="fill: #00bfff"/>
   </g>
   <g id="patch_92">
    <path d="M 743.19071 128.528148 
L 751.711125 128.528148 
L 751.711125 118.270589 
L 743.19071 118.270589 
z
" clip-path="url(#pe38d55bcb6)" style="fill: #00bfff"/>
   </g>
   <g id="patch_93">
    <path d="M 751.711125 128.528148 
L 760.231623 128.528148 
L 760.231623 119.43191 
L 751.711125 119.43191 
z
" clip-path="url(#pe38d55bcb6)" style="fill: #00bfff"/>
   </g>
   <g id="patch_94">
    <path d="M 760.231623 128.528148 
L 768.752038 128.528148 
L 768.752038 118.657667 
L 760.231623 118.657667 
z
" clip-path="url(#pe38d55bcb6)" style="fill: #00bfff"/>
   </g>
   <g id="patch_95">
    <path d="M 768.752038 128.528148 
L 777.272453 128.528148 
L 777.272453 117.883512 
L 768.752038 117.883512 
z
" clip-path="url(#pe38d55bcb6)" style="fill: #00bfff"/>
   </g>
   <g id="patch_96">
    <path d="M 777.272453 128.528148 
L 785.792869 128.528148 
L 785.792869 120.399516 
L 777.272453 120.399516 
z
" clip-path="url(#pe38d55bcb6)" style="fill: #00bfff"/>
   </g>
   <g id="patch_97">
    <path d="M 785.792869 128.528148 
L 794.313366 128.528148 
L 794.313366 119.044836 
L 785.792869 119.044836 
z
" clip-path="url(#pe38d55bcb6)" style="fill: #00bfff"/>
   </g>
   <g id="patch_98">
    <path d="M 794.313366 128.528148 
L 802.833781 128.528148 
L 802.833781 124.85091 
L 794.313366 124.85091 
z
" clip-path="url(#pe38d55bcb6)" style="fill: #00bfff"/>
   </g>
   <g id="patch_99">
    <path d="M 802.833781 128.528148 
L 811.354197 128.528148 
L 811.354197 119.431822 
L 802.833781 119.431822 
z
" clip-path="url(#pe38d55bcb6)" style="fill: #00bfff"/>
   </g>
   <g id="patch_100">
    <path d="M 811.354197 128.528148 
L 819.874612 128.528148 
L 819.874612 123.496138 
L 811.354197 123.496138 
z
" clip-path="url(#pe38d55bcb6)" style="fill: #00bfff"/>
   </g>
   <g id="patch_101">
    <path d="M 819.874612 128.528148 
L 828.39511 128.528148 
L 828.39511 127.754 
L 819.874612 127.754 
z
" clip-path="url(#pe38d55bcb6)" style="fill: #00bfff"/>
   </g>
   <g id="patch_102">
    <path d="M 828.39511 128.528148 
L 836.915525 128.528148 
L 836.915525 128.334609 
L 828.39511 128.334609 
z
" clip-path="url(#pe38d55bcb6)" style="fill: #00bfff"/>
   </g>
   <g id="patch_103">
    <path d="M 836.915525 128.528148 
L 845.43594 128.528148 
L 845.43594 128.334609 
L 836.915525 128.334609 
z
" clip-path="url(#pe38d55bcb6)" style="fill: #00bfff"/>
   </g>
   <g id="line2d_12">
    <path d="M 10.7 120.065648 
L 19.331308 119.383907 
L 27.962617 118.66853 
L 36.593925 117.920088 
L 45.225233 117.139418 
L 53.856541 116.327634 
L 62.48785 115.486141 
L 71.119158 114.616641 
L 79.750466 113.721137 
L 88.381775 112.801938 
L 97.013083 111.861654 
L 105.644391 110.903199 
L 114.275699 109.929775 
L 122.907008 108.944864 
L 131.538316 107.952215 
L 140.169624 106.955819 
L 148.800933 105.959892 
L 157.432241 104.968846 
L 166.063549 103.987257 
L 174.694857 103.019838 
L 183.326166 102.071397 
L 191.957474 101.146801 
L 200.588782 100.250937 
L 209.220091 99.388667 
L 217.851399 98.564788 
L 226.482707 97.783985 
L 235.114015 97.050787 
L 243.745324 96.369527 
L 252.376632 95.744296 
L 261.00794 95.178902 
L 269.639248 94.676835 
L 278.270557 94.241227 
L 286.901865 93.874821 
L 295.533173 93.579946 
L 304.164482 93.358485 
L 312.79579 93.21186 
L 321.427098 93.141017 
L 330.058406 93.146413 
L 338.689715 93.228013 
L 347.321023 93.38529 
L 355.952331 93.617231 
L 364.58364 93.922347 
L 373.214948 94.298691 
L 381.846256 94.743874 
L 390.477564 95.255096 
L 399.108873 95.829172 
L 407.740181 96.462566 
L 416.371489 97.151425 
L 425.002798 97.891624 
L 433.634106 98.678798 
L 442.265414 99.508394 
L 450.896722 100.375708 
L 459.528031 101.275932 
L 468.159339 102.204197 
L 476.790647 103.155617 
L 485.421956 104.12533 
L 494.053264 105.108539 
L 502.684572 106.10055 
L 511.31588 107.096807 
L 519.947189 108.092924 
L 528.578497 109.084716 
L 537.209805 110.068224 
L 545.841114 111.039736 
L 554.472422 111.995809 
L 563.10373 112.933281 
L 571.735038 113.849281 
L 580.366347 114.74124 
L 588.997655 115.606894 
L 597.628963 116.444281 
L 606.260272 117.251743 
L 614.89158 118.027917 
L 623.522888 118.771727 
L 632.154196 119.482376 
L 640.785505 120.159328 
L 649.416813 120.802297 
L 658.048121 121.411232 
L 666.679429 121.986294 
L 675.310738 122.527843 
L 683.942046 123.036417 
L 692.573354 123.512712 
L 701.204663 123.957566 
L 709.835971 124.371934 
L 718.467279 124.756878 
L 727.098587 125.113539 
L 735.729896 125.44313 
L 744.361204 125.746912 
L 752.992512 126.026181 
L 761.623821 126.282257 
L 770.255129 126.516466 
L 778.886437 126.730133 
L 787.517745 126.924567 
L 796.149054 127.101056 
L 804.780362 127.260857 
L 813.41167 127.405188 
L 822.042979 127.535224 
L 830.674287 127.652094 
L 839.305595 127.756873 
L 847.936903 127.850583 
L 856.568212 127.934189 
L 865.19952 128.008601 
" clip-path="url(#pe38d55bcb6)" style="fill: none; stroke: #1f77b4; stroke-width: 1.5; stroke-linecap: square"/>
   </g>
   <g id="text_9">
    <g id="patch_104">
     <path d="M 134.290599 38.307963 
L 144.235911 38.307963 
Q 147.235911 38.307963 147.235911 35.307963 
L 147.235911 25.629838 
Q 147.235911 22.629838 144.235911 22.629838 
L 134.290599 22.629838 
Q 131.290599 22.629838 131.290599 25.629838 
L 131.290599 35.307963 
Q 131.290599 38.307963 134.290599 38.307963 
z
" style="fill: #ffffff"/>
    </g>
    <!-- -σ -->
    <g transform="translate(134.290599 33.228276) scale(0.1 -0.1)">
     <defs>
      <path id="DejaVuSans-2d" d="M 313 2009 
L 1997 2009 
L 1997 1497 
L 313 1497 
L 313 2009 
z
" transform="scale(0.015625)"/>
     </defs>
     <use xlink:href="#DejaVuSans-2d"/>
     <use xlink:href="#DejaVuSans-3c3" x="36.083984"/>
    </g>
   </g>
   <g id="text_10">
    <g id="patch_105">
     <path d="M 321.453497 38.307963 
L 328.811309 38.307963 
Q 331.811309 38.307963 331.811309 35.307963 
L 331.811309 25.629838 
Q 331.811309 22.629838 328.811309 22.629838 
L 321.453497 22.629838 
Q 318.453497 22.629838 318.453497 25.629838 
L 318.453497 35.307963 
Q 318.453497 38.307963 321.453497 38.307963 
z
" style="fill: #ffffff"/>
    </g>
    <!-- μ -->
    <g transform="translate(321.453497 33.217338) scale(0.1 -0.1)">
     <defs>
      <path id="DejaVuSans-Bold-3bc" d="M 544 -1338 
L 544 3500 
L 1672 3500 
L 1672 1466 
Q 1672 1103 1828 926 
Q 1984 750 2303 750 
Q 2625 750 2781 926 
Q 2938 1103 2938 1466 
L 2938 3500 
L 4063 3500 
L 4063 1159 
Q 4063 938 4114 850 
Q 4166 763 4288 763 
Q 4344 763 4395 778 
Q 4447 794 4506 831 
L 4506 50 
Q 4341 -22 4195 -56 
Q 4050 -91 3909 -91 
Q 3631 -91 3454 26 
Q 3278 144 3169 403 
Q 3022 156 2811 32 
Q 2600 -91 2322 -91 
Q 2091 -91 1928 -17 
Q 1766 56 1672 206 
L 1672 -1338 
L 544 -1338 
z
" transform="scale(0.015625)"/>
     </defs>
     <use xlink:href="#DejaVuSans-Bold-3bc"/>
    </g>
   </g>
   <g id="text_11">
    <g id="patch_106">
     <path d="M 503.642958 38.307963 
L 518.360145 38.307963 
Q 521.360145 38.307963 521.360145 35.307963 
L 521.360145 25.629838 
Q 521.360145 22.629838 518.360145 22.629838 
L 503.642958 22.629838 
Q 500.642958 22.629838 500.642958 25.629838 
L 500.642958 35.307963 
Q 500.642958 38.307963 503.642958 38.307963 
z
" style="fill: #ffffff"/>
    </g>
    <!-- +σ -->
    <g transform="translate(503.642958 33.228276) scale(0.1 -0.1)">
     <defs>
      <path id="DejaVuSans-2b" d="M 2944 4013 
L 2944 2272 
L 4684 2272 
L 4684 1741 
L 2944 1741 
L 2944 0 
L 2419 0 
L 2419 1741 
L 678 1741 
L 678 2272 
L 2419 2272 
L 2419 4013 
L 2944 4013 
z
" transform="scale(0.015625)"/>
     </defs>
     <use xlink:href="#DejaVuSans-2b"/>
     <use xlink:href="#DejaVuSans-3c3" x="83.789062"/>
    </g>
   </g>
   <g id="text_12">
    <g id="patch_107">
     <path d="M 686.330856 38.307963 
L 707.410544 38.307963 
Q 710.410544 38.307963 710.410544 35.307963 
L 710.410544 25.629838 
Q 710.410544 22.629838 707.410544 22.629838 
L 686.330856 22.629838 
Q 683.330856 22.629838 683.330856 25.629838 
L 683.330856 35.307963 
Q 683.330856 38.307963 686.330856 38.307963 
z
" style="fill: #ffffff"/>
    </g>
    <!-- +2σ -->
    <g transform="translate(686.330856 33.228276) scale(0.1 -0.1)">
     <use xlink:href="#DejaVuSans-2b"/>
     <use xlink:href="#DejaVuSans-32" x="83.789062"/>
     <use xlink:href="#DejaVuSans-3c3" x="147.412109"/>
    </g>
   </g>
  </g>
 </g>
 <defs>
  <clipPath id="pe38d55bcb6">
   <rect x="10.7" y="20.214138" width="854.49952" height="108.31401"/>
  </clipPath>
 </defs>
</svg>
