<?xml version="1.0" encoding="utf-8" standalone="no"?>
<!DOCTYPE svg PUBLIC "-//W3C//DTD SVG 1.1//EN"
  "http://www.w3.org/Graphics/SVG/1.1/DTD/svg11.dtd">
<svg xmlns:xlink="http://www.w3.org/1999/xlink" width="856.8pt" height="135.884972pt" viewBox="0 0 856.8 135.884972" xmlns="http://www.w3.org/2000/svg" version="1.1">
 <metadata>
  <rdf:RDF xmlns:dc="http://purl.org/dc/elements/1.1/" xmlns:cc="http://creativecommons.org/ns#" xmlns:rdf="http://www.w3.org/1999/02/22-rdf-syntax-ns#">
   <cc:Work>
    <dc:type rdf:resource="http://purl.org/dc/dcmitype/StillImage"/>
    <dc:date>2022-10-26T12:54:50.122248</dc:date>
    <dc:format>image/svg+xml</dc:format>
    <dc:creator>
     <cc:Agent>
      <dc:title>Matplotlib v3.6.1, https://matplotlib.org/</dc:title>
     </cc:Agent>
    </dc:creator>
   </cc:Work>
  </rdf:RDF>
 </metadata>
 <defs>
  <style type="text/css">*{stroke-linejoin: round; stroke-linecap: butt}</style>
 </defs>
 <g id="figure_1">
  <g id="patch_1">
   <path d="M 0 135.884972 
L 856.8 135.884972 
L 856.8 0 
L 0 0 
z
" style="fill: #ffffff"/>
  </g>
  <g id="axes_1">
   <g id="patch_2">
    <path d="M 10.7 112.006847 
L 849.6 112.006847 
L 849.6 19.427409 
L 10.7 19.427409 
z
" style="fill: #ffffff"/>
   </g>
   <g id="matplotlib.axis_1">
    <g id="xtick_1">
     <g id="line2d_1">
      <defs>
       <path id="m81acf9df67" d="M 0 0 
L 0 3.5 
" style="stroke: #000000; stroke-width: 0.8"/>
      </defs>
      <g>
       <use xlink:href="#m81acf9df67" x="82.292597" y="112.006847" style="stroke: #000000; stroke-width: 0.8"/>
      </g>
     </g>
     <g id="text_1">
      <!-- −3 -->
      <g transform="translate(74.921504 126.605284) scale(0.1 -0.1)">
       <defs>
        <path id="DejaVuSans-2212" d="M 678 2272 
L 4684 2272 
L 4684 1741 
L 678 1741 
L 678 2272 
z
" transform="scale(0.015625)"/>
        <path id="DejaVuSans-33" d="M 2597 2516 
Q 3050 2419 3304 2112 
Q 3559 1806 3559 1356 
Q 3559 666 3084 287 
Q 2609 -91 1734 -91 
Q 1441 -91 1130 -33 
Q 819 25 488 141 
L 488 750 
Q 750 597 1062 519 
Q 1375 441 1716 441 
Q 2309 441 2620 675 
Q 2931 909 2931 1356 
Q 2931 1769 2642 2001 
Q 2353 2234 1838 2234 
L 1294 2234 
L 1294 2753 
L 1863 2753 
Q 2328 2753 2575 2939 
Q 2822 3125 2822 3475 
Q 2822 3834 2567 4026 
Q 2313 4219 1838 4219 
Q 1578 4219 1281 4162 
Q 984 4106 628 3988 
L 628 4550 
Q 988 4650 1302 4700 
Q 1616 4750 1894 4750 
Q 2613 4750 3031 4423 
Q 3450 4097 3450 3541 
Q 3450 3153 3228 2886 
Q 3006 2619 2597 2516 
z
" transform="scale(0.015625)"/>
       </defs>
       <use xlink:href="#DejaVuSans-2212"/>
       <use xlink:href="#DejaVuSans-33" x="83.789062"/>
      </g>
     </g>
    </g>
    <g id="xtick_2">
     <g id="line2d_2">
      <g>
       <use xlink:href="#m81acf9df67" x="215.423514" y="112.006847" style="stroke: #000000; stroke-width: 0.8"/>
      </g>
     </g>
     <g id="text_2">
      <!-- −2 -->
      <g transform="translate(208.05242 126.605284) scale(0.1 -0.1)">
       <defs>
        <path id="DejaVuSans-32" d="M 1228 531 
L 3431 531 
L 3431 0 
L 469 0 
L 469 531 
Q 828 903 1448 1529 
Q 2069 2156 2228 2338 
Q 2531 2678 2651 2914 
Q 2772 3150 2772 3378 
Q 2772 3750 2511 3984 
Q 2250 4219 1831 4219 
Q 1534 4219 1204 4116 
Q 875 4013 500 3803 
L 500 4441 
Q 881 4594 1212 4672 
Q 1544 4750 1819 4750 
Q 2544 4750 2975 4387 
Q 3406 4025 3406 3419 
Q 3406 3131 3298 2873 
Q 3191 2616 2906 2266 
Q 2828 2175 2409 1742 
Q 1991 1309 1228 531 
z
" transform="scale(0.015625)"/>
       </defs>
       <use xlink:href="#DejaVuSans-2212"/>
       <use xlink:href="#DejaVuSans-32" x="83.789062"/>
      </g>
     </g>
    </g>
    <g id="xtick_3">
     <g id="line2d_3">
      <g>
       <use xlink:href="#m81acf9df67" x="348.55443" y="112.006847" style="stroke: #000000; stroke-width: 0.8"/>
      </g>
     </g>
     <g id="text_3">
      <!-- −1 -->
      <g transform="translate(341.183337 126.605284) scale(0.1 -0.1)">
       <defs>
        <path id="DejaVuSans-31" d="M 794 531 
L 1825 531 
L 1825 4091 
L 703 3866 
L 703 4441 
L 1819 4666 
L 2450 4666 
L 2450 531 
L 3481 531 
L 3481 0 
L 794 0 
L 794 531 
z
" transform="scale(0.015625)"/>
       </defs>
       <use xlink:href="#DejaVuSans-2212"/>
       <use xlink:href="#DejaVuSans-31" x="83.789062"/>
      </g>
     </g>
    </g>
    <g id="xtick_4">
     <g id="line2d_4">
      <g>
       <use xlink:href="#m81acf9df67" x="481.685347" y="112.006847" style="stroke: #000000; stroke-width: 0.8"/>
      </g>
     </g>
     <g id="text_4">
      <!-- 0 -->
      <g transform="translate(478.504097 126.605284) scale(0.1 -0.1)">
       <defs>
        <path id="DejaVuSans-30" d="M 2034 4250 
Q 1547 4250 1301 3770 
Q 1056 3291 1056 2328 
Q 1056 1369 1301 889 
Q 1547 409 2034 409 
Q 2525 409 2770 889 
Q 3016 1369 3016 2328 
Q 3016 3291 2770 3770 
Q 2525 4250 2034 4250 
z
M 2034 4750 
Q 2819 4750 3233 4129 
Q 3647 3509 3647 2328 
Q 3647 1150 3233 529 
Q 2819 -91 2034 -91 
Q 1250 -91 836 529 
Q 422 1150 422 2328 
Q 422 3509 836 4129 
Q 1250 4750 2034 4750 
z
" transform="scale(0.015625)"/>
       </defs>
       <use xlink:href="#DejaVuSans-30"/>
      </g>
     </g>
    </g>
    <g id="xtick_5">
     <g id="line2d_5">
      <g>
       <use xlink:href="#m81acf9df67" x="614.816263" y="112.006847" style="stroke: #000000; stroke-width: 0.8"/>
      </g>
     </g>
     <g id="text_5">
      <!-- 1 -->
      <g transform="translate(611.635013 126.605284) scale(0.1 -0.1)">
       <use xlink:href="#DejaVuSans-31"/>
      </g>
     </g>
    </g>
    <g id="xtick_6">
     <g id="line2d_6">
      <g>
       <use xlink:href="#m81acf9df67" x="747.94718" y="112.006847" style="stroke: #000000; stroke-width: 0.8"/>
      </g>
     </g>
     <g id="text_6">
      <!-- 2 -->
      <g transform="translate(744.76593 126.605284) scale(0.1 -0.1)">
       <use xlink:href="#DejaVuSans-32"/>
      </g>
     </g>
    </g>
   </g>
   <g id="matplotlib.axis_2"/>
   <g id="line2d_7">
    <path d="M 144.241364 112.006847 
L 144.241364 19.427409 
" clip-path="url(#p313a9eef8a)" style="fill: none; stroke: #000000; stroke-width: 1.5; stroke-linecap: square"/>
   </g>
   <g id="line2d_8">
    <path d="M 287.11505 112.006847 
L 287.11505 19.427409 
" clip-path="url(#p313a9eef8a)" style="fill: none; stroke: #000000; stroke-width: 1.5; stroke-linecap: square"/>
   </g>
   <g id="line2d_9">
    <path d="M 429.988735 112.006847 
L 429.988735 19.427409 
" clip-path="url(#p313a9eef8a)" style="fill: none; stroke: #000000; stroke-width: 1.5; stroke-linecap: square"/>
   </g>
   <g id="line2d_10">
    <path d="M 572.862421 112.006847 
L 572.862421 19.427409 
" clip-path="url(#p313a9eef8a)" style="fill: none; stroke: #000000; stroke-width: 1.5; stroke-linecap: square"/>
   </g>
   <g id="line2d_11">
    <path d="M 715.736106 112.006847 
L 715.736106 19.427409 
" clip-path="url(#p313a9eef8a)" style="fill: none; stroke: #000000; stroke-width: 1.5; stroke-linecap: square"/>
   </g>
   <g id="patch_3">
    <path d="M 10.7 112.006847 
L 10.7 19.427409 
" style="fill: none; stroke: #000000; stroke-width: 0.8; stroke-linejoin: miter; stroke-linecap: square"/>
   </g>
   <g id="patch_4">
    <path d="M 849.6 112.006847 
L 849.6 19.427409 
" style="fill: none; stroke: #000000; stroke-width: 0.8; stroke-linejoin: miter; stroke-linecap: square"/>
   </g>
   <g id="patch_5">
    <path d="M 10.7 112.006847 
L 849.6 112.006847 
" style="fill: none; stroke: #000000; stroke-width: 0.8; stroke-linejoin: miter; stroke-linecap: square"/>
   </g>
   <g id="patch_6">
    <path d="M 10.7 19.427409 
L 849.6 19.427409 
" style="fill: none; stroke: #000000; stroke-width: 0.8; stroke-linejoin: miter; stroke-linecap: square"/>
   </g>
   <g id="text_7">
    <g id="patch_7">
     <path d="M 201.726853 95.453066 
L 201.726853 35.981191 
Q 201.726853 32.981191 198.726853 32.981191 
L 189.048728 32.981191 
Q 186.048728 32.981191 186.048728 35.981191 
L 186.048728 95.453066 
Q 186.048728 98.453066 189.048728 98.453066 
L 198.726853 98.453066 
Q 201.726853 98.453066 201.726853 95.453066 
z
" style="fill: #ffffff"/>
    </g>
    <!-- min=-2.118 -->
    <g transform="translate(196.647166 95.453066) rotate(-90) scale(0.1 -0.1)">
     <defs>
      <path id="DejaVuSans-6d" d="M 3328 2828 
Q 3544 3216 3844 3400 
Q 4144 3584 4550 3584 
Q 5097 3584 5394 3201 
Q 5691 2819 5691 2113 
L 5691 0 
L 5113 0 
L 5113 2094 
Q 5113 2597 4934 2840 
Q 4756 3084 4391 3084 
Q 3944 3084 3684 2787 
Q 3425 2491 3425 1978 
L 3425 0 
L 2847 0 
L 2847 2094 
Q 2847 2600 2669 2842 
Q 2491 3084 2119 3084 
Q 1678 3084 1418 2786 
Q 1159 2488 1159 1978 
L 1159 0 
L 581 0 
L 581 3500 
L 1159 3500 
L 1159 2956 
Q 1356 3278 1631 3431 
Q 1906 3584 2284 3584 
Q 2666 3584 2933 3390 
Q 3200 3197 3328 2828 
z
" transform="scale(0.015625)"/>
      <path id="DejaVuSans-69" d="M 603 3500 
L 1178 3500 
L 1178 0 
L 603 0 
L 603 3500 
z
M 603 4863 
L 1178 4863 
L 1178 4134 
L 603 4134 
L 603 4863 
z
" transform="scale(0.015625)"/>
      <path id="DejaVuSans-6e" d="M 3513 2113 
L 3513 0 
L 2938 0 
L 2938 2094 
Q 2938 2591 2744 2837 
Q 2550 3084 2163 3084 
Q 1697 3084 1428 2787 
Q 1159 2491 1159 1978 
L 1159 0 
L 581 0 
L 581 3500 
L 1159 3500 
L 1159 2956 
Q 1366 3272 1645 3428 
Q 1925 3584 2291 3584 
Q 2894 3584 3203 3211 
Q 3513 2838 3513 2113 
z
" transform="scale(0.015625)"/>
      <path id="DejaVuSans-3d" d="M 678 2906 
L 4684 2906 
L 4684 2381 
L 678 2381 
L 678 2906 
z
M 678 1631 
L 4684 1631 
L 4684 1100 
L 678 1100 
L 678 1631 
z
" transform="scale(0.015625)"/>
      <path id="DejaVuSans-2d" d="M 313 2009 
L 1997 2009 
L 1997 1497 
L 313 1497 
L 313 2009 
z
" transform="scale(0.015625)"/>
      <path id="DejaVuSans-2e" d="M 684 794 
L 1344 794 
L 1344 0 
L 684 0 
L 684 794 
z
" transform="scale(0.015625)"/>
      <path id="DejaVuSans-38" d="M 2034 2216 
Q 1584 2216 1326 1975 
Q 1069 1734 1069 1313 
Q 1069 891 1326 650 
Q 1584 409 2034 409 
Q 2484 409 2743 651 
Q 3003 894 3003 1313 
Q 3003 1734 2745 1975 
Q 2488 2216 2034 2216 
z
M 1403 2484 
Q 997 2584 770 2862 
Q 544 3141 544 3541 
Q 544 4100 942 4425 
Q 1341 4750 2034 4750 
Q 2731 4750 3128 4425 
Q 3525 4100 3525 3541 
Q 3525 3141 3298 2862 
Q 3072 2584 2669 2484 
Q 3125 2378 3379 2068 
Q 3634 1759 3634 1313 
Q 3634 634 3220 271 
Q 2806 -91 2034 -91 
Q 1263 -91 848 271 
Q 434 634 434 1313 
Q 434 1759 690 2068 
Q 947 2378 1403 2484 
z
M 1172 3481 
Q 1172 3119 1398 2916 
Q 1625 2713 2034 2713 
Q 2441 2713 2670 2916 
Q 2900 3119 2900 3481 
Q 2900 3844 2670 4047 
Q 2441 4250 2034 4250 
Q 1625 4250 1398 4047 
Q 1172 3844 1172 3481 
z
" transform="scale(0.015625)"/>
     </defs>
     <use xlink:href="#DejaVuSans-6d"/>
     <use xlink:href="#DejaVuSans-69" x="97.412109"/>
     <use xlink:href="#DejaVuSans-6e" x="125.195312"/>
     <use xlink:href="#DejaVuSans-3d" x="188.574219"/>
     <use xlink:href="#DejaVuSans-2d" x="272.363281"/>
     <use xlink:href="#DejaVuSans-32" x="308.447266"/>
     <use xlink:href="#DejaVuSans-2e" x="372.070312"/>
     <use xlink:href="#DejaVuSans-31" x="403.857422"/>
     <use xlink:href="#DejaVuSans-31" x="467.480469"/>
     <use xlink:href="#DejaVuSans-38" x="531.103516"/>
    </g>
   </g>
   <g id="text_8">
    <g id="patch_8">
     <path d="M 847.829105 95.114784 
L 847.829105 36.319472 
Q 847.829105 33.319472 844.829105 33.319472 
L 835.15098 33.319472 
Q 832.15098 33.319472 832.15098 36.319472 
L 832.15098 95.114784 
Q 832.15098 98.114784 835.15098 98.114784 
L 844.829105 98.114784 
Q 847.829105 98.114784 847.829105 95.114784 
z
" style="fill: #ffffff"/>
    </g>
    <!-- max=2.640 -->
    <g transform="translate(842.749418 95.114784) rotate(-90) scale(0.1 -0.1)">
     <defs>
      <path id="DejaVuSans-61" d="M 2194 1759 
Q 1497 1759 1228 1600 
Q 959 1441 959 1056 
Q 959 750 1161 570 
Q 1363 391 1709 391 
Q 2188 391 2477 730 
Q 2766 1069 2766 1631 
L 2766 1759 
L 2194 1759 
z
M 3341 1997 
L 3341 0 
L 2766 0 
L 2766 531 
Q 2569 213 2275 61 
Q 1981 -91 1556 -91 
Q 1019 -91 701 211 
Q 384 513 384 1019 
Q 384 1609 779 1909 
Q 1175 2209 1959 2209 
L 2766 2209 
L 2766 2266 
Q 2766 2663 2505 2880 
Q 2244 3097 1772 3097 
Q 1472 3097 1187 3025 
Q 903 2953 641 2809 
L 641 3341 
Q 956 3463 1253 3523 
Q 1550 3584 1831 3584 
Q 2591 3584 2966 3190 
Q 3341 2797 3341 1997 
z
" transform="scale(0.015625)"/>
      <path id="DejaVuSans-78" d="M 3513 3500 
L 2247 1797 
L 3578 0 
L 2900 0 
L 1881 1375 
L 863 0 
L 184 0 
L 1544 1831 
L 300 3500 
L 978 3500 
L 1906 2253 
L 2834 3500 
L 3513 3500 
z
" transform="scale(0.015625)"/>
      <path id="DejaVuSans-36" d="M 2113 2584 
Q 1688 2584 1439 2293 
Q 1191 2003 1191 1497 
Q 1191 994 1439 701 
Q 1688 409 2113 409 
Q 2538 409 2786 701 
Q 3034 994 3034 1497 
Q 3034 2003 2786 2293 
Q 2538 2584 2113 2584 
z
M 3366 4563 
L 3366 3988 
Q 3128 4100 2886 4159 
Q 2644 4219 2406 4219 
Q 1781 4219 1451 3797 
Q 1122 3375 1075 2522 
Q 1259 2794 1537 2939 
Q 1816 3084 2150 3084 
Q 2853 3084 3261 2657 
Q 3669 2231 3669 1497 
Q 3669 778 3244 343 
Q 2819 -91 2113 -91 
Q 1303 -91 875 529 
Q 447 1150 447 2328 
Q 447 3434 972 4092 
Q 1497 4750 2381 4750 
Q 2619 4750 2861 4703 
Q 3103 4656 3366 4563 
z
" transform="scale(0.015625)"/>
      <path id="DejaVuSans-34" d="M 2419 4116 
L 825 1625 
L 2419 1625 
L 2419 4116 
z
M 2253 4666 
L 3047 4666 
L 3047 1625 
L 3713 1625 
L 3713 1100 
L 3047 1100 
L 3047 0 
L 2419 0 
L 2419 1100 
L 313 1100 
L 313 1709 
L 2253 4666 
z
" transform="scale(0.015625)"/>
     </defs>
     <use xlink:href="#DejaVuSans-6d"/>
     <use xlink:href="#DejaVuSans-61" x="97.412109"/>
     <use xlink:href="#DejaVuSans-78" x="158.691406"/>
     <use xlink:href="#DejaVuSans-3d" x="217.871094"/>
     <use xlink:href="#DejaVuSans-32" x="301.660156"/>
     <use xlink:href="#DejaVuSans-2e" x="365.283203"/>
     <use xlink:href="#DejaVuSans-36" x="397.070312"/>
     <use xlink:href="#DejaVuSans-34" x="460.693359"/>
     <use xlink:href="#DejaVuSans-30" x="524.316406"/>
    </g>
   </g>
   <g id="text_9">
    <!-- 10000 samples of tensor[3, 196, 196] n=115248 x∈[-2.118, 2.640] μ=-0.388 σ=1.073 -->
    <g transform="translate(10.7 14.798437) scale(0.1 -0.1)">
     <defs>
      <path id="DejaVuSans-20" transform="scale(0.015625)"/>
      <path id="DejaVuSans-73" d="M 2834 3397 
L 2834 2853 
Q 2591 2978 2328 3040 
Q 2066 3103 1784 3103 
Q 1356 3103 1142 2972 
Q 928 2841 928 2578 
Q 928 2378 1081 2264 
Q 1234 2150 1697 2047 
L 1894 2003 
Q 2506 1872 2764 1633 
Q 3022 1394 3022 966 
Q 3022 478 2636 193 
Q 2250 -91 1575 -91 
Q 1294 -91 989 -36 
Q 684 19 347 128 
L 347 722 
Q 666 556 975 473 
Q 1284 391 1588 391 
Q 1994 391 2212 530 
Q 2431 669 2431 922 
Q 2431 1156 2273 1281 
Q 2116 1406 1581 1522 
L 1381 1569 
Q 847 1681 609 1914 
Q 372 2147 372 2553 
Q 372 3047 722 3315 
Q 1072 3584 1716 3584 
Q 2034 3584 2315 3537 
Q 2597 3491 2834 3397 
z
" transform="scale(0.015625)"/>
      <path id="DejaVuSans-70" d="M 1159 525 
L 1159 -1331 
L 581 -1331 
L 581 3500 
L 1159 3500 
L 1159 2969 
Q 1341 3281 1617 3432 
Q 1894 3584 2278 3584 
Q 2916 3584 3314 3078 
Q 3713 2572 3713 1747 
Q 3713 922 3314 415 
Q 2916 -91 2278 -91 
Q 1894 -91 1617 61 
Q 1341 213 1159 525 
z
M 3116 1747 
Q 3116 2381 2855 2742 
Q 2594 3103 2138 3103 
Q 1681 3103 1420 2742 
Q 1159 2381 1159 1747 
Q 1159 1113 1420 752 
Q 1681 391 2138 391 
Q 2594 391 2855 752 
Q 3116 1113 3116 1747 
z
" transform="scale(0.015625)"/>
      <path id="DejaVuSans-6c" d="M 603 4863 
L 1178 4863 
L 1178 0 
L 603 0 
L 603 4863 
z
" transform="scale(0.015625)"/>
      <path id="DejaVuSans-65" d="M 3597 1894 
L 3597 1613 
L 953 1613 
Q 991 1019 1311 708 
Q 1631 397 2203 397 
Q 2534 397 2845 478 
Q 3156 559 3463 722 
L 3463 178 
Q 3153 47 2828 -22 
Q 2503 -91 2169 -91 
Q 1331 -91 842 396 
Q 353 884 353 1716 
Q 353 2575 817 3079 
Q 1281 3584 2069 3584 
Q 2775 3584 3186 3129 
Q 3597 2675 3597 1894 
z
M 3022 2063 
Q 3016 2534 2758 2815 
Q 2500 3097 2075 3097 
Q 1594 3097 1305 2825 
Q 1016 2553 972 2059 
L 3022 2063 
z
" transform="scale(0.015625)"/>
      <path id="DejaVuSans-6f" d="M 1959 3097 
Q 1497 3097 1228 2736 
Q 959 2375 959 1747 
Q 959 1119 1226 758 
Q 1494 397 1959 397 
Q 2419 397 2687 759 
Q 2956 1122 2956 1747 
Q 2956 2369 2687 2733 
Q 2419 3097 1959 3097 
z
M 1959 3584 
Q 2709 3584 3137 3096 
Q 3566 2609 3566 1747 
Q 3566 888 3137 398 
Q 2709 -91 1959 -91 
Q 1206 -91 779 398 
Q 353 888 353 1747 
Q 353 2609 779 3096 
Q 1206 3584 1959 3584 
z
" transform="scale(0.015625)"/>
      <path id="DejaVuSans-66" d="M 2375 4863 
L 2375 4384 
L 1825 4384 
Q 1516 4384 1395 4259 
Q 1275 4134 1275 3809 
L 1275 3500 
L 2222 3500 
L 2222 3053 
L 1275 3053 
L 1275 0 
L 697 0 
L 697 3053 
L 147 3053 
L 147 3500 
L 697 3500 
L 697 3744 
Q 697 4328 969 4595 
Q 1241 4863 1831 4863 
L 2375 4863 
z
" transform="scale(0.015625)"/>
      <path id="DejaVuSans-74" d="M 1172 4494 
L 1172 3500 
L 2356 3500 
L 2356 3053 
L 1172 3053 
L 1172 1153 
Q 1172 725 1289 603 
Q 1406 481 1766 481 
L 2356 481 
L 2356 0 
L 1766 0 
Q 1100 0 847 248 
Q 594 497 594 1153 
L 594 3053 
L 172 3053 
L 172 3500 
L 594 3500 
L 594 4494 
L 1172 4494 
z
" transform="scale(0.015625)"/>
      <path id="DejaVuSans-72" d="M 2631 2963 
Q 2534 3019 2420 3045 
Q 2306 3072 2169 3072 
Q 1681 3072 1420 2755 
Q 1159 2438 1159 1844 
L 1159 0 
L 581 0 
L 581 3500 
L 1159 3500 
L 1159 2956 
Q 1341 3275 1631 3429 
Q 1922 3584 2338 3584 
Q 2397 3584 2469 3576 
Q 2541 3569 2628 3553 
L 2631 2963 
z
" transform="scale(0.015625)"/>
      <path id="DejaVuSans-5b" d="M 550 4863 
L 1875 4863 
L 1875 4416 
L 1125 4416 
L 1125 -397 
L 1875 -397 
L 1875 -844 
L 550 -844 
L 550 4863 
z
" transform="scale(0.015625)"/>
      <path id="DejaVuSans-2c" d="M 750 794 
L 1409 794 
L 1409 256 
L 897 -744 
L 494 -744 
L 750 256 
L 750 794 
z
" transform="scale(0.015625)"/>
      <path id="DejaVuSans-39" d="M 703 97 
L 703 672 
Q 941 559 1184 500 
Q 1428 441 1663 441 
Q 2288 441 2617 861 
Q 2947 1281 2994 2138 
Q 2813 1869 2534 1725 
Q 2256 1581 1919 1581 
Q 1219 1581 811 2004 
Q 403 2428 403 3163 
Q 403 3881 828 4315 
Q 1253 4750 1959 4750 
Q 2769 4750 3195 4129 
Q 3622 3509 3622 2328 
Q 3622 1225 3098 567 
Q 2575 -91 1691 -91 
Q 1453 -91 1209 -44 
Q 966 3 703 97 
z
M 1959 2075 
Q 2384 2075 2632 2365 
Q 2881 2656 2881 3163 
Q 2881 3666 2632 3958 
Q 2384 4250 1959 4250 
Q 1534 4250 1286 3958 
Q 1038 3666 1038 3163 
Q 1038 2656 1286 2365 
Q 1534 2075 1959 2075 
z
" transform="scale(0.015625)"/>
      <path id="DejaVuSans-5d" d="M 1947 4863 
L 1947 -844 
L 622 -844 
L 622 -397 
L 1369 -397 
L 1369 4416 
L 622 4416 
L 622 4863 
L 1947 4863 
z
" transform="scale(0.015625)"/>
      <path id="DejaVuSans-35" d="M 691 4666 
L 3169 4666 
L 3169 4134 
L 1269 4134 
L 1269 2991 
Q 1406 3038 1543 3061 
Q 1681 3084 1819 3084 
Q 2600 3084 3056 2656 
Q 3513 2228 3513 1497 
Q 3513 744 3044 326 
Q 2575 -91 1722 -91 
Q 1428 -91 1123 -41 
Q 819 9 494 109 
L 494 744 
Q 775 591 1075 516 
Q 1375 441 1709 441 
Q 2250 441 2565 725 
Q 2881 1009 2881 1497 
Q 2881 1984 2565 2268 
Q 2250 2553 1709 2553 
Q 1456 2553 1204 2497 
Q 953 2441 691 2322 
L 691 4666 
z
" transform="scale(0.015625)"/>
      <path id="DejaVuSans-2208" d="M 1072 1959 
Q 1094 1728 1291 1353 
Q 1522 919 1959 675 
Q 2388 438 2850 434 
L 5028 434 
L 5028 -63 
L 2850 -63 
Q 2250 -63 1695 246 
Q 1141 556 844 1106 
Q 547 1656 547 2241 
Q 547 2819 844 3369 
Q 1141 3919 1695 4231 
Q 2250 4544 2850 4544 
L 5028 4544 
L 5028 4047 
L 2850 4047 
Q 2388 4044 1959 3803 
Q 1525 3556 1291 3125 
Q 1091 2750 1063 2459 
L 5028 2459 
L 5028 1959 
L 1072 1959 
z
" transform="scale(0.015625)"/>
      <path id="DejaVuSans-3bc" d="M 544 -1331 
L 544 3500 
L 1119 3500 
L 1119 1325 
Q 1119 872 1334 640 
Q 1550 409 1972 409 
Q 2434 409 2667 671 
Q 2900 934 2900 1459 
L 2900 3500 
L 3475 3500 
L 3475 806 
Q 3475 619 3529 530 
Q 3584 441 3700 441 
Q 3728 441 3778 458 
Q 3828 475 3916 513 
L 3916 50 
Q 3788 -22 3673 -56 
Q 3559 -91 3450 -91 
Q 3234 -91 3106 31 
Q 2978 153 2931 403 
Q 2775 156 2548 32 
Q 2322 -91 2016 -91 
Q 1697 -91 1473 31 
Q 1250 153 1119 397 
L 1119 -1331 
L 544 -1331 
z
" transform="scale(0.015625)"/>
      <path id="DejaVuSans-3c3" d="M 1959 3044 
Q 1484 3044 1228 2700 
Q 959 2341 959 1747 
Q 959 1119 1226 758 
Q 1494 397 1959 397 
Q 2419 397 2687 759 
Q 2956 1122 2956 1747 
Q 2956 2319 2688 2700 
Q 2441 3044 1959 3044 
z
M 1959 3500 
L 3869 3500 
L 3869 2925 
L 3225 2925 
Q 3566 2438 3566 1747 
Q 3566 888 3138 400 
Q 2709 -91 1959 -91 
Q 1206 -91 781 400 
Q 353 888 353 1747 
Q 353 2613 781 3097 
Q 1134 3500 1959 3500 
z
" transform="scale(0.015625)"/>
      <path id="DejaVuSans-37" d="M 525 4666 
L 3525 4666 
L 3525 4397 
L 1831 0 
L 1172 0 
L 2766 4134 
L 525 4134 
L 525 4666 
z
" transform="scale(0.015625)"/>
     </defs>
     <use xlink:href="#DejaVuSans-31"/>
     <use xlink:href="#DejaVuSans-30" x="63.623047"/>
     <use xlink:href="#DejaVuSans-30" x="127.246094"/>
     <use xlink:href="#DejaVuSans-30" x="190.869141"/>
     <use xlink:href="#DejaVuSans-30" x="254.492188"/>
     <use xlink:href="#DejaVuSans-20" x="318.115234"/>
     <use xlink:href="#DejaVuSans-73" x="349.902344"/>
     <use xlink:href="#DejaVuSans-61" x="402.001953"/>
     <use xlink:href="#DejaVuSans-6d" x="463.28125"/>
     <use xlink:href="#DejaVuSans-70" x="560.693359"/>
     <use xlink:href="#DejaVuSans-6c" x="624.169922"/>
     <use xlink:href="#DejaVuSans-65" x="651.953125"/>
     <use xlink:href="#DejaVuSans-73" x="713.476562"/>
     <use xlink:href="#DejaVuSans-20" x="765.576172"/>
     <use xlink:href="#DejaVuSans-6f" x="797.363281"/>
     <use xlink:href="#DejaVuSans-66" x="858.544922"/>
     <use xlink:href="#DejaVuSans-20" x="893.75"/>
     <use xlink:href="#DejaVuSans-74" x="925.537109"/>
     <use xlink:href="#DejaVuSans-65" x="964.746094"/>
     <use xlink:href="#DejaVuSans-6e" x="1026.269531"/>
     <use xlink:href="#DejaVuSans-73" x="1089.648438"/>
     <use xlink:href="#DejaVuSans-6f" x="1141.748047"/>
     <use xlink:href="#DejaVuSans-72" x="1202.929688"/>
     <use xlink:href="#DejaVuSans-5b" x="1244.042969"/>
     <use xlink:href="#DejaVuSans-33" x="1283.056641"/>
     <use xlink:href="#DejaVuSans-2c" x="1346.679688"/>
     <use xlink:href="#DejaVuSans-20" x="1378.466797"/>
     <use xlink:href="#DejaVuSans-31" x="1410.253906"/>
     <use xlink:href="#DejaVuSans-39" x="1473.876953"/>
     <use xlink:href="#DejaVuSans-36" x="1537.5"/>
     <use xlink:href="#DejaVuSans-2c" x="1601.123047"/>
     <use xlink:href="#DejaVuSans-20" x="1632.910156"/>
     <use xlink:href="#DejaVuSans-31" x="1664.697266"/>
     <use xlink:href="#DejaVuSans-39" x="1728.320312"/>
     <use xlink:href="#DejaVuSans-36" x="1791.943359"/>
     <use xlink:href="#DejaVuSans-5d" x="1855.566406"/>
     <use xlink:href="#DejaVuSans-20" x="1894.580078"/>
     <use xlink:href="#DejaVuSans-6e" x="1926.367188"/>
     <use xlink:href="#DejaVuSans-3d" x="1989.746094"/>
     <use xlink:href="#DejaVuSans-31" x="2073.535156"/>
     <use xlink:href="#DejaVuSans-31" x="2137.158203"/>
     <use xlink:href="#DejaVuSans-35" x="2200.78125"/>
     <use xlink:href="#DejaVuSans-32" x="2264.404297"/>
     <use xlink:href="#DejaVuSans-34" x="2328.027344"/>
     <use xlink:href="#DejaVuSans-38" x="2391.650391"/>
     <use xlink:href="#DejaVuSans-20" x="2455.273438"/>
     <use xlink:href="#DejaVuSans-78" x="2487.060547"/>
     <use xlink:href="#DejaVuSans-2208" x="2546.240234"/>
     <use xlink:href="#DejaVuSans-5b" x="2633.349609"/>
     <use xlink:href="#DejaVuSans-2d" x="2672.363281"/>
     <use xlink:href="#DejaVuSans-32" x="2708.447266"/>
     <use xlink:href="#DejaVuSans-2e" x="2772.070312"/>
     <use xlink:href="#DejaVuSans-31" x="2803.857422"/>
     <use xlink:href="#DejaVuSans-31" x="2867.480469"/>
     <use xlink:href="#DejaVuSans-38" x="2931.103516"/>
     <use xlink:href="#DejaVuSans-2c" x="2994.726562"/>
     <use xlink:href="#DejaVuSans-20" x="3026.513672"/>
     <use xlink:href="#DejaVuSans-32" x="3058.300781"/>
     <use xlink:href="#DejaVuSans-2e" x="3121.923828"/>
     <use xlink:href="#DejaVuSans-36" x="3153.710938"/>
     <use xlink:href="#DejaVuSans-34" x="3217.333984"/>
     <use xlink:href="#DejaVuSans-30" x="3280.957031"/>
     <use xlink:href="#DejaVuSans-5d" x="3344.580078"/>
     <use xlink:href="#DejaVuSans-20" x="3383.59375"/>
     <use xlink:href="#DejaVuSans-3bc" x="3415.380859"/>
     <use xlink:href="#DejaVuSans-3d" x="3479.003906"/>
     <use xlink:href="#DejaVuSans-2d" x="3562.792969"/>
     <use xlink:href="#DejaVuSans-30" x="3598.876953"/>
     <use xlink:href="#DejaVuSans-2e" x="3662.5"/>
     <use xlink:href="#DejaVuSans-33" x="3694.287109"/>
     <use xlink:href="#DejaVuSans-38" x="3757.910156"/>
     <use xlink:href="#DejaVuSans-38" x="3821.533203"/>
     <use xlink:href="#DejaVuSans-20" x="3885.15625"/>
     <use xlink:href="#DejaVuSans-3c3" x="3916.943359"/>
     <use xlink:href="#DejaVuSans-3d" x="3980.322266"/>
     <use xlink:href="#DejaVuSans-31" x="4064.111328"/>
     <use xlink:href="#DejaVuSans-2e" x="4127.734375"/>
     <use xlink:href="#DejaVuSans-30" x="4159.521484"/>
     <use xlink:href="#DejaVuSans-37" x="4223.144531"/>
     <use xlink:href="#DejaVuSans-33" x="4286.767578"/>
    </g>
   </g>
   <g id="patch_9">
    <path d="M 199.726853 112.006847 
L 206.061096 112.006847 
L 206.061096 111.813852 
L 199.726853 111.813852 
z
" clip-path="url(#p313a9eef8a)" style="fill: #00bfff"/>
   </g>
   <g id="patch_10">
    <path d="M 206.061096 112.006847 
L 212.395338 112.006847 
L 212.395338 112.006847 
L 206.061096 112.006847 
z
" clip-path="url(#p313a9eef8a)" style="fill: #00bfff"/>
   </g>
   <g id="patch_11">
    <path d="M 212.395338 112.006847 
L 218.729581 112.006847 
L 218.729581 110.076902 
L 212.395338 110.076902 
z
" clip-path="url(#p313a9eef8a)" style="fill: #00bfff"/>
   </g>
   <g id="patch_12">
    <path d="M 218.729581 112.006847 
L 225.063823 112.006847 
L 225.063823 109.690914 
L 218.729581 109.690914 
z
" clip-path="url(#p313a9eef8a)" style="fill: #00bfff"/>
   </g>
   <g id="patch_13">
    <path d="M 225.063823 112.006847 
L 231.398066 112.006847 
L 231.398066 108.725941 
L 225.063823 108.725941 
z
" clip-path="url(#p313a9eef8a)" style="fill: #00bfff"/>
   </g>
   <g id="patch_14">
    <path d="M 231.398066 112.006847 
L 237.732308 112.006847 
L 237.732308 104.287069 
L 231.398066 104.287069 
z
" clip-path="url(#p313a9eef8a)" style="fill: #00bfff"/>
   </g>
   <g id="patch_15">
    <path d="M 237.732308 112.006847 
L 244.066551 112.006847 
L 244.066551 99.269213 
L 237.732308 99.269213 
z
" clip-path="url(#p313a9eef8a)" style="fill: #00bfff"/>
   </g>
   <g id="patch_16">
    <path d="M 244.066535 112.006847 
L 250.400778 112.006847 
L 250.400778 98.111247 
L 244.066535 98.111247 
z
" clip-path="url(#p313a9eef8a)" style="fill: #00bfff"/>
   </g>
   <g id="patch_17">
    <path d="M 250.400778 112.006847 
L 256.73502 112.006847 
L 256.73502 96.95328 
L 250.400778 96.95328 
z
" clip-path="url(#p313a9eef8a)" style="fill: #00bfff"/>
   </g>
   <g id="patch_18">
    <path d="M 256.73502 112.006847 
L 263.069263 112.006847 
L 263.069263 87.303557 
L 256.73502 87.303557 
z
" clip-path="url(#p313a9eef8a)" style="fill: #00bfff"/>
   </g>
   <g id="patch_19">
    <path d="M 263.069263 112.006847 
L 269.403505 112.006847 
L 269.403505 85.373613 
L 263.069263 85.373613 
z
" clip-path="url(#p313a9eef8a)" style="fill: #00bfff"/>
   </g>
   <g id="patch_20">
    <path d="M 269.403505 112.006847 
L 275.737748 112.006847 
L 275.737748 91.74243 
L 269.403505 91.74243 
z
" clip-path="url(#p313a9eef8a)" style="fill: #00bfff"/>
   </g>
   <g id="patch_21">
    <path d="M 275.737748 112.006847 
L 282.07199 112.006847 
L 282.07199 88.654518 
L 275.737748 88.654518 
z
" clip-path="url(#p313a9eef8a)" style="fill: #00bfff"/>
   </g>
   <g id="patch_22">
    <path d="M 282.071975 112.006847 
L 288.406217 112.006847 
L 288.406217 87.689545 
L 282.071975 87.689545 
z
" clip-path="url(#p313a9eef8a)" style="fill: #00bfff"/>
   </g>
   <g id="patch_23">
    <path d="M 288.406217 112.006847 
L 294.74046 112.006847 
L 294.74046 83.250674 
L 288.406217 83.250674 
z
" clip-path="url(#p313a9eef8a)" style="fill: #00bfff"/>
   </g>
   <g id="patch_24">
    <path d="M 294.74046 112.006847 
L 301.074702 112.006847 
L 301.074702 84.40864 
L 294.74046 84.40864 
z
" clip-path="url(#p313a9eef8a)" style="fill: #00bfff"/>
   </g>
   <g id="patch_25">
    <path d="M 301.074702 112.006847 
L 307.408945 112.006847 
L 307.408945 73.407957 
L 301.074702 73.407957 
z
" clip-path="url(#p313a9eef8a)" style="fill: #00bfff"/>
   </g>
   <g id="patch_26">
    <path d="M 307.408945 112.006847 
L 313.743187 112.006847 
L 313.743187 70.127052 
L 307.408945 70.127052 
z
" clip-path="url(#p313a9eef8a)" style="fill: #00bfff"/>
   </g>
   <g id="patch_27">
    <path d="M 313.743187 112.006847 
L 320.07743 112.006847 
L 320.07743 77.074853 
L 313.743187 77.074853 
z
" clip-path="url(#p313a9eef8a)" style="fill: #00bfff"/>
   </g>
   <g id="patch_28">
    <path d="M 320.07743 112.006847 
L 326.411672 112.006847 
L 326.411672 45.230769 
L 320.07743 45.230769 
z
" clip-path="url(#p313a9eef8a)" style="fill: #00bfff"/>
   </g>
   <g id="patch_29">
    <path d="M 326.411672 112.006847 
L 332.745915 112.006847 
L 332.745915 45.616755 
L 326.411672 45.616755 
z
" clip-path="url(#p313a9eef8a)" style="fill: #00bfff"/>
   </g>
   <g id="patch_30">
    <path d="M 332.745915 112.006847 
L 339.080157 112.006847 
L 339.080157 40.791895 
L 332.745915 40.791895 
z
" clip-path="url(#p313a9eef8a)" style="fill: #00bfff"/>
   </g>
   <g id="patch_31">
    <path d="M 339.080157 112.006847 
L 345.4144 112.006847 
L 345.4144 68.197109 
L 339.080157 68.197109 
z
" clip-path="url(#p313a9eef8a)" style="fill: #00bfff"/>
   </g>
   <g id="patch_32">
    <path d="M 345.414384 112.006847 
L 351.748627 112.006847 
L 351.748627 51.020601 
L 345.414384 51.020601 
z
" clip-path="url(#p313a9eef8a)" style="fill: #00bfff"/>
   </g>
   <g id="patch_33">
    <path d="M 351.748642 112.006847 
L 358.082885 112.006847 
L 358.082885 59.898348 
L 351.748642 59.898348 
z
" clip-path="url(#p313a9eef8a)" style="fill: #00bfff"/>
   </g>
   <g id="patch_34">
    <path d="M 358.082885 112.006847 
L 364.417128 112.006847 
L 364.417128 63.951231 
L 358.082885 63.951231 
z
" clip-path="url(#p313a9eef8a)" style="fill: #00bfff"/>
   </g>
   <g id="patch_35">
    <path d="M 364.417128 112.006847 
L 370.75137 112.006847 
L 370.75137 56.424448 
L 364.417128 56.424448 
z
" clip-path="url(#p313a9eef8a)" style="fill: #00bfff"/>
   </g>
   <g id="patch_36">
    <path d="M 370.75137 112.006847 
L 377.085613 112.006847 
L 377.085613 57.968402 
L 370.75137 57.968402 
z
" clip-path="url(#p313a9eef8a)" style="fill: #00bfff"/>
   </g>
   <g id="patch_37">
    <path d="M 377.085605 112.006847 
L 383.419847 112.006847 
L 383.419847 48.511674 
L 377.085605 48.511674 
z
" clip-path="url(#p313a9eef8a)" style="fill: #00bfff"/>
   </g>
   <g id="patch_38">
    <path d="M 383.419847 112.006847 
L 389.75409 112.006847 
L 389.75409 53.336533 
L 383.419847 53.336533 
z
" clip-path="url(#p313a9eef8a)" style="fill: #00bfff"/>
   </g>
   <g id="patch_39">
    <path d="M 389.75409 112.006847 
L 396.088332 112.006847 
L 396.088332 45.616755 
L 389.75409 45.616755 
z
" clip-path="url(#p313a9eef8a)" style="fill: #00bfff"/>
   </g>
   <g id="patch_40">
    <path d="M 396.088324 112.006847 
L 402.422567 112.006847 
L 402.422567 48.704669 
L 396.088324 48.704669 
z
" clip-path="url(#p313a9eef8a)" style="fill: #00bfff"/>
   </g>
   <g id="patch_41">
    <path d="M 402.422567 112.006847 
L 408.756809 112.006847 
L 408.756809 48.897665 
L 402.422567 48.897665 
z
" clip-path="url(#p313a9eef8a)" style="fill: #00bfff"/>
   </g>
   <g id="patch_42">
    <path d="M 408.756809 112.006847 
L 415.091052 112.006847 
L 415.091052 50.248624 
L 408.756809 50.248624 
z
" clip-path="url(#p313a9eef8a)" style="fill: #00bfff"/>
   </g>
   <g id="patch_43">
    <path d="M 415.091052 112.006847 
L 421.425295 112.006847 
L 421.425295 51.985574 
L 415.091052 51.985574 
z
" clip-path="url(#p313a9eef8a)" style="fill: #00bfff"/>
   </g>
   <g id="patch_44">
    <path d="M 421.425291 112.006847 
L 427.759533 112.006847 
L 427.759533 57.775407 
L 421.425291 57.775407 
z
" clip-path="url(#p313a9eef8a)" style="fill: #00bfff"/>
   </g>
   <g id="patch_45">
    <path d="M 427.759529 112.006847 
L 434.093772 112.006847 
L 434.093772 82.285701 
L 427.759529 82.285701 
z
" clip-path="url(#p313a9eef8a)" style="fill: #00bfff"/>
   </g>
   <g id="patch_46">
    <path d="M 434.093772 112.006847 
L 440.428014 112.006847 
L 440.428014 80.741747 
L 434.093772 80.741747 
z
" clip-path="url(#p313a9eef8a)" style="fill: #00bfff"/>
   </g>
   <g id="patch_47">
    <path d="M 440.428014 112.006847 
L 446.762257 112.006847 
L 446.762257 87.496552 
L 440.428014 87.496552 
z
" clip-path="url(#p313a9eef8a)" style="fill: #00bfff"/>
   </g>
   <g id="patch_48">
    <path d="M 446.762253 112.006847 
L 453.096495 112.006847 
L 453.096495 95.988308 
L 446.762253 95.988308 
z
" clip-path="url(#p313a9eef8a)" style="fill: #00bfff"/>
   </g>
   <g id="patch_49">
    <path d="M 453.096495 112.006847 
L 459.430738 112.006847 
L 459.430738 103.129102 
L 453.096495 103.129102 
z
" clip-path="url(#p313a9eef8a)" style="fill: #00bfff"/>
   </g>
   <g id="patch_50">
    <path d="M 459.430736 112.006847 
L 465.764978 112.006847 
L 465.764978 99.848196 
L 459.430736 99.848196 
z
" clip-path="url(#p313a9eef8a)" style="fill: #00bfff"/>
   </g>
   <g id="patch_51">
    <path d="M 465.764977 112.006847 
L 472.09922 112.006847 
L 472.09922 105.63803 
L 465.764977 105.63803 
z
" clip-path="url(#p313a9eef8a)" style="fill: #00bfff"/>
   </g>
   <g id="patch_52">
    <path d="M 472.099219 112.006847 
L 478.433462 112.006847 
L 478.433462 105.252041 
L 472.099219 105.252041 
z
" clip-path="url(#p313a9eef8a)" style="fill: #00bfff"/>
   </g>
   <g id="patch_53">
    <path d="M 478.43346 112.006847 
L 484.767702 112.006847 
L 484.767702 104.480063 
L 478.43346 104.480063 
z
" clip-path="url(#p313a9eef8a)" style="fill: #00bfff"/>
   </g>
   <g id="patch_54">
    <path d="M 484.7677 112.006847 
L 491.101943 112.006847 
L 491.101943 104.287069 
L 484.7677 104.287069 
z
" clip-path="url(#p313a9eef8a)" style="fill: #00bfff"/>
   </g>
   <g id="patch_55">
    <path d="M 491.101943 112.006847 
L 497.436185 112.006847 
L 497.436185 104.094075 
L 491.101943 104.094075 
z
" clip-path="url(#p313a9eef8a)" style="fill: #00bfff"/>
   </g>
   <g id="patch_56">
    <path d="M 497.436181 112.006847 
L 503.770424 112.006847 
L 503.770424 107.181986 
L 497.436181 107.181986 
z
" clip-path="url(#p313a9eef8a)" style="fill: #00bfff"/>
   </g>
   <g id="patch_57">
    <path d="M 503.770424 112.006847 
L 510.104666 112.006847 
L 510.104666 106.795997 
L 503.770424 106.795997 
z
" clip-path="url(#p313a9eef8a)" style="fill: #00bfff"/>
   </g>
   <g id="patch_58">
    <path d="M 510.104664 112.006847 
L 516.438909 112.006847 
L 516.438909 102.936108 
L 510.104664 102.936108 
z
" clip-path="url(#p313a9eef8a)" style="fill: #00bfff"/>
   </g>
   <g id="patch_59">
    <path d="M 516.438905 112.006847 
L 522.773147 112.006847 
L 522.773147 103.90108 
L 516.438905 103.90108 
z
" clip-path="url(#p313a9eef8a)" style="fill: #00bfff"/>
   </g>
   <g id="patch_60">
    <path d="M 522.773147 112.006847 
L 529.10739 112.006847 
L 529.10739 104.480063 
L 522.773147 104.480063 
z
" clip-path="url(#p313a9eef8a)" style="fill: #00bfff"/>
   </g>
   <g id="patch_61">
    <path d="M 529.107386 112.006847 
L 535.441629 112.006847 
L 535.441629 104.866052 
L 529.107386 104.866052 
z
" clip-path="url(#p313a9eef8a)" style="fill: #00bfff"/>
   </g>
   <g id="patch_62">
    <path d="M 535.441629 112.006847 
L 541.775871 112.006847 
L 541.775871 104.866052 
L 535.441629 104.866052 
z
" clip-path="url(#p313a9eef8a)" style="fill: #00bfff"/>
   </g>
   <g id="patch_63">
    <path d="M 541.775871 112.006847 
L 548.110114 112.006847 
L 548.110114 106.217014 
L 541.775871 106.217014 
z
" clip-path="url(#p313a9eef8a)" style="fill: #00bfff"/>
   </g>
   <g id="patch_64">
    <path d="M 548.11011 112.006847 
L 554.444356 112.006847 
L 554.444356 105.831024 
L 548.11011 105.831024 
z
" clip-path="url(#p313a9eef8a)" style="fill: #00bfff"/>
   </g>
   <g id="patch_65">
    <path d="M 554.444372 112.006847 
L 560.778615 112.006847 
L 560.778615 106.217014 
L 554.444372 106.217014 
z
" clip-path="url(#p313a9eef8a)" style="fill: #00bfff"/>
   </g>
   <g id="patch_66">
    <path d="M 560.778615 112.006847 
L 567.112857 112.006847 
L 567.112857 106.024019 
L 560.778615 106.024019 
z
" clip-path="url(#p313a9eef8a)" style="fill: #00bfff"/>
   </g>
   <g id="patch_67">
    <path d="M 567.112857 112.006847 
L 573.4471 112.006847 
L 573.4471 107.181986 
L 567.112857 107.181986 
z
" clip-path="url(#p313a9eef8a)" style="fill: #00bfff"/>
   </g>
   <g id="patch_68">
    <path d="M 573.4471 112.006847 
L 579.781342 112.006847 
L 579.781342 106.603002 
L 573.4471 106.603002 
z
" clip-path="url(#p313a9eef8a)" style="fill: #00bfff"/>
   </g>
   <g id="patch_69">
    <path d="M 579.781334 112.006847 
L 586.115577 112.006847 
L 586.115577 106.217014 
L 579.781334 106.217014 
z
" clip-path="url(#p313a9eef8a)" style="fill: #00bfff"/>
   </g>
   <g id="patch_70">
    <path d="M 586.115577 112.006847 
L 592.449819 112.006847 
L 592.449819 105.63803 
L 586.115577 105.63803 
z
" clip-path="url(#p313a9eef8a)" style="fill: #00bfff"/>
   </g>
   <g id="patch_71">
    <path d="M 592.449819 112.006847 
L 598.784062 112.006847 
L 598.784062 106.988991 
L 592.449819 106.988991 
z
" clip-path="url(#p313a9eef8a)" style="fill: #00bfff"/>
   </g>
   <g id="patch_72">
    <path d="M 598.784054 112.006847 
L 605.118297 112.006847 
L 605.118297 108.339952 
L 598.784054 108.339952 
z
" clip-path="url(#p313a9eef8a)" style="fill: #00bfff"/>
   </g>
   <g id="patch_73">
    <path d="M 605.118304 112.006847 
L 611.452547 112.006847 
L 611.452547 107.37498 
L 605.118304 107.37498 
z
" clip-path="url(#p313a9eef8a)" style="fill: #00bfff"/>
   </g>
   <g id="patch_74">
    <path d="M 611.452547 112.006847 
L 617.786797 112.006847 
L 617.786797 106.410008 
L 611.452547 106.410008 
z
" clip-path="url(#p313a9eef8a)" style="fill: #00bfff"/>
   </g>
   <g id="patch_75">
    <path d="M 617.786782 112.006847 
L 624.121024 112.006847 
L 624.121024 108.532947 
L 617.786782 108.532947 
z
" clip-path="url(#p313a9eef8a)" style="fill: #00bfff"/>
   </g>
   <g id="patch_76">
    <path d="M 624.121024 112.006847 
L 630.455267 112.006847 
L 630.455267 107.37498 
L 624.121024 107.37498 
z
" clip-path="url(#p313a9eef8a)" style="fill: #00bfff"/>
   </g>
   <g id="patch_77">
    <path d="M 630.455267 112.006847 
L 636.789509 112.006847 
L 636.789509 109.690914 
L 630.455267 109.690914 
z
" clip-path="url(#p313a9eef8a)" style="fill: #00bfff"/>
   </g>
   <g id="patch_78">
    <path d="M 636.789509 112.006847 
L 643.123752 112.006847 
L 643.123752 106.410008 
L 636.789509 106.410008 
z
" clip-path="url(#p313a9eef8a)" style="fill: #00bfff"/>
   </g>
   <g id="patch_79">
    <path d="M 643.123752 112.006847 
L 649.457994 112.006847 
L 649.457994 103.708085 
L 643.123752 103.708085 
z
" clip-path="url(#p313a9eef8a)" style="fill: #00bfff"/>
   </g>
   <g id="patch_80">
    <path d="M 649.457994 112.006847 
L 655.792237 112.006847 
L 655.792237 105.059047 
L 649.457994 105.059047 
z
" clip-path="url(#p313a9eef8a)" style="fill: #00bfff"/>
   </g>
   <g id="patch_81">
    <path d="M 655.792237 112.006847 
L 662.126479 112.006847 
L 662.126479 105.059047 
L 655.792237 105.059047 
z
" clip-path="url(#p313a9eef8a)" style="fill: #00bfff"/>
   </g>
   <g id="patch_82">
    <path d="M 662.126479 112.006847 
L 668.460722 112.006847 
L 668.460722 102.16413 
L 662.126479 102.16413 
z
" clip-path="url(#p313a9eef8a)" style="fill: #00bfff"/>
   </g>
   <g id="patch_83">
    <path d="M 668.460722 112.006847 
L 674.794964 112.006847 
L 674.794964 101.778141 
L 668.460722 101.778141 
z
" clip-path="url(#p313a9eef8a)" style="fill: #00bfff"/>
   </g>
   <g id="patch_84">
    <path d="M 674.794964 112.006847 
L 681.129207 112.006847 
L 681.129207 101.006163 
L 674.794964 101.006163 
z
" clip-path="url(#p313a9eef8a)" style="fill: #00bfff"/>
   </g>
   <g id="patch_85">
    <path d="M 681.129207 112.006847 
L 687.46345 112.006847 
L 687.46345 100.813169 
L 681.129207 100.813169 
z
" clip-path="url(#p313a9eef8a)" style="fill: #00bfff"/>
   </g>
   <g id="patch_86">
    <path d="M 687.463434 112.006847 
L 693.797676 112.006847 
L 693.797676 98.111247 
L 687.463434 98.111247 
z
" clip-path="url(#p313a9eef8a)" style="fill: #00bfff"/>
   </g>
   <g id="patch_87">
    <path d="M 693.797676 112.006847 
L 700.131919 112.006847 
L 700.131919 102.743114 
L 693.797676 102.743114 
z
" clip-path="url(#p313a9eef8a)" style="fill: #00bfff"/>
   </g>
   <g id="patch_88">
    <path d="M 700.131919 112.006847 
L 706.466161 112.006847 
L 706.466161 98.883224 
L 700.131919 98.883224 
z
" clip-path="url(#p313a9eef8a)" style="fill: #00bfff"/>
   </g>
   <g id="patch_89">
    <path d="M 706.466161 112.006847 
L 712.800404 112.006847 
L 712.800404 97.339268 
L 706.466161 97.339268 
z
" clip-path="url(#p313a9eef8a)" style="fill: #00bfff"/>
   </g>
   <g id="patch_90">
    <path d="M 712.800404 112.006847 
L 719.134646 112.006847 
L 719.134646 99.269213 
L 712.800404 99.269213 
z
" clip-path="url(#p313a9eef8a)" style="fill: #00bfff"/>
   </g>
   <g id="patch_91">
    <path d="M 719.134646 112.006847 
L 725.468889 112.006847 
L 725.468889 97.918253 
L 719.134646 97.918253 
z
" clip-path="url(#p313a9eef8a)" style="fill: #00bfff"/>
   </g>
   <g id="patch_92">
    <path d="M 725.468889 112.006847 
L 731.803131 112.006847 
L 731.803131 96.760285 
L 725.468889 96.760285 
z
" clip-path="url(#p313a9eef8a)" style="fill: #00bfff"/>
   </g>
   <g id="patch_93">
    <path d="M 731.803131 112.006847 
L 738.137374 112.006847 
L 738.137374 90.970452 
L 731.803131 90.970452 
z
" clip-path="url(#p313a9eef8a)" style="fill: #00bfff"/>
   </g>
   <g id="patch_94">
    <path d="M 738.137374 112.006847 
L 744.471617 112.006847 
L 744.471617 97.725257 
L 738.137374 97.725257 
z
" clip-path="url(#p313a9eef8a)" style="fill: #00bfff"/>
   </g>
   <g id="patch_95">
    <path d="M 744.471617 112.006847 
L 750.805859 112.006847 
L 750.805859 96.95328 
L 744.471617 96.95328 
z
" clip-path="url(#p313a9eef8a)" style="fill: #00bfff"/>
   </g>
   <g id="patch_96">
    <path d="M 750.805859 112.006847 
L 757.140102 112.006847 
L 757.140102 100.041192 
L 750.805859 100.041192 
z
" clip-path="url(#p313a9eef8a)" style="fill: #00bfff"/>
   </g>
   <g id="patch_97">
    <path d="M 757.140102 112.006847 
L 763.474344 112.006847 
L 763.474344 101.199158 
L 757.140102 101.199158 
z
" clip-path="url(#p313a9eef8a)" style="fill: #00bfff"/>
   </g>
   <g id="patch_98">
    <path d="M 763.474344 112.006847 
L 769.808587 112.006847 
L 769.808587 102.936108 
L 763.474344 102.936108 
z
" clip-path="url(#p313a9eef8a)" style="fill: #00bfff"/>
   </g>
   <g id="patch_99">
    <path d="M 769.808587 112.006847 
L 776.142829 112.006847 
L 776.142829 103.90108 
L 769.808587 103.90108 
z
" clip-path="url(#p313a9eef8a)" style="fill: #00bfff"/>
   </g>
   <g id="patch_100">
    <path d="M 776.142829 112.006847 
L 782.477072 112.006847 
L 782.477072 103.129102 
L 776.142829 103.129102 
z
" clip-path="url(#p313a9eef8a)" style="fill: #00bfff"/>
   </g>
   <g id="patch_101">
    <path d="M 782.477072 112.006847 
L 788.811314 112.006847 
L 788.811314 108.146958 
L 782.477072 108.146958 
z
" clip-path="url(#p313a9eef8a)" style="fill: #00bfff"/>
   </g>
   <g id="patch_102">
    <path d="M 788.811314 112.006847 
L 795.145557 112.006847 
L 795.145557 105.63803 
L 788.811314 105.63803 
z
" clip-path="url(#p313a9eef8a)" style="fill: #00bfff"/>
   </g>
   <g id="patch_103">
    <path d="M 795.145557 112.006847 
L 801.479799 112.006847 
L 801.479799 104.094075 
L 795.145557 104.094075 
z
" clip-path="url(#p313a9eef8a)" style="fill: #00bfff"/>
   </g>
   <g id="patch_104">
    <path d="M 801.479799 112.006847 
L 807.814042 112.006847 
L 807.814042 106.410008 
L 801.479799 106.410008 
z
" clip-path="url(#p313a9eef8a)" style="fill: #00bfff"/>
   </g>
   <g id="patch_105">
    <path d="M 807.81401 112.006847 
L 814.148253 112.006847 
L 814.148253 110.269897 
L 807.81401 110.269897 
z
" clip-path="url(#p313a9eef8a)" style="fill: #00bfff"/>
   </g>
   <g id="patch_106">
    <path d="M 814.148253 112.006847 
L 820.482495 112.006847 
L 820.482495 111.427864 
L 814.148253 111.427864 
z
" clip-path="url(#p313a9eef8a)" style="fill: #00bfff"/>
   </g>
   <g id="patch_107">
    <path d="M 820.482495 112.006847 
L 826.816738 112.006847 
L 826.816738 112.006847 
L 820.482495 112.006847 
z
" clip-path="url(#p313a9eef8a)" style="fill: #00bfff"/>
   </g>
   <g id="patch_108">
    <path d="M 826.816738 112.006847 
L 833.15098 112.006847 
L 833.15098 111.813852 
L 826.816738 111.813852 
z
" clip-path="url(#p313a9eef8a)" style="fill: #00bfff"/>
   </g>
   <g id="line2d_12">
    <path d="M 199.726853 112.006847 
L 199.726853 19.427409 
" clip-path="url(#p313a9eef8a)" style="fill: none; stroke: #ff0000; stroke-width: 1.5; stroke-linecap: square"/>
   </g>
   <g id="line2d_13">
    <path d="M 833.15098 112.006847 
L 833.15098 19.427409 
" clip-path="url(#p313a9eef8a)" style="fill: none; stroke: #ff0000; stroke-width: 1.5; stroke-linecap: square"/>
   </g>
   <g id="line2d_14">
    <path d="M 10.699986 111.546539 
L 19.173723 111.459988 
L 27.64746 111.359445 
L 36.121197 111.243107 
L 44.594933 111.109027 
L 53.06867 110.955114 
L 61.542407 110.779142 
L 70.016144 110.57876 
L 78.489881 110.351505 
L 86.963618 110.094824 
L 95.437354 109.806095 
L 103.911091 109.482662 
L 112.384828 109.121862 
L 120.858565 108.721069 
L 129.332302 108.277736 
L 137.806039 107.789447 
L 146.279807 107.253969 
L 154.753544 106.669312 
L 163.227281 106.033784 
L 171.701018 105.346055 
L 180.174754 104.605224 
L 188.648491 103.810877 
L 197.122228 102.963149 
L 205.595965 102.062778 
L 214.069702 101.111164 
L 222.543439 100.110402 
L 231.017175 99.063333 
L 239.490912 97.973557 
L 247.964649 96.84545 
L 256.438386 95.684177 
L 264.912123 94.495659 
L 273.385859 93.286572 
L 281.859596 92.064273 
L 290.333333 90.836765 
L 298.80707 89.612613 
L 307.280807 88.400858 
L 315.754544 87.210909 
L 324.22828 86.052437 
L 332.702017 84.935233 
L 341.175754 83.86909 
L 349.649499 82.863657 
L 358.123236 81.928285 
L 366.596972 81.071903 
L 375.070717 80.302854 
L 383.544454 79.628779 
L 392.018191 79.056485 
L 400.491928 78.591819 
L 408.965665 78.239592 
L 417.439401 78.003473 
L 425.913138 77.885936 
L 434.386875 77.888219 
L 442.860616 78.010301 
L 451.334353 78.250894 
L 459.808089 78.607475 
L 468.28183 79.076331 
L 476.755567 79.652614 
L 485.229269 80.330431 
L 493.703007 81.102947 
L 502.176746 81.962496 
L 510.650483 82.900699 
L 519.124219 83.908618 
L 527.597956 84.976881 
L 536.071697 86.095834 
L 544.545434 87.255685 
L 553.019175 88.446638 
L 561.492911 89.659036 
L 569.966648 90.883478 
L 578.440385 92.110942 
L 586.914122 93.332881 
L 595.387859 94.541319 
L 603.861604 95.728914 
L 612.33534 96.889029 
L 620.809069 98.015767 
L 629.282806 99.103992 
L 637.756543 100.14936 
L 646.23028 101.148299 
L 654.704017 102.097996 
L 663.177753 102.996385 
L 671.65149 103.842091 
L 680.125227 104.634398 
L 688.59898 105.373199 
L 697.072717 106.058921 
L 705.546453 106.692486 
L 714.02019 107.275239 
L 722.493927 107.808882 
L 730.967664 108.295416 
L 739.441416 108.737085 
L 747.915153 109.136309 
L 756.38889 109.495638 
L 764.862627 109.817702 
L 773.336364 110.105162 
L 781.810101 110.360676 
L 790.283837 110.586862 
L 798.757574 110.786271 
L 807.231311 110.961361 
L 815.705048 111.114479 
L 824.178785 111.247846 
L 832.652522 111.363548 
L 841.126258 111.463527 
L 849.599995 111.549579 
" clip-path="url(#p313a9eef8a)" style="fill: none; stroke: #1f77b4; stroke-width: 1.5; stroke-linecap: square"/>
   </g>
   <g id="text_10">
    <g id="patch_109">
     <path d="M 136.087458 36.734506 
L 152.39527 36.734506 
Q 155.39527 36.734506 155.39527 33.734506 
L 155.39527 24.056381 
Q 155.39527 21.056381 152.39527 21.056381 
L 136.087458 21.056381 
Q 133.087458 21.056381 133.087458 24.056381 
L 133.087458 33.734506 
Q 133.087458 36.734506 136.087458 36.734506 
z
" style="fill: #ffffff"/>
    </g>
    <!-- -2σ -->
    <g transform="translate(136.087458 31.654819) scale(0.1 -0.1)">
     <use xlink:href="#DejaVuSans-2d"/>
     <use xlink:href="#DejaVuSans-32" x="36.083984"/>
     <use xlink:href="#DejaVuSans-3c3" x="99.707031"/>
    </g>
   </g>
   <g id="text_11">
    <g id="patch_110">
     <path d="M 282.142393 36.734506 
L 292.087706 36.734506 
Q 295.087706 36.734506 295.087706 33.734506 
L 295.087706 24.056381 
Q 295.087706 21.056381 292.087706 21.056381 
L 282.142393 21.056381 
Q 279.142393 21.056381 279.142393 24.056381 
L 279.142393 33.734506 
Q 279.142393 36.734506 282.142393 36.734506 
z
" style="fill: #ffffff"/>
    </g>
    <!-- -σ -->
    <g transform="translate(282.142393 31.654819) scale(0.1 -0.1)">
     <use xlink:href="#DejaVuSans-2d"/>
     <use xlink:href="#DejaVuSans-3c3" x="36.083984"/>
    </g>
   </g>
   <g id="text_12">
    <g id="patch_111">
     <path d="M 426.309829 36.734506 
L 433.667641 36.734506 
Q 436.667641 36.734506 436.667641 33.734506 
L 436.667641 24.056381 
Q 436.667641 21.056381 433.667641 21.056381 
L 426.309829 21.056381 
Q 423.309829 21.056381 423.309829 24.056381 
L 423.309829 33.734506 
Q 423.309829 36.734506 426.309829 36.734506 
z
" style="fill: #ffffff"/>
    </g>
    <!-- μ -->
    <g transform="translate(426.309829 31.643881) scale(0.1 -0.1)">
     <defs>
      <path id="DejaVuSans-Bold-3bc" d="M 544 -1338 
L 544 3500 
L 1672 3500 
L 1672 1466 
Q 1672 1103 1828 926 
Q 1984 750 2303 750 
Q 2625 750 2781 926 
Q 2938 1103 2938 1466 
L 2938 3500 
L 4063 3500 
L 4063 1159 
Q 4063 938 4114 850 
Q 4166 763 4288 763 
Q 4344 763 4395 778 
Q 4447 794 4506 831 
L 4506 50 
Q 4341 -22 4195 -56 
Q 4050 -91 3909 -91 
Q 3631 -91 3454 26 
Q 3278 144 3169 403 
Q 3022 156 2811 32 
Q 2600 -91 2322 -91 
Q 2091 -91 1928 -17 
Q 1766 56 1672 206 
L 1672 -1338 
L 544 -1338 
z
" transform="scale(0.015625)"/>
     </defs>
     <use xlink:href="#DejaVuSans-Bold-3bc"/>
    </g>
   </g>
   <g id="text_13">
    <g id="patch_112">
     <path d="M 565.503827 36.734506 
L 580.221014 36.734506 
Q 583.221014 36.734506 583.221014 33.734506 
L 583.221014 24.056381 
Q 583.221014 21.056381 580.221014 21.056381 
L 565.503827 21.056381 
Q 562.503827 21.056381 562.503827 24.056381 
L 562.503827 33.734506 
Q 562.503827 36.734506 565.503827 36.734506 
z
" style="fill: #ffffff"/>
    </g>
    <!-- +σ -->
    <g transform="translate(565.503827 31.654819) scale(0.1 -0.1)">
     <defs>
      <path id="DejaVuSans-2b" d="M 2944 4013 
L 2944 2272 
L 4684 2272 
L 4684 1741 
L 2944 1741 
L 2944 0 
L 2419 0 
L 2419 1741 
L 678 1741 
L 678 2272 
L 2419 2272 
L 2419 4013 
L 2944 4013 
z
" transform="scale(0.015625)"/>
     </defs>
     <use xlink:href="#DejaVuSans-2b"/>
     <use xlink:href="#DejaVuSans-3c3" x="83.789062"/>
    </g>
   </g>
   <g id="text_14">
    <g id="patch_113">
     <path d="M 705.196263 36.734506 
L 726.27595 36.734506 
Q 729.27595 36.734506 729.27595 33.734506 
L 729.27595 24.056381 
Q 729.27595 21.056381 726.27595 21.056381 
L 705.196263 21.056381 
Q 702.196263 21.056381 702.196263 24.056381 
L 702.196263 33.734506 
Q 702.196263 36.734506 705.196263 36.734506 
z
" style="fill: #ffffff"/>
    </g>
    <!-- +2σ -->
    <g transform="translate(705.196263 31.654819) scale(0.1 -0.1)">
     <use xlink:href="#DejaVuSans-2b"/>
     <use xlink:href="#DejaVuSans-32" x="83.789062"/>
     <use xlink:href="#DejaVuSans-3c3" x="147.412109"/>
    </g>
   </g>
  </g>
 </g>
 <defs>
  <clipPath id="p313a9eef8a">
   <rect x="10.7" y="19.427409" width="838.9" height="92.579438"/>
  </clipPath>
 </defs>
</svg>
