<?xml version="1.0" encoding="utf-8" standalone="no"?>
<!DOCTYPE svg PUBLIC "-//W3C//DTD SVG 1.1//EN"
  "http://www.w3.org/Graphics/SVG/1.1/DTD/svg11.dtd">
<svg xmlns:xlink="http://www.w3.org/1999/xlink" width="856.8pt" height="135.884972pt" viewBox="0 0 856.8 135.884972" xmlns="http://www.w3.org/2000/svg" version="1.1">
 <metadata>
  <rdf:RDF xmlns:dc="http://purl.org/dc/elements/1.1/" xmlns:cc="http://creativecommons.org/ns#" xmlns:rdf="http://www.w3.org/1999/02/22-rdf-syntax-ns#">
   <cc:Work>
    <dc:type rdf:resource="http://purl.org/dc/dcmitype/StillImage"/>
    <dc:date>2022-10-26T12:54:48.893471</dc:date>
    <dc:format>image/svg+xml</dc:format>
    <dc:creator>
     <cc:Agent>
      <dc:title>Matplotlib v3.6.1, https://matplotlib.org/</dc:title>
     </cc:Agent>
    </dc:creator>
   </cc:Work>
  </rdf:RDF>
 </metadata>
 <defs>
  <style type="text/css">*{stroke-linejoin: round; stroke-linecap: butt}</style>
 </defs>
 <g id="figure_1">
  <g id="patch_1">
   <path d="M 0 135.884972 
L 856.8 135.884972 
L 856.8 0 
L 0 0 
z
" style="fill: #ffffff"/>
  </g>
  <g id="axes_1">
   <g id="patch_2">
    <path d="M 10.7 112.006847 
L 849.6 112.006847 
L 849.6 19.427409 
L 10.7 19.427409 
z
" style="fill: #ffffff"/>
   </g>
   <g id="matplotlib.axis_1">
    <g id="xtick_1">
     <g id="line2d_1">
      <defs>
       <path id="mf31b5d4a05" d="M 0 0 
L 0 3.5 
" style="stroke: #000000; stroke-width: 0.8"/>
      </defs>
      <g>
       <use xlink:href="#mf31b5d4a05" x="46.807733" y="112.006847" style="stroke: #000000; stroke-width: 0.8"/>
      </g>
     </g>
     <g id="text_1">
      <!-- 1 -->
      <g transform="translate(43.626483 126.605284) scale(0.1 -0.1)">
       <defs>
        <path id="DejaVuSans-31" d="M 794 531 
L 1825 531 
L 1825 4091 
L 703 3866 
L 703 4441 
L 1819 4666 
L 2450 4666 
L 2450 531 
L 3481 531 
L 3481 0 
L 794 0 
L 794 531 
z
" transform="scale(0.015625)"/>
       </defs>
       <use xlink:href="#DejaVuSans-31"/>
      </g>
     </g>
    </g>
    <g id="xtick_2">
     <g id="line2d_2">
      <g>
       <use xlink:href="#mf31b5d4a05" x="216.278248" y="112.006847" style="stroke: #000000; stroke-width: 0.8"/>
      </g>
     </g>
     <g id="text_2">
      <!-- 2 -->
      <g transform="translate(213.096998 126.605284) scale(0.1 -0.1)">
       <defs>
        <path id="DejaVuSans-32" d="M 1228 531 
L 3431 531 
L 3431 0 
L 469 0 
L 469 531 
Q 828 903 1448 1529 
Q 2069 2156 2228 2338 
Q 2531 2678 2651 2914 
Q 2772 3150 2772 3378 
Q 2772 3750 2511 3984 
Q 2250 4219 1831 4219 
Q 1534 4219 1204 4116 
Q 875 4013 500 3803 
L 500 4441 
Q 881 4594 1212 4672 
Q 1544 4750 1819 4750 
Q 2544 4750 2975 4387 
Q 3406 4025 3406 3419 
Q 3406 3131 3298 2873 
Q 3191 2616 2906 2266 
Q 2828 2175 2409 1742 
Q 1991 1309 1228 531 
z
" transform="scale(0.015625)"/>
       </defs>
       <use xlink:href="#DejaVuSans-32"/>
      </g>
     </g>
    </g>
    <g id="xtick_3">
     <g id="line2d_3">
      <g>
       <use xlink:href="#mf31b5d4a05" x="385.748763" y="112.006847" style="stroke: #000000; stroke-width: 0.8"/>
      </g>
     </g>
     <g id="text_3">
      <!-- 3 -->
      <g transform="translate(382.567513 126.605284) scale(0.1 -0.1)">
       <defs>
        <path id="DejaVuSans-33" d="M 2597 2516 
Q 3050 2419 3304 2112 
Q 3559 1806 3559 1356 
Q 3559 666 3084 287 
Q 2609 -91 1734 -91 
Q 1441 -91 1130 -33 
Q 819 25 488 141 
L 488 750 
Q 750 597 1062 519 
Q 1375 441 1716 441 
Q 2309 441 2620 675 
Q 2931 909 2931 1356 
Q 2931 1769 2642 2001 
Q 2353 2234 1838 2234 
L 1294 2234 
L 1294 2753 
L 1863 2753 
Q 2328 2753 2575 2939 
Q 2822 3125 2822 3475 
Q 2822 3834 2567 4026 
Q 2313 4219 1838 4219 
Q 1578 4219 1281 4162 
Q 984 4106 628 3988 
L 628 4550 
Q 988 4650 1302 4700 
Q 1616 4750 1894 4750 
Q 2613 4750 3031 4423 
Q 3450 4097 3450 3541 
Q 3450 3153 3228 2886 
Q 3006 2619 2597 2516 
z
" transform="scale(0.015625)"/>
       </defs>
       <use xlink:href="#DejaVuSans-33"/>
      </g>
     </g>
    </g>
    <g id="xtick_4">
     <g id="line2d_4">
      <g>
       <use xlink:href="#mf31b5d4a05" x="555.219278" y="112.006847" style="stroke: #000000; stroke-width: 0.8"/>
      </g>
     </g>
     <g id="text_4">
      <!-- 4 -->
      <g transform="translate(552.038028 126.605284) scale(0.1 -0.1)">
       <defs>
        <path id="DejaVuSans-34" d="M 2419 4116 
L 825 1625 
L 2419 1625 
L 2419 4116 
z
M 2253 4666 
L 3047 4666 
L 3047 1625 
L 3713 1625 
L 3713 1100 
L 3047 1100 
L 3047 0 
L 2419 0 
L 2419 1100 
L 313 1100 
L 313 1709 
L 2253 4666 
z
" transform="scale(0.015625)"/>
       </defs>
       <use xlink:href="#DejaVuSans-34"/>
      </g>
     </g>
    </g>
    <g id="xtick_5">
     <g id="line2d_5">
      <g>
       <use xlink:href="#mf31b5d4a05" x="724.689793" y="112.006847" style="stroke: #000000; stroke-width: 0.8"/>
      </g>
     </g>
     <g id="text_5">
      <!-- 5 -->
      <g transform="translate(721.508543 126.605284) scale(0.1 -0.1)">
       <defs>
        <path id="DejaVuSans-35" d="M 691 4666 
L 3169 4666 
L 3169 4134 
L 1269 4134 
L 1269 2991 
Q 1406 3038 1543 3061 
Q 1681 3084 1819 3084 
Q 2600 3084 3056 2656 
Q 3513 2228 3513 1497 
Q 3513 744 3044 326 
Q 2575 -91 1722 -91 
Q 1428 -91 1123 -41 
Q 819 9 494 109 
L 494 744 
Q 775 591 1075 516 
Q 1375 441 1709 441 
Q 2250 441 2565 725 
Q 2881 1009 2881 1497 
Q 2881 1984 2565 2268 
Q 2250 2553 1709 2553 
Q 1456 2553 1204 2497 
Q 953 2441 691 2322 
L 691 4666 
z
" transform="scale(0.015625)"/>
       </defs>
       <use xlink:href="#DejaVuSans-35"/>
      </g>
     </g>
    </g>
   </g>
   <g id="matplotlib.axis_2"/>
   <g id="line2d_6">
    <path d="M 138.068304 112.006847 
L 138.068304 19.427409 
" clip-path="url(#pca5f5b7d87)" style="fill: none; stroke: #000000; stroke-width: 1.5; stroke-linecap: square"/>
   </g>
   <g id="line2d_7">
    <path d="M 319.940988 112.006847 
L 319.940988 19.427409 
" clip-path="url(#pca5f5b7d87)" style="fill: none; stroke: #000000; stroke-width: 1.5; stroke-linecap: square"/>
   </g>
   <g id="line2d_8">
    <path d="M 501.813671 112.006847 
L 501.813671 19.427409 
" clip-path="url(#pca5f5b7d87)" style="fill: none; stroke: #000000; stroke-width: 1.5; stroke-linecap: square"/>
   </g>
   <g id="line2d_9">
    <path d="M 683.686355 112.006847 
L 683.686355 19.427409 
" clip-path="url(#pca5f5b7d87)" style="fill: none; stroke: #000000; stroke-width: 1.5; stroke-linecap: square"/>
   </g>
   <g id="patch_3">
    <path d="M 10.7 112.006847 
L 10.7 19.427409 
" style="fill: none; stroke: #000000; stroke-width: 0.8; stroke-linejoin: miter; stroke-linecap: square"/>
   </g>
   <g id="patch_4">
    <path d="M 849.6 112.006847 
L 849.6 19.427409 
" style="fill: none; stroke: #000000; stroke-width: 0.8; stroke-linejoin: miter; stroke-linecap: square"/>
   </g>
   <g id="patch_5">
    <path d="M 10.7 112.006847 
L 849.6 112.006847 
" style="fill: none; stroke: #000000; stroke-width: 0.8; stroke-linejoin: miter; stroke-linecap: square"/>
   </g>
   <g id="patch_6">
    <path d="M 10.7 19.427409 
L 849.6 19.427409 
" style="fill: none; stroke: #000000; stroke-width: 0.8; stroke-linejoin: miter; stroke-linecap: square"/>
   </g>
   <g id="text_6">
    <g id="patch_7">
     <path d="M 28.82649 93.649159 
L 28.82649 37.785097 
Q 28.82649 34.785097 25.82649 34.785097 
L 16.148365 34.785097 
Q 13.148365 34.785097 13.148365 37.785097 
L 13.148365 93.649159 
Q 13.148365 96.649159 16.148365 96.649159 
L 25.82649 96.649159 
Q 28.82649 96.649159 28.82649 93.649159 
z
" style="fill: #ffffff"/>
    </g>
    <!-- min=0.882 -->
    <g transform="translate(23.746802 93.649159) rotate(-90) scale(0.1 -0.1)">
     <defs>
      <path id="DejaVuSans-6d" d="M 3328 2828 
Q 3544 3216 3844 3400 
Q 4144 3584 4550 3584 
Q 5097 3584 5394 3201 
Q 5691 2819 5691 2113 
L 5691 0 
L 5113 0 
L 5113 2094 
Q 5113 2597 4934 2840 
Q 4756 3084 4391 3084 
Q 3944 3084 3684 2787 
Q 3425 2491 3425 1978 
L 3425 0 
L 2847 0 
L 2847 2094 
Q 2847 2600 2669 2842 
Q 2491 3084 2119 3084 
Q 1678 3084 1418 2786 
Q 1159 2488 1159 1978 
L 1159 0 
L 581 0 
L 581 3500 
L 1159 3500 
L 1159 2956 
Q 1356 3278 1631 3431 
Q 1906 3584 2284 3584 
Q 2666 3584 2933 3390 
Q 3200 3197 3328 2828 
z
" transform="scale(0.015625)"/>
      <path id="DejaVuSans-69" d="M 603 3500 
L 1178 3500 
L 1178 0 
L 603 0 
L 603 3500 
z
M 603 4863 
L 1178 4863 
L 1178 4134 
L 603 4134 
L 603 4863 
z
" transform="scale(0.015625)"/>
      <path id="DejaVuSans-6e" d="M 3513 2113 
L 3513 0 
L 2938 0 
L 2938 2094 
Q 2938 2591 2744 2837 
Q 2550 3084 2163 3084 
Q 1697 3084 1428 2787 
Q 1159 2491 1159 1978 
L 1159 0 
L 581 0 
L 581 3500 
L 1159 3500 
L 1159 2956 
Q 1366 3272 1645 3428 
Q 1925 3584 2291 3584 
Q 2894 3584 3203 3211 
Q 3513 2838 3513 2113 
z
" transform="scale(0.015625)"/>
      <path id="DejaVuSans-3d" d="M 678 2906 
L 4684 2906 
L 4684 2381 
L 678 2381 
L 678 2906 
z
M 678 1631 
L 4684 1631 
L 4684 1100 
L 678 1100 
L 678 1631 
z
" transform="scale(0.015625)"/>
      <path id="DejaVuSans-30" d="M 2034 4250 
Q 1547 4250 1301 3770 
Q 1056 3291 1056 2328 
Q 1056 1369 1301 889 
Q 1547 409 2034 409 
Q 2525 409 2770 889 
Q 3016 1369 3016 2328 
Q 3016 3291 2770 3770 
Q 2525 4250 2034 4250 
z
M 2034 4750 
Q 2819 4750 3233 4129 
Q 3647 3509 3647 2328 
Q 3647 1150 3233 529 
Q 2819 -91 2034 -91 
Q 1250 -91 836 529 
Q 422 1150 422 2328 
Q 422 3509 836 4129 
Q 1250 4750 2034 4750 
z
" transform="scale(0.015625)"/>
      <path id="DejaVuSans-2e" d="M 684 794 
L 1344 794 
L 1344 0 
L 684 0 
L 684 794 
z
" transform="scale(0.015625)"/>
      <path id="DejaVuSans-38" d="M 2034 2216 
Q 1584 2216 1326 1975 
Q 1069 1734 1069 1313 
Q 1069 891 1326 650 
Q 1584 409 2034 409 
Q 2484 409 2743 651 
Q 3003 894 3003 1313 
Q 3003 1734 2745 1975 
Q 2488 2216 2034 2216 
z
M 1403 2484 
Q 997 2584 770 2862 
Q 544 3141 544 3541 
Q 544 4100 942 4425 
Q 1341 4750 2034 4750 
Q 2731 4750 3128 4425 
Q 3525 4100 3525 3541 
Q 3525 3141 3298 2862 
Q 3072 2584 2669 2484 
Q 3125 2378 3379 2068 
Q 3634 1759 3634 1313 
Q 3634 634 3220 271 
Q 2806 -91 2034 -91 
Q 1263 -91 848 271 
Q 434 634 434 1313 
Q 434 1759 690 2068 
Q 947 2378 1403 2484 
z
M 1172 3481 
Q 1172 3119 1398 2916 
Q 1625 2713 2034 2713 
Q 2441 2713 2670 2916 
Q 2900 3119 2900 3481 
Q 2900 3844 2670 4047 
Q 2441 4250 2034 4250 
Q 1625 4250 1398 4047 
Q 1172 3844 1172 3481 
z
" transform="scale(0.015625)"/>
     </defs>
     <use xlink:href="#DejaVuSans-6d"/>
     <use xlink:href="#DejaVuSans-69" x="97.412109"/>
     <use xlink:href="#DejaVuSans-6e" x="125.195312"/>
     <use xlink:href="#DejaVuSans-3d" x="188.574219"/>
     <use xlink:href="#DejaVuSans-30" x="272.363281"/>
     <use xlink:href="#DejaVuSans-2e" x="335.986328"/>
     <use xlink:href="#DejaVuSans-38" x="367.773438"/>
     <use xlink:href="#DejaVuSans-38" x="431.396484"/>
     <use xlink:href="#DejaVuSans-32" x="495.019531"/>
    </g>
   </g>
   <g id="text_7">
    <g id="patch_8">
     <path d="M 847.829105 95.114784 
L 847.829105 36.319472 
Q 847.829105 33.319472 844.829105 33.319472 
L 835.15098 33.319472 
Q 832.15098 33.319472 832.15098 36.319472 
L 832.15098 95.114784 
Q 832.15098 98.114784 835.15098 98.114784 
L 844.829105 98.114784 
Q 847.829105 98.114784 847.829105 95.114784 
z
" style="fill: #ffffff"/>
    </g>
    <!-- max=5.640 -->
    <g transform="translate(842.749418 95.114784) rotate(-90) scale(0.1 -0.1)">
     <defs>
      <path id="DejaVuSans-61" d="M 2194 1759 
Q 1497 1759 1228 1600 
Q 959 1441 959 1056 
Q 959 750 1161 570 
Q 1363 391 1709 391 
Q 2188 391 2477 730 
Q 2766 1069 2766 1631 
L 2766 1759 
L 2194 1759 
z
M 3341 1997 
L 3341 0 
L 2766 0 
L 2766 531 
Q 2569 213 2275 61 
Q 1981 -91 1556 -91 
Q 1019 -91 701 211 
Q 384 513 384 1019 
Q 384 1609 779 1909 
Q 1175 2209 1959 2209 
L 2766 2209 
L 2766 2266 
Q 2766 2663 2505 2880 
Q 2244 3097 1772 3097 
Q 1472 3097 1187 3025 
Q 903 2953 641 2809 
L 641 3341 
Q 956 3463 1253 3523 
Q 1550 3584 1831 3584 
Q 2591 3584 2966 3190 
Q 3341 2797 3341 1997 
z
" transform="scale(0.015625)"/>
      <path id="DejaVuSans-78" d="M 3513 3500 
L 2247 1797 
L 3578 0 
L 2900 0 
L 1881 1375 
L 863 0 
L 184 0 
L 1544 1831 
L 300 3500 
L 978 3500 
L 1906 2253 
L 2834 3500 
L 3513 3500 
z
" transform="scale(0.015625)"/>
      <path id="DejaVuSans-36" d="M 2113 2584 
Q 1688 2584 1439 2293 
Q 1191 2003 1191 1497 
Q 1191 994 1439 701 
Q 1688 409 2113 409 
Q 2538 409 2786 701 
Q 3034 994 3034 1497 
Q 3034 2003 2786 2293 
Q 2538 2584 2113 2584 
z
M 3366 4563 
L 3366 3988 
Q 3128 4100 2886 4159 
Q 2644 4219 2406 4219 
Q 1781 4219 1451 3797 
Q 1122 3375 1075 2522 
Q 1259 2794 1537 2939 
Q 1816 3084 2150 3084 
Q 2853 3084 3261 2657 
Q 3669 2231 3669 1497 
Q 3669 778 3244 343 
Q 2819 -91 2113 -91 
Q 1303 -91 875 529 
Q 447 1150 447 2328 
Q 447 3434 972 4092 
Q 1497 4750 2381 4750 
Q 2619 4750 2861 4703 
Q 3103 4656 3366 4563 
z
" transform="scale(0.015625)"/>
     </defs>
     <use xlink:href="#DejaVuSans-6d"/>
     <use xlink:href="#DejaVuSans-61" x="97.412109"/>
     <use xlink:href="#DejaVuSans-78" x="158.691406"/>
     <use xlink:href="#DejaVuSans-3d" x="217.871094"/>
     <use xlink:href="#DejaVuSans-35" x="301.660156"/>
     <use xlink:href="#DejaVuSans-2e" x="365.283203"/>
     <use xlink:href="#DejaVuSans-36" x="397.070312"/>
     <use xlink:href="#DejaVuSans-34" x="460.693359"/>
     <use xlink:href="#DejaVuSans-30" x="524.316406"/>
    </g>
   </g>
   <g id="text_8">
    <!-- 10000 samples of tensor[3, 196, 196] n=115248 x∈[0.882, 5.640] μ=2.612 σ=1.073 -->
    <g transform="translate(10.7 14.798437) scale(0.1 -0.1)">
     <defs>
      <path id="DejaVuSans-20" transform="scale(0.015625)"/>
      <path id="DejaVuSans-73" d="M 2834 3397 
L 2834 2853 
Q 2591 2978 2328 3040 
Q 2066 3103 1784 3103 
Q 1356 3103 1142 2972 
Q 928 2841 928 2578 
Q 928 2378 1081 2264 
Q 1234 2150 1697 2047 
L 1894 2003 
Q 2506 1872 2764 1633 
Q 3022 1394 3022 966 
Q 3022 478 2636 193 
Q 2250 -91 1575 -91 
Q 1294 -91 989 -36 
Q 684 19 347 128 
L 347 722 
Q 666 556 975 473 
Q 1284 391 1588 391 
Q 1994 391 2212 530 
Q 2431 669 2431 922 
Q 2431 1156 2273 1281 
Q 2116 1406 1581 1522 
L 1381 1569 
Q 847 1681 609 1914 
Q 372 2147 372 2553 
Q 372 3047 722 3315 
Q 1072 3584 1716 3584 
Q 2034 3584 2315 3537 
Q 2597 3491 2834 3397 
z
" transform="scale(0.015625)"/>
      <path id="DejaVuSans-70" d="M 1159 525 
L 1159 -1331 
L 581 -1331 
L 581 3500 
L 1159 3500 
L 1159 2969 
Q 1341 3281 1617 3432 
Q 1894 3584 2278 3584 
Q 2916 3584 3314 3078 
Q 3713 2572 3713 1747 
Q 3713 922 3314 415 
Q 2916 -91 2278 -91 
Q 1894 -91 1617 61 
Q 1341 213 1159 525 
z
M 3116 1747 
Q 3116 2381 2855 2742 
Q 2594 3103 2138 3103 
Q 1681 3103 1420 2742 
Q 1159 2381 1159 1747 
Q 1159 1113 1420 752 
Q 1681 391 2138 391 
Q 2594 391 2855 752 
Q 3116 1113 3116 1747 
z
" transform="scale(0.015625)"/>
      <path id="DejaVuSans-6c" d="M 603 4863 
L 1178 4863 
L 1178 0 
L 603 0 
L 603 4863 
z
" transform="scale(0.015625)"/>
      <path id="DejaVuSans-65" d="M 3597 1894 
L 3597 1613 
L 953 1613 
Q 991 1019 1311 708 
Q 1631 397 2203 397 
Q 2534 397 2845 478 
Q 3156 559 3463 722 
L 3463 178 
Q 3153 47 2828 -22 
Q 2503 -91 2169 -91 
Q 1331 -91 842 396 
Q 353 884 353 1716 
Q 353 2575 817 3079 
Q 1281 3584 2069 3584 
Q 2775 3584 3186 3129 
Q 3597 2675 3597 1894 
z
M 3022 2063 
Q 3016 2534 2758 2815 
Q 2500 3097 2075 3097 
Q 1594 3097 1305 2825 
Q 1016 2553 972 2059 
L 3022 2063 
z
" transform="scale(0.015625)"/>
      <path id="DejaVuSans-6f" d="M 1959 3097 
Q 1497 3097 1228 2736 
Q 959 2375 959 1747 
Q 959 1119 1226 758 
Q 1494 397 1959 397 
Q 2419 397 2687 759 
Q 2956 1122 2956 1747 
Q 2956 2369 2687 2733 
Q 2419 3097 1959 3097 
z
M 1959 3584 
Q 2709 3584 3137 3096 
Q 3566 2609 3566 1747 
Q 3566 888 3137 398 
Q 2709 -91 1959 -91 
Q 1206 -91 779 398 
Q 353 888 353 1747 
Q 353 2609 779 3096 
Q 1206 3584 1959 3584 
z
" transform="scale(0.015625)"/>
      <path id="DejaVuSans-66" d="M 2375 4863 
L 2375 4384 
L 1825 4384 
Q 1516 4384 1395 4259 
Q 1275 4134 1275 3809 
L 1275 3500 
L 2222 3500 
L 2222 3053 
L 1275 3053 
L 1275 0 
L 697 0 
L 697 3053 
L 147 3053 
L 147 3500 
L 697 3500 
L 697 3744 
Q 697 4328 969 4595 
Q 1241 4863 1831 4863 
L 2375 4863 
z
" transform="scale(0.015625)"/>
      <path id="DejaVuSans-74" d="M 1172 4494 
L 1172 3500 
L 2356 3500 
L 2356 3053 
L 1172 3053 
L 1172 1153 
Q 1172 725 1289 603 
Q 1406 481 1766 481 
L 2356 481 
L 2356 0 
L 1766 0 
Q 1100 0 847 248 
Q 594 497 594 1153 
L 594 3053 
L 172 3053 
L 172 3500 
L 594 3500 
L 594 4494 
L 1172 4494 
z
" transform="scale(0.015625)"/>
      <path id="DejaVuSans-72" d="M 2631 2963 
Q 2534 3019 2420 3045 
Q 2306 3072 2169 3072 
Q 1681 3072 1420 2755 
Q 1159 2438 1159 1844 
L 1159 0 
L 581 0 
L 581 3500 
L 1159 3500 
L 1159 2956 
Q 1341 3275 1631 3429 
Q 1922 3584 2338 3584 
Q 2397 3584 2469 3576 
Q 2541 3569 2628 3553 
L 2631 2963 
z
" transform="scale(0.015625)"/>
      <path id="DejaVuSans-5b" d="M 550 4863 
L 1875 4863 
L 1875 4416 
L 1125 4416 
L 1125 -397 
L 1875 -397 
L 1875 -844 
L 550 -844 
L 550 4863 
z
" transform="scale(0.015625)"/>
      <path id="DejaVuSans-2c" d="M 750 794 
L 1409 794 
L 1409 256 
L 897 -744 
L 494 -744 
L 750 256 
L 750 794 
z
" transform="scale(0.015625)"/>
      <path id="DejaVuSans-39" d="M 703 97 
L 703 672 
Q 941 559 1184 500 
Q 1428 441 1663 441 
Q 2288 441 2617 861 
Q 2947 1281 2994 2138 
Q 2813 1869 2534 1725 
Q 2256 1581 1919 1581 
Q 1219 1581 811 2004 
Q 403 2428 403 3163 
Q 403 3881 828 4315 
Q 1253 4750 1959 4750 
Q 2769 4750 3195 4129 
Q 3622 3509 3622 2328 
Q 3622 1225 3098 567 
Q 2575 -91 1691 -91 
Q 1453 -91 1209 -44 
Q 966 3 703 97 
z
M 1959 2075 
Q 2384 2075 2632 2365 
Q 2881 2656 2881 3163 
Q 2881 3666 2632 3958 
Q 2384 4250 1959 4250 
Q 1534 4250 1286 3958 
Q 1038 3666 1038 3163 
Q 1038 2656 1286 2365 
Q 1534 2075 1959 2075 
z
" transform="scale(0.015625)"/>
      <path id="DejaVuSans-5d" d="M 1947 4863 
L 1947 -844 
L 622 -844 
L 622 -397 
L 1369 -397 
L 1369 4416 
L 622 4416 
L 622 4863 
L 1947 4863 
z
" transform="scale(0.015625)"/>
      <path id="DejaVuSans-2208" d="M 1072 1959 
Q 1094 1728 1291 1353 
Q 1522 919 1959 675 
Q 2388 438 2850 434 
L 5028 434 
L 5028 -63 
L 2850 -63 
Q 2250 -63 1695 246 
Q 1141 556 844 1106 
Q 547 1656 547 2241 
Q 547 2819 844 3369 
Q 1141 3919 1695 4231 
Q 2250 4544 2850 4544 
L 5028 4544 
L 5028 4047 
L 2850 4047 
Q 2388 4044 1959 3803 
Q 1525 3556 1291 3125 
Q 1091 2750 1063 2459 
L 5028 2459 
L 5028 1959 
L 1072 1959 
z
" transform="scale(0.015625)"/>
      <path id="DejaVuSans-3bc" d="M 544 -1331 
L 544 3500 
L 1119 3500 
L 1119 1325 
Q 1119 872 1334 640 
Q 1550 409 1972 409 
Q 2434 409 2667 671 
Q 2900 934 2900 1459 
L 2900 3500 
L 3475 3500 
L 3475 806 
Q 3475 619 3529 530 
Q 3584 441 3700 441 
Q 3728 441 3778 458 
Q 3828 475 3916 513 
L 3916 50 
Q 3788 -22 3673 -56 
Q 3559 -91 3450 -91 
Q 3234 -91 3106 31 
Q 2978 153 2931 403 
Q 2775 156 2548 32 
Q 2322 -91 2016 -91 
Q 1697 -91 1473 31 
Q 1250 153 1119 397 
L 1119 -1331 
L 544 -1331 
z
" transform="scale(0.015625)"/>
      <path id="DejaVuSans-3c3" d="M 1959 3044 
Q 1484 3044 1228 2700 
Q 959 2341 959 1747 
Q 959 1119 1226 758 
Q 1494 397 1959 397 
Q 2419 397 2687 759 
Q 2956 1122 2956 1747 
Q 2956 2319 2688 2700 
Q 2441 3044 1959 3044 
z
M 1959 3500 
L 3869 3500 
L 3869 2925 
L 3225 2925 
Q 3566 2438 3566 1747 
Q 3566 888 3138 400 
Q 2709 -91 1959 -91 
Q 1206 -91 781 400 
Q 353 888 353 1747 
Q 353 2613 781 3097 
Q 1134 3500 1959 3500 
z
" transform="scale(0.015625)"/>
      <path id="DejaVuSans-37" d="M 525 4666 
L 3525 4666 
L 3525 4397 
L 1831 0 
L 1172 0 
L 2766 4134 
L 525 4134 
L 525 4666 
z
" transform="scale(0.015625)"/>
     </defs>
     <use xlink:href="#DejaVuSans-31"/>
     <use xlink:href="#DejaVuSans-30" x="63.623047"/>
     <use xlink:href="#DejaVuSans-30" x="127.246094"/>
     <use xlink:href="#DejaVuSans-30" x="190.869141"/>
     <use xlink:href="#DejaVuSans-30" x="254.492188"/>
     <use xlink:href="#DejaVuSans-20" x="318.115234"/>
     <use xlink:href="#DejaVuSans-73" x="349.902344"/>
     <use xlink:href="#DejaVuSans-61" x="402.001953"/>
     <use xlink:href="#DejaVuSans-6d" x="463.28125"/>
     <use xlink:href="#DejaVuSans-70" x="560.693359"/>
     <use xlink:href="#DejaVuSans-6c" x="624.169922"/>
     <use xlink:href="#DejaVuSans-65" x="651.953125"/>
     <use xlink:href="#DejaVuSans-73" x="713.476562"/>
     <use xlink:href="#DejaVuSans-20" x="765.576172"/>
     <use xlink:href="#DejaVuSans-6f" x="797.363281"/>
     <use xlink:href="#DejaVuSans-66" x="858.544922"/>
     <use xlink:href="#DejaVuSans-20" x="893.75"/>
     <use xlink:href="#DejaVuSans-74" x="925.537109"/>
     <use xlink:href="#DejaVuSans-65" x="964.746094"/>
     <use xlink:href="#DejaVuSans-6e" x="1026.269531"/>
     <use xlink:href="#DejaVuSans-73" x="1089.648438"/>
     <use xlink:href="#DejaVuSans-6f" x="1141.748047"/>
     <use xlink:href="#DejaVuSans-72" x="1202.929688"/>
     <use xlink:href="#DejaVuSans-5b" x="1244.042969"/>
     <use xlink:href="#DejaVuSans-33" x="1283.056641"/>
     <use xlink:href="#DejaVuSans-2c" x="1346.679688"/>
     <use xlink:href="#DejaVuSans-20" x="1378.466797"/>
     <use xlink:href="#DejaVuSans-31" x="1410.253906"/>
     <use xlink:href="#DejaVuSans-39" x="1473.876953"/>
     <use xlink:href="#DejaVuSans-36" x="1537.5"/>
     <use xlink:href="#DejaVuSans-2c" x="1601.123047"/>
     <use xlink:href="#DejaVuSans-20" x="1632.910156"/>
     <use xlink:href="#DejaVuSans-31" x="1664.697266"/>
     <use xlink:href="#DejaVuSans-39" x="1728.320312"/>
     <use xlink:href="#DejaVuSans-36" x="1791.943359"/>
     <use xlink:href="#DejaVuSans-5d" x="1855.566406"/>
     <use xlink:href="#DejaVuSans-20" x="1894.580078"/>
     <use xlink:href="#DejaVuSans-6e" x="1926.367188"/>
     <use xlink:href="#DejaVuSans-3d" x="1989.746094"/>
     <use xlink:href="#DejaVuSans-31" x="2073.535156"/>
     <use xlink:href="#DejaVuSans-31" x="2137.158203"/>
     <use xlink:href="#DejaVuSans-35" x="2200.78125"/>
     <use xlink:href="#DejaVuSans-32" x="2264.404297"/>
     <use xlink:href="#DejaVuSans-34" x="2328.027344"/>
     <use xlink:href="#DejaVuSans-38" x="2391.650391"/>
     <use xlink:href="#DejaVuSans-20" x="2455.273438"/>
     <use xlink:href="#DejaVuSans-78" x="2487.060547"/>
     <use xlink:href="#DejaVuSans-2208" x="2546.240234"/>
     <use xlink:href="#DejaVuSans-5b" x="2633.349609"/>
     <use xlink:href="#DejaVuSans-30" x="2672.363281"/>
     <use xlink:href="#DejaVuSans-2e" x="2735.986328"/>
     <use xlink:href="#DejaVuSans-38" x="2767.773438"/>
     <use xlink:href="#DejaVuSans-38" x="2831.396484"/>
     <use xlink:href="#DejaVuSans-32" x="2895.019531"/>
     <use xlink:href="#DejaVuSans-2c" x="2958.642578"/>
     <use xlink:href="#DejaVuSans-20" x="2990.429688"/>
     <use xlink:href="#DejaVuSans-35" x="3022.216797"/>
     <use xlink:href="#DejaVuSans-2e" x="3085.839844"/>
     <use xlink:href="#DejaVuSans-36" x="3117.626953"/>
     <use xlink:href="#DejaVuSans-34" x="3181.25"/>
     <use xlink:href="#DejaVuSans-30" x="3244.873047"/>
     <use xlink:href="#DejaVuSans-5d" x="3308.496094"/>
     <use xlink:href="#DejaVuSans-20" x="3347.509766"/>
     <use xlink:href="#DejaVuSans-3bc" x="3379.296875"/>
     <use xlink:href="#DejaVuSans-3d" x="3442.919922"/>
     <use xlink:href="#DejaVuSans-32" x="3526.708984"/>
     <use xlink:href="#DejaVuSans-2e" x="3590.332031"/>
     <use xlink:href="#DejaVuSans-36" x="3622.119141"/>
     <use xlink:href="#DejaVuSans-31" x="3685.742188"/>
     <use xlink:href="#DejaVuSans-32" x="3749.365234"/>
     <use xlink:href="#DejaVuSans-20" x="3812.988281"/>
     <use xlink:href="#DejaVuSans-3c3" x="3844.775391"/>
     <use xlink:href="#DejaVuSans-3d" x="3908.154297"/>
     <use xlink:href="#DejaVuSans-31" x="3991.943359"/>
     <use xlink:href="#DejaVuSans-2e" x="4055.566406"/>
     <use xlink:href="#DejaVuSans-30" x="4087.353516"/>
     <use xlink:href="#DejaVuSans-37" x="4150.976562"/>
     <use xlink:href="#DejaVuSans-33" x="4214.599609"/>
    </g>
   </g>
   <g id="patch_9">
    <path d="M 26.82649 112.006847 
L 34.889736 112.006847 
L 34.889736 112.006847 
L 26.82649 112.006847 
z
" clip-path="url(#pca5f5b7d87)" style="fill: #00bfff"/>
   </g>
   <g id="patch_10">
    <path d="M 34.889736 112.006847 
L 42.952982 112.006847 
L 42.952982 111.222109 
L 34.889736 111.222109 
z
" clip-path="url(#pca5f5b7d87)" style="fill: #00bfff"/>
   </g>
   <g id="patch_11">
    <path d="M 42.952982 112.006847 
L 51.016228 112.006847 
L 51.016228 111.222109 
L 42.952982 111.222109 
z
" clip-path="url(#pca5f5b7d87)" style="fill: #00bfff"/>
   </g>
   <g id="patch_12">
    <path d="M 51.016228 112.006847 
L 59.079474 112.006847 
L 59.079474 108.671711 
L 51.016228 108.671711 
z
" clip-path="url(#pca5f5b7d87)" style="fill: #00bfff"/>
   </g>
   <g id="patch_13">
    <path d="M 59.079474 112.006847 
L 67.14272 112.006847 
L 67.14272 107.690789 
L 59.079474 107.690789 
z
" clip-path="url(#pca5f5b7d87)" style="fill: #00bfff"/>
   </g>
   <g id="patch_14">
    <path d="M 67.14272 112.006847 
L 75.205967 112.006847 
L 75.205967 104.159469 
L 67.14272 104.159469 
z
" clip-path="url(#pca5f5b7d87)" style="fill: #00bfff"/>
   </g>
   <g id="patch_15">
    <path d="M 75.205967 112.006847 
L 83.269213 112.006847 
L 83.269213 101.020518 
L 75.205967 101.020518 
z
" clip-path="url(#pca5f5b7d87)" style="fill: #00bfff"/>
   </g>
   <g id="patch_16">
    <path d="M 83.269192 112.006847 
L 91.332439 112.006847 
L 91.332439 99.451042 
L 83.269192 99.451042 
z
" clip-path="url(#pca5f5b7d87)" style="fill: #00bfff"/>
   </g>
   <g id="patch_17">
    <path d="M 91.332439 112.006847 
L 99.395685 112.006847 
L 99.395685 97.685383 
L 91.332439 97.685383 
z
" clip-path="url(#pca5f5b7d87)" style="fill: #00bfff"/>
   </g>
   <g id="patch_18">
    <path d="M 99.395685 112.006847 
L 107.458931 112.006847 
L 107.458931 90.034189 
L 99.395685 90.034189 
z
" clip-path="url(#pca5f5b7d87)" style="fill: #00bfff"/>
   </g>
   <g id="patch_19">
    <path d="M 107.458931 112.006847 
L 115.522177 112.006847 
L 115.522177 87.679977 
L 107.458931 87.679977 
z
" clip-path="url(#pca5f5b7d87)" style="fill: #00bfff"/>
   </g>
   <g id="patch_20">
    <path d="M 115.522177 112.006847 
L 123.585423 112.006847 
L 123.585423 93.369325 
L 115.522177 93.369325 
z
" clip-path="url(#pca5f5b7d87)" style="fill: #00bfff"/>
   </g>
   <g id="patch_21">
    <path d="M 123.585423 112.006847 
L 131.648669 112.006847 
L 131.648669 82.579179 
L 123.585423 82.579179 
z
" clip-path="url(#pca5f5b7d87)" style="fill: #00bfff"/>
   </g>
   <g id="patch_22">
    <path d="M 131.648649 112.006847 
L 139.711895 112.006847 
L 139.711895 86.895237 
L 131.648649 86.895237 
z
" clip-path="url(#pca5f5b7d87)" style="fill: #00bfff"/>
   </g>
   <g id="patch_23">
    <path d="M 139.711895 112.006847 
L 147.775141 112.006847 
L 147.775141 85.521948 
L 139.711895 85.521948 
z
" clip-path="url(#pca5f5b7d87)" style="fill: #00bfff"/>
   </g>
   <g id="patch_24">
    <path d="M 147.775141 112.006847 
L 155.838387 112.006847 
L 155.838387 84.344839 
L 147.775141 84.344839 
z
" clip-path="url(#pca5f5b7d87)" style="fill: #00bfff"/>
   </g>
   <g id="patch_25">
    <path d="M 155.838387 112.006847 
L 163.901633 112.006847 
L 163.901633 75.908909 
L 155.838387 75.908909 
z
" clip-path="url(#pca5f5b7d87)" style="fill: #00bfff"/>
   </g>
   <g id="patch_26">
    <path d="M 163.901633 112.006847 
L 171.96488 112.006847 
L 171.96488 58.644678 
L 163.901633 58.644678 
z
" clip-path="url(#pca5f5b7d87)" style="fill: #00bfff"/>
   </g>
   <g id="patch_27">
    <path d="M 171.96488 112.006847 
L 180.028126 112.006847 
L 180.028126 76.889832 
L 171.96488 76.889832 
z
" clip-path="url(#pca5f5b7d87)" style="fill: #00bfff"/>
   </g>
   <g id="patch_28">
    <path d="M 180.028126 112.006847 
L 188.091372 112.006847 
L 188.091372 49.227825 
L 180.028126 49.227825 
z
" clip-path="url(#pca5f5b7d87)" style="fill: #00bfff"/>
   </g>
   <g id="patch_29">
    <path d="M 188.091372 112.006847 
L 196.154618 112.006847 
L 196.154618 47.854536 
L 188.091372 47.854536 
z
" clip-path="url(#pca5f5b7d87)" style="fill: #00bfff"/>
   </g>
   <g id="patch_30">
    <path d="M 196.154618 112.006847 
L 204.217864 112.006847 
L 204.217864 40.791895 
L 196.154618 40.791895 
z
" clip-path="url(#pca5f5b7d87)" style="fill: #00bfff"/>
   </g>
   <g id="patch_31">
    <path d="M 204.217864 112.006847 
L 212.28111 112.006847 
L 212.28111 71.789034 
L 204.217864 71.789034 
z
" clip-path="url(#pca5f5b7d87)" style="fill: #00bfff"/>
   </g>
   <g id="patch_32">
    <path d="M 212.28109 112.006847 
L 220.344356 112.006847 
L 220.344356 52.170594 
L 212.28109 52.170594 
z
" clip-path="url(#pca5f5b7d87)" style="fill: #00bfff"/>
   </g>
   <g id="patch_33">
    <path d="M 220.344356 112.006847 
L 228.407602 112.006847 
L 228.407602 60.80271 
L 220.344356 60.80271 
z
" clip-path="url(#pca5f5b7d87)" style="fill: #00bfff"/>
   </g>
   <g id="patch_34">
    <path d="M 228.407602 112.006847 
L 236.470848 112.006847 
L 236.470848 69.827191 
L 228.407602 69.827191 
z
" clip-path="url(#pca5f5b7d87)" style="fill: #00bfff"/>
   </g>
   <g id="patch_35">
    <path d="M 236.470848 112.006847 
L 244.534095 112.006847 
L 244.534095 50.404934 
L 236.470848 50.404934 
z
" clip-path="url(#pca5f5b7d87)" style="fill: #00bfff"/>
   </g>
   <g id="patch_36">
    <path d="M 244.534095 112.006847 
L 252.597341 112.006847 
L 252.597341 60.99889 
L 244.534095 60.99889 
z
" clip-path="url(#pca5f5b7d87)" style="fill: #00bfff"/>
   </g>
   <g id="patch_37">
    <path d="M 252.597341 112.006847 
L 260.660587 112.006847 
L 260.660587 49.031639 
L 252.597341 49.031639 
z
" clip-path="url(#pca5f5b7d87)" style="fill: #00bfff"/>
   </g>
   <g id="patch_38">
    <path d="M 260.660587 112.006847 
L 268.723833 112.006847 
L 268.723833 56.290466 
L 260.660587 56.290466 
z
" clip-path="url(#pca5f5b7d87)" style="fill: #00bfff"/>
   </g>
   <g id="patch_39">
    <path d="M 268.723833 112.006847 
L 276.787079 112.006847 
L 276.787079 45.107953 
L 268.723833 45.107953 
z
" clip-path="url(#pca5f5b7d87)" style="fill: #00bfff"/>
   </g>
   <g id="patch_40">
    <path d="M 276.787079 112.006847 
L 284.850325 112.006847 
L 284.850325 48.639273 
L 276.787079 48.639273 
z
" clip-path="url(#pca5f5b7d87)" style="fill: #00bfff"/>
   </g>
   <g id="patch_41">
    <path d="M 284.850325 112.006847 
L 292.913571 112.006847 
L 292.913571 55.113357 
L 284.850325 55.113357 
z
" clip-path="url(#pca5f5b7d87)" style="fill: #00bfff"/>
   </g>
   <g id="patch_42">
    <path d="M 292.913571 112.006847 
L 300.976817 112.006847 
L 300.976817 43.930844 
L 292.913571 43.930844 
z
" clip-path="url(#pca5f5b7d87)" style="fill: #00bfff"/>
   </g>
   <g id="patch_43">
    <path d="M 300.976817 112.006847 
L 309.040064 112.006847 
L 309.040064 43.734658 
L 300.976817 43.734658 
z
" clip-path="url(#pca5f5b7d87)" style="fill: #00bfff"/>
   </g>
   <g id="patch_44">
    <path d="M 309.040064 112.006847 
L 317.10331 112.006847 
L 317.10331 55.505729 
L 309.040064 55.505729 
z
" clip-path="url(#pca5f5b7d87)" style="fill: #00bfff"/>
   </g>
   <g id="patch_45">
    <path d="M 317.10331 112.006847 
L 325.166556 112.006847 
L 325.166556 82.18681 
L 317.10331 82.18681 
z
" clip-path="url(#pca5f5b7d87)" style="fill: #00bfff"/>
   </g>
   <g id="patch_46">
    <path d="M 325.166556 112.006847 
L 333.229802 112.006847 
L 333.229802 72.377589 
L 325.166556 72.377589 
z
" clip-path="url(#pca5f5b7d87)" style="fill: #00bfff"/>
   </g>
   <g id="patch_47">
    <path d="M 333.229802 112.006847 
L 341.293048 112.006847 
L 341.293048 89.053267 
L 333.229802 89.053267 
z
" clip-path="url(#pca5f5b7d87)" style="fill: #00bfff"/>
   </g>
   <g id="patch_48">
    <path d="M 341.293048 112.006847 
L 349.356294 112.006847 
L 349.356294 95.723538 
L 341.293048 95.723538 
z
" clip-path="url(#pca5f5b7d87)" style="fill: #00bfff"/>
   </g>
   <g id="patch_49">
    <path d="M 349.356254 112.006847 
L 357.4195 112.006847 
L 357.4195 102.197625 
L 349.356254 102.197625 
z
" clip-path="url(#pca5f5b7d87)" style="fill: #00bfff"/>
   </g>
   <g id="patch_50">
    <path d="M 357.4195 112.006847 
L 365.482746 112.006847 
L 365.482746 99.647226 
L 357.4195 99.647226 
z
" clip-path="url(#pca5f5b7d87)" style="fill: #00bfff"/>
   </g>
   <g id="patch_51">
    <path d="M 365.482746 112.006847 
L 373.545992 112.006847 
L 373.545992 102.786178 
L 365.482746 102.786178 
z
" clip-path="url(#pca5f5b7d87)" style="fill: #00bfff"/>
   </g>
   <g id="patch_52">
    <path d="M 373.545992 112.006847 
L 381.609238 112.006847 
L 381.609238 103.570915 
L 373.545992 103.570915 
z
" clip-path="url(#pca5f5b7d87)" style="fill: #00bfff"/>
   </g>
   <g id="patch_53">
    <path d="M 381.609238 112.006847 
L 389.672484 112.006847 
L 389.672484 103.7671 
L 381.609238 103.7671 
z
" clip-path="url(#pca5f5b7d87)" style="fill: #00bfff"/>
   </g>
   <g id="patch_54">
    <path d="M 389.672484 112.006847 
L 397.73573 112.006847 
L 397.73573 105.925129 
L 389.672484 105.925129 
z
" clip-path="url(#pca5f5b7d87)" style="fill: #00bfff"/>
   </g>
   <g id="patch_55">
    <path d="M 397.73573 112.006847 
L 405.798977 112.006847 
L 405.798977 106.121314 
L 397.73573 106.121314 
z
" clip-path="url(#pca5f5b7d87)" style="fill: #00bfff"/>
   </g>
   <g id="patch_56">
    <path d="M 405.798977 112.006847 
L 413.862223 112.006847 
L 413.862223 102.786178 
L 405.798977 102.786178 
z
" clip-path="url(#pca5f5b7d87)" style="fill: #00bfff"/>
   </g>
   <g id="patch_57">
    <path d="M 413.862223 112.006847 
L 421.925469 112.006847 
L 421.925469 105.336576 
L 413.862223 105.336576 
z
" clip-path="url(#pca5f5b7d87)" style="fill: #00bfff"/>
   </g>
   <g id="patch_58">
    <path d="M 421.925469 112.006847 
L 429.988715 112.006847 
L 429.988715 103.374731 
L 421.925469 103.374731 
z
" clip-path="url(#pca5f5b7d87)" style="fill: #00bfff"/>
   </g>
   <g id="patch_59">
    <path d="M 429.988715 112.006847 
L 438.051961 112.006847 
L 438.051961 103.178547 
L 429.988715 103.178547 
z
" clip-path="url(#pca5f5b7d87)" style="fill: #00bfff"/>
   </g>
   <g id="patch_60">
    <path d="M 438.051961 112.006847 
L 446.115207 112.006847 
L 446.115207 106.513682 
L 438.051961 106.513682 
z
" clip-path="url(#pca5f5b7d87)" style="fill: #00bfff"/>
   </g>
   <g id="patch_61">
    <path d="M 446.115207 112.006847 
L 454.178453 112.006847 
L 454.178453 102.589994 
L 446.115207 102.589994 
z
" clip-path="url(#pca5f5b7d87)" style="fill: #00bfff"/>
   </g>
   <g id="patch_62">
    <path d="M 454.178453 112.006847 
L 462.241699 112.006847 
L 462.241699 105.728944 
L 454.178453 105.728944 
z
" clip-path="url(#pca5f5b7d87)" style="fill: #00bfff"/>
   </g>
   <g id="patch_63">
    <path d="M 462.241699 112.006847 
L 470.304945 112.006847 
L 470.304945 106.121314 
L 462.241699 106.121314 
z
" clip-path="url(#pca5f5b7d87)" style="fill: #00bfff"/>
   </g>
   <g id="patch_64">
    <path d="M 470.304945 112.006847 
L 478.368192 112.006847 
L 478.368192 104.748022 
L 470.304945 104.748022 
z
" clip-path="url(#pca5f5b7d87)" style="fill: #00bfff"/>
   </g>
   <g id="patch_65">
    <path d="M 478.368232 112.006847 
L 486.431478 112.006847 
L 486.431478 105.728944 
L 478.368232 105.728944 
z
" clip-path="url(#pca5f5b7d87)" style="fill: #00bfff"/>
   </g>
   <g id="patch_66">
    <path d="M 486.431478 112.006847 
L 494.494724 112.006847 
L 494.494724 104.944207 
L 486.431478 104.944207 
z
" clip-path="url(#pca5f5b7d87)" style="fill: #00bfff"/>
   </g>
   <g id="patch_67">
    <path d="M 494.494724 112.006847 
L 502.55797 112.006847 
L 502.55797 106.709867 
L 494.494724 106.709867 
z
" clip-path="url(#pca5f5b7d87)" style="fill: #00bfff"/>
   </g>
   <g id="patch_68">
    <path d="M 502.55797 112.006847 
L 510.621216 112.006847 
L 510.621216 106.906051 
L 502.55797 106.906051 
z
" clip-path="url(#pca5f5b7d87)" style="fill: #00bfff"/>
   </g>
   <g id="patch_69">
    <path d="M 510.621216 112.006847 
L 518.684463 112.006847 
L 518.684463 104.551838 
L 510.621216 104.551838 
z
" clip-path="url(#pca5f5b7d87)" style="fill: #00bfff"/>
   </g>
   <g id="patch_70">
    <path d="M 518.684463 112.006847 
L 526.747709 112.006847 
L 526.747709 105.140391 
L 518.684463 105.140391 
z
" clip-path="url(#pca5f5b7d87)" style="fill: #00bfff"/>
   </g>
   <g id="patch_71">
    <path d="M 526.747709 112.006847 
L 534.810955 112.006847 
L 534.810955 105.925129 
L 526.747709 105.925129 
z
" clip-path="url(#pca5f5b7d87)" style="fill: #00bfff"/>
   </g>
   <g id="patch_72">
    <path d="M 534.810955 112.006847 
L 542.874201 112.006847 
L 542.874201 108.083158 
L 534.810955 108.083158 
z
" clip-path="url(#pca5f5b7d87)" style="fill: #00bfff"/>
   </g>
   <g id="patch_73">
    <path d="M 542.874201 112.006847 
L 550.937447 112.006847 
L 550.937447 105.728944 
L 542.874201 105.728944 
z
" clip-path="url(#pca5f5b7d87)" style="fill: #00bfff"/>
   </g>
   <g id="patch_74">
    <path d="M 550.937447 112.006847 
L 559.000693 112.006847 
L 559.000693 107.29842 
L 550.937447 107.29842 
z
" clip-path="url(#pca5f5b7d87)" style="fill: #00bfff"/>
   </g>
   <g id="patch_75">
    <path d="M 559.000693 112.006847 
L 567.063899 112.006847 
L 567.063899 108.475527 
L 559.000693 108.475527 
z
" clip-path="url(#pca5f5b7d87)" style="fill: #00bfff"/>
   </g>
   <g id="patch_76">
    <path d="M 567.063899 112.006847 
L 575.127105 112.006847 
L 575.127105 108.279342 
L 567.063899 108.279342 
z
" clip-path="url(#pca5f5b7d87)" style="fill: #00bfff"/>
   </g>
   <g id="patch_77">
    <path d="M 575.127185 112.006847 
L 583.190472 112.006847 
L 583.190472 106.906051 
L 575.127185 106.906051 
z
" clip-path="url(#pca5f5b7d87)" style="fill: #00bfff"/>
   </g>
   <g id="patch_78">
    <path d="M 583.190391 112.006847 
L 591.253678 112.006847 
L 591.253678 105.140391 
L 583.190391 105.140391 
z
" clip-path="url(#pca5f5b7d87)" style="fill: #00bfff"/>
   </g>
   <g id="patch_79">
    <path d="M 591.253678 112.006847 
L 599.316883 112.006847 
L 599.316883 105.53276 
L 591.253678 105.53276 
z
" clip-path="url(#pca5f5b7d87)" style="fill: #00bfff"/>
   </g>
   <g id="patch_80">
    <path d="M 599.316883 112.006847 
L 607.380089 112.006847 
L 607.380089 106.906051 
L 599.316883 106.906051 
z
" clip-path="url(#pca5f5b7d87)" style="fill: #00bfff"/>
   </g>
   <g id="patch_81">
    <path d="M 607.38017 112.006847 
L 615.443456 112.006847 
L 615.443456 104.355653 
L 607.38017 104.355653 
z
" clip-path="url(#pca5f5b7d87)" style="fill: #00bfff"/>
   </g>
   <g id="patch_82">
    <path d="M 615.443376 112.006847 
L 623.506662 112.006847 
L 623.506662 103.963285 
L 615.443376 103.963285 
z
" clip-path="url(#pca5f5b7d87)" style="fill: #00bfff"/>
   </g>
   <g id="patch_83">
    <path d="M 623.506662 112.006847 
L 631.569868 112.006847 
L 631.569868 103.374731 
L 623.506662 103.374731 
z
" clip-path="url(#pca5f5b7d87)" style="fill: #00bfff"/>
   </g>
   <g id="patch_84">
    <path d="M 631.569868 112.006847 
L 639.633074 112.006847 
L 639.633074 100.039596 
L 631.569868 100.039596 
z
" clip-path="url(#pca5f5b7d87)" style="fill: #00bfff"/>
   </g>
   <g id="patch_85">
    <path d="M 639.633154 112.006847 
L 647.696441 112.006847 
L 647.696441 100.824334 
L 639.633154 100.824334 
z
" clip-path="url(#pca5f5b7d87)" style="fill: #00bfff"/>
   </g>
   <g id="patch_86">
    <path d="M 647.69636 112.006847 
L 655.759647 112.006847 
L 655.759647 99.843412 
L 647.69636 99.843412 
z
" clip-path="url(#pca5f5b7d87)" style="fill: #00bfff"/>
   </g>
   <g id="patch_87">
    <path d="M 655.759647 112.006847 
L 663.822852 112.006847 
L 663.822852 96.312091 
L 655.759647 96.312091 
z
" clip-path="url(#pca5f5b7d87)" style="fill: #00bfff"/>
   </g>
   <g id="patch_88">
    <path d="M 663.822852 112.006847 
L 671.886058 112.006847 
L 671.886058 101.412887 
L 663.822852 101.412887 
z
" clip-path="url(#pca5f5b7d87)" style="fill: #00bfff"/>
   </g>
   <g id="patch_89">
    <path d="M 671.886058 112.006847 
L 679.949264 112.006847 
L 679.949264 98.47012 
L 671.886058 98.47012 
z
" clip-path="url(#pca5f5b7d87)" style="fill: #00bfff"/>
   </g>
   <g id="patch_90">
    <path d="M 679.949264 112.006847 
L 688.012469 112.006847 
L 688.012469 101.412887 
L 679.949264 101.412887 
z
" clip-path="url(#pca5f5b7d87)" style="fill: #00bfff"/>
   </g>
   <g id="patch_91">
    <path d="M 688.01255 112.006847 
L 696.075837 112.006847 
L 696.075837 95.919723 
L 688.01255 95.919723 
z
" clip-path="url(#pca5f5b7d87)" style="fill: #00bfff"/>
   </g>
   <g id="patch_92">
    <path d="M 696.075756 112.006847 
L 704.139043 112.006847 
L 704.139043 93.761694 
L 696.075756 93.761694 
z
" clip-path="url(#pca5f5b7d87)" style="fill: #00bfff"/>
   </g>
   <g id="patch_93">
    <path d="M 704.139043 112.006847 
L 712.202248 112.006847 
L 712.202248 92.388402 
L 704.139043 92.388402 
z
" clip-path="url(#pca5f5b7d87)" style="fill: #00bfff"/>
   </g>
   <g id="patch_94">
    <path d="M 712.202248 112.006847 
L 720.265454 112.006847 
L 720.265454 99.843412 
L 712.202248 99.843412 
z
" clip-path="url(#pca5f5b7d87)" style="fill: #00bfff"/>
   </g>
   <g id="patch_95">
    <path d="M 720.265535 112.006847 
L 728.328821 112.006847 
L 728.328821 96.115907 
L 720.265535 96.115907 
z
" clip-path="url(#pca5f5b7d87)" style="fill: #00bfff"/>
   </g>
   <g id="patch_96">
    <path d="M 728.32874 112.006847 
L 736.392027 112.006847 
L 736.392027 97.293013 
L 728.32874 97.293013 
z
" clip-path="url(#pca5f5b7d87)" style="fill: #00bfff"/>
   </g>
   <g id="patch_97">
    <path d="M 736.392027 112.006847 
L 744.455233 112.006847 
L 744.455233 101.412887 
L 736.392027 101.412887 
z
" clip-path="url(#pca5f5b7d87)" style="fill: #00bfff"/>
   </g>
   <g id="patch_98">
    <path d="M 744.455233 112.006847 
L 752.518438 112.006847 
L 752.518438 103.178547 
L 744.455233 103.178547 
z
" clip-path="url(#pca5f5b7d87)" style="fill: #00bfff"/>
   </g>
   <g id="patch_99">
    <path d="M 752.518519 112.006847 
L 760.581806 112.006847 
L 760.581806 100.235781 
L 752.518519 100.235781 
z
" clip-path="url(#pca5f5b7d87)" style="fill: #00bfff"/>
   </g>
   <g id="patch_100">
    <path d="M 760.581725 112.006847 
L 768.645011 112.006847 
L 768.645011 101.805256 
L 760.581725 101.805256 
z
" clip-path="url(#pca5f5b7d87)" style="fill: #00bfff"/>
   </g>
   <g id="patch_101">
    <path d="M 768.645011 112.006847 
L 776.708217 112.006847 
L 776.708217 106.513682 
L 768.645011 106.513682 
z
" clip-path="url(#pca5f5b7d87)" style="fill: #00bfff"/>
   </g>
   <g id="patch_102">
    <path d="M 776.708217 112.006847 
L 784.771423 112.006847 
L 784.771423 101.609072 
L 776.708217 101.609072 
z
" clip-path="url(#pca5f5b7d87)" style="fill: #00bfff"/>
   </g>
   <g id="patch_103">
    <path d="M 784.771504 112.006847 
L 792.83479 112.006847 
L 792.83479 104.748022 
L 784.771504 104.748022 
z
" clip-path="url(#pca5f5b7d87)" style="fill: #00bfff"/>
   </g>
   <g id="patch_104">
    <path d="M 792.834709 112.006847 
L 800.897996 112.006847 
L 800.897996 106.513682 
L 792.834709 106.513682 
z
" clip-path="url(#pca5f5b7d87)" style="fill: #00bfff"/>
   </g>
   <g id="patch_105">
    <path d="M 800.897996 112.006847 
L 808.961202 112.006847 
L 808.961202 110.437371 
L 800.897996 110.437371 
z
" clip-path="url(#pca5f5b7d87)" style="fill: #00bfff"/>
   </g>
   <g id="patch_106">
    <path d="M 808.961282 112.006847 
L 817.024569 112.006847 
L 817.024569 111.222109 
L 808.961282 111.222109 
z
" clip-path="url(#pca5f5b7d87)" style="fill: #00bfff"/>
   </g>
   <g id="patch_107">
    <path d="M 817.024488 112.006847 
L 825.087775 112.006847 
L 825.087775 111.614478 
L 817.024488 111.614478 
z
" clip-path="url(#pca5f5b7d87)" style="fill: #00bfff"/>
   </g>
   <g id="patch_108">
    <path d="M 825.087775 112.006847 
L 833.15098 112.006847 
L 833.15098 112.006847 
L 825.087775 112.006847 
z
" clip-path="url(#pca5f5b7d87)" style="fill: #00bfff"/>
   </g>
   <g id="line2d_10">
    <path d="M 26.82649 112.006847 
L 26.82649 19.427409 
" clip-path="url(#pca5f5b7d87)" style="fill: none; stroke: #ff0000; stroke-width: 1.5; stroke-linecap: square"/>
   </g>
   <g id="line2d_11">
    <path d="M 833.15098 112.006847 
L 833.15098 19.427409 
" clip-path="url(#pca5f5b7d87)" style="fill: none; stroke: #ff0000; stroke-width: 1.5; stroke-linecap: square"/>
   </g>
   <g id="line2d_12">
    <path d="M 10.699998 103.83108 
L 19.173737 103.166648 
L 27.647477 102.468944 
L 36.121207 101.738491 
L 44.594947 100.976064 
L 53.068677 100.182726 
L 61.542417 99.359812 
L 70.016157 98.508959 
L 78.489897 97.632104 
L 86.963636 96.731477 
L 95.437376 95.809625 
L 103.911116 94.869383 
L 112.384836 93.913881 
L 120.858596 92.946518 
L 129.332316 91.97098 
L 137.806056 90.991181 
L 146.279796 90.011265 
L 154.753535 89.035579 
L 163.227275 88.068635 
L 171.701015 87.115079 
L 180.174755 86.17967 
L 188.648475 85.267216 
L 197.122215 84.382555 
L 205.595955 83.530509 
L 214.069694 82.715836 
L 222.543434 81.943189 
L 231.017154 81.21707 
L 239.490914 80.541793 
L 247.964634 79.921431 
L 256.438394 79.359782 
L 264.912114 78.860338 
L 273.385833 78.426228 
L 281.859593 78.060198 
L 290.333313 77.764595 
L 298.807073 77.541315 
L 307.280793 77.391802 
L 315.754553 77.31703 
L 324.228273 77.317477 
L 332.702033 77.393146 
L 341.175753 77.543543 
L 349.649472 77.767691 
L 358.123192 78.064143 
L 366.596952 78.430996 
L 375.070672 78.865902 
L 383.544432 79.366108 
L 392.018151 79.928474 
L 400.491912 80.549512 
L 408.965631 81.225421 
L 417.439391 81.952119 
L 425.913111 82.725292 
L 434.386871 83.54044 
L 442.860591 84.392898 
L 451.334351 85.277921 
L 459.808071 86.190675 
L 468.281831 87.126335 
L 476.75555 88.080074 
L 485.22927 89.047147 
L 493.70299 90.022907 
L 502.17675 91.002848 
L 510.65047 91.982618 
L 519.12423 92.958087 
L 527.597949 93.925324 
L 536.07171 94.880669 
L 544.545429 95.820709 
L 553.019189 96.742329 
L 561.492949 97.642686 
L 569.966669 98.519243 
L 578.440389 99.369774 
L 586.914109 100.192342 
L 595.387909 100.985326 
L 603.861629 101.747374 
L 612.335348 102.477442 
L 620.809068 103.17475 
L 629.282788 103.838784 
L 637.756507 104.469274 
L 646.230308 105.066183 
L 654.704028 105.629678 
L 663.177747 106.160129 
L 671.651467 106.658081 
L 680.125268 107.124238 
L 688.598987 107.559429 
L 697.072707 107.964616 
L 705.546427 108.340855 
L 714.020227 108.689286 
L 722.493947 109.011108 
L 730.967667 109.307579 
L 739.441386 109.579983 
L 747.915187 109.82963 
L 756.388906 110.05783 
L 764.862626 110.265895 
L 773.336346 110.45512 
L 781.810146 110.626779 
L 790.283866 110.782108 
L 798.757586 110.922312 
L 807.231305 111.048548 
L 815.705106 111.161928 
L 824.178745 111.263507 
L 832.652545 111.354293 
L 841.126265 111.435233 
L 849.599985 111.50722 
" clip-path="url(#pca5f5b7d87)" style="fill: none; stroke: #1f77b4; stroke-width: 1.5; stroke-linecap: square"/>
   </g>
   <g id="text_9">
    <g id="patch_109">
     <path d="M 133.095647 36.734506 
L 143.04096 36.734506 
Q 146.04096 36.734506 146.04096 33.734506 
L 146.04096 24.056381 
Q 146.04096 21.056381 143.04096 21.056381 
L 133.095647 21.056381 
Q 130.095647 21.056381 130.095647 24.056381 
L 130.095647 33.734506 
Q 130.095647 36.734506 133.095647 36.734506 
z
" style="fill: #ffffff"/>
    </g>
    <!-- -σ -->
    <g transform="translate(133.095647 31.654819) scale(0.1 -0.1)">
     <defs>
      <path id="DejaVuSans-2d" d="M 313 2009 
L 1997 2009 
L 1997 1497 
L 313 1497 
L 313 2009 
z
" transform="scale(0.015625)"/>
     </defs>
     <use xlink:href="#DejaVuSans-2d"/>
     <use xlink:href="#DejaVuSans-3c3" x="36.083984"/>
    </g>
   </g>
   <g id="text_10">
    <g id="patch_110">
     <path d="M 316.262081 36.734506 
L 323.619894 36.734506 
Q 326.619894 36.734506 326.619894 33.734506 
L 326.619894 24.056381 
Q 326.619894 21.056381 323.619894 21.056381 
L 316.262081 21.056381 
Q 313.262081 21.056381 313.262081 24.056381 
L 313.262081 33.734506 
Q 313.262081 36.734506 316.262081 36.734506 
z
" style="fill: #ffffff"/>
    </g>
    <!-- μ -->
    <g transform="translate(316.262081 31.643881) scale(0.1 -0.1)">
     <defs>
      <path id="DejaVuSans-Bold-3bc" d="M 544 -1338 
L 544 3500 
L 1672 3500 
L 1672 1466 
Q 1672 1103 1828 926 
Q 1984 750 2303 750 
Q 2625 750 2781 926 
Q 2938 1103 2938 1466 
L 2938 3500 
L 4063 3500 
L 4063 1159 
Q 4063 938 4114 850 
Q 4166 763 4288 763 
Q 4344 763 4395 778 
Q 4447 794 4506 831 
L 4506 50 
Q 4341 -22 4195 -56 
Q 4050 -91 3909 -91 
Q 3631 -91 3454 26 
Q 3278 144 3169 403 
Q 3022 156 2811 32 
Q 2600 -91 2322 -91 
Q 2091 -91 1928 -17 
Q 1766 56 1672 206 
L 1672 -1338 
L 544 -1338 
z
" transform="scale(0.015625)"/>
     </defs>
     <use xlink:href="#DejaVuSans-Bold-3bc"/>
    </g>
   </g>
   <g id="text_11">
    <g id="patch_111">
     <path d="M 494.455078 36.734506 
L 509.172265 36.734506 
Q 512.172265 36.734506 512.172265 33.734506 
L 512.172265 24.056381 
Q 512.172265 21.056381 509.172265 21.056381 
L 494.455078 21.056381 
Q 491.455078 21.056381 491.455078 24.056381 
L 491.455078 33.734506 
Q 491.455078 36.734506 494.455078 36.734506 
z
" style="fill: #ffffff"/>
    </g>
    <!-- +σ -->
    <g transform="translate(494.455078 31.654819) scale(0.1 -0.1)">
     <defs>
      <path id="DejaVuSans-2b" d="M 2944 4013 
L 2944 2272 
L 4684 2272 
L 4684 1741 
L 2944 1741 
L 2944 0 
L 2419 0 
L 2419 1741 
L 678 1741 
L 678 2272 
L 2419 2272 
L 2419 4013 
L 2944 4013 
z
" transform="scale(0.015625)"/>
     </defs>
     <use xlink:href="#DejaVuSans-2b"/>
     <use xlink:href="#DejaVuSans-3c3" x="83.789062"/>
    </g>
   </g>
   <g id="text_12">
    <g id="patch_112">
     <path d="M 673.146511 36.734506 
L 694.226199 36.734506 
Q 697.226199 36.734506 697.226199 33.734506 
L 697.226199 24.056381 
Q 697.226199 21.056381 694.226199 21.056381 
L 673.146511 21.056381 
Q 670.146511 21.056381 670.146511 24.056381 
L 670.146511 33.734506 
Q 670.146511 36.734506 673.146511 36.734506 
z
" style="fill: #ffffff"/>
    </g>
    <!-- +2σ -->
    <g transform="translate(673.146511 31.654819) scale(0.1 -0.1)">
     <use xlink:href="#DejaVuSans-2b"/>
     <use xlink:href="#DejaVuSans-32" x="83.789062"/>
     <use xlink:href="#DejaVuSans-3c3" x="147.412109"/>
    </g>
   </g>
  </g>
 </g>
 <defs>
  <clipPath id="pca5f5b7d87">
   <rect x="10.7" y="19.427409" width="838.9" height="92.579438"/>
  </clipPath>
 </defs>
</svg>
