<?xml version="1.0" encoding="utf-8" standalone="no"?>
<!DOCTYPE svg PUBLIC "-//W3C//DTD SVG 1.1//EN"
  "http://www.w3.org/Graphics/SVG/1.1/DTD/svg11.dtd">
<svg xmlns:xlink="http://www.w3.org/1999/xlink" width="856.8pt" height="135.884972pt" viewBox="0 0 856.8 135.884972" xmlns="http://www.w3.org/2000/svg" version="1.1">
 <metadata>
  <rdf:RDF xmlns:dc="http://purl.org/dc/elements/1.1/" xmlns:cc="http://creativecommons.org/ns#" xmlns:rdf="http://www.w3.org/1999/02/22-rdf-syntax-ns#">
   <cc:Work>
    <dc:type rdf:resource="http://purl.org/dc/dcmitype/StillImage"/>
    <dc:date>2022-10-25T21:00:17.018433</dc:date>
    <dc:format>image/svg+xml</dc:format>
    <dc:creator>
     <cc:Agent>
      <dc:title>Matplotlib v3.6.1, https://matplotlib.org/</dc:title>
     </cc:Agent>
    </dc:creator>
   </cc:Work>
  </rdf:RDF>
 </metadata>
 <defs>
  <style type="text/css">*{stroke-linejoin: round; stroke-linecap: butt}</style>
 </defs>
 <g id="figure_1">
  <g id="patch_1">
   <path d="M 0 135.884972 
L 856.8 135.884972 
L 856.8 0 
L 0 0 
z
" style="fill: #ffffff"/>
  </g>
  <g id="axes_1">
   <g id="patch_2">
    <path d="M 10.7 112.006847 
L 849.6 112.006847 
L 849.6 19.427409 
L 10.7 19.427409 
z
" style="fill: #ffffff"/>
   </g>
   <g id="matplotlib.axis_1">
    <g id="xtick_1">
     <g id="line2d_1">
      <defs>
       <path id="m5611b6b2f3" d="M 0 0 
L 0 3.5 
" style="stroke: #000000; stroke-width: 0.8"/>
      </defs>
      <g>
       <use xlink:href="#m5611b6b2f3" x="82.292603" y="112.006847" style="stroke: #000000; stroke-width: 0.8"/>
      </g>
     </g>
     <g id="text_1">
      <!-- 0 -->
      <g transform="translate(79.111353 126.605284) scale(0.1 -0.1)">
       <defs>
        <path id="DejaVuSans-30" d="M 2034 4250 
Q 1547 4250 1301 3770 
Q 1056 3291 1056 2328 
Q 1056 1369 1301 889 
Q 1547 409 2034 409 
Q 2525 409 2770 889 
Q 3016 1369 3016 2328 
Q 3016 3291 2770 3770 
Q 2525 4250 2034 4250 
z
M 2034 4750 
Q 2819 4750 3233 4129 
Q 3647 3509 3647 2328 
Q 3647 1150 3233 529 
Q 2819 -91 2034 -91 
Q 1250 -91 836 529 
Q 422 1150 422 2328 
Q 422 3509 836 4129 
Q 1250 4750 2034 4750 
z
" transform="scale(0.015625)"/>
       </defs>
       <use xlink:href="#DejaVuSans-30"/>
      </g>
     </g>
    </g>
    <g id="xtick_2">
     <g id="line2d_2">
      <g>
       <use xlink:href="#m5611b6b2f3" x="215.423513" y="112.006847" style="stroke: #000000; stroke-width: 0.8"/>
      </g>
     </g>
     <g id="text_2">
      <!-- 1 -->
      <g transform="translate(212.242263 126.605284) scale(0.1 -0.1)">
       <defs>
        <path id="DejaVuSans-31" d="M 794 531 
L 1825 531 
L 1825 4091 
L 703 3866 
L 703 4441 
L 1819 4666 
L 2450 4666 
L 2450 531 
L 3481 531 
L 3481 0 
L 794 0 
L 794 531 
z
" transform="scale(0.015625)"/>
       </defs>
       <use xlink:href="#DejaVuSans-31"/>
      </g>
     </g>
    </g>
    <g id="xtick_3">
     <g id="line2d_3">
      <g>
       <use xlink:href="#m5611b6b2f3" x="348.554422" y="112.006847" style="stroke: #000000; stroke-width: 0.8"/>
      </g>
     </g>
     <g id="text_3">
      <!-- 2 -->
      <g transform="translate(345.373172 126.605284) scale(0.1 -0.1)">
       <defs>
        <path id="DejaVuSans-32" d="M 1228 531 
L 3431 531 
L 3431 0 
L 469 0 
L 469 531 
Q 828 903 1448 1529 
Q 2069 2156 2228 2338 
Q 2531 2678 2651 2914 
Q 2772 3150 2772 3378 
Q 2772 3750 2511 3984 
Q 2250 4219 1831 4219 
Q 1534 4219 1204 4116 
Q 875 4013 500 3803 
L 500 4441 
Q 881 4594 1212 4672 
Q 1544 4750 1819 4750 
Q 2544 4750 2975 4387 
Q 3406 4025 3406 3419 
Q 3406 3131 3298 2873 
Q 3191 2616 2906 2266 
Q 2828 2175 2409 1742 
Q 1991 1309 1228 531 
z
" transform="scale(0.015625)"/>
       </defs>
       <use xlink:href="#DejaVuSans-32"/>
      </g>
     </g>
    </g>
    <g id="xtick_4">
     <g id="line2d_4">
      <g>
       <use xlink:href="#m5611b6b2f3" x="481.685332" y="112.006847" style="stroke: #000000; stroke-width: 0.8"/>
      </g>
     </g>
     <g id="text_4">
      <!-- 3 -->
      <g transform="translate(478.504082 126.605284) scale(0.1 -0.1)">
       <defs>
        <path id="DejaVuSans-33" d="M 2597 2516 
Q 3050 2419 3304 2112 
Q 3559 1806 3559 1356 
Q 3559 666 3084 287 
Q 2609 -91 1734 -91 
Q 1441 -91 1130 -33 
Q 819 25 488 141 
L 488 750 
Q 750 597 1062 519 
Q 1375 441 1716 441 
Q 2309 441 2620 675 
Q 2931 909 2931 1356 
Q 2931 1769 2642 2001 
Q 2353 2234 1838 2234 
L 1294 2234 
L 1294 2753 
L 1863 2753 
Q 2328 2753 2575 2939 
Q 2822 3125 2822 3475 
Q 2822 3834 2567 4026 
Q 2313 4219 1838 4219 
Q 1578 4219 1281 4162 
Q 984 4106 628 3988 
L 628 4550 
Q 988 4650 1302 4700 
Q 1616 4750 1894 4750 
Q 2613 4750 3031 4423 
Q 3450 4097 3450 3541 
Q 3450 3153 3228 2886 
Q 3006 2619 2597 2516 
z
" transform="scale(0.015625)"/>
       </defs>
       <use xlink:href="#DejaVuSans-33"/>
      </g>
     </g>
    </g>
    <g id="xtick_5">
     <g id="line2d_5">
      <g>
       <use xlink:href="#m5611b6b2f3" x="614.816242" y="112.006847" style="stroke: #000000; stroke-width: 0.8"/>
      </g>
     </g>
     <g id="text_5">
      <!-- 4 -->
      <g transform="translate(611.634992 126.605284) scale(0.1 -0.1)">
       <defs>
        <path id="DejaVuSans-34" d="M 2419 4116 
L 825 1625 
L 2419 1625 
L 2419 4116 
z
M 2253 4666 
L 3047 4666 
L 3047 1625 
L 3713 1625 
L 3713 1100 
L 3047 1100 
L 3047 0 
L 2419 0 
L 2419 1100 
L 313 1100 
L 313 1709 
L 2253 4666 
z
" transform="scale(0.015625)"/>
       </defs>
       <use xlink:href="#DejaVuSans-34"/>
      </g>
     </g>
    </g>
    <g id="xtick_6">
     <g id="line2d_6">
      <g>
       <use xlink:href="#m5611b6b2f3" x="747.947152" y="112.006847" style="stroke: #000000; stroke-width: 0.8"/>
      </g>
     </g>
     <g id="text_6">
      <!-- 5 -->
      <g transform="translate(744.765902 126.605284) scale(0.1 -0.1)">
       <defs>
        <path id="DejaVuSans-35" d="M 691 4666 
L 3169 4666 
L 3169 4134 
L 1269 4134 
L 1269 2991 
Q 1406 3038 1543 3061 
Q 1681 3084 1819 3084 
Q 2600 3084 3056 2656 
Q 3513 2228 3513 1497 
Q 3513 744 3044 326 
Q 2575 -91 1722 -91 
Q 1428 -91 1123 -41 
Q 819 9 494 109 
L 494 744 
Q 775 591 1075 516 
Q 1375 441 1709 441 
Q 2250 441 2565 725 
Q 2881 1009 2881 1497 
Q 2881 1984 2565 2268 
Q 2250 2553 1709 2553 
Q 1456 2553 1204 2497 
Q 953 2441 691 2322 
L 691 4666 
z
" transform="scale(0.015625)"/>
       </defs>
       <use xlink:href="#DejaVuSans-35"/>
      </g>
     </g>
    </g>
   </g>
   <g id="matplotlib.axis_2"/>
   <g id="line2d_7">
    <path d="M 144.241378 112.006847 
L 144.241378 19.427409 
" clip-path="url(#pa892899e67)" style="fill: none; stroke: #000000; stroke-width: 1.5; stroke-linecap: square"/>
   </g>
   <g id="line2d_8">
    <path d="M 287.115057 112.006847 
L 287.115057 19.427409 
" clip-path="url(#pa892899e67)" style="fill: none; stroke: #000000; stroke-width: 1.5; stroke-linecap: square"/>
   </g>
   <g id="line2d_9">
    <path d="M 429.988735 112.006847 
L 429.988735 19.427409 
" clip-path="url(#pa892899e67)" style="fill: none; stroke: #000000; stroke-width: 1.5; stroke-linecap: square"/>
   </g>
   <g id="line2d_10">
    <path d="M 572.862414 112.006847 
L 572.862414 19.427409 
" clip-path="url(#pa892899e67)" style="fill: none; stroke: #000000; stroke-width: 1.5; stroke-linecap: square"/>
   </g>
   <g id="line2d_11">
    <path d="M 715.736092 112.006847 
L 715.736092 19.427409 
" clip-path="url(#pa892899e67)" style="fill: none; stroke: #000000; stroke-width: 1.5; stroke-linecap: square"/>
   </g>
   <g id="patch_3">
    <path d="M 10.7 112.006847 
L 10.7 19.427409 
" style="fill: none; stroke: #000000; stroke-width: 0.8; stroke-linejoin: miter; stroke-linecap: square"/>
   </g>
   <g id="patch_4">
    <path d="M 849.6 112.006847 
L 849.6 19.427409 
" style="fill: none; stroke: #000000; stroke-width: 0.8; stroke-linejoin: miter; stroke-linecap: square"/>
   </g>
   <g id="patch_5">
    <path d="M 10.7 112.006847 
L 849.6 112.006847 
" style="fill: none; stroke: #000000; stroke-width: 0.8; stroke-linejoin: miter; stroke-linecap: square"/>
   </g>
   <g id="patch_6">
    <path d="M 10.7 19.427409 
L 849.6 19.427409 
" style="fill: none; stroke: #000000; stroke-width: 0.8; stroke-linejoin: miter; stroke-linecap: square"/>
   </g>
   <g id="text_7">
    <g id="patch_7">
     <path d="M 201.726853 93.649159 
L 201.726853 37.785097 
Q 201.726853 34.785097 198.726853 34.785097 
L 189.048728 34.785097 
Q 186.048728 34.785097 186.048728 37.785097 
L 186.048728 93.649159 
Q 186.048728 96.649159 189.048728 96.649159 
L 198.726853 96.649159 
Q 201.726853 96.649159 201.726853 93.649159 
z
" style="fill: #ffffff"/>
    </g>
    <!-- min=0.882 -->
    <g transform="translate(196.647165 93.649159) rotate(-90) scale(0.1 -0.1)">
     <defs>
      <path id="DejaVuSans-6d" d="M 3328 2828 
Q 3544 3216 3844 3400 
Q 4144 3584 4550 3584 
Q 5097 3584 5394 3201 
Q 5691 2819 5691 2113 
L 5691 0 
L 5113 0 
L 5113 2094 
Q 5113 2597 4934 2840 
Q 4756 3084 4391 3084 
Q 3944 3084 3684 2787 
Q 3425 2491 3425 1978 
L 3425 0 
L 2847 0 
L 2847 2094 
Q 2847 2600 2669 2842 
Q 2491 3084 2119 3084 
Q 1678 3084 1418 2786 
Q 1159 2488 1159 1978 
L 1159 0 
L 581 0 
L 581 3500 
L 1159 3500 
L 1159 2956 
Q 1356 3278 1631 3431 
Q 1906 3584 2284 3584 
Q 2666 3584 2933 3390 
Q 3200 3197 3328 2828 
z
" transform="scale(0.015625)"/>
      <path id="DejaVuSans-69" d="M 603 3500 
L 1178 3500 
L 1178 0 
L 603 0 
L 603 3500 
z
M 603 4863 
L 1178 4863 
L 1178 4134 
L 603 4134 
L 603 4863 
z
" transform="scale(0.015625)"/>
      <path id="DejaVuSans-6e" d="M 3513 2113 
L 3513 0 
L 2938 0 
L 2938 2094 
Q 2938 2591 2744 2837 
Q 2550 3084 2163 3084 
Q 1697 3084 1428 2787 
Q 1159 2491 1159 1978 
L 1159 0 
L 581 0 
L 581 3500 
L 1159 3500 
L 1159 2956 
Q 1366 3272 1645 3428 
Q 1925 3584 2291 3584 
Q 2894 3584 3203 3211 
Q 3513 2838 3513 2113 
z
" transform="scale(0.015625)"/>
      <path id="DejaVuSans-3d" d="M 678 2906 
L 4684 2906 
L 4684 2381 
L 678 2381 
L 678 2906 
z
M 678 1631 
L 4684 1631 
L 4684 1100 
L 678 1100 
L 678 1631 
z
" transform="scale(0.015625)"/>
      <path id="DejaVuSans-2e" d="M 684 794 
L 1344 794 
L 1344 0 
L 684 0 
L 684 794 
z
" transform="scale(0.015625)"/>
      <path id="DejaVuSans-38" d="M 2034 2216 
Q 1584 2216 1326 1975 
Q 1069 1734 1069 1313 
Q 1069 891 1326 650 
Q 1584 409 2034 409 
Q 2484 409 2743 651 
Q 3003 894 3003 1313 
Q 3003 1734 2745 1975 
Q 2488 2216 2034 2216 
z
M 1403 2484 
Q 997 2584 770 2862 
Q 544 3141 544 3541 
Q 544 4100 942 4425 
Q 1341 4750 2034 4750 
Q 2731 4750 3128 4425 
Q 3525 4100 3525 3541 
Q 3525 3141 3298 2862 
Q 3072 2584 2669 2484 
Q 3125 2378 3379 2068 
Q 3634 1759 3634 1313 
Q 3634 634 3220 271 
Q 2806 -91 2034 -91 
Q 1263 -91 848 271 
Q 434 634 434 1313 
Q 434 1759 690 2068 
Q 947 2378 1403 2484 
z
M 1172 3481 
Q 1172 3119 1398 2916 
Q 1625 2713 2034 2713 
Q 2441 2713 2670 2916 
Q 2900 3119 2900 3481 
Q 2900 3844 2670 4047 
Q 2441 4250 2034 4250 
Q 1625 4250 1398 4047 
Q 1172 3844 1172 3481 
z
" transform="scale(0.015625)"/>
     </defs>
     <use xlink:href="#DejaVuSans-6d"/>
     <use xlink:href="#DejaVuSans-69" x="97.412109"/>
     <use xlink:href="#DejaVuSans-6e" x="125.195312"/>
     <use xlink:href="#DejaVuSans-3d" x="188.574219"/>
     <use xlink:href="#DejaVuSans-30" x="272.363281"/>
     <use xlink:href="#DejaVuSans-2e" x="335.986328"/>
     <use xlink:href="#DejaVuSans-38" x="367.773438"/>
     <use xlink:href="#DejaVuSans-38" x="431.396484"/>
     <use xlink:href="#DejaVuSans-32" x="495.019531"/>
    </g>
   </g>
   <g id="text_8">
    <g id="patch_8">
     <path d="M 847.829105 95.114784 
L 847.829105 36.319472 
Q 847.829105 33.319472 844.829105 33.319472 
L 835.15098 33.319472 
Q 832.15098 33.319472 832.15098 36.319472 
L 832.15098 95.114784 
Q 832.15098 98.114784 835.15098 98.114784 
L 844.829105 98.114784 
Q 847.829105 98.114784 847.829105 95.114784 
z
" style="fill: #ffffff"/>
    </g>
    <!-- max=5.640 -->
    <g transform="translate(842.749418 95.114784) rotate(-90) scale(0.1 -0.1)">
     <defs>
      <path id="DejaVuSans-61" d="M 2194 1759 
Q 1497 1759 1228 1600 
Q 959 1441 959 1056 
Q 959 750 1161 570 
Q 1363 391 1709 391 
Q 2188 391 2477 730 
Q 2766 1069 2766 1631 
L 2766 1759 
L 2194 1759 
z
M 3341 1997 
L 3341 0 
L 2766 0 
L 2766 531 
Q 2569 213 2275 61 
Q 1981 -91 1556 -91 
Q 1019 -91 701 211 
Q 384 513 384 1019 
Q 384 1609 779 1909 
Q 1175 2209 1959 2209 
L 2766 2209 
L 2766 2266 
Q 2766 2663 2505 2880 
Q 2244 3097 1772 3097 
Q 1472 3097 1187 3025 
Q 903 2953 641 2809 
L 641 3341 
Q 956 3463 1253 3523 
Q 1550 3584 1831 3584 
Q 2591 3584 2966 3190 
Q 3341 2797 3341 1997 
z
" transform="scale(0.015625)"/>
      <path id="DejaVuSans-78" d="M 3513 3500 
L 2247 1797 
L 3578 0 
L 2900 0 
L 1881 1375 
L 863 0 
L 184 0 
L 1544 1831 
L 300 3500 
L 978 3500 
L 1906 2253 
L 2834 3500 
L 3513 3500 
z
" transform="scale(0.015625)"/>
      <path id="DejaVuSans-36" d="M 2113 2584 
Q 1688 2584 1439 2293 
Q 1191 2003 1191 1497 
Q 1191 994 1439 701 
Q 1688 409 2113 409 
Q 2538 409 2786 701 
Q 3034 994 3034 1497 
Q 3034 2003 2786 2293 
Q 2538 2584 2113 2584 
z
M 3366 4563 
L 3366 3988 
Q 3128 4100 2886 4159 
Q 2644 4219 2406 4219 
Q 1781 4219 1451 3797 
Q 1122 3375 1075 2522 
Q 1259 2794 1537 2939 
Q 1816 3084 2150 3084 
Q 2853 3084 3261 2657 
Q 3669 2231 3669 1497 
Q 3669 778 3244 343 
Q 2819 -91 2113 -91 
Q 1303 -91 875 529 
Q 447 1150 447 2328 
Q 447 3434 972 4092 
Q 1497 4750 2381 4750 
Q 2619 4750 2861 4703 
Q 3103 4656 3366 4563 
z
" transform="scale(0.015625)"/>
     </defs>
     <use xlink:href="#DejaVuSans-6d"/>
     <use xlink:href="#DejaVuSans-61" x="97.412109"/>
     <use xlink:href="#DejaVuSans-78" x="158.691406"/>
     <use xlink:href="#DejaVuSans-3d" x="217.871094"/>
     <use xlink:href="#DejaVuSans-35" x="301.660156"/>
     <use xlink:href="#DejaVuSans-2e" x="365.283203"/>
     <use xlink:href="#DejaVuSans-36" x="397.070312"/>
     <use xlink:href="#DejaVuSans-34" x="460.693359"/>
     <use xlink:href="#DejaVuSans-30" x="524.316406"/>
    </g>
   </g>
   <g id="text_9">
    <!-- 100000 samples of tensor[3, 196, 196] n=115248 x∈[0.882, 5.640] μ=2.612 σ=1.073 -->
    <g transform="translate(10.7 14.798437) scale(0.1 -0.1)">
     <defs>
      <path id="DejaVuSans-20" transform="scale(0.015625)"/>
      <path id="DejaVuSans-73" d="M 2834 3397 
L 2834 2853 
Q 2591 2978 2328 3040 
Q 2066 3103 1784 3103 
Q 1356 3103 1142 2972 
Q 928 2841 928 2578 
Q 928 2378 1081 2264 
Q 1234 2150 1697 2047 
L 1894 2003 
Q 2506 1872 2764 1633 
Q 3022 1394 3022 966 
Q 3022 478 2636 193 
Q 2250 -91 1575 -91 
Q 1294 -91 989 -36 
Q 684 19 347 128 
L 347 722 
Q 666 556 975 473 
Q 1284 391 1588 391 
Q 1994 391 2212 530 
Q 2431 669 2431 922 
Q 2431 1156 2273 1281 
Q 2116 1406 1581 1522 
L 1381 1569 
Q 847 1681 609 1914 
Q 372 2147 372 2553 
Q 372 3047 722 3315 
Q 1072 3584 1716 3584 
Q 2034 3584 2315 3537 
Q 2597 3491 2834 3397 
z
" transform="scale(0.015625)"/>
      <path id="DejaVuSans-70" d="M 1159 525 
L 1159 -1331 
L 581 -1331 
L 581 3500 
L 1159 3500 
L 1159 2969 
Q 1341 3281 1617 3432 
Q 1894 3584 2278 3584 
Q 2916 3584 3314 3078 
Q 3713 2572 3713 1747 
Q 3713 922 3314 415 
Q 2916 -91 2278 -91 
Q 1894 -91 1617 61 
Q 1341 213 1159 525 
z
M 3116 1747 
Q 3116 2381 2855 2742 
Q 2594 3103 2138 3103 
Q 1681 3103 1420 2742 
Q 1159 2381 1159 1747 
Q 1159 1113 1420 752 
Q 1681 391 2138 391 
Q 2594 391 2855 752 
Q 3116 1113 3116 1747 
z
" transform="scale(0.015625)"/>
      <path id="DejaVuSans-6c" d="M 603 4863 
L 1178 4863 
L 1178 0 
L 603 0 
L 603 4863 
z
" transform="scale(0.015625)"/>
      <path id="DejaVuSans-65" d="M 3597 1894 
L 3597 1613 
L 953 1613 
Q 991 1019 1311 708 
Q 1631 397 2203 397 
Q 2534 397 2845 478 
Q 3156 559 3463 722 
L 3463 178 
Q 3153 47 2828 -22 
Q 2503 -91 2169 -91 
Q 1331 -91 842 396 
Q 353 884 353 1716 
Q 353 2575 817 3079 
Q 1281 3584 2069 3584 
Q 2775 3584 3186 3129 
Q 3597 2675 3597 1894 
z
M 3022 2063 
Q 3016 2534 2758 2815 
Q 2500 3097 2075 3097 
Q 1594 3097 1305 2825 
Q 1016 2553 972 2059 
L 3022 2063 
z
" transform="scale(0.015625)"/>
      <path id="DejaVuSans-6f" d="M 1959 3097 
Q 1497 3097 1228 2736 
Q 959 2375 959 1747 
Q 959 1119 1226 758 
Q 1494 397 1959 397 
Q 2419 397 2687 759 
Q 2956 1122 2956 1747 
Q 2956 2369 2687 2733 
Q 2419 3097 1959 3097 
z
M 1959 3584 
Q 2709 3584 3137 3096 
Q 3566 2609 3566 1747 
Q 3566 888 3137 398 
Q 2709 -91 1959 -91 
Q 1206 -91 779 398 
Q 353 888 353 1747 
Q 353 2609 779 3096 
Q 1206 3584 1959 3584 
z
" transform="scale(0.015625)"/>
      <path id="DejaVuSans-66" d="M 2375 4863 
L 2375 4384 
L 1825 4384 
Q 1516 4384 1395 4259 
Q 1275 4134 1275 3809 
L 1275 3500 
L 2222 3500 
L 2222 3053 
L 1275 3053 
L 1275 0 
L 697 0 
L 697 3053 
L 147 3053 
L 147 3500 
L 697 3500 
L 697 3744 
Q 697 4328 969 4595 
Q 1241 4863 1831 4863 
L 2375 4863 
z
" transform="scale(0.015625)"/>
      <path id="DejaVuSans-74" d="M 1172 4494 
L 1172 3500 
L 2356 3500 
L 2356 3053 
L 1172 3053 
L 1172 1153 
Q 1172 725 1289 603 
Q 1406 481 1766 481 
L 2356 481 
L 2356 0 
L 1766 0 
Q 1100 0 847 248 
Q 594 497 594 1153 
L 594 3053 
L 172 3053 
L 172 3500 
L 594 3500 
L 594 4494 
L 1172 4494 
z
" transform="scale(0.015625)"/>
      <path id="DejaVuSans-72" d="M 2631 2963 
Q 2534 3019 2420 3045 
Q 2306 3072 2169 3072 
Q 1681 3072 1420 2755 
Q 1159 2438 1159 1844 
L 1159 0 
L 581 0 
L 581 3500 
L 1159 3500 
L 1159 2956 
Q 1341 3275 1631 3429 
Q 1922 3584 2338 3584 
Q 2397 3584 2469 3576 
Q 2541 3569 2628 3553 
L 2631 2963 
z
" transform="scale(0.015625)"/>
      <path id="DejaVuSans-5b" d="M 550 4863 
L 1875 4863 
L 1875 4416 
L 1125 4416 
L 1125 -397 
L 1875 -397 
L 1875 -844 
L 550 -844 
L 550 4863 
z
" transform="scale(0.015625)"/>
      <path id="DejaVuSans-2c" d="M 750 794 
L 1409 794 
L 1409 256 
L 897 -744 
L 494 -744 
L 750 256 
L 750 794 
z
" transform="scale(0.015625)"/>
      <path id="DejaVuSans-39" d="M 703 97 
L 703 672 
Q 941 559 1184 500 
Q 1428 441 1663 441 
Q 2288 441 2617 861 
Q 2947 1281 2994 2138 
Q 2813 1869 2534 1725 
Q 2256 1581 1919 1581 
Q 1219 1581 811 2004 
Q 403 2428 403 3163 
Q 403 3881 828 4315 
Q 1253 4750 1959 4750 
Q 2769 4750 3195 4129 
Q 3622 3509 3622 2328 
Q 3622 1225 3098 567 
Q 2575 -91 1691 -91 
Q 1453 -91 1209 -44 
Q 966 3 703 97 
z
M 1959 2075 
Q 2384 2075 2632 2365 
Q 2881 2656 2881 3163 
Q 2881 3666 2632 3958 
Q 2384 4250 1959 4250 
Q 1534 4250 1286 3958 
Q 1038 3666 1038 3163 
Q 1038 2656 1286 2365 
Q 1534 2075 1959 2075 
z
" transform="scale(0.015625)"/>
      <path id="DejaVuSans-5d" d="M 1947 4863 
L 1947 -844 
L 622 -844 
L 622 -397 
L 1369 -397 
L 1369 4416 
L 622 4416 
L 622 4863 
L 1947 4863 
z
" transform="scale(0.015625)"/>
      <path id="DejaVuSans-2208" d="M 1072 1959 
Q 1094 1728 1291 1353 
Q 1522 919 1959 675 
Q 2388 438 2850 434 
L 5028 434 
L 5028 -63 
L 2850 -63 
Q 2250 -63 1695 246 
Q 1141 556 844 1106 
Q 547 1656 547 2241 
Q 547 2819 844 3369 
Q 1141 3919 1695 4231 
Q 2250 4544 2850 4544 
L 5028 4544 
L 5028 4047 
L 2850 4047 
Q 2388 4044 1959 3803 
Q 1525 3556 1291 3125 
Q 1091 2750 1063 2459 
L 5028 2459 
L 5028 1959 
L 1072 1959 
z
" transform="scale(0.015625)"/>
      <path id="DejaVuSans-3bc" d="M 544 -1331 
L 544 3500 
L 1119 3500 
L 1119 1325 
Q 1119 872 1334 640 
Q 1550 409 1972 409 
Q 2434 409 2667 671 
Q 2900 934 2900 1459 
L 2900 3500 
L 3475 3500 
L 3475 806 
Q 3475 619 3529 530 
Q 3584 441 3700 441 
Q 3728 441 3778 458 
Q 3828 475 3916 513 
L 3916 50 
Q 3788 -22 3673 -56 
Q 3559 -91 3450 -91 
Q 3234 -91 3106 31 
Q 2978 153 2931 403 
Q 2775 156 2548 32 
Q 2322 -91 2016 -91 
Q 1697 -91 1473 31 
Q 1250 153 1119 397 
L 1119 -1331 
L 544 -1331 
z
" transform="scale(0.015625)"/>
      <path id="DejaVuSans-3c3" d="M 1959 3044 
Q 1484 3044 1228 2700 
Q 959 2341 959 1747 
Q 959 1119 1226 758 
Q 1494 397 1959 397 
Q 2419 397 2687 759 
Q 2956 1122 2956 1747 
Q 2956 2319 2688 2700 
Q 2441 3044 1959 3044 
z
M 1959 3500 
L 3869 3500 
L 3869 2925 
L 3225 2925 
Q 3566 2438 3566 1747 
Q 3566 888 3138 400 
Q 2709 -91 1959 -91 
Q 1206 -91 781 400 
Q 353 888 353 1747 
Q 353 2613 781 3097 
Q 1134 3500 1959 3500 
z
" transform="scale(0.015625)"/>
      <path id="DejaVuSans-37" d="M 525 4666 
L 3525 4666 
L 3525 4397 
L 1831 0 
L 1172 0 
L 2766 4134 
L 525 4134 
L 525 4666 
z
" transform="scale(0.015625)"/>
     </defs>
     <use xlink:href="#DejaVuSans-31"/>
     <use xlink:href="#DejaVuSans-30" x="63.623047"/>
     <use xlink:href="#DejaVuSans-30" x="127.246094"/>
     <use xlink:href="#DejaVuSans-30" x="190.869141"/>
     <use xlink:href="#DejaVuSans-30" x="254.492188"/>
     <use xlink:href="#DejaVuSans-30" x="318.115234"/>
     <use xlink:href="#DejaVuSans-20" x="381.738281"/>
     <use xlink:href="#DejaVuSans-73" x="413.525391"/>
     <use xlink:href="#DejaVuSans-61" x="465.625"/>
     <use xlink:href="#DejaVuSans-6d" x="526.904297"/>
     <use xlink:href="#DejaVuSans-70" x="624.316406"/>
     <use xlink:href="#DejaVuSans-6c" x="687.792969"/>
     <use xlink:href="#DejaVuSans-65" x="715.576172"/>
     <use xlink:href="#DejaVuSans-73" x="777.099609"/>
     <use xlink:href="#DejaVuSans-20" x="829.199219"/>
     <use xlink:href="#DejaVuSans-6f" x="860.986328"/>
     <use xlink:href="#DejaVuSans-66" x="922.167969"/>
     <use xlink:href="#DejaVuSans-20" x="957.373047"/>
     <use xlink:href="#DejaVuSans-74" x="989.160156"/>
     <use xlink:href="#DejaVuSans-65" x="1028.369141"/>
     <use xlink:href="#DejaVuSans-6e" x="1089.892578"/>
     <use xlink:href="#DejaVuSans-73" x="1153.271484"/>
     <use xlink:href="#DejaVuSans-6f" x="1205.371094"/>
     <use xlink:href="#DejaVuSans-72" x="1266.552734"/>
     <use xlink:href="#DejaVuSans-5b" x="1307.666016"/>
     <use xlink:href="#DejaVuSans-33" x="1346.679688"/>
     <use xlink:href="#DejaVuSans-2c" x="1410.302734"/>
     <use xlink:href="#DejaVuSans-20" x="1442.089844"/>
     <use xlink:href="#DejaVuSans-31" x="1473.876953"/>
     <use xlink:href="#DejaVuSans-39" x="1537.5"/>
     <use xlink:href="#DejaVuSans-36" x="1601.123047"/>
     <use xlink:href="#DejaVuSans-2c" x="1664.746094"/>
     <use xlink:href="#DejaVuSans-20" x="1696.533203"/>
     <use xlink:href="#DejaVuSans-31" x="1728.320312"/>
     <use xlink:href="#DejaVuSans-39" x="1791.943359"/>
     <use xlink:href="#DejaVuSans-36" x="1855.566406"/>
     <use xlink:href="#DejaVuSans-5d" x="1919.189453"/>
     <use xlink:href="#DejaVuSans-20" x="1958.203125"/>
     <use xlink:href="#DejaVuSans-6e" x="1989.990234"/>
     <use xlink:href="#DejaVuSans-3d" x="2053.369141"/>
     <use xlink:href="#DejaVuSans-31" x="2137.158203"/>
     <use xlink:href="#DejaVuSans-31" x="2200.78125"/>
     <use xlink:href="#DejaVuSans-35" x="2264.404297"/>
     <use xlink:href="#DejaVuSans-32" x="2328.027344"/>
     <use xlink:href="#DejaVuSans-34" x="2391.650391"/>
     <use xlink:href="#DejaVuSans-38" x="2455.273438"/>
     <use xlink:href="#DejaVuSans-20" x="2518.896484"/>
     <use xlink:href="#DejaVuSans-78" x="2550.683594"/>
     <use xlink:href="#DejaVuSans-2208" x="2609.863281"/>
     <use xlink:href="#DejaVuSans-5b" x="2696.972656"/>
     <use xlink:href="#DejaVuSans-30" x="2735.986328"/>
     <use xlink:href="#DejaVuSans-2e" x="2799.609375"/>
     <use xlink:href="#DejaVuSans-38" x="2831.396484"/>
     <use xlink:href="#DejaVuSans-38" x="2895.019531"/>
     <use xlink:href="#DejaVuSans-32" x="2958.642578"/>
     <use xlink:href="#DejaVuSans-2c" x="3022.265625"/>
     <use xlink:href="#DejaVuSans-20" x="3054.052734"/>
     <use xlink:href="#DejaVuSans-35" x="3085.839844"/>
     <use xlink:href="#DejaVuSans-2e" x="3149.462891"/>
     <use xlink:href="#DejaVuSans-36" x="3181.25"/>
     <use xlink:href="#DejaVuSans-34" x="3244.873047"/>
     <use xlink:href="#DejaVuSans-30" x="3308.496094"/>
     <use xlink:href="#DejaVuSans-5d" x="3372.119141"/>
     <use xlink:href="#DejaVuSans-20" x="3411.132812"/>
     <use xlink:href="#DejaVuSans-3bc" x="3442.919922"/>
     <use xlink:href="#DejaVuSans-3d" x="3506.542969"/>
     <use xlink:href="#DejaVuSans-32" x="3590.332031"/>
     <use xlink:href="#DejaVuSans-2e" x="3653.955078"/>
     <use xlink:href="#DejaVuSans-36" x="3685.742188"/>
     <use xlink:href="#DejaVuSans-31" x="3749.365234"/>
     <use xlink:href="#DejaVuSans-32" x="3812.988281"/>
     <use xlink:href="#DejaVuSans-20" x="3876.611328"/>
     <use xlink:href="#DejaVuSans-3c3" x="3908.398438"/>
     <use xlink:href="#DejaVuSans-3d" x="3971.777344"/>
     <use xlink:href="#DejaVuSans-31" x="4055.566406"/>
     <use xlink:href="#DejaVuSans-2e" x="4119.189453"/>
     <use xlink:href="#DejaVuSans-30" x="4150.976562"/>
     <use xlink:href="#DejaVuSans-37" x="4214.599609"/>
     <use xlink:href="#DejaVuSans-33" x="4278.222656"/>
    </g>
   </g>
   <g id="patch_9">
    <path d="M 199.726853 112.006847 
L 206.061095 112.006847 
L 206.061095 111.967985 
L 199.726853 111.967985 
z
" clip-path="url(#pa892899e67)" style="fill: #00bfff"/>
   </g>
   <g id="patch_10">
    <path d="M 206.061095 112.006847 
L 212.395337 112.006847 
L 212.395337 111.734812 
L 206.061095 111.734812 
z
" clip-path="url(#pa892899e67)" style="fill: #00bfff"/>
   </g>
   <g id="patch_11">
    <path d="M 212.395337 112.006847 
L 218.729579 112.006847 
L 218.729579 110.627239 
L 212.395337 110.627239 
z
" clip-path="url(#pa892899e67)" style="fill: #00bfff"/>
   </g>
   <g id="patch_12">
    <path d="M 218.729579 112.006847 
L 225.063822 112.006847 
L 225.063822 108.062335 
L 218.729579 108.062335 
z
" clip-path="url(#pa892899e67)" style="fill: #00bfff"/>
   </g>
   <g id="patch_13">
    <path d="M 225.063822 112.006847 
L 231.398064 112.006847 
L 231.398064 108.625837 
L 225.063822 108.625837 
z
" clip-path="url(#pa892899e67)" style="fill: #00bfff"/>
   </g>
   <g id="patch_14">
    <path d="M 231.398064 112.006847 
L 237.732306 112.006847 
L 237.732306 105.497431 
L 231.398064 105.497431 
z
" clip-path="url(#pa892899e67)" style="fill: #00bfff"/>
   </g>
   <g id="patch_15">
    <path d="M 237.732306 112.006847 
L 244.066548 112.006847 
L 244.066548 99.454362 
L 237.732306 99.454362 
z
" clip-path="url(#pa892899e67)" style="fill: #00bfff"/>
   </g>
   <g id="patch_16">
    <path d="M 244.066532 112.006847 
L 250.400775 112.006847 
L 250.400775 98.502238 
L 244.066532 98.502238 
z
" clip-path="url(#pa892899e67)" style="fill: #00bfff"/>
   </g>
   <g id="patch_17">
    <path d="M 250.400775 112.006847 
L 256.735017 112.006847 
L 256.735017 96.500836 
L 250.400775 96.500836 
z
" clip-path="url(#pa892899e67)" style="fill: #00bfff"/>
   </g>
   <g id="patch_18">
    <path d="M 256.735017 112.006847 
L 263.069259 112.006847 
L 263.069259 92.964377 
L 256.735017 92.964377 
z
" clip-path="url(#pa892899e67)" style="fill: #00bfff"/>
   </g>
   <g id="patch_19">
    <path d="M 263.069259 112.006847 
L 269.403501 112.006847 
L 269.403501 88.825555 
L 263.069259 88.825555 
z
" clip-path="url(#pa892899e67)" style="fill: #00bfff"/>
   </g>
   <g id="patch_20">
    <path d="M 269.403501 112.006847 
L 275.737744 112.006847 
L 275.737744 91.390458 
L 269.403501 91.390458 
z
" clip-path="url(#pa892899e67)" style="fill: #00bfff"/>
   </g>
   <g id="patch_21">
    <path d="M 275.737744 112.006847 
L 282.071986 112.006847 
L 282.071986 85.930322 
L 275.737744 85.930322 
z
" clip-path="url(#pa892899e67)" style="fill: #00bfff"/>
   </g>
   <g id="patch_22">
    <path d="M 282.07197 112.006847 
L 288.406212 112.006847 
L 288.406212 87.737413 
L 282.07197 87.737413 
z
" clip-path="url(#pa892899e67)" style="fill: #00bfff"/>
   </g>
   <g id="patch_23">
    <path d="M 288.406212 112.006847 
L 294.740454 112.006847 
L 294.740454 89.525073 
L 288.406212 89.525073 
z
" clip-path="url(#pa892899e67)" style="fill: #00bfff"/>
   </g>
   <g id="patch_24">
    <path d="M 294.740454 112.006847 
L 301.074697 112.006847 
L 301.074697 81.869224 
L 294.740454 81.869224 
z
" clip-path="url(#pa892899e67)" style="fill: #00bfff"/>
   </g>
   <g id="patch_25">
    <path d="M 301.074697 112.006847 
L 307.408939 112.006847 
L 307.408939 77.497227 
L 301.074697 77.497227 
z
" clip-path="url(#pa892899e67)" style="fill: #00bfff"/>
   </g>
   <g id="patch_26">
    <path d="M 307.408939 112.006847 
L 313.743181 112.006847 
L 313.743181 66.810127 
L 307.408939 66.810127 
z
" clip-path="url(#pa892899e67)" style="fill: #00bfff"/>
   </g>
   <g id="patch_27">
    <path d="M 313.743181 112.006847 
L 320.077423 112.006847 
L 320.077423 74.368822 
L 313.743181 74.368822 
z
" clip-path="url(#pa892899e67)" style="fill: #00bfff"/>
   </g>
   <g id="patch_28">
    <path d="M 320.077423 112.006847 
L 326.411666 112.006847 
L 326.411666 50.915492 
L 320.077423 50.915492 
z
" clip-path="url(#pa892899e67)" style="fill: #00bfff"/>
   </g>
   <g id="patch_29">
    <path d="M 326.411666 112.006847 
L 332.745908 112.006847 
L 332.745908 45.027875 
L 326.411666 45.027875 
z
" clip-path="url(#pa892899e67)" style="fill: #00bfff"/>
   </g>
   <g id="patch_30">
    <path d="M 332.745908 112.006847 
L 339.08015 112.006847 
L 339.08015 44.211766 
L 332.745908 44.211766 
z
" clip-path="url(#pa892899e67)" style="fill: #00bfff"/>
   </g>
   <g id="patch_31">
    <path d="M 339.08015 112.006847 
L 345.414392 112.006847 
L 345.414392 71.065537 
L 339.08015 71.065537 
z
" clip-path="url(#pa892899e67)" style="fill: #00bfff"/>
   </g>
   <g id="patch_32">
    <path d="M 345.414376 112.006847 
L 351.748634 112.006847 
L 351.748634 53.966174 
L 345.414376 53.966174 
z
" clip-path="url(#pa892899e67)" style="fill: #00bfff"/>
   </g>
   <g id="patch_33">
    <path d="M 351.748634 112.006847 
L 358.082877 112.006847 
L 358.082877 59.212569 
L 351.748634 59.212569 
z
" clip-path="url(#pa892899e67)" style="fill: #00bfff"/>
   </g>
   <g id="patch_34">
    <path d="M 358.082877 112.006847 
L 364.417119 112.006847 
L 364.417119 68.617219 
L 358.082877 68.617219 
z
" clip-path="url(#pa892899e67)" style="fill: #00bfff"/>
   </g>
   <g id="patch_35">
    <path d="M 364.417119 112.006847 
L 370.751361 112.006847 
L 370.751361 52.333962 
L 364.417119 52.333962 
z
" clip-path="url(#pa892899e67)" style="fill: #00bfff"/>
   </g>
   <g id="patch_36">
    <path d="M 370.751361 112.006847 
L 377.085603 112.006847 
L 377.085603 58.202154 
L 370.751361 58.202154 
z
" clip-path="url(#pa892899e67)" style="fill: #00bfff"/>
   </g>
   <g id="patch_37">
    <path d="M 377.085603 112.006847 
L 383.419846 112.006847 
L 383.419846 48.059122 
L 377.085603 48.059122 
z
" clip-path="url(#pa892899e67)" style="fill: #00bfff"/>
   </g>
   <g id="patch_38">
    <path d="M 383.419846 112.006847 
L 389.754088 112.006847 
L 389.754088 48.836365 
L 383.419846 48.836365 
z
" clip-path="url(#pa892899e67)" style="fill: #00bfff"/>
   </g>
   <g id="patch_39">
    <path d="M 389.754088 112.006847 
L 396.08833 112.006847 
L 396.08833 40.791895 
L 389.754088 40.791895 
z
" clip-path="url(#pa892899e67)" style="fill: #00bfff"/>
   </g>
   <g id="patch_40">
    <path d="M 396.08833 112.006847 
L 402.422572 112.006847 
L 402.422572 48.544902 
L 396.08833 48.544902 
z
" clip-path="url(#pa892899e67)" style="fill: #00bfff"/>
   </g>
   <g id="patch_41">
    <path d="M 402.422572 112.006847 
L 408.756815 112.006847 
L 408.756815 50.701755 
L 402.422572 50.701755 
z
" clip-path="url(#pa892899e67)" style="fill: #00bfff"/>
   </g>
   <g id="patch_42">
    <path d="M 408.756815 112.006847 
L 415.091057 112.006847 
L 415.091057 43.570539 
L 408.756815 43.570539 
z
" clip-path="url(#pa892899e67)" style="fill: #00bfff"/>
   </g>
   <g id="patch_43">
    <path d="M 415.091057 112.006847 
L 421.425299 112.006847 
L 421.425299 48.272864 
L 415.091057 48.272864 
z
" clip-path="url(#pa892899e67)" style="fill: #00bfff"/>
   </g>
   <g id="patch_44">
    <path d="M 421.425299 112.006847 
L 427.759541 112.006847 
L 427.759541 55.44294 
L 421.425299 55.44294 
z
" clip-path="url(#pa892899e67)" style="fill: #00bfff"/>
   </g>
   <g id="patch_45">
    <path d="M 427.759541 112.006847 
L 434.093783 112.006847 
L 434.093783 79.634648 
L 427.759541 79.634648 
z
" clip-path="url(#pa892899e67)" style="fill: #00bfff"/>
   </g>
   <g id="patch_46">
    <path d="M 434.093783 112.006847 
L 440.428026 112.006847 
L 440.428026 78.332764 
L 434.093783 78.332764 
z
" clip-path="url(#pa892899e67)" style="fill: #00bfff"/>
   </g>
   <g id="patch_47">
    <path d="M 440.428026 112.006847 
L 446.762268 112.006847 
L 446.762268 89.000434 
L 440.428026 89.000434 
z
" clip-path="url(#pa892899e67)" style="fill: #00bfff"/>
   </g>
   <g id="patch_48">
    <path d="M 446.762268 112.006847 
L 453.09651 112.006847 
L 453.09651 95.179522 
L 446.762268 95.179522 
z
" clip-path="url(#pa892899e67)" style="fill: #00bfff"/>
   </g>
   <g id="patch_49">
    <path d="M 453.096478 112.006847 
L 459.430721 112.006847 
L 459.430721 103.146269 
L 453.096478 103.146269 
z
" clip-path="url(#pa892899e67)" style="fill: #00bfff"/>
   </g>
   <g id="patch_50">
    <path d="M 459.430721 112.006847 
L 465.764963 112.006847 
L 465.764963 100.795107 
L 459.430721 100.795107 
z
" clip-path="url(#pa892899e67)" style="fill: #00bfff"/>
   </g>
   <g id="patch_51">
    <path d="M 465.764963 112.006847 
L 472.099205 112.006847 
L 472.099205 102.777078 
L 465.764963 102.777078 
z
" clip-path="url(#pa892899e67)" style="fill: #00bfff"/>
   </g>
   <g id="patch_52">
    <path d="M 472.099205 112.006847 
L 478.433447 112.006847 
L 478.433447 104.545307 
L 472.099205 104.545307 
z
" clip-path="url(#pa892899e67)" style="fill: #00bfff"/>
   </g>
   <g id="patch_53">
    <path d="M 478.433447 112.006847 
L 484.76769 112.006847 
L 484.76769 103.904081 
L 478.433447 103.904081 
z
" clip-path="url(#pa892899e67)" style="fill: #00bfff"/>
   </g>
   <g id="patch_54">
    <path d="M 484.76769 112.006847 
L 491.101932 112.006847 
L 491.101932 105.633449 
L 484.76769 105.633449 
z
" clip-path="url(#pa892899e67)" style="fill: #00bfff"/>
   </g>
   <g id="patch_55">
    <path d="M 491.101932 112.006847 
L 497.436174 112.006847 
L 497.436174 104.23441 
L 491.101932 104.23441 
z
" clip-path="url(#pa892899e67)" style="fill: #00bfff"/>
   </g>
   <g id="patch_56">
    <path d="M 497.436174 112.006847 
L 503.770416 112.006847 
L 503.770416 104.75905 
L 497.436174 104.75905 
z
" clip-path="url(#pa892899e67)" style="fill: #00bfff"/>
   </g>
   <g id="patch_57">
    <path d="M 503.770416 112.006847 
L 510.104658 112.006847 
L 510.104658 105.497431 
L 503.770416 105.497431 
z
" clip-path="url(#pa892899e67)" style="fill: #00bfff"/>
   </g>
   <g id="patch_58">
    <path d="M 510.104658 112.006847 
L 516.438901 112.006847 
L 516.438901 105.808328 
L 510.104658 105.808328 
z
" clip-path="url(#pa892899e67)" style="fill: #00bfff"/>
   </g>
   <g id="patch_59">
    <path d="M 516.438901 112.006847 
L 522.773143 112.006847 
L 522.773143 104.681325 
L 516.438901 104.681325 
z
" clip-path="url(#pa892899e67)" style="fill: #00bfff"/>
   </g>
   <g id="patch_60">
    <path d="M 522.773143 112.006847 
L 529.107385 112.006847 
L 529.107385 105.069947 
L 522.773143 105.069947 
z
" clip-path="url(#pa892899e67)" style="fill: #00bfff"/>
   </g>
   <g id="patch_61">
    <path d="M 529.107385 112.006847 
L 535.441627 112.006847 
L 535.441627 104.078961 
L 529.107385 104.078961 
z
" clip-path="url(#pa892899e67)" style="fill: #00bfff"/>
   </g>
   <g id="patch_62">
    <path d="M 535.441627 112.006847 
L 541.77587 112.006847 
L 541.77587 104.914498 
L 535.441627 104.914498 
z
" clip-path="url(#pa892899e67)" style="fill: #00bfff"/>
   </g>
   <g id="patch_63">
    <path d="M 541.77587 112.006847 
L 548.110112 112.006847 
L 548.110112 106.352399 
L 541.77587 106.352399 
z
" clip-path="url(#pa892899e67)" style="fill: #00bfff"/>
   </g>
   <g id="patch_64">
    <path d="M 548.110112 112.006847 
L 554.444354 112.006847 
L 554.444354 105.594587 
L 548.110112 105.594587 
z
" clip-path="url(#pa892899e67)" style="fill: #00bfff"/>
   </g>
   <g id="patch_65">
    <path d="M 554.444386 112.006847 
L 560.778628 112.006847 
L 560.778628 105.050516 
L 554.444386 105.050516 
z
" clip-path="url(#pa892899e67)" style="fill: #00bfff"/>
   </g>
   <g id="patch_66">
    <path d="M 560.778628 112.006847 
L 567.11287 112.006847 
L 567.11287 106.235812 
L 560.778628 106.235812 
z
" clip-path="url(#pa892899e67)" style="fill: #00bfff"/>
   </g>
   <g id="patch_67">
    <path d="M 567.11287 112.006847 
L 573.447112 112.006847 
L 573.447112 105.730604 
L 567.11287 105.730604 
z
" clip-path="url(#pa892899e67)" style="fill: #00bfff"/>
   </g>
   <g id="patch_68">
    <path d="M 573.447112 112.006847 
L 579.781355 112.006847 
L 579.781355 106.177519 
L 573.447112 106.177519 
z
" clip-path="url(#pa892899e67)" style="fill: #00bfff"/>
   </g>
   <g id="patch_69">
    <path d="M 579.781355 112.006847 
L 586.115597 112.006847 
L 586.115597 105.82776 
L 579.781355 105.82776 
z
" clip-path="url(#pa892899e67)" style="fill: #00bfff"/>
   </g>
   <g id="patch_70">
    <path d="M 586.115597 112.006847 
L 592.449839 112.006847 
L 592.449839 106.54671 
L 586.115597 106.54671 
z
" clip-path="url(#pa892899e67)" style="fill: #00bfff"/>
   </g>
   <g id="patch_71">
    <path d="M 592.449839 112.006847 
L 598.784081 112.006847 
L 598.784081 107.343385 
L 592.449839 107.343385 
z
" clip-path="url(#pa892899e67)" style="fill: #00bfff"/>
   </g>
   <g id="patch_72">
    <path d="M 598.784081 112.006847 
L 605.118324 112.006847 
L 605.118324 108.625837 
L 598.784081 108.625837 
z
" clip-path="url(#pa892899e67)" style="fill: #00bfff"/>
   </g>
   <g id="patch_73">
    <path d="M 605.118324 112.006847 
L 611.452566 112.006847 
L 611.452566 107.693144 
L 605.118324 107.693144 
z
" clip-path="url(#pa892899e67)" style="fill: #00bfff"/>
   </g>
   <g id="patch_74">
    <path d="M 611.452566 112.006847 
L 617.786808 112.006847 
L 617.786808 107.61542 
L 611.452566 107.61542 
z
" clip-path="url(#pa892899e67)" style="fill: #00bfff"/>
   </g>
   <g id="patch_75">
    <path d="M 617.786808 112.006847 
L 624.121019 112.006847 
L 624.121019 107.479403 
L 617.786808 107.479403 
z
" clip-path="url(#pa892899e67)" style="fill: #00bfff"/>
   </g>
   <g id="patch_76">
    <path d="M 624.121019 112.006847 
L 630.455229 112.006847 
L 630.455229 107.96518 
L 624.121019 107.96518 
z
" clip-path="url(#pa892899e67)" style="fill: #00bfff"/>
   </g>
   <g id="patch_77">
    <path d="M 630.455293 112.006847 
L 636.789567 112.006847 
L 636.789567 107.362816 
L 630.455293 107.362816 
z
" clip-path="url(#pa892899e67)" style="fill: #00bfff"/>
   </g>
   <g id="patch_78">
    <path d="M 636.789503 112.006847 
L 643.123777 112.006847 
L 643.123777 106.352399 
L 636.789503 106.352399 
z
" clip-path="url(#pa892899e67)" style="fill: #00bfff"/>
   </g>
   <g id="patch_79">
    <path d="M 643.123777 112.006847 
L 649.457987 112.006847 
L 649.457987 105.82776 
L 643.123777 105.82776 
z
" clip-path="url(#pa892899e67)" style="fill: #00bfff"/>
   </g>
   <g id="patch_80">
    <path d="M 649.457987 112.006847 
L 655.792198 112.006847 
L 655.792198 105.614017 
L 649.457987 105.614017 
z
" clip-path="url(#pa892899e67)" style="fill: #00bfff"/>
   </g>
   <g id="patch_81">
    <path d="M 655.792261 112.006847 
L 662.126535 112.006847 
L 662.126535 105.439138 
L 655.792261 105.439138 
z
" clip-path="url(#pa892899e67)" style="fill: #00bfff"/>
   </g>
   <g id="patch_82">
    <path d="M 662.126472 112.006847 
L 668.460746 112.006847 
L 668.460746 102.679923 
L 662.126472 102.679923 
z
" clip-path="url(#pa892899e67)" style="fill: #00bfff"/>
   </g>
   <g id="patch_83">
    <path d="M 668.460746 112.006847 
L 674.794956 112.006847 
L 674.794956 101.669506 
L 668.460746 101.669506 
z
" clip-path="url(#pa892899e67)" style="fill: #00bfff"/>
   </g>
   <g id="patch_84">
    <path d="M 674.794956 112.006847 
L 681.129167 112.006847 
L 681.129167 101.358609 
L 674.794956 101.358609 
z
" clip-path="url(#pa892899e67)" style="fill: #00bfff"/>
   </g>
   <g id="patch_85">
    <path d="M 681.12923 112.006847 
L 687.463504 112.006847 
L 687.463504 101.280884 
L 681.12923 101.280884 
z
" clip-path="url(#pa892899e67)" style="fill: #00bfff"/>
   </g>
   <g id="patch_86">
    <path d="M 687.463441 112.006847 
L 693.797715 112.006847 
L 693.797715 97.375235 
L 687.463441 97.375235 
z
" clip-path="url(#pa892899e67)" style="fill: #00bfff"/>
   </g>
   <g id="patch_87">
    <path d="M 693.797715 112.006847 
L 700.131925 112.006847 
L 700.131925 97.82215 
L 693.797715 97.82215 
z
" clip-path="url(#pa892899e67)" style="fill: #00bfff"/>
   </g>
   <g id="patch_88">
    <path d="M 700.131925 112.006847 
L 706.466136 112.006847 
L 706.466136 99.24062 
L 700.131925 99.24062 
z
" clip-path="url(#pa892899e67)" style="fill: #00bfff"/>
   </g>
   <g id="patch_89">
    <path d="M 706.466136 112.006847 
L 712.800346 112.006847 
L 712.800346 95.373833 
L 706.466136 95.373833 
z
" clip-path="url(#pa892899e67)" style="fill: #00bfff"/>
   </g>
   <g id="patch_90">
    <path d="M 712.800346 112.006847 
L 719.134557 112.006847 
L 719.134557 99.901277 
L 712.800346 99.901277 
z
" clip-path="url(#pa892899e67)" style="fill: #00bfff"/>
   </g>
   <g id="patch_91">
    <path d="M 719.13462 112.006847 
L 725.468894 112.006847 
L 725.468894 96.967182 
L 719.13462 96.967182 
z
" clip-path="url(#pa892899e67)" style="fill: #00bfff"/>
   </g>
   <g id="patch_92">
    <path d="M 725.468831 112.006847 
L 731.803105 112.006847 
L 731.803105 93.352999 
L 725.468831 93.352999 
z
" clip-path="url(#pa892899e67)" style="fill: #00bfff"/>
   </g>
   <g id="patch_93">
    <path d="M 731.803105 112.006847 
L 738.137315 112.006847 
L 738.137315 94.44114 
L 731.803105 94.44114 
z
" clip-path="url(#pa892899e67)" style="fill: #00bfff"/>
   </g>
   <g id="patch_94">
    <path d="M 738.137315 112.006847 
L 744.471526 112.006847 
L 744.471526 97.841581 
L 738.137315 97.841581 
z
" clip-path="url(#pa892899e67)" style="fill: #00bfff"/>
   </g>
   <g id="patch_95">
    <path d="M 744.471589 112.006847 
L 750.805863 112.006847 
L 750.805863 98.249634 
L 744.471589 98.249634 
z
" clip-path="url(#pa892899e67)" style="fill: #00bfff"/>
   </g>
   <g id="patch_96">
    <path d="M 750.8058 112.006847 
L 757.140074 112.006847 
L 757.140074 97.880443 
L 750.8058 97.880443 
z
" clip-path="url(#pa892899e67)" style="fill: #00bfff"/>
   </g>
   <g id="patch_97">
    <path d="M 757.140074 112.006847 
L 763.474284 112.006847 
L 763.474284 101.339177 
L 757.140074 101.339177 
z
" clip-path="url(#pa892899e67)" style="fill: #00bfff"/>
   </g>
   <g id="patch_98">
    <path d="M 763.474284 112.006847 
L 769.808495 112.006847 
L 769.808495 102.874234 
L 763.474284 102.874234 
z
" clip-path="url(#pa892899e67)" style="fill: #00bfff"/>
   </g>
   <g id="patch_99">
    <path d="M 769.808558 112.006847 
L 776.142832 112.006847 
L 776.142832 103.418304 
L 769.808558 103.418304 
z
" clip-path="url(#pa892899e67)" style="fill: #00bfff"/>
   </g>
   <g id="patch_100">
    <path d="M 776.142769 112.006847 
L 782.477043 112.006847 
L 782.477043 102.155284 
L 776.142769 102.155284 
z
" clip-path="url(#pa892899e67)" style="fill: #00bfff"/>
   </g>
   <g id="patch_101">
    <path d="M 782.477043 112.006847 
L 788.811253 112.006847 
L 788.811253 107.285092 
L 782.477043 107.285092 
z
" clip-path="url(#pa892899e67)" style="fill: #00bfff"/>
   </g>
   <g id="patch_102">
    <path d="M 788.811253 112.006847 
L 795.145464 112.006847 
L 795.145464 104.506445 
L 788.811253 104.506445 
z
" clip-path="url(#pa892899e67)" style="fill: #00bfff"/>
   </g>
   <g id="patch_103">
    <path d="M 795.145527 112.006847 
L 801.479801 112.006847 
L 801.479801 105.866622 
L 795.145527 105.866622 
z
" clip-path="url(#pa892899e67)" style="fill: #00bfff"/>
   </g>
   <g id="patch_104">
    <path d="M 801.479738 112.006847 
L 807.814011 112.006847 
L 807.814011 106.37183 
L 801.479738 106.37183 
z
" clip-path="url(#pa892899e67)" style="fill: #00bfff"/>
   </g>
   <g id="patch_105">
    <path d="M 807.814011 112.006847 
L 814.148222 112.006847 
L 814.148222 110.782688 
L 807.814011 110.782688 
z
" clip-path="url(#pa892899e67)" style="fill: #00bfff"/>
   </g>
   <g id="patch_106">
    <path d="M 814.148285 112.006847 
L 820.482559 112.006847 
L 820.482559 111.287896 
L 814.148285 111.287896 
z
" clip-path="url(#pa892899e67)" style="fill: #00bfff"/>
   </g>
   <g id="patch_107">
    <path d="M 820.482496 112.006847 
L 826.81677 112.006847 
L 826.81677 111.793105 
L 820.482496 111.793105 
z
" clip-path="url(#pa892899e67)" style="fill: #00bfff"/>
   </g>
   <g id="patch_108">
    <path d="M 826.81677 112.006847 
L 833.15098 112.006847 
L 833.15098 111.967985 
L 826.81677 111.967985 
z
" clip-path="url(#pa892899e67)" style="fill: #00bfff"/>
   </g>
   <g id="line2d_12">
    <path d="M 199.726853 112.006847 
L 199.726853 19.427409 
" clip-path="url(#pa892899e67)" style="fill: none; stroke: #ff0000; stroke-width: 1.5; stroke-linecap: square"/>
   </g>
   <g id="line2d_13">
    <path d="M 833.15098 112.006847 
L 833.15098 19.427409 
" clip-path="url(#pa892899e67)" style="fill: none; stroke: #ff0000; stroke-width: 1.5; stroke-linecap: square"/>
   </g>
   <g id="line2d_14">
    <path d="M 10.700003 111.543399 
L 19.173739 111.456258 
L 27.647476 111.355029 
L 36.121216 111.237897 
L 44.594952 111.102903 
L 53.068689 110.94794 
L 61.542429 110.770768 
L 70.016166 110.569019 
L 78.489902 110.340213 
L 86.963639 110.08178 
L 95.437377 109.791082 
L 103.911115 109.465443 
L 112.384852 109.102181 
L 120.858588 108.698655 
L 129.332328 108.252297 
L 137.806065 107.760679 
L 146.279801 107.221549 
L 154.753538 106.632903 
L 163.227274 105.99304 
L 171.701018 105.300621 
L 180.174755 104.554737 
L 188.648491 103.754973 
L 197.122228 102.901461 
L 205.595964 101.994949 
L 214.0697 101.036845 
L 222.543437 100.029256 
L 231.017173 98.975045 
L 239.49091 97.877832 
L 247.964646 96.742033 
L 256.438382 95.572838 
L 264.912119 94.376214 
L 273.385855 93.158878 
L 281.859592 91.928241 
L 290.333328 90.69236 
L 298.807064 89.459859 
L 307.280801 88.239838 
L 315.754537 87.041773 
L 324.228274 85.875398 
L 332.70201 84.75057 
L 341.175747 83.677158 
L 349.649483 82.664867 
L 358.123219 81.723115 
L 366.596956 80.860891 
L 375.070692 80.086593 
L 383.544429 79.407922 
L 392.018165 78.831723 
L 400.491901 78.363887 
L 408.965638 78.009257 
L 417.439406 77.771528 
L 425.913142 77.653189 
L 434.386879 77.655487 
L 442.860615 77.778402 
L 451.334352 78.020637 
L 459.808088 78.37965 
L 468.281824 78.851704 
L 476.755561 79.431918 
L 485.229297 80.114358 
L 493.703034 80.892147 
L 502.17677 81.757558 
L 510.650506 82.702162 
L 519.124243 83.716955 
L 527.597979 84.792505 
L 536.071716 85.919094 
L 544.545452 87.086854 
L 553.019188 88.285931 
L 561.492925 89.506598 
L 569.966661 90.739393 
L 578.440398 91.975229 
L 586.914134 93.205504 
L 595.38787 94.422185 
L 603.861607 95.61788 
L 612.335343 96.785909 
L 620.809111 97.920338 
L 629.282848 99.015986 
L 637.756584 100.068484 
L 646.230321 101.074235 
L 654.704057 102.030412 
L 663.177793 102.934925 
L 671.65153 103.786402 
L 680.125266 104.584114 
L 688.599003 105.327952 
L 697.072739 106.018351 
L 705.546475 106.656238 
L 714.020212 107.242965 
L 722.493948 107.780248 
L 730.967685 108.270102 
L 739.441421 108.714782 
L 747.915158 109.11673 
L 756.388894 109.47851 
L 764.86263 109.802771 
L 773.336367 110.092191 
L 781.810103 110.349448 
L 790.28384 110.577176 
L 798.757576 110.777945 
L 807.231312 110.95423 
L 815.705049 111.108392 
L 824.178785 111.24267 
L 832.652522 111.359161 
L 841.126258 111.459821 
L 849.599994 111.546461 
" clip-path="url(#pa892899e67)" style="fill: none; stroke: #1f77b4; stroke-width: 1.5; stroke-linecap: square"/>
   </g>
   <g id="text_10">
    <g id="patch_109">
     <path d="M 136.087472 36.734506 
L 152.395284 36.734506 
Q 155.395284 36.734506 155.395284 33.734506 
L 155.395284 24.056381 
Q 155.395284 21.056381 152.395284 21.056381 
L 136.087472 21.056381 
Q 133.087472 21.056381 133.087472 24.056381 
L 133.087472 33.734506 
Q 133.087472 36.734506 136.087472 36.734506 
z
" style="fill: #ffffff"/>
    </g>
    <!-- -2σ -->
    <g transform="translate(136.087472 31.654819) scale(0.1 -0.1)">
     <defs>
      <path id="DejaVuSans-2d" d="M 313 2009 
L 1997 2009 
L 1997 1497 
L 313 1497 
L 313 2009 
z
" transform="scale(0.015625)"/>
     </defs>
     <use xlink:href="#DejaVuSans-2d"/>
     <use xlink:href="#DejaVuSans-32" x="36.083984"/>
     <use xlink:href="#DejaVuSans-3c3" x="99.707031"/>
    </g>
   </g>
   <g id="text_11">
    <g id="patch_110">
     <path d="M 282.1424 36.734506 
L 292.087713 36.734506 
Q 295.087713 36.734506 295.087713 33.734506 
L 295.087713 24.056381 
Q 295.087713 21.056381 292.087713 21.056381 
L 282.1424 21.056381 
Q 279.1424 21.056381 279.1424 24.056381 
L 279.1424 33.734506 
Q 279.1424 36.734506 282.1424 36.734506 
z
" style="fill: #ffffff"/>
    </g>
    <!-- -σ -->
    <g transform="translate(282.1424 31.654819) scale(0.1 -0.1)">
     <use xlink:href="#DejaVuSans-2d"/>
     <use xlink:href="#DejaVuSans-3c3" x="36.083984"/>
    </g>
   </g>
   <g id="text_12">
    <g id="patch_111">
     <path d="M 426.309829 36.734506 
L 433.667641 36.734506 
Q 436.667641 36.734506 436.667641 33.734506 
L 436.667641 24.056381 
Q 436.667641 21.056381 433.667641 21.056381 
L 426.309829 21.056381 
Q 423.309829 21.056381 423.309829 24.056381 
L 423.309829 33.734506 
Q 423.309829 36.734506 426.309829 36.734506 
z
" style="fill: #ffffff"/>
    </g>
    <!-- μ -->
    <g transform="translate(426.309829 31.643881) scale(0.1 -0.1)">
     <defs>
      <path id="DejaVuSans-Bold-3bc" d="M 544 -1338 
L 544 3500 
L 1672 3500 
L 1672 1466 
Q 1672 1103 1828 926 
Q 1984 750 2303 750 
Q 2625 750 2781 926 
Q 2938 1103 2938 1466 
L 2938 3500 
L 4063 3500 
L 4063 1159 
Q 4063 938 4114 850 
Q 4166 763 4288 763 
Q 4344 763 4395 778 
Q 4447 794 4506 831 
L 4506 50 
Q 4341 -22 4195 -56 
Q 4050 -91 3909 -91 
Q 3631 -91 3454 26 
Q 3278 144 3169 403 
Q 3022 156 2811 32 
Q 2600 -91 2322 -91 
Q 2091 -91 1928 -17 
Q 1766 56 1672 206 
L 1672 -1338 
L 544 -1338 
z
" transform="scale(0.015625)"/>
     </defs>
     <use xlink:href="#DejaVuSans-Bold-3bc"/>
    </g>
   </g>
   <g id="text_13">
    <g id="patch_112">
     <path d="M 565.50382 36.734506 
L 580.221007 36.734506 
Q 583.221007 36.734506 583.221007 33.734506 
L 583.221007 24.056381 
Q 583.221007 21.056381 580.221007 21.056381 
L 565.50382 21.056381 
Q 562.50382 21.056381 562.50382 24.056381 
L 562.50382 33.734506 
Q 562.50382 36.734506 565.50382 36.734506 
z
" style="fill: #ffffff"/>
    </g>
    <!-- +σ -->
    <g transform="translate(565.50382 31.654819) scale(0.1 -0.1)">
     <defs>
      <path id="DejaVuSans-2b" d="M 2944 4013 
L 2944 2272 
L 4684 2272 
L 4684 1741 
L 2944 1741 
L 2944 0 
L 2419 0 
L 2419 1741 
L 678 1741 
L 678 2272 
L 2419 2272 
L 2419 4013 
L 2944 4013 
z
" transform="scale(0.015625)"/>
     </defs>
     <use xlink:href="#DejaVuSans-2b"/>
     <use xlink:href="#DejaVuSans-3c3" x="83.789062"/>
    </g>
   </g>
   <g id="text_14">
    <g id="patch_113">
     <path d="M 705.196248 36.734506 
L 726.275936 36.734506 
Q 729.275936 36.734506 729.275936 33.734506 
L 729.275936 24.056381 
Q 729.275936 21.056381 726.275936 21.056381 
L 705.196248 21.056381 
Q 702.196248 21.056381 702.196248 24.056381 
L 702.196248 33.734506 
Q 702.196248 36.734506 705.196248 36.734506 
z
" style="fill: #ffffff"/>
    </g>
    <!-- +2σ -->
    <g transform="translate(705.196248 31.654819) scale(0.1 -0.1)">
     <use xlink:href="#DejaVuSans-2b"/>
     <use xlink:href="#DejaVuSans-32" x="83.789062"/>
     <use xlink:href="#DejaVuSans-3c3" x="147.412109"/>
    </g>
   </g>
  </g>
 </g>
 <defs>
  <clipPath id="pa892899e67">
   <rect x="10.7" y="19.427409" width="838.9" height="92.579438"/>
  </clipPath>
 </defs>
</svg>
