<?xml version="1.0" encoding="utf-8" standalone="no"?>
<!DOCTYPE svg PUBLIC "-//W3C//DTD SVG 1.1//EN"
  "http://www.w3.org/Graphics/SVG/1.1/DTD/svg11.dtd">
<svg xmlns:xlink="http://www.w3.org/1999/xlink" width="856.8pt" height="135.884972pt" viewBox="0 0 856.8 135.884972" xmlns="http://www.w3.org/2000/svg" version="1.1">
 <metadata>
  <rdf:RDF xmlns:dc="http://purl.org/dc/elements/1.1/" xmlns:cc="http://creativecommons.org/ns#" xmlns:rdf="http://www.w3.org/1999/02/22-rdf-syntax-ns#">
   <cc:Work>
    <dc:type rdf:resource="http://purl.org/dc/dcmitype/StillImage"/>
    <dc:date>2022-10-26T12:25:22.638126</dc:date>
    <dc:format>image/svg+xml</dc:format>
    <dc:creator>
     <cc:Agent>
      <dc:title>Matplotlib v3.6.1, https://matplotlib.org/</dc:title>
     </cc:Agent>
    </dc:creator>
   </cc:Work>
  </rdf:RDF>
 </metadata>
 <defs>
  <style type="text/css">*{stroke-linejoin: round; stroke-linecap: butt}</style>
 </defs>
 <g id="figure_1">
  <g id="patch_1">
   <path d="M 0 135.884972 
L 856.8 135.884972 
L 856.8 0 
L 0 0 
z
" style="fill: #ffffff"/>
  </g>
  <g id="axes_1">
   <g id="patch_2">
    <path d="M 10.7 112.006847 
L 849.6 112.006847 
L 849.6 19.427409 
L 10.7 19.427409 
z
" style="fill: #ffffff"/>
   </g>
   <g id="matplotlib.axis_1">
    <g id="xtick_1">
     <g id="line2d_1">
      <defs>
       <path id="mbbc6e60730" d="M 0 0 
L 0 3.5 
" style="stroke: #000000; stroke-width: 0.8"/>
      </defs>
      <g>
       <use xlink:href="#mbbc6e60730" x="124.562804" y="112.006847" style="stroke: #000000; stroke-width: 0.8"/>
      </g>
     </g>
     <g id="text_1">
      <!-- −2 -->
      <g transform="translate(117.19171 126.605284) scale(0.1 -0.1)">
       <defs>
        <path id="DejaVuSans-2212" d="M 678 2272 
L 4684 2272 
L 4684 1741 
L 678 1741 
L 678 2272 
z
" transform="scale(0.015625)"/>
        <path id="DejaVuSans-32" d="M 1228 531 
L 3431 531 
L 3431 0 
L 469 0 
L 469 531 
Q 828 903 1448 1529 
Q 2069 2156 2228 2338 
Q 2531 2678 2651 2914 
Q 2772 3150 2772 3378 
Q 2772 3750 2511 3984 
Q 2250 4219 1831 4219 
Q 1534 4219 1204 4116 
Q 875 4013 500 3803 
L 500 4441 
Q 881 4594 1212 4672 
Q 1544 4750 1819 4750 
Q 2544 4750 2975 4387 
Q 3406 4025 3406 3419 
Q 3406 3131 3298 2873 
Q 3191 2616 2906 2266 
Q 2828 2175 2409 1742 
Q 1991 1309 1228 531 
z
" transform="scale(0.015625)"/>
       </defs>
       <use xlink:href="#DejaVuSans-2212"/>
       <use xlink:href="#DejaVuSans-32" x="83.789062"/>
      </g>
     </g>
    </g>
    <g id="xtick_2">
     <g id="line2d_2">
      <g>
       <use xlink:href="#mbbc6e60730" x="277.275769" y="112.006847" style="stroke: #000000; stroke-width: 0.8"/>
      </g>
     </g>
     <g id="text_2">
      <!-- −1 -->
      <g transform="translate(269.904676 126.605284) scale(0.1 -0.1)">
       <defs>
        <path id="DejaVuSans-31" d="M 794 531 
L 1825 531 
L 1825 4091 
L 703 3866 
L 703 4441 
L 1819 4666 
L 2450 4666 
L 2450 531 
L 3481 531 
L 3481 0 
L 794 0 
L 794 531 
z
" transform="scale(0.015625)"/>
       </defs>
       <use xlink:href="#DejaVuSans-2212"/>
       <use xlink:href="#DejaVuSans-31" x="83.789062"/>
      </g>
     </g>
    </g>
    <g id="xtick_3">
     <g id="line2d_3">
      <g>
       <use xlink:href="#mbbc6e60730" x="429.988735" y="112.006847" style="stroke: #000000; stroke-width: 0.8"/>
      </g>
     </g>
     <g id="text_3">
      <!-- 0 -->
      <g transform="translate(426.807485 126.605284) scale(0.1 -0.1)">
       <defs>
        <path id="DejaVuSans-30" d="M 2034 4250 
Q 1547 4250 1301 3770 
Q 1056 3291 1056 2328 
Q 1056 1369 1301 889 
Q 1547 409 2034 409 
Q 2525 409 2770 889 
Q 3016 1369 3016 2328 
Q 3016 3291 2770 3770 
Q 2525 4250 2034 4250 
z
M 2034 4750 
Q 2819 4750 3233 4129 
Q 3647 3509 3647 2328 
Q 3647 1150 3233 529 
Q 2819 -91 2034 -91 
Q 1250 -91 836 529 
Q 422 1150 422 2328 
Q 422 3509 836 4129 
Q 1250 4750 2034 4750 
z
" transform="scale(0.015625)"/>
       </defs>
       <use xlink:href="#DejaVuSans-30"/>
      </g>
     </g>
    </g>
    <g id="xtick_4">
     <g id="line2d_4">
      <g>
       <use xlink:href="#mbbc6e60730" x="582.701701" y="112.006847" style="stroke: #000000; stroke-width: 0.8"/>
      </g>
     </g>
     <g id="text_4">
      <!-- 1 -->
      <g transform="translate(579.520451 126.605284) scale(0.1 -0.1)">
       <use xlink:href="#DejaVuSans-31"/>
      </g>
     </g>
    </g>
    <g id="xtick_5">
     <g id="line2d_5">
      <g>
       <use xlink:href="#mbbc6e60730" x="735.414666" y="112.006847" style="stroke: #000000; stroke-width: 0.8"/>
      </g>
     </g>
     <g id="text_5">
      <!-- 2 -->
      <g transform="translate(732.233416 126.605284) scale(0.1 -0.1)">
       <use xlink:href="#DejaVuSans-32"/>
      </g>
     </g>
    </g>
   </g>
   <g id="matplotlib.axis_2"/>
   <g id="line2d_6">
    <path d="M 42.910566 112.006847 
L 42.910566 19.427409 
" clip-path="url(#pf35760341e)" style="fill: none; stroke: #000000; stroke-width: 1.5; stroke-linecap: square"/>
   </g>
   <g id="line2d_7">
    <path d="M 206.799352 112.006847 
L 206.799352 19.427409 
" clip-path="url(#pf35760341e)" style="fill: none; stroke: #000000; stroke-width: 1.5; stroke-linecap: square"/>
   </g>
   <g id="line2d_8">
    <path d="M 370.688138 112.006847 
L 370.688138 19.427409 
" clip-path="url(#pf35760341e)" style="fill: none; stroke: #000000; stroke-width: 1.5; stroke-linecap: square"/>
   </g>
   <g id="line2d_9">
    <path d="M 534.576923 112.006847 
L 534.576923 19.427409 
" clip-path="url(#pf35760341e)" style="fill: none; stroke: #000000; stroke-width: 1.5; stroke-linecap: square"/>
   </g>
   <g id="line2d_10">
    <path d="M 698.465709 112.006847 
L 698.465709 19.427409 
" clip-path="url(#pf35760341e)" style="fill: none; stroke: #000000; stroke-width: 1.5; stroke-linecap: square"/>
   </g>
   <g id="patch_3">
    <path d="M 10.7 112.006847 
L 10.7 19.427409 
" style="fill: none; stroke: #000000; stroke-width: 0.8; stroke-linejoin: miter; stroke-linecap: square"/>
   </g>
   <g id="patch_4">
    <path d="M 849.6 112.006847 
L 849.6 19.427409 
" style="fill: none; stroke: #000000; stroke-width: 0.8; stroke-linejoin: miter; stroke-linecap: square"/>
   </g>
   <g id="patch_5">
    <path d="M 10.7 112.006847 
L 849.6 112.006847 
" style="fill: none; stroke: #000000; stroke-width: 0.8; stroke-linejoin: miter; stroke-linecap: square"/>
   </g>
   <g id="patch_6">
    <path d="M 10.7 19.427409 
L 849.6 19.427409 
" style="fill: none; stroke: #000000; stroke-width: 0.8; stroke-linejoin: miter; stroke-linecap: square"/>
   </g>
   <g id="text_6">
    <g id="patch_7">
     <path d="M 108.557342 95.453066 
L 108.557342 35.981191 
Q 108.557342 32.981191 105.557342 32.981191 
L 95.879217 32.981191 
Q 92.879217 32.981191 92.879217 35.981191 
L 92.879217 95.453066 
Q 92.879217 98.453066 95.879217 98.453066 
L 105.557342 98.453066 
Q 108.557342 98.453066 108.557342 95.453066 
z
" style="fill: #ffffff"/>
    </g>
    <!-- min=-2.118 -->
    <g transform="translate(103.477655 95.453066) rotate(-90) scale(0.1 -0.1)">
     <defs>
      <path id="DejaVuSans-6d" d="M 3328 2828 
Q 3544 3216 3844 3400 
Q 4144 3584 4550 3584 
Q 5097 3584 5394 3201 
Q 5691 2819 5691 2113 
L 5691 0 
L 5113 0 
L 5113 2094 
Q 5113 2597 4934 2840 
Q 4756 3084 4391 3084 
Q 3944 3084 3684 2787 
Q 3425 2491 3425 1978 
L 3425 0 
L 2847 0 
L 2847 2094 
Q 2847 2600 2669 2842 
Q 2491 3084 2119 3084 
Q 1678 3084 1418 2786 
Q 1159 2488 1159 1978 
L 1159 0 
L 581 0 
L 581 3500 
L 1159 3500 
L 1159 2956 
Q 1356 3278 1631 3431 
Q 1906 3584 2284 3584 
Q 2666 3584 2933 3390 
Q 3200 3197 3328 2828 
z
" transform="scale(0.015625)"/>
      <path id="DejaVuSans-69" d="M 603 3500 
L 1178 3500 
L 1178 0 
L 603 0 
L 603 3500 
z
M 603 4863 
L 1178 4863 
L 1178 4134 
L 603 4134 
L 603 4863 
z
" transform="scale(0.015625)"/>
      <path id="DejaVuSans-6e" d="M 3513 2113 
L 3513 0 
L 2938 0 
L 2938 2094 
Q 2938 2591 2744 2837 
Q 2550 3084 2163 3084 
Q 1697 3084 1428 2787 
Q 1159 2491 1159 1978 
L 1159 0 
L 581 0 
L 581 3500 
L 1159 3500 
L 1159 2956 
Q 1366 3272 1645 3428 
Q 1925 3584 2291 3584 
Q 2894 3584 3203 3211 
Q 3513 2838 3513 2113 
z
" transform="scale(0.015625)"/>
      <path id="DejaVuSans-3d" d="M 678 2906 
L 4684 2906 
L 4684 2381 
L 678 2381 
L 678 2906 
z
M 678 1631 
L 4684 1631 
L 4684 1100 
L 678 1100 
L 678 1631 
z
" transform="scale(0.015625)"/>
      <path id="DejaVuSans-2d" d="M 313 2009 
L 1997 2009 
L 1997 1497 
L 313 1497 
L 313 2009 
z
" transform="scale(0.015625)"/>
      <path id="DejaVuSans-2e" d="M 684 794 
L 1344 794 
L 1344 0 
L 684 0 
L 684 794 
z
" transform="scale(0.015625)"/>
      <path id="DejaVuSans-38" d="M 2034 2216 
Q 1584 2216 1326 1975 
Q 1069 1734 1069 1313 
Q 1069 891 1326 650 
Q 1584 409 2034 409 
Q 2484 409 2743 651 
Q 3003 894 3003 1313 
Q 3003 1734 2745 1975 
Q 2488 2216 2034 2216 
z
M 1403 2484 
Q 997 2584 770 2862 
Q 544 3141 544 3541 
Q 544 4100 942 4425 
Q 1341 4750 2034 4750 
Q 2731 4750 3128 4425 
Q 3525 4100 3525 3541 
Q 3525 3141 3298 2862 
Q 3072 2584 2669 2484 
Q 3125 2378 3379 2068 
Q 3634 1759 3634 1313 
Q 3634 634 3220 271 
Q 2806 -91 2034 -91 
Q 1263 -91 848 271 
Q 434 634 434 1313 
Q 434 1759 690 2068 
Q 947 2378 1403 2484 
z
M 1172 3481 
Q 1172 3119 1398 2916 
Q 1625 2713 2034 2713 
Q 2441 2713 2670 2916 
Q 2900 3119 2900 3481 
Q 2900 3844 2670 4047 
Q 2441 4250 2034 4250 
Q 1625 4250 1398 4047 
Q 1172 3844 1172 3481 
z
" transform="scale(0.015625)"/>
     </defs>
     <use xlink:href="#DejaVuSans-6d"/>
     <use xlink:href="#DejaVuSans-69" x="97.412109"/>
     <use xlink:href="#DejaVuSans-6e" x="125.195312"/>
     <use xlink:href="#DejaVuSans-3d" x="188.574219"/>
     <use xlink:href="#DejaVuSans-2d" x="272.363281"/>
     <use xlink:href="#DejaVuSans-32" x="308.447266"/>
     <use xlink:href="#DejaVuSans-2e" x="372.070312"/>
     <use xlink:href="#DejaVuSans-31" x="403.857422"/>
     <use xlink:href="#DejaVuSans-31" x="467.480469"/>
     <use xlink:href="#DejaVuSans-38" x="531.103516"/>
    </g>
   </g>
   <g id="text_7">
    <g id="patch_8">
     <path d="M 847.829105 95.114784 
L 847.829105 36.319472 
Q 847.829105 33.319472 844.829105 33.319472 
L 835.15098 33.319472 
Q 832.15098 33.319472 832.15098 36.319472 
L 832.15098 95.114784 
Q 832.15098 98.114784 835.15098 98.114784 
L 844.829105 98.114784 
Q 847.829105 98.114784 847.829105 95.114784 
z
" style="fill: #ffffff"/>
    </g>
    <!-- max=2.640 -->
    <g transform="translate(842.749418 95.114784) rotate(-90) scale(0.1 -0.1)">
     <defs>
      <path id="DejaVuSans-61" d="M 2194 1759 
Q 1497 1759 1228 1600 
Q 959 1441 959 1056 
Q 959 750 1161 570 
Q 1363 391 1709 391 
Q 2188 391 2477 730 
Q 2766 1069 2766 1631 
L 2766 1759 
L 2194 1759 
z
M 3341 1997 
L 3341 0 
L 2766 0 
L 2766 531 
Q 2569 213 2275 61 
Q 1981 -91 1556 -91 
Q 1019 -91 701 211 
Q 384 513 384 1019 
Q 384 1609 779 1909 
Q 1175 2209 1959 2209 
L 2766 2209 
L 2766 2266 
Q 2766 2663 2505 2880 
Q 2244 3097 1772 3097 
Q 1472 3097 1187 3025 
Q 903 2953 641 2809 
L 641 3341 
Q 956 3463 1253 3523 
Q 1550 3584 1831 3584 
Q 2591 3584 2966 3190 
Q 3341 2797 3341 1997 
z
" transform="scale(0.015625)"/>
      <path id="DejaVuSans-78" d="M 3513 3500 
L 2247 1797 
L 3578 0 
L 2900 0 
L 1881 1375 
L 863 0 
L 184 0 
L 1544 1831 
L 300 3500 
L 978 3500 
L 1906 2253 
L 2834 3500 
L 3513 3500 
z
" transform="scale(0.015625)"/>
      <path id="DejaVuSans-36" d="M 2113 2584 
Q 1688 2584 1439 2293 
Q 1191 2003 1191 1497 
Q 1191 994 1439 701 
Q 1688 409 2113 409 
Q 2538 409 2786 701 
Q 3034 994 3034 1497 
Q 3034 2003 2786 2293 
Q 2538 2584 2113 2584 
z
M 3366 4563 
L 3366 3988 
Q 3128 4100 2886 4159 
Q 2644 4219 2406 4219 
Q 1781 4219 1451 3797 
Q 1122 3375 1075 2522 
Q 1259 2794 1537 2939 
Q 1816 3084 2150 3084 
Q 2853 3084 3261 2657 
Q 3669 2231 3669 1497 
Q 3669 778 3244 343 
Q 2819 -91 2113 -91 
Q 1303 -91 875 529 
Q 447 1150 447 2328 
Q 447 3434 972 4092 
Q 1497 4750 2381 4750 
Q 2619 4750 2861 4703 
Q 3103 4656 3366 4563 
z
" transform="scale(0.015625)"/>
      <path id="DejaVuSans-34" d="M 2419 4116 
L 825 1625 
L 2419 1625 
L 2419 4116 
z
M 2253 4666 
L 3047 4666 
L 3047 1625 
L 3713 1625 
L 3713 1100 
L 3047 1100 
L 3047 0 
L 2419 0 
L 2419 1100 
L 313 1100 
L 313 1709 
L 2253 4666 
z
" transform="scale(0.015625)"/>
     </defs>
     <use xlink:href="#DejaVuSans-6d"/>
     <use xlink:href="#DejaVuSans-61" x="97.412109"/>
     <use xlink:href="#DejaVuSans-78" x="158.691406"/>
     <use xlink:href="#DejaVuSans-3d" x="217.871094"/>
     <use xlink:href="#DejaVuSans-32" x="301.660156"/>
     <use xlink:href="#DejaVuSans-2e" x="365.283203"/>
     <use xlink:href="#DejaVuSans-36" x="397.070312"/>
     <use xlink:href="#DejaVuSans-34" x="460.693359"/>
     <use xlink:href="#DejaVuSans-30" x="524.316406"/>
    </g>
   </g>
   <g id="text_8">
    <!-- 100000 samples of tensor[3, 196, 196] n=115248 x∈[-2.118, 2.640] μ=-0.388 σ=1.073 -->
    <g transform="translate(10.7 14.798437) scale(0.1 -0.1)">
     <defs>
      <path id="DejaVuSans-20" transform="scale(0.015625)"/>
      <path id="DejaVuSans-73" d="M 2834 3397 
L 2834 2853 
Q 2591 2978 2328 3040 
Q 2066 3103 1784 3103 
Q 1356 3103 1142 2972 
Q 928 2841 928 2578 
Q 928 2378 1081 2264 
Q 1234 2150 1697 2047 
L 1894 2003 
Q 2506 1872 2764 1633 
Q 3022 1394 3022 966 
Q 3022 478 2636 193 
Q 2250 -91 1575 -91 
Q 1294 -91 989 -36 
Q 684 19 347 128 
L 347 722 
Q 666 556 975 473 
Q 1284 391 1588 391 
Q 1994 391 2212 530 
Q 2431 669 2431 922 
Q 2431 1156 2273 1281 
Q 2116 1406 1581 1522 
L 1381 1569 
Q 847 1681 609 1914 
Q 372 2147 372 2553 
Q 372 3047 722 3315 
Q 1072 3584 1716 3584 
Q 2034 3584 2315 3537 
Q 2597 3491 2834 3397 
z
" transform="scale(0.015625)"/>
      <path id="DejaVuSans-70" d="M 1159 525 
L 1159 -1331 
L 581 -1331 
L 581 3500 
L 1159 3500 
L 1159 2969 
Q 1341 3281 1617 3432 
Q 1894 3584 2278 3584 
Q 2916 3584 3314 3078 
Q 3713 2572 3713 1747 
Q 3713 922 3314 415 
Q 2916 -91 2278 -91 
Q 1894 -91 1617 61 
Q 1341 213 1159 525 
z
M 3116 1747 
Q 3116 2381 2855 2742 
Q 2594 3103 2138 3103 
Q 1681 3103 1420 2742 
Q 1159 2381 1159 1747 
Q 1159 1113 1420 752 
Q 1681 391 2138 391 
Q 2594 391 2855 752 
Q 3116 1113 3116 1747 
z
" transform="scale(0.015625)"/>
      <path id="DejaVuSans-6c" d="M 603 4863 
L 1178 4863 
L 1178 0 
L 603 0 
L 603 4863 
z
" transform="scale(0.015625)"/>
      <path id="DejaVuSans-65" d="M 3597 1894 
L 3597 1613 
L 953 1613 
Q 991 1019 1311 708 
Q 1631 397 2203 397 
Q 2534 397 2845 478 
Q 3156 559 3463 722 
L 3463 178 
Q 3153 47 2828 -22 
Q 2503 -91 2169 -91 
Q 1331 -91 842 396 
Q 353 884 353 1716 
Q 353 2575 817 3079 
Q 1281 3584 2069 3584 
Q 2775 3584 3186 3129 
Q 3597 2675 3597 1894 
z
M 3022 2063 
Q 3016 2534 2758 2815 
Q 2500 3097 2075 3097 
Q 1594 3097 1305 2825 
Q 1016 2553 972 2059 
L 3022 2063 
z
" transform="scale(0.015625)"/>
      <path id="DejaVuSans-6f" d="M 1959 3097 
Q 1497 3097 1228 2736 
Q 959 2375 959 1747 
Q 959 1119 1226 758 
Q 1494 397 1959 397 
Q 2419 397 2687 759 
Q 2956 1122 2956 1747 
Q 2956 2369 2687 2733 
Q 2419 3097 1959 3097 
z
M 1959 3584 
Q 2709 3584 3137 3096 
Q 3566 2609 3566 1747 
Q 3566 888 3137 398 
Q 2709 -91 1959 -91 
Q 1206 -91 779 398 
Q 353 888 353 1747 
Q 353 2609 779 3096 
Q 1206 3584 1959 3584 
z
" transform="scale(0.015625)"/>
      <path id="DejaVuSans-66" d="M 2375 4863 
L 2375 4384 
L 1825 4384 
Q 1516 4384 1395 4259 
Q 1275 4134 1275 3809 
L 1275 3500 
L 2222 3500 
L 2222 3053 
L 1275 3053 
L 1275 0 
L 697 0 
L 697 3053 
L 147 3053 
L 147 3500 
L 697 3500 
L 697 3744 
Q 697 4328 969 4595 
Q 1241 4863 1831 4863 
L 2375 4863 
z
" transform="scale(0.015625)"/>
      <path id="DejaVuSans-74" d="M 1172 4494 
L 1172 3500 
L 2356 3500 
L 2356 3053 
L 1172 3053 
L 1172 1153 
Q 1172 725 1289 603 
Q 1406 481 1766 481 
L 2356 481 
L 2356 0 
L 1766 0 
Q 1100 0 847 248 
Q 594 497 594 1153 
L 594 3053 
L 172 3053 
L 172 3500 
L 594 3500 
L 594 4494 
L 1172 4494 
z
" transform="scale(0.015625)"/>
      <path id="DejaVuSans-72" d="M 2631 2963 
Q 2534 3019 2420 3045 
Q 2306 3072 2169 3072 
Q 1681 3072 1420 2755 
Q 1159 2438 1159 1844 
L 1159 0 
L 581 0 
L 581 3500 
L 1159 3500 
L 1159 2956 
Q 1341 3275 1631 3429 
Q 1922 3584 2338 3584 
Q 2397 3584 2469 3576 
Q 2541 3569 2628 3553 
L 2631 2963 
z
" transform="scale(0.015625)"/>
      <path id="DejaVuSans-5b" d="M 550 4863 
L 1875 4863 
L 1875 4416 
L 1125 4416 
L 1125 -397 
L 1875 -397 
L 1875 -844 
L 550 -844 
L 550 4863 
z
" transform="scale(0.015625)"/>
      <path id="DejaVuSans-33" d="M 2597 2516 
Q 3050 2419 3304 2112 
Q 3559 1806 3559 1356 
Q 3559 666 3084 287 
Q 2609 -91 1734 -91 
Q 1441 -91 1130 -33 
Q 819 25 488 141 
L 488 750 
Q 750 597 1062 519 
Q 1375 441 1716 441 
Q 2309 441 2620 675 
Q 2931 909 2931 1356 
Q 2931 1769 2642 2001 
Q 2353 2234 1838 2234 
L 1294 2234 
L 1294 2753 
L 1863 2753 
Q 2328 2753 2575 2939 
Q 2822 3125 2822 3475 
Q 2822 3834 2567 4026 
Q 2313 4219 1838 4219 
Q 1578 4219 1281 4162 
Q 984 4106 628 3988 
L 628 4550 
Q 988 4650 1302 4700 
Q 1616 4750 1894 4750 
Q 2613 4750 3031 4423 
Q 3450 4097 3450 3541 
Q 3450 3153 3228 2886 
Q 3006 2619 2597 2516 
z
" transform="scale(0.015625)"/>
      <path id="DejaVuSans-2c" d="M 750 794 
L 1409 794 
L 1409 256 
L 897 -744 
L 494 -744 
L 750 256 
L 750 794 
z
" transform="scale(0.015625)"/>
      <path id="DejaVuSans-39" d="M 703 97 
L 703 672 
Q 941 559 1184 500 
Q 1428 441 1663 441 
Q 2288 441 2617 861 
Q 2947 1281 2994 2138 
Q 2813 1869 2534 1725 
Q 2256 1581 1919 1581 
Q 1219 1581 811 2004 
Q 403 2428 403 3163 
Q 403 3881 828 4315 
Q 1253 4750 1959 4750 
Q 2769 4750 3195 4129 
Q 3622 3509 3622 2328 
Q 3622 1225 3098 567 
Q 2575 -91 1691 -91 
Q 1453 -91 1209 -44 
Q 966 3 703 97 
z
M 1959 2075 
Q 2384 2075 2632 2365 
Q 2881 2656 2881 3163 
Q 2881 3666 2632 3958 
Q 2384 4250 1959 4250 
Q 1534 4250 1286 3958 
Q 1038 3666 1038 3163 
Q 1038 2656 1286 2365 
Q 1534 2075 1959 2075 
z
" transform="scale(0.015625)"/>
      <path id="DejaVuSans-5d" d="M 1947 4863 
L 1947 -844 
L 622 -844 
L 622 -397 
L 1369 -397 
L 1369 4416 
L 622 4416 
L 622 4863 
L 1947 4863 
z
" transform="scale(0.015625)"/>
      <path id="DejaVuSans-35" d="M 691 4666 
L 3169 4666 
L 3169 4134 
L 1269 4134 
L 1269 2991 
Q 1406 3038 1543 3061 
Q 1681 3084 1819 3084 
Q 2600 3084 3056 2656 
Q 3513 2228 3513 1497 
Q 3513 744 3044 326 
Q 2575 -91 1722 -91 
Q 1428 -91 1123 -41 
Q 819 9 494 109 
L 494 744 
Q 775 591 1075 516 
Q 1375 441 1709 441 
Q 2250 441 2565 725 
Q 2881 1009 2881 1497 
Q 2881 1984 2565 2268 
Q 2250 2553 1709 2553 
Q 1456 2553 1204 2497 
Q 953 2441 691 2322 
L 691 4666 
z
" transform="scale(0.015625)"/>
      <path id="DejaVuSans-2208" d="M 1072 1959 
Q 1094 1728 1291 1353 
Q 1522 919 1959 675 
Q 2388 438 2850 434 
L 5028 434 
L 5028 -63 
L 2850 -63 
Q 2250 -63 1695 246 
Q 1141 556 844 1106 
Q 547 1656 547 2241 
Q 547 2819 844 3369 
Q 1141 3919 1695 4231 
Q 2250 4544 2850 4544 
L 5028 4544 
L 5028 4047 
L 2850 4047 
Q 2388 4044 1959 3803 
Q 1525 3556 1291 3125 
Q 1091 2750 1063 2459 
L 5028 2459 
L 5028 1959 
L 1072 1959 
z
" transform="scale(0.015625)"/>
      <path id="DejaVuSans-3bc" d="M 544 -1331 
L 544 3500 
L 1119 3500 
L 1119 1325 
Q 1119 872 1334 640 
Q 1550 409 1972 409 
Q 2434 409 2667 671 
Q 2900 934 2900 1459 
L 2900 3500 
L 3475 3500 
L 3475 806 
Q 3475 619 3529 530 
Q 3584 441 3700 441 
Q 3728 441 3778 458 
Q 3828 475 3916 513 
L 3916 50 
Q 3788 -22 3673 -56 
Q 3559 -91 3450 -91 
Q 3234 -91 3106 31 
Q 2978 153 2931 403 
Q 2775 156 2548 32 
Q 2322 -91 2016 -91 
Q 1697 -91 1473 31 
Q 1250 153 1119 397 
L 1119 -1331 
L 544 -1331 
z
" transform="scale(0.015625)"/>
      <path id="DejaVuSans-3c3" d="M 1959 3044 
Q 1484 3044 1228 2700 
Q 959 2341 959 1747 
Q 959 1119 1226 758 
Q 1494 397 1959 397 
Q 2419 397 2687 759 
Q 2956 1122 2956 1747 
Q 2956 2319 2688 2700 
Q 2441 3044 1959 3044 
z
M 1959 3500 
L 3869 3500 
L 3869 2925 
L 3225 2925 
Q 3566 2438 3566 1747 
Q 3566 888 3138 400 
Q 2709 -91 1959 -91 
Q 1206 -91 781 400 
Q 353 888 353 1747 
Q 353 2613 781 3097 
Q 1134 3500 1959 3500 
z
" transform="scale(0.015625)"/>
      <path id="DejaVuSans-37" d="M 525 4666 
L 3525 4666 
L 3525 4397 
L 1831 0 
L 1172 0 
L 2766 4134 
L 525 4134 
L 525 4666 
z
" transform="scale(0.015625)"/>
     </defs>
     <use xlink:href="#DejaVuSans-31"/>
     <use xlink:href="#DejaVuSans-30" x="63.623047"/>
     <use xlink:href="#DejaVuSans-30" x="127.246094"/>
     <use xlink:href="#DejaVuSans-30" x="190.869141"/>
     <use xlink:href="#DejaVuSans-30" x="254.492188"/>
     <use xlink:href="#DejaVuSans-30" x="318.115234"/>
     <use xlink:href="#DejaVuSans-20" x="381.738281"/>
     <use xlink:href="#DejaVuSans-73" x="413.525391"/>
     <use xlink:href="#DejaVuSans-61" x="465.625"/>
     <use xlink:href="#DejaVuSans-6d" x="526.904297"/>
     <use xlink:href="#DejaVuSans-70" x="624.316406"/>
     <use xlink:href="#DejaVuSans-6c" x="687.792969"/>
     <use xlink:href="#DejaVuSans-65" x="715.576172"/>
     <use xlink:href="#DejaVuSans-73" x="777.099609"/>
     <use xlink:href="#DejaVuSans-20" x="829.199219"/>
     <use xlink:href="#DejaVuSans-6f" x="860.986328"/>
     <use xlink:href="#DejaVuSans-66" x="922.167969"/>
     <use xlink:href="#DejaVuSans-20" x="957.373047"/>
     <use xlink:href="#DejaVuSans-74" x="989.160156"/>
     <use xlink:href="#DejaVuSans-65" x="1028.369141"/>
     <use xlink:href="#DejaVuSans-6e" x="1089.892578"/>
     <use xlink:href="#DejaVuSans-73" x="1153.271484"/>
     <use xlink:href="#DejaVuSans-6f" x="1205.371094"/>
     <use xlink:href="#DejaVuSans-72" x="1266.552734"/>
     <use xlink:href="#DejaVuSans-5b" x="1307.666016"/>
     <use xlink:href="#DejaVuSans-33" x="1346.679688"/>
     <use xlink:href="#DejaVuSans-2c" x="1410.302734"/>
     <use xlink:href="#DejaVuSans-20" x="1442.089844"/>
     <use xlink:href="#DejaVuSans-31" x="1473.876953"/>
     <use xlink:href="#DejaVuSans-39" x="1537.5"/>
     <use xlink:href="#DejaVuSans-36" x="1601.123047"/>
     <use xlink:href="#DejaVuSans-2c" x="1664.746094"/>
     <use xlink:href="#DejaVuSans-20" x="1696.533203"/>
     <use xlink:href="#DejaVuSans-31" x="1728.320312"/>
     <use xlink:href="#DejaVuSans-39" x="1791.943359"/>
     <use xlink:href="#DejaVuSans-36" x="1855.566406"/>
     <use xlink:href="#DejaVuSans-5d" x="1919.189453"/>
     <use xlink:href="#DejaVuSans-20" x="1958.203125"/>
     <use xlink:href="#DejaVuSans-6e" x="1989.990234"/>
     <use xlink:href="#DejaVuSans-3d" x="2053.369141"/>
     <use xlink:href="#DejaVuSans-31" x="2137.158203"/>
     <use xlink:href="#DejaVuSans-31" x="2200.78125"/>
     <use xlink:href="#DejaVuSans-35" x="2264.404297"/>
     <use xlink:href="#DejaVuSans-32" x="2328.027344"/>
     <use xlink:href="#DejaVuSans-34" x="2391.650391"/>
     <use xlink:href="#DejaVuSans-38" x="2455.273438"/>
     <use xlink:href="#DejaVuSans-20" x="2518.896484"/>
     <use xlink:href="#DejaVuSans-78" x="2550.683594"/>
     <use xlink:href="#DejaVuSans-2208" x="2609.863281"/>
     <use xlink:href="#DejaVuSans-5b" x="2696.972656"/>
     <use xlink:href="#DejaVuSans-2d" x="2735.986328"/>
     <use xlink:href="#DejaVuSans-32" x="2772.070312"/>
     <use xlink:href="#DejaVuSans-2e" x="2835.693359"/>
     <use xlink:href="#DejaVuSans-31" x="2867.480469"/>
     <use xlink:href="#DejaVuSans-31" x="2931.103516"/>
     <use xlink:href="#DejaVuSans-38" x="2994.726562"/>
     <use xlink:href="#DejaVuSans-2c" x="3058.349609"/>
     <use xlink:href="#DejaVuSans-20" x="3090.136719"/>
     <use xlink:href="#DejaVuSans-32" x="3121.923828"/>
     <use xlink:href="#DejaVuSans-2e" x="3185.546875"/>
     <use xlink:href="#DejaVuSans-36" x="3217.333984"/>
     <use xlink:href="#DejaVuSans-34" x="3280.957031"/>
     <use xlink:href="#DejaVuSans-30" x="3344.580078"/>
     <use xlink:href="#DejaVuSans-5d" x="3408.203125"/>
     <use xlink:href="#DejaVuSans-20" x="3447.216797"/>
     <use xlink:href="#DejaVuSans-3bc" x="3479.003906"/>
     <use xlink:href="#DejaVuSans-3d" x="3542.626953"/>
     <use xlink:href="#DejaVuSans-2d" x="3626.416016"/>
     <use xlink:href="#DejaVuSans-30" x="3662.5"/>
     <use xlink:href="#DejaVuSans-2e" x="3726.123047"/>
     <use xlink:href="#DejaVuSans-33" x="3757.910156"/>
     <use xlink:href="#DejaVuSans-38" x="3821.533203"/>
     <use xlink:href="#DejaVuSans-38" x="3885.15625"/>
     <use xlink:href="#DejaVuSans-20" x="3948.779297"/>
     <use xlink:href="#DejaVuSans-3c3" x="3980.566406"/>
     <use xlink:href="#DejaVuSans-3d" x="4043.945312"/>
     <use xlink:href="#DejaVuSans-31" x="4127.734375"/>
     <use xlink:href="#DejaVuSans-2e" x="4191.357422"/>
     <use xlink:href="#DejaVuSans-30" x="4223.144531"/>
     <use xlink:href="#DejaVuSans-37" x="4286.767578"/>
     <use xlink:href="#DejaVuSans-33" x="4350.390625"/>
    </g>
   </g>
   <g id="patch_9">
    <path d="M 106.557342 112.006847 
L 113.82328 112.006847 
L 113.82328 111.888811 
L 106.557342 111.888811 
z
" clip-path="url(#pf35760341e)" style="fill: #00bfff"/>
   </g>
   <g id="patch_10">
    <path d="M 113.82328 112.006847 
L 121.089218 112.006847 
L 121.089218 111.554376 
L 113.82328 111.554376 
z
" clip-path="url(#pf35760341e)" style="fill: #00bfff"/>
   </g>
   <g id="patch_11">
    <path d="M 121.089218 112.006847 
L 128.355156 112.006847 
L 128.355156 111.101906 
L 121.089218 111.101906 
z
" clip-path="url(#pf35760341e)" style="fill: #00bfff"/>
   </g>
   <g id="patch_12">
    <path d="M 128.355156 112.006847 
L 135.621094 112.006847 
L 135.621094 108.426427 
L 128.355156 108.426427 
z
" clip-path="url(#pf35760341e)" style="fill: #00bfff"/>
   </g>
   <g id="patch_13">
    <path d="M 135.621094 112.006847 
L 142.887031 112.006847 
L 142.887031 108.072319 
L 135.621094 108.072319 
z
" clip-path="url(#pf35760341e)" style="fill: #00bfff"/>
   </g>
   <g id="patch_14">
    <path d="M 142.887031 112.006847 
L 150.152969 112.006847 
L 150.152969 104.491899 
L 142.887031 104.491899 
z
" clip-path="url(#pf35760341e)" style="fill: #00bfff"/>
   </g>
   <g id="patch_15">
    <path d="M 150.152969 112.006847 
L 157.418907 112.006847 
L 157.418907 98.629453 
L 150.152969 98.629453 
z
" clip-path="url(#pf35760341e)" style="fill: #00bfff"/>
   </g>
   <g id="patch_16">
    <path d="M 157.418889 112.006847 
L 164.684827 112.006847 
L 164.684827 99.27865 
L 157.418889 99.27865 
z
" clip-path="url(#pf35760341e)" style="fill: #00bfff"/>
   </g>
   <g id="patch_17">
    <path d="M 164.684827 112.006847 
L 171.950765 112.006847 
L 171.950765 95.265431 
L 164.684827 95.265431 
z
" clip-path="url(#pf35760341e)" style="fill: #00bfff"/>
   </g>
   <g id="patch_18">
    <path d="M 171.950765 112.006847 
L 179.216702 112.006847 
L 179.216702 92.64897 
L 171.950765 92.64897 
z
" clip-path="url(#pf35760341e)" style="fill: #00bfff"/>
   </g>
   <g id="patch_19">
    <path d="M 179.216702 112.006847 
L 186.48264 112.006847 
L 186.48264 87.06194 
L 179.216702 87.06194 
z
" clip-path="url(#pf35760341e)" style="fill: #00bfff"/>
   </g>
   <g id="patch_20">
    <path d="M 186.48264 112.006847 
L 193.748578 112.006847 
L 193.748578 93.02275 
L 186.48264 93.02275 
z
" clip-path="url(#pf35760341e)" style="fill: #00bfff"/>
   </g>
   <g id="patch_21">
    <path d="M 193.748578 112.006847 
L 201.014516 112.006847 
L 201.014516 84.701225 
L 193.748578 84.701225 
z
" clip-path="url(#pf35760341e)" style="fill: #00bfff"/>
   </g>
   <g id="patch_22">
    <path d="M 201.014498 112.006847 
L 208.280436 112.006847 
L 208.280436 87.179976 
L 201.014498 87.179976 
z
" clip-path="url(#pf35760341e)" style="fill: #00bfff"/>
   </g>
   <g id="patch_23">
    <path d="M 208.280436 112.006847 
L 215.546373 112.006847 
L 215.546373 88.832478 
L 208.280436 88.832478 
z
" clip-path="url(#pf35760341e)" style="fill: #00bfff"/>
   </g>
   <g id="patch_24">
    <path d="M 215.546373 112.006847 
L 222.812311 112.006847 
L 222.812311 83.77661 
L 215.546373 83.77661 
z
" clip-path="url(#pf35760341e)" style="fill: #00bfff"/>
   </g>
   <g id="patch_25">
    <path d="M 222.812311 112.006847 
L 230.078249 112.006847 
L 230.078249 76.812498 
L 222.812311 76.812498 
z
" clip-path="url(#pf35760341e)" style="fill: #00bfff"/>
   </g>
   <g id="patch_26">
    <path d="M 230.078249 112.006847 
L 237.344187 112.006847 
L 237.344187 65.04826 
L 230.078249 65.04826 
z
" clip-path="url(#pf35760341e)" style="fill: #00bfff"/>
   </g>
   <g id="patch_27">
    <path d="M 237.344187 112.006847 
L 244.610125 112.006847 
L 244.610125 73.645201 
L 237.344187 73.645201 
z
" clip-path="url(#pf35760341e)" style="fill: #00bfff"/>
   </g>
   <g id="patch_28">
    <path d="M 244.610125 112.006847 
L 251.876063 112.006847 
L 251.876063 51.061015 
L 244.610125 51.061015 
z
" clip-path="url(#pf35760341e)" style="fill: #00bfff"/>
   </g>
   <g id="patch_29">
    <path d="M 251.876063 112.006847 
L 259.142 112.006847 
L 259.142 44.175592 
L 251.876063 44.175592 
z
" clip-path="url(#pf35760341e)" style="fill: #00bfff"/>
   </g>
   <g id="patch_30">
    <path d="M 259.142 112.006847 
L 266.407938 112.006847 
L 266.407938 42.97556 
L 259.142 42.97556 
z
" clip-path="url(#pf35760341e)" style="fill: #00bfff"/>
   </g>
   <g id="patch_31">
    <path d="M 266.407938 112.006847 
L 273.673876 112.006847 
L 273.673876 70.222163 
L 266.407938 70.222163 
z
" clip-path="url(#pf35760341e)" style="fill: #00bfff"/>
   </g>
   <g id="patch_32">
    <path d="M 273.673858 112.006847 
L 280.939796 112.006847 
L 280.939796 54.051256 
L 273.673858 54.051256 
z
" clip-path="url(#pf35760341e)" style="fill: #00bfff"/>
   </g>
   <g id="patch_33">
    <path d="M 280.939814 112.006847 
L 288.205752 112.006847 
L 288.205752 57.592331 
L 280.939814 57.592331 
z
" clip-path="url(#pf35760341e)" style="fill: #00bfff"/>
   </g>
   <g id="patch_34">
    <path d="M 288.205752 112.006847 
L 295.47169 112.006847 
L 295.47169 68.117191 
L 288.205752 68.117191 
z
" clip-path="url(#pf35760341e)" style="fill: #00bfff"/>
   </g>
   <g id="patch_35">
    <path d="M 295.47169 112.006847 
L 302.737628 112.006847 
L 302.737628 49.60524 
L 295.47169 49.60524 
z
" clip-path="url(#pf35760341e)" style="fill: #00bfff"/>
   </g>
   <g id="patch_36">
    <path d="M 302.737628 112.006847 
L 310.003565 112.006847 
L 310.003565 57.74971 
L 302.737628 57.74971 
z
" clip-path="url(#pf35760341e)" style="fill: #00bfff"/>
   </g>
   <g id="patch_37">
    <path d="M 310.003556 112.006847 
L 317.269494 112.006847 
L 317.269494 44.391991 
L 310.003556 44.391991 
z
" clip-path="url(#pf35760341e)" style="fill: #00bfff"/>
   </g>
   <g id="patch_38">
    <path d="M 317.269494 112.006847 
L 324.535432 112.006847 
L 324.535432 47.224848 
L 317.269494 47.224848 
z
" clip-path="url(#pf35760341e)" style="fill: #00bfff"/>
   </g>
   <g id="patch_39">
    <path d="M 324.535432 112.006847 
L 331.80137 112.006847 
L 331.80137 40.791895 
L 324.535432 40.791895 
z
" clip-path="url(#pf35760341e)" style="fill: #00bfff"/>
   </g>
   <g id="patch_40">
    <path d="M 331.801361 112.006847 
L 339.067298 112.006847 
L 339.067298 48.503572 
L 331.801361 48.503572 
z
" clip-path="url(#pf35760341e)" style="fill: #00bfff"/>
   </g>
   <g id="patch_41">
    <path d="M 339.067298 112.006847 
L 346.333236 112.006847 
L 346.333236 51.198722 
L 339.067298 51.198722 
z
" clip-path="url(#pf35760341e)" style="fill: #00bfff"/>
   </g>
   <g id="patch_42">
    <path d="M 346.333236 112.006847 
L 353.599174 112.006847 
L 353.599174 41.952584 
L 346.333236 41.952584 
z
" clip-path="url(#pf35760341e)" style="fill: #00bfff"/>
   </g>
   <g id="patch_43">
    <path d="M 353.599174 112.006847 
L 360.865112 112.006847 
L 360.865112 47.401904 
L 353.599174 47.401904 
z
" clip-path="url(#pf35760341e)" style="fill: #00bfff"/>
   </g>
   <g id="patch_44">
    <path d="M 360.865107 112.006847 
L 368.131045 112.006847 
L 368.131045 58.103817 
L 360.865107 58.103817 
z
" clip-path="url(#pf35760341e)" style="fill: #00bfff"/>
   </g>
   <g id="patch_45">
    <path d="M 368.131041 112.006847 
L 375.396979 112.006847 
L 375.396979 81.002768 
L 368.131041 81.002768 
z
" clip-path="url(#pf35760341e)" style="fill: #00bfff"/>
   </g>
   <g id="patch_46">
    <path d="M 375.396979 112.006847 
L 382.662916 112.006847 
L 382.662916 79.035506 
L 375.396979 79.035506 
z
" clip-path="url(#pf35760341e)" style="fill: #00bfff"/>
   </g>
   <g id="patch_47">
    <path d="M 382.662916 112.006847 
L 389.928854 112.006847 
L 389.928854 88.635752 
L 382.662916 88.635752 
z
" clip-path="url(#pf35760341e)" style="fill: #00bfff"/>
   </g>
   <g id="patch_48">
    <path d="M 389.92885 112.006847 
L 397.194788 112.006847 
L 397.194788 95.049033 
L 389.92885 95.049033 
z
" clip-path="url(#pf35760341e)" style="fill: #00bfff"/>
   </g>
   <g id="patch_49">
    <path d="M 397.194788 112.006847 
L 404.460725 112.006847 
L 404.460725 103.291868 
L 397.194788 103.291868 
z
" clip-path="url(#pf35760341e)" style="fill: #00bfff"/>
   </g>
   <g id="patch_50">
    <path d="M 404.460723 112.006847 
L 411.726661 112.006847 
L 411.726661 100.085228 
L 404.460723 100.085228 
z
" clip-path="url(#pf35760341e)" style="fill: #00bfff"/>
   </g>
   <g id="patch_51">
    <path d="M 411.72666 112.006847 
L 418.992598 112.006847 
L 418.992598 102.622998 
L 411.72666 102.622998 
z
" clip-path="url(#pf35760341e)" style="fill: #00bfff"/>
   </g>
   <g id="patch_52">
    <path d="M 418.992596 112.006847 
L 426.258534 112.006847 
L 426.258534 104.393536 
L 418.992596 104.393536 
z
" clip-path="url(#pf35760341e)" style="fill: #00bfff"/>
   </g>
   <g id="patch_53">
    <path d="M 426.258532 112.006847 
L 433.52447 112.006847 
L 433.52447 104.806661 
L 426.258532 104.806661 
z
" clip-path="url(#pf35760341e)" style="fill: #00bfff"/>
   </g>
   <g id="patch_54">
    <path d="M 433.524468 112.006847 
L 440.790405 112.006847 
L 440.790405 104.629607 
L 433.524468 104.629607 
z
" clip-path="url(#pf35760341e)" style="fill: #00bfff"/>
   </g>
   <g id="patch_55">
    <path d="M 440.790405 112.006847 
L 448.056343 112.006847 
L 448.056343 104.373863 
L 440.790405 104.373863 
z
" clip-path="url(#pf35760341e)" style="fill: #00bfff"/>
   </g>
   <g id="patch_56">
    <path d="M 448.056339 112.006847 
L 455.322277 112.006847 
L 455.322277 105.02306 
L 448.056339 105.02306 
z
" clip-path="url(#pf35760341e)" style="fill: #00bfff"/>
   </g>
   <g id="patch_57">
    <path d="M 455.322277 112.006847 
L 462.588214 112.006847 
L 462.588214 105.39684 
L 455.322277 105.39684 
z
" clip-path="url(#pf35760341e)" style="fill: #00bfff"/>
   </g>
   <g id="patch_58">
    <path d="M 462.588212 112.006847 
L 469.854152 112.006847 
L 469.854152 104.688625 
L 462.588212 104.688625 
z
" clip-path="url(#pf35760341e)" style="fill: #00bfff"/>
   </g>
   <g id="patch_59">
    <path d="M 469.854148 112.006847 
L 477.120086 112.006847 
L 477.120086 104.35419 
L 469.854148 104.35419 
z
" clip-path="url(#pf35760341e)" style="fill: #00bfff"/>
   </g>
   <g id="patch_60">
    <path d="M 477.120086 112.006847 
L 484.386023 112.006847 
L 484.386023 105.121423 
L 477.120086 105.121423 
z
" clip-path="url(#pf35760341e)" style="fill: #00bfff"/>
   </g>
   <g id="patch_61">
    <path d="M 484.386019 112.006847 
L 491.651957 112.006847 
L 491.651957 103.645975 
L 484.386019 103.645975 
z
" clip-path="url(#pf35760341e)" style="fill: #00bfff"/>
   </g>
   <g id="patch_62">
    <path d="M 491.651957 112.006847 
L 498.917894 112.006847 
L 498.917894 104.19681 
L 491.651957 104.19681 
z
" clip-path="url(#pf35760341e)" style="fill: #00bfff"/>
   </g>
   <g id="patch_63">
    <path d="M 498.917894 112.006847 
L 506.183832 112.006847 
L 506.183832 106.124728 
L 498.917894 106.124728 
z
" clip-path="url(#pf35760341e)" style="fill: #00bfff"/>
   </g>
   <g id="patch_64">
    <path d="M 506.183828 112.006847 
L 513.44977 112.006847 
L 513.44977 104.983715 
L 506.183828 104.983715 
z
" clip-path="url(#pf35760341e)" style="fill: #00bfff"/>
   </g>
   <g id="patch_65">
    <path d="M 513.449788 112.006847 
L 520.715726 112.006847 
L 520.715726 104.786988 
L 513.449788 104.786988 
z
" clip-path="url(#pf35760341e)" style="fill: #00bfff"/>
   </g>
   <g id="patch_66">
    <path d="M 520.715726 112.006847 
L 527.981664 112.006847 
L 527.981664 105.888656 
L 520.715726 105.888656 
z
" clip-path="url(#pf35760341e)" style="fill: #00bfff"/>
   </g>
   <g id="patch_67">
    <path d="M 527.981664 112.006847 
L 535.247602 112.006847 
L 535.247602 105.160768 
L 527.981664 105.160768 
z
" clip-path="url(#pf35760341e)" style="fill: #00bfff"/>
   </g>
   <g id="patch_68">
    <path d="M 535.247602 112.006847 
L 542.51354 112.006847 
L 542.51354 105.416513 
L 535.247602 105.416513 
z
" clip-path="url(#pf35760341e)" style="fill: #00bfff"/>
   </g>
   <g id="patch_69">
    <path d="M 542.513531 112.006847 
L 549.779468 112.006847 
L 549.779468 105.652585 
L 542.513531 105.652585 
z
" clip-path="url(#pf35760341e)" style="fill: #00bfff"/>
   </g>
   <g id="patch_70">
    <path d="M 549.779468 112.006847 
L 557.045406 112.006847 
L 557.045406 106.872288 
L 549.779468 106.872288 
z
" clip-path="url(#pf35760341e)" style="fill: #00bfff"/>
   </g>
   <g id="patch_71">
    <path d="M 557.045406 112.006847 
L 564.311344 112.006847 
L 564.311344 107.423122 
L 557.045406 107.423122 
z
" clip-path="url(#pf35760341e)" style="fill: #00bfff"/>
   </g>
   <g id="patch_72">
    <path d="M 564.311335 112.006847 
L 571.577273 112.006847 
L 571.577273 108.485445 
L 564.311335 108.485445 
z
" clip-path="url(#pf35760341e)" style="fill: #00bfff"/>
   </g>
   <g id="patch_73">
    <path d="M 571.577282 112.006847 
L 578.84322 112.006847 
L 578.84322 107.77723 
L 571.577282 107.77723 
z
" clip-path="url(#pf35760341e)" style="fill: #00bfff"/>
   </g>
   <g id="patch_74">
    <path d="M 578.84322 112.006847 
L 586.109167 112.006847 
L 586.109167 107.364104 
L 578.84322 107.364104 
z
" clip-path="url(#pf35760341e)" style="fill: #00bfff"/>
   </g>
   <g id="patch_75">
    <path d="M 586.109149 112.006847 
L 593.375086 112.006847 
L 593.375086 108.2297 
L 586.109149 108.2297 
z
" clip-path="url(#pf35760341e)" style="fill: #00bfff"/>
   </g>
   <g id="patch_76">
    <path d="M 593.375086 112.006847 
L 600.641024 112.006847 
L 600.641024 107.77723 
L 593.375086 107.77723 
z
" clip-path="url(#pf35760341e)" style="fill: #00bfff"/>
   </g>
   <g id="patch_77">
    <path d="M 600.641024 112.006847 
L 607.906962 112.006847 
L 607.906962 107.383777 
L 600.641024 107.383777 
z
" clip-path="url(#pf35760341e)" style="fill: #00bfff"/>
   </g>
   <g id="patch_78">
    <path d="M 607.906962 112.006847 
L 615.1729 112.006847 
L 615.1729 105.98702 
L 607.906962 105.98702 
z
" clip-path="url(#pf35760341e)" style="fill: #00bfff"/>
   </g>
   <g id="patch_79">
    <path d="M 615.1729 112.006847 
L 622.438838 112.006847 
L 622.438838 104.94437 
L 615.1729 104.94437 
z
" clip-path="url(#pf35760341e)" style="fill: #00bfff"/>
   </g>
   <g id="patch_80">
    <path d="M 622.438838 112.006847 
L 629.704776 112.006847 
L 629.704776 104.905024 
L 622.438838 104.905024 
z
" clip-path="url(#pf35760341e)" style="fill: #00bfff"/>
   </g>
   <g id="patch_81">
    <path d="M 629.704776 112.006847 
L 636.970713 112.006847 
L 636.970713 105.062405 
L 629.704776 105.062405 
z
" clip-path="url(#pf35760341e)" style="fill: #00bfff"/>
   </g>
   <g id="patch_82">
    <path d="M 636.970713 112.006847 
L 644.236651 112.006847 
L 644.236651 102.898415 
L 636.970713 102.898415 
z
" clip-path="url(#pf35760341e)" style="fill: #00bfff"/>
   </g>
   <g id="patch_83">
    <path d="M 644.236651 112.006847 
L 651.502589 112.006847 
L 651.502589 101.481985 
L 644.236651 101.481985 
z
" clip-path="url(#pf35760341e)" style="fill: #00bfff"/>
   </g>
   <g id="patch_84">
    <path d="M 651.502589 112.006847 
L 658.768527 112.006847 
L 658.768527 100.852461 
L 651.502589 100.852461 
z
" clip-path="url(#pf35760341e)" style="fill: #00bfff"/>
   </g>
   <g id="patch_85">
    <path d="M 658.768527 112.006847 
L 666.034465 112.006847 
L 666.034465 101.698385 
L 658.768527 101.698385 
z
" clip-path="url(#pf35760341e)" style="fill: #00bfff"/>
   </g>
   <g id="patch_86">
    <path d="M 666.034447 112.006847 
L 673.300384 112.006847 
L 673.300384 98.550762 
L 666.034447 98.550762 
z
" clip-path="url(#pf35760341e)" style="fill: #00bfff"/>
   </g>
   <g id="patch_87">
    <path d="M 673.300384 112.006847 
L 680.566322 112.006847 
L 680.566322 96.012991 
L 673.300384 96.012991 
z
" clip-path="url(#pf35760341e)" style="fill: #00bfff"/>
   </g>
   <g id="patch_88">
    <path d="M 680.566322 112.006847 
L 687.83226 112.006847 
L 687.83226 99.298323 
L 680.566322 99.298323 
z
" clip-path="url(#pf35760341e)" style="fill: #00bfff"/>
   </g>
   <g id="patch_89">
    <path d="M 687.83226 112.006847 
L 695.098198 112.006847 
L 695.098198 96.190046 
L 687.83226 96.190046 
z
" clip-path="url(#pf35760341e)" style="fill: #00bfff"/>
   </g>
   <g id="patch_90">
    <path d="M 695.098198 112.006847 
L 702.364136 112.006847 
L 702.364136 100.616389 
L 695.098198 100.616389 
z
" clip-path="url(#pf35760341e)" style="fill: #00bfff"/>
   </g>
   <g id="patch_91">
    <path d="M 702.364136 112.006847 
L 709.630074 112.006847 
L 709.630074 96.091682 
L 702.364136 96.091682 
z
" clip-path="url(#pf35760341e)" style="fill: #00bfff"/>
   </g>
   <g id="patch_92">
    <path d="M 709.630074 112.006847 
L 716.896011 112.006847 
L 716.896011 93.337513 
L 709.630074 93.337513 
z
" clip-path="url(#pf35760341e)" style="fill: #00bfff"/>
   </g>
   <g id="patch_93">
    <path d="M 716.896011 112.006847 
L 724.161949 112.006847 
L 724.161949 94.596561 
L 716.896011 94.596561 
z
" clip-path="url(#pf35760341e)" style="fill: #00bfff"/>
   </g>
   <g id="patch_94">
    <path d="M 724.161949 112.006847 
L 731.427887 112.006847 
L 731.427887 97.822875 
L 724.161949 97.822875 
z
" clip-path="url(#pf35760341e)" style="fill: #00bfff"/>
   </g>
   <g id="patch_95">
    <path d="M 731.427887 112.006847 
L 738.693825 112.006847 
L 738.693825 98.295018 
L 731.427887 98.295018 
z
" clip-path="url(#pf35760341e)" style="fill: #00bfff"/>
   </g>
   <g id="patch_96">
    <path d="M 738.693825 112.006847 
L 745.959763 112.006847 
L 745.959763 98.098292 
L 738.693825 98.098292 
z
" clip-path="url(#pf35760341e)" style="fill: #00bfff"/>
   </g>
   <g id="patch_97">
    <path d="M 745.959763 112.006847 
L 753.225701 112.006847 
L 753.225701 102.072165 
L 745.959763 102.072165 
z
" clip-path="url(#pf35760341e)" style="fill: #00bfff"/>
   </g>
   <g id="patch_98">
    <path d="M 753.225701 112.006847 
L 760.491638 112.006847 
L 760.491638 103.547612 
L 753.225701 103.547612 
z
" clip-path="url(#pf35760341e)" style="fill: #00bfff"/>
   </g>
   <g id="patch_99">
    <path d="M 760.491638 112.006847 
L 767.757576 112.006847 
L 767.757576 102.996778 
L 760.491638 102.996778 
z
" clip-path="url(#pf35760341e)" style="fill: #00bfff"/>
   </g>
   <g id="patch_100">
    <path d="M 767.757576 112.006847 
L 775.023514 112.006847 
L 775.023514 102.760707 
L 767.757576 102.760707 
z
" clip-path="url(#pf35760341e)" style="fill: #00bfff"/>
   </g>
   <g id="patch_101">
    <path d="M 775.023514 112.006847 
L 782.289452 112.006847 
L 782.289452 107.167378 
L 775.023514 107.167378 
z
" clip-path="url(#pf35760341e)" style="fill: #00bfff"/>
   </g>
   <g id="patch_102">
    <path d="M 782.289452 112.006847 
L 789.55539 112.006847 
L 789.55539 104.373863 
L 782.289452 104.373863 
z
" clip-path="url(#pf35760341e)" style="fill: #00bfff"/>
   </g>
   <g id="patch_103">
    <path d="M 789.55539 112.006847 
L 796.821328 112.006847 
L 796.821328 105.514876 
L 789.55539 105.514876 
z
" clip-path="url(#pf35760341e)" style="fill: #00bfff"/>
   </g>
   <g id="patch_104">
    <path d="M 796.821328 112.006847 
L 804.087265 112.006847 
L 804.087265 105.908329 
L 796.821328 105.908329 
z
" clip-path="url(#pf35760341e)" style="fill: #00bfff"/>
   </g>
   <g id="patch_105">
    <path d="M 804.087229 112.006847 
L 811.353167 112.006847 
L 811.353167 110.885506 
L 804.087229 110.885506 
z
" clip-path="url(#pf35760341e)" style="fill: #00bfff"/>
   </g>
   <g id="patch_106">
    <path d="M 811.353167 112.006847 
L 818.619105 112.006847 
L 818.619105 111.318305 
L 811.353167 111.318305 
z
" clip-path="url(#pf35760341e)" style="fill: #00bfff"/>
   </g>
   <g id="patch_107">
    <path d="M 818.619105 112.006847 
L 825.885043 112.006847 
L 825.885043 111.888811 
L 818.619105 111.888811 
z
" clip-path="url(#pf35760341e)" style="fill: #00bfff"/>
   </g>
   <g id="patch_108">
    <path d="M 825.885043 112.006847 
L 833.15098 112.006847 
L 833.15098 112.006847 
L 825.885043 112.006847 
z
" clip-path="url(#pf35760341e)" style="fill: #00bfff"/>
   </g>
   <g id="line2d_11">
    <path d="M 106.557342 112.006847 
L 106.557342 19.427409 
" clip-path="url(#pf35760341e)" style="fill: none; stroke: #ff0000; stroke-width: 1.5; stroke-linecap: square"/>
   </g>
   <g id="line2d_12">
    <path d="M 833.15098 112.006847 
L 833.15098 19.427409 
" clip-path="url(#pf35760341e)" style="fill: none; stroke: #ff0000; stroke-width: 1.5; stroke-linecap: square"/>
   </g>
   <g id="line2d_13">
    <path d="M 10.699983 108.889204 
L 19.173736 108.518907 
L 27.647454 108.11505 
L 36.121207 107.67602 
L 44.594925 107.200335 
L 53.068679 106.68664 
L 61.542396 106.133768 
L 70.01615 105.540748 
L 78.489867 104.906859 
L 86.963621 104.231637 
L 95.437338 103.514938 
L 103.911092 102.756932 
L 112.384809 101.958166 
L 120.858563 101.119565 
L 129.332299 100.242474 
L 137.806034 99.328661 
L 146.279788 98.380343 
L 154.753524 97.400194 
L 163.227259 96.391346 
L 171.700995 95.357384 
L 180.17473 94.302354 
L 188.648484 93.230731 
L 197.12222 92.147405 
L 205.595955 91.057655 
L 214.069691 89.967107 
L 222.543426 88.881691 
L 231.017162 87.8076 
L 239.490897 86.751225 
L 247.964651 85.719105 
L 256.438369 84.717859 
L 264.912122 83.754105 
L 273.385858 82.834408 
L 281.859594 81.96519 
L 290.333329 81.152666 
L 298.807065 80.402769 
L 307.280809 79.721068 
L 315.754545 79.112722 
L 324.22828 78.582383 
L 332.702025 78.134167 
L 341.175761 77.771588 
L 349.649496 77.497505 
L 358.123232 77.314097 
L 366.596972 77.222827 
L 375.070712 77.224425 
L 383.544448 77.318878 
L 392.018183 77.505435 
L 400.491923 77.782601 
L 408.965663 78.148178 
L 417.439399 78.599279 
L 425.913137 79.132372 
L 434.386875 79.743323 
L 442.860613 80.427456 
L 451.33435 81.179601 
L 459.808086 81.994175 
L 468.281826 82.865234 
L 476.755566 83.786555 
L 485.229274 84.751704 
L 493.70301 85.754124 
L 502.17675 86.787187 
L 510.65049 87.844276 
L 519.124226 88.918862 
L 527.597961 90.004559 
L 536.071697 91.095177 
L 544.545442 92.184795 
L 553.019177 93.267802 
L 561.492913 94.338932 
L 569.966657 95.393311 
L 578.440393 96.426474 
L 586.914129 97.434393 
L 595.387864 98.413499 
L 603.8616 99.360671 
L 612.335335 100.273253 
L 620.809089 101.14905 
L 629.282825 101.9863 
L 637.75656 102.783677 
L 646.230296 103.540268 
L 654.704031 104.255544 
L 663.177785 104.92934 
L 671.651521 105.561815 
L 680.125256 106.153439 
L 688.598992 106.704949 
L 697.072727 107.217314 
L 705.546463 107.691718 
L 714.020198 108.12951 
L 722.493952 108.53219 
L 730.96767 108.901359 
L 739.441423 109.238718 
L 747.915177 109.546015 
L 756.388895 109.825039 
L 764.862648 110.07759 
L 773.336366 110.305461 
L 781.810119 110.510424 
L 790.283837 110.694209 
L 798.757591 110.858497 
L 807.231308 111.004904 
L 815.705062 111.13498 
L 824.178779 111.250193 
L 832.652533 111.351935 
L 841.12625 111.44151 
L 849.600004 111.520137 
" clip-path="url(#pf35760341e)" style="fill: none; stroke: #1f77b4; stroke-width: 1.5; stroke-linecap: square"/>
   </g>
   <g id="text_9">
    <g id="patch_109">
     <path d="M 34.75666 36.734506 
L 51.064473 36.734506 
Q 54.064473 36.734506 54.064473 33.734506 
L 54.064473 24.056381 
Q 54.064473 21.056381 51.064473 21.056381 
L 34.75666 21.056381 
Q 31.75666 21.056381 31.75666 24.056381 
L 31.75666 33.734506 
Q 31.75666 36.734506 34.75666 36.734506 
z
" style="fill: #ffffff"/>
    </g>
    <!-- -2σ -->
    <g transform="translate(34.75666 31.654819) scale(0.1 -0.1)">
     <use xlink:href="#DejaVuSans-2d"/>
     <use xlink:href="#DejaVuSans-32" x="36.083984"/>
     <use xlink:href="#DejaVuSans-3c3" x="99.707031"/>
    </g>
   </g>
   <g id="text_10">
    <g id="patch_110">
     <path d="M 201.826696 36.734506 
L 211.772008 36.734506 
Q 214.772008 36.734506 214.772008 33.734506 
L 214.772008 24.056381 
Q 214.772008 21.056381 211.772008 21.056381 
L 201.826696 21.056381 
Q 198.826696 21.056381 198.826696 24.056381 
L 198.826696 33.734506 
Q 198.826696 36.734506 201.826696 36.734506 
z
" style="fill: #ffffff"/>
    </g>
    <!-- -σ -->
    <g transform="translate(201.826696 31.654819) scale(0.1 -0.1)">
     <use xlink:href="#DejaVuSans-2d"/>
     <use xlink:href="#DejaVuSans-3c3" x="36.083984"/>
    </g>
   </g>
   <g id="text_11">
    <g id="patch_111">
     <path d="M 367.009231 36.734506 
L 374.367044 36.734506 
Q 377.367044 36.734506 377.367044 33.734506 
L 377.367044 24.056381 
Q 377.367044 21.056381 374.367044 21.056381 
L 367.009231 21.056381 
Q 364.009231 21.056381 364.009231 24.056381 
L 364.009231 33.734506 
Q 364.009231 36.734506 367.009231 36.734506 
z
" style="fill: #ffffff"/>
    </g>
    <!-- μ -->
    <g transform="translate(367.009231 31.643881) scale(0.1 -0.1)">
     <defs>
      <path id="DejaVuSans-Bold-3bc" d="M 544 -1338 
L 544 3500 
L 1672 3500 
L 1672 1466 
Q 1672 1103 1828 926 
Q 1984 750 2303 750 
Q 2625 750 2781 926 
Q 2938 1103 2938 1466 
L 2938 3500 
L 4063 3500 
L 4063 1159 
Q 4063 938 4114 850 
Q 4166 763 4288 763 
Q 4344 763 4395 778 
Q 4447 794 4506 831 
L 4506 50 
Q 4341 -22 4195 -56 
Q 4050 -91 3909 -91 
Q 3631 -91 3454 26 
Q 3278 144 3169 403 
Q 3022 156 2811 32 
Q 2600 -91 2322 -91 
Q 2091 -91 1928 -17 
Q 1766 56 1672 206 
L 1672 -1338 
L 544 -1338 
z
" transform="scale(0.015625)"/>
     </defs>
     <use xlink:href="#DejaVuSans-Bold-3bc"/>
    </g>
   </g>
   <g id="text_12">
    <g id="patch_112">
     <path d="M 527.218329 36.734506 
L 541.935517 36.734506 
Q 544.935517 36.734506 544.935517 33.734506 
L 544.935517 24.056381 
Q 544.935517 21.056381 541.935517 21.056381 
L 527.218329 21.056381 
Q 524.218329 21.056381 524.218329 24.056381 
L 524.218329 33.734506 
Q 524.218329 36.734506 527.218329 36.734506 
z
" style="fill: #ffffff"/>
    </g>
    <!-- +σ -->
    <g transform="translate(527.218329 31.654819) scale(0.1 -0.1)">
     <defs>
      <path id="DejaVuSans-2b" d="M 2944 4013 
L 2944 2272 
L 4684 2272 
L 4684 1741 
L 2944 1741 
L 2944 0 
L 2419 0 
L 2419 1741 
L 678 1741 
L 678 2272 
L 2419 2272 
L 2419 4013 
L 2944 4013 
z
" transform="scale(0.015625)"/>
     </defs>
     <use xlink:href="#DejaVuSans-2b"/>
     <use xlink:href="#DejaVuSans-3c3" x="83.789062"/>
    </g>
   </g>
   <g id="text_13">
    <g id="patch_113">
     <path d="M 687.925865 36.734506 
L 709.005553 36.734506 
Q 712.005553 36.734506 712.005553 33.734506 
L 712.005553 24.056381 
Q 712.005553 21.056381 709.005553 21.056381 
L 687.925865 21.056381 
Q 684.925865 21.056381 684.925865 24.056381 
L 684.925865 33.734506 
Q 684.925865 36.734506 687.925865 36.734506 
z
" style="fill: #ffffff"/>
    </g>
    <!-- +2σ -->
    <g transform="translate(687.925865 31.654819) scale(0.1 -0.1)">
     <use xlink:href="#DejaVuSans-2b"/>
     <use xlink:href="#DejaVuSans-32" x="83.789062"/>
     <use xlink:href="#DejaVuSans-3c3" x="147.412109"/>
    </g>
   </g>
  </g>
 </g>
 <defs>
  <clipPath id="pf35760341e">
   <rect x="10.7" y="19.427409" width="838.9" height="92.579438"/>
  </clipPath>
 </defs>
</svg>
