<?xml version="1.0" encoding="utf-8" standalone="no"?>
<!DOCTYPE svg PUBLIC "-//W3C//DTD SVG 1.1//EN"
  "http://www.w3.org/Graphics/SVG/1.1/DTD/svg11.dtd">
<svg xmlns:xlink="http://www.w3.org/1999/xlink" width="872.39952pt" height="152.406273pt" viewBox="0 0 872.39952 152.406273" xmlns="http://www.w3.org/2000/svg" version="1.1">
 <metadata>
  <rdf:RDF xmlns:dc="http://purl.org/dc/elements/1.1/" xmlns:cc="http://creativecommons.org/ns#" xmlns:rdf="http://www.w3.org/1999/02/22-rdf-syntax-ns#">
   <cc:Work>
    <dc:type rdf:resource="http://purl.org/dc/dcmitype/StillImage"/>
    <dc:format>image/svg+xml</dc:format>
    <dc:creator>
     <cc:Agent>
      <dc:title>Matplotlib, https://matplotlib.org/</dc:title>
     </cc:Agent>
    </dc:creator>
   </cc:Work>
  </rdf:RDF>
 </metadata>
 <defs>
  <style type="text/css">*{stroke-linejoin: round; stroke-linecap: butt}</style>
 </defs>
 <g id="figure_1">
  <g id="patch_1">
   <path d="M 0 152.406273 
L 872.39952 152.406273 
L 872.39952 0 
L 0 0 
z
" style="fill: #ffffff"/>
  </g>
  <g id="axes_1">
   <g id="patch_2">
    <path d="M 10.7 128.528148 
L 865.19952 128.528148 
L 865.19952 20.214138 
L 10.7 20.214138 
z
" style="fill: #ffffff"/>
   </g>
   <g id="matplotlib.axis_1">
    <g id="xtick_1">
     <g id="line2d_1">
      <defs>
       <path id="m8f1de1206a" d="M 0 0 
L 0 3.5 
" style="stroke: #000000; stroke-width: 0.8"/>
      </defs>
      <g>
       <use xlink:href="#m8f1de1206a" x="84.44075" y="128.528148" style="stroke: #000000; stroke-width: 0.8"/>
      </g>
     </g>
     <g id="text_1">
      <!-- −3 -->
      <g transform="translate(77.069656 143.126585) scale(0.1 -0.1)">
       <defs>
        <path id="DejaVuSans-2212" d="M 678 2272 
L 4684 2272 
L 4684 1741 
L 678 1741 
L 678 2272 
z
" transform="scale(0.015625)"/>
        <path id="DejaVuSans-33" d="M 2597 2516 
Q 3050 2419 3304 2112 
Q 3559 1806 3559 1356 
Q 3559 666 3084 287 
Q 2609 -91 1734 -91 
Q 1441 -91 1130 -33 
Q 819 25 488 141 
L 488 750 
Q 750 597 1062 519 
Q 1375 441 1716 441 
Q 2309 441 2620 675 
Q 2931 909 2931 1356 
Q 2931 1769 2642 2001 
Q 2353 2234 1838 2234 
L 1294 2234 
L 1294 2753 
L 1863 2753 
Q 2328 2753 2575 2939 
Q 2822 3125 2822 3475 
Q 2822 3834 2567 4026 
Q 2313 4219 1838 4219 
Q 1578 4219 1281 4162 
Q 984 4106 628 3988 
L 628 4550 
Q 988 4650 1302 4700 
Q 1616 4750 1894 4750 
Q 2613 4750 3031 4423 
Q 3450 4097 3450 3541 
Q 3450 3153 3228 2886 
Q 3006 2619 2597 2516 
z
" transform="scale(0.015625)"/>
       </defs>
       <use xlink:href="#DejaVuSans-2212"/>
       <use xlink:href="#DejaVuSans-33" x="83.789062"/>
      </g>
     </g>
    </g>
    <g id="xtick_2">
     <g id="line2d_2">
      <g>
       <use xlink:href="#m8f1de1206a" x="219.902427" y="128.528148" style="stroke: #000000; stroke-width: 0.8"/>
      </g>
     </g>
     <g id="text_2">
      <!-- −2 -->
      <g transform="translate(212.531334 143.126585) scale(0.1 -0.1)">
       <defs>
        <path id="DejaVuSans-32" d="M 1228 531 
L 3431 531 
L 3431 0 
L 469 0 
L 469 531 
Q 828 903 1448 1529 
Q 2069 2156 2228 2338 
Q 2531 2678 2651 2914 
Q 2772 3150 2772 3378 
Q 2772 3750 2511 3984 
Q 2250 4219 1831 4219 
Q 1534 4219 1204 4116 
Q 875 4013 500 3803 
L 500 4441 
Q 881 4594 1212 4672 
Q 1544 4750 1819 4750 
Q 2544 4750 2975 4387 
Q 3406 4025 3406 3419 
Q 3406 3131 3298 2873 
Q 3191 2616 2906 2266 
Q 2828 2175 2409 1742 
Q 1991 1309 1228 531 
z
" transform="scale(0.015625)"/>
       </defs>
       <use xlink:href="#DejaVuSans-2212"/>
       <use xlink:href="#DejaVuSans-32" x="83.789062"/>
      </g>
     </g>
    </g>
    <g id="xtick_3">
     <g id="line2d_3">
      <g>
       <use xlink:href="#m8f1de1206a" x="355.364105" y="128.528148" style="stroke: #000000; stroke-width: 0.8"/>
      </g>
     </g>
     <g id="text_3">
      <!-- −1 -->
      <g transform="translate(347.993012 143.126585) scale(0.1 -0.1)">
       <defs>
        <path id="DejaVuSans-31" d="M 794 531 
L 1825 531 
L 1825 4091 
L 703 3866 
L 703 4441 
L 1819 4666 
L 2450 4666 
L 2450 531 
L 3481 531 
L 3481 0 
L 794 0 
L 794 531 
z
" transform="scale(0.015625)"/>
       </defs>
       <use xlink:href="#DejaVuSans-2212"/>
       <use xlink:href="#DejaVuSans-31" x="83.789062"/>
      </g>
     </g>
    </g>
    <g id="xtick_4">
     <g id="line2d_4">
      <g>
       <use xlink:href="#m8f1de1206a" x="490.825783" y="128.528148" style="stroke: #000000; stroke-width: 0.8"/>
      </g>
     </g>
     <g id="text_4">
      <!-- 0 -->
      <g transform="translate(487.644533 143.126585) scale(0.1 -0.1)">
       <defs>
        <path id="DejaVuSans-30" d="M 2034 4250 
Q 1547 4250 1301 3770 
Q 1056 3291 1056 2328 
Q 1056 1369 1301 889 
Q 1547 409 2034 409 
Q 2525 409 2770 889 
Q 3016 1369 3016 2328 
Q 3016 3291 2770 3770 
Q 2525 4250 2034 4250 
z
M 2034 4750 
Q 2819 4750 3233 4129 
Q 3647 3509 3647 2328 
Q 3647 1150 3233 529 
Q 2819 -91 2034 -91 
Q 1250 -91 836 529 
Q 422 1150 422 2328 
Q 422 3509 836 4129 
Q 1250 4750 2034 4750 
z
" transform="scale(0.015625)"/>
       </defs>
       <use xlink:href="#DejaVuSans-30"/>
      </g>
     </g>
    </g>
    <g id="xtick_5">
     <g id="line2d_5">
      <g>
       <use xlink:href="#m8f1de1206a" x="626.287461" y="128.528148" style="stroke: #000000; stroke-width: 0.8"/>
      </g>
     </g>
     <g id="text_5">
      <!-- 1 -->
      <g transform="translate(623.106211 143.126585) scale(0.1 -0.1)">
       <use xlink:href="#DejaVuSans-31"/>
      </g>
     </g>
    </g>
    <g id="xtick_6">
     <g id="line2d_6">
      <g>
       <use xlink:href="#m8f1de1206a" x="761.749139" y="128.528148" style="stroke: #000000; stroke-width: 0.8"/>
      </g>
     </g>
     <g id="text_6">
      <!-- 2 -->
      <g transform="translate(758.567889 143.126585) scale(0.1 -0.1)">
       <use xlink:href="#DejaVuSans-32"/>
      </g>
     </g>
    </g>
   </g>
   <g id="matplotlib.axis_2"/>
   <g id="line2d_7">
    <path d="M 146.071019 128.528148 
L 146.071019 20.214138 
" clip-path="url(#p7b1a8d3d5d)" style="fill: none; stroke: #000000; stroke-width: 1.5; stroke-linecap: square"/>
   </g>
   <g id="line2d_8">
    <path d="M 291.928256 128.528148 
L 291.928256 20.214138 
" clip-path="url(#p7b1a8d3d5d)" style="fill: none; stroke: #000000; stroke-width: 1.5; stroke-linecap: square"/>
   </g>
   <g id="line2d_9">
    <path d="M 437.785492 128.528148 
L 437.785492 20.214138 
" clip-path="url(#p7b1a8d3d5d)" style="fill: none; stroke: #000000; stroke-width: 1.5; stroke-linecap: square"/>
   </g>
   <g id="line2d_10">
    <path d="M 583.642729 128.528148 
L 583.642729 20.214138 
" clip-path="url(#p7b1a8d3d5d)" style="fill: none; stroke: #000000; stroke-width: 1.5; stroke-linecap: square"/>
   </g>
   <g id="line2d_11">
    <path d="M 729.499966 128.528148 
L 729.499966 20.214138 
" clip-path="url(#p7b1a8d3d5d)" style="fill: none; stroke: #000000; stroke-width: 1.5; stroke-linecap: square"/>
   </g>
   <g id="line2d_12">
    <path d="M 203.930961 128.528148 
L 203.930961 20.214138 
" clip-path="url(#p7b1a8d3d5d)" style="fill: none; stroke: #ff0000; stroke-width: 1.5; stroke-linecap: square"/>
   </g>
   <g id="line2d_13">
    <path d="M 848.444627 128.528148 
L 848.444627 20.214138 
" clip-path="url(#p7b1a8d3d5d)" style="fill: none; stroke: #ff0000; stroke-width: 1.5; stroke-linecap: square"/>
   </g>
   <g id="patch_3">
    <path d="M 10.7 128.528148 
L 10.7 20.214138 
" style="fill: none; stroke: #000000; stroke-width: 0.8; stroke-linejoin: miter; stroke-linecap: square"/>
   </g>
   <g id="patch_4">
    <path d="M 865.19952 128.528148 
L 865.19952 20.214138 
" style="fill: none; stroke: #000000; stroke-width: 0.8; stroke-linejoin: miter; stroke-linecap: square"/>
   </g>
   <g id="patch_5">
    <path d="M 10.7 128.528148 
L 865.19952 128.528148 
" style="fill: none; stroke: #000000; stroke-width: 0.8; stroke-linejoin: miter; stroke-linecap: square"/>
   </g>
   <g id="patch_6">
    <path d="M 10.7 20.214138 
L 865.19952 20.214138 
" style="fill: none; stroke: #000000; stroke-width: 0.8; stroke-linejoin: miter; stroke-linecap: square"/>
   </g>
   <g id="text_7">
    <g id="patch_7">
     <path d="M 202.930961 104.10708 
L 202.930961 44.635205 
Q 202.930961 44.635205 202.930961 44.635205 
L 193.252836 44.635205 
Q 193.252836 44.635205 193.252836 44.635205 
L 193.252836 104.10708 
Q 193.252836 104.10708 193.252836 104.10708 
L 202.930961 104.10708 
Q 202.930961 104.10708 202.930961 104.10708 
z
" style="fill: #ffffff"/>
    </g>
    <!-- min=-2.118 -->
    <g transform="translate(200.851273 104.10708) rotate(-90) scale(0.1 -0.1)">
     <defs>
      <path id="DejaVuSans-6d" d="M 3328 2828 
Q 3544 3216 3844 3400 
Q 4144 3584 4550 3584 
Q 5097 3584 5394 3201 
Q 5691 2819 5691 2113 
L 5691 0 
L 5113 0 
L 5113 2094 
Q 5113 2597 4934 2840 
Q 4756 3084 4391 3084 
Q 3944 3084 3684 2787 
Q 3425 2491 3425 1978 
L 3425 0 
L 2847 0 
L 2847 2094 
Q 2847 2600 2669 2842 
Q 2491 3084 2119 3084 
Q 1678 3084 1418 2786 
Q 1159 2488 1159 1978 
L 1159 0 
L 581 0 
L 581 3500 
L 1159 3500 
L 1159 2956 
Q 1356 3278 1631 3431 
Q 1906 3584 2284 3584 
Q 2666 3584 2933 3390 
Q 3200 3197 3328 2828 
z
" transform="scale(0.015625)"/>
      <path id="DejaVuSans-69" d="M 603 3500 
L 1178 3500 
L 1178 0 
L 603 0 
L 603 3500 
z
M 603 4863 
L 1178 4863 
L 1178 4134 
L 603 4134 
L 603 4863 
z
" transform="scale(0.015625)"/>
      <path id="DejaVuSans-6e" d="M 3513 2113 
L 3513 0 
L 2938 0 
L 2938 2094 
Q 2938 2591 2744 2837 
Q 2550 3084 2163 3084 
Q 1697 3084 1428 2787 
Q 1159 2491 1159 1978 
L 1159 0 
L 581 0 
L 581 3500 
L 1159 3500 
L 1159 2956 
Q 1366 3272 1645 3428 
Q 1925 3584 2291 3584 
Q 2894 3584 3203 3211 
Q 3513 2838 3513 2113 
z
" transform="scale(0.015625)"/>
      <path id="DejaVuSans-3d" d="M 678 2906 
L 4684 2906 
L 4684 2381 
L 678 2381 
L 678 2906 
z
M 678 1631 
L 4684 1631 
L 4684 1100 
L 678 1100 
L 678 1631 
z
" transform="scale(0.015625)"/>
      <path id="DejaVuSans-2d" d="M 313 2009 
L 1997 2009 
L 1997 1497 
L 313 1497 
L 313 2009 
z
" transform="scale(0.015625)"/>
      <path id="DejaVuSans-2e" d="M 684 794 
L 1344 794 
L 1344 0 
L 684 0 
L 684 794 
z
" transform="scale(0.015625)"/>
      <path id="DejaVuSans-38" d="M 2034 2216 
Q 1584 2216 1326 1975 
Q 1069 1734 1069 1313 
Q 1069 891 1326 650 
Q 1584 409 2034 409 
Q 2484 409 2743 651 
Q 3003 894 3003 1313 
Q 3003 1734 2745 1975 
Q 2488 2216 2034 2216 
z
M 1403 2484 
Q 997 2584 770 2862 
Q 544 3141 544 3541 
Q 544 4100 942 4425 
Q 1341 4750 2034 4750 
Q 2731 4750 3128 4425 
Q 3525 4100 3525 3541 
Q 3525 3141 3298 2862 
Q 3072 2584 2669 2484 
Q 3125 2378 3379 2068 
Q 3634 1759 3634 1313 
Q 3634 634 3220 271 
Q 2806 -91 2034 -91 
Q 1263 -91 848 271 
Q 434 634 434 1313 
Q 434 1759 690 2068 
Q 947 2378 1403 2484 
z
M 1172 3481 
Q 1172 3119 1398 2916 
Q 1625 2713 2034 2713 
Q 2441 2713 2670 2916 
Q 2900 3119 2900 3481 
Q 2900 3844 2670 4047 
Q 2441 4250 2034 4250 
Q 1625 4250 1398 4047 
Q 1172 3844 1172 3481 
z
" transform="scale(0.015625)"/>
     </defs>
     <use xlink:href="#DejaVuSans-6d"/>
     <use xlink:href="#DejaVuSans-69" x="97.412109"/>
     <use xlink:href="#DejaVuSans-6e" x="125.195312"/>
     <use xlink:href="#DejaVuSans-3d" x="188.574219"/>
     <use xlink:href="#DejaVuSans-2d" x="272.363281"/>
     <use xlink:href="#DejaVuSans-32" x="308.447266"/>
     <use xlink:href="#DejaVuSans-2e" x="372.070312"/>
     <use xlink:href="#DejaVuSans-31" x="403.857422"/>
     <use xlink:href="#DejaVuSans-31" x="467.480469"/>
     <use xlink:href="#DejaVuSans-38" x="531.103516"/>
    </g>
   </g>
   <g id="text_8">
    <g id="patch_8">
     <path d="M 860.122752 103.768799 
L 860.122752 44.973487 
Q 860.122752 44.973487 860.122752 44.973487 
L 850.444627 44.973487 
Q 850.444627 44.973487 850.444627 44.973487 
L 850.444627 103.768799 
Q 850.444627 103.768799 850.444627 103.768799 
L 860.122752 103.768799 
Q 860.122752 103.768799 860.122752 103.768799 
z
" style="fill: #ffffff"/>
    </g>
    <!-- max=2.640 -->
    <g transform="translate(858.043065 103.768799) rotate(-90) scale(0.1 -0.1)">
     <defs>
      <path id="DejaVuSans-61" d="M 2194 1759 
Q 1497 1759 1228 1600 
Q 959 1441 959 1056 
Q 959 750 1161 570 
Q 1363 391 1709 391 
Q 2188 391 2477 730 
Q 2766 1069 2766 1631 
L 2766 1759 
L 2194 1759 
z
M 3341 1997 
L 3341 0 
L 2766 0 
L 2766 531 
Q 2569 213 2275 61 
Q 1981 -91 1556 -91 
Q 1019 -91 701 211 
Q 384 513 384 1019 
Q 384 1609 779 1909 
Q 1175 2209 1959 2209 
L 2766 2209 
L 2766 2266 
Q 2766 2663 2505 2880 
Q 2244 3097 1772 3097 
Q 1472 3097 1187 3025 
Q 903 2953 641 2809 
L 641 3341 
Q 956 3463 1253 3523 
Q 1550 3584 1831 3584 
Q 2591 3584 2966 3190 
Q 3341 2797 3341 1997 
z
" transform="scale(0.015625)"/>
      <path id="DejaVuSans-78" d="M 3513 3500 
L 2247 1797 
L 3578 0 
L 2900 0 
L 1881 1375 
L 863 0 
L 184 0 
L 1544 1831 
L 300 3500 
L 978 3500 
L 1906 2253 
L 2834 3500 
L 3513 3500 
z
" transform="scale(0.015625)"/>
      <path id="DejaVuSans-36" d="M 2113 2584 
Q 1688 2584 1439 2293 
Q 1191 2003 1191 1497 
Q 1191 994 1439 701 
Q 1688 409 2113 409 
Q 2538 409 2786 701 
Q 3034 994 3034 1497 
Q 3034 2003 2786 2293 
Q 2538 2584 2113 2584 
z
M 3366 4563 
L 3366 3988 
Q 3128 4100 2886 4159 
Q 2644 4219 2406 4219 
Q 1781 4219 1451 3797 
Q 1122 3375 1075 2522 
Q 1259 2794 1537 2939 
Q 1816 3084 2150 3084 
Q 2853 3084 3261 2657 
Q 3669 2231 3669 1497 
Q 3669 778 3244 343 
Q 2819 -91 2113 -91 
Q 1303 -91 875 529 
Q 447 1150 447 2328 
Q 447 3434 972 4092 
Q 1497 4750 2381 4750 
Q 2619 4750 2861 4703 
Q 3103 4656 3366 4563 
z
" transform="scale(0.015625)"/>
      <path id="DejaVuSans-34" d="M 2419 4116 
L 825 1625 
L 2419 1625 
L 2419 4116 
z
M 2253 4666 
L 3047 4666 
L 3047 1625 
L 3713 1625 
L 3713 1100 
L 3047 1100 
L 3047 0 
L 2419 0 
L 2419 1100 
L 313 1100 
L 313 1709 
L 2253 4666 
z
" transform="scale(0.015625)"/>
     </defs>
     <use xlink:href="#DejaVuSans-6d"/>
     <use xlink:href="#DejaVuSans-61" x="97.412109"/>
     <use xlink:href="#DejaVuSans-78" x="158.691406"/>
     <use xlink:href="#DejaVuSans-3d" x="217.871094"/>
     <use xlink:href="#DejaVuSans-32" x="301.660156"/>
     <use xlink:href="#DejaVuSans-2e" x="365.283203"/>
     <use xlink:href="#DejaVuSans-36" x="397.070312"/>
     <use xlink:href="#DejaVuSans-34" x="460.693359"/>
     <use xlink:href="#DejaVuSans-30" x="524.316406"/>
    </g>
   </g>
   <g id="text_9">
    <!-- 10000 samples (μ=-0.392, σ=1.077) of tensor[3, 196, 196] n=115248 x∈[-2.118, 2.640] μ=-0.388 σ=1.073 -->
    <g transform="translate(10.7 14.798437) scale(0.1 -0.1)">
     <defs>
      <path id="DejaVuSans-20" transform="scale(0.015625)"/>
      <path id="DejaVuSans-73" d="M 2834 3397 
L 2834 2853 
Q 2591 2978 2328 3040 
Q 2066 3103 1784 3103 
Q 1356 3103 1142 2972 
Q 928 2841 928 2578 
Q 928 2378 1081 2264 
Q 1234 2150 1697 2047 
L 1894 2003 
Q 2506 1872 2764 1633 
Q 3022 1394 3022 966 
Q 3022 478 2636 193 
Q 2250 -91 1575 -91 
Q 1294 -91 989 -36 
Q 684 19 347 128 
L 347 722 
Q 666 556 975 473 
Q 1284 391 1588 391 
Q 1994 391 2212 530 
Q 2431 669 2431 922 
Q 2431 1156 2273 1281 
Q 2116 1406 1581 1522 
L 1381 1569 
Q 847 1681 609 1914 
Q 372 2147 372 2553 
Q 372 3047 722 3315 
Q 1072 3584 1716 3584 
Q 2034 3584 2315 3537 
Q 2597 3491 2834 3397 
z
" transform="scale(0.015625)"/>
      <path id="DejaVuSans-70" d="M 1159 525 
L 1159 -1331 
L 581 -1331 
L 581 3500 
L 1159 3500 
L 1159 2969 
Q 1341 3281 1617 3432 
Q 1894 3584 2278 3584 
Q 2916 3584 3314 3078 
Q 3713 2572 3713 1747 
Q 3713 922 3314 415 
Q 2916 -91 2278 -91 
Q 1894 -91 1617 61 
Q 1341 213 1159 525 
z
M 3116 1747 
Q 3116 2381 2855 2742 
Q 2594 3103 2138 3103 
Q 1681 3103 1420 2742 
Q 1159 2381 1159 1747 
Q 1159 1113 1420 752 
Q 1681 391 2138 391 
Q 2594 391 2855 752 
Q 3116 1113 3116 1747 
z
" transform="scale(0.015625)"/>
      <path id="DejaVuSans-6c" d="M 603 4863 
L 1178 4863 
L 1178 0 
L 603 0 
L 603 4863 
z
" transform="scale(0.015625)"/>
      <path id="DejaVuSans-65" d="M 3597 1894 
L 3597 1613 
L 953 1613 
Q 991 1019 1311 708 
Q 1631 397 2203 397 
Q 2534 397 2845 478 
Q 3156 559 3463 722 
L 3463 178 
Q 3153 47 2828 -22 
Q 2503 -91 2169 -91 
Q 1331 -91 842 396 
Q 353 884 353 1716 
Q 353 2575 817 3079 
Q 1281 3584 2069 3584 
Q 2775 3584 3186 3129 
Q 3597 2675 3597 1894 
z
M 3022 2063 
Q 3016 2534 2758 2815 
Q 2500 3097 2075 3097 
Q 1594 3097 1305 2825 
Q 1016 2553 972 2059 
L 3022 2063 
z
" transform="scale(0.015625)"/>
      <path id="DejaVuSans-28" d="M 1984 4856 
Q 1566 4138 1362 3434 
Q 1159 2731 1159 2009 
Q 1159 1288 1364 580 
Q 1569 -128 1984 -844 
L 1484 -844 
Q 1016 -109 783 600 
Q 550 1309 550 2009 
Q 550 2706 781 3412 
Q 1013 4119 1484 4856 
L 1984 4856 
z
" transform="scale(0.015625)"/>
      <path id="DejaVuSans-3bc" d="M 544 -1331 
L 544 3500 
L 1119 3500 
L 1119 1325 
Q 1119 872 1334 640 
Q 1550 409 1972 409 
Q 2434 409 2667 671 
Q 2900 934 2900 1459 
L 2900 3500 
L 3475 3500 
L 3475 806 
Q 3475 619 3529 530 
Q 3584 441 3700 441 
Q 3728 441 3778 458 
Q 3828 475 3916 513 
L 3916 50 
Q 3788 -22 3673 -56 
Q 3559 -91 3450 -91 
Q 3234 -91 3106 31 
Q 2978 153 2931 403 
Q 2775 156 2548 32 
Q 2322 -91 2016 -91 
Q 1697 -91 1473 31 
Q 1250 153 1119 397 
L 1119 -1331 
L 544 -1331 
z
" transform="scale(0.015625)"/>
      <path id="DejaVuSans-39" d="M 703 97 
L 703 672 
Q 941 559 1184 500 
Q 1428 441 1663 441 
Q 2288 441 2617 861 
Q 2947 1281 2994 2138 
Q 2813 1869 2534 1725 
Q 2256 1581 1919 1581 
Q 1219 1581 811 2004 
Q 403 2428 403 3163 
Q 403 3881 828 4315 
Q 1253 4750 1959 4750 
Q 2769 4750 3195 4129 
Q 3622 3509 3622 2328 
Q 3622 1225 3098 567 
Q 2575 -91 1691 -91 
Q 1453 -91 1209 -44 
Q 966 3 703 97 
z
M 1959 2075 
Q 2384 2075 2632 2365 
Q 2881 2656 2881 3163 
Q 2881 3666 2632 3958 
Q 2384 4250 1959 4250 
Q 1534 4250 1286 3958 
Q 1038 3666 1038 3163 
Q 1038 2656 1286 2365 
Q 1534 2075 1959 2075 
z
" transform="scale(0.015625)"/>
      <path id="DejaVuSans-2c" d="M 750 794 
L 1409 794 
L 1409 256 
L 897 -744 
L 494 -744 
L 750 256 
L 750 794 
z
" transform="scale(0.015625)"/>
      <path id="DejaVuSans-3c3" d="M 1959 3044 
Q 1484 3044 1228 2700 
Q 959 2341 959 1747 
Q 959 1119 1226 758 
Q 1494 397 1959 397 
Q 2419 397 2687 759 
Q 2956 1122 2956 1747 
Q 2956 2319 2688 2700 
Q 2441 3044 1959 3044 
z
M 1959 3500 
L 3869 3500 
L 3869 2925 
L 3225 2925 
Q 3566 2438 3566 1747 
Q 3566 888 3138 400 
Q 2709 -91 1959 -91 
Q 1206 -91 781 400 
Q 353 888 353 1747 
Q 353 2613 781 3097 
Q 1134 3500 1959 3500 
z
" transform="scale(0.015625)"/>
      <path id="DejaVuSans-37" d="M 525 4666 
L 3525 4666 
L 3525 4397 
L 1831 0 
L 1172 0 
L 2766 4134 
L 525 4134 
L 525 4666 
z
" transform="scale(0.015625)"/>
      <path id="DejaVuSans-29" d="M 513 4856 
L 1013 4856 
Q 1481 4119 1714 3412 
Q 1947 2706 1947 2009 
Q 1947 1309 1714 600 
Q 1481 -109 1013 -844 
L 513 -844 
Q 928 -128 1133 580 
Q 1338 1288 1338 2009 
Q 1338 2731 1133 3434 
Q 928 4138 513 4856 
z
" transform="scale(0.015625)"/>
      <path id="DejaVuSans-6f" d="M 1959 3097 
Q 1497 3097 1228 2736 
Q 959 2375 959 1747 
Q 959 1119 1226 758 
Q 1494 397 1959 397 
Q 2419 397 2687 759 
Q 2956 1122 2956 1747 
Q 2956 2369 2687 2733 
Q 2419 3097 1959 3097 
z
M 1959 3584 
Q 2709 3584 3137 3096 
Q 3566 2609 3566 1747 
Q 3566 888 3137 398 
Q 2709 -91 1959 -91 
Q 1206 -91 779 398 
Q 353 888 353 1747 
Q 353 2609 779 3096 
Q 1206 3584 1959 3584 
z
" transform="scale(0.015625)"/>
      <path id="DejaVuSans-66" d="M 2375 4863 
L 2375 4384 
L 1825 4384 
Q 1516 4384 1395 4259 
Q 1275 4134 1275 3809 
L 1275 3500 
L 2222 3500 
L 2222 3053 
L 1275 3053 
L 1275 0 
L 697 0 
L 697 3053 
L 147 3053 
L 147 3500 
L 697 3500 
L 697 3744 
Q 697 4328 969 4595 
Q 1241 4863 1831 4863 
L 2375 4863 
z
" transform="scale(0.015625)"/>
      <path id="DejaVuSans-74" d="M 1172 4494 
L 1172 3500 
L 2356 3500 
L 2356 3053 
L 1172 3053 
L 1172 1153 
Q 1172 725 1289 603 
Q 1406 481 1766 481 
L 2356 481 
L 2356 0 
L 1766 0 
Q 1100 0 847 248 
Q 594 497 594 1153 
L 594 3053 
L 172 3053 
L 172 3500 
L 594 3500 
L 594 4494 
L 1172 4494 
z
" transform="scale(0.015625)"/>
      <path id="DejaVuSans-72" d="M 2631 2963 
Q 2534 3019 2420 3045 
Q 2306 3072 2169 3072 
Q 1681 3072 1420 2755 
Q 1159 2438 1159 1844 
L 1159 0 
L 581 0 
L 581 3500 
L 1159 3500 
L 1159 2956 
Q 1341 3275 1631 3429 
Q 1922 3584 2338 3584 
Q 2397 3584 2469 3576 
Q 2541 3569 2628 3553 
L 2631 2963 
z
" transform="scale(0.015625)"/>
      <path id="DejaVuSans-5b" d="M 550 4863 
L 1875 4863 
L 1875 4416 
L 1125 4416 
L 1125 -397 
L 1875 -397 
L 1875 -844 
L 550 -844 
L 550 4863 
z
" transform="scale(0.015625)"/>
      <path id="DejaVuSans-5d" d="M 1947 4863 
L 1947 -844 
L 622 -844 
L 622 -397 
L 1369 -397 
L 1369 4416 
L 622 4416 
L 622 4863 
L 1947 4863 
z
" transform="scale(0.015625)"/>
      <path id="DejaVuSans-35" d="M 691 4666 
L 3169 4666 
L 3169 4134 
L 1269 4134 
L 1269 2991 
Q 1406 3038 1543 3061 
Q 1681 3084 1819 3084 
Q 2600 3084 3056 2656 
Q 3513 2228 3513 1497 
Q 3513 744 3044 326 
Q 2575 -91 1722 -91 
Q 1428 -91 1123 -41 
Q 819 9 494 109 
L 494 744 
Q 775 591 1075 516 
Q 1375 441 1709 441 
Q 2250 441 2565 725 
Q 2881 1009 2881 1497 
Q 2881 1984 2565 2268 
Q 2250 2553 1709 2553 
Q 1456 2553 1204 2497 
Q 953 2441 691 2322 
L 691 4666 
z
" transform="scale(0.015625)"/>
      <path id="DejaVuSans-2208" d="M 1072 1959 
Q 1094 1728 1291 1353 
Q 1522 919 1959 675 
Q 2388 438 2850 434 
L 5028 434 
L 5028 -63 
L 2850 -63 
Q 2250 -63 1695 246 
Q 1141 556 844 1106 
Q 547 1656 547 2241 
Q 547 2819 844 3369 
Q 1141 3919 1695 4231 
Q 2250 4544 2850 4544 
L 5028 4544 
L 5028 4047 
L 2850 4047 
Q 2388 4044 1959 3803 
Q 1525 3556 1291 3125 
Q 1091 2750 1063 2459 
L 5028 2459 
L 5028 1959 
L 1072 1959 
z
" transform="scale(0.015625)"/>
     </defs>
     <use xlink:href="#DejaVuSans-31"/>
     <use xlink:href="#DejaVuSans-30" x="63.623047"/>
     <use xlink:href="#DejaVuSans-30" x="127.246094"/>
     <use xlink:href="#DejaVuSans-30" x="190.869141"/>
     <use xlink:href="#DejaVuSans-30" x="254.492188"/>
     <use xlink:href="#DejaVuSans-20" x="318.115234"/>
     <use xlink:href="#DejaVuSans-73" x="349.902344"/>
     <use xlink:href="#DejaVuSans-61" x="402.001953"/>
     <use xlink:href="#DejaVuSans-6d" x="463.28125"/>
     <use xlink:href="#DejaVuSans-70" x="560.693359"/>
     <use xlink:href="#DejaVuSans-6c" x="624.169922"/>
     <use xlink:href="#DejaVuSans-65" x="651.953125"/>
     <use xlink:href="#DejaVuSans-73" x="713.476562"/>
     <use xlink:href="#DejaVuSans-20" x="765.576172"/>
     <use xlink:href="#DejaVuSans-28" x="797.363281"/>
     <use xlink:href="#DejaVuSans-3bc" x="836.376953"/>
     <use xlink:href="#DejaVuSans-3d" x="900"/>
     <use xlink:href="#DejaVuSans-2d" x="983.789062"/>
     <use xlink:href="#DejaVuSans-30" x="1019.873047"/>
     <use xlink:href="#DejaVuSans-2e" x="1083.496094"/>
     <use xlink:href="#DejaVuSans-33" x="1115.283203"/>
     <use xlink:href="#DejaVuSans-39" x="1178.90625"/>
     <use xlink:href="#DejaVuSans-32" x="1242.529297"/>
     <use xlink:href="#DejaVuSans-2c" x="1306.152344"/>
     <use xlink:href="#DejaVuSans-20" x="1337.939453"/>
     <use xlink:href="#DejaVuSans-3c3" x="1369.726562"/>
     <use xlink:href="#DejaVuSans-3d" x="1433.105469"/>
     <use xlink:href="#DejaVuSans-31" x="1516.894531"/>
     <use xlink:href="#DejaVuSans-2e" x="1580.517578"/>
     <use xlink:href="#DejaVuSans-30" x="1612.304688"/>
     <use xlink:href="#DejaVuSans-37" x="1675.927734"/>
     <use xlink:href="#DejaVuSans-37" x="1739.550781"/>
     <use xlink:href="#DejaVuSans-29" x="1803.173828"/>
     <use xlink:href="#DejaVuSans-20" x="1842.1875"/>
     <use xlink:href="#DejaVuSans-6f" x="1873.974609"/>
     <use xlink:href="#DejaVuSans-66" x="1935.15625"/>
     <use xlink:href="#DejaVuSans-20" x="1970.361328"/>
     <use xlink:href="#DejaVuSans-74" x="2002.148438"/>
     <use xlink:href="#DejaVuSans-65" x="2041.357422"/>
     <use xlink:href="#DejaVuSans-6e" x="2102.880859"/>
     <use xlink:href="#DejaVuSans-73" x="2166.259766"/>
     <use xlink:href="#DejaVuSans-6f" x="2218.359375"/>
     <use xlink:href="#DejaVuSans-72" x="2279.541016"/>
     <use xlink:href="#DejaVuSans-5b" x="2320.654297"/>
     <use xlink:href="#DejaVuSans-33" x="2359.667969"/>
     <use xlink:href="#DejaVuSans-2c" x="2423.291016"/>
     <use xlink:href="#DejaVuSans-20" x="2455.078125"/>
     <use xlink:href="#DejaVuSans-31" x="2486.865234"/>
     <use xlink:href="#DejaVuSans-39" x="2550.488281"/>
     <use xlink:href="#DejaVuSans-36" x="2614.111328"/>
     <use xlink:href="#DejaVuSans-2c" x="2677.734375"/>
     <use xlink:href="#DejaVuSans-20" x="2709.521484"/>
     <use xlink:href="#DejaVuSans-31" x="2741.308594"/>
     <use xlink:href="#DejaVuSans-39" x="2804.931641"/>
     <use xlink:href="#DejaVuSans-36" x="2868.554688"/>
     <use xlink:href="#DejaVuSans-5d" x="2932.177734"/>
     <use xlink:href="#DejaVuSans-20" x="2971.191406"/>
     <use xlink:href="#DejaVuSans-6e" x="3002.978516"/>
     <use xlink:href="#DejaVuSans-3d" x="3066.357422"/>
     <use xlink:href="#DejaVuSans-31" x="3150.146484"/>
     <use xlink:href="#DejaVuSans-31" x="3213.769531"/>
     <use xlink:href="#DejaVuSans-35" x="3277.392578"/>
     <use xlink:href="#DejaVuSans-32" x="3341.015625"/>
     <use xlink:href="#DejaVuSans-34" x="3404.638672"/>
     <use xlink:href="#DejaVuSans-38" x="3468.261719"/>
     <use xlink:href="#DejaVuSans-20" x="3531.884766"/>
     <use xlink:href="#DejaVuSans-78" x="3563.671875"/>
     <use xlink:href="#DejaVuSans-2208" x="3622.851562"/>
     <use xlink:href="#DejaVuSans-5b" x="3709.960938"/>
     <use xlink:href="#DejaVuSans-2d" x="3748.974609"/>
     <use xlink:href="#DejaVuSans-32" x="3785.058594"/>
     <use xlink:href="#DejaVuSans-2e" x="3848.681641"/>
     <use xlink:href="#DejaVuSans-31" x="3880.46875"/>
     <use xlink:href="#DejaVuSans-31" x="3944.091797"/>
     <use xlink:href="#DejaVuSans-38" x="4007.714844"/>
     <use xlink:href="#DejaVuSans-2c" x="4071.337891"/>
     <use xlink:href="#DejaVuSans-20" x="4103.125"/>
     <use xlink:href="#DejaVuSans-32" x="4134.912109"/>
     <use xlink:href="#DejaVuSans-2e" x="4198.535156"/>
     <use xlink:href="#DejaVuSans-36" x="4230.322266"/>
     <use xlink:href="#DejaVuSans-34" x="4293.945312"/>
     <use xlink:href="#DejaVuSans-30" x="4357.568359"/>
     <use xlink:href="#DejaVuSans-5d" x="4421.191406"/>
     <use xlink:href="#DejaVuSans-20" x="4460.205078"/>
     <use xlink:href="#DejaVuSans-3bc" x="4491.992188"/>
     <use xlink:href="#DejaVuSans-3d" x="4555.615234"/>
     <use xlink:href="#DejaVuSans-2d" x="4639.404297"/>
     <use xlink:href="#DejaVuSans-30" x="4675.488281"/>
     <use xlink:href="#DejaVuSans-2e" x="4739.111328"/>
     <use xlink:href="#DejaVuSans-33" x="4770.898438"/>
     <use xlink:href="#DejaVuSans-38" x="4834.521484"/>
     <use xlink:href="#DejaVuSans-38" x="4898.144531"/>
     <use xlink:href="#DejaVuSans-20" x="4961.767578"/>
     <use xlink:href="#DejaVuSans-3c3" x="4993.554688"/>
     <use xlink:href="#DejaVuSans-3d" x="5056.933594"/>
     <use xlink:href="#DejaVuSans-31" x="5140.722656"/>
     <use xlink:href="#DejaVuSans-2e" x="5204.345703"/>
     <use xlink:href="#DejaVuSans-30" x="5236.132812"/>
     <use xlink:href="#DejaVuSans-37" x="5299.755859"/>
     <use xlink:href="#DejaVuSans-33" x="5363.378906"/>
    </g>
   </g>
   <g id="patch_9">
    <path d="M 210.890196 128.528148 
L 219.359457 128.528148 
L 219.359457 128.210745 
L 210.890196 128.210745 
z
" clip-path="url(#p7b1a8d3d5d)" style="fill: #00bfff"/>
   </g>
   <g id="patch_10">
    <path d="M 219.359457 128.528148 
L 227.828687 128.528148 
L 227.828687 125.512807 
L 219.359457 125.512807 
z
" clip-path="url(#p7b1a8d3d5d)" style="fill: #00bfff"/>
   </g>
   <g id="patch_11">
    <path d="M 227.828687 128.528148 
L 236.297932 128.528148 
L 236.297932 123.925794 
L 227.828687 123.925794 
z
" clip-path="url(#p7b1a8d3d5d)" style="fill: #00bfff"/>
   </g>
   <g id="patch_12">
    <path d="M 236.297932 128.528148 
L 244.767177 128.528148 
L 244.767177 119.482142 
L 236.297932 119.482142 
z
" clip-path="url(#p7b1a8d3d5d)" style="fill: #00bfff"/>
   </g>
   <g id="patch_13">
    <path d="M 244.767177 128.528148 
L 253.236423 128.528148 
L 253.236423 115.355894 
L 244.767177 115.355894 
z
" clip-path="url(#p7b1a8d3d5d)" style="fill: #00bfff"/>
   </g>
   <g id="patch_14">
    <path d="M 253.236423 128.528148 
L 261.705668 128.528148 
L 261.705668 111.388348 
L 253.236423 111.388348 
z
" clip-path="url(#p7b1a8d3d5d)" style="fill: #00bfff"/>
   </g>
   <g id="patch_15">
    <path d="M 261.705668 128.528148 
L 270.174914 128.528148 
L 270.174914 102.97715 
L 261.705668 102.97715 
z
" clip-path="url(#p7b1a8d3d5d)" style="fill: #00bfff"/>
   </g>
   <g id="patch_16">
    <path d="M 270.174914 128.528148 
L 278.644159 128.528148 
L 278.644159 109.642628 
L 270.174914 109.642628 
z
" clip-path="url(#p7b1a8d3d5d)" style="fill: #00bfff"/>
   </g>
   <g id="patch_17">
    <path d="M 278.644159 128.528148 
L 287.113405 128.528148 
L 287.113405 103.453256 
L 278.644159 103.453256 
z
" clip-path="url(#p7b1a8d3d5d)" style="fill: #00bfff"/>
   </g>
   <g id="patch_18">
    <path d="M 287.113405 128.528148 
L 295.58265 128.528148 
L 295.58265 102.342343 
L 287.113405 102.342343 
z
" clip-path="url(#p7b1a8d3d5d)" style="fill: #00bfff"/>
   </g>
   <g id="patch_19">
    <path d="M 295.58265 128.528148 
L 304.051895 128.528148 
L 304.051895 96.470375 
L 295.58265 96.470375 
z
" clip-path="url(#p7b1a8d3d5d)" style="fill: #00bfff"/>
   </g>
   <g id="patch_20">
    <path d="M 304.051895 128.528148 
L 312.521141 128.528148 
L 312.521141 93.296338 
L 304.051895 93.296338 
z
" clip-path="url(#p7b1a8d3d5d)" style="fill: #00bfff"/>
   </g>
   <g id="patch_21">
    <path d="M 312.521141 128.528148 
L 320.990402 128.528148 
L 320.990402 86.948343 
L 312.521141 86.948343 
z
" clip-path="url(#p7b1a8d3d5d)" style="fill: #00bfff"/>
   </g>
   <g id="patch_22">
    <path d="M 320.990402 128.528148 
L 329.459648 128.528148 
L 329.459648 66.317024 
L 320.990402 66.317024 
z
" clip-path="url(#p7b1a8d3d5d)" style="fill: #00bfff"/>
   </g>
   <g id="patch_23">
    <path d="M 329.459648 128.528148 
L 337.928893 128.528148 
L 337.928893 71.712887 
L 329.459648 71.712887 
z
" clip-path="url(#p7b1a8d3d5d)" style="fill: #00bfff"/>
   </g>
   <g id="patch_24">
    <path d="M 337.928893 128.528148 
L 346.398139 128.528148 
L 346.398139 49.177225 
L 337.928893 49.177225 
z
" clip-path="url(#p7b1a8d3d5d)" style="fill: #00bfff"/>
   </g>
   <g id="patch_25">
    <path d="M 346.398139 128.528148 
L 354.867384 128.528148 
L 354.867384 72.347694 
L 346.398139 72.347694 
z
" clip-path="url(#p7b1a8d3d5d)" style="fill: #00bfff"/>
   </g>
   <g id="patch_26">
    <path d="M 354.867384 128.528148 
L 363.336621 128.528148 
L 363.336621 75.521681 
L 354.867384 75.521681 
z
" clip-path="url(#p7b1a8d3d5d)" style="fill: #00bfff"/>
   </g>
   <g id="patch_27">
    <path d="M 363.336621 128.528148 
L 371.805875 128.528148 
L 371.805875 74.093466 
L 363.336621 74.093466 
z
" clip-path="url(#p7b1a8d3d5d)" style="fill: #00bfff"/>
   </g>
   <g id="patch_28">
    <path d="M 371.805875 128.528148 
L 380.27512 128.528148 
L 380.27512 71.554185 
L 371.805875 71.554185 
z
" clip-path="url(#p7b1a8d3d5d)" style="fill: #00bfff"/>
   </g>
   <g id="patch_29">
    <path d="M 380.27512 128.528148 
L 388.744366 128.528148 
L 388.744366 67.745341 
L 380.27512 67.745341 
z
" clip-path="url(#p7b1a8d3d5d)" style="fill: #00bfff"/>
   </g>
   <g id="patch_30">
    <path d="M 388.744366 128.528148 
L 397.213611 128.528148 
L 397.213611 53.93828 
L 388.744366 53.93828 
z
" clip-path="url(#p7b1a8d3d5d)" style="fill: #00bfff"/>
   </g>
   <g id="patch_31">
    <path d="M 397.213611 128.528148 
L 405.682857 128.528148 
L 405.682857 63.142987 
L 397.213611 63.142987 
z
" clip-path="url(#p7b1a8d3d5d)" style="fill: #00bfff"/>
   </g>
   <g id="patch_32">
    <path d="M 405.682857 128.528148 
L 414.152102 128.528148 
L 414.152102 59.651547 
L 405.682857 59.651547 
z
" clip-path="url(#p7b1a8d3d5d)" style="fill: #00bfff"/>
   </g>
   <g id="patch_33">
    <path d="M 414.152102 128.528148 
L 422.621347 128.528148 
L 422.621347 55.207895 
L 414.152102 55.207895 
z
" clip-path="url(#p7b1a8d3d5d)" style="fill: #00bfff"/>
   </g>
   <g id="patch_34">
    <path d="M 422.621347 128.528148 
L 431.090593 128.528148 
L 431.090593 69.173657 
L 422.621347 69.173657 
z
" clip-path="url(#p7b1a8d3d5d)" style="fill: #00bfff"/>
   </g>
   <g id="patch_35">
    <path d="M 431.090593 128.528148 
L 439.559838 128.528148 
L 439.559838 79.013172 
L 431.090593 79.013172 
z
" clip-path="url(#p7b1a8d3d5d)" style="fill: #00bfff"/>
   </g>
   <g id="patch_36">
    <path d="M 439.559838 128.528148 
L 448.029084 128.528148 
L 448.029084 89.487494 
L 439.559838 89.487494 
z
" clip-path="url(#p7b1a8d3d5d)" style="fill: #00bfff"/>
   </g>
   <g id="patch_37">
    <path d="M 448.029084 128.528148 
L 456.498333 128.528148 
L 456.498333 107.896918 
L 448.029084 107.896918 
z
" clip-path="url(#p7b1a8d3d5d)" style="fill: #00bfff"/>
   </g>
   <g id="patch_38">
    <path d="M 456.498333 128.528148 
L 464.967578 128.528148 
L 464.967578 109.80133 
L 456.498333 109.80133 
z
" clip-path="url(#p7b1a8d3d5d)" style="fill: #00bfff"/>
   </g>
   <g id="patch_39">
    <path d="M 464.967578 128.528148 
L 473.436824 128.528148 
L 473.436824 119.164739 
L 464.967578 119.164739 
z
" clip-path="url(#p7b1a8d3d5d)" style="fill: #00bfff"/>
   </g>
   <g id="patch_40">
    <path d="M 473.436824 128.528148 
L 481.906069 128.528148 
L 481.906069 119.799546 
L 473.436824 119.799546 
z
" clip-path="url(#p7b1a8d3d5d)" style="fill: #00bfff"/>
   </g>
   <g id="patch_41">
    <path d="M 481.906069 128.528148 
L 490.375316 128.528148 
L 490.375316 117.736423 
L 481.906069 117.736423 
z
" clip-path="url(#p7b1a8d3d5d)" style="fill: #00bfff"/>
   </g>
   <g id="patch_42">
    <path d="M 490.375316 128.528148 
L 498.844562 128.528148 
L 498.844562 122.180075 
L 490.375316 122.180075 
z
" clip-path="url(#p7b1a8d3d5d)" style="fill: #00bfff"/>
   </g>
   <g id="patch_43">
    <path d="M 498.844562 128.528148 
L 507.313808 128.528148 
L 507.313808 122.814881 
L 498.844562 122.814881 
z
" clip-path="url(#p7b1a8d3d5d)" style="fill: #00bfff"/>
   </g>
   <g id="patch_44">
    <path d="M 507.313808 128.528148 
L 515.783055 128.528148 
L 515.783055 120.434355 
L 507.313808 120.434355 
z
" clip-path="url(#p7b1a8d3d5d)" style="fill: #00bfff"/>
   </g>
   <g id="patch_45">
    <path d="M 515.783055 128.528148 
L 524.2523 128.528148 
L 524.2523 121.069161 
L 515.783055 121.069161 
z
" clip-path="url(#p7b1a8d3d5d)" style="fill: #00bfff"/>
   </g>
   <g id="patch_46">
    <path d="M 524.2523 128.528148 
L 532.721546 128.528148 
L 532.721546 121.703968 
L 524.2523 121.703968 
z
" clip-path="url(#p7b1a8d3d5d)" style="fill: #00bfff"/>
   </g>
   <g id="patch_47">
    <path d="M 532.721546 128.528148 
L 541.190791 128.528148 
L 541.190791 120.593055 
L 532.721546 120.593055 
z
" clip-path="url(#p7b1a8d3d5d)" style="fill: #00bfff"/>
   </g>
   <g id="patch_48">
    <path d="M 541.190791 128.528148 
L 549.660037 128.528148 
L 549.660037 119.640844 
L 541.190791 119.640844 
z
" clip-path="url(#p7b1a8d3d5d)" style="fill: #00bfff"/>
   </g>
   <g id="patch_49">
    <path d="M 549.660037 128.528148 
L 558.129286 128.528148 
L 558.129286 120.751761 
L 549.660037 120.751761 
z
" clip-path="url(#p7b1a8d3d5d)" style="fill: #00bfff"/>
   </g>
   <g id="patch_50">
    <path d="M 558.129286 128.528148 
L 566.598528 128.528148 
L 566.598528 120.910455 
L 558.129286 120.910455 
z
" clip-path="url(#p7b1a8d3d5d)" style="fill: #00bfff"/>
   </g>
   <g id="patch_51">
    <path d="M 566.598528 128.528148 
L 575.067773 128.528148 
L 575.067773 121.86267 
L 566.598528 121.86267 
z
" clip-path="url(#p7b1a8d3d5d)" style="fill: #00bfff"/>
   </g>
   <g id="patch_52">
    <path d="M 575.067773 128.528148 
L 583.537026 128.528148 
L 583.537026 122.338782 
L 575.067773 122.338782 
z
" clip-path="url(#p7b1a8d3d5d)" style="fill: #00bfff"/>
   </g>
   <g id="patch_53">
    <path d="M 583.537026 128.528148 
L 592.006272 128.528148 
L 592.006272 121.227863 
L 583.537026 121.227863 
z
" clip-path="url(#p7b1a8d3d5d)" style="fill: #00bfff"/>
   </g>
   <g id="patch_54">
    <path d="M 592.006272 128.528148 
L 600.475517 128.528148 
L 600.475517 121.86267 
L 592.006272 121.86267 
z
" clip-path="url(#p7b1a8d3d5d)" style="fill: #00bfff"/>
   </g>
   <g id="patch_55">
    <path d="M 600.475517 128.528148 
L 608.944763 128.528148 
L 608.944763 122.180074 
L 600.475517 122.180074 
z
" clip-path="url(#p7b1a8d3d5d)" style="fill: #00bfff"/>
   </g>
   <g id="patch_56">
    <path d="M 608.944763 128.528148 
L 617.414008 128.528148 
L 617.414008 123.60839 
L 608.944763 123.60839 
z
" clip-path="url(#p7b1a8d3d5d)" style="fill: #00bfff"/>
   </g>
   <g id="patch_57">
    <path d="M 617.414008 128.528148 
L 625.883254 128.528148 
L 625.883254 126.306322 
L 617.414008 126.306322 
z
" clip-path="url(#p7b1a8d3d5d)" style="fill: #00bfff"/>
   </g>
   <g id="patch_58">
    <path d="M 625.883254 128.528148 
L 634.352499 128.528148 
L 634.352499 123.767092 
L 625.883254 123.767092 
z
" clip-path="url(#p7b1a8d3d5d)" style="fill: #00bfff"/>
   </g>
   <g id="patch_59">
    <path d="M 634.352499 128.528148 
L 642.821744 128.528148 
L 642.821744 123.60839 
L 634.352499 123.60839 
z
" clip-path="url(#p7b1a8d3d5d)" style="fill: #00bfff"/>
   </g>
   <g id="patch_60">
    <path d="M 642.821744 128.528148 
L 651.29099 128.528148 
L 651.29099 123.767092 
L 642.821744 123.767092 
z
" clip-path="url(#p7b1a8d3d5d)" style="fill: #00bfff"/>
   </g>
   <g id="patch_61">
    <path d="M 651.29099 128.528148 
L 659.760235 128.528148 
L 659.760235 121.227863 
L 651.29099 121.227863 
z
" clip-path="url(#p7b1a8d3d5d)" style="fill: #00bfff"/>
   </g>
   <g id="patch_62">
    <path d="M 659.760235 128.528148 
L 668.229481 128.528148 
L 668.229481 120.434353 
L 659.760235 120.434353 
z
" clip-path="url(#p7b1a8d3d5d)" style="fill: #00bfff"/>
   </g>
   <g id="patch_63">
    <path d="M 668.229481 128.528148 
L 676.698726 128.528148 
L 676.698726 122.814881 
L 668.229481 122.814881 
z
" clip-path="url(#p7b1a8d3d5d)" style="fill: #00bfff"/>
   </g>
   <g id="patch_64">
    <path d="M 676.698726 128.528148 
L 685.167971 128.528148 
L 685.167971 120.751757 
L 676.698726 120.751757 
z
" clip-path="url(#p7b1a8d3d5d)" style="fill: #00bfff"/>
   </g>
   <g id="patch_65">
    <path d="M 685.167971 128.528148 
L 693.637217 128.528148 
L 693.637217 117.57772 
L 685.167971 117.57772 
z
" clip-path="url(#p7b1a8d3d5d)" style="fill: #00bfff"/>
   </g>
   <g id="patch_66">
    <path d="M 693.637217 128.528148 
L 702.106462 128.528148 
L 702.106462 116.942913 
L 693.637217 116.942913 
z
" clip-path="url(#p7b1a8d3d5d)" style="fill: #00bfff"/>
   </g>
   <g id="patch_67">
    <path d="M 702.106462 128.528148 
L 710.575708 128.528148 
L 710.575708 115.514596 
L 702.106462 115.514596 
z
" clip-path="url(#p7b1a8d3d5d)" style="fill: #00bfff"/>
   </g>
   <g id="patch_68">
    <path d="M 710.575708 128.528148 
L 719.044953 128.528148 
L 719.044953 111.229646 
L 710.575708 111.229646 
z
" clip-path="url(#p7b1a8d3d5d)" style="fill: #00bfff"/>
   </g>
   <g id="patch_69">
    <path d="M 719.044953 128.528148 
L 727.514199 128.528148 
L 727.514199 112.181858 
L 719.044953 112.181858 
z
" clip-path="url(#p7b1a8d3d5d)" style="fill: #00bfff"/>
   </g>
   <g id="patch_70">
    <path d="M 727.514199 128.528148 
L 735.983444 128.528148 
L 735.983444 113.29277 
L 727.514199 113.29277 
z
" clip-path="url(#p7b1a8d3d5d)" style="fill: #00bfff"/>
   </g>
   <g id="patch_71">
    <path d="M 735.983444 128.528148 
L 744.452706 128.528148 
L 744.452706 111.070978 
L 735.983444 111.070978 
z
" clip-path="url(#p7b1a8d3d5d)" style="fill: #00bfff"/>
   </g>
   <g id="patch_72">
    <path d="M 744.452706 128.528148 
L 752.921951 128.528148 
L 752.921951 111.864454 
L 744.452706 111.864454 
z
" clip-path="url(#p7b1a8d3d5d)" style="fill: #00bfff"/>
   </g>
   <g id="patch_73">
    <path d="M 752.921951 128.528148 
L 761.391196 128.528148 
L 761.391196 111.388348 
L 752.921951 111.388348 
z
" clip-path="url(#p7b1a8d3d5d)" style="fill: #00bfff"/>
   </g>
   <g id="patch_74">
    <path d="M 761.391196 128.528148 
L 769.860426 128.528148 
L 769.860426 115.355869 
L 761.391196 115.355869 
z
" clip-path="url(#p7b1a8d3d5d)" style="fill: #00bfff"/>
   </g>
   <g id="patch_75">
    <path d="M 769.860426 128.528148 
L 778.329687 128.528148 
L 778.329687 117.41904 
L 769.860426 117.41904 
z
" clip-path="url(#p7b1a8d3d5d)" style="fill: #00bfff"/>
   </g>
   <g id="patch_76">
    <path d="M 778.329687 128.528148 
L 786.798916 128.528148 
L 786.798916 119.482125 
L 778.329687 119.482125 
z
" clip-path="url(#p7b1a8d3d5d)" style="fill: #00bfff"/>
   </g>
   <g id="patch_77">
    <path d="M 786.798916 128.528148 
L 795.268178 128.528148 
L 795.268178 118.212547 
L 786.798916 118.212547 
z
" clip-path="url(#p7b1a8d3d5d)" style="fill: #00bfff"/>
   </g>
   <g id="patch_78">
    <path d="M 795.268178 128.528148 
L 803.737407 128.528148 
L 803.737407 118.688614 
L 795.268178 118.688614 
z
" clip-path="url(#p7b1a8d3d5d)" style="fill: #00bfff"/>
   </g>
   <g id="patch_79">
    <path d="M 803.737407 128.528148 
L 812.206669 128.528148 
L 812.206669 123.449698 
L 803.737407 123.449698 
z
" clip-path="url(#p7b1a8d3d5d)" style="fill: #00bfff"/>
   </g>
   <g id="patch_80">
    <path d="M 812.206669 128.528148 
L 820.675898 128.528148 
L 820.675898 118.37121 
L 812.206669 118.37121 
z
" clip-path="url(#p7b1a8d3d5d)" style="fill: #00bfff"/>
   </g>
   <g id="patch_81">
    <path d="M 820.675898 128.528148 
L 829.14516 128.528148 
L 829.14516 126.782431 
L 820.675898 126.782431 
z
" clip-path="url(#p7b1a8d3d5d)" style="fill: #00bfff"/>
   </g>
   <g id="patch_82">
    <path d="M 829.14516 128.528148 
L 837.614389 128.528148 
L 837.614389 128.052041 
L 829.14516 128.052041 
z
" clip-path="url(#p7b1a8d3d5d)" style="fill: #00bfff"/>
   </g>
   <g id="patch_83">
    <path d="M 837.614389 128.528148 
L 846.083651 128.528148 
L 846.083651 128.369446 
L 837.614389 128.369446 
z
" clip-path="url(#p7b1a8d3d5d)" style="fill: #00bfff"/>
   </g>
   <g id="line2d_14">
    <path d="M 10.7 128.022753 
L 19.331308 127.928188 
L 27.962617 127.818417 
L 36.593925 127.691498 
L 45.225233 127.54533 
L 53.856541 127.377661 
L 62.48785 127.186096 
L 71.119158 126.968106 
L 79.750466 126.721048 
L 88.381775 126.442181 
L 97.013083 126.128697 
L 105.644391 125.777751 
L 114.275699 125.386496 
L 122.907008 124.952128 
L 131.538316 124.471933 
L 140.169624 123.943339 
L 148.800933 123.363977 
L 157.432241 122.731737 
L 166.063549 122.044837 
L 174.694857 121.301885 
L 183.326166 120.501951 
L 191.957474 119.644629 
L 200.588782 118.730104 
L 209.220091 117.759208 
L 217.851399 116.733481 
L 226.482707 115.655214 
L 235.114015 114.527485 
L 243.745324 113.354192 
L 252.376632 112.140063 
L 261.00794 110.890658 
L 269.639248 109.612358 
L 278.270557 108.312327 
L 286.901865 106.998475 
L 295.533173 105.679387 
L 304.164482 104.364247 
L 312.79579 103.062742 
L 321.427098 101.784951 
L 330.058406 100.541221 
L 338.689715 99.342035 
L 347.321023 98.197863 
L 355.952331 97.11902 
L 364.58364 96.115506 
L 373.214948 95.196856 
L 381.846256 94.371988 
L 390.477564 93.649062 
L 399.108873 93.035343 
L 407.740181 92.537082 
L 416.371489 92.159407 
L 425.002798 91.906238 
L 433.634106 91.780218 
L 442.265414 91.782667 
L 450.896722 91.91356 
L 459.528031 92.171524 
L 468.159339 92.553869 
L 476.790647 93.056626 
L 485.421956 93.674623 
L 494.053264 94.401568 
L 502.684572 95.23016 
L 511.31588 96.152208 
L 519.947189 97.158768 
L 528.578497 98.240283 
L 537.209805 99.386738 
L 545.841114 100.587813 
L 554.472422 101.833031 
L 563.10373 103.111912 
L 571.735038 104.414119 
L 580.366347 105.729583 
L 588.997655 107.048637 
L 597.628963 108.362116 
L 606.260272 109.661459 
L 614.89158 110.938787 
L 623.522888 112.18696 
L 632.154196 113.399631 
L 640.785505 114.571271 
L 649.416813 115.697183 
L 658.048121 116.773503 
L 666.679429 117.797179 
L 675.310738 118.765953 
L 683.942046 119.678312 
L 692.573354 120.533449 
L 701.204663 121.331203 
L 709.835971 122.072001 
L 718.467279 122.756793 
L 727.098587 123.386985 
L 735.729896 123.964375 
L 744.361204 124.491081 
L 752.992512 124.969484 
L 761.623821 125.40216 
L 770.255129 125.791829 
L 778.886437 126.141297 
L 787.517745 126.453411 
L 796.149054 126.731016 
L 804.780362 126.976919 
L 813.41167 127.193855 
L 822.042979 127.384465 
L 830.674287 127.551273 
L 839.305595 127.696668 
L 847.936903 127.822897 
L 856.568212 127.932054 
L 865.19952 128.026077 
" clip-path="url(#p7b1a8d3d5d)" style="fill: none; stroke: #1f77b4; stroke-width: 1.5; stroke-linecap: square"/>
   </g>
   <g id="text_10">
    <g id="patch_84">
     <path d="M 137.917112 38.307963 
L 154.224925 38.307963 
Q 157.224925 38.307963 157.224925 35.307963 
L 157.224925 25.629838 
Q 157.224925 22.629838 154.224925 22.629838 
L 137.917112 22.629838 
Q 134.917112 22.629838 134.917112 25.629838 
L 134.917112 35.307963 
Q 134.917112 38.307963 137.917112 38.307963 
z
" style="fill: #ffffff"/>
    </g>
    <!-- -2σ -->
    <g transform="translate(137.917112 33.228276) scale(0.1 -0.1)">
     <use xlink:href="#DejaVuSans-2d"/>
     <use xlink:href="#DejaVuSans-32" x="36.083984"/>
     <use xlink:href="#DejaVuSans-3c3" x="99.707031"/>
    </g>
   </g>
   <g id="text_11">
    <g id="patch_85">
     <path d="M 286.955599 38.307963 
L 296.900912 38.307963 
Q 299.900912 38.307963 299.900912 35.307963 
L 299.900912 25.629838 
Q 299.900912 22.629838 296.900912 22.629838 
L 286.955599 22.629838 
Q 283.955599 22.629838 283.955599 25.629838 
L 283.955599 35.307963 
Q 283.955599 38.307963 286.955599 38.307963 
z
" style="fill: #ffffff"/>
    </g>
    <!-- -σ -->
    <g transform="translate(286.955599 33.228276) scale(0.1 -0.1)">
     <use xlink:href="#DejaVuSans-2d"/>
     <use xlink:href="#DejaVuSans-3c3" x="36.083984"/>
    </g>
   </g>
   <g id="text_12">
    <g id="patch_86">
     <path d="M 434.106586 38.307963 
L 441.464399 38.307963 
Q 444.464399 38.307963 444.464399 35.307963 
L 444.464399 25.629838 
Q 444.464399 22.629838 441.464399 22.629838 
L 434.106586 22.629838 
Q 431.106586 22.629838 431.106586 25.629838 
L 431.106586 35.307963 
Q 431.106586 38.307963 434.106586 38.307963 
z
" style="fill: #ffffff"/>
    </g>
    <!-- μ -->
    <g transform="translate(434.106586 33.217338) scale(0.1 -0.1)">
     <defs>
      <path id="DejaVuSans-Bold-3bc" d="M 544 -1338 
L 544 3500 
L 1672 3500 
L 1672 1466 
Q 1672 1103 1828 926 
Q 1984 750 2303 750 
Q 2625 750 2781 926 
Q 2938 1103 2938 1466 
L 2938 3500 
L 4063 3500 
L 4063 1159 
Q 4063 938 4114 850 
Q 4166 763 4288 763 
Q 4344 763 4395 778 
Q 4447 794 4506 831 
L 4506 50 
Q 4341 -22 4195 -56 
Q 4050 -91 3909 -91 
Q 3631 -91 3454 26 
Q 3278 144 3169 403 
Q 3022 156 2811 32 
Q 2600 -91 2322 -91 
Q 2091 -91 1928 -17 
Q 1766 56 1672 206 
L 1672 -1338 
L 544 -1338 
z
" transform="scale(0.015625)"/>
     </defs>
     <use xlink:href="#DejaVuSans-Bold-3bc"/>
    </g>
   </g>
   <g id="text_13">
    <g id="patch_87">
     <path d="M 576.284135 38.307963 
L 591.001323 38.307963 
Q 594.001323 38.307963 594.001323 35.307963 
L 594.001323 25.629838 
Q 594.001323 22.629838 591.001323 22.629838 
L 576.284135 22.629838 
Q 573.284135 22.629838 573.284135 25.629838 
L 573.284135 35.307963 
Q 573.284135 38.307963 576.284135 38.307963 
z
" style="fill: #ffffff"/>
    </g>
    <!-- +σ -->
    <g transform="translate(576.284135 33.228276) scale(0.1 -0.1)">
     <defs>
      <path id="DejaVuSans-2b" d="M 2944 4013 
L 2944 2272 
L 4684 2272 
L 4684 1741 
L 2944 1741 
L 2944 0 
L 2419 0 
L 2419 1741 
L 678 1741 
L 678 2272 
L 2419 2272 
L 2419 4013 
L 2944 4013 
z
" transform="scale(0.015625)"/>
     </defs>
     <use xlink:href="#DejaVuSans-2b"/>
     <use xlink:href="#DejaVuSans-3c3" x="83.789062"/>
    </g>
   </g>
   <g id="text_14">
    <g id="patch_88">
     <path d="M 718.960122 38.307963 
L 740.03981 38.307963 
Q 743.03981 38.307963 743.03981 35.307963 
L 743.03981 25.629838 
Q 743.03981 22.629838 740.03981 22.629838 
L 718.960122 22.629838 
Q 715.960122 22.629838 715.960122 25.629838 
L 715.960122 35.307963 
Q 715.960122 38.307963 718.960122 38.307963 
z
" style="fill: #ffffff"/>
    </g>
    <!-- +2σ -->
    <g transform="translate(718.960122 33.228276) scale(0.1 -0.1)">
     <use xlink:href="#DejaVuSans-2b"/>
     <use xlink:href="#DejaVuSans-32" x="83.789062"/>
     <use xlink:href="#DejaVuSans-3c3" x="147.412109"/>
    </g>
   </g>
  </g>
 </g>
 <defs>
  <clipPath id="p7b1a8d3d5d">
   <rect x="10.7" y="20.214138" width="854.49952" height="108.31401"/>
  </clipPath>
 </defs>
</svg>
