<?xml version="1.0" encoding="utf-8" standalone="no"?>
<!DOCTYPE svg PUBLIC "-//W3C//DTD SVG 1.1//EN"
  "http://www.w3.org/Graphics/SVG/1.1/DTD/svg11.dtd">
<svg xmlns:xlink="http://www.w3.org/1999/xlink" width="872.39952pt" height="152.406273pt" viewBox="0 0 872.39952 152.406273" xmlns="http://www.w3.org/2000/svg" version="1.1">
 <metadata>
  <rdf:RDF xmlns:dc="http://purl.org/dc/elements/1.1/" xmlns:cc="http://creativecommons.org/ns#" xmlns:rdf="http://www.w3.org/1999/02/22-rdf-syntax-ns#">
   <cc:Work>
    <dc:type rdf:resource="http://purl.org/dc/dcmitype/StillImage"/>
    <dc:format>image/svg+xml</dc:format>
    <dc:creator>
     <cc:Agent>
      <dc:title>Matplotlib, https://matplotlib.org/</dc:title>
     </cc:Agent>
    </dc:creator>
   </cc:Work>
  </rdf:RDF>
 </metadata>
 <defs>
  <style type="text/css">*{stroke-linejoin: round; stroke-linecap: butt}</style>
 </defs>
 <g id="figure_1">
  <g id="patch_1">
   <path d="M 0 152.406273 
L 872.39952 152.406273 
L 872.39952 0 
L 0 0 
z
" style="fill: #ffffff"/>
  </g>
  <g id="axes_1">
   <g id="patch_2">
    <path d="M 10.7 128.528148 
L 865.19952 128.528148 
L 865.19952 20.214138 
L 10.7 20.214138 
z
" style="fill: #ffffff"/>
   </g>
   <g id="matplotlib.axis_1">
    <g id="xtick_1">
     <g id="line2d_1">
      <defs>
       <path id="m8f1de1206a" d="M 0 0 
L 0 3.5 
" style="stroke: #000000; stroke-width: 0.8"/>
      </defs>
      <g>
       <use xlink:href="#m8f1de1206a" x="27.113539" y="128.528148" style="stroke: #000000; stroke-width: 0.8"/>
      </g>
     </g>
     <g id="text_1">
      <!-- −3 -->
      <g transform="translate(19.742445 143.126585) scale(0.1 -0.1)">
       <defs>
        <path id="DejaVuSans-2212" d="M 678 2272 
L 4684 2272 
L 4684 1741 
L 678 1741 
L 678 2272 
z
" transform="scale(0.015625)"/>
        <path id="DejaVuSans-33" d="M 2597 2516 
Q 3050 2419 3304 2112 
Q 3559 1806 3559 1356 
Q 3559 666 3084 287 
Q 2609 -91 1734 -91 
Q 1441 -91 1130 -33 
Q 819 25 488 141 
L 488 750 
Q 750 597 1062 519 
Q 1375 441 1716 441 
Q 2309 441 2620 675 
Q 2931 909 2931 1356 
Q 2931 1769 2642 2001 
Q 2353 2234 1838 2234 
L 1294 2234 
L 1294 2753 
L 1863 2753 
Q 2328 2753 2575 2939 
Q 2822 3125 2822 3475 
Q 2822 3834 2567 4026 
Q 2313 4219 1838 4219 
Q 1578 4219 1281 4162 
Q 984 4106 628 3988 
L 628 4550 
Q 988 4650 1302 4700 
Q 1616 4750 1894 4750 
Q 2613 4750 3031 4423 
Q 3450 4097 3450 3541 
Q 3450 3153 3228 2886 
Q 3006 2619 2597 2516 
z
" transform="scale(0.015625)"/>
       </defs>
       <use xlink:href="#DejaVuSans-2212"/>
       <use xlink:href="#DejaVuSans-33" x="83.789062"/>
      </g>
     </g>
    </g>
    <g id="xtick_2">
     <g id="line2d_2">
      <g>
       <use xlink:href="#m8f1de1206a" x="164.004191" y="128.528148" style="stroke: #000000; stroke-width: 0.8"/>
      </g>
     </g>
     <g id="text_2">
      <!-- −2 -->
      <g transform="translate(156.633098 143.126585) scale(0.1 -0.1)">
       <defs>
        <path id="DejaVuSans-32" d="M 1228 531 
L 3431 531 
L 3431 0 
L 469 0 
L 469 531 
Q 828 903 1448 1529 
Q 2069 2156 2228 2338 
Q 2531 2678 2651 2914 
Q 2772 3150 2772 3378 
Q 2772 3750 2511 3984 
Q 2250 4219 1831 4219 
Q 1534 4219 1204 4116 
Q 875 4013 500 3803 
L 500 4441 
Q 881 4594 1212 4672 
Q 1544 4750 1819 4750 
Q 2544 4750 2975 4387 
Q 3406 4025 3406 3419 
Q 3406 3131 3298 2873 
Q 3191 2616 2906 2266 
Q 2828 2175 2409 1742 
Q 1991 1309 1228 531 
z
" transform="scale(0.015625)"/>
       </defs>
       <use xlink:href="#DejaVuSans-2212"/>
       <use xlink:href="#DejaVuSans-32" x="83.789062"/>
      </g>
     </g>
    </g>
    <g id="xtick_3">
     <g id="line2d_3">
      <g>
       <use xlink:href="#m8f1de1206a" x="300.894844" y="128.528148" style="stroke: #000000; stroke-width: 0.8"/>
      </g>
     </g>
     <g id="text_3">
      <!-- −1 -->
      <g transform="translate(293.52375 143.126585) scale(0.1 -0.1)">
       <defs>
        <path id="DejaVuSans-31" d="M 794 531 
L 1825 531 
L 1825 4091 
L 703 3866 
L 703 4441 
L 1819 4666 
L 2450 4666 
L 2450 531 
L 3481 531 
L 3481 0 
L 794 0 
L 794 531 
z
" transform="scale(0.015625)"/>
       </defs>
       <use xlink:href="#DejaVuSans-2212"/>
       <use xlink:href="#DejaVuSans-31" x="83.789062"/>
      </g>
     </g>
    </g>
    <g id="xtick_4">
     <g id="line2d_4">
      <g>
       <use xlink:href="#m8f1de1206a" x="437.785496" y="128.528148" style="stroke: #000000; stroke-width: 0.8"/>
      </g>
     </g>
     <g id="text_4">
      <!-- 0 -->
      <g transform="translate(434.604246 143.126585) scale(0.1 -0.1)">
       <defs>
        <path id="DejaVuSans-30" d="M 2034 4250 
Q 1547 4250 1301 3770 
Q 1056 3291 1056 2328 
Q 1056 1369 1301 889 
Q 1547 409 2034 409 
Q 2525 409 2770 889 
Q 3016 1369 3016 2328 
Q 3016 3291 2770 3770 
Q 2525 4250 2034 4250 
z
M 2034 4750 
Q 2819 4750 3233 4129 
Q 3647 3509 3647 2328 
Q 3647 1150 3233 529 
Q 2819 -91 2034 -91 
Q 1250 -91 836 529 
Q 422 1150 422 2328 
Q 422 3509 836 4129 
Q 1250 4750 2034 4750 
z
" transform="scale(0.015625)"/>
       </defs>
       <use xlink:href="#DejaVuSans-30"/>
      </g>
     </g>
    </g>
    <g id="xtick_5">
     <g id="line2d_5">
      <g>
       <use xlink:href="#m8f1de1206a" x="574.676149" y="128.528148" style="stroke: #000000; stroke-width: 0.8"/>
      </g>
     </g>
     <g id="text_5">
      <!-- 1 -->
      <g transform="translate(571.494899 143.126585) scale(0.1 -0.1)">
       <use xlink:href="#DejaVuSans-31"/>
      </g>
     </g>
    </g>
    <g id="xtick_6">
     <g id="line2d_6">
      <g>
       <use xlink:href="#m8f1de1206a" x="711.566801" y="128.528148" style="stroke: #000000; stroke-width: 0.8"/>
      </g>
     </g>
     <g id="text_6">
      <!-- 2 -->
      <g transform="translate(708.385551 143.126585) scale(0.1 -0.1)">
       <use xlink:href="#DejaVuSans-32"/>
      </g>
     </g>
    </g>
    <g id="xtick_7">
     <g id="line2d_7">
      <g>
       <use xlink:href="#m8f1de1206a" x="848.457454" y="128.528148" style="stroke: #000000; stroke-width: 0.8"/>
      </g>
     </g>
     <g id="text_7">
      <!-- 3 -->
      <g transform="translate(845.276204 143.126585) scale(0.1 -0.1)">
       <use xlink:href="#DejaVuSans-33"/>
      </g>
     </g>
    </g>
   </g>
   <g id="matplotlib.axis_2"/>
   <g id="line2d_8">
    <path d="M 49.89187 128.528148 
L 49.89187 20.214138 
" clip-path="url(#p7d672977dc)" style="fill: none; stroke: #000000; stroke-width: 1.5; stroke-linecap: square"/>
   </g>
   <g id="line2d_9">
    <path d="M 84.968805 128.528148 
L 84.968805 20.214138 
" clip-path="url(#p7d672977dc)" style="fill: none; stroke: #000000; stroke-width: 1.5; stroke-linecap: square"/>
   </g>
   <g id="line2d_10">
    <path d="M 120.045741 128.528148 
L 120.045741 20.214138 
" clip-path="url(#p7d672977dc)" style="fill: none; stroke: #000000; stroke-width: 1.5; stroke-linecap: square"/>
   </g>
   <g id="line2d_11">
    <path d="M 155.122677 128.528148 
L 155.122677 20.214138 
" clip-path="url(#p7d672977dc)" style="fill: none; stroke: #000000; stroke-width: 1.5; stroke-linecap: square"/>
   </g>
   <g id="line2d_12">
    <path d="M 190.199612 128.528148 
L 190.199612 20.214138 
" clip-path="url(#p7d672977dc)" style="fill: none; stroke: #000000; stroke-width: 1.5; stroke-linecap: square"/>
   </g>
   <g id="line2d_13">
    <path d="M 225.276548 128.528148 
L 225.276548 20.214138 
" clip-path="url(#p7d672977dc)" style="fill: none; stroke: #000000; stroke-width: 1.5; stroke-linecap: square"/>
   </g>
   <g id="line2d_14">
    <path d="M 260.353483 128.528148 
L 260.353483 20.214138 
" clip-path="url(#p7d672977dc)" style="fill: none; stroke: #000000; stroke-width: 1.5; stroke-linecap: square"/>
   </g>
   <g id="line2d_15">
    <path d="M 295.430419 128.528148 
L 295.430419 20.214138 
" clip-path="url(#p7d672977dc)" style="fill: none; stroke: #000000; stroke-width: 1.5; stroke-linecap: square"/>
   </g>
   <g id="line2d_16">
    <path d="M 330.507355 128.528148 
L 330.507355 20.214138 
" clip-path="url(#p7d672977dc)" style="fill: none; stroke: #000000; stroke-width: 1.5; stroke-linecap: square"/>
   </g>
   <g id="line2d_17">
    <path d="M 365.58429 128.528148 
L 365.58429 20.214138 
" clip-path="url(#p7d672977dc)" style="fill: none; stroke: #000000; stroke-width: 1.5; stroke-linecap: square"/>
   </g>
   <g id="line2d_18">
    <path d="M 400.661226 128.528148 
L 400.661226 20.214138 
" clip-path="url(#p7d672977dc)" style="fill: none; stroke: #000000; stroke-width: 1.5; stroke-linecap: square"/>
   </g>
   <g id="line2d_19">
    <path d="M 435.738162 128.528148 
L 435.738162 20.214138 
" clip-path="url(#p7d672977dc)" style="fill: none; stroke: #000000; stroke-width: 1.5; stroke-linecap: square"/>
   </g>
   <g id="line2d_20">
    <path d="M 470.815097 128.528148 
L 470.815097 20.214138 
" clip-path="url(#p7d672977dc)" style="fill: none; stroke: #000000; stroke-width: 1.5; stroke-linecap: square"/>
   </g>
   <g id="line2d_21">
    <path d="M 505.892033 128.528148 
L 505.892033 20.214138 
" clip-path="url(#p7d672977dc)" style="fill: none; stroke: #000000; stroke-width: 1.5; stroke-linecap: square"/>
   </g>
   <g id="line2d_22">
    <path d="M 540.968969 128.528148 
L 540.968969 20.214138 
" clip-path="url(#p7d672977dc)" style="fill: none; stroke: #000000; stroke-width: 1.5; stroke-linecap: square"/>
   </g>
   <g id="line2d_23">
    <path d="M 576.045904 128.528148 
L 576.045904 20.214138 
" clip-path="url(#p7d672977dc)" style="fill: none; stroke: #000000; stroke-width: 1.5; stroke-linecap: square"/>
   </g>
   <g id="line2d_24">
    <path d="M 611.12284 128.528148 
L 611.12284 20.214138 
" clip-path="url(#p7d672977dc)" style="fill: none; stroke: #000000; stroke-width: 1.5; stroke-linecap: square"/>
   </g>
   <g id="line2d_25">
    <path d="M 646.199775 128.528148 
L 646.199775 20.214138 
" clip-path="url(#p7d672977dc)" style="fill: none; stroke: #000000; stroke-width: 1.5; stroke-linecap: square"/>
   </g>
   <g id="line2d_26">
    <path d="M 681.276711 128.528148 
L 681.276711 20.214138 
" clip-path="url(#p7d672977dc)" style="fill: none; stroke: #000000; stroke-width: 1.5; stroke-linecap: square"/>
   </g>
   <g id="line2d_27">
    <path d="M 716.353647 128.528148 
L 716.353647 20.214138 
" clip-path="url(#p7d672977dc)" style="fill: none; stroke: #000000; stroke-width: 1.5; stroke-linecap: square"/>
   </g>
   <g id="line2d_28">
    <path d="M 751.430582 128.528148 
L 751.430582 20.214138 
" clip-path="url(#p7d672977dc)" style="fill: none; stroke: #000000; stroke-width: 1.5; stroke-linecap: square"/>
   </g>
   <g id="line2d_29">
    <path d="M 786.507518 128.528148 
L 786.507518 20.214138 
" clip-path="url(#p7d672977dc)" style="fill: none; stroke: #000000; stroke-width: 1.5; stroke-linecap: square"/>
   </g>
   <g id="line2d_30">
    <path d="M 821.584454 128.528148 
L 821.584454 20.214138 
" clip-path="url(#p7d672977dc)" style="fill: none; stroke: #000000; stroke-width: 1.5; stroke-linecap: square"/>
   </g>
   <g id="line2d_31">
    <path d="M 27.126365 128.528148 
L 27.126365 20.214138 
" clip-path="url(#p7d672977dc)" style="fill: none; stroke: #ff0000; stroke-width: 1.5; stroke-linecap: square"/>
   </g>
   <g id="line2d_32">
    <path d="M 845.252669 128.528148 
L 845.252669 20.214138 
" clip-path="url(#p7d672977dc)" style="fill: none; stroke: #ff0000; stroke-width: 1.5; stroke-linecap: square"/>
   </g>
   <g id="patch_3">
    <path d="M 10.7 128.528148 
L 10.7 20.214138 
" style="fill: none; stroke: #000000; stroke-width: 0.8; stroke-linejoin: miter; stroke-linecap: square"/>
   </g>
   <g id="patch_4">
    <path d="M 865.19952 128.528148 
L 865.19952 20.214138 
" style="fill: none; stroke: #000000; stroke-width: 0.8; stroke-linejoin: miter; stroke-linecap: square"/>
   </g>
   <g id="patch_5">
    <path d="M 10.7 128.528148 
L 865.19952 128.528148 
" style="fill: none; stroke: #000000; stroke-width: 0.8; stroke-linejoin: miter; stroke-linecap: square"/>
   </g>
   <g id="patch_6">
    <path d="M 10.7 20.214138 
L 865.19952 20.214138 
" style="fill: none; stroke: #000000; stroke-width: 0.8; stroke-linejoin: miter; stroke-linecap: square"/>
   </g>
   <g id="text_8">
    <g id="patch_7">
     <path d="M 26.126365 104.10708 
L 26.126365 44.635205 
Q 26.126365 44.635205 26.126365 44.635205 
L 16.44824 44.635205 
Q 16.44824 44.635205 16.44824 44.635205 
L 16.44824 104.10708 
Q 16.44824 104.10708 16.44824 104.10708 
L 26.126365 104.10708 
Q 26.126365 104.10708 26.126365 104.10708 
z
" style="fill: #ffffff"/>
    </g>
    <!-- min=-3.000 -->
    <g transform="translate(24.046678 104.10708) rotate(-90) scale(0.1 -0.1)">
     <defs>
      <path id="DejaVuSans-6d" d="M 3328 2828 
Q 3544 3216 3844 3400 
Q 4144 3584 4550 3584 
Q 5097 3584 5394 3201 
Q 5691 2819 5691 2113 
L 5691 0 
L 5113 0 
L 5113 2094 
Q 5113 2597 4934 2840 
Q 4756 3084 4391 3084 
Q 3944 3084 3684 2787 
Q 3425 2491 3425 1978 
L 3425 0 
L 2847 0 
L 2847 2094 
Q 2847 2600 2669 2842 
Q 2491 3084 2119 3084 
Q 1678 3084 1418 2786 
Q 1159 2488 1159 1978 
L 1159 0 
L 581 0 
L 581 3500 
L 1159 3500 
L 1159 2956 
Q 1356 3278 1631 3431 
Q 1906 3584 2284 3584 
Q 2666 3584 2933 3390 
Q 3200 3197 3328 2828 
z
" transform="scale(0.015625)"/>
      <path id="DejaVuSans-69" d="M 603 3500 
L 1178 3500 
L 1178 0 
L 603 0 
L 603 3500 
z
M 603 4863 
L 1178 4863 
L 1178 4134 
L 603 4134 
L 603 4863 
z
" transform="scale(0.015625)"/>
      <path id="DejaVuSans-6e" d="M 3513 2113 
L 3513 0 
L 2938 0 
L 2938 2094 
Q 2938 2591 2744 2837 
Q 2550 3084 2163 3084 
Q 1697 3084 1428 2787 
Q 1159 2491 1159 1978 
L 1159 0 
L 581 0 
L 581 3500 
L 1159 3500 
L 1159 2956 
Q 1366 3272 1645 3428 
Q 1925 3584 2291 3584 
Q 2894 3584 3203 3211 
Q 3513 2838 3513 2113 
z
" transform="scale(0.015625)"/>
      <path id="DejaVuSans-3d" d="M 678 2906 
L 4684 2906 
L 4684 2381 
L 678 2381 
L 678 2906 
z
M 678 1631 
L 4684 1631 
L 4684 1100 
L 678 1100 
L 678 1631 
z
" transform="scale(0.015625)"/>
      <path id="DejaVuSans-2d" d="M 313 2009 
L 1997 2009 
L 1997 1497 
L 313 1497 
L 313 2009 
z
" transform="scale(0.015625)"/>
      <path id="DejaVuSans-2e" d="M 684 794 
L 1344 794 
L 1344 0 
L 684 0 
L 684 794 
z
" transform="scale(0.015625)"/>
     </defs>
     <use xlink:href="#DejaVuSans-6d"/>
     <use xlink:href="#DejaVuSans-69" x="97.412109"/>
     <use xlink:href="#DejaVuSans-6e" x="125.195312"/>
     <use xlink:href="#DejaVuSans-3d" x="188.574219"/>
     <use xlink:href="#DejaVuSans-2d" x="272.363281"/>
     <use xlink:href="#DejaVuSans-33" x="308.447266"/>
     <use xlink:href="#DejaVuSans-2e" x="372.070312"/>
     <use xlink:href="#DejaVuSans-30" x="403.857422"/>
     <use xlink:href="#DejaVuSans-30" x="467.480469"/>
     <use xlink:href="#DejaVuSans-30" x="531.103516"/>
    </g>
   </g>
   <g id="text_9">
    <g id="patch_8">
     <path d="M 856.930794 103.768799 
L 856.930794 44.973487 
Q 856.930794 44.973487 856.930794 44.973487 
L 847.252669 44.973487 
Q 847.252669 44.973487 847.252669 44.973487 
L 847.252669 103.768799 
Q 847.252669 103.768799 847.252669 103.768799 
L 856.930794 103.768799 
Q 856.930794 103.768799 856.930794 103.768799 
z
" style="fill: #ffffff"/>
    </g>
    <!-- max=2.977 -->
    <g transform="translate(854.851107 103.768799) rotate(-90) scale(0.1 -0.1)">
     <defs>
      <path id="DejaVuSans-61" d="M 2194 1759 
Q 1497 1759 1228 1600 
Q 959 1441 959 1056 
Q 959 750 1161 570 
Q 1363 391 1709 391 
Q 2188 391 2477 730 
Q 2766 1069 2766 1631 
L 2766 1759 
L 2194 1759 
z
M 3341 1997 
L 3341 0 
L 2766 0 
L 2766 531 
Q 2569 213 2275 61 
Q 1981 -91 1556 -91 
Q 1019 -91 701 211 
Q 384 513 384 1019 
Q 384 1609 779 1909 
Q 1175 2209 1959 2209 
L 2766 2209 
L 2766 2266 
Q 2766 2663 2505 2880 
Q 2244 3097 1772 3097 
Q 1472 3097 1187 3025 
Q 903 2953 641 2809 
L 641 3341 
Q 956 3463 1253 3523 
Q 1550 3584 1831 3584 
Q 2591 3584 2966 3190 
Q 3341 2797 3341 1997 
z
" transform="scale(0.015625)"/>
      <path id="DejaVuSans-78" d="M 3513 3500 
L 2247 1797 
L 3578 0 
L 2900 0 
L 1881 1375 
L 863 0 
L 184 0 
L 1544 1831 
L 300 3500 
L 978 3500 
L 1906 2253 
L 2834 3500 
L 3513 3500 
z
" transform="scale(0.015625)"/>
      <path id="DejaVuSans-39" d="M 703 97 
L 703 672 
Q 941 559 1184 500 
Q 1428 441 1663 441 
Q 2288 441 2617 861 
Q 2947 1281 2994 2138 
Q 2813 1869 2534 1725 
Q 2256 1581 1919 1581 
Q 1219 1581 811 2004 
Q 403 2428 403 3163 
Q 403 3881 828 4315 
Q 1253 4750 1959 4750 
Q 2769 4750 3195 4129 
Q 3622 3509 3622 2328 
Q 3622 1225 3098 567 
Q 2575 -91 1691 -91 
Q 1453 -91 1209 -44 
Q 966 3 703 97 
z
M 1959 2075 
Q 2384 2075 2632 2365 
Q 2881 2656 2881 3163 
Q 2881 3666 2632 3958 
Q 2384 4250 1959 4250 
Q 1534 4250 1286 3958 
Q 1038 3666 1038 3163 
Q 1038 2656 1286 2365 
Q 1534 2075 1959 2075 
z
" transform="scale(0.015625)"/>
      <path id="DejaVuSans-37" d="M 525 4666 
L 3525 4666 
L 3525 4397 
L 1831 0 
L 1172 0 
L 2766 4134 
L 525 4134 
L 525 4666 
z
" transform="scale(0.015625)"/>
     </defs>
     <use xlink:href="#DejaVuSans-6d"/>
     <use xlink:href="#DejaVuSans-61" x="97.412109"/>
     <use xlink:href="#DejaVuSans-78" x="158.691406"/>
     <use xlink:href="#DejaVuSans-3d" x="217.871094"/>
     <use xlink:href="#DejaVuSans-32" x="301.660156"/>
     <use xlink:href="#DejaVuSans-2e" x="365.283203"/>
     <use xlink:href="#DejaVuSans-39" x="397.070312"/>
     <use xlink:href="#DejaVuSans-37" x="460.693359"/>
     <use xlink:href="#DejaVuSans-37" x="524.316406"/>
    </g>
   </g>
   <g id="text_10">
    <!-- 10000 samples (μ=-0.015, σ=0.256) of tensor[128, 64, 3, 3] n=73728 x∈[-3.000, 2.977] μ=-0.017 σ=0.250 -->
    <g transform="translate(10.7 14.798437) scale(0.1 -0.1)">
     <defs>
      <path id="DejaVuSans-20" transform="scale(0.015625)"/>
      <path id="DejaVuSans-73" d="M 2834 3397 
L 2834 2853 
Q 2591 2978 2328 3040 
Q 2066 3103 1784 3103 
Q 1356 3103 1142 2972 
Q 928 2841 928 2578 
Q 928 2378 1081 2264 
Q 1234 2150 1697 2047 
L 1894 2003 
Q 2506 1872 2764 1633 
Q 3022 1394 3022 966 
Q 3022 478 2636 193 
Q 2250 -91 1575 -91 
Q 1294 -91 989 -36 
Q 684 19 347 128 
L 347 722 
Q 666 556 975 473 
Q 1284 391 1588 391 
Q 1994 391 2212 530 
Q 2431 669 2431 922 
Q 2431 1156 2273 1281 
Q 2116 1406 1581 1522 
L 1381 1569 
Q 847 1681 609 1914 
Q 372 2147 372 2553 
Q 372 3047 722 3315 
Q 1072 3584 1716 3584 
Q 2034 3584 2315 3537 
Q 2597 3491 2834 3397 
z
" transform="scale(0.015625)"/>
      <path id="DejaVuSans-70" d="M 1159 525 
L 1159 -1331 
L 581 -1331 
L 581 3500 
L 1159 3500 
L 1159 2969 
Q 1341 3281 1617 3432 
Q 1894 3584 2278 3584 
Q 2916 3584 3314 3078 
Q 3713 2572 3713 1747 
Q 3713 922 3314 415 
Q 2916 -91 2278 -91 
Q 1894 -91 1617 61 
Q 1341 213 1159 525 
z
M 3116 1747 
Q 3116 2381 2855 2742 
Q 2594 3103 2138 3103 
Q 1681 3103 1420 2742 
Q 1159 2381 1159 1747 
Q 1159 1113 1420 752 
Q 1681 391 2138 391 
Q 2594 391 2855 752 
Q 3116 1113 3116 1747 
z
" transform="scale(0.015625)"/>
      <path id="DejaVuSans-6c" d="M 603 4863 
L 1178 4863 
L 1178 0 
L 603 0 
L 603 4863 
z
" transform="scale(0.015625)"/>
      <path id="DejaVuSans-65" d="M 3597 1894 
L 3597 1613 
L 953 1613 
Q 991 1019 1311 708 
Q 1631 397 2203 397 
Q 2534 397 2845 478 
Q 3156 559 3463 722 
L 3463 178 
Q 3153 47 2828 -22 
Q 2503 -91 2169 -91 
Q 1331 -91 842 396 
Q 353 884 353 1716 
Q 353 2575 817 3079 
Q 1281 3584 2069 3584 
Q 2775 3584 3186 3129 
Q 3597 2675 3597 1894 
z
M 3022 2063 
Q 3016 2534 2758 2815 
Q 2500 3097 2075 3097 
Q 1594 3097 1305 2825 
Q 1016 2553 972 2059 
L 3022 2063 
z
" transform="scale(0.015625)"/>
      <path id="DejaVuSans-28" d="M 1984 4856 
Q 1566 4138 1362 3434 
Q 1159 2731 1159 2009 
Q 1159 1288 1364 580 
Q 1569 -128 1984 -844 
L 1484 -844 
Q 1016 -109 783 600 
Q 550 1309 550 2009 
Q 550 2706 781 3412 
Q 1013 4119 1484 4856 
L 1984 4856 
z
" transform="scale(0.015625)"/>
      <path id="DejaVuSans-3bc" d="M 544 -1331 
L 544 3500 
L 1119 3500 
L 1119 1325 
Q 1119 872 1334 640 
Q 1550 409 1972 409 
Q 2434 409 2667 671 
Q 2900 934 2900 1459 
L 2900 3500 
L 3475 3500 
L 3475 806 
Q 3475 619 3529 530 
Q 3584 441 3700 441 
Q 3728 441 3778 458 
Q 3828 475 3916 513 
L 3916 50 
Q 3788 -22 3673 -56 
Q 3559 -91 3450 -91 
Q 3234 -91 3106 31 
Q 2978 153 2931 403 
Q 2775 156 2548 32 
Q 2322 -91 2016 -91 
Q 1697 -91 1473 31 
Q 1250 153 1119 397 
L 1119 -1331 
L 544 -1331 
z
" transform="scale(0.015625)"/>
      <path id="DejaVuSans-35" d="M 691 4666 
L 3169 4666 
L 3169 4134 
L 1269 4134 
L 1269 2991 
Q 1406 3038 1543 3061 
Q 1681 3084 1819 3084 
Q 2600 3084 3056 2656 
Q 3513 2228 3513 1497 
Q 3513 744 3044 326 
Q 2575 -91 1722 -91 
Q 1428 -91 1123 -41 
Q 819 9 494 109 
L 494 744 
Q 775 591 1075 516 
Q 1375 441 1709 441 
Q 2250 441 2565 725 
Q 2881 1009 2881 1497 
Q 2881 1984 2565 2268 
Q 2250 2553 1709 2553 
Q 1456 2553 1204 2497 
Q 953 2441 691 2322 
L 691 4666 
z
" transform="scale(0.015625)"/>
      <path id="DejaVuSans-2c" d="M 750 794 
L 1409 794 
L 1409 256 
L 897 -744 
L 494 -744 
L 750 256 
L 750 794 
z
" transform="scale(0.015625)"/>
      <path id="DejaVuSans-3c3" d="M 1959 3044 
Q 1484 3044 1228 2700 
Q 959 2341 959 1747 
Q 959 1119 1226 758 
Q 1494 397 1959 397 
Q 2419 397 2687 759 
Q 2956 1122 2956 1747 
Q 2956 2319 2688 2700 
Q 2441 3044 1959 3044 
z
M 1959 3500 
L 3869 3500 
L 3869 2925 
L 3225 2925 
Q 3566 2438 3566 1747 
Q 3566 888 3138 400 
Q 2709 -91 1959 -91 
Q 1206 -91 781 400 
Q 353 888 353 1747 
Q 353 2613 781 3097 
Q 1134 3500 1959 3500 
z
" transform="scale(0.015625)"/>
      <path id="DejaVuSans-36" d="M 2113 2584 
Q 1688 2584 1439 2293 
Q 1191 2003 1191 1497 
Q 1191 994 1439 701 
Q 1688 409 2113 409 
Q 2538 409 2786 701 
Q 3034 994 3034 1497 
Q 3034 2003 2786 2293 
Q 2538 2584 2113 2584 
z
M 3366 4563 
L 3366 3988 
Q 3128 4100 2886 4159 
Q 2644 4219 2406 4219 
Q 1781 4219 1451 3797 
Q 1122 3375 1075 2522 
Q 1259 2794 1537 2939 
Q 1816 3084 2150 3084 
Q 2853 3084 3261 2657 
Q 3669 2231 3669 1497 
Q 3669 778 3244 343 
Q 2819 -91 2113 -91 
Q 1303 -91 875 529 
Q 447 1150 447 2328 
Q 447 3434 972 4092 
Q 1497 4750 2381 4750 
Q 2619 4750 2861 4703 
Q 3103 4656 3366 4563 
z
" transform="scale(0.015625)"/>
      <path id="DejaVuSans-29" d="M 513 4856 
L 1013 4856 
Q 1481 4119 1714 3412 
Q 1947 2706 1947 2009 
Q 1947 1309 1714 600 
Q 1481 -109 1013 -844 
L 513 -844 
Q 928 -128 1133 580 
Q 1338 1288 1338 2009 
Q 1338 2731 1133 3434 
Q 928 4138 513 4856 
z
" transform="scale(0.015625)"/>
      <path id="DejaVuSans-6f" d="M 1959 3097 
Q 1497 3097 1228 2736 
Q 959 2375 959 1747 
Q 959 1119 1226 758 
Q 1494 397 1959 397 
Q 2419 397 2687 759 
Q 2956 1122 2956 1747 
Q 2956 2369 2687 2733 
Q 2419 3097 1959 3097 
z
M 1959 3584 
Q 2709 3584 3137 3096 
Q 3566 2609 3566 1747 
Q 3566 888 3137 398 
Q 2709 -91 1959 -91 
Q 1206 -91 779 398 
Q 353 888 353 1747 
Q 353 2609 779 3096 
Q 1206 3584 1959 3584 
z
" transform="scale(0.015625)"/>
      <path id="DejaVuSans-66" d="M 2375 4863 
L 2375 4384 
L 1825 4384 
Q 1516 4384 1395 4259 
Q 1275 4134 1275 3809 
L 1275 3500 
L 2222 3500 
L 2222 3053 
L 1275 3053 
L 1275 0 
L 697 0 
L 697 3053 
L 147 3053 
L 147 3500 
L 697 3500 
L 697 3744 
Q 697 4328 969 4595 
Q 1241 4863 1831 4863 
L 2375 4863 
z
" transform="scale(0.015625)"/>
      <path id="DejaVuSans-74" d="M 1172 4494 
L 1172 3500 
L 2356 3500 
L 2356 3053 
L 1172 3053 
L 1172 1153 
Q 1172 725 1289 603 
Q 1406 481 1766 481 
L 2356 481 
L 2356 0 
L 1766 0 
Q 1100 0 847 248 
Q 594 497 594 1153 
L 594 3053 
L 172 3053 
L 172 3500 
L 594 3500 
L 594 4494 
L 1172 4494 
z
" transform="scale(0.015625)"/>
      <path id="DejaVuSans-72" d="M 2631 2963 
Q 2534 3019 2420 3045 
Q 2306 3072 2169 3072 
Q 1681 3072 1420 2755 
Q 1159 2438 1159 1844 
L 1159 0 
L 581 0 
L 581 3500 
L 1159 3500 
L 1159 2956 
Q 1341 3275 1631 3429 
Q 1922 3584 2338 3584 
Q 2397 3584 2469 3576 
Q 2541 3569 2628 3553 
L 2631 2963 
z
" transform="scale(0.015625)"/>
      <path id="DejaVuSans-5b" d="M 550 4863 
L 1875 4863 
L 1875 4416 
L 1125 4416 
L 1125 -397 
L 1875 -397 
L 1875 -844 
L 550 -844 
L 550 4863 
z
" transform="scale(0.015625)"/>
      <path id="DejaVuSans-38" d="M 2034 2216 
Q 1584 2216 1326 1975 
Q 1069 1734 1069 1313 
Q 1069 891 1326 650 
Q 1584 409 2034 409 
Q 2484 409 2743 651 
Q 3003 894 3003 1313 
Q 3003 1734 2745 1975 
Q 2488 2216 2034 2216 
z
M 1403 2484 
Q 997 2584 770 2862 
Q 544 3141 544 3541 
Q 544 4100 942 4425 
Q 1341 4750 2034 4750 
Q 2731 4750 3128 4425 
Q 3525 4100 3525 3541 
Q 3525 3141 3298 2862 
Q 3072 2584 2669 2484 
Q 3125 2378 3379 2068 
Q 3634 1759 3634 1313 
Q 3634 634 3220 271 
Q 2806 -91 2034 -91 
Q 1263 -91 848 271 
Q 434 634 434 1313 
Q 434 1759 690 2068 
Q 947 2378 1403 2484 
z
M 1172 3481 
Q 1172 3119 1398 2916 
Q 1625 2713 2034 2713 
Q 2441 2713 2670 2916 
Q 2900 3119 2900 3481 
Q 2900 3844 2670 4047 
Q 2441 4250 2034 4250 
Q 1625 4250 1398 4047 
Q 1172 3844 1172 3481 
z
" transform="scale(0.015625)"/>
      <path id="DejaVuSans-34" d="M 2419 4116 
L 825 1625 
L 2419 1625 
L 2419 4116 
z
M 2253 4666 
L 3047 4666 
L 3047 1625 
L 3713 1625 
L 3713 1100 
L 3047 1100 
L 3047 0 
L 2419 0 
L 2419 1100 
L 313 1100 
L 313 1709 
L 2253 4666 
z
" transform="scale(0.015625)"/>
      <path id="DejaVuSans-5d" d="M 1947 4863 
L 1947 -844 
L 622 -844 
L 622 -397 
L 1369 -397 
L 1369 4416 
L 622 4416 
L 622 4863 
L 1947 4863 
z
" transform="scale(0.015625)"/>
      <path id="DejaVuSans-2208" d="M 1072 1959 
Q 1094 1728 1291 1353 
Q 1522 919 1959 675 
Q 2388 438 2850 434 
L 5028 434 
L 5028 -63 
L 2850 -63 
Q 2250 -63 1695 246 
Q 1141 556 844 1106 
Q 547 1656 547 2241 
Q 547 2819 844 3369 
Q 1141 3919 1695 4231 
Q 2250 4544 2850 4544 
L 5028 4544 
L 5028 4047 
L 2850 4047 
Q 2388 4044 1959 3803 
Q 1525 3556 1291 3125 
Q 1091 2750 1063 2459 
L 5028 2459 
L 5028 1959 
L 1072 1959 
z
" transform="scale(0.015625)"/>
     </defs>
     <use xlink:href="#DejaVuSans-31"/>
     <use xlink:href="#DejaVuSans-30" x="63.623047"/>
     <use xlink:href="#DejaVuSans-30" x="127.246094"/>
     <use xlink:href="#DejaVuSans-30" x="190.869141"/>
     <use xlink:href="#DejaVuSans-30" x="254.492188"/>
     <use xlink:href="#DejaVuSans-20" x="318.115234"/>
     <use xlink:href="#DejaVuSans-73" x="349.902344"/>
     <use xlink:href="#DejaVuSans-61" x="402.001953"/>
     <use xlink:href="#DejaVuSans-6d" x="463.28125"/>
     <use xlink:href="#DejaVuSans-70" x="560.693359"/>
     <use xlink:href="#DejaVuSans-6c" x="624.169922"/>
     <use xlink:href="#DejaVuSans-65" x="651.953125"/>
     <use xlink:href="#DejaVuSans-73" x="713.476562"/>
     <use xlink:href="#DejaVuSans-20" x="765.576172"/>
     <use xlink:href="#DejaVuSans-28" x="797.363281"/>
     <use xlink:href="#DejaVuSans-3bc" x="836.376953"/>
     <use xlink:href="#DejaVuSans-3d" x="900"/>
     <use xlink:href="#DejaVuSans-2d" x="983.789062"/>
     <use xlink:href="#DejaVuSans-30" x="1019.873047"/>
     <use xlink:href="#DejaVuSans-2e" x="1083.496094"/>
     <use xlink:href="#DejaVuSans-30" x="1115.283203"/>
     <use xlink:href="#DejaVuSans-31" x="1178.90625"/>
     <use xlink:href="#DejaVuSans-35" x="1242.529297"/>
     <use xlink:href="#DejaVuSans-2c" x="1306.152344"/>
     <use xlink:href="#DejaVuSans-20" x="1337.939453"/>
     <use xlink:href="#DejaVuSans-3c3" x="1369.726562"/>
     <use xlink:href="#DejaVuSans-3d" x="1433.105469"/>
     <use xlink:href="#DejaVuSans-30" x="1516.894531"/>
     <use xlink:href="#DejaVuSans-2e" x="1580.517578"/>
     <use xlink:href="#DejaVuSans-32" x="1612.304688"/>
     <use xlink:href="#DejaVuSans-35" x="1675.927734"/>
     <use xlink:href="#DejaVuSans-36" x="1739.550781"/>
     <use xlink:href="#DejaVuSans-29" x="1803.173828"/>
     <use xlink:href="#DejaVuSans-20" x="1842.1875"/>
     <use xlink:href="#DejaVuSans-6f" x="1873.974609"/>
     <use xlink:href="#DejaVuSans-66" x="1935.15625"/>
     <use xlink:href="#DejaVuSans-20" x="1970.361328"/>
     <use xlink:href="#DejaVuSans-74" x="2002.148438"/>
     <use xlink:href="#DejaVuSans-65" x="2041.357422"/>
     <use xlink:href="#DejaVuSans-6e" x="2102.880859"/>
     <use xlink:href="#DejaVuSans-73" x="2166.259766"/>
     <use xlink:href="#DejaVuSans-6f" x="2218.359375"/>
     <use xlink:href="#DejaVuSans-72" x="2279.541016"/>
     <use xlink:href="#DejaVuSans-5b" x="2320.654297"/>
     <use xlink:href="#DejaVuSans-31" x="2359.667969"/>
     <use xlink:href="#DejaVuSans-32" x="2423.291016"/>
     <use xlink:href="#DejaVuSans-38" x="2486.914062"/>
     <use xlink:href="#DejaVuSans-2c" x="2550.537109"/>
     <use xlink:href="#DejaVuSans-20" x="2582.324219"/>
     <use xlink:href="#DejaVuSans-36" x="2614.111328"/>
     <use xlink:href="#DejaVuSans-34" x="2677.734375"/>
     <use xlink:href="#DejaVuSans-2c" x="2741.357422"/>
     <use xlink:href="#DejaVuSans-20" x="2773.144531"/>
     <use xlink:href="#DejaVuSans-33" x="2804.931641"/>
     <use xlink:href="#DejaVuSans-2c" x="2868.554688"/>
     <use xlink:href="#DejaVuSans-20" x="2900.341797"/>
     <use xlink:href="#DejaVuSans-33" x="2932.128906"/>
     <use xlink:href="#DejaVuSans-5d" x="2995.751953"/>
     <use xlink:href="#DejaVuSans-20" x="3034.765625"/>
     <use xlink:href="#DejaVuSans-6e" x="3066.552734"/>
     <use xlink:href="#DejaVuSans-3d" x="3129.931641"/>
     <use xlink:href="#DejaVuSans-37" x="3213.720703"/>
     <use xlink:href="#DejaVuSans-33" x="3277.34375"/>
     <use xlink:href="#DejaVuSans-37" x="3340.966797"/>
     <use xlink:href="#DejaVuSans-32" x="3404.589844"/>
     <use xlink:href="#DejaVuSans-38" x="3468.212891"/>
     <use xlink:href="#DejaVuSans-20" x="3531.835938"/>
     <use xlink:href="#DejaVuSans-78" x="3563.623047"/>
     <use xlink:href="#DejaVuSans-2208" x="3622.802734"/>
     <use xlink:href="#DejaVuSans-5b" x="3709.912109"/>
     <use xlink:href="#DejaVuSans-2d" x="3748.925781"/>
     <use xlink:href="#DejaVuSans-33" x="3785.009766"/>
     <use xlink:href="#DejaVuSans-2e" x="3848.632812"/>
     <use xlink:href="#DejaVuSans-30" x="3880.419922"/>
     <use xlink:href="#DejaVuSans-30" x="3944.042969"/>
     <use xlink:href="#DejaVuSans-30" x="4007.666016"/>
     <use xlink:href="#DejaVuSans-2c" x="4071.289062"/>
     <use xlink:href="#DejaVuSans-20" x="4103.076172"/>
     <use xlink:href="#DejaVuSans-32" x="4134.863281"/>
     <use xlink:href="#DejaVuSans-2e" x="4198.486328"/>
     <use xlink:href="#DejaVuSans-39" x="4230.273438"/>
     <use xlink:href="#DejaVuSans-37" x="4293.896484"/>
     <use xlink:href="#DejaVuSans-37" x="4357.519531"/>
     <use xlink:href="#DejaVuSans-5d" x="4421.142578"/>
     <use xlink:href="#DejaVuSans-20" x="4460.15625"/>
     <use xlink:href="#DejaVuSans-3bc" x="4491.943359"/>
     <use xlink:href="#DejaVuSans-3d" x="4555.566406"/>
     <use xlink:href="#DejaVuSans-2d" x="4639.355469"/>
     <use xlink:href="#DejaVuSans-30" x="4675.439453"/>
     <use xlink:href="#DejaVuSans-2e" x="4739.0625"/>
     <use xlink:href="#DejaVuSans-30" x="4770.849609"/>
     <use xlink:href="#DejaVuSans-31" x="4834.472656"/>
     <use xlink:href="#DejaVuSans-37" x="4898.095703"/>
     <use xlink:href="#DejaVuSans-20" x="4961.71875"/>
     <use xlink:href="#DejaVuSans-3c3" x="4993.505859"/>
     <use xlink:href="#DejaVuSans-3d" x="5056.884766"/>
     <use xlink:href="#DejaVuSans-30" x="5140.673828"/>
     <use xlink:href="#DejaVuSans-2e" x="5204.296875"/>
     <use xlink:href="#DejaVuSans-32" x="5236.083984"/>
     <use xlink:href="#DejaVuSans-35" x="5299.707031"/>
     <use xlink:href="#DejaVuSans-30" x="5363.330078"/>
    </g>
   </g>
   <g id="patch_9">
    <path d="M 182.909871 128.528148 
L 191.404799 128.528148 
L 191.404799 128.478708 
L 182.909871 128.478708 
z
" clip-path="url(#p7d672977dc)" style="fill: #00bfff"/>
   </g>
   <g id="patch_10">
    <path d="M 191.404799 128.528148 
L 199.899711 128.528148 
L 199.899711 128.528148 
L 191.404799 128.528148 
z
" clip-path="url(#p7d672977dc)" style="fill: #00bfff"/>
   </g>
   <g id="patch_11">
    <path d="M 199.899711 128.528148 
L 208.394638 128.528148 
L 208.394638 128.528148 
L 199.899711 128.528148 
z
" clip-path="url(#p7d672977dc)" style="fill: #00bfff"/>
   </g>
   <g id="patch_12">
    <path d="M 208.394638 128.528148 
L 216.889566 128.528148 
L 216.889566 128.478708 
L 208.394638 128.478708 
z
" clip-path="url(#p7d672977dc)" style="fill: #00bfff"/>
   </g>
   <g id="patch_13">
    <path d="M 216.889566 128.528148 
L 225.384478 128.528148 
L 225.384478 128.379828 
L 216.889566 128.379828 
z
" clip-path="url(#p7d672977dc)" style="fill: #00bfff"/>
   </g>
   <g id="patch_14">
    <path d="M 225.384478 128.528148 
L 233.879406 128.528148 
L 233.879406 128.429268 
L 225.384478 128.429268 
z
" clip-path="url(#p7d672977dc)" style="fill: #00bfff"/>
   </g>
   <g id="patch_15">
    <path d="M 233.879406 128.528148 
L 242.374333 128.528148 
L 242.374333 128.478708 
L 233.879406 128.478708 
z
" clip-path="url(#p7d672977dc)" style="fill: #00bfff"/>
   </g>
   <g id="patch_16">
    <path d="M 242.374333 128.528148 
L 250.869245 128.528148 
L 250.869245 128.429268 
L 242.374333 128.429268 
z
" clip-path="url(#p7d672977dc)" style="fill: #00bfff"/>
   </g>
   <g id="patch_17">
    <path d="M 250.869245 128.528148 
L 259.364173 128.528148 
L 259.364173 128.429268 
L 250.869245 128.429268 
z
" clip-path="url(#p7d672977dc)" style="fill: #00bfff"/>
   </g>
   <g id="patch_18">
    <path d="M 259.364173 128.528148 
L 267.8591 128.528148 
L 267.8591 128.330388 
L 259.364173 128.330388 
z
" clip-path="url(#p7d672977dc)" style="fill: #00bfff"/>
   </g>
   <g id="patch_19">
    <path d="M 267.8591 128.528148 
L 276.354028 128.528148 
L 276.354028 128.429268 
L 267.8591 128.429268 
z
" clip-path="url(#p7d672977dc)" style="fill: #00bfff"/>
   </g>
   <g id="patch_20">
    <path d="M 276.354028 128.528148 
L 284.84894 128.528148 
L 284.84894 128.379828 
L 276.354028 128.379828 
z
" clip-path="url(#p7d672977dc)" style="fill: #00bfff"/>
   </g>
   <g id="patch_21">
    <path d="M 284.84894 128.528148 
L 293.343868 128.528148 
L 293.343868 127.88543 
L 284.84894 127.88543 
z
" clip-path="url(#p7d672977dc)" style="fill: #00bfff"/>
   </g>
   <g id="patch_22">
    <path d="M 293.343868 128.528148 
L 301.838787 128.528148 
L 301.838787 128.182069 
L 293.343868 128.182069 
z
" clip-path="url(#p7d672977dc)" style="fill: #00bfff"/>
   </g>
   <g id="patch_23">
    <path d="M 301.838787 128.528148 
L 310.333715 128.528148 
L 310.333715 127.83599 
L 301.838787 127.83599 
z
" clip-path="url(#p7d672977dc)" style="fill: #00bfff"/>
   </g>
   <g id="patch_24">
    <path d="M 310.333715 128.528148 
L 318.828635 128.528148 
L 318.828635 127.68767 
L 310.333715 127.68767 
z
" clip-path="url(#p7d672977dc)" style="fill: #00bfff"/>
   </g>
   <g id="patch_25">
    <path d="M 318.828635 128.528148 
L 327.323554 128.528148 
L 327.323554 127.440471 
L 318.828635 127.440471 
z
" clip-path="url(#p7d672977dc)" style="fill: #00bfff"/>
   </g>
   <g id="patch_26">
    <path d="M 327.323554 128.528148 
L 335.818482 128.528148 
L 335.818482 127.588791 
L 327.323554 127.588791 
z
" clip-path="url(#p7d672977dc)" style="fill: #00bfff"/>
   </g>
   <g id="patch_27">
    <path d="M 335.818482 128.528148 
L 344.313402 128.528148 
L 344.313402 126.748313 
L 335.818482 126.748313 
z
" clip-path="url(#p7d672977dc)" style="fill: #00bfff"/>
   </g>
   <g id="patch_28">
    <path d="M 344.313402 128.528148 
L 352.808321 128.528148 
L 352.808321 125.957276 
L 344.313402 125.957276 
z
" clip-path="url(#p7d672977dc)" style="fill: #00bfff"/>
   </g>
   <g id="patch_29">
    <path d="M 352.808321 128.528148 
L 361.303249 128.528148 
L 361.303249 125.808959 
L 352.808321 125.808959 
z
" clip-path="url(#p7d672977dc)" style="fill: #00bfff"/>
   </g>
   <g id="patch_30">
    <path d="M 361.303249 128.528148 
L 369.798169 128.528148 
L 369.798169 125.215678 
L 361.303249 125.215678 
z
" clip-path="url(#p7d672977dc)" style="fill: #00bfff"/>
   </g>
   <g id="patch_31">
    <path d="M 369.798169 128.528148 
L 378.293093 128.528148 
L 378.293093 121.853772 
L 369.798169 121.853772 
z
" clip-path="url(#p7d672977dc)" style="fill: #00bfff"/>
   </g>
   <g id="patch_32">
    <path d="M 378.293093 128.528148 
L 386.788016 128.528148 
L 386.788016 121.211054 
L 378.293093 121.211054 
z
" clip-path="url(#p7d672977dc)" style="fill: #00bfff"/>
   </g>
   <g id="patch_33">
    <path d="M 386.788016 128.528148 
L 395.28294 128.528148 
L 395.28294 118.343544 
L 386.788016 118.343544 
z
" clip-path="url(#p7d672977dc)" style="fill: #00bfff"/>
   </g>
   <g id="patch_34">
    <path d="M 395.28294 128.528148 
L 403.777862 128.528148 
L 403.777862 111.224206 
L 395.28294 111.224206 
z
" clip-path="url(#p7d672977dc)" style="fill: #00bfff"/>
   </g>
   <g id="patch_35">
    <path d="M 403.777862 128.528148 
L 412.272784 128.528148 
L 412.272784 104.253189 
L 403.777862 104.253189 
z
" clip-path="url(#p7d672977dc)" style="fill: #00bfff"/>
   </g>
   <g id="patch_36">
    <path d="M 412.272784 128.528148 
L 420.767707 128.528148 
L 420.767707 88.234693 
L 412.272784 88.234693 
z
" clip-path="url(#p7d672977dc)" style="fill: #00bfff"/>
   </g>
   <g id="patch_37">
    <path d="M 420.767707 128.528148 
L 429.262629 128.528148 
L 429.262629 68.063235 
L 420.767707 68.063235 
z
" clip-path="url(#p7d672977dc)" style="fill: #00bfff"/>
   </g>
   <g id="patch_38">
    <path d="M 429.262629 128.528148 
L 437.757552 128.528148 
L 437.757552 49.177225 
L 429.262629 49.177225 
z
" clip-path="url(#p7d672977dc)" style="fill: #00bfff"/>
   </g>
   <g id="patch_39">
    <path d="M 437.757552 128.528148 
L 446.252475 128.528148 
L 446.252475 52.341374 
L 437.757552 52.341374 
z
" clip-path="url(#p7d672977dc)" style="fill: #00bfff"/>
   </g>
   <g id="patch_40">
    <path d="M 446.252475 128.528148 
L 454.747398 128.528148 
L 454.747398 73.798262 
L 446.252475 73.798262 
z
" clip-path="url(#p7d672977dc)" style="fill: #00bfff"/>
   </g>
   <g id="patch_41">
    <path d="M 454.747398 128.528148 
L 463.24232 128.528148 
L 463.24232 93.376426 
L 454.747398 93.376426 
z
" clip-path="url(#p7d672977dc)" style="fill: #00bfff"/>
   </g>
   <g id="patch_42">
    <path d="M 463.24232 128.528148 
L 471.737244 128.528148 
L 471.737244 106.626307 
L 463.24232 106.626307 
z
" clip-path="url(#p7d672977dc)" style="fill: #00bfff"/>
   </g>
   <g id="patch_43">
    <path d="M 471.737244 128.528148 
L 480.232165 128.528148 
L 480.232165 115.87155 
L 471.737244 115.87155 
z
" clip-path="url(#p7d672977dc)" style="fill: #00bfff"/>
   </g>
   <g id="patch_44">
    <path d="M 480.232165 128.528148 
L 488.727089 128.528148 
L 488.727089 120.222258 
L 480.232165 120.222258 
z
" clip-path="url(#p7d672977dc)" style="fill: #00bfff"/>
   </g>
   <g id="patch_45">
    <path d="M 488.727089 128.528148 
L 497.222013 128.528148 
L 497.222013 121.903212 
L 488.727089 121.903212 
z
" clip-path="url(#p7d672977dc)" style="fill: #00bfff"/>
   </g>
   <g id="patch_46">
    <path d="M 497.222013 128.528148 
L 505.716932 128.528148 
L 505.716932 123.732483 
L 497.222013 123.732483 
z
" clip-path="url(#p7d672977dc)" style="fill: #00bfff"/>
   </g>
   <g id="patch_47">
    <path d="M 505.716932 128.528148 
L 514.21186 128.528148 
L 514.21186 125.265121 
L 505.716932 125.265121 
z
" clip-path="url(#p7d672977dc)" style="fill: #00bfff"/>
   </g>
   <g id="patch_48">
    <path d="M 514.21186 128.528148 
L 522.70678 128.528148 
L 522.70678 127.143832 
L 514.21186 127.143832 
z
" clip-path="url(#p7d672977dc)" style="fill: #00bfff"/>
   </g>
   <g id="patch_49">
    <path d="M 522.70678 128.528148 
L 531.2017 128.528148 
L 531.2017 126.748313 
L 522.70678 126.748313 
z
" clip-path="url(#p7d672977dc)" style="fill: #00bfff"/>
   </g>
   <g id="patch_50">
    <path d="M 531.2017 128.528148 
L 539.696627 128.528148 
L 539.696627 127.094393 
L 531.2017 127.094393 
z
" clip-path="url(#p7d672977dc)" style="fill: #00bfff"/>
   </g>
   <g id="patch_51">
    <path d="M 539.696627 128.528148 
L 548.191547 128.528148 
L 548.191547 127.73711 
L 539.696627 127.73711 
z
" clip-path="url(#p7d672977dc)" style="fill: #00bfff"/>
   </g>
   <g id="patch_52">
    <path d="M 548.191547 128.528148 
L 556.686467 128.528148 
L 556.686467 127.73711 
L 548.191547 127.73711 
z
" clip-path="url(#p7d672977dc)" style="fill: #00bfff"/>
   </g>
   <g id="patch_53">
    <path d="M 556.686467 128.528148 
L 565.181394 128.528148 
L 565.181394 128.132629 
L 556.686467 128.132629 
z
" clip-path="url(#p7d672977dc)" style="fill: #00bfff"/>
   </g>
   <g id="patch_54">
    <path d="M 565.181394 128.528148 
L 573.676314 128.528148 
L 573.676314 128.182069 
L 565.181394 128.182069 
z
" clip-path="url(#p7d672977dc)" style="fill: #00bfff"/>
   </g>
   <g id="patch_55">
    <path d="M 573.676314 128.528148 
L 582.171234 128.528148 
L 582.171234 128.330388 
L 573.676314 128.330388 
z
" clip-path="url(#p7d672977dc)" style="fill: #00bfff"/>
   </g>
   <g id="patch_56">
    <path d="M 582.171234 128.528148 
L 590.666162 128.528148 
L 590.666162 128.330388 
L 582.171234 128.330388 
z
" clip-path="url(#p7d672977dc)" style="fill: #00bfff"/>
   </g>
   <g id="patch_57">
    <path d="M 590.666162 128.528148 
L 599.161089 128.528148 
L 599.161089 128.182069 
L 590.666162 128.182069 
z
" clip-path="url(#p7d672977dc)" style="fill: #00bfff"/>
   </g>
   <g id="patch_58">
    <path d="M 599.161089 128.528148 
L 607.656001 128.528148 
L 607.656001 128.379828 
L 599.161089 128.379828 
z
" clip-path="url(#p7d672977dc)" style="fill: #00bfff"/>
   </g>
   <g id="patch_59">
    <path d="M 607.656001 128.528148 
L 616.150929 128.528148 
L 616.150929 128.379828 
L 607.656001 128.379828 
z
" clip-path="url(#p7d672977dc)" style="fill: #00bfff"/>
   </g>
   <g id="patch_60">
    <path d="M 616.150929 128.528148 
L 624.645857 128.528148 
L 624.645857 128.478708 
L 616.150929 128.478708 
z
" clip-path="url(#p7d672977dc)" style="fill: #00bfff"/>
   </g>
   <g id="patch_61">
    <path d="M 624.645857 128.528148 
L 633.140768 128.528148 
L 633.140768 128.429268 
L 624.645857 128.429268 
z
" clip-path="url(#p7d672977dc)" style="fill: #00bfff"/>
   </g>
   <g id="patch_62">
    <path d="M 633.140768 128.528148 
L 641.635696 128.528148 
L 641.635696 128.478708 
L 633.140768 128.478708 
z
" clip-path="url(#p7d672977dc)" style="fill: #00bfff"/>
   </g>
   <g id="patch_63">
    <path d="M 641.635696 128.528148 
L 650.130624 128.528148 
L 650.130624 128.330388 
L 641.635696 128.330388 
z
" clip-path="url(#p7d672977dc)" style="fill: #00bfff"/>
   </g>
   <g id="patch_64">
    <path d="M 650.130624 128.528148 
L 658.625535 128.528148 
L 658.625535 128.429268 
L 650.130624 128.429268 
z
" clip-path="url(#p7d672977dc)" style="fill: #00bfff"/>
   </g>
   <g id="patch_65">
    <path d="M 658.625535 128.528148 
L 667.120463 128.528148 
L 667.120463 128.379828 
L 658.625535 128.379828 
z
" clip-path="url(#p7d672977dc)" style="fill: #00bfff"/>
   </g>
   <g id="patch_66">
    <path d="M 667.120463 128.528148 
L 675.615391 128.528148 
L 675.615391 128.478708 
L 667.120463 128.478708 
z
" clip-path="url(#p7d672977dc)" style="fill: #00bfff"/>
   </g>
   <g id="patch_67">
    <path d="M 675.615391 128.528148 
L 684.110319 128.528148 
L 684.110319 128.429268 
L 675.615391 128.429268 
z
" clip-path="url(#p7d672977dc)" style="fill: #00bfff"/>
   </g>
   <g id="patch_68">
    <path d="M 684.110319 128.528148 
L 692.60523 128.528148 
L 692.60523 128.379828 
L 684.110319 128.379828 
z
" clip-path="url(#p7d672977dc)" style="fill: #00bfff"/>
   </g>
   <g id="patch_69">
    <path d="M 692.60523 128.528148 
L 701.100158 128.528148 
L 701.100158 128.528148 
L 692.60523 128.528148 
z
" clip-path="url(#p7d672977dc)" style="fill: #00bfff"/>
   </g>
   <g id="patch_70">
    <path d="M 701.100158 128.528148 
L 709.595086 128.528148 
L 709.595086 128.528148 
L 701.100158 128.528148 
z
" clip-path="url(#p7d672977dc)" style="fill: #00bfff"/>
   </g>
   <g id="patch_71">
    <path d="M 709.595086 128.528148 
L 718.090014 128.528148 
L 718.090014 128.528148 
L 709.595086 128.528148 
z
" clip-path="url(#p7d672977dc)" style="fill: #00bfff"/>
   </g>
   <g id="patch_72">
    <path d="M 718.090014 128.528148 
L 726.584909 128.528148 
L 726.584909 128.528148 
L 718.090014 128.528148 
z
" clip-path="url(#p7d672977dc)" style="fill: #00bfff"/>
   </g>
   <g id="patch_73">
    <path d="M 726.584909 128.528148 
L 735.079837 128.528148 
L 735.079837 128.528148 
L 726.584909 128.528148 
z
" clip-path="url(#p7d672977dc)" style="fill: #00bfff"/>
   </g>
   <g id="patch_74">
    <path d="M 735.079837 128.528148 
L 743.574764 128.528148 
L 743.574764 128.528148 
L 735.079837 128.528148 
z
" clip-path="url(#p7d672977dc)" style="fill: #00bfff"/>
   </g>
   <g id="patch_75">
    <path d="M 743.574764 128.528148 
L 752.069692 128.528148 
L 752.069692 128.478708 
L 743.574764 128.478708 
z
" clip-path="url(#p7d672977dc)" style="fill: #00bfff"/>
   </g>
   <g id="line2d_33">
    <path d="M 10.7 128.528148 
L 19.331308 128.528148 
L 27.962617 128.528148 
L 36.593925 128.528148 
L 45.225233 128.528148 
L 53.856541 128.528148 
L 62.48785 128.528148 
L 71.119158 128.528148 
L 79.750466 128.528148 
L 88.381775 128.528148 
L 97.013083 128.528148 
L 105.644391 128.528148 
L 114.275699 128.528148 
L 122.907008 128.528148 
L 131.538316 128.528148 
L 140.169624 128.528148 
L 148.800933 128.528148 
L 157.432241 128.528148 
L 166.063549 128.528148 
L 174.694857 128.528148 
L 183.326166 128.528148 
L 191.957474 128.528148 
L 200.588782 128.528148 
L 209.220091 128.528148 
L 217.851399 128.528147 
L 226.482707 128.528147 
L 235.114015 128.528144 
L 243.745324 128.528133 
L 252.376632 128.528092 
L 261.00794 128.527952 
L 269.639248 128.527502 
L 278.270557 128.526139 
L 286.901865 128.522265 
L 295.533173 128.511935 
L 304.164482 128.486089 
L 312.79579 128.425449 
L 321.427098 128.292113 
L 330.058406 128.017539 
L 338.689715 127.488453 
L 347.321023 126.535516 
L 355.952331 124.933536 
L 364.58364 122.424624 
L 373.214948 118.77347 
L 381.846256 113.854131 
L 390.477564 107.750864 
L 399.108873 100.837554 
L 407.740181 93.792173 
L 416.371489 87.514308 
L 425.002798 82.947017 
L 433.634106 80.847353 
L 442.265414 81.581391 
L 450.896722 85.019917 
L 459.528031 90.575596 
L 468.159339 97.366942 
L 476.790647 104.446219 
L 485.421956 111.010654 
L 494.053264 116.534358 
L 502.684572 120.798769 
L 511.31588 123.83962 
L 519.947189 125.851248 
L 528.578497 127.089576 
L 537.209805 127.800478 
L 545.841114 128.181697 
L 554.472422 128.37289 
L 563.10373 128.462659 
L 571.735038 128.502147 
L 580.366347 128.518431 
L 588.997655 128.52473 
L 597.628963 128.527016 
L 606.260272 128.527795 
L 614.89158 128.528044 
L 623.522888 128.528119 
L 632.154196 128.52814 
L 640.785505 128.528146 
L 649.416813 128.528147 
L 658.048121 128.528148 
L 666.679429 128.528148 
L 675.310738 128.528148 
L 683.942046 128.528148 
L 692.573354 128.528148 
L 701.204663 128.528148 
L 709.835971 128.528148 
L 718.467279 128.528148 
L 727.098587 128.528148 
L 735.729896 128.528148 
L 744.361204 128.528148 
L 752.992512 128.528148 
L 761.623821 128.528148 
L 770.255129 128.528148 
L 778.886437 128.528148 
L 787.517745 128.528148 
L 796.149054 128.528148 
L 804.780362 128.528148 
L 813.41167 128.528148 
L 822.042979 128.528148 
L 830.674287 128.528148 
L 839.305595 128.528148 
L 847.936903 128.528148 
L 856.568212 128.528148 
L 865.19952 128.528148 
" clip-path="url(#p7d672977dc)" style="fill: none; stroke: #1f77b4; stroke-width: 1.5; stroke-linecap: square"/>
   </g>
   <g id="text_11">
    <g id="patch_76">
     <path d="M 38.556713 38.307963 
L 61.227026 38.307963 
Q 64.227026 38.307963 64.227026 35.307963 
L 64.227026 25.629838 
Q 64.227026 22.629838 61.227026 22.629838 
L 38.556713 22.629838 
Q 35.556713 22.629838 35.556713 25.629838 
L 35.556713 35.307963 
Q 35.556713 38.307963 38.556713 38.307963 
z
" style="fill: #ffffff"/>
    </g>
    <!-- -11σ -->
    <g transform="translate(38.556713 33.228276) scale(0.1 -0.1)">
     <use xlink:href="#DejaVuSans-2d"/>
     <use xlink:href="#DejaVuSans-31" x="36.083984"/>
     <use xlink:href="#DejaVuSans-31" x="99.707031"/>
     <use xlink:href="#DejaVuSans-3c3" x="163.330078"/>
    </g>
   </g>
   <g id="text_12">
    <g id="patch_77">
     <path d="M 73.633649 38.307963 
L 96.303961 38.307963 
Q 99.303961 38.307963 99.303961 35.307963 
L 99.303961 25.629838 
Q 99.303961 22.629838 96.303961 22.629838 
L 73.633649 22.629838 
Q 70.633649 22.629838 70.633649 25.629838 
L 70.633649 35.307963 
Q 70.633649 38.307963 73.633649 38.307963 
z
" style="fill: #ffffff"/>
    </g>
    <!-- -10σ -->
    <g transform="translate(73.633649 33.228276) scale(0.1 -0.1)">
     <use xlink:href="#DejaVuSans-2d"/>
     <use xlink:href="#DejaVuSans-31" x="36.083984"/>
     <use xlink:href="#DejaVuSans-30" x="99.707031"/>
     <use xlink:href="#DejaVuSans-3c3" x="163.330078"/>
    </g>
   </g>
   <g id="text_13">
    <g id="patch_78">
     <path d="M 111.891835 38.307963 
L 128.199647 38.307963 
Q 131.199647 38.307963 131.199647 35.307963 
L 131.199647 25.629838 
Q 131.199647 22.629838 128.199647 22.629838 
L 111.891835 22.629838 
Q 108.891835 22.629838 108.891835 25.629838 
L 108.891835 35.307963 
Q 108.891835 38.307963 111.891835 38.307963 
z
" style="fill: #ffffff"/>
    </g>
    <!-- -9σ -->
    <g transform="translate(111.891835 33.228276) scale(0.1 -0.1)">
     <use xlink:href="#DejaVuSans-2d"/>
     <use xlink:href="#DejaVuSans-39" x="36.083984"/>
     <use xlink:href="#DejaVuSans-3c3" x="99.707031"/>
    </g>
   </g>
   <g id="text_14">
    <g id="patch_79">
     <path d="M 146.96877 38.307963 
L 163.276583 38.307963 
Q 166.276583 38.307963 166.276583 35.307963 
L 166.276583 25.629838 
Q 166.276583 22.629838 163.276583 22.629838 
L 146.96877 22.629838 
Q 143.96877 22.629838 143.96877 25.629838 
L 143.96877 35.307963 
Q 143.96877 38.307963 146.96877 38.307963 
z
" style="fill: #ffffff"/>
    </g>
    <!-- -8σ -->
    <g transform="translate(146.96877 33.228276) scale(0.1 -0.1)">
     <use xlink:href="#DejaVuSans-2d"/>
     <use xlink:href="#DejaVuSans-38" x="36.083984"/>
     <use xlink:href="#DejaVuSans-3c3" x="99.707031"/>
    </g>
   </g>
   <g id="text_15">
    <g id="patch_80">
     <path d="M 182.045706 38.307963 
L 198.353518 38.307963 
Q 201.353518 38.307963 201.353518 35.307963 
L 201.353518 25.629838 
Q 201.353518 22.629838 198.353518 22.629838 
L 182.045706 22.629838 
Q 179.045706 22.629838 179.045706 25.629838 
L 179.045706 35.307963 
Q 179.045706 38.307963 182.045706 38.307963 
z
" style="fill: #ffffff"/>
    </g>
    <!-- -7σ -->
    <g transform="translate(182.045706 33.228276) scale(0.1 -0.1)">
     <use xlink:href="#DejaVuSans-2d"/>
     <use xlink:href="#DejaVuSans-37" x="36.083984"/>
     <use xlink:href="#DejaVuSans-3c3" x="99.707031"/>
    </g>
   </g>
   <g id="text_16">
    <g id="patch_81">
     <path d="M 217.122642 38.307963 
L 233.430454 38.307963 
Q 236.430454 38.307963 236.430454 35.307963 
L 236.430454 25.629838 
Q 236.430454 22.629838 233.430454 22.629838 
L 217.122642 22.629838 
Q 214.122642 22.629838 214.122642 25.629838 
L 214.122642 35.307963 
Q 214.122642 38.307963 217.122642 38.307963 
z
" style="fill: #ffffff"/>
    </g>
    <!-- -6σ -->
    <g transform="translate(217.122642 33.228276) scale(0.1 -0.1)">
     <use xlink:href="#DejaVuSans-2d"/>
     <use xlink:href="#DejaVuSans-36" x="36.083984"/>
     <use xlink:href="#DejaVuSans-3c3" x="99.707031"/>
    </g>
   </g>
   <g id="text_17">
    <g id="patch_82">
     <path d="M 252.199577 38.307963 
L 268.50739 38.307963 
Q 271.50739 38.307963 271.50739 35.307963 
L 271.50739 25.629838 
Q 271.50739 22.629838 268.50739 22.629838 
L 252.199577 22.629838 
Q 249.199577 22.629838 249.199577 25.629838 
L 249.199577 35.307963 
Q 249.199577 38.307963 252.199577 38.307963 
z
" style="fill: #ffffff"/>
    </g>
    <!-- -5σ -->
    <g transform="translate(252.199577 33.228276) scale(0.1 -0.1)">
     <use xlink:href="#DejaVuSans-2d"/>
     <use xlink:href="#DejaVuSans-35" x="36.083984"/>
     <use xlink:href="#DejaVuSans-3c3" x="99.707031"/>
    </g>
   </g>
   <g id="text_18">
    <g id="patch_83">
     <path d="M 287.276513 38.307963 
L 303.584325 38.307963 
Q 306.584325 38.307963 306.584325 35.307963 
L 306.584325 25.629838 
Q 306.584325 22.629838 303.584325 22.629838 
L 287.276513 22.629838 
Q 284.276513 22.629838 284.276513 25.629838 
L 284.276513 35.307963 
Q 284.276513 38.307963 287.276513 38.307963 
z
" style="fill: #ffffff"/>
    </g>
    <!-- -4σ -->
    <g transform="translate(287.276513 33.228276) scale(0.1 -0.1)">
     <use xlink:href="#DejaVuSans-2d"/>
     <use xlink:href="#DejaVuSans-34" x="36.083984"/>
     <use xlink:href="#DejaVuSans-3c3" x="99.707031"/>
    </g>
   </g>
   <g id="text_19">
    <g id="patch_84">
     <path d="M 322.353448 38.307963 
L 338.661261 38.307963 
Q 341.661261 38.307963 341.661261 35.307963 
L 341.661261 25.629838 
Q 341.661261 22.629838 338.661261 22.629838 
L 322.353448 22.629838 
Q 319.353448 22.629838 319.353448 25.629838 
L 319.353448 35.307963 
Q 319.353448 38.307963 322.353448 38.307963 
z
" style="fill: #ffffff"/>
    </g>
    <!-- -3σ -->
    <g transform="translate(322.353448 33.228276) scale(0.1 -0.1)">
     <use xlink:href="#DejaVuSans-2d"/>
     <use xlink:href="#DejaVuSans-33" x="36.083984"/>
     <use xlink:href="#DejaVuSans-3c3" x="99.707031"/>
    </g>
   </g>
   <g id="text_20">
    <g id="patch_85">
     <path d="M 357.430384 38.307963 
L 373.738197 38.307963 
Q 376.738197 38.307963 376.738197 35.307963 
L 376.738197 25.629838 
Q 376.738197 22.629838 373.738197 22.629838 
L 357.430384 22.629838 
Q 354.430384 22.629838 354.430384 25.629838 
L 354.430384 35.307963 
Q 354.430384 38.307963 357.430384 38.307963 
z
" style="fill: #ffffff"/>
    </g>
    <!-- -2σ -->
    <g transform="translate(357.430384 33.228276) scale(0.1 -0.1)">
     <use xlink:href="#DejaVuSans-2d"/>
     <use xlink:href="#DejaVuSans-32" x="36.083984"/>
     <use xlink:href="#DejaVuSans-3c3" x="99.707031"/>
    </g>
   </g>
   <g id="text_21">
    <g id="patch_86">
     <path d="M 395.68857 38.307963 
L 405.633882 38.307963 
Q 408.633882 38.307963 408.633882 35.307963 
L 408.633882 25.629838 
Q 408.633882 22.629838 405.633882 22.629838 
L 395.68857 22.629838 
Q 392.68857 22.629838 392.68857 25.629838 
L 392.68857 35.307963 
Q 392.68857 38.307963 395.68857 38.307963 
z
" style="fill: #ffffff"/>
    </g>
    <!-- -σ -->
    <g transform="translate(395.68857 33.228276) scale(0.1 -0.1)">
     <use xlink:href="#DejaVuSans-2d"/>
     <use xlink:href="#DejaVuSans-3c3" x="36.083984"/>
    </g>
   </g>
   <g id="text_22">
    <g id="patch_87">
     <path d="M 432.059255 38.307963 
L 439.417068 38.307963 
Q 442.417068 38.307963 442.417068 35.307963 
L 442.417068 25.629838 
Q 442.417068 22.629838 439.417068 22.629838 
L 432.059255 22.629838 
Q 429.059255 22.629838 429.059255 25.629838 
L 429.059255 35.307963 
Q 429.059255 38.307963 432.059255 38.307963 
z
" style="fill: #ffffff"/>
    </g>
    <!-- μ -->
    <g transform="translate(432.059255 33.217338) scale(0.1 -0.1)">
     <defs>
      <path id="DejaVuSans-Bold-3bc" d="M 544 -1338 
L 544 3500 
L 1672 3500 
L 1672 1466 
Q 1672 1103 1828 926 
Q 1984 750 2303 750 
Q 2625 750 2781 926 
Q 2938 1103 2938 1466 
L 2938 3500 
L 4063 3500 
L 4063 1159 
Q 4063 938 4114 850 
Q 4166 763 4288 763 
Q 4344 763 4395 778 
Q 4447 794 4506 831 
L 4506 50 
Q 4341 -22 4195 -56 
Q 4050 -91 3909 -91 
Q 3631 -91 3454 26 
Q 3278 144 3169 403 
Q 3022 156 2811 32 
Q 2600 -91 2322 -91 
Q 2091 -91 1928 -17 
Q 1766 56 1672 206 
L 1672 -1338 
L 544 -1338 
z
" transform="scale(0.015625)"/>
     </defs>
     <use xlink:href="#DejaVuSans-Bold-3bc"/>
    </g>
   </g>
   <g id="text_23">
    <g id="patch_88">
     <path d="M 463.456504 38.307963 
L 478.173691 38.307963 
Q 481.173691 38.307963 481.173691 35.307963 
L 481.173691 25.629838 
Q 481.173691 22.629838 478.173691 22.629838 
L 463.456504 22.629838 
Q 460.456504 22.629838 460.456504 25.629838 
L 460.456504 35.307963 
Q 460.456504 38.307963 463.456504 38.307963 
z
" style="fill: #ffffff"/>
    </g>
    <!-- +σ -->
    <g transform="translate(463.456504 33.228276) scale(0.1 -0.1)">
     <defs>
      <path id="DejaVuSans-2b" d="M 2944 4013 
L 2944 2272 
L 4684 2272 
L 4684 1741 
L 2944 1741 
L 2944 0 
L 2419 0 
L 2419 1741 
L 678 1741 
L 678 2272 
L 2419 2272 
L 2419 4013 
L 2944 4013 
z
" transform="scale(0.015625)"/>
     </defs>
     <use xlink:href="#DejaVuSans-2b"/>
     <use xlink:href="#DejaVuSans-3c3" x="83.789062"/>
    </g>
   </g>
   <g id="text_24">
    <g id="patch_89">
     <path d="M 495.352189 38.307963 
L 516.431877 38.307963 
Q 519.431877 38.307963 519.431877 35.307963 
L 519.431877 25.629838 
Q 519.431877 22.629838 516.431877 22.629838 
L 495.352189 22.629838 
Q 492.352189 22.629838 492.352189 25.629838 
L 492.352189 35.307963 
Q 492.352189 38.307963 495.352189 38.307963 
z
" style="fill: #ffffff"/>
    </g>
    <!-- +2σ -->
    <g transform="translate(495.352189 33.228276) scale(0.1 -0.1)">
     <use xlink:href="#DejaVuSans-2b"/>
     <use xlink:href="#DejaVuSans-32" x="83.789062"/>
     <use xlink:href="#DejaVuSans-3c3" x="147.412109"/>
    </g>
   </g>
   <g id="text_25">
    <g id="patch_90">
     <path d="M 530.429125 38.307963 
L 551.508812 38.307963 
Q 554.508812 38.307963 554.508812 35.307963 
L 554.508812 25.629838 
Q 554.508812 22.629838 551.508812 22.629838 
L 530.429125 22.629838 
Q 527.429125 22.629838 527.429125 25.629838 
L 527.429125 35.307963 
Q 527.429125 38.307963 530.429125 38.307963 
z
" style="fill: #ffffff"/>
    </g>
    <!-- +3σ -->
    <g transform="translate(530.429125 33.228276) scale(0.1 -0.1)">
     <use xlink:href="#DejaVuSans-2b"/>
     <use xlink:href="#DejaVuSans-33" x="83.789062"/>
     <use xlink:href="#DejaVuSans-3c3" x="147.412109"/>
    </g>
   </g>
   <g id="text_26">
    <g id="patch_91">
     <path d="M 565.50606 38.307963 
L 586.585748 38.307963 
Q 589.585748 38.307963 589.585748 35.307963 
L 589.585748 25.629838 
Q 589.585748 22.629838 586.585748 22.629838 
L 565.50606 22.629838 
Q 562.50606 22.629838 562.50606 25.629838 
L 562.50606 35.307963 
Q 562.50606 38.307963 565.50606 38.307963 
z
" style="fill: #ffffff"/>
    </g>
    <!-- +4σ -->
    <g transform="translate(565.50606 33.228276) scale(0.1 -0.1)">
     <use xlink:href="#DejaVuSans-2b"/>
     <use xlink:href="#DejaVuSans-34" x="83.789062"/>
     <use xlink:href="#DejaVuSans-3c3" x="147.412109"/>
    </g>
   </g>
   <g id="text_27">
    <g id="patch_92">
     <path d="M 600.582996 38.307963 
L 621.662684 38.307963 
Q 624.662684 38.307963 624.662684 35.307963 
L 624.662684 25.629838 
Q 624.662684 22.629838 621.662684 22.629838 
L 600.582996 22.629838 
Q 597.582996 22.629838 597.582996 25.629838 
L 597.582996 35.307963 
Q 597.582996 38.307963 600.582996 38.307963 
z
" style="fill: #ffffff"/>
    </g>
    <!-- +5σ -->
    <g transform="translate(600.582996 33.228276) scale(0.1 -0.1)">
     <use xlink:href="#DejaVuSans-2b"/>
     <use xlink:href="#DejaVuSans-35" x="83.789062"/>
     <use xlink:href="#DejaVuSans-3c3" x="147.412109"/>
    </g>
   </g>
   <g id="text_28">
    <g id="patch_93">
     <path d="M 635.659932 38.307963 
L 656.739619 38.307963 
Q 659.739619 38.307963 659.739619 35.307963 
L 659.739619 25.629838 
Q 659.739619 22.629838 656.739619 22.629838 
L 635.659932 22.629838 
Q 632.659932 22.629838 632.659932 25.629838 
L 632.659932 35.307963 
Q 632.659932 38.307963 635.659932 38.307963 
z
" style="fill: #ffffff"/>
    </g>
    <!-- +6σ -->
    <g transform="translate(635.659932 33.228276) scale(0.1 -0.1)">
     <use xlink:href="#DejaVuSans-2b"/>
     <use xlink:href="#DejaVuSans-36" x="83.789062"/>
     <use xlink:href="#DejaVuSans-3c3" x="147.412109"/>
    </g>
   </g>
   <g id="text_29">
    <g id="patch_94">
     <path d="M 670.736867 38.307963 
L 691.816555 38.307963 
Q 694.816555 38.307963 694.816555 35.307963 
L 694.816555 25.629838 
Q 694.816555 22.629838 691.816555 22.629838 
L 670.736867 22.629838 
Q 667.736867 22.629838 667.736867 25.629838 
L 667.736867 35.307963 
Q 667.736867 38.307963 670.736867 38.307963 
z
" style="fill: #ffffff"/>
    </g>
    <!-- +7σ -->
    <g transform="translate(670.736867 33.228276) scale(0.1 -0.1)">
     <use xlink:href="#DejaVuSans-2b"/>
     <use xlink:href="#DejaVuSans-37" x="83.789062"/>
     <use xlink:href="#DejaVuSans-3c3" x="147.412109"/>
    </g>
   </g>
   <g id="text_30">
    <g id="patch_95">
     <path d="M 705.813803 38.307963 
L 726.89349 38.307963 
Q 729.89349 38.307963 729.89349 35.307963 
L 729.89349 25.629838 
Q 729.89349 22.629838 726.89349 22.629838 
L 705.813803 22.629838 
Q 702.813803 22.629838 702.813803 25.629838 
L 702.813803 35.307963 
Q 702.813803 38.307963 705.813803 38.307963 
z
" style="fill: #ffffff"/>
    </g>
    <!-- +8σ -->
    <g transform="translate(705.813803 33.228276) scale(0.1 -0.1)">
     <use xlink:href="#DejaVuSans-2b"/>
     <use xlink:href="#DejaVuSans-38" x="83.789062"/>
     <use xlink:href="#DejaVuSans-3c3" x="147.412109"/>
    </g>
   </g>
   <g id="text_31">
    <g id="patch_96">
     <path d="M 740.890739 38.307963 
L 761.970426 38.307963 
Q 764.970426 38.307963 764.970426 35.307963 
L 764.970426 25.629838 
Q 764.970426 22.629838 761.970426 22.629838 
L 740.890739 22.629838 
Q 737.890739 22.629838 737.890739 25.629838 
L 737.890739 35.307963 
Q 737.890739 38.307963 740.890739 38.307963 
z
" style="fill: #ffffff"/>
    </g>
    <!-- +9σ -->
    <g transform="translate(740.890739 33.228276) scale(0.1 -0.1)">
     <use xlink:href="#DejaVuSans-2b"/>
     <use xlink:href="#DejaVuSans-39" x="83.789062"/>
     <use xlink:href="#DejaVuSans-3c3" x="147.412109"/>
    </g>
   </g>
   <g id="text_32">
    <g id="patch_97">
     <path d="M 772.786424 38.307963 
L 800.228612 38.307963 
Q 803.228612 38.307963 803.228612 35.307963 
L 803.228612 25.629838 
Q 803.228612 22.629838 800.228612 22.629838 
L 772.786424 22.629838 
Q 769.786424 22.629838 769.786424 25.629838 
L 769.786424 35.307963 
Q 769.786424 38.307963 772.786424 38.307963 
z
" style="fill: #ffffff"/>
    </g>
    <!-- +10σ -->
    <g transform="translate(772.786424 33.228276) scale(0.1 -0.1)">
     <use xlink:href="#DejaVuSans-2b"/>
     <use xlink:href="#DejaVuSans-31" x="83.789062"/>
     <use xlink:href="#DejaVuSans-30" x="147.412109"/>
     <use xlink:href="#DejaVuSans-3c3" x="211.035156"/>
    </g>
   </g>
   <g id="text_33">
    <g id="patch_98">
     <path d="M 807.86336 38.307963 
L 835.305547 38.307963 
Q 838.305547 38.307963 838.305547 35.307963 
L 838.305547 25.629838 
Q 838.305547 22.629838 835.305547 22.629838 
L 807.86336 22.629838 
Q 804.86336 22.629838 804.86336 25.629838 
L 804.86336 35.307963 
Q 804.86336 38.307963 807.86336 38.307963 
z
" style="fill: #ffffff"/>
    </g>
    <!-- +11σ -->
    <g transform="translate(807.86336 33.228276) scale(0.1 -0.1)">
     <use xlink:href="#DejaVuSans-2b"/>
     <use xlink:href="#DejaVuSans-31" x="83.789062"/>
     <use xlink:href="#DejaVuSans-31" x="147.412109"/>
     <use xlink:href="#DejaVuSans-3c3" x="211.035156"/>
    </g>
   </g>
  </g>
 </g>
 <defs>
  <clipPath id="p7d672977dc">
   <rect x="10.7" y="20.214138" width="854.49952" height="108.31401"/>
  </clipPath>
 </defs>
</svg>
