<?xml version="1.0" encoding="utf-8" standalone="no"?>
<!DOCTYPE svg PUBLIC "-//W3C//DTD SVG 1.1//EN"
  "http://www.w3.org/Graphics/SVG/1.1/DTD/svg11.dtd">
<svg xmlns:xlink="http://www.w3.org/1999/xlink" width="872.39952pt" height="152.406273pt" viewBox="0 0 872.39952 152.406273" xmlns="http://www.w3.org/2000/svg" version="1.1">
 <metadata>
  <rdf:RDF xmlns:dc="http://purl.org/dc/elements/1.1/" xmlns:cc="http://creativecommons.org/ns#" xmlns:rdf="http://www.w3.org/1999/02/22-rdf-syntax-ns#">
   <cc:Work>
    <dc:type rdf:resource="http://purl.org/dc/dcmitype/StillImage"/>
    <dc:format>image/svg+xml</dc:format>
    <dc:creator>
     <cc:Agent>
      <dc:title>Matplotlib, https://matplotlib.org/</dc:title>
     </cc:Agent>
    </dc:creator>
   </cc:Work>
  </rdf:RDF>
 </metadata>
 <defs>
  <style type="text/css">*{stroke-linejoin: round; stroke-linecap: butt}</style>
 </defs>
 <g id="figure_1">
  <g id="patch_1">
   <path d="M 0 152.406273 
L 872.39952 152.406273 
L 872.39952 0 
L 0 0 
z
" style="fill: #ffffff"/>
  </g>
  <g id="axes_1">
   <g id="patch_2">
    <path d="M 7.2 128.528148 
L 865.19952 128.528148 
L 865.19952 20.214138 
L 7.2 20.214138 
z
" style="fill: #ffffff"/>
   </g>
   <g id="matplotlib.axis_1">
    <g id="xtick_1">
     <g id="line2d_1">
      <defs>
       <path id="m8f1de1206a" d="M 0 0 
L 0 3.5 
" style="stroke: #000000; stroke-width: 0.8"/>
      </defs>
      <g>
       <use xlink:href="#m8f1de1206a" x="44.129809" y="128.528148" style="stroke: #000000; stroke-width: 0.8"/>
      </g>
     </g>
     <g id="text_1">
      <!-- 1 -->
      <g transform="translate(40.948559 143.126585) scale(0.1 -0.1)">
       <defs>
        <path id="DejaVuSans-31" d="M 794 531 
L 1825 531 
L 1825 4091 
L 703 3866 
L 703 4441 
L 1819 4666 
L 2450 4666 
L 2450 531 
L 3481 531 
L 3481 0 
L 794 0 
L 794 531 
z
" transform="scale(0.015625)"/>
       </defs>
       <use xlink:href="#DejaVuSans-31"/>
      </g>
     </g>
    </g>
    <g id="xtick_2">
     <g id="line2d_2">
      <g>
       <use xlink:href="#m8f1de1206a" x="217.458716" y="128.528148" style="stroke: #000000; stroke-width: 0.8"/>
      </g>
     </g>
     <g id="text_2">
      <!-- 2 -->
      <g transform="translate(214.277466 143.126585) scale(0.1 -0.1)">
       <defs>
        <path id="DejaVuSans-32" d="M 1228 531 
L 3431 531 
L 3431 0 
L 469 0 
L 469 531 
Q 828 903 1448 1529 
Q 2069 2156 2228 2338 
Q 2531 2678 2651 2914 
Q 2772 3150 2772 3378 
Q 2772 3750 2511 3984 
Q 2250 4219 1831 4219 
Q 1534 4219 1204 4116 
Q 875 4013 500 3803 
L 500 4441 
Q 881 4594 1212 4672 
Q 1544 4750 1819 4750 
Q 2544 4750 2975 4387 
Q 3406 4025 3406 3419 
Q 3406 3131 3298 2873 
Q 3191 2616 2906 2266 
Q 2828 2175 2409 1742 
Q 1991 1309 1228 531 
z
" transform="scale(0.015625)"/>
       </defs>
       <use xlink:href="#DejaVuSans-32"/>
      </g>
     </g>
    </g>
    <g id="xtick_3">
     <g id="line2d_3">
      <g>
       <use xlink:href="#m8f1de1206a" x="390.787624" y="128.528148" style="stroke: #000000; stroke-width: 0.8"/>
      </g>
     </g>
     <g id="text_3">
      <!-- 3 -->
      <g transform="translate(387.606374 143.126585) scale(0.1 -0.1)">
       <defs>
        <path id="DejaVuSans-33" d="M 2597 2516 
Q 3050 2419 3304 2112 
Q 3559 1806 3559 1356 
Q 3559 666 3084 287 
Q 2609 -91 1734 -91 
Q 1441 -91 1130 -33 
Q 819 25 488 141 
L 488 750 
Q 750 597 1062 519 
Q 1375 441 1716 441 
Q 2309 441 2620 675 
Q 2931 909 2931 1356 
Q 2931 1769 2642 2001 
Q 2353 2234 1838 2234 
L 1294 2234 
L 1294 2753 
L 1863 2753 
Q 2328 2753 2575 2939 
Q 2822 3125 2822 3475 
Q 2822 3834 2567 4026 
Q 2313 4219 1838 4219 
Q 1578 4219 1281 4162 
Q 984 4106 628 3988 
L 628 4550 
Q 988 4650 1302 4700 
Q 1616 4750 1894 4750 
Q 2613 4750 3031 4423 
Q 3450 4097 3450 3541 
Q 3450 3153 3228 2886 
Q 3006 2619 2597 2516 
z
" transform="scale(0.015625)"/>
       </defs>
       <use xlink:href="#DejaVuSans-33"/>
      </g>
     </g>
    </g>
    <g id="xtick_4">
     <g id="line2d_4">
      <g>
       <use xlink:href="#m8f1de1206a" x="564.116532" y="128.528148" style="stroke: #000000; stroke-width: 0.8"/>
      </g>
     </g>
     <g id="text_4">
      <!-- 4 -->
      <g transform="translate(560.935282 143.126585) scale(0.1 -0.1)">
       <defs>
        <path id="DejaVuSans-34" d="M 2419 4116 
L 825 1625 
L 2419 1625 
L 2419 4116 
z
M 2253 4666 
L 3047 4666 
L 3047 1625 
L 3713 1625 
L 3713 1100 
L 3047 1100 
L 3047 0 
L 2419 0 
L 2419 1100 
L 313 1100 
L 313 1709 
L 2253 4666 
z
" transform="scale(0.015625)"/>
       </defs>
       <use xlink:href="#DejaVuSans-34"/>
      </g>
     </g>
    </g>
    <g id="xtick_5">
     <g id="line2d_5">
      <g>
       <use xlink:href="#m8f1de1206a" x="737.44544" y="128.528148" style="stroke: #000000; stroke-width: 0.8"/>
      </g>
     </g>
     <g id="text_5">
      <!-- 5 -->
      <g transform="translate(734.26419 143.126585) scale(0.1 -0.1)">
       <defs>
        <path id="DejaVuSans-35" d="M 691 4666 
L 3169 4666 
L 3169 4134 
L 1269 4134 
L 1269 2991 
Q 1406 3038 1543 3061 
Q 1681 3084 1819 3084 
Q 2600 3084 3056 2656 
Q 3513 2228 3513 1497 
Q 3513 744 3044 326 
Q 2575 -91 1722 -91 
Q 1428 -91 1123 -41 
Q 819 9 494 109 
L 494 744 
Q 775 591 1075 516 
Q 1375 441 1709 441 
Q 2250 441 2565 725 
Q 2881 1009 2881 1497 
Q 2881 1984 2565 2268 
Q 2250 2553 1709 2553 
Q 1456 2553 1204 2497 
Q 953 2441 691 2322 
L 691 4666 
z
" transform="scale(0.015625)"/>
       </defs>
       <use xlink:href="#DejaVuSans-35"/>
      </g>
     </g>
    </g>
   </g>
   <g id="matplotlib.axis_2"/>
   <g id="line2d_6">
    <path d="M 136.280527 128.528148 
L 136.280527 20.214138 
" clip-path="url(#p0a76fdce7d)" style="fill: none; stroke: #000000; stroke-width: 1.5; stroke-linecap: square"/>
   </g>
   <g id="line2d_7">
    <path d="M 322.920307 128.528148 
L 322.920307 20.214138 
" clip-path="url(#p0a76fdce7d)" style="fill: none; stroke: #000000; stroke-width: 1.5; stroke-linecap: square"/>
   </g>
   <g id="line2d_8">
    <path d="M 509.560088 128.528148 
L 509.560088 20.214138 
" clip-path="url(#p0a76fdce7d)" style="fill: none; stroke: #000000; stroke-width: 1.5; stroke-linecap: square"/>
   </g>
   <g id="line2d_9">
    <path d="M 696.199869 128.528148 
L 696.199869 20.214138 
" clip-path="url(#p0a76fdce7d)" style="fill: none; stroke: #000000; stroke-width: 1.5; stroke-linecap: square"/>
   </g>
   <g id="line2d_10">
    <path d="M 23.693646 128.528148 
L 23.693646 20.214138 
" clip-path="url(#p0a76fdce7d)" style="fill: none; stroke: #ff0000; stroke-width: 1.5; stroke-linecap: square"/>
   </g>
   <g id="line2d_11">
    <path d="M 848.376 128.528148 
L 848.376 20.214138 
" clip-path="url(#p0a76fdce7d)" style="fill: none; stroke: #ff0000; stroke-width: 1.5; stroke-linecap: square"/>
   </g>
   <g id="patch_3">
    <path d="M 7.2 128.528148 
L 7.2 20.214138 
" style="fill: none; stroke: #000000; stroke-width: 0.8; stroke-linejoin: miter; stroke-linecap: square"/>
   </g>
   <g id="patch_4">
    <path d="M 865.19952 128.528148 
L 865.19952 20.214138 
" style="fill: none; stroke: #000000; stroke-width: 0.8; stroke-linejoin: miter; stroke-linecap: square"/>
   </g>
   <g id="patch_5">
    <path d="M 7.2 128.528148 
L 865.19952 128.528148 
" style="fill: none; stroke: #000000; stroke-width: 0.8; stroke-linejoin: miter; stroke-linecap: square"/>
   </g>
   <g id="patch_6">
    <path d="M 7.2 20.214138 
L 865.19952 20.214138 
" style="fill: none; stroke: #000000; stroke-width: 0.8; stroke-linejoin: miter; stroke-linecap: square"/>
   </g>
   <g id="text_6">
    <g id="patch_7">
     <path d="M 22.693646 102.303174 
L 22.693646 46.439112 
Q 22.693646 46.439112 22.693646 46.439112 
L 13.015521 46.439112 
Q 13.015521 46.439112 13.015521 46.439112 
L 13.015521 102.303174 
Q 13.015521 102.303174 13.015521 102.303174 
L 22.693646 102.303174 
Q 22.693646 102.303174 22.693646 102.303174 
z
" style="fill: #ffffff"/>
    </g>
    <!-- min=0.882 -->
    <g transform="translate(20.613959 102.303174) rotate(-90) scale(0.1 -0.1)">
     <defs>
      <path id="DejaVuSans-6d" d="M 3328 2828 
Q 3544 3216 3844 3400 
Q 4144 3584 4550 3584 
Q 5097 3584 5394 3201 
Q 5691 2819 5691 2113 
L 5691 0 
L 5113 0 
L 5113 2094 
Q 5113 2597 4934 2840 
Q 4756 3084 4391 3084 
Q 3944 3084 3684 2787 
Q 3425 2491 3425 1978 
L 3425 0 
L 2847 0 
L 2847 2094 
Q 2847 2600 2669 2842 
Q 2491 3084 2119 3084 
Q 1678 3084 1418 2786 
Q 1159 2488 1159 1978 
L 1159 0 
L 581 0 
L 581 3500 
L 1159 3500 
L 1159 2956 
Q 1356 3278 1631 3431 
Q 1906 3584 2284 3584 
Q 2666 3584 2933 3390 
Q 3200 3197 3328 2828 
z
" transform="scale(0.015625)"/>
      <path id="DejaVuSans-69" d="M 603 3500 
L 1178 3500 
L 1178 0 
L 603 0 
L 603 3500 
z
M 603 4863 
L 1178 4863 
L 1178 4134 
L 603 4134 
L 603 4863 
z
" transform="scale(0.015625)"/>
      <path id="DejaVuSans-6e" d="M 3513 2113 
L 3513 0 
L 2938 0 
L 2938 2094 
Q 2938 2591 2744 2837 
Q 2550 3084 2163 3084 
Q 1697 3084 1428 2787 
Q 1159 2491 1159 1978 
L 1159 0 
L 581 0 
L 581 3500 
L 1159 3500 
L 1159 2956 
Q 1366 3272 1645 3428 
Q 1925 3584 2291 3584 
Q 2894 3584 3203 3211 
Q 3513 2838 3513 2113 
z
" transform="scale(0.015625)"/>
      <path id="DejaVuSans-3d" d="M 678 2906 
L 4684 2906 
L 4684 2381 
L 678 2381 
L 678 2906 
z
M 678 1631 
L 4684 1631 
L 4684 1100 
L 678 1100 
L 678 1631 
z
" transform="scale(0.015625)"/>
      <path id="DejaVuSans-30" d="M 2034 4250 
Q 1547 4250 1301 3770 
Q 1056 3291 1056 2328 
Q 1056 1369 1301 889 
Q 1547 409 2034 409 
Q 2525 409 2770 889 
Q 3016 1369 3016 2328 
Q 3016 3291 2770 3770 
Q 2525 4250 2034 4250 
z
M 2034 4750 
Q 2819 4750 3233 4129 
Q 3647 3509 3647 2328 
Q 3647 1150 3233 529 
Q 2819 -91 2034 -91 
Q 1250 -91 836 529 
Q 422 1150 422 2328 
Q 422 3509 836 4129 
Q 1250 4750 2034 4750 
z
" transform="scale(0.015625)"/>
      <path id="DejaVuSans-2e" d="M 684 794 
L 1344 794 
L 1344 0 
L 684 0 
L 684 794 
z
" transform="scale(0.015625)"/>
      <path id="DejaVuSans-38" d="M 2034 2216 
Q 1584 2216 1326 1975 
Q 1069 1734 1069 1313 
Q 1069 891 1326 650 
Q 1584 409 2034 409 
Q 2484 409 2743 651 
Q 3003 894 3003 1313 
Q 3003 1734 2745 1975 
Q 2488 2216 2034 2216 
z
M 1403 2484 
Q 997 2584 770 2862 
Q 544 3141 544 3541 
Q 544 4100 942 4425 
Q 1341 4750 2034 4750 
Q 2731 4750 3128 4425 
Q 3525 4100 3525 3541 
Q 3525 3141 3298 2862 
Q 3072 2584 2669 2484 
Q 3125 2378 3379 2068 
Q 3634 1759 3634 1313 
Q 3634 634 3220 271 
Q 2806 -91 2034 -91 
Q 1263 -91 848 271 
Q 434 634 434 1313 
Q 434 1759 690 2068 
Q 947 2378 1403 2484 
z
M 1172 3481 
Q 1172 3119 1398 2916 
Q 1625 2713 2034 2713 
Q 2441 2713 2670 2916 
Q 2900 3119 2900 3481 
Q 2900 3844 2670 4047 
Q 2441 4250 2034 4250 
Q 1625 4250 1398 4047 
Q 1172 3844 1172 3481 
z
" transform="scale(0.015625)"/>
     </defs>
     <use xlink:href="#DejaVuSans-6d"/>
     <use xlink:href="#DejaVuSans-69" x="97.412109"/>
     <use xlink:href="#DejaVuSans-6e" x="125.195312"/>
     <use xlink:href="#DejaVuSans-3d" x="188.574219"/>
     <use xlink:href="#DejaVuSans-30" x="272.363281"/>
     <use xlink:href="#DejaVuSans-2e" x="335.986328"/>
     <use xlink:href="#DejaVuSans-38" x="367.773438"/>
     <use xlink:href="#DejaVuSans-38" x="431.396484"/>
     <use xlink:href="#DejaVuSans-32" x="495.019531"/>
    </g>
   </g>
   <g id="text_7">
    <g id="patch_8">
     <path d="M 860.054125 103.768799 
L 860.054125 44.973487 
Q 860.054125 44.973487 860.054125 44.973487 
L 850.376 44.973487 
Q 850.376 44.973487 850.376 44.973487 
L 850.376 103.768799 
Q 850.376 103.768799 850.376 103.768799 
L 860.054125 103.768799 
Q 860.054125 103.768799 860.054125 103.768799 
z
" style="fill: #ffffff"/>
    </g>
    <!-- max=5.640 -->
    <g transform="translate(857.974438 103.768799) rotate(-90) scale(0.1 -0.1)">
     <defs>
      <path id="DejaVuSans-61" d="M 2194 1759 
Q 1497 1759 1228 1600 
Q 959 1441 959 1056 
Q 959 750 1161 570 
Q 1363 391 1709 391 
Q 2188 391 2477 730 
Q 2766 1069 2766 1631 
L 2766 1759 
L 2194 1759 
z
M 3341 1997 
L 3341 0 
L 2766 0 
L 2766 531 
Q 2569 213 2275 61 
Q 1981 -91 1556 -91 
Q 1019 -91 701 211 
Q 384 513 384 1019 
Q 384 1609 779 1909 
Q 1175 2209 1959 2209 
L 2766 2209 
L 2766 2266 
Q 2766 2663 2505 2880 
Q 2244 3097 1772 3097 
Q 1472 3097 1187 3025 
Q 903 2953 641 2809 
L 641 3341 
Q 956 3463 1253 3523 
Q 1550 3584 1831 3584 
Q 2591 3584 2966 3190 
Q 3341 2797 3341 1997 
z
" transform="scale(0.015625)"/>
      <path id="DejaVuSans-78" d="M 3513 3500 
L 2247 1797 
L 3578 0 
L 2900 0 
L 1881 1375 
L 863 0 
L 184 0 
L 1544 1831 
L 300 3500 
L 978 3500 
L 1906 2253 
L 2834 3500 
L 3513 3500 
z
" transform="scale(0.015625)"/>
      <path id="DejaVuSans-36" d="M 2113 2584 
Q 1688 2584 1439 2293 
Q 1191 2003 1191 1497 
Q 1191 994 1439 701 
Q 1688 409 2113 409 
Q 2538 409 2786 701 
Q 3034 994 3034 1497 
Q 3034 2003 2786 2293 
Q 2538 2584 2113 2584 
z
M 3366 4563 
L 3366 3988 
Q 3128 4100 2886 4159 
Q 2644 4219 2406 4219 
Q 1781 4219 1451 3797 
Q 1122 3375 1075 2522 
Q 1259 2794 1537 2939 
Q 1816 3084 2150 3084 
Q 2853 3084 3261 2657 
Q 3669 2231 3669 1497 
Q 3669 778 3244 343 
Q 2819 -91 2113 -91 
Q 1303 -91 875 529 
Q 447 1150 447 2328 
Q 447 3434 972 4092 
Q 1497 4750 2381 4750 
Q 2619 4750 2861 4703 
Q 3103 4656 3366 4563 
z
" transform="scale(0.015625)"/>
     </defs>
     <use xlink:href="#DejaVuSans-6d"/>
     <use xlink:href="#DejaVuSans-61" x="97.412109"/>
     <use xlink:href="#DejaVuSans-78" x="158.691406"/>
     <use xlink:href="#DejaVuSans-3d" x="217.871094"/>
     <use xlink:href="#DejaVuSans-35" x="301.660156"/>
     <use xlink:href="#DejaVuSans-2e" x="365.283203"/>
     <use xlink:href="#DejaVuSans-36" x="397.070312"/>
     <use xlink:href="#DejaVuSans-34" x="460.693359"/>
     <use xlink:href="#DejaVuSans-30" x="524.316406"/>
    </g>
   </g>
   <g id="text_8">
    <!-- 10000 samples (μ=2.608, σ=1.077) of tensor[3, 196, 196] n=115248 x∈[0.882, 5.640] μ=2.612 σ=1.073 -->
    <g transform="translate(7.2 14.798437) scale(0.1 -0.1)">
     <defs>
      <path id="DejaVuSans-20" transform="scale(0.015625)"/>
      <path id="DejaVuSans-73" d="M 2834 3397 
L 2834 2853 
Q 2591 2978 2328 3040 
Q 2066 3103 1784 3103 
Q 1356 3103 1142 2972 
Q 928 2841 928 2578 
Q 928 2378 1081 2264 
Q 1234 2150 1697 2047 
L 1894 2003 
Q 2506 1872 2764 1633 
Q 3022 1394 3022 966 
Q 3022 478 2636 193 
Q 2250 -91 1575 -91 
Q 1294 -91 989 -36 
Q 684 19 347 128 
L 347 722 
Q 666 556 975 473 
Q 1284 391 1588 391 
Q 1994 391 2212 530 
Q 2431 669 2431 922 
Q 2431 1156 2273 1281 
Q 2116 1406 1581 1522 
L 1381 1569 
Q 847 1681 609 1914 
Q 372 2147 372 2553 
Q 372 3047 722 3315 
Q 1072 3584 1716 3584 
Q 2034 3584 2315 3537 
Q 2597 3491 2834 3397 
z
" transform="scale(0.015625)"/>
      <path id="DejaVuSans-70" d="M 1159 525 
L 1159 -1331 
L 581 -1331 
L 581 3500 
L 1159 3500 
L 1159 2969 
Q 1341 3281 1617 3432 
Q 1894 3584 2278 3584 
Q 2916 3584 3314 3078 
Q 3713 2572 3713 1747 
Q 3713 922 3314 415 
Q 2916 -91 2278 -91 
Q 1894 -91 1617 61 
Q 1341 213 1159 525 
z
M 3116 1747 
Q 3116 2381 2855 2742 
Q 2594 3103 2138 3103 
Q 1681 3103 1420 2742 
Q 1159 2381 1159 1747 
Q 1159 1113 1420 752 
Q 1681 391 2138 391 
Q 2594 391 2855 752 
Q 3116 1113 3116 1747 
z
" transform="scale(0.015625)"/>
      <path id="DejaVuSans-6c" d="M 603 4863 
L 1178 4863 
L 1178 0 
L 603 0 
L 603 4863 
z
" transform="scale(0.015625)"/>
      <path id="DejaVuSans-65" d="M 3597 1894 
L 3597 1613 
L 953 1613 
Q 991 1019 1311 708 
Q 1631 397 2203 397 
Q 2534 397 2845 478 
Q 3156 559 3463 722 
L 3463 178 
Q 3153 47 2828 -22 
Q 2503 -91 2169 -91 
Q 1331 -91 842 396 
Q 353 884 353 1716 
Q 353 2575 817 3079 
Q 1281 3584 2069 3584 
Q 2775 3584 3186 3129 
Q 3597 2675 3597 1894 
z
M 3022 2063 
Q 3016 2534 2758 2815 
Q 2500 3097 2075 3097 
Q 1594 3097 1305 2825 
Q 1016 2553 972 2059 
L 3022 2063 
z
" transform="scale(0.015625)"/>
      <path id="DejaVuSans-28" d="M 1984 4856 
Q 1566 4138 1362 3434 
Q 1159 2731 1159 2009 
Q 1159 1288 1364 580 
Q 1569 -128 1984 -844 
L 1484 -844 
Q 1016 -109 783 600 
Q 550 1309 550 2009 
Q 550 2706 781 3412 
Q 1013 4119 1484 4856 
L 1984 4856 
z
" transform="scale(0.015625)"/>
      <path id="DejaVuSans-3bc" d="M 544 -1331 
L 544 3500 
L 1119 3500 
L 1119 1325 
Q 1119 872 1334 640 
Q 1550 409 1972 409 
Q 2434 409 2667 671 
Q 2900 934 2900 1459 
L 2900 3500 
L 3475 3500 
L 3475 806 
Q 3475 619 3529 530 
Q 3584 441 3700 441 
Q 3728 441 3778 458 
Q 3828 475 3916 513 
L 3916 50 
Q 3788 -22 3673 -56 
Q 3559 -91 3450 -91 
Q 3234 -91 3106 31 
Q 2978 153 2931 403 
Q 2775 156 2548 32 
Q 2322 -91 2016 -91 
Q 1697 -91 1473 31 
Q 1250 153 1119 397 
L 1119 -1331 
L 544 -1331 
z
" transform="scale(0.015625)"/>
      <path id="DejaVuSans-2c" d="M 750 794 
L 1409 794 
L 1409 256 
L 897 -744 
L 494 -744 
L 750 256 
L 750 794 
z
" transform="scale(0.015625)"/>
      <path id="DejaVuSans-3c3" d="M 1959 3044 
Q 1484 3044 1228 2700 
Q 959 2341 959 1747 
Q 959 1119 1226 758 
Q 1494 397 1959 397 
Q 2419 397 2687 759 
Q 2956 1122 2956 1747 
Q 2956 2319 2688 2700 
Q 2441 3044 1959 3044 
z
M 1959 3500 
L 3869 3500 
L 3869 2925 
L 3225 2925 
Q 3566 2438 3566 1747 
Q 3566 888 3138 400 
Q 2709 -91 1959 -91 
Q 1206 -91 781 400 
Q 353 888 353 1747 
Q 353 2613 781 3097 
Q 1134 3500 1959 3500 
z
" transform="scale(0.015625)"/>
      <path id="DejaVuSans-37" d="M 525 4666 
L 3525 4666 
L 3525 4397 
L 1831 0 
L 1172 0 
L 2766 4134 
L 525 4134 
L 525 4666 
z
" transform="scale(0.015625)"/>
      <path id="DejaVuSans-29" d="M 513 4856 
L 1013 4856 
Q 1481 4119 1714 3412 
Q 1947 2706 1947 2009 
Q 1947 1309 1714 600 
Q 1481 -109 1013 -844 
L 513 -844 
Q 928 -128 1133 580 
Q 1338 1288 1338 2009 
Q 1338 2731 1133 3434 
Q 928 4138 513 4856 
z
" transform="scale(0.015625)"/>
      <path id="DejaVuSans-6f" d="M 1959 3097 
Q 1497 3097 1228 2736 
Q 959 2375 959 1747 
Q 959 1119 1226 758 
Q 1494 397 1959 397 
Q 2419 397 2687 759 
Q 2956 1122 2956 1747 
Q 2956 2369 2687 2733 
Q 2419 3097 1959 3097 
z
M 1959 3584 
Q 2709 3584 3137 3096 
Q 3566 2609 3566 1747 
Q 3566 888 3137 398 
Q 2709 -91 1959 -91 
Q 1206 -91 779 398 
Q 353 888 353 1747 
Q 353 2609 779 3096 
Q 1206 3584 1959 3584 
z
" transform="scale(0.015625)"/>
      <path id="DejaVuSans-66" d="M 2375 4863 
L 2375 4384 
L 1825 4384 
Q 1516 4384 1395 4259 
Q 1275 4134 1275 3809 
L 1275 3500 
L 2222 3500 
L 2222 3053 
L 1275 3053 
L 1275 0 
L 697 0 
L 697 3053 
L 147 3053 
L 147 3500 
L 697 3500 
L 697 3744 
Q 697 4328 969 4595 
Q 1241 4863 1831 4863 
L 2375 4863 
z
" transform="scale(0.015625)"/>
      <path id="DejaVuSans-74" d="M 1172 4494 
L 1172 3500 
L 2356 3500 
L 2356 3053 
L 1172 3053 
L 1172 1153 
Q 1172 725 1289 603 
Q 1406 481 1766 481 
L 2356 481 
L 2356 0 
L 1766 0 
Q 1100 0 847 248 
Q 594 497 594 1153 
L 594 3053 
L 172 3053 
L 172 3500 
L 594 3500 
L 594 4494 
L 1172 4494 
z
" transform="scale(0.015625)"/>
      <path id="DejaVuSans-72" d="M 2631 2963 
Q 2534 3019 2420 3045 
Q 2306 3072 2169 3072 
Q 1681 3072 1420 2755 
Q 1159 2438 1159 1844 
L 1159 0 
L 581 0 
L 581 3500 
L 1159 3500 
L 1159 2956 
Q 1341 3275 1631 3429 
Q 1922 3584 2338 3584 
Q 2397 3584 2469 3576 
Q 2541 3569 2628 3553 
L 2631 2963 
z
" transform="scale(0.015625)"/>
      <path id="DejaVuSans-5b" d="M 550 4863 
L 1875 4863 
L 1875 4416 
L 1125 4416 
L 1125 -397 
L 1875 -397 
L 1875 -844 
L 550 -844 
L 550 4863 
z
" transform="scale(0.015625)"/>
      <path id="DejaVuSans-39" d="M 703 97 
L 703 672 
Q 941 559 1184 500 
Q 1428 441 1663 441 
Q 2288 441 2617 861 
Q 2947 1281 2994 2138 
Q 2813 1869 2534 1725 
Q 2256 1581 1919 1581 
Q 1219 1581 811 2004 
Q 403 2428 403 3163 
Q 403 3881 828 4315 
Q 1253 4750 1959 4750 
Q 2769 4750 3195 4129 
Q 3622 3509 3622 2328 
Q 3622 1225 3098 567 
Q 2575 -91 1691 -91 
Q 1453 -91 1209 -44 
Q 966 3 703 97 
z
M 1959 2075 
Q 2384 2075 2632 2365 
Q 2881 2656 2881 3163 
Q 2881 3666 2632 3958 
Q 2384 4250 1959 4250 
Q 1534 4250 1286 3958 
Q 1038 3666 1038 3163 
Q 1038 2656 1286 2365 
Q 1534 2075 1959 2075 
z
" transform="scale(0.015625)"/>
      <path id="DejaVuSans-5d" d="M 1947 4863 
L 1947 -844 
L 622 -844 
L 622 -397 
L 1369 -397 
L 1369 4416 
L 622 4416 
L 622 4863 
L 1947 4863 
z
" transform="scale(0.015625)"/>
      <path id="DejaVuSans-2208" d="M 1072 1959 
Q 1094 1728 1291 1353 
Q 1522 919 1959 675 
Q 2388 438 2850 434 
L 5028 434 
L 5028 -63 
L 2850 -63 
Q 2250 -63 1695 246 
Q 1141 556 844 1106 
Q 547 1656 547 2241 
Q 547 2819 844 3369 
Q 1141 3919 1695 4231 
Q 2250 4544 2850 4544 
L 5028 4544 
L 5028 4047 
L 2850 4047 
Q 2388 4044 1959 3803 
Q 1525 3556 1291 3125 
Q 1091 2750 1063 2459 
L 5028 2459 
L 5028 1959 
L 1072 1959 
z
" transform="scale(0.015625)"/>
     </defs>
     <use xlink:href="#DejaVuSans-31"/>
     <use xlink:href="#DejaVuSans-30" x="63.623047"/>
     <use xlink:href="#DejaVuSans-30" x="127.246094"/>
     <use xlink:href="#DejaVuSans-30" x="190.869141"/>
     <use xlink:href="#DejaVuSans-30" x="254.492188"/>
     <use xlink:href="#DejaVuSans-20" x="318.115234"/>
     <use xlink:href="#DejaVuSans-73" x="349.902344"/>
     <use xlink:href="#DejaVuSans-61" x="402.001953"/>
     <use xlink:href="#DejaVuSans-6d" x="463.28125"/>
     <use xlink:href="#DejaVuSans-70" x="560.693359"/>
     <use xlink:href="#DejaVuSans-6c" x="624.169922"/>
     <use xlink:href="#DejaVuSans-65" x="651.953125"/>
     <use xlink:href="#DejaVuSans-73" x="713.476562"/>
     <use xlink:href="#DejaVuSans-20" x="765.576172"/>
     <use xlink:href="#DejaVuSans-28" x="797.363281"/>
     <use xlink:href="#DejaVuSans-3bc" x="836.376953"/>
     <use xlink:href="#DejaVuSans-3d" x="900"/>
     <use xlink:href="#DejaVuSans-32" x="983.789062"/>
     <use xlink:href="#DejaVuSans-2e" x="1047.412109"/>
     <use xlink:href="#DejaVuSans-36" x="1079.199219"/>
     <use xlink:href="#DejaVuSans-30" x="1142.822266"/>
     <use xlink:href="#DejaVuSans-38" x="1206.445312"/>
     <use xlink:href="#DejaVuSans-2c" x="1270.068359"/>
     <use xlink:href="#DejaVuSans-20" x="1301.855469"/>
     <use xlink:href="#DejaVuSans-3c3" x="1333.642578"/>
     <use xlink:href="#DejaVuSans-3d" x="1397.021484"/>
     <use xlink:href="#DejaVuSans-31" x="1480.810547"/>
     <use xlink:href="#DejaVuSans-2e" x="1544.433594"/>
     <use xlink:href="#DejaVuSans-30" x="1576.220703"/>
     <use xlink:href="#DejaVuSans-37" x="1639.84375"/>
     <use xlink:href="#DejaVuSans-37" x="1703.466797"/>
     <use xlink:href="#DejaVuSans-29" x="1767.089844"/>
     <use xlink:href="#DejaVuSans-20" x="1806.103516"/>
     <use xlink:href="#DejaVuSans-6f" x="1837.890625"/>
     <use xlink:href="#DejaVuSans-66" x="1899.072266"/>
     <use xlink:href="#DejaVuSans-20" x="1934.277344"/>
     <use xlink:href="#DejaVuSans-74" x="1966.064453"/>
     <use xlink:href="#DejaVuSans-65" x="2005.273438"/>
     <use xlink:href="#DejaVuSans-6e" x="2066.796875"/>
     <use xlink:href="#DejaVuSans-73" x="2130.175781"/>
     <use xlink:href="#DejaVuSans-6f" x="2182.275391"/>
     <use xlink:href="#DejaVuSans-72" x="2243.457031"/>
     <use xlink:href="#DejaVuSans-5b" x="2284.570312"/>
     <use xlink:href="#DejaVuSans-33" x="2323.583984"/>
     <use xlink:href="#DejaVuSans-2c" x="2387.207031"/>
     <use xlink:href="#DejaVuSans-20" x="2418.994141"/>
     <use xlink:href="#DejaVuSans-31" x="2450.78125"/>
     <use xlink:href="#DejaVuSans-39" x="2514.404297"/>
     <use xlink:href="#DejaVuSans-36" x="2578.027344"/>
     <use xlink:href="#DejaVuSans-2c" x="2641.650391"/>
     <use xlink:href="#DejaVuSans-20" x="2673.4375"/>
     <use xlink:href="#DejaVuSans-31" x="2705.224609"/>
     <use xlink:href="#DejaVuSans-39" x="2768.847656"/>
     <use xlink:href="#DejaVuSans-36" x="2832.470703"/>
     <use xlink:href="#DejaVuSans-5d" x="2896.09375"/>
     <use xlink:href="#DejaVuSans-20" x="2935.107422"/>
     <use xlink:href="#DejaVuSans-6e" x="2966.894531"/>
     <use xlink:href="#DejaVuSans-3d" x="3030.273438"/>
     <use xlink:href="#DejaVuSans-31" x="3114.0625"/>
     <use xlink:href="#DejaVuSans-31" x="3177.685547"/>
     <use xlink:href="#DejaVuSans-35" x="3241.308594"/>
     <use xlink:href="#DejaVuSans-32" x="3304.931641"/>
     <use xlink:href="#DejaVuSans-34" x="3368.554688"/>
     <use xlink:href="#DejaVuSans-38" x="3432.177734"/>
     <use xlink:href="#DejaVuSans-20" x="3495.800781"/>
     <use xlink:href="#DejaVuSans-78" x="3527.587891"/>
     <use xlink:href="#DejaVuSans-2208" x="3586.767578"/>
     <use xlink:href="#DejaVuSans-5b" x="3673.876953"/>
     <use xlink:href="#DejaVuSans-30" x="3712.890625"/>
     <use xlink:href="#DejaVuSans-2e" x="3776.513672"/>
     <use xlink:href="#DejaVuSans-38" x="3808.300781"/>
     <use xlink:href="#DejaVuSans-38" x="3871.923828"/>
     <use xlink:href="#DejaVuSans-32" x="3935.546875"/>
     <use xlink:href="#DejaVuSans-2c" x="3999.169922"/>
     <use xlink:href="#DejaVuSans-20" x="4030.957031"/>
     <use xlink:href="#DejaVuSans-35" x="4062.744141"/>
     <use xlink:href="#DejaVuSans-2e" x="4126.367188"/>
     <use xlink:href="#DejaVuSans-36" x="4158.154297"/>
     <use xlink:href="#DejaVuSans-34" x="4221.777344"/>
     <use xlink:href="#DejaVuSans-30" x="4285.400391"/>
     <use xlink:href="#DejaVuSans-5d" x="4349.023438"/>
     <use xlink:href="#DejaVuSans-20" x="4388.037109"/>
     <use xlink:href="#DejaVuSans-3bc" x="4419.824219"/>
     <use xlink:href="#DejaVuSans-3d" x="4483.447266"/>
     <use xlink:href="#DejaVuSans-32" x="4567.236328"/>
     <use xlink:href="#DejaVuSans-2e" x="4630.859375"/>
     <use xlink:href="#DejaVuSans-36" x="4662.646484"/>
     <use xlink:href="#DejaVuSans-31" x="4726.269531"/>
     <use xlink:href="#DejaVuSans-32" x="4789.892578"/>
     <use xlink:href="#DejaVuSans-20" x="4853.515625"/>
     <use xlink:href="#DejaVuSans-3c3" x="4885.302734"/>
     <use xlink:href="#DejaVuSans-3d" x="4948.681641"/>
     <use xlink:href="#DejaVuSans-31" x="5032.470703"/>
     <use xlink:href="#DejaVuSans-2e" x="5096.09375"/>
     <use xlink:href="#DejaVuSans-30" x="5127.880859"/>
     <use xlink:href="#DejaVuSans-37" x="5191.503906"/>
     <use xlink:href="#DejaVuSans-33" x="5255.126953"/>
    </g>
   </g>
   <g id="patch_9">
    <path d="M 32.59828 128.528148 
L 41.153615 128.528148 
L 41.153615 128.334609 
L 32.59828 128.334609 
z
" clip-path="url(#p0a76fdce7d)" style="fill: #00bfff"/>
   </g>
   <g id="patch_10">
    <path d="M 41.153615 128.528148 
L 49.70895 128.528148 
L 49.70895 126.979841 
L 41.153615 126.979841 
z
" clip-path="url(#p0a76fdce7d)" style="fill: #00bfff"/>
   </g>
   <g id="patch_11">
    <path d="M 49.70895 128.528148 
L 58.264286 128.528148 
L 58.264286 123.689688 
L 49.70895 123.689688 
z
" clip-path="url(#p0a76fdce7d)" style="fill: #00bfff"/>
   </g>
   <g id="patch_12">
    <path d="M 58.264286 128.528148 
L 66.819621 128.528148 
L 66.819621 124.65738 
L 58.264286 124.65738 
z
" clip-path="url(#p0a76fdce7d)" style="fill: #00bfff"/>
   </g>
   <g id="patch_13">
    <path d="M 66.819621 128.528148 
L 75.374956 128.528148 
L 75.374956 118.270614 
L 66.819621 118.270614 
z
" clip-path="url(#p0a76fdce7d)" style="fill: #00bfff"/>
   </g>
   <g id="patch_14">
    <path d="M 75.374956 128.528148 
L 83.930292 128.528148 
L 83.930292 117.689999 
L 75.374956 117.689999 
z
" clip-path="url(#p0a76fdce7d)" style="fill: #00bfff"/>
   </g>
   <g id="patch_15">
    <path d="M 83.930292 128.528148 
L 92.485606 128.528148 
L 92.485606 114.399813 
L 83.930292 114.399813 
z
" clip-path="url(#p0a76fdce7d)" style="fill: #00bfff"/>
   </g>
   <g id="patch_16">
    <path d="M 92.485606 128.528148 
L 101.040942 128.528148 
L 101.040942 108.013081 
L 92.485606 108.013081 
z
" clip-path="url(#p0a76fdce7d)" style="fill: #00bfff"/>
   </g>
   <g id="patch_17">
    <path d="M 101.040942 128.528148 
L 109.596277 128.528148 
L 109.596277 105.884158 
L 101.040942 105.884158 
z
" clip-path="url(#p0a76fdce7d)" style="fill: #00bfff"/>
   </g>
   <g id="patch_18">
    <path d="M 109.596277 128.528148 
L 118.151612 128.528148 
L 118.151612 108.206619 
L 109.596277 108.206619 
z
" clip-path="url(#p0a76fdce7d)" style="fill: #00bfff"/>
   </g>
   <g id="patch_19">
    <path d="M 118.151612 128.528148 
L 126.706947 128.528148 
L 126.706947 103.561698 
L 118.151612 103.561698 
z
" clip-path="url(#p0a76fdce7d)" style="fill: #00bfff"/>
   </g>
   <g id="patch_20">
    <path d="M 126.706947 128.528148 
L 135.262283 128.528148 
L 135.262283 107.238927 
L 126.706947 107.238927 
z
" clip-path="url(#p0a76fdce7d)" style="fill: #00bfff"/>
   </g>
   <g id="patch_21">
    <path d="M 135.262283 128.528148 
L 143.817618 128.528148 
L 143.817618 99.497392 
L 135.262283 99.497392 
z
" clip-path="url(#p0a76fdce7d)" style="fill: #00bfff"/>
   </g>
   <g id="patch_22">
    <path d="M 143.817618 128.528148 
L 152.372953 128.528148 
L 152.372953 99.497392 
L 143.817618 99.497392 
z
" clip-path="url(#p0a76fdce7d)" style="fill: #00bfff"/>
   </g>
   <g id="patch_23">
    <path d="M 152.372953 128.528148 
L 160.928289 128.528148 
L 160.928289 94.465395 
L 152.372953 94.465395 
z
" clip-path="url(#p0a76fdce7d)" style="fill: #00bfff"/>
   </g>
   <g id="patch_24">
    <path d="M 160.928289 128.528148 
L 169.483624 128.528148 
L 169.483624 86.143245 
L 160.928289 86.143245 
z
" clip-path="url(#p0a76fdce7d)" style="fill: #00bfff"/>
   </g>
   <g id="patch_25">
    <path d="M 169.483624 128.528148 
L 178.038959 128.528148 
L 178.038959 78.014633 
L 169.483624 78.014633 
z
" clip-path="url(#p0a76fdce7d)" style="fill: #00bfff"/>
   </g>
   <g id="patch_26">
    <path d="M 178.038959 128.528148 
L 186.594295 128.528148 
L 186.594295 85.949706 
L 178.038959 85.949706 
z
" clip-path="url(#p0a76fdce7d)" style="fill: #00bfff"/>
   </g>
   <g id="patch_27">
    <path d="M 186.594295 128.528148 
L 195.14963 128.528148 
L 195.14963 59.241412 
L 186.594295 59.241412 
z
" clip-path="url(#p0a76fdce7d)" style="fill: #00bfff"/>
   </g>
   <g id="patch_28">
    <path d="M 195.14963 128.528148 
L 203.704965 128.528148 
L 203.704965 54.596491 
L 195.14963 54.596491 
z
" clip-path="url(#p0a76fdce7d)" style="fill: #00bfff"/>
   </g>
   <g id="patch_29">
    <path d="M 203.704965 128.528148 
L 212.26028 128.528148 
L 212.26028 60.0154 
L 203.704965 60.0154 
z
" clip-path="url(#p0a76fdce7d)" style="fill: #00bfff"/>
   </g>
   <g id="patch_30">
    <path d="M 212.26028 128.528148 
L 220.815615 128.528148 
L 220.815615 73.950328 
L 212.26028 73.950328 
z
" clip-path="url(#p0a76fdce7d)" style="fill: #00bfff"/>
   </g>
   <g id="patch_31">
    <path d="M 220.815615 128.528148 
L 229.370971 128.528148 
L 229.370971 80.143672 
L 220.815615 80.143672 
z
" clip-path="url(#p0a76fdce7d)" style="fill: #00bfff"/>
   </g>
   <g id="patch_32">
    <path d="M 229.370971 128.528148 
L 237.926286 128.528148 
L 237.926286 87.691453 
L 229.370971 87.691453 
z
" clip-path="url(#p0a76fdce7d)" style="fill: #00bfff"/>
   </g>
   <g id="patch_33">
    <path d="M 237.926286 128.528148 
L 246.481642 128.528148 
L 246.481642 69.692626 
L 237.926286 69.692626 
z
" clip-path="url(#p0a76fdce7d)" style="fill: #00bfff"/>
   </g>
   <g id="patch_34">
    <path d="M 246.481642 128.528148 
L 255.036956 128.528148 
L 255.036956 73.369579 
L 246.481642 73.369579 
z
" clip-path="url(#p0a76fdce7d)" style="fill: #00bfff"/>
   </g>
   <g id="patch_35">
    <path d="M 255.036956 128.528148 
L 263.592312 128.528148 
L 263.592312 64.854178 
L 255.036956 64.854178 
z
" clip-path="url(#p0a76fdce7d)" style="fill: #00bfff"/>
   </g>
   <g id="patch_36">
    <path d="M 263.592312 128.528148 
L 272.147627 128.528148 
L 272.147627 49.177225 
L 263.592312 49.177225 
z
" clip-path="url(#p0a76fdce7d)" style="fill: #00bfff"/>
   </g>
   <g id="patch_37">
    <path d="M 272.147627 128.528148 
L 280.702942 128.528148 
L 280.702942 61.176633 
L 272.147627 61.176633 
z
" clip-path="url(#p0a76fdce7d)" style="fill: #00bfff"/>
   </g>
   <g id="patch_38">
    <path d="M 280.702942 128.528148 
L 289.258298 128.528148 
L 289.258298 66.596019 
L 280.702942 66.596019 
z
" clip-path="url(#p0a76fdce7d)" style="fill: #00bfff"/>
   </g>
   <g id="patch_39">
    <path d="M 289.258298 128.528148 
L 297.813612 128.528148 
L 297.813612 61.56371 
L 289.258298 61.56371 
z
" clip-path="url(#p0a76fdce7d)" style="fill: #00bfff"/>
   </g>
   <g id="patch_40">
    <path d="M 297.813612 128.528148 
L 306.368968 128.528148 
L 306.368968 61.95111 
L 297.813612 61.95111 
z
" clip-path="url(#p0a76fdce7d)" style="fill: #00bfff"/>
   </g>
   <g id="patch_41">
    <path d="M 306.368968 128.528148 
L 314.924283 128.528148 
L 314.924283 71.240652 
L 306.368968 71.240652 
z
" clip-path="url(#p0a76fdce7d)" style="fill: #00bfff"/>
   </g>
   <g id="patch_42">
    <path d="M 314.924283 128.528148 
L 323.479639 128.528148 
L 323.479639 79.369521 
L 314.924283 79.369521 
z
" clip-path="url(#p0a76fdce7d)" style="fill: #00bfff"/>
   </g>
   <g id="patch_43">
    <path d="M 323.479639 128.528148 
L 332.034954 128.528148 
L 332.034954 99.110245 
L 323.479639 99.110245 
z
" clip-path="url(#p0a76fdce7d)" style="fill: #00bfff"/>
   </g>
   <g id="patch_44">
    <path d="M 332.034954 128.528148 
L 340.59031 128.528148 
L 340.59031 97.175008 
L 332.034954 97.175008 
z
" clip-path="url(#p0a76fdce7d)" style="fill: #00bfff"/>
   </g>
   <g id="patch_45">
    <path d="M 340.59031 128.528148 
L 349.145624 128.528148 
L 349.145624 105.109948 
L 340.59031 105.109948 
z
" clip-path="url(#p0a76fdce7d)" style="fill: #00bfff"/>
   </g>
   <g id="patch_46">
    <path d="M 349.145624 128.528148 
L 357.70098 128.528148 
L 357.70098 112.851578 
L 349.145624 112.851578 
z
" clip-path="url(#p0a76fdce7d)" style="fill: #00bfff"/>
   </g>
   <g id="patch_47">
    <path d="M 357.70098 128.528148 
L 366.256295 128.528148 
L 366.256295 118.851206 
L 357.70098 118.851206 
z
" clip-path="url(#p0a76fdce7d)" style="fill: #00bfff"/>
   </g>
   <g id="patch_48">
    <path d="M 366.256295 128.528148 
L 374.811651 128.528148 
L 374.811651 121.173707 
L 366.256295 121.173707 
z
" clip-path="url(#p0a76fdce7d)" style="fill: #00bfff"/>
   </g>
   <g id="patch_49">
    <path d="M 374.811651 128.528148 
L 383.366965 128.528148 
L 383.366965 115.561046 
L 374.811651 115.561046 
z
" clip-path="url(#p0a76fdce7d)" style="fill: #00bfff"/>
   </g>
   <g id="patch_50">
    <path d="M 383.366965 128.528148 
L 391.92228 128.528148 
L 391.92228 121.754288 
L 383.366965 121.754288 
z
" clip-path="url(#p0a76fdce7d)" style="fill: #00bfff"/>
   </g>
   <g id="patch_51">
    <path d="M 391.92228 128.528148 
L 400.477636 128.528148 
L 400.477636 123.302624 
L 391.92228 123.302624 
z
" clip-path="url(#p0a76fdce7d)" style="fill: #00bfff"/>
   </g>
   <g id="patch_52">
    <path d="M 400.477636 128.528148 
L 409.032951 128.528148 
L 409.032951 121.947827 
L 400.477636 121.947827 
z
" clip-path="url(#p0a76fdce7d)" style="fill: #00bfff"/>
   </g>
   <g id="patch_53">
    <path d="M 409.032951 128.528148 
L 417.588307 128.528148 
L 417.588307 121.173707 
L 409.032951 121.173707 
z
" clip-path="url(#p0a76fdce7d)" style="fill: #00bfff"/>
   </g>
   <g id="patch_54">
    <path d="M 417.588307 128.528148 
L 426.143621 128.528148 
L 426.143621 122.334905 
L 417.588307 122.334905 
z
" clip-path="url(#p0a76fdce7d)" style="fill: #00bfff"/>
   </g>
   <g id="patch_55">
    <path d="M 426.143621 128.528148 
L 434.698977 128.528148 
L 434.698977 120.980169 
L 426.143621 120.980169 
z
" clip-path="url(#p0a76fdce7d)" style="fill: #00bfff"/>
   </g>
   <g id="patch_56">
    <path d="M 434.698977 128.528148 
L 443.254292 128.528148 
L 443.254292 121.367211 
L 434.698977 121.367211 
z
" clip-path="url(#p0a76fdce7d)" style="fill: #00bfff"/>
   </g>
   <g id="patch_57">
    <path d="M 443.254292 128.528148 
L 451.809648 128.528148 
L 451.809648 120.980169 
L 443.254292 120.980169 
z
" clip-path="url(#p0a76fdce7d)" style="fill: #00bfff"/>
   </g>
   <g id="patch_58">
    <path d="M 451.809648 128.528148 
L 460.364963 128.528148 
L 460.364963 120.399516 
L 451.809648 120.399516 
z
" clip-path="url(#p0a76fdce7d)" style="fill: #00bfff"/>
   </g>
   <g id="patch_59">
    <path d="M 460.364963 128.528148 
L 468.920319 128.528148 
L 468.920319 121.367245 
L 460.364963 121.367245 
z
" clip-path="url(#p0a76fdce7d)" style="fill: #00bfff"/>
   </g>
   <g id="patch_60">
    <path d="M 468.920319 128.528148 
L 477.475633 128.528148 
L 477.475633 120.980133 
L 468.920319 120.980133 
z
" clip-path="url(#p0a76fdce7d)" style="fill: #00bfff"/>
   </g>
   <g id="patch_61">
    <path d="M 477.475633 128.528148 
L 486.030989 128.528148 
L 486.030989 120.01248 
L 477.475633 120.01248 
z
" clip-path="url(#p0a76fdce7d)" style="fill: #00bfff"/>
   </g>
   <g id="patch_62">
    <path d="M 486.030989 128.528148 
L 494.586304 128.528148 
L 494.586304 123.883216 
L 486.030989 123.883216 
z
" clip-path="url(#p0a76fdce7d)" style="fill: #00bfff"/>
   </g>
   <g id="patch_63">
    <path d="M 494.586304 128.528148 
L 503.141618 128.528148 
L 503.141618 120.012439 
L 494.586304 120.012439 
z
" clip-path="url(#p0a76fdce7d)" style="fill: #00bfff"/>
   </g>
   <g id="patch_64">
    <path d="M 503.141618 128.528148 
L 511.696974 128.528148 
L 511.696974 122.722011 
L 503.141618 122.722011 
z
" clip-path="url(#p0a76fdce7d)" style="fill: #00bfff"/>
   </g>
   <g id="patch_65">
    <path d="M 511.696974 128.528148 
L 520.252289 128.528148 
L 520.252289 122.141366 
L 511.696974 122.141366 
z
" clip-path="url(#p0a76fdce7d)" style="fill: #00bfff"/>
   </g>
   <g id="patch_66">
    <path d="M 520.252289 128.528148 
L 528.807645 128.528148 
L 528.807645 121.560783 
L 520.252289 121.560783 
z
" clip-path="url(#p0a76fdce7d)" style="fill: #00bfff"/>
   </g>
   <g id="patch_67">
    <path d="M 528.807645 128.528148 
L 537.36296 128.528148 
L 537.36296 122.141366 
L 528.807645 122.141366 
z
" clip-path="url(#p0a76fdce7d)" style="fill: #00bfff"/>
   </g>
   <g id="patch_68">
    <path d="M 537.36296 128.528148 
L 545.918316 128.528148 
L 545.918316 124.463852 
L 537.36296 124.463852 
z
" clip-path="url(#p0a76fdce7d)" style="fill: #00bfff"/>
   </g>
   <g id="patch_69">
    <path d="M 545.918316 128.528148 
L 554.47363 128.528148 
L 554.47363 124.076754 
L 545.918316 124.076754 
z
" clip-path="url(#p0a76fdce7d)" style="fill: #00bfff"/>
   </g>
   <g id="patch_70">
    <path d="M 554.47363 128.528148 
L 563.028986 128.528148 
L 563.028986 125.818617 
L 554.47363 125.818617 
z
" clip-path="url(#p0a76fdce7d)" style="fill: #00bfff"/>
   </g>
   <g id="patch_71">
    <path d="M 563.028986 128.528148 
L 571.584342 128.528148 
L 571.584342 124.270314 
L 563.028986 124.270314 
z
" clip-path="url(#p0a76fdce7d)" style="fill: #00bfff"/>
   </g>
   <g id="patch_72">
    <path d="M 571.584342 128.528148 
L 580.139657 128.528148 
L 580.139657 124.270293 
L 571.584342 124.270293 
z
" clip-path="url(#p0a76fdce7d)" style="fill: #00bfff"/>
   </g>
   <g id="patch_73">
    <path d="M 580.139657 128.528148 
L 588.694972 128.528148 
L 588.694972 123.302599 
L 580.139657 123.302599 
z
" clip-path="url(#p0a76fdce7d)" style="fill: #00bfff"/>
   </g>
   <g id="patch_74">
    <path d="M 588.694972 128.528148 
L 597.250286 128.528148 
L 597.250286 122.721983 
L 588.694972 122.721983 
z
" clip-path="url(#p0a76fdce7d)" style="fill: #00bfff"/>
   </g>
   <g id="patch_75">
    <path d="M 597.250286 128.528148 
L 605.805683 128.528148 
L 605.805683 122.334965 
L 597.250286 122.334965 
z
" clip-path="url(#p0a76fdce7d)" style="fill: #00bfff"/>
   </g>
   <g id="patch_76">
    <path d="M 605.805683 128.528148 
L 614.360998 128.528148 
L 614.360998 122.334905 
L 605.805683 122.334905 
z
" clip-path="url(#p0a76fdce7d)" style="fill: #00bfff"/>
   </g>
   <g id="patch_77">
    <path d="M 614.360998 128.528148 
L 622.916313 128.528148 
L 622.916313 122.141366 
L 614.360998 122.141366 
z
" clip-path="url(#p0a76fdce7d)" style="fill: #00bfff"/>
   </g>
   <g id="patch_78">
    <path d="M 622.916313 128.528148 
L 631.471627 128.528148 
L 631.471627 120.205978 
L 622.916313 120.205978 
z
" clip-path="url(#p0a76fdce7d)" style="fill: #00bfff"/>
   </g>
   <g id="patch_79">
    <path d="M 631.471627 128.528148 
L 640.026942 128.528148 
L 640.026942 122.334905 
L 631.471627 122.334905 
z
" clip-path="url(#p0a76fdce7d)" style="fill: #00bfff"/>
   </g>
   <g id="patch_80">
    <path d="M 640.026942 128.528148 
L 648.582339 128.528148 
L 648.582339 118.464225 
L 640.026942 118.464225 
z
" clip-path="url(#p0a76fdce7d)" style="fill: #00bfff"/>
   </g>
   <g id="patch_81">
    <path d="M 648.582339 128.528148 
L 657.137654 128.528148 
L 657.137654 115.561046 
L 648.582339 115.561046 
z
" clip-path="url(#p0a76fdce7d)" style="fill: #00bfff"/>
   </g>
   <g id="patch_82">
    <path d="M 657.137654 128.528148 
L 665.692969 128.528148 
L 665.692969 117.302895 
L 657.137654 117.302895 
z
" clip-path="url(#p0a76fdce7d)" style="fill: #00bfff"/>
   </g>
   <g id="patch_83">
    <path d="M 665.692969 128.528148 
L 674.248283 128.528148 
L 674.248283 114.206274 
L 665.692969 114.206274 
z
" clip-path="url(#p0a76fdce7d)" style="fill: #00bfff"/>
   </g>
   <g id="patch_84">
    <path d="M 674.248283 128.528148 
L 682.803681 128.528148 
L 682.803681 112.658116 
L 674.248283 112.658116 
z
" clip-path="url(#p0a76fdce7d)" style="fill: #00bfff"/>
   </g>
   <g id="patch_85">
    <path d="M 682.803681 128.528148 
L 691.358995 128.528148 
L 691.358995 114.206274 
L 682.803681 114.206274 
z
" clip-path="url(#p0a76fdce7d)" style="fill: #00bfff"/>
   </g>
   <g id="patch_86">
    <path d="M 691.358995 128.528148 
L 699.91431 128.528148 
L 699.91431 112.657963 
L 691.358995 112.657963 
z
" clip-path="url(#p0a76fdce7d)" style="fill: #00bfff"/>
   </g>
   <g id="patch_87">
    <path d="M 699.91431 128.528148 
L 708.469625 128.528148 
L 708.469625 114.206274 
L 699.91431 114.206274 
z
" clip-path="url(#p0a76fdce7d)" style="fill: #00bfff"/>
   </g>
   <g id="patch_88">
    <path d="M 708.469625 128.528148 
L 717.025022 128.528148 
L 717.025022 112.077505 
L 708.469625 112.077505 
z
" clip-path="url(#p0a76fdce7d)" style="fill: #00bfff"/>
   </g>
   <g id="patch_89">
    <path d="M 717.025022 128.528148 
L 725.580336 128.528148 
L 725.580336 109.367803 
L 717.025022 109.367803 
z
" clip-path="url(#p0a76fdce7d)" style="fill: #00bfff"/>
   </g>
   <g id="patch_90">
    <path d="M 725.580336 128.528148 
L 734.135651 128.528148 
L 734.135651 112.657963 
L 725.580336 112.657963 
z
" clip-path="url(#p0a76fdce7d)" style="fill: #00bfff"/>
   </g>
   <g id="patch_91">
    <path d="M 734.135651 128.528148 
L 742.690966 128.528148 
L 742.690966 113.23858 
L 734.135651 113.23858 
z
" clip-path="url(#p0a76fdce7d)" style="fill: #00bfff"/>
   </g>
   <g id="patch_92">
    <path d="M 742.690966 128.528148 
L 751.24628 128.528148 
L 751.24628 118.270589 
L 742.690966 118.270589 
z
" clip-path="url(#p0a76fdce7d)" style="fill: #00bfff"/>
   </g>
   <g id="patch_93">
    <path d="M 751.24628 128.528148 
L 759.801678 128.528148 
L 759.801678 119.43191 
L 751.24628 119.43191 
z
" clip-path="url(#p0a76fdce7d)" style="fill: #00bfff"/>
   </g>
   <g id="patch_94">
    <path d="M 759.801678 128.528148 
L 768.356992 128.528148 
L 768.356992 118.657667 
L 759.801678 118.657667 
z
" clip-path="url(#p0a76fdce7d)" style="fill: #00bfff"/>
   </g>
   <g id="patch_95">
    <path d="M 768.356992 128.528148 
L 776.912307 128.528148 
L 776.912307 117.883512 
L 768.356992 117.883512 
z
" clip-path="url(#p0a76fdce7d)" style="fill: #00bfff"/>
   </g>
   <g id="patch_96">
    <path d="M 776.912307 128.528148 
L 785.467622 128.528148 
L 785.467622 120.399516 
L 776.912307 120.399516 
z
" clip-path="url(#p0a76fdce7d)" style="fill: #00bfff"/>
   </g>
   <g id="patch_97">
    <path d="M 785.467622 128.528148 
L 794.023019 128.528148 
L 794.023019 119.044836 
L 785.467622 119.044836 
z
" clip-path="url(#p0a76fdce7d)" style="fill: #00bfff"/>
   </g>
   <g id="patch_98">
    <path d="M 794.023019 128.528148 
L 802.578334 128.528148 
L 802.578334 124.85091 
L 794.023019 124.85091 
z
" clip-path="url(#p0a76fdce7d)" style="fill: #00bfff"/>
   </g>
   <g id="patch_99">
    <path d="M 802.578334 128.528148 
L 811.133648 128.528148 
L 811.133648 119.431822 
L 802.578334 119.431822 
z
" clip-path="url(#p0a76fdce7d)" style="fill: #00bfff"/>
   </g>
   <g id="patch_100">
    <path d="M 811.133648 128.528148 
L 819.688963 128.528148 
L 819.688963 123.496138 
L 811.133648 123.496138 
z
" clip-path="url(#p0a76fdce7d)" style="fill: #00bfff"/>
   </g>
   <g id="patch_101">
    <path d="M 819.688963 128.528148 
L 828.24436 128.528148 
L 828.24436 127.754 
L 819.688963 127.754 
z
" clip-path="url(#p0a76fdce7d)" style="fill: #00bfff"/>
   </g>
   <g id="patch_102">
    <path d="M 828.24436 128.528148 
L 836.799675 128.528148 
L 836.799675 128.334609 
L 828.24436 128.334609 
z
" clip-path="url(#p0a76fdce7d)" style="fill: #00bfff"/>
   </g>
   <g id="patch_103">
    <path d="M 836.799675 128.528148 
L 845.354989 128.528148 
L 845.354989 128.334609 
L 836.799675 128.334609 
z
" clip-path="url(#p0a76fdce7d)" style="fill: #00bfff"/>
   </g>
   <g id="line2d_12">
    <path d="M 7.2 120.064861 
L 15.866662 119.383128 
L 24.533324 118.667764 
L 33.199985 117.919342 
L 41.866647 117.138697 
L 50.533309 116.326946 
L 59.199971 115.485492 
L 67.866633 114.616039 
L 76.533295 113.720588 
L 85.199956 112.801449 
L 93.866618 111.861233 
L 102.53328 110.902852 
L 111.199942 109.929508 
L 119.866604 108.944685 
L 128.533265 107.952128 
L 137.199927 106.955829 
L 145.866589 105.960005 
L 154.533251 104.969064 
L 163.199913 103.987585 
L 171.866575 103.020277 
L 180.533236 102.071949 
L 189.199898 101.147466 
L 197.86656 100.251715 
L 206.533222 99.389556 
L 215.199884 98.565786 
L 223.866545 97.785087 
L 232.533207 97.05199 
L 241.199869 96.370825 
L 249.866531 95.745682 
L 258.533193 95.180369 
L 267.199855 94.678374 
L 275.866516 94.24283 
L 284.533178 93.876479 
L 293.19984 93.581647 
L 301.866502 93.360219 
L 310.533164 93.213616 
L 319.199825 93.142783 
L 327.866487 93.148178 
L 336.533149 93.229766 
L 345.199811 93.387019 
L 353.866473 93.618926 
L 362.533135 93.923997 
L 371.199796 94.300285 
L 379.866458 94.745404 
L 388.53312 95.256552 
L 397.199782 95.830546 
L 405.866444 96.463851 
L 414.533105 97.152615 
L 423.199767 97.892712 
L 431.866429 98.679781 
L 440.533091 99.509268 
L 449.199753 100.37647 
L 457.866415 101.276581 
L 466.533076 102.204733 
L 475.199738 103.15604 
L 483.8664 104.125642 
L 492.533062 105.108743 
L 501.199724 106.100648 
L 509.866385 107.096804 
L 518.533047 108.092824 
L 527.199709 109.084524 
L 535.866371 110.067946 
L 544.533033 111.039378 
L 553.199695 111.995378 
L 561.866356 112.932783 
L 570.533018 113.848723 
L 579.19968 114.740631 
L 587.866342 115.606239 
L 596.533004 116.443588 
L 605.199665 117.251018 
L 613.866327 118.027167 
L 622.532989 118.770959 
L 631.199651 119.481595 
L 639.866313 120.15854 
L 648.532975 120.801509 
L 657.199636 121.410447 
L 665.866298 121.985518 
L 674.53296 122.527079 
L 683.199622 123.035669 
L 691.866284 123.511984 
L 700.532945 123.95686 
L 709.199607 124.371253 
L 717.866269 124.756223 
L 726.532931 125.112912 
L 735.199593 125.442532 
L 743.866255 125.746344 
L 752.532916 126.025644 
L 761.199578 126.28175 
L 769.86624 126.51599 
L 778.532902 126.729687 
L 787.199564 126.924151 
L 795.866225 127.10067 
L 804.532887 127.260498 
L 813.199549 127.404857 
L 821.866211 127.534919 
L 830.532873 127.651814 
L 839.199535 127.756617 
L 847.866196 127.850349 
L 856.532858 127.933976 
L 865.19952 128.008408 
" clip-path="url(#p0a76fdce7d)" style="fill: none; stroke: #1f77b4; stroke-width: 1.5; stroke-linecap: square"/>
   </g>
   <g id="text_9">
    <g id="patch_104">
     <path d="M 131.30787 38.307963 
L 141.253183 38.307963 
Q 144.253183 38.307963 144.253183 35.307963 
L 144.253183 25.629838 
Q 144.253183 22.629838 141.253183 22.629838 
L 131.30787 22.629838 
Q 128.30787 22.629838 128.30787 25.629838 
L 128.30787 35.307963 
Q 128.30787 38.307963 131.30787 38.307963 
z
" style="fill: #ffffff"/>
    </g>
    <!-- -σ -->
    <g transform="translate(131.30787 33.228276) scale(0.1 -0.1)">
     <defs>
      <path id="DejaVuSans-2d" d="M 313 2009 
L 1997 2009 
L 1997 1497 
L 313 1497 
L 313 2009 
z
" transform="scale(0.015625)"/>
     </defs>
     <use xlink:href="#DejaVuSans-2d"/>
     <use xlink:href="#DejaVuSans-3c3" x="36.083984"/>
    </g>
   </g>
   <g id="text_10">
    <g id="patch_105">
     <path d="M 319.241401 38.307963 
L 326.599214 38.307963 
Q 329.599214 38.307963 329.599214 35.307963 
L 329.599214 25.629838 
Q 329.599214 22.629838 326.599214 22.629838 
L 319.241401 22.629838 
Q 316.241401 22.629838 316.241401 25.629838 
L 316.241401 35.307963 
Q 316.241401 38.307963 319.241401 38.307963 
z
" style="fill: #ffffff"/>
    </g>
    <!-- μ -->
    <g transform="translate(319.241401 33.217338) scale(0.1 -0.1)">
     <defs>
      <path id="DejaVuSans-Bold-3bc" d="M 544 -1338 
L 544 3500 
L 1672 3500 
L 1672 1466 
Q 1672 1103 1828 926 
Q 1984 750 2303 750 
Q 2625 750 2781 926 
Q 2938 1103 2938 1466 
L 2938 3500 
L 4063 3500 
L 4063 1159 
Q 4063 938 4114 850 
Q 4166 763 4288 763 
Q 4344 763 4395 778 
Q 4447 794 4506 831 
L 4506 50 
Q 4341 -22 4195 -56 
Q 4050 -91 3909 -91 
Q 3631 -91 3454 26 
Q 3278 144 3169 403 
Q 3022 156 2811 32 
Q 2600 -91 2322 -91 
Q 2091 -91 1928 -17 
Q 1766 56 1672 206 
L 1672 -1338 
L 544 -1338 
z
" transform="scale(0.015625)"/>
     </defs>
     <use xlink:href="#DejaVuSans-Bold-3bc"/>
    </g>
   </g>
   <g id="text_11">
    <g id="patch_106">
     <path d="M 502.201494 38.307963 
L 516.918682 38.307963 
Q 519.918682 38.307963 519.918682 35.307963 
L 519.918682 25.629838 
Q 519.918682 22.629838 516.918682 22.629838 
L 502.201494 22.629838 
Q 499.201494 22.629838 499.201494 25.629838 
L 499.201494 35.307963 
Q 499.201494 38.307963 502.201494 38.307963 
z
" style="fill: #ffffff"/>
    </g>
    <!-- +σ -->
    <g transform="translate(502.201494 33.228276) scale(0.1 -0.1)">
     <defs>
      <path id="DejaVuSans-2b" d="M 2944 4013 
L 2944 2272 
L 4684 2272 
L 4684 1741 
L 2944 1741 
L 2944 0 
L 2419 0 
L 2419 1741 
L 678 1741 
L 678 2272 
L 2419 2272 
L 2419 4013 
L 2944 4013 
z
" transform="scale(0.015625)"/>
     </defs>
     <use xlink:href="#DejaVuSans-2b"/>
     <use xlink:href="#DejaVuSans-3c3" x="83.789062"/>
    </g>
   </g>
   <g id="text_12">
    <g id="patch_107">
     <path d="M 685.660025 38.307963 
L 706.739712 38.307963 
Q 709.739712 38.307963 709.739712 35.307963 
L 709.739712 25.629838 
Q 709.739712 22.629838 706.739712 22.629838 
L 685.660025 22.629838 
Q 682.660025 22.629838 682.660025 25.629838 
L 682.660025 35.307963 
Q 682.660025 38.307963 685.660025 38.307963 
z
" style="fill: #ffffff"/>
    </g>
    <!-- +2σ -->
    <g transform="translate(685.660025 33.228276) scale(0.1 -0.1)">
     <use xlink:href="#DejaVuSans-2b"/>
     <use xlink:href="#DejaVuSans-32" x="83.789062"/>
     <use xlink:href="#DejaVuSans-3c3" x="147.412109"/>
    </g>
   </g>
  </g>
 </g>
 <defs>
  <clipPath id="p0a76fdce7d">
   <rect x="7.2" y="20.214138" width="857.99952" height="108.31401"/>
  </clipPath>
 </defs>
</svg>
