<?xml version="1.0" encoding="utf-8" standalone="no"?>
<!DOCTYPE svg PUBLIC "-//W3C//DTD SVG 1.1//EN"
  "http://www.w3.org/Graphics/SVG/1.1/DTD/svg11.dtd">
<svg xmlns:xlink="http://www.w3.org/1999/xlink" width="872.39952pt" height="152.406273pt" viewBox="0 0 872.39952 152.406273" xmlns="http://www.w3.org/2000/svg" version="1.1">
 <metadata>
  <rdf:RDF xmlns:dc="http://purl.org/dc/elements/1.1/" xmlns:cc="http://creativecommons.org/ns#" xmlns:rdf="http://www.w3.org/1999/02/22-rdf-syntax-ns#">
   <cc:Work>
    <dc:type rdf:resource="http://purl.org/dc/dcmitype/StillImage"/>
    <dc:format>image/svg+xml</dc:format>
    <dc:creator>
     <cc:Agent>
      <dc:title>Matplotlib, https://matplotlib.org/</dc:title>
     </cc:Agent>
    </dc:creator>
   </cc:Work>
  </rdf:RDF>
 </metadata>
 <defs>
  <style type="text/css">*{stroke-linejoin: round; stroke-linecap: butt}</style>
 </defs>
 <g id="figure_1">
  <g id="patch_1">
   <path d="M 0 152.406273 
L 872.39952 152.406273 
L 872.39952 0 
L 0 0 
z
" style="fill: #ffffff"/>
  </g>
  <g id="axes_1">
   <g id="patch_2">
    <path d="M 7.2 128.528148 
L 865.19952 128.528148 
L 865.19952 20.214138 
L 7.2 20.214138 
z
" style="fill: #ffffff"/>
   </g>
   <g id="matplotlib.axis_1">
    <g id="xtick_1">
     <g id="line2d_1">
      <defs>
       <path id="m8f1de1206a" d="M 0 0 
L 0 3.5 
" style="stroke: #000000; stroke-width: 0.8"/>
      </defs>
      <g>
       <use xlink:href="#m8f1de1206a" x="71.891728" y="128.528148" style="stroke: #000000; stroke-width: 0.8"/>
      </g>
     </g>
     <g id="text_1">
      <!-- 0 -->
      <g transform="translate(68.710478 143.126585) scale(0.1 -0.1)">
       <defs>
        <path id="DejaVuSans-30" d="M 2034 4250 
Q 1547 4250 1301 3770 
Q 1056 3291 1056 2328 
Q 1056 1369 1301 889 
Q 1547 409 2034 409 
Q 2525 409 2770 889 
Q 3016 1369 3016 2328 
Q 3016 3291 2770 3770 
Q 2525 4250 2034 4250 
z
M 2034 4750 
Q 2819 4750 3233 4129 
Q 3647 3509 3647 2328 
Q 3647 1150 3233 529 
Q 2819 -91 2034 -91 
Q 1250 -91 836 529 
Q 422 1150 422 2328 
Q 422 3509 836 4129 
Q 1250 4750 2034 4750 
z
" transform="scale(0.015625)"/>
       </defs>
       <use xlink:href="#DejaVuSans-30"/>
      </g>
     </g>
    </g>
    <g id="xtick_2">
     <g id="line2d_2">
      <g>
       <use xlink:href="#m8f1de1206a" x="209.56624" y="128.528148" style="stroke: #000000; stroke-width: 0.8"/>
      </g>
     </g>
     <g id="text_2">
      <!-- 1 -->
      <g transform="translate(206.38499 143.126585) scale(0.1 -0.1)">
       <defs>
        <path id="DejaVuSans-31" d="M 794 531 
L 1825 531 
L 1825 4091 
L 703 3866 
L 703 4441 
L 1819 4666 
L 2450 4666 
L 2450 531 
L 3481 531 
L 3481 0 
L 794 0 
L 794 531 
z
" transform="scale(0.015625)"/>
       </defs>
       <use xlink:href="#DejaVuSans-31"/>
      </g>
     </g>
    </g>
    <g id="xtick_3">
     <g id="line2d_3">
      <g>
       <use xlink:href="#m8f1de1206a" x="347.240752" y="128.528148" style="stroke: #000000; stroke-width: 0.8"/>
      </g>
     </g>
     <g id="text_3">
      <!-- 2 -->
      <g transform="translate(344.059502 143.126585) scale(0.1 -0.1)">
       <defs>
        <path id="DejaVuSans-32" d="M 1228 531 
L 3431 531 
L 3431 0 
L 469 0 
L 469 531 
Q 828 903 1448 1529 
Q 2069 2156 2228 2338 
Q 2531 2678 2651 2914 
Q 2772 3150 2772 3378 
Q 2772 3750 2511 3984 
Q 2250 4219 1831 4219 
Q 1534 4219 1204 4116 
Q 875 4013 500 3803 
L 500 4441 
Q 881 4594 1212 4672 
Q 1544 4750 1819 4750 
Q 2544 4750 2975 4387 
Q 3406 4025 3406 3419 
Q 3406 3131 3298 2873 
Q 3191 2616 2906 2266 
Q 2828 2175 2409 1742 
Q 1991 1309 1228 531 
z
" transform="scale(0.015625)"/>
       </defs>
       <use xlink:href="#DejaVuSans-32"/>
      </g>
     </g>
    </g>
    <g id="xtick_4">
     <g id="line2d_4">
      <g>
       <use xlink:href="#m8f1de1206a" x="484.915263" y="128.528148" style="stroke: #000000; stroke-width: 0.8"/>
      </g>
     </g>
     <g id="text_4">
      <!-- 3 -->
      <g transform="translate(481.734013 143.126585) scale(0.1 -0.1)">
       <defs>
        <path id="DejaVuSans-33" d="M 2597 2516 
Q 3050 2419 3304 2112 
Q 3559 1806 3559 1356 
Q 3559 666 3084 287 
Q 2609 -91 1734 -91 
Q 1441 -91 1130 -33 
Q 819 25 488 141 
L 488 750 
Q 750 597 1062 519 
Q 1375 441 1716 441 
Q 2309 441 2620 675 
Q 2931 909 2931 1356 
Q 2931 1769 2642 2001 
Q 2353 2234 1838 2234 
L 1294 2234 
L 1294 2753 
L 1863 2753 
Q 2328 2753 2575 2939 
Q 2822 3125 2822 3475 
Q 2822 3834 2567 4026 
Q 2313 4219 1838 4219 
Q 1578 4219 1281 4162 
Q 984 4106 628 3988 
L 628 4550 
Q 988 4650 1302 4700 
Q 1616 4750 1894 4750 
Q 2613 4750 3031 4423 
Q 3450 4097 3450 3541 
Q 3450 3153 3228 2886 
Q 3006 2619 2597 2516 
z
" transform="scale(0.015625)"/>
       </defs>
       <use xlink:href="#DejaVuSans-33"/>
      </g>
     </g>
    </g>
    <g id="xtick_5">
     <g id="line2d_5">
      <g>
       <use xlink:href="#m8f1de1206a" x="622.589775" y="128.528148" style="stroke: #000000; stroke-width: 0.8"/>
      </g>
     </g>
     <g id="text_5">
      <!-- 4 -->
      <g transform="translate(619.408525 143.126585) scale(0.1 -0.1)">
       <defs>
        <path id="DejaVuSans-34" d="M 2419 4116 
L 825 1625 
L 2419 1625 
L 2419 4116 
z
M 2253 4666 
L 3047 4666 
L 3047 1625 
L 3713 1625 
L 3713 1100 
L 3047 1100 
L 3047 0 
L 2419 0 
L 2419 1100 
L 313 1100 
L 313 1709 
L 2253 4666 
z
" transform="scale(0.015625)"/>
       </defs>
       <use xlink:href="#DejaVuSans-34"/>
      </g>
     </g>
    </g>
    <g id="xtick_6">
     <g id="line2d_6">
      <g>
       <use xlink:href="#m8f1de1206a" x="760.264287" y="128.528148" style="stroke: #000000; stroke-width: 0.8"/>
      </g>
     </g>
     <g id="text_6">
      <!-- 5 -->
      <g transform="translate(757.083037 143.126585) scale(0.1 -0.1)">
       <defs>
        <path id="DejaVuSans-35" d="M 691 4666 
L 3169 4666 
L 3169 4134 
L 1269 4134 
L 1269 2991 
Q 1406 3038 1543 3061 
Q 1681 3084 1819 3084 
Q 2600 3084 3056 2656 
Q 3513 2228 3513 1497 
Q 3513 744 3044 326 
Q 2575 -91 1722 -91 
Q 1428 -91 1123 -41 
Q 819 9 494 109 
L 494 744 
Q 775 591 1075 516 
Q 1375 441 1709 441 
Q 2250 441 2565 725 
Q 2881 1009 2881 1497 
Q 2881 1984 2565 2268 
Q 2250 2553 1709 2553 
Q 1456 2553 1204 2497 
Q 953 2441 691 2322 
L 691 4666 
z
" transform="scale(0.015625)"/>
       </defs>
       <use xlink:href="#DejaVuSans-35"/>
      </g>
     </g>
    </g>
   </g>
   <g id="matplotlib.axis_2"/>
   <g id="line2d_7">
    <path d="M 125.366817 128.528148 
L 125.366817 20.214138 
" clip-path="url(#p8856780484)" style="fill: none; stroke: #000000; stroke-width: 1.5; stroke-linecap: square"/>
   </g>
   <g id="line2d_8">
    <path d="M 280.700826 128.528148 
L 280.700826 20.214138 
" clip-path="url(#p8856780484)" style="fill: none; stroke: #000000; stroke-width: 1.5; stroke-linecap: square"/>
   </g>
   <g id="line2d_9">
    <path d="M 436.034835 128.528148 
L 436.034835 20.214138 
" clip-path="url(#p8856780484)" style="fill: none; stroke: #000000; stroke-width: 1.5; stroke-linecap: square"/>
   </g>
   <g id="line2d_10">
    <path d="M 591.368844 128.528148 
L 591.368844 20.214138 
" clip-path="url(#p8856780484)" style="fill: none; stroke: #000000; stroke-width: 1.5; stroke-linecap: square"/>
   </g>
   <g id="line2d_11">
    <path d="M 746.702853 128.528148 
L 746.702853 20.214138 
" clip-path="url(#p8856780484)" style="fill: none; stroke: #000000; stroke-width: 1.5; stroke-linecap: square"/>
   </g>
   <g id="line2d_12">
    <path d="M 193.333872 128.528148 
L 193.333872 20.214138 
" clip-path="url(#p8856780484)" style="fill: none; stroke: #ff0000; stroke-width: 1.5; stroke-linecap: square"/>
   </g>
   <g id="line2d_13">
    <path d="M 848.376021 128.528148 
L 848.376021 20.214138 
" clip-path="url(#p8856780484)" style="fill: none; stroke: #ff0000; stroke-width: 1.5; stroke-linecap: square"/>
   </g>
   <g id="patch_3">
    <path d="M 7.2 128.528148 
L 7.2 20.214138 
" style="fill: none; stroke: #000000; stroke-width: 0.8; stroke-linejoin: miter; stroke-linecap: square"/>
   </g>
   <g id="patch_4">
    <path d="M 865.19952 128.528148 
L 865.19952 20.214138 
" style="fill: none; stroke: #000000; stroke-width: 0.8; stroke-linejoin: miter; stroke-linecap: square"/>
   </g>
   <g id="patch_5">
    <path d="M 7.2 128.528148 
L 865.19952 128.528148 
" style="fill: none; stroke: #000000; stroke-width: 0.8; stroke-linejoin: miter; stroke-linecap: square"/>
   </g>
   <g id="patch_6">
    <path d="M 7.2 20.214138 
L 865.19952 20.214138 
" style="fill: none; stroke: #000000; stroke-width: 0.8; stroke-linejoin: miter; stroke-linecap: square"/>
   </g>
   <g id="text_7">
    <g id="patch_7">
     <path d="M 192.333872 102.303174 
L 192.333872 46.439112 
Q 192.333872 46.439112 192.333872 46.439112 
L 182.655747 46.439112 
Q 182.655747 46.439112 182.655747 46.439112 
L 182.655747 102.303174 
Q 182.655747 102.303174 182.655747 102.303174 
L 192.333872 102.303174 
Q 192.333872 102.303174 192.333872 102.303174 
z
" style="fill: #ffffff"/>
    </g>
    <!-- min=0.882 -->
    <g transform="translate(190.254184 102.303174) rotate(-90) scale(0.1 -0.1)">
     <defs>
      <path id="DejaVuSans-6d" d="M 3328 2828 
Q 3544 3216 3844 3400 
Q 4144 3584 4550 3584 
Q 5097 3584 5394 3201 
Q 5691 2819 5691 2113 
L 5691 0 
L 5113 0 
L 5113 2094 
Q 5113 2597 4934 2840 
Q 4756 3084 4391 3084 
Q 3944 3084 3684 2787 
Q 3425 2491 3425 1978 
L 3425 0 
L 2847 0 
L 2847 2094 
Q 2847 2600 2669 2842 
Q 2491 3084 2119 3084 
Q 1678 3084 1418 2786 
Q 1159 2488 1159 1978 
L 1159 0 
L 581 0 
L 581 3500 
L 1159 3500 
L 1159 2956 
Q 1356 3278 1631 3431 
Q 1906 3584 2284 3584 
Q 2666 3584 2933 3390 
Q 3200 3197 3328 2828 
z
" transform="scale(0.015625)"/>
      <path id="DejaVuSans-69" d="M 603 3500 
L 1178 3500 
L 1178 0 
L 603 0 
L 603 3500 
z
M 603 4863 
L 1178 4863 
L 1178 4134 
L 603 4134 
L 603 4863 
z
" transform="scale(0.015625)"/>
      <path id="DejaVuSans-6e" d="M 3513 2113 
L 3513 0 
L 2938 0 
L 2938 2094 
Q 2938 2591 2744 2837 
Q 2550 3084 2163 3084 
Q 1697 3084 1428 2787 
Q 1159 2491 1159 1978 
L 1159 0 
L 581 0 
L 581 3500 
L 1159 3500 
L 1159 2956 
Q 1366 3272 1645 3428 
Q 1925 3584 2291 3584 
Q 2894 3584 3203 3211 
Q 3513 2838 3513 2113 
z
" transform="scale(0.015625)"/>
      <path id="DejaVuSans-3d" d="M 678 2906 
L 4684 2906 
L 4684 2381 
L 678 2381 
L 678 2906 
z
M 678 1631 
L 4684 1631 
L 4684 1100 
L 678 1100 
L 678 1631 
z
" transform="scale(0.015625)"/>
      <path id="DejaVuSans-2e" d="M 684 794 
L 1344 794 
L 1344 0 
L 684 0 
L 684 794 
z
" transform="scale(0.015625)"/>
      <path id="DejaVuSans-38" d="M 2034 2216 
Q 1584 2216 1326 1975 
Q 1069 1734 1069 1313 
Q 1069 891 1326 650 
Q 1584 409 2034 409 
Q 2484 409 2743 651 
Q 3003 894 3003 1313 
Q 3003 1734 2745 1975 
Q 2488 2216 2034 2216 
z
M 1403 2484 
Q 997 2584 770 2862 
Q 544 3141 544 3541 
Q 544 4100 942 4425 
Q 1341 4750 2034 4750 
Q 2731 4750 3128 4425 
Q 3525 4100 3525 3541 
Q 3525 3141 3298 2862 
Q 3072 2584 2669 2484 
Q 3125 2378 3379 2068 
Q 3634 1759 3634 1313 
Q 3634 634 3220 271 
Q 2806 -91 2034 -91 
Q 1263 -91 848 271 
Q 434 634 434 1313 
Q 434 1759 690 2068 
Q 947 2378 1403 2484 
z
M 1172 3481 
Q 1172 3119 1398 2916 
Q 1625 2713 2034 2713 
Q 2441 2713 2670 2916 
Q 2900 3119 2900 3481 
Q 2900 3844 2670 4047 
Q 2441 4250 2034 4250 
Q 1625 4250 1398 4047 
Q 1172 3844 1172 3481 
z
" transform="scale(0.015625)"/>
     </defs>
     <use xlink:href="#DejaVuSans-6d"/>
     <use xlink:href="#DejaVuSans-69" x="97.412109"/>
     <use xlink:href="#DejaVuSans-6e" x="125.195312"/>
     <use xlink:href="#DejaVuSans-3d" x="188.574219"/>
     <use xlink:href="#DejaVuSans-30" x="272.363281"/>
     <use xlink:href="#DejaVuSans-2e" x="335.986328"/>
     <use xlink:href="#DejaVuSans-38" x="367.773438"/>
     <use xlink:href="#DejaVuSans-38" x="431.396484"/>
     <use xlink:href="#DejaVuSans-32" x="495.019531"/>
    </g>
   </g>
   <g id="text_8">
    <g id="patch_8">
     <path d="M 860.054146 103.768799 
L 860.054146 44.973487 
Q 860.054146 44.973487 860.054146 44.973487 
L 850.376021 44.973487 
Q 850.376021 44.973487 850.376021 44.973487 
L 850.376021 103.768799 
Q 850.376021 103.768799 850.376021 103.768799 
L 860.054146 103.768799 
Q 860.054146 103.768799 860.054146 103.768799 
z
" style="fill: #ffffff"/>
    </g>
    <!-- max=5.640 -->
    <g transform="translate(857.974459 103.768799) rotate(-90) scale(0.1 -0.1)">
     <defs>
      <path id="DejaVuSans-61" d="M 2194 1759 
Q 1497 1759 1228 1600 
Q 959 1441 959 1056 
Q 959 750 1161 570 
Q 1363 391 1709 391 
Q 2188 391 2477 730 
Q 2766 1069 2766 1631 
L 2766 1759 
L 2194 1759 
z
M 3341 1997 
L 3341 0 
L 2766 0 
L 2766 531 
Q 2569 213 2275 61 
Q 1981 -91 1556 -91 
Q 1019 -91 701 211 
Q 384 513 384 1019 
Q 384 1609 779 1909 
Q 1175 2209 1959 2209 
L 2766 2209 
L 2766 2266 
Q 2766 2663 2505 2880 
Q 2244 3097 1772 3097 
Q 1472 3097 1187 3025 
Q 903 2953 641 2809 
L 641 3341 
Q 956 3463 1253 3523 
Q 1550 3584 1831 3584 
Q 2591 3584 2966 3190 
Q 3341 2797 3341 1997 
z
" transform="scale(0.015625)"/>
      <path id="DejaVuSans-78" d="M 3513 3500 
L 2247 1797 
L 3578 0 
L 2900 0 
L 1881 1375 
L 863 0 
L 184 0 
L 1544 1831 
L 300 3500 
L 978 3500 
L 1906 2253 
L 2834 3500 
L 3513 3500 
z
" transform="scale(0.015625)"/>
      <path id="DejaVuSans-36" d="M 2113 2584 
Q 1688 2584 1439 2293 
Q 1191 2003 1191 1497 
Q 1191 994 1439 701 
Q 1688 409 2113 409 
Q 2538 409 2786 701 
Q 3034 994 3034 1497 
Q 3034 2003 2786 2293 
Q 2538 2584 2113 2584 
z
M 3366 4563 
L 3366 3988 
Q 3128 4100 2886 4159 
Q 2644 4219 2406 4219 
Q 1781 4219 1451 3797 
Q 1122 3375 1075 2522 
Q 1259 2794 1537 2939 
Q 1816 3084 2150 3084 
Q 2853 3084 3261 2657 
Q 3669 2231 3669 1497 
Q 3669 778 3244 343 
Q 2819 -91 2113 -91 
Q 1303 -91 875 529 
Q 447 1150 447 2328 
Q 447 3434 972 4092 
Q 1497 4750 2381 4750 
Q 2619 4750 2861 4703 
Q 3103 4656 3366 4563 
z
" transform="scale(0.015625)"/>
     </defs>
     <use xlink:href="#DejaVuSans-6d"/>
     <use xlink:href="#DejaVuSans-61" x="97.412109"/>
     <use xlink:href="#DejaVuSans-78" x="158.691406"/>
     <use xlink:href="#DejaVuSans-3d" x="217.871094"/>
     <use xlink:href="#DejaVuSans-35" x="301.660156"/>
     <use xlink:href="#DejaVuSans-2e" x="365.283203"/>
     <use xlink:href="#DejaVuSans-36" x="397.070312"/>
     <use xlink:href="#DejaVuSans-34" x="460.693359"/>
     <use xlink:href="#DejaVuSans-30" x="524.316406"/>
    </g>
   </g>
   <g id="text_9">
    <!-- 1000 samples (μ=2.645, σ=1.128) of tensor[3, 196, 196] n=115248 x∈[0.882, 5.640] μ=2.612 σ=1.073 -->
    <g transform="translate(7.2 14.798437) scale(0.1 -0.1)">
     <defs>
      <path id="DejaVuSans-20" transform="scale(0.015625)"/>
      <path id="DejaVuSans-73" d="M 2834 3397 
L 2834 2853 
Q 2591 2978 2328 3040 
Q 2066 3103 1784 3103 
Q 1356 3103 1142 2972 
Q 928 2841 928 2578 
Q 928 2378 1081 2264 
Q 1234 2150 1697 2047 
L 1894 2003 
Q 2506 1872 2764 1633 
Q 3022 1394 3022 966 
Q 3022 478 2636 193 
Q 2250 -91 1575 -91 
Q 1294 -91 989 -36 
Q 684 19 347 128 
L 347 722 
Q 666 556 975 473 
Q 1284 391 1588 391 
Q 1994 391 2212 530 
Q 2431 669 2431 922 
Q 2431 1156 2273 1281 
Q 2116 1406 1581 1522 
L 1381 1569 
Q 847 1681 609 1914 
Q 372 2147 372 2553 
Q 372 3047 722 3315 
Q 1072 3584 1716 3584 
Q 2034 3584 2315 3537 
Q 2597 3491 2834 3397 
z
" transform="scale(0.015625)"/>
      <path id="DejaVuSans-70" d="M 1159 525 
L 1159 -1331 
L 581 -1331 
L 581 3500 
L 1159 3500 
L 1159 2969 
Q 1341 3281 1617 3432 
Q 1894 3584 2278 3584 
Q 2916 3584 3314 3078 
Q 3713 2572 3713 1747 
Q 3713 922 3314 415 
Q 2916 -91 2278 -91 
Q 1894 -91 1617 61 
Q 1341 213 1159 525 
z
M 3116 1747 
Q 3116 2381 2855 2742 
Q 2594 3103 2138 3103 
Q 1681 3103 1420 2742 
Q 1159 2381 1159 1747 
Q 1159 1113 1420 752 
Q 1681 391 2138 391 
Q 2594 391 2855 752 
Q 3116 1113 3116 1747 
z
" transform="scale(0.015625)"/>
      <path id="DejaVuSans-6c" d="M 603 4863 
L 1178 4863 
L 1178 0 
L 603 0 
L 603 4863 
z
" transform="scale(0.015625)"/>
      <path id="DejaVuSans-65" d="M 3597 1894 
L 3597 1613 
L 953 1613 
Q 991 1019 1311 708 
Q 1631 397 2203 397 
Q 2534 397 2845 478 
Q 3156 559 3463 722 
L 3463 178 
Q 3153 47 2828 -22 
Q 2503 -91 2169 -91 
Q 1331 -91 842 396 
Q 353 884 353 1716 
Q 353 2575 817 3079 
Q 1281 3584 2069 3584 
Q 2775 3584 3186 3129 
Q 3597 2675 3597 1894 
z
M 3022 2063 
Q 3016 2534 2758 2815 
Q 2500 3097 2075 3097 
Q 1594 3097 1305 2825 
Q 1016 2553 972 2059 
L 3022 2063 
z
" transform="scale(0.015625)"/>
      <path id="DejaVuSans-28" d="M 1984 4856 
Q 1566 4138 1362 3434 
Q 1159 2731 1159 2009 
Q 1159 1288 1364 580 
Q 1569 -128 1984 -844 
L 1484 -844 
Q 1016 -109 783 600 
Q 550 1309 550 2009 
Q 550 2706 781 3412 
Q 1013 4119 1484 4856 
L 1984 4856 
z
" transform="scale(0.015625)"/>
      <path id="DejaVuSans-3bc" d="M 544 -1331 
L 544 3500 
L 1119 3500 
L 1119 1325 
Q 1119 872 1334 640 
Q 1550 409 1972 409 
Q 2434 409 2667 671 
Q 2900 934 2900 1459 
L 2900 3500 
L 3475 3500 
L 3475 806 
Q 3475 619 3529 530 
Q 3584 441 3700 441 
Q 3728 441 3778 458 
Q 3828 475 3916 513 
L 3916 50 
Q 3788 -22 3673 -56 
Q 3559 -91 3450 -91 
Q 3234 -91 3106 31 
Q 2978 153 2931 403 
Q 2775 156 2548 32 
Q 2322 -91 2016 -91 
Q 1697 -91 1473 31 
Q 1250 153 1119 397 
L 1119 -1331 
L 544 -1331 
z
" transform="scale(0.015625)"/>
      <path id="DejaVuSans-2c" d="M 750 794 
L 1409 794 
L 1409 256 
L 897 -744 
L 494 -744 
L 750 256 
L 750 794 
z
" transform="scale(0.015625)"/>
      <path id="DejaVuSans-3c3" d="M 1959 3044 
Q 1484 3044 1228 2700 
Q 959 2341 959 1747 
Q 959 1119 1226 758 
Q 1494 397 1959 397 
Q 2419 397 2687 759 
Q 2956 1122 2956 1747 
Q 2956 2319 2688 2700 
Q 2441 3044 1959 3044 
z
M 1959 3500 
L 3869 3500 
L 3869 2925 
L 3225 2925 
Q 3566 2438 3566 1747 
Q 3566 888 3138 400 
Q 2709 -91 1959 -91 
Q 1206 -91 781 400 
Q 353 888 353 1747 
Q 353 2613 781 3097 
Q 1134 3500 1959 3500 
z
" transform="scale(0.015625)"/>
      <path id="DejaVuSans-29" d="M 513 4856 
L 1013 4856 
Q 1481 4119 1714 3412 
Q 1947 2706 1947 2009 
Q 1947 1309 1714 600 
Q 1481 -109 1013 -844 
L 513 -844 
Q 928 -128 1133 580 
Q 1338 1288 1338 2009 
Q 1338 2731 1133 3434 
Q 928 4138 513 4856 
z
" transform="scale(0.015625)"/>
      <path id="DejaVuSans-6f" d="M 1959 3097 
Q 1497 3097 1228 2736 
Q 959 2375 959 1747 
Q 959 1119 1226 758 
Q 1494 397 1959 397 
Q 2419 397 2687 759 
Q 2956 1122 2956 1747 
Q 2956 2369 2687 2733 
Q 2419 3097 1959 3097 
z
M 1959 3584 
Q 2709 3584 3137 3096 
Q 3566 2609 3566 1747 
Q 3566 888 3137 398 
Q 2709 -91 1959 -91 
Q 1206 -91 779 398 
Q 353 888 353 1747 
Q 353 2609 779 3096 
Q 1206 3584 1959 3584 
z
" transform="scale(0.015625)"/>
      <path id="DejaVuSans-66" d="M 2375 4863 
L 2375 4384 
L 1825 4384 
Q 1516 4384 1395 4259 
Q 1275 4134 1275 3809 
L 1275 3500 
L 2222 3500 
L 2222 3053 
L 1275 3053 
L 1275 0 
L 697 0 
L 697 3053 
L 147 3053 
L 147 3500 
L 697 3500 
L 697 3744 
Q 697 4328 969 4595 
Q 1241 4863 1831 4863 
L 2375 4863 
z
" transform="scale(0.015625)"/>
      <path id="DejaVuSans-74" d="M 1172 4494 
L 1172 3500 
L 2356 3500 
L 2356 3053 
L 1172 3053 
L 1172 1153 
Q 1172 725 1289 603 
Q 1406 481 1766 481 
L 2356 481 
L 2356 0 
L 1766 0 
Q 1100 0 847 248 
Q 594 497 594 1153 
L 594 3053 
L 172 3053 
L 172 3500 
L 594 3500 
L 594 4494 
L 1172 4494 
z
" transform="scale(0.015625)"/>
      <path id="DejaVuSans-72" d="M 2631 2963 
Q 2534 3019 2420 3045 
Q 2306 3072 2169 3072 
Q 1681 3072 1420 2755 
Q 1159 2438 1159 1844 
L 1159 0 
L 581 0 
L 581 3500 
L 1159 3500 
L 1159 2956 
Q 1341 3275 1631 3429 
Q 1922 3584 2338 3584 
Q 2397 3584 2469 3576 
Q 2541 3569 2628 3553 
L 2631 2963 
z
" transform="scale(0.015625)"/>
      <path id="DejaVuSans-5b" d="M 550 4863 
L 1875 4863 
L 1875 4416 
L 1125 4416 
L 1125 -397 
L 1875 -397 
L 1875 -844 
L 550 -844 
L 550 4863 
z
" transform="scale(0.015625)"/>
      <path id="DejaVuSans-39" d="M 703 97 
L 703 672 
Q 941 559 1184 500 
Q 1428 441 1663 441 
Q 2288 441 2617 861 
Q 2947 1281 2994 2138 
Q 2813 1869 2534 1725 
Q 2256 1581 1919 1581 
Q 1219 1581 811 2004 
Q 403 2428 403 3163 
Q 403 3881 828 4315 
Q 1253 4750 1959 4750 
Q 2769 4750 3195 4129 
Q 3622 3509 3622 2328 
Q 3622 1225 3098 567 
Q 2575 -91 1691 -91 
Q 1453 -91 1209 -44 
Q 966 3 703 97 
z
M 1959 2075 
Q 2384 2075 2632 2365 
Q 2881 2656 2881 3163 
Q 2881 3666 2632 3958 
Q 2384 4250 1959 4250 
Q 1534 4250 1286 3958 
Q 1038 3666 1038 3163 
Q 1038 2656 1286 2365 
Q 1534 2075 1959 2075 
z
" transform="scale(0.015625)"/>
      <path id="DejaVuSans-5d" d="M 1947 4863 
L 1947 -844 
L 622 -844 
L 622 -397 
L 1369 -397 
L 1369 4416 
L 622 4416 
L 622 4863 
L 1947 4863 
z
" transform="scale(0.015625)"/>
      <path id="DejaVuSans-2208" d="M 1072 1959 
Q 1094 1728 1291 1353 
Q 1522 919 1959 675 
Q 2388 438 2850 434 
L 5028 434 
L 5028 -63 
L 2850 -63 
Q 2250 -63 1695 246 
Q 1141 556 844 1106 
Q 547 1656 547 2241 
Q 547 2819 844 3369 
Q 1141 3919 1695 4231 
Q 2250 4544 2850 4544 
L 5028 4544 
L 5028 4047 
L 2850 4047 
Q 2388 4044 1959 3803 
Q 1525 3556 1291 3125 
Q 1091 2750 1063 2459 
L 5028 2459 
L 5028 1959 
L 1072 1959 
z
" transform="scale(0.015625)"/>
      <path id="DejaVuSans-37" d="M 525 4666 
L 3525 4666 
L 3525 4397 
L 1831 0 
L 1172 0 
L 2766 4134 
L 525 4134 
L 525 4666 
z
" transform="scale(0.015625)"/>
     </defs>
     <use xlink:href="#DejaVuSans-31"/>
     <use xlink:href="#DejaVuSans-30" x="63.623047"/>
     <use xlink:href="#DejaVuSans-30" x="127.246094"/>
     <use xlink:href="#DejaVuSans-30" x="190.869141"/>
     <use xlink:href="#DejaVuSans-20" x="254.492188"/>
     <use xlink:href="#DejaVuSans-73" x="286.279297"/>
     <use xlink:href="#DejaVuSans-61" x="338.378906"/>
     <use xlink:href="#DejaVuSans-6d" x="399.658203"/>
     <use xlink:href="#DejaVuSans-70" x="497.070312"/>
     <use xlink:href="#DejaVuSans-6c" x="560.546875"/>
     <use xlink:href="#DejaVuSans-65" x="588.330078"/>
     <use xlink:href="#DejaVuSans-73" x="649.853516"/>
     <use xlink:href="#DejaVuSans-20" x="701.953125"/>
     <use xlink:href="#DejaVuSans-28" x="733.740234"/>
     <use xlink:href="#DejaVuSans-3bc" x="772.753906"/>
     <use xlink:href="#DejaVuSans-3d" x="836.376953"/>
     <use xlink:href="#DejaVuSans-32" x="920.166016"/>
     <use xlink:href="#DejaVuSans-2e" x="983.789062"/>
     <use xlink:href="#DejaVuSans-36" x="1015.576172"/>
     <use xlink:href="#DejaVuSans-34" x="1079.199219"/>
     <use xlink:href="#DejaVuSans-35" x="1142.822266"/>
     <use xlink:href="#DejaVuSans-2c" x="1206.445312"/>
     <use xlink:href="#DejaVuSans-20" x="1238.232422"/>
     <use xlink:href="#DejaVuSans-3c3" x="1270.019531"/>
     <use xlink:href="#DejaVuSans-3d" x="1333.398438"/>
     <use xlink:href="#DejaVuSans-31" x="1417.1875"/>
     <use xlink:href="#DejaVuSans-2e" x="1480.810547"/>
     <use xlink:href="#DejaVuSans-31" x="1512.597656"/>
     <use xlink:href="#DejaVuSans-32" x="1576.220703"/>
     <use xlink:href="#DejaVuSans-38" x="1639.84375"/>
     <use xlink:href="#DejaVuSans-29" x="1703.466797"/>
     <use xlink:href="#DejaVuSans-20" x="1742.480469"/>
     <use xlink:href="#DejaVuSans-6f" x="1774.267578"/>
     <use xlink:href="#DejaVuSans-66" x="1835.449219"/>
     <use xlink:href="#DejaVuSans-20" x="1870.654297"/>
     <use xlink:href="#DejaVuSans-74" x="1902.441406"/>
     <use xlink:href="#DejaVuSans-65" x="1941.650391"/>
     <use xlink:href="#DejaVuSans-6e" x="2003.173828"/>
     <use xlink:href="#DejaVuSans-73" x="2066.552734"/>
     <use xlink:href="#DejaVuSans-6f" x="2118.652344"/>
     <use xlink:href="#DejaVuSans-72" x="2179.833984"/>
     <use xlink:href="#DejaVuSans-5b" x="2220.947266"/>
     <use xlink:href="#DejaVuSans-33" x="2259.960938"/>
     <use xlink:href="#DejaVuSans-2c" x="2323.583984"/>
     <use xlink:href="#DejaVuSans-20" x="2355.371094"/>
     <use xlink:href="#DejaVuSans-31" x="2387.158203"/>
     <use xlink:href="#DejaVuSans-39" x="2450.78125"/>
     <use xlink:href="#DejaVuSans-36" x="2514.404297"/>
     <use xlink:href="#DejaVuSans-2c" x="2578.027344"/>
     <use xlink:href="#DejaVuSans-20" x="2609.814453"/>
     <use xlink:href="#DejaVuSans-31" x="2641.601562"/>
     <use xlink:href="#DejaVuSans-39" x="2705.224609"/>
     <use xlink:href="#DejaVuSans-36" x="2768.847656"/>
     <use xlink:href="#DejaVuSans-5d" x="2832.470703"/>
     <use xlink:href="#DejaVuSans-20" x="2871.484375"/>
     <use xlink:href="#DejaVuSans-6e" x="2903.271484"/>
     <use xlink:href="#DejaVuSans-3d" x="2966.650391"/>
     <use xlink:href="#DejaVuSans-31" x="3050.439453"/>
     <use xlink:href="#DejaVuSans-31" x="3114.0625"/>
     <use xlink:href="#DejaVuSans-35" x="3177.685547"/>
     <use xlink:href="#DejaVuSans-32" x="3241.308594"/>
     <use xlink:href="#DejaVuSans-34" x="3304.931641"/>
     <use xlink:href="#DejaVuSans-38" x="3368.554688"/>
     <use xlink:href="#DejaVuSans-20" x="3432.177734"/>
     <use xlink:href="#DejaVuSans-78" x="3463.964844"/>
     <use xlink:href="#DejaVuSans-2208" x="3523.144531"/>
     <use xlink:href="#DejaVuSans-5b" x="3610.253906"/>
     <use xlink:href="#DejaVuSans-30" x="3649.267578"/>
     <use xlink:href="#DejaVuSans-2e" x="3712.890625"/>
     <use xlink:href="#DejaVuSans-38" x="3744.677734"/>
     <use xlink:href="#DejaVuSans-38" x="3808.300781"/>
     <use xlink:href="#DejaVuSans-32" x="3871.923828"/>
     <use xlink:href="#DejaVuSans-2c" x="3935.546875"/>
     <use xlink:href="#DejaVuSans-20" x="3967.333984"/>
     <use xlink:href="#DejaVuSans-35" x="3999.121094"/>
     <use xlink:href="#DejaVuSans-2e" x="4062.744141"/>
     <use xlink:href="#DejaVuSans-36" x="4094.53125"/>
     <use xlink:href="#DejaVuSans-34" x="4158.154297"/>
     <use xlink:href="#DejaVuSans-30" x="4221.777344"/>
     <use xlink:href="#DejaVuSans-5d" x="4285.400391"/>
     <use xlink:href="#DejaVuSans-20" x="4324.414062"/>
     <use xlink:href="#DejaVuSans-3bc" x="4356.201172"/>
     <use xlink:href="#DejaVuSans-3d" x="4419.824219"/>
     <use xlink:href="#DejaVuSans-32" x="4503.613281"/>
     <use xlink:href="#DejaVuSans-2e" x="4567.236328"/>
     <use xlink:href="#DejaVuSans-36" x="4599.023438"/>
     <use xlink:href="#DejaVuSans-31" x="4662.646484"/>
     <use xlink:href="#DejaVuSans-32" x="4726.269531"/>
     <use xlink:href="#DejaVuSans-20" x="4789.892578"/>
     <use xlink:href="#DejaVuSans-3c3" x="4821.679688"/>
     <use xlink:href="#DejaVuSans-3d" x="4885.058594"/>
     <use xlink:href="#DejaVuSans-31" x="4968.847656"/>
     <use xlink:href="#DejaVuSans-2e" x="5032.470703"/>
     <use xlink:href="#DejaVuSans-30" x="5064.257812"/>
     <use xlink:href="#DejaVuSans-37" x="5127.880859"/>
     <use xlink:href="#DejaVuSans-33" x="5191.503906"/>
    </g>
   </g>
   <g id="patch_9">
    <path d="M 214.55264 128.528148 
L 255.207826 128.528148 
L 255.207826 111.981036 
L 214.55264 111.981036 
z
" clip-path="url(#p8856780484)" style="fill: #00bfff"/>
   </g>
   <g id="patch_10">
    <path d="M 255.207826 128.528148 
L 295.862996 128.528148 
L 295.862996 98.818548 
L 255.207826 98.818548 
z
" clip-path="url(#p8856780484)" style="fill: #00bfff"/>
   </g>
   <g id="patch_11">
    <path d="M 295.862996 128.528148 
L 336.518181 128.528148 
L 336.518181 66.852549 
L 295.862996 66.852549 
z
" clip-path="url(#p8856780484)" style="fill: #00bfff"/>
   </g>
   <g id="patch_12">
    <path d="M 336.518181 128.528148 
L 377.173367 128.528148 
L 377.173367 74.373963 
L 336.518181 74.373963 
z
" clip-path="url(#p8856780484)" style="fill: #00bfff"/>
   </g>
   <g id="patch_13">
    <path d="M 377.173367 128.528148 
L 417.828553 128.528148 
L 417.828553 49.177225 
L 377.173367 49.177225 
z
" clip-path="url(#p8856780484)" style="fill: #00bfff"/>
   </g>
   <g id="patch_14">
    <path d="M 417.828553 128.528148 
L 458.483739 128.528148 
L 458.483739 90.168934 
L 417.828553 90.168934 
z
" clip-path="url(#p8856780484)" style="fill: #00bfff"/>
   </g>
   <g id="patch_15">
    <path d="M 458.483739 128.528148 
L 499.138891 128.528148 
L 499.138891 119.502443 
L 458.483739 119.502443 
z
" clip-path="url(#p8856780484)" style="fill: #00bfff"/>
   </g>
   <g id="patch_16">
    <path d="M 499.138891 128.528148 
L 539.79411 128.528148 
L 539.79411 121.006739 
L 499.138891 121.006739 
z
" clip-path="url(#p8856780484)" style="fill: #00bfff"/>
   </g>
   <g id="patch_17">
    <path d="M 539.79411 128.528148 
L 580.449263 128.528148 
L 580.449263 120.630656 
L 539.79411 120.630656 
z
" clip-path="url(#p8856780484)" style="fill: #00bfff"/>
   </g>
   <g id="patch_18">
    <path d="M 580.449263 128.528148 
L 621.104482 128.528148 
L 621.104482 123.639232 
L 580.449263 123.639232 
z
" clip-path="url(#p8856780484)" style="fill: #00bfff"/>
   </g>
   <g id="patch_19">
    <path d="M 621.104482 128.528148 
L 661.759635 128.528148 
L 661.759635 121.006727 
L 621.104482 121.006727 
z
" clip-path="url(#p8856780484)" style="fill: #00bfff"/>
   </g>
   <g id="patch_20">
    <path d="M 661.759635 128.528148 
L 702.414787 128.528148 
L 702.414787 117.622088 
L 661.759635 117.622088 
z
" clip-path="url(#p8856780484)" style="fill: #00bfff"/>
   </g>
   <g id="patch_21">
    <path d="M 702.414787 128.528148 
L 743.070006 128.528148 
L 743.070006 109.724627 
L 702.414787 109.724627 
z
" clip-path="url(#p8856780484)" style="fill: #00bfff"/>
   </g>
   <g id="patch_22">
    <path d="M 743.070006 128.528148 
L 783.725159 128.528148 
L 783.725159 111.604951 
L 743.070006 111.604951 
z
" clip-path="url(#p8856780484)" style="fill: #00bfff"/>
   </g>
   <g id="patch_23">
    <path d="M 783.725159 128.528148 
L 824.380378 128.528148 
L 824.380378 115.741753 
L 783.725159 115.741753 
z
" clip-path="url(#p8856780484)" style="fill: #00bfff"/>
   </g>
   <g id="line2d_14">
    <path d="M 7.2 127.659155 
L 15.866662 127.51602 
L 24.533324 127.352973 
L 33.199985 127.167902 
L 41.866647 126.958578 
L 50.533309 126.722672 
L 59.199971 126.457763 
L 67.866633 126.161365 
L 76.533295 125.830944 
L 85.199956 125.463946 
L 93.866618 125.057833 
L 102.53328 124.610111 
L 111.199942 124.118375 
L 119.866604 123.58035 
L 128.533265 122.993936 
L 137.199927 122.357259 
L 145.866589 121.668724 
L 154.533251 120.927061 
L 163.199913 120.131387 
L 171.866575 119.281252 
L 180.533236 118.376695 
L 189.199898 117.41829 
L 197.86656 116.407191 
L 206.533222 115.345176 
L 215.199884 114.234672 
L 223.866545 113.078791 
L 232.533207 111.881336 
L 241.199869 110.64682 
L 249.866531 109.38045 
L 258.533193 108.088124 
L 267.199855 106.776392 
L 275.866516 105.452426 
L 284.533178 104.12396 
L 293.19984 102.799233 
L 301.866502 101.486904 
L 310.533164 100.195973 
L 319.199825 98.935676 
L 327.866487 97.715385 
L 336.533149 96.544493 
L 345.199811 95.432292 
L 353.866473 94.387857 
L 362.533135 93.419922 
L 371.199796 92.536759 
L 379.866458 91.746057 
L 388.53312 91.054819 
L 397.199782 90.46925 
L 405.866444 89.99467 
L 414.533105 89.635431 
L 423.199767 89.394853 
L 431.866429 89.275169 
L 440.533091 89.277494 
L 449.199753 89.401807 
L 457.866415 89.646949 
L 466.533076 90.010645 
L 475.199738 90.489536 
L 483.8664 91.07923 
L 492.533062 91.774373 
L 501.199724 92.568726 
L 509.866385 93.455261 
L 518.533047 94.426262 
L 527.199709 95.473438 
L 535.866371 96.58804 
L 544.533033 97.760984 
L 553.199695 98.98297 
L 561.866356 100.244603 
L 570.533018 101.536517 
L 579.19968 102.84948 
L 587.866342 104.174506 
L 596.533004 105.502948 
L 605.199665 106.826587 
L 613.866327 108.137708 
L 622.532989 109.429163 
L 631.199651 110.694423 
L 639.866313 111.92762 
L 648.532975 113.12357 
L 657.199636 114.27779 
L 665.866298 115.386501 
L 674.53296 116.446619 
L 683.199622 117.45574 
L 691.866284 118.412113 
L 700.532945 119.314606 
L 709.199607 120.162665 
L 717.866269 120.956273 
L 726.532931 121.695895 
L 735.199593 122.382431 
L 743.866255 123.017163 
L 752.532916 123.6017 
L 761.199578 124.137924 
L 769.86624 124.627942 
L 778.532902 125.074036 
L 787.199564 125.478614 
L 795.866225 125.844173 
L 804.532887 126.173252 
L 813.199549 126.468406 
L 821.866211 126.732165 
L 830.532873 126.967017 
L 839.199535 127.175375 
L 847.866196 127.359568 
L 856.532858 127.521819 
L 865.19952 127.664236 
" clip-path="url(#p8856780484)" style="fill: none; stroke: #1f77b4; stroke-width: 1.5; stroke-linecap: square"/>
   </g>
   <g id="text_10">
    <g id="patch_24">
     <path d="M 117.212911 38.307963 
L 133.520723 38.307963 
Q 136.520723 38.307963 136.520723 35.307963 
L 136.520723 25.629838 
Q 136.520723 22.629838 133.520723 22.629838 
L 117.212911 22.629838 
Q 114.212911 22.629838 114.212911 25.629838 
L 114.212911 35.307963 
Q 114.212911 38.307963 117.212911 38.307963 
z
" style="fill: #ffffff"/>
    </g>
    <!-- -2σ -->
    <g transform="translate(117.212911 33.228276) scale(0.1 -0.1)">
     <defs>
      <path id="DejaVuSans-2d" d="M 313 2009 
L 1997 2009 
L 1997 1497 
L 313 1497 
L 313 2009 
z
" transform="scale(0.015625)"/>
     </defs>
     <use xlink:href="#DejaVuSans-2d"/>
     <use xlink:href="#DejaVuSans-32" x="36.083984"/>
     <use xlink:href="#DejaVuSans-3c3" x="99.707031"/>
    </g>
   </g>
   <g id="text_11">
    <g id="patch_25">
     <path d="M 275.72817 38.307963 
L 285.673482 38.307963 
Q 288.673482 38.307963 288.673482 35.307963 
L 288.673482 25.629838 
Q 288.673482 22.629838 285.673482 22.629838 
L 275.72817 22.629838 
Q 272.72817 22.629838 272.72817 25.629838 
L 272.72817 35.307963 
Q 272.72817 38.307963 275.72817 38.307963 
z
" style="fill: #ffffff"/>
    </g>
    <!-- -σ -->
    <g transform="translate(275.72817 33.228276) scale(0.1 -0.1)">
     <use xlink:href="#DejaVuSans-2d"/>
     <use xlink:href="#DejaVuSans-3c3" x="36.083984"/>
    </g>
   </g>
   <g id="text_12">
    <g id="patch_26">
     <path d="M 432.355929 38.307963 
L 439.713741 38.307963 
Q 442.713741 38.307963 442.713741 35.307963 
L 442.713741 25.629838 
Q 442.713741 22.629838 439.713741 22.629838 
L 432.355929 22.629838 
Q 429.355929 22.629838 429.355929 25.629838 
L 429.355929 35.307963 
Q 429.355929 38.307963 432.355929 38.307963 
z
" style="fill: #ffffff"/>
    </g>
    <!-- μ -->
    <g transform="translate(432.355929 33.217338) scale(0.1 -0.1)">
     <defs>
      <path id="DejaVuSans-Bold-3bc" d="M 544 -1338 
L 544 3500 
L 1672 3500 
L 1672 1466 
Q 1672 1103 1828 926 
Q 1984 750 2303 750 
Q 2625 750 2781 926 
Q 2938 1103 2938 1466 
L 2938 3500 
L 4063 3500 
L 4063 1159 
Q 4063 938 4114 850 
Q 4166 763 4288 763 
Q 4344 763 4395 778 
Q 4447 794 4506 831 
L 4506 50 
Q 4341 -22 4195 -56 
Q 4050 -91 3909 -91 
Q 3631 -91 3454 26 
Q 3278 144 3169 403 
Q 3022 156 2811 32 
Q 2600 -91 2322 -91 
Q 2091 -91 1928 -17 
Q 1766 56 1672 206 
L 1672 -1338 
L 544 -1338 
z
" transform="scale(0.015625)"/>
     </defs>
     <use xlink:href="#DejaVuSans-Bold-3bc"/>
    </g>
   </g>
   <g id="text_13">
    <g id="patch_27">
     <path d="M 584.01025 38.307963 
L 598.727438 38.307963 
Q 601.727438 38.307963 601.727438 35.307963 
L 601.727438 25.629838 
Q 601.727438 22.629838 598.727438 22.629838 
L 584.01025 22.629838 
Q 581.01025 22.629838 581.01025 25.629838 
L 581.01025 35.307963 
Q 581.01025 38.307963 584.01025 38.307963 
z
" style="fill: #ffffff"/>
    </g>
    <!-- +σ -->
    <g transform="translate(584.01025 33.228276) scale(0.1 -0.1)">
     <defs>
      <path id="DejaVuSans-2b" d="M 2944 4013 
L 2944 2272 
L 4684 2272 
L 4684 1741 
L 2944 1741 
L 2944 0 
L 2419 0 
L 2419 1741 
L 678 1741 
L 678 2272 
L 2419 2272 
L 2419 4013 
L 2944 4013 
z
" transform="scale(0.015625)"/>
     </defs>
     <use xlink:href="#DejaVuSans-2b"/>
     <use xlink:href="#DejaVuSans-3c3" x="83.789062"/>
    </g>
   </g>
   <g id="text_14">
    <g id="patch_28">
     <path d="M 736.163009 38.307963 
L 757.242697 38.307963 
Q 760.242697 38.307963 760.242697 35.307963 
L 760.242697 25.629838 
Q 760.242697 22.629838 757.242697 22.629838 
L 736.163009 22.629838 
Q 733.163009 22.629838 733.163009 25.629838 
L 733.163009 35.307963 
Q 733.163009 38.307963 736.163009 38.307963 
z
" style="fill: #ffffff"/>
    </g>
    <!-- +2σ -->
    <g transform="translate(736.163009 33.228276) scale(0.1 -0.1)">
     <use xlink:href="#DejaVuSans-2b"/>
     <use xlink:href="#DejaVuSans-32" x="83.789062"/>
     <use xlink:href="#DejaVuSans-3c3" x="147.412109"/>
    </g>
   </g>
  </g>
 </g>
 <defs>
  <clipPath id="p8856780484">
   <rect x="7.2" y="20.214138" width="857.99952" height="108.31401"/>
  </clipPath>
 </defs>
</svg>
