<?xml version="1.0" encoding="utf-8" standalone="no"?>
<!DOCTYPE svg PUBLIC "-//W3C//DTD SVG 1.1//EN"
  "http://www.w3.org/Graphics/SVG/1.1/DTD/svg11.dtd">
<svg xmlns:xlink="http://www.w3.org/1999/xlink" width="872.39952pt" height="152.406273pt" viewBox="0 0 872.39952 152.406273" xmlns="http://www.w3.org/2000/svg" version="1.1">
 <metadata>
  <rdf:RDF xmlns:dc="http://purl.org/dc/elements/1.1/" xmlns:cc="http://creativecommons.org/ns#" xmlns:rdf="http://www.w3.org/1999/02/22-rdf-syntax-ns#">
   <cc:Work>
    <dc:type rdf:resource="http://purl.org/dc/dcmitype/StillImage"/>
    <dc:format>image/svg+xml</dc:format>
    <dc:creator>
     <cc:Agent>
      <dc:title>Matplotlib, https://matplotlib.org/</dc:title>
     </cc:Agent>
    </dc:creator>
   </cc:Work>
  </rdf:RDF>
 </metadata>
 <defs>
  <style type="text/css">*{stroke-linejoin: round; stroke-linecap: butt}</style>
 </defs>
 <g id="figure_1">
  <g id="patch_1">
   <path d="M 0 152.406273 
L 872.39952 152.406273 
L 872.39952 0 
L 0 0 
z
" style="fill: #ffffff"/>
  </g>
  <g id="axes_1">
   <g id="patch_2">
    <path d="M 7.2 128.528148 
L 865.19952 128.528148 
L 865.19952 20.214138 
L 7.2 20.214138 
z
" style="fill: #ffffff"/>
   </g>
   <g id="matplotlib.axis_1">
    <g id="xtick_1">
     <g id="line2d_1">
      <defs>
       <path id="m8f1de1206a" d="M 0 0 
L 0 3.5 
" style="stroke: #000000; stroke-width: 0.8"/>
      </defs>
      <g>
       <use xlink:href="#m8f1de1206a" x="23.680776" y="128.528148" style="stroke: #000000; stroke-width: 0.8"/>
      </g>
     </g>
     <g id="text_1">
      <!-- −3 -->
      <g transform="translate(16.309682 143.126585) scale(0.1 -0.1)">
       <defs>
        <path id="DejaVuSans-2212" d="M 678 2272 
L 4684 2272 
L 4684 1741 
L 678 1741 
L 678 2272 
z
" transform="scale(0.015625)"/>
        <path id="DejaVuSans-33" d="M 2597 2516 
Q 3050 2419 3304 2112 
Q 3559 1806 3559 1356 
Q 3559 666 3084 287 
Q 2609 -91 1734 -91 
Q 1441 -91 1130 -33 
Q 819 25 488 141 
L 488 750 
Q 750 597 1062 519 
Q 1375 441 1716 441 
Q 2309 441 2620 675 
Q 2931 909 2931 1356 
Q 2931 1769 2642 2001 
Q 2353 2234 1838 2234 
L 1294 2234 
L 1294 2753 
L 1863 2753 
Q 2328 2753 2575 2939 
Q 2822 3125 2822 3475 
Q 2822 3834 2567 4026 
Q 2313 4219 1838 4219 
Q 1578 4219 1281 4162 
Q 984 4106 628 3988 
L 628 4550 
Q 988 4650 1302 4700 
Q 1616 4750 1894 4750 
Q 2613 4750 3031 4423 
Q 3450 4097 3450 3541 
Q 3450 3153 3228 2886 
Q 3006 2619 2597 2516 
z
" transform="scale(0.015625)"/>
       </defs>
       <use xlink:href="#DejaVuSans-2212"/>
       <use xlink:href="#DejaVuSans-33" x="83.789062"/>
      </g>
     </g>
    </g>
    <g id="xtick_2">
     <g id="line2d_2">
      <g>
       <use xlink:href="#m8f1de1206a" x="161.132125" y="128.528148" style="stroke: #000000; stroke-width: 0.8"/>
      </g>
     </g>
     <g id="text_2">
      <!-- −2 -->
      <g transform="translate(153.761031 143.126585) scale(0.1 -0.1)">
       <defs>
        <path id="DejaVuSans-32" d="M 1228 531 
L 3431 531 
L 3431 0 
L 469 0 
L 469 531 
Q 828 903 1448 1529 
Q 2069 2156 2228 2338 
Q 2531 2678 2651 2914 
Q 2772 3150 2772 3378 
Q 2772 3750 2511 3984 
Q 2250 4219 1831 4219 
Q 1534 4219 1204 4116 
Q 875 4013 500 3803 
L 500 4441 
Q 881 4594 1212 4672 
Q 1544 4750 1819 4750 
Q 2544 4750 2975 4387 
Q 3406 4025 3406 3419 
Q 3406 3131 3298 2873 
Q 3191 2616 2906 2266 
Q 2828 2175 2409 1742 
Q 1991 1309 1228 531 
z
" transform="scale(0.015625)"/>
       </defs>
       <use xlink:href="#DejaVuSans-2212"/>
       <use xlink:href="#DejaVuSans-32" x="83.789062"/>
      </g>
     </g>
    </g>
    <g id="xtick_3">
     <g id="line2d_3">
      <g>
       <use xlink:href="#m8f1de1206a" x="298.583474" y="128.528148" style="stroke: #000000; stroke-width: 0.8"/>
      </g>
     </g>
     <g id="text_3">
      <!-- −1 -->
      <g transform="translate(291.212381 143.126585) scale(0.1 -0.1)">
       <defs>
        <path id="DejaVuSans-31" d="M 794 531 
L 1825 531 
L 1825 4091 
L 703 3866 
L 703 4441 
L 1819 4666 
L 2450 4666 
L 2450 531 
L 3481 531 
L 3481 0 
L 794 0 
L 794 531 
z
" transform="scale(0.015625)"/>
       </defs>
       <use xlink:href="#DejaVuSans-2212"/>
       <use xlink:href="#DejaVuSans-31" x="83.789062"/>
      </g>
     </g>
    </g>
    <g id="xtick_4">
     <g id="line2d_4">
      <g>
       <use xlink:href="#m8f1de1206a" x="436.034824" y="128.528148" style="stroke: #000000; stroke-width: 0.8"/>
      </g>
     </g>
     <g id="text_4">
      <!-- 0 -->
      <g transform="translate(432.853574 143.126585) scale(0.1 -0.1)">
       <defs>
        <path id="DejaVuSans-30" d="M 2034 4250 
Q 1547 4250 1301 3770 
Q 1056 3291 1056 2328 
Q 1056 1369 1301 889 
Q 1547 409 2034 409 
Q 2525 409 2770 889 
Q 3016 1369 3016 2328 
Q 3016 3291 2770 3770 
Q 2525 4250 2034 4250 
z
M 2034 4750 
Q 2819 4750 3233 4129 
Q 3647 3509 3647 2328 
Q 3647 1150 3233 529 
Q 2819 -91 2034 -91 
Q 1250 -91 836 529 
Q 422 1150 422 2328 
Q 422 3509 836 4129 
Q 1250 4750 2034 4750 
z
" transform="scale(0.015625)"/>
       </defs>
       <use xlink:href="#DejaVuSans-30"/>
      </g>
     </g>
    </g>
    <g id="xtick_5">
     <g id="line2d_5">
      <g>
       <use xlink:href="#m8f1de1206a" x="573.486173" y="128.528148" style="stroke: #000000; stroke-width: 0.8"/>
      </g>
     </g>
     <g id="text_5">
      <!-- 1 -->
      <g transform="translate(570.304923 143.126585) scale(0.1 -0.1)">
       <use xlink:href="#DejaVuSans-31"/>
      </g>
     </g>
    </g>
    <g id="xtick_6">
     <g id="line2d_6">
      <g>
       <use xlink:href="#m8f1de1206a" x="710.937523" y="128.528148" style="stroke: #000000; stroke-width: 0.8"/>
      </g>
     </g>
     <g id="text_6">
      <!-- 2 -->
      <g transform="translate(707.756273 143.126585) scale(0.1 -0.1)">
       <use xlink:href="#DejaVuSans-32"/>
      </g>
     </g>
    </g>
    <g id="xtick_7">
     <g id="line2d_7">
      <g>
       <use xlink:href="#m8f1de1206a" x="848.388872" y="128.528148" style="stroke: #000000; stroke-width: 0.8"/>
      </g>
     </g>
     <g id="text_7">
      <!-- 3 -->
      <g transform="translate(845.207622 143.126585) scale(0.1 -0.1)">
       <use xlink:href="#DejaVuSans-33"/>
      </g>
     </g>
    </g>
   </g>
   <g id="matplotlib.axis_2"/>
   <g id="line2d_8">
    <path d="M 46.532979 128.528148 
L 46.532979 20.214138 
" clip-path="url(#p492e742928)" style="fill: none; stroke: #000000; stroke-width: 1.5; stroke-linecap: square"/>
   </g>
   <g id="line2d_9">
    <path d="M 81.755365 128.528148 
L 81.755365 20.214138 
" clip-path="url(#p492e742928)" style="fill: none; stroke: #000000; stroke-width: 1.5; stroke-linecap: square"/>
   </g>
   <g id="line2d_10">
    <path d="M 116.977719 128.528148 
L 116.977719 20.214138 
" clip-path="url(#p492e742928)" style="fill: none; stroke: #000000; stroke-width: 1.5; stroke-linecap: square"/>
   </g>
   <g id="line2d_11">
    <path d="M 152.200106 128.528148 
L 152.200106 20.214138 
" clip-path="url(#p492e742928)" style="fill: none; stroke: #000000; stroke-width: 1.5; stroke-linecap: square"/>
   </g>
   <g id="line2d_12">
    <path d="M 187.422477 128.528148 
L 187.422477 20.214138 
" clip-path="url(#p492e742928)" style="fill: none; stroke: #000000; stroke-width: 1.5; stroke-linecap: square"/>
   </g>
   <g id="line2d_13">
    <path d="M 222.644847 128.528148 
L 222.644847 20.214138 
" clip-path="url(#p492e742928)" style="fill: none; stroke: #000000; stroke-width: 1.5; stroke-linecap: square"/>
   </g>
   <g id="line2d_14">
    <path d="M 257.867234 128.528148 
L 257.867234 20.214138 
" clip-path="url(#p492e742928)" style="fill: none; stroke: #000000; stroke-width: 1.5; stroke-linecap: square"/>
   </g>
   <g id="line2d_15">
    <path d="M 293.089604 128.528148 
L 293.089604 20.214138 
" clip-path="url(#p492e742928)" style="fill: none; stroke: #000000; stroke-width: 1.5; stroke-linecap: square"/>
   </g>
   <g id="line2d_16">
    <path d="M 328.311974 128.528148 
L 328.311974 20.214138 
" clip-path="url(#p492e742928)" style="fill: none; stroke: #000000; stroke-width: 1.5; stroke-linecap: square"/>
   </g>
   <g id="line2d_17">
    <path d="M 363.534353 128.528148 
L 363.534353 20.214138 
" clip-path="url(#p492e742928)" style="fill: none; stroke: #000000; stroke-width: 1.5; stroke-linecap: square"/>
   </g>
   <g id="line2d_18">
    <path d="M 398.756727 128.528148 
L 398.756727 20.214138 
" clip-path="url(#p492e742928)" style="fill: none; stroke: #000000; stroke-width: 1.5; stroke-linecap: square"/>
   </g>
   <g id="line2d_19">
    <path d="M 433.979103 128.528148 
L 433.979103 20.214138 
" clip-path="url(#p492e742928)" style="fill: none; stroke: #000000; stroke-width: 1.5; stroke-linecap: square"/>
   </g>
   <g id="line2d_20">
    <path d="M 469.201478 128.528148 
L 469.201478 20.214138 
" clip-path="url(#p492e742928)" style="fill: none; stroke: #000000; stroke-width: 1.5; stroke-linecap: square"/>
   </g>
   <g id="line2d_21">
    <path d="M 504.423851 128.528148 
L 504.423851 20.214138 
" clip-path="url(#p492e742928)" style="fill: none; stroke: #000000; stroke-width: 1.5; stroke-linecap: square"/>
   </g>
   <g id="line2d_22">
    <path d="M 539.646229 128.528148 
L 539.646229 20.214138 
" clip-path="url(#p492e742928)" style="fill: none; stroke: #000000; stroke-width: 1.5; stroke-linecap: square"/>
   </g>
   <g id="line2d_23">
    <path d="M 574.8686 128.528148 
L 574.8686 20.214138 
" clip-path="url(#p492e742928)" style="fill: none; stroke: #000000; stroke-width: 1.5; stroke-linecap: square"/>
   </g>
   <g id="line2d_24">
    <path d="M 610.09097 128.528148 
L 610.09097 20.214138 
" clip-path="url(#p492e742928)" style="fill: none; stroke: #000000; stroke-width: 1.5; stroke-linecap: square"/>
   </g>
   <g id="line2d_25">
    <path d="M 645.313357 128.528148 
L 645.313357 20.214138 
" clip-path="url(#p492e742928)" style="fill: none; stroke: #000000; stroke-width: 1.5; stroke-linecap: square"/>
   </g>
   <g id="line2d_26">
    <path d="M 680.535727 128.528148 
L 680.535727 20.214138 
" clip-path="url(#p492e742928)" style="fill: none; stroke: #000000; stroke-width: 1.5; stroke-linecap: square"/>
   </g>
   <g id="line2d_27">
    <path d="M 715.758097 128.528148 
L 715.758097 20.214138 
" clip-path="url(#p492e742928)" style="fill: none; stroke: #000000; stroke-width: 1.5; stroke-linecap: square"/>
   </g>
   <g id="line2d_28">
    <path d="M 750.980484 128.528148 
L 750.980484 20.214138 
" clip-path="url(#p492e742928)" style="fill: none; stroke: #000000; stroke-width: 1.5; stroke-linecap: square"/>
   </g>
   <g id="line2d_29">
    <path d="M 786.202838 128.528148 
L 786.202838 20.214138 
" clip-path="url(#p492e742928)" style="fill: none; stroke: #000000; stroke-width: 1.5; stroke-linecap: square"/>
   </g>
   <g id="line2d_30">
    <path d="M 821.425225 128.528148 
L 821.425225 20.214138 
" clip-path="url(#p492e742928)" style="fill: none; stroke: #000000; stroke-width: 1.5; stroke-linecap: square"/>
   </g>
   <g id="line2d_31">
    <path d="M 23.693655 128.528148 
L 23.693655 20.214138 
" clip-path="url(#p492e742928)" style="fill: none; stroke: #ff0000; stroke-width: 1.5; stroke-linecap: square"/>
   </g>
   <g id="line2d_32">
    <path d="M 845.170961 128.528148 
L 845.170961 20.214138 
" clip-path="url(#p492e742928)" style="fill: none; stroke: #ff0000; stroke-width: 1.5; stroke-linecap: square"/>
   </g>
   <g id="patch_3">
    <path d="M 7.2 128.528148 
L 7.2 20.214138 
" style="fill: none; stroke: #000000; stroke-width: 0.8; stroke-linejoin: miter; stroke-linecap: square"/>
   </g>
   <g id="patch_4">
    <path d="M 865.19952 128.528148 
L 865.19952 20.214138 
" style="fill: none; stroke: #000000; stroke-width: 0.8; stroke-linejoin: miter; stroke-linecap: square"/>
   </g>
   <g id="patch_5">
    <path d="M 7.2 128.528148 
L 865.19952 128.528148 
" style="fill: none; stroke: #000000; stroke-width: 0.8; stroke-linejoin: miter; stroke-linecap: square"/>
   </g>
   <g id="patch_6">
    <path d="M 7.2 20.214138 
L 865.19952 20.214138 
" style="fill: none; stroke: #000000; stroke-width: 0.8; stroke-linejoin: miter; stroke-linecap: square"/>
   </g>
   <g id="text_8">
    <g id="patch_7">
     <path d="M 22.693655 104.10708 
L 22.693655 44.635205 
Q 22.693655 44.635205 22.693655 44.635205 
L 13.01553 44.635205 
Q 13.01553 44.635205 13.01553 44.635205 
L 13.01553 104.10708 
Q 13.01553 104.10708 13.01553 104.10708 
L 22.693655 104.10708 
Q 22.693655 104.10708 22.693655 104.10708 
z
" style="fill: #ffffff"/>
    </g>
    <!-- min=-3.000 -->
    <g transform="translate(20.613967 104.10708) rotate(-90) scale(0.1 -0.1)">
     <defs>
      <path id="DejaVuSans-6d" d="M 3328 2828 
Q 3544 3216 3844 3400 
Q 4144 3584 4550 3584 
Q 5097 3584 5394 3201 
Q 5691 2819 5691 2113 
L 5691 0 
L 5113 0 
L 5113 2094 
Q 5113 2597 4934 2840 
Q 4756 3084 4391 3084 
Q 3944 3084 3684 2787 
Q 3425 2491 3425 1978 
L 3425 0 
L 2847 0 
L 2847 2094 
Q 2847 2600 2669 2842 
Q 2491 3084 2119 3084 
Q 1678 3084 1418 2786 
Q 1159 2488 1159 1978 
L 1159 0 
L 581 0 
L 581 3500 
L 1159 3500 
L 1159 2956 
Q 1356 3278 1631 3431 
Q 1906 3584 2284 3584 
Q 2666 3584 2933 3390 
Q 3200 3197 3328 2828 
z
" transform="scale(0.015625)"/>
      <path id="DejaVuSans-69" d="M 603 3500 
L 1178 3500 
L 1178 0 
L 603 0 
L 603 3500 
z
M 603 4863 
L 1178 4863 
L 1178 4134 
L 603 4134 
L 603 4863 
z
" transform="scale(0.015625)"/>
      <path id="DejaVuSans-6e" d="M 3513 2113 
L 3513 0 
L 2938 0 
L 2938 2094 
Q 2938 2591 2744 2837 
Q 2550 3084 2163 3084 
Q 1697 3084 1428 2787 
Q 1159 2491 1159 1978 
L 1159 0 
L 581 0 
L 581 3500 
L 1159 3500 
L 1159 2956 
Q 1366 3272 1645 3428 
Q 1925 3584 2291 3584 
Q 2894 3584 3203 3211 
Q 3513 2838 3513 2113 
z
" transform="scale(0.015625)"/>
      <path id="DejaVuSans-3d" d="M 678 2906 
L 4684 2906 
L 4684 2381 
L 678 2381 
L 678 2906 
z
M 678 1631 
L 4684 1631 
L 4684 1100 
L 678 1100 
L 678 1631 
z
" transform="scale(0.015625)"/>
      <path id="DejaVuSans-2d" d="M 313 2009 
L 1997 2009 
L 1997 1497 
L 313 1497 
L 313 2009 
z
" transform="scale(0.015625)"/>
      <path id="DejaVuSans-2e" d="M 684 794 
L 1344 794 
L 1344 0 
L 684 0 
L 684 794 
z
" transform="scale(0.015625)"/>
     </defs>
     <use xlink:href="#DejaVuSans-6d"/>
     <use xlink:href="#DejaVuSans-69" x="97.412109"/>
     <use xlink:href="#DejaVuSans-6e" x="125.195312"/>
     <use xlink:href="#DejaVuSans-3d" x="188.574219"/>
     <use xlink:href="#DejaVuSans-2d" x="272.363281"/>
     <use xlink:href="#DejaVuSans-33" x="308.447266"/>
     <use xlink:href="#DejaVuSans-2e" x="372.070312"/>
     <use xlink:href="#DejaVuSans-30" x="403.857422"/>
     <use xlink:href="#DejaVuSans-30" x="467.480469"/>
     <use xlink:href="#DejaVuSans-30" x="531.103516"/>
    </g>
   </g>
   <g id="text_9">
    <g id="patch_8">
     <path d="M 856.849086 103.768799 
L 856.849086 44.973487 
Q 856.849086 44.973487 856.849086 44.973487 
L 847.170961 44.973487 
Q 847.170961 44.973487 847.170961 44.973487 
L 847.170961 103.768799 
Q 847.170961 103.768799 847.170961 103.768799 
L 856.849086 103.768799 
Q 856.849086 103.768799 856.849086 103.768799 
z
" style="fill: #ffffff"/>
    </g>
    <!-- max=2.977 -->
    <g transform="translate(854.769398 103.768799) rotate(-90) scale(0.1 -0.1)">
     <defs>
      <path id="DejaVuSans-61" d="M 2194 1759 
Q 1497 1759 1228 1600 
Q 959 1441 959 1056 
Q 959 750 1161 570 
Q 1363 391 1709 391 
Q 2188 391 2477 730 
Q 2766 1069 2766 1631 
L 2766 1759 
L 2194 1759 
z
M 3341 1997 
L 3341 0 
L 2766 0 
L 2766 531 
Q 2569 213 2275 61 
Q 1981 -91 1556 -91 
Q 1019 -91 701 211 
Q 384 513 384 1019 
Q 384 1609 779 1909 
Q 1175 2209 1959 2209 
L 2766 2209 
L 2766 2266 
Q 2766 2663 2505 2880 
Q 2244 3097 1772 3097 
Q 1472 3097 1187 3025 
Q 903 2953 641 2809 
L 641 3341 
Q 956 3463 1253 3523 
Q 1550 3584 1831 3584 
Q 2591 3584 2966 3190 
Q 3341 2797 3341 1997 
z
" transform="scale(0.015625)"/>
      <path id="DejaVuSans-78" d="M 3513 3500 
L 2247 1797 
L 3578 0 
L 2900 0 
L 1881 1375 
L 863 0 
L 184 0 
L 1544 1831 
L 300 3500 
L 978 3500 
L 1906 2253 
L 2834 3500 
L 3513 3500 
z
" transform="scale(0.015625)"/>
      <path id="DejaVuSans-39" d="M 703 97 
L 703 672 
Q 941 559 1184 500 
Q 1428 441 1663 441 
Q 2288 441 2617 861 
Q 2947 1281 2994 2138 
Q 2813 1869 2534 1725 
Q 2256 1581 1919 1581 
Q 1219 1581 811 2004 
Q 403 2428 403 3163 
Q 403 3881 828 4315 
Q 1253 4750 1959 4750 
Q 2769 4750 3195 4129 
Q 3622 3509 3622 2328 
Q 3622 1225 3098 567 
Q 2575 -91 1691 -91 
Q 1453 -91 1209 -44 
Q 966 3 703 97 
z
M 1959 2075 
Q 2384 2075 2632 2365 
Q 2881 2656 2881 3163 
Q 2881 3666 2632 3958 
Q 2384 4250 1959 4250 
Q 1534 4250 1286 3958 
Q 1038 3666 1038 3163 
Q 1038 2656 1286 2365 
Q 1534 2075 1959 2075 
z
" transform="scale(0.015625)"/>
      <path id="DejaVuSans-37" d="M 525 4666 
L 3525 4666 
L 3525 4397 
L 1831 0 
L 1172 0 
L 2766 4134 
L 525 4134 
L 525 4666 
z
" transform="scale(0.015625)"/>
     </defs>
     <use xlink:href="#DejaVuSans-6d"/>
     <use xlink:href="#DejaVuSans-61" x="97.412109"/>
     <use xlink:href="#DejaVuSans-78" x="158.691406"/>
     <use xlink:href="#DejaVuSans-3d" x="217.871094"/>
     <use xlink:href="#DejaVuSans-32" x="301.660156"/>
     <use xlink:href="#DejaVuSans-2e" x="365.283203"/>
     <use xlink:href="#DejaVuSans-39" x="397.070312"/>
     <use xlink:href="#DejaVuSans-37" x="460.693359"/>
     <use xlink:href="#DejaVuSans-37" x="524.316406"/>
    </g>
   </g>
   <g id="text_10">
    <!-- 10000 samples (μ=-0.015, σ=0.256) of tensor[128, 64, 3, 3] n=73728 x∈[-3.000, 2.977] μ=-0.017 σ=0.250 -->
    <g transform="translate(7.2 14.798437) scale(0.1 -0.1)">
     <defs>
      <path id="DejaVuSans-20" transform="scale(0.015625)"/>
      <path id="DejaVuSans-73" d="M 2834 3397 
L 2834 2853 
Q 2591 2978 2328 3040 
Q 2066 3103 1784 3103 
Q 1356 3103 1142 2972 
Q 928 2841 928 2578 
Q 928 2378 1081 2264 
Q 1234 2150 1697 2047 
L 1894 2003 
Q 2506 1872 2764 1633 
Q 3022 1394 3022 966 
Q 3022 478 2636 193 
Q 2250 -91 1575 -91 
Q 1294 -91 989 -36 
Q 684 19 347 128 
L 347 722 
Q 666 556 975 473 
Q 1284 391 1588 391 
Q 1994 391 2212 530 
Q 2431 669 2431 922 
Q 2431 1156 2273 1281 
Q 2116 1406 1581 1522 
L 1381 1569 
Q 847 1681 609 1914 
Q 372 2147 372 2553 
Q 372 3047 722 3315 
Q 1072 3584 1716 3584 
Q 2034 3584 2315 3537 
Q 2597 3491 2834 3397 
z
" transform="scale(0.015625)"/>
      <path id="DejaVuSans-70" d="M 1159 525 
L 1159 -1331 
L 581 -1331 
L 581 3500 
L 1159 3500 
L 1159 2969 
Q 1341 3281 1617 3432 
Q 1894 3584 2278 3584 
Q 2916 3584 3314 3078 
Q 3713 2572 3713 1747 
Q 3713 922 3314 415 
Q 2916 -91 2278 -91 
Q 1894 -91 1617 61 
Q 1341 213 1159 525 
z
M 3116 1747 
Q 3116 2381 2855 2742 
Q 2594 3103 2138 3103 
Q 1681 3103 1420 2742 
Q 1159 2381 1159 1747 
Q 1159 1113 1420 752 
Q 1681 391 2138 391 
Q 2594 391 2855 752 
Q 3116 1113 3116 1747 
z
" transform="scale(0.015625)"/>
      <path id="DejaVuSans-6c" d="M 603 4863 
L 1178 4863 
L 1178 0 
L 603 0 
L 603 4863 
z
" transform="scale(0.015625)"/>
      <path id="DejaVuSans-65" d="M 3597 1894 
L 3597 1613 
L 953 1613 
Q 991 1019 1311 708 
Q 1631 397 2203 397 
Q 2534 397 2845 478 
Q 3156 559 3463 722 
L 3463 178 
Q 3153 47 2828 -22 
Q 2503 -91 2169 -91 
Q 1331 -91 842 396 
Q 353 884 353 1716 
Q 353 2575 817 3079 
Q 1281 3584 2069 3584 
Q 2775 3584 3186 3129 
Q 3597 2675 3597 1894 
z
M 3022 2063 
Q 3016 2534 2758 2815 
Q 2500 3097 2075 3097 
Q 1594 3097 1305 2825 
Q 1016 2553 972 2059 
L 3022 2063 
z
" transform="scale(0.015625)"/>
      <path id="DejaVuSans-28" d="M 1984 4856 
Q 1566 4138 1362 3434 
Q 1159 2731 1159 2009 
Q 1159 1288 1364 580 
Q 1569 -128 1984 -844 
L 1484 -844 
Q 1016 -109 783 600 
Q 550 1309 550 2009 
Q 550 2706 781 3412 
Q 1013 4119 1484 4856 
L 1984 4856 
z
" transform="scale(0.015625)"/>
      <path id="DejaVuSans-3bc" d="M 544 -1331 
L 544 3500 
L 1119 3500 
L 1119 1325 
Q 1119 872 1334 640 
Q 1550 409 1972 409 
Q 2434 409 2667 671 
Q 2900 934 2900 1459 
L 2900 3500 
L 3475 3500 
L 3475 806 
Q 3475 619 3529 530 
Q 3584 441 3700 441 
Q 3728 441 3778 458 
Q 3828 475 3916 513 
L 3916 50 
Q 3788 -22 3673 -56 
Q 3559 -91 3450 -91 
Q 3234 -91 3106 31 
Q 2978 153 2931 403 
Q 2775 156 2548 32 
Q 2322 -91 2016 -91 
Q 1697 -91 1473 31 
Q 1250 153 1119 397 
L 1119 -1331 
L 544 -1331 
z
" transform="scale(0.015625)"/>
      <path id="DejaVuSans-35" d="M 691 4666 
L 3169 4666 
L 3169 4134 
L 1269 4134 
L 1269 2991 
Q 1406 3038 1543 3061 
Q 1681 3084 1819 3084 
Q 2600 3084 3056 2656 
Q 3513 2228 3513 1497 
Q 3513 744 3044 326 
Q 2575 -91 1722 -91 
Q 1428 -91 1123 -41 
Q 819 9 494 109 
L 494 744 
Q 775 591 1075 516 
Q 1375 441 1709 441 
Q 2250 441 2565 725 
Q 2881 1009 2881 1497 
Q 2881 1984 2565 2268 
Q 2250 2553 1709 2553 
Q 1456 2553 1204 2497 
Q 953 2441 691 2322 
L 691 4666 
z
" transform="scale(0.015625)"/>
      <path id="DejaVuSans-2c" d="M 750 794 
L 1409 794 
L 1409 256 
L 897 -744 
L 494 -744 
L 750 256 
L 750 794 
z
" transform="scale(0.015625)"/>
      <path id="DejaVuSans-3c3" d="M 1959 3044 
Q 1484 3044 1228 2700 
Q 959 2341 959 1747 
Q 959 1119 1226 758 
Q 1494 397 1959 397 
Q 2419 397 2687 759 
Q 2956 1122 2956 1747 
Q 2956 2319 2688 2700 
Q 2441 3044 1959 3044 
z
M 1959 3500 
L 3869 3500 
L 3869 2925 
L 3225 2925 
Q 3566 2438 3566 1747 
Q 3566 888 3138 400 
Q 2709 -91 1959 -91 
Q 1206 -91 781 400 
Q 353 888 353 1747 
Q 353 2613 781 3097 
Q 1134 3500 1959 3500 
z
" transform="scale(0.015625)"/>
      <path id="DejaVuSans-36" d="M 2113 2584 
Q 1688 2584 1439 2293 
Q 1191 2003 1191 1497 
Q 1191 994 1439 701 
Q 1688 409 2113 409 
Q 2538 409 2786 701 
Q 3034 994 3034 1497 
Q 3034 2003 2786 2293 
Q 2538 2584 2113 2584 
z
M 3366 4563 
L 3366 3988 
Q 3128 4100 2886 4159 
Q 2644 4219 2406 4219 
Q 1781 4219 1451 3797 
Q 1122 3375 1075 2522 
Q 1259 2794 1537 2939 
Q 1816 3084 2150 3084 
Q 2853 3084 3261 2657 
Q 3669 2231 3669 1497 
Q 3669 778 3244 343 
Q 2819 -91 2113 -91 
Q 1303 -91 875 529 
Q 447 1150 447 2328 
Q 447 3434 972 4092 
Q 1497 4750 2381 4750 
Q 2619 4750 2861 4703 
Q 3103 4656 3366 4563 
z
" transform="scale(0.015625)"/>
      <path id="DejaVuSans-29" d="M 513 4856 
L 1013 4856 
Q 1481 4119 1714 3412 
Q 1947 2706 1947 2009 
Q 1947 1309 1714 600 
Q 1481 -109 1013 -844 
L 513 -844 
Q 928 -128 1133 580 
Q 1338 1288 1338 2009 
Q 1338 2731 1133 3434 
Q 928 4138 513 4856 
z
" transform="scale(0.015625)"/>
      <path id="DejaVuSans-6f" d="M 1959 3097 
Q 1497 3097 1228 2736 
Q 959 2375 959 1747 
Q 959 1119 1226 758 
Q 1494 397 1959 397 
Q 2419 397 2687 759 
Q 2956 1122 2956 1747 
Q 2956 2369 2687 2733 
Q 2419 3097 1959 3097 
z
M 1959 3584 
Q 2709 3584 3137 3096 
Q 3566 2609 3566 1747 
Q 3566 888 3137 398 
Q 2709 -91 1959 -91 
Q 1206 -91 779 398 
Q 353 888 353 1747 
Q 353 2609 779 3096 
Q 1206 3584 1959 3584 
z
" transform="scale(0.015625)"/>
      <path id="DejaVuSans-66" d="M 2375 4863 
L 2375 4384 
L 1825 4384 
Q 1516 4384 1395 4259 
Q 1275 4134 1275 3809 
L 1275 3500 
L 2222 3500 
L 2222 3053 
L 1275 3053 
L 1275 0 
L 697 0 
L 697 3053 
L 147 3053 
L 147 3500 
L 697 3500 
L 697 3744 
Q 697 4328 969 4595 
Q 1241 4863 1831 4863 
L 2375 4863 
z
" transform="scale(0.015625)"/>
      <path id="DejaVuSans-74" d="M 1172 4494 
L 1172 3500 
L 2356 3500 
L 2356 3053 
L 1172 3053 
L 1172 1153 
Q 1172 725 1289 603 
Q 1406 481 1766 481 
L 2356 481 
L 2356 0 
L 1766 0 
Q 1100 0 847 248 
Q 594 497 594 1153 
L 594 3053 
L 172 3053 
L 172 3500 
L 594 3500 
L 594 4494 
L 1172 4494 
z
" transform="scale(0.015625)"/>
      <path id="DejaVuSans-72" d="M 2631 2963 
Q 2534 3019 2420 3045 
Q 2306 3072 2169 3072 
Q 1681 3072 1420 2755 
Q 1159 2438 1159 1844 
L 1159 0 
L 581 0 
L 581 3500 
L 1159 3500 
L 1159 2956 
Q 1341 3275 1631 3429 
Q 1922 3584 2338 3584 
Q 2397 3584 2469 3576 
Q 2541 3569 2628 3553 
L 2631 2963 
z
" transform="scale(0.015625)"/>
      <path id="DejaVuSans-5b" d="M 550 4863 
L 1875 4863 
L 1875 4416 
L 1125 4416 
L 1125 -397 
L 1875 -397 
L 1875 -844 
L 550 -844 
L 550 4863 
z
" transform="scale(0.015625)"/>
      <path id="DejaVuSans-38" d="M 2034 2216 
Q 1584 2216 1326 1975 
Q 1069 1734 1069 1313 
Q 1069 891 1326 650 
Q 1584 409 2034 409 
Q 2484 409 2743 651 
Q 3003 894 3003 1313 
Q 3003 1734 2745 1975 
Q 2488 2216 2034 2216 
z
M 1403 2484 
Q 997 2584 770 2862 
Q 544 3141 544 3541 
Q 544 4100 942 4425 
Q 1341 4750 2034 4750 
Q 2731 4750 3128 4425 
Q 3525 4100 3525 3541 
Q 3525 3141 3298 2862 
Q 3072 2584 2669 2484 
Q 3125 2378 3379 2068 
Q 3634 1759 3634 1313 
Q 3634 634 3220 271 
Q 2806 -91 2034 -91 
Q 1263 -91 848 271 
Q 434 634 434 1313 
Q 434 1759 690 2068 
Q 947 2378 1403 2484 
z
M 1172 3481 
Q 1172 3119 1398 2916 
Q 1625 2713 2034 2713 
Q 2441 2713 2670 2916 
Q 2900 3119 2900 3481 
Q 2900 3844 2670 4047 
Q 2441 4250 2034 4250 
Q 1625 4250 1398 4047 
Q 1172 3844 1172 3481 
z
" transform="scale(0.015625)"/>
      <path id="DejaVuSans-34" d="M 2419 4116 
L 825 1625 
L 2419 1625 
L 2419 4116 
z
M 2253 4666 
L 3047 4666 
L 3047 1625 
L 3713 1625 
L 3713 1100 
L 3047 1100 
L 3047 0 
L 2419 0 
L 2419 1100 
L 313 1100 
L 313 1709 
L 2253 4666 
z
" transform="scale(0.015625)"/>
      <path id="DejaVuSans-5d" d="M 1947 4863 
L 1947 -844 
L 622 -844 
L 622 -397 
L 1369 -397 
L 1369 4416 
L 622 4416 
L 622 4863 
L 1947 4863 
z
" transform="scale(0.015625)"/>
      <path id="DejaVuSans-2208" d="M 1072 1959 
Q 1094 1728 1291 1353 
Q 1522 919 1959 675 
Q 2388 438 2850 434 
L 5028 434 
L 5028 -63 
L 2850 -63 
Q 2250 -63 1695 246 
Q 1141 556 844 1106 
Q 547 1656 547 2241 
Q 547 2819 844 3369 
Q 1141 3919 1695 4231 
Q 2250 4544 2850 4544 
L 5028 4544 
L 5028 4047 
L 2850 4047 
Q 2388 4044 1959 3803 
Q 1525 3556 1291 3125 
Q 1091 2750 1063 2459 
L 5028 2459 
L 5028 1959 
L 1072 1959 
z
" transform="scale(0.015625)"/>
     </defs>
     <use xlink:href="#DejaVuSans-31"/>
     <use xlink:href="#DejaVuSans-30" x="63.623047"/>
     <use xlink:href="#DejaVuSans-30" x="127.246094"/>
     <use xlink:href="#DejaVuSans-30" x="190.869141"/>
     <use xlink:href="#DejaVuSans-30" x="254.492188"/>
     <use xlink:href="#DejaVuSans-20" x="318.115234"/>
     <use xlink:href="#DejaVuSans-73" x="349.902344"/>
     <use xlink:href="#DejaVuSans-61" x="402.001953"/>
     <use xlink:href="#DejaVuSans-6d" x="463.28125"/>
     <use xlink:href="#DejaVuSans-70" x="560.693359"/>
     <use xlink:href="#DejaVuSans-6c" x="624.169922"/>
     <use xlink:href="#DejaVuSans-65" x="651.953125"/>
     <use xlink:href="#DejaVuSans-73" x="713.476562"/>
     <use xlink:href="#DejaVuSans-20" x="765.576172"/>
     <use xlink:href="#DejaVuSans-28" x="797.363281"/>
     <use xlink:href="#DejaVuSans-3bc" x="836.376953"/>
     <use xlink:href="#DejaVuSans-3d" x="900"/>
     <use xlink:href="#DejaVuSans-2d" x="983.789062"/>
     <use xlink:href="#DejaVuSans-30" x="1019.873047"/>
     <use xlink:href="#DejaVuSans-2e" x="1083.496094"/>
     <use xlink:href="#DejaVuSans-30" x="1115.283203"/>
     <use xlink:href="#DejaVuSans-31" x="1178.90625"/>
     <use xlink:href="#DejaVuSans-35" x="1242.529297"/>
     <use xlink:href="#DejaVuSans-2c" x="1306.152344"/>
     <use xlink:href="#DejaVuSans-20" x="1337.939453"/>
     <use xlink:href="#DejaVuSans-3c3" x="1369.726562"/>
     <use xlink:href="#DejaVuSans-3d" x="1433.105469"/>
     <use xlink:href="#DejaVuSans-30" x="1516.894531"/>
     <use xlink:href="#DejaVuSans-2e" x="1580.517578"/>
     <use xlink:href="#DejaVuSans-32" x="1612.304688"/>
     <use xlink:href="#DejaVuSans-35" x="1675.927734"/>
     <use xlink:href="#DejaVuSans-36" x="1739.550781"/>
     <use xlink:href="#DejaVuSans-29" x="1803.173828"/>
     <use xlink:href="#DejaVuSans-20" x="1842.1875"/>
     <use xlink:href="#DejaVuSans-6f" x="1873.974609"/>
     <use xlink:href="#DejaVuSans-66" x="1935.15625"/>
     <use xlink:href="#DejaVuSans-20" x="1970.361328"/>
     <use xlink:href="#DejaVuSans-74" x="2002.148438"/>
     <use xlink:href="#DejaVuSans-65" x="2041.357422"/>
     <use xlink:href="#DejaVuSans-6e" x="2102.880859"/>
     <use xlink:href="#DejaVuSans-73" x="2166.259766"/>
     <use xlink:href="#DejaVuSans-6f" x="2218.359375"/>
     <use xlink:href="#DejaVuSans-72" x="2279.541016"/>
     <use xlink:href="#DejaVuSans-5b" x="2320.654297"/>
     <use xlink:href="#DejaVuSans-31" x="2359.667969"/>
     <use xlink:href="#DejaVuSans-32" x="2423.291016"/>
     <use xlink:href="#DejaVuSans-38" x="2486.914062"/>
     <use xlink:href="#DejaVuSans-2c" x="2550.537109"/>
     <use xlink:href="#DejaVuSans-20" x="2582.324219"/>
     <use xlink:href="#DejaVuSans-36" x="2614.111328"/>
     <use xlink:href="#DejaVuSans-34" x="2677.734375"/>
     <use xlink:href="#DejaVuSans-2c" x="2741.357422"/>
     <use xlink:href="#DejaVuSans-20" x="2773.144531"/>
     <use xlink:href="#DejaVuSans-33" x="2804.931641"/>
     <use xlink:href="#DejaVuSans-2c" x="2868.554688"/>
     <use xlink:href="#DejaVuSans-20" x="2900.341797"/>
     <use xlink:href="#DejaVuSans-33" x="2932.128906"/>
     <use xlink:href="#DejaVuSans-5d" x="2995.751953"/>
     <use xlink:href="#DejaVuSans-20" x="3034.765625"/>
     <use xlink:href="#DejaVuSans-6e" x="3066.552734"/>
     <use xlink:href="#DejaVuSans-3d" x="3129.931641"/>
     <use xlink:href="#DejaVuSans-37" x="3213.720703"/>
     <use xlink:href="#DejaVuSans-33" x="3277.34375"/>
     <use xlink:href="#DejaVuSans-37" x="3340.966797"/>
     <use xlink:href="#DejaVuSans-32" x="3404.589844"/>
     <use xlink:href="#DejaVuSans-38" x="3468.212891"/>
     <use xlink:href="#DejaVuSans-20" x="3531.835938"/>
     <use xlink:href="#DejaVuSans-78" x="3563.623047"/>
     <use xlink:href="#DejaVuSans-2208" x="3622.802734"/>
     <use xlink:href="#DejaVuSans-5b" x="3709.912109"/>
     <use xlink:href="#DejaVuSans-2d" x="3748.925781"/>
     <use xlink:href="#DejaVuSans-33" x="3785.009766"/>
     <use xlink:href="#DejaVuSans-2e" x="3848.632812"/>
     <use xlink:href="#DejaVuSans-30" x="3880.419922"/>
     <use xlink:href="#DejaVuSans-30" x="3944.042969"/>
     <use xlink:href="#DejaVuSans-30" x="4007.666016"/>
     <use xlink:href="#DejaVuSans-2c" x="4071.289062"/>
     <use xlink:href="#DejaVuSans-20" x="4103.076172"/>
     <use xlink:href="#DejaVuSans-32" x="4134.863281"/>
     <use xlink:href="#DejaVuSans-2e" x="4198.486328"/>
     <use xlink:href="#DejaVuSans-39" x="4230.273438"/>
     <use xlink:href="#DejaVuSans-37" x="4293.896484"/>
     <use xlink:href="#DejaVuSans-37" x="4357.519531"/>
     <use xlink:href="#DejaVuSans-5d" x="4421.142578"/>
     <use xlink:href="#DejaVuSans-20" x="4460.15625"/>
     <use xlink:href="#DejaVuSans-3bc" x="4491.943359"/>
     <use xlink:href="#DejaVuSans-3d" x="4555.566406"/>
     <use xlink:href="#DejaVuSans-2d" x="4639.355469"/>
     <use xlink:href="#DejaVuSans-30" x="4675.439453"/>
     <use xlink:href="#DejaVuSans-2e" x="4739.0625"/>
     <use xlink:href="#DejaVuSans-30" x="4770.849609"/>
     <use xlink:href="#DejaVuSans-31" x="4834.472656"/>
     <use xlink:href="#DejaVuSans-37" x="4898.095703"/>
     <use xlink:href="#DejaVuSans-20" x="4961.71875"/>
     <use xlink:href="#DejaVuSans-3c3" x="4993.505859"/>
     <use xlink:href="#DejaVuSans-3d" x="5056.884766"/>
     <use xlink:href="#DejaVuSans-30" x="5140.673828"/>
     <use xlink:href="#DejaVuSans-2e" x="5204.296875"/>
     <use xlink:href="#DejaVuSans-32" x="5236.083984"/>
     <use xlink:href="#DejaVuSans-35" x="5299.707031"/>
     <use xlink:href="#DejaVuSans-30" x="5363.330078"/>
    </g>
   </g>
   <g id="patch_9">
    <path d="M 180.115242 128.528148 
L 188.644964 128.528148 
L 188.644964 128.478708 
L 180.115242 128.478708 
z
" clip-path="url(#p492e742928)" style="fill: #00bfff"/>
   </g>
   <g id="patch_10">
    <path d="M 188.644964 128.528148 
L 197.17467 128.528148 
L 197.17467 128.528148 
L 188.644964 128.528148 
z
" clip-path="url(#p492e742928)" style="fill: #00bfff"/>
   </g>
   <g id="patch_11">
    <path d="M 197.17467 128.528148 
L 205.704393 128.528148 
L 205.704393 128.528148 
L 197.17467 128.528148 
z
" clip-path="url(#p492e742928)" style="fill: #00bfff"/>
   </g>
   <g id="patch_12">
    <path d="M 205.704393 128.528148 
L 214.234116 128.528148 
L 214.234116 128.478708 
L 205.704393 128.478708 
z
" clip-path="url(#p492e742928)" style="fill: #00bfff"/>
   </g>
   <g id="patch_13">
    <path d="M 214.234116 128.528148 
L 222.763822 128.528148 
L 222.763822 128.379828 
L 214.234116 128.379828 
z
" clip-path="url(#p492e742928)" style="fill: #00bfff"/>
   </g>
   <g id="patch_14">
    <path d="M 222.763822 128.528148 
L 231.293544 128.528148 
L 231.293544 128.429268 
L 222.763822 128.429268 
z
" clip-path="url(#p492e742928)" style="fill: #00bfff"/>
   </g>
   <g id="patch_15">
    <path d="M 231.293544 128.528148 
L 239.823251 128.528148 
L 239.823251 128.478708 
L 231.293544 128.478708 
z
" clip-path="url(#p492e742928)" style="fill: #00bfff"/>
   </g>
   <g id="patch_16">
    <path d="M 239.823251 128.528148 
L 248.352973 128.528148 
L 248.352973 128.429268 
L 239.823251 128.429268 
z
" clip-path="url(#p492e742928)" style="fill: #00bfff"/>
   </g>
   <g id="patch_17">
    <path d="M 248.352973 128.528148 
L 256.882696 128.528148 
L 256.882696 128.429268 
L 248.352973 128.429268 
z
" clip-path="url(#p492e742928)" style="fill: #00bfff"/>
   </g>
   <g id="patch_18">
    <path d="M 256.882696 128.528148 
L 265.412418 128.528148 
L 265.412418 128.330388 
L 256.882696 128.330388 
z
" clip-path="url(#p492e742928)" style="fill: #00bfff"/>
   </g>
   <g id="patch_19">
    <path d="M 265.412418 128.528148 
L 273.942125 128.528148 
L 273.942125 128.429268 
L 265.412418 128.429268 
z
" clip-path="url(#p492e742928)" style="fill: #00bfff"/>
   </g>
   <g id="patch_20">
    <path d="M 273.942125 128.528148 
L 282.471847 128.528148 
L 282.471847 128.379828 
L 273.942125 128.379828 
z
" clip-path="url(#p492e742928)" style="fill: #00bfff"/>
   </g>
   <g id="patch_21">
    <path d="M 282.471847 128.528148 
L 291.001553 128.528148 
L 291.001553 127.885429 
L 282.471847 127.885429 
z
" clip-path="url(#p492e742928)" style="fill: #00bfff"/>
   </g>
   <g id="patch_22">
    <path d="M 291.001553 128.528148 
L 299.531276 128.528148 
L 299.531276 128.182069 
L 291.001553 128.182069 
z
" clip-path="url(#p492e742928)" style="fill: #00bfff"/>
   </g>
   <g id="patch_23">
    <path d="M 299.531276 128.528148 
L 308.060999 128.528148 
L 308.060999 127.83599 
L 299.531276 127.83599 
z
" clip-path="url(#p492e742928)" style="fill: #00bfff"/>
   </g>
   <g id="patch_24">
    <path d="M 308.060999 128.528148 
L 316.590713 128.528148 
L 316.590713 127.68767 
L 308.060999 127.68767 
z
" clip-path="url(#p492e742928)" style="fill: #00bfff"/>
   </g>
   <g id="patch_25">
    <path d="M 316.590713 128.528148 
L 325.120427 128.528148 
L 325.120427 127.44047 
L 316.590713 127.44047 
z
" clip-path="url(#p492e742928)" style="fill: #00bfff"/>
   </g>
   <g id="patch_26">
    <path d="M 325.120427 128.528148 
L 333.65015 128.528148 
L 333.65015 127.588791 
L 325.120427 127.588791 
z
" clip-path="url(#p492e742928)" style="fill: #00bfff"/>
   </g>
   <g id="patch_27">
    <path d="M 333.65015 128.528148 
L 342.179856 128.528148 
L 342.179856 126.74831 
L 333.65015 126.74831 
z
" clip-path="url(#p492e742928)" style="fill: #00bfff"/>
   </g>
   <g id="patch_28">
    <path d="M 342.179856 128.528148 
L 350.709579 128.528148 
L 350.709579 125.957277 
L 342.179856 125.957277 
z
" clip-path="url(#p492e742928)" style="fill: #00bfff"/>
   </g>
   <g id="patch_29">
    <path d="M 350.709579 128.528148 
L 359.239301 128.528148 
L 359.239301 125.808957 
L 350.709579 125.808957 
z
" clip-path="url(#p492e742928)" style="fill: #00bfff"/>
   </g>
   <g id="patch_30">
    <path d="M 359.239301 128.528148 
L 367.769008 128.528148 
L 367.769008 125.215673 
L 359.239301 125.215673 
z
" clip-path="url(#p492e742928)" style="fill: #00bfff"/>
   </g>
   <g id="patch_31">
    <path d="M 367.769008 128.528148 
L 376.29873 128.528148 
L 376.29873 121.853771 
L 367.769008 121.853771 
z
" clip-path="url(#p492e742928)" style="fill: #00bfff"/>
   </g>
   <g id="patch_32">
    <path d="M 376.29873 128.528148 
L 384.828453 128.528148 
L 384.828453 121.211053 
L 376.29873 121.211053 
z
" clip-path="url(#p492e742928)" style="fill: #00bfff"/>
   </g>
   <g id="patch_33">
    <path d="M 384.828453 128.528148 
L 393.358159 128.528148 
L 393.358159 118.343524 
L 384.828453 118.343524 
z
" clip-path="url(#p492e742928)" style="fill: #00bfff"/>
   </g>
   <g id="patch_34">
    <path d="M 393.358159 128.528148 
L 401.887881 128.528148 
L 401.887881 111.224208 
L 393.358159 111.224208 
z
" clip-path="url(#p492e742928)" style="fill: #00bfff"/>
   </g>
   <g id="patch_35">
    <path d="M 401.887881 128.528148 
L 410.417604 128.528148 
L 410.417604 104.253192 
L 401.887881 104.253192 
z
" clip-path="url(#p492e742928)" style="fill: #00bfff"/>
   </g>
   <g id="patch_36">
    <path d="M 410.417604 128.528148 
L 418.94731 128.528148 
L 418.94731 88.234611 
L 410.417604 88.234611 
z
" clip-path="url(#p492e742928)" style="fill: #00bfff"/>
   </g>
   <g id="patch_37">
    <path d="M 418.94731 128.528148 
L 427.477033 128.528148 
L 427.477033 68.063239 
L 418.94731 68.063239 
z
" clip-path="url(#p492e742928)" style="fill: #00bfff"/>
   </g>
   <g id="patch_38">
    <path d="M 427.477033 128.528148 
L 436.006755 128.528148 
L 436.006755 49.177225 
L 427.477033 49.177225 
z
" clip-path="url(#p492e742928)" style="fill: #00bfff"/>
   </g>
   <g id="patch_39">
    <path d="M 436.006755 128.528148 
L 444.536462 128.528148 
L 444.536462 52.341227 
L 436.006755 52.341227 
z
" clip-path="url(#p492e742928)" style="fill: #00bfff"/>
   </g>
   <g id="patch_40">
    <path d="M 444.536462 128.528148 
L 453.066184 128.528148 
L 453.066184 73.798259 
L 444.536462 73.798259 
z
" clip-path="url(#p492e742928)" style="fill: #00bfff"/>
   </g>
   <g id="patch_41">
    <path d="M 453.066184 128.528148 
L 461.59589 128.528148 
L 461.59589 93.376363 
L 453.066184 93.376363 
z
" clip-path="url(#p492e742928)" style="fill: #00bfff"/>
   </g>
   <g id="patch_42">
    <path d="M 461.59589 128.528148 
L 470.125613 128.528148 
L 470.125613 106.626304 
L 461.59589 106.626304 
z
" clip-path="url(#p492e742928)" style="fill: #00bfff"/>
   </g>
   <g id="patch_43">
    <path d="M 470.125613 128.528148 
L 478.655336 128.528148 
L 478.655336 115.871552 
L 470.125613 115.871552 
z
" clip-path="url(#p492e742928)" style="fill: #00bfff"/>
   </g>
   <g id="patch_44">
    <path d="M 478.655336 128.528148 
L 487.185058 128.528148 
L 487.185058 120.222257 
L 478.655336 120.222257 
z
" clip-path="url(#p492e742928)" style="fill: #00bfff"/>
   </g>
   <g id="patch_45">
    <path d="M 487.185058 128.528148 
L 495.714781 128.528148 
L 495.714781 121.903211 
L 487.185058 121.903211 
z
" clip-path="url(#p492e742928)" style="fill: #00bfff"/>
   </g>
   <g id="patch_46">
    <path d="M 495.714781 128.528148 
L 504.244471 128.528148 
L 504.244471 123.732466 
L 495.714781 123.732466 
z
" clip-path="url(#p492e742928)" style="fill: #00bfff"/>
   </g>
   <g id="patch_47">
    <path d="M 504.244471 128.528148 
L 512.774193 128.528148 
L 512.774193 125.265119 
L 504.244471 125.265119 
z
" clip-path="url(#p492e742928)" style="fill: #00bfff"/>
   </g>
   <g id="patch_48">
    <path d="M 512.774193 128.528148 
L 521.303916 128.528148 
L 521.303916 127.143832 
L 512.774193 127.143832 
z
" clip-path="url(#p492e742928)" style="fill: #00bfff"/>
   </g>
   <g id="patch_49">
    <path d="M 521.303916 128.528148 
L 529.833638 128.528148 
L 529.833638 126.748314 
L 521.303916 126.748314 
z
" clip-path="url(#p492e742928)" style="fill: #00bfff"/>
   </g>
   <g id="patch_50">
    <path d="M 529.833638 128.528148 
L 538.363361 128.528148 
L 538.363361 127.094393 
L 529.833638 127.094393 
z
" clip-path="url(#p492e742928)" style="fill: #00bfff"/>
   </g>
   <g id="patch_51">
    <path d="M 538.363361 128.528148 
L 546.893084 128.528148 
L 546.893084 127.73711 
L 538.363361 127.73711 
z
" clip-path="url(#p492e742928)" style="fill: #00bfff"/>
   </g>
   <g id="patch_52">
    <path d="M 546.893084 128.528148 
L 555.422773 128.528148 
L 555.422773 127.737107 
L 546.893084 127.737107 
z
" clip-path="url(#p492e742928)" style="fill: #00bfff"/>
   </g>
   <g id="patch_53">
    <path d="M 555.422773 128.528148 
L 563.952496 128.528148 
L 563.952496 128.132629 
L 555.422773 128.132629 
z
" clip-path="url(#p492e742928)" style="fill: #00bfff"/>
   </g>
   <g id="patch_54">
    <path d="M 563.952496 128.528148 
L 572.482219 128.528148 
L 572.482219 128.182069 
L 563.952496 128.182069 
z
" clip-path="url(#p492e742928)" style="fill: #00bfff"/>
   </g>
   <g id="patch_55">
    <path d="M 572.482219 128.528148 
L 581.011941 128.528148 
L 581.011941 128.330388 
L 572.482219 128.330388 
z
" clip-path="url(#p492e742928)" style="fill: #00bfff"/>
   </g>
   <g id="patch_56">
    <path d="M 581.011941 128.528148 
L 589.541664 128.528148 
L 589.541664 128.330388 
L 581.011941 128.330388 
z
" clip-path="url(#p492e742928)" style="fill: #00bfff"/>
   </g>
   <g id="patch_57">
    <path d="M 589.541664 128.528148 
L 598.071386 128.528148 
L 598.071386 128.182069 
L 589.541664 128.182069 
z
" clip-path="url(#p492e742928)" style="fill: #00bfff"/>
   </g>
   <g id="patch_58">
    <path d="M 598.071386 128.528148 
L 606.601076 128.528148 
L 606.601076 128.379828 
L 598.071386 128.379828 
z
" clip-path="url(#p492e742928)" style="fill: #00bfff"/>
   </g>
   <g id="patch_59">
    <path d="M 606.601076 128.528148 
L 615.130799 128.528148 
L 615.130799 128.379828 
L 606.601076 128.379828 
z
" clip-path="url(#p492e742928)" style="fill: #00bfff"/>
   </g>
   <g id="patch_60">
    <path d="M 615.130799 128.528148 
L 623.660521 128.528148 
L 623.660521 128.478708 
L 615.130799 128.478708 
z
" clip-path="url(#p492e742928)" style="fill: #00bfff"/>
   </g>
   <g id="patch_61">
    <path d="M 623.660521 128.528148 
L 632.190244 128.528148 
L 632.190244 128.429268 
L 623.660521 128.429268 
z
" clip-path="url(#p492e742928)" style="fill: #00bfff"/>
   </g>
   <g id="patch_62">
    <path d="M 632.190244 128.528148 
L 640.719966 128.528148 
L 640.719966 128.478708 
L 632.190244 128.478708 
z
" clip-path="url(#p492e742928)" style="fill: #00bfff"/>
   </g>
   <g id="patch_63">
    <path d="M 640.719966 128.528148 
L 649.249689 128.528148 
L 649.249689 128.330388 
L 640.719966 128.330388 
z
" clip-path="url(#p492e742928)" style="fill: #00bfff"/>
   </g>
   <g id="patch_64">
    <path d="M 649.249689 128.528148 
L 657.779379 128.528148 
L 657.779379 128.429268 
L 649.249689 128.429268 
z
" clip-path="url(#p492e742928)" style="fill: #00bfff"/>
   </g>
   <g id="patch_65">
    <path d="M 657.779379 128.528148 
L 666.309101 128.528148 
L 666.309101 128.379828 
L 657.779379 128.379828 
z
" clip-path="url(#p492e742928)" style="fill: #00bfff"/>
   </g>
   <g id="patch_66">
    <path d="M 666.309101 128.528148 
L 674.838824 128.528148 
L 674.838824 128.478708 
L 666.309101 128.478708 
z
" clip-path="url(#p492e742928)" style="fill: #00bfff"/>
   </g>
   <g id="patch_67">
    <path d="M 674.838824 128.528148 
L 683.368547 128.528148 
L 683.368547 128.429268 
L 674.838824 128.429268 
z
" clip-path="url(#p492e742928)" style="fill: #00bfff"/>
   </g>
   <g id="patch_68">
    <path d="M 683.368547 128.528148 
L 691.898269 128.528148 
L 691.898269 128.379828 
L 683.368547 128.379828 
z
" clip-path="url(#p492e742928)" style="fill: #00bfff"/>
   </g>
   <g id="patch_69">
    <path d="M 691.898269 128.528148 
L 700.427992 128.528148 
L 700.427992 128.528148 
L 691.898269 128.528148 
z
" clip-path="url(#p492e742928)" style="fill: #00bfff"/>
   </g>
   <g id="patch_70">
    <path d="M 700.427992 128.528148 
L 708.957682 128.528148 
L 708.957682 128.528148 
L 700.427992 128.528148 
z
" clip-path="url(#p492e742928)" style="fill: #00bfff"/>
   </g>
   <g id="patch_71">
    <path d="M 708.957682 128.528148 
L 717.487388 128.528148 
L 717.487388 128.528148 
L 708.957682 128.528148 
z
" clip-path="url(#p492e742928)" style="fill: #00bfff"/>
   </g>
   <g id="patch_72">
    <path d="M 717.487388 128.528148 
L 726.017143 128.528148 
L 726.017143 128.528148 
L 717.487388 128.528148 
z
" clip-path="url(#p492e742928)" style="fill: #00bfff"/>
   </g>
   <g id="patch_73">
    <path d="M 726.017143 128.528148 
L 734.546833 128.528148 
L 734.546833 128.528148 
L 726.017143 128.528148 
z
" clip-path="url(#p492e742928)" style="fill: #00bfff"/>
   </g>
   <g id="patch_74">
    <path d="M 734.546833 128.528148 
L 743.076523 128.528148 
L 743.076523 128.528148 
L 734.546833 128.528148 
z
" clip-path="url(#p492e742928)" style="fill: #00bfff"/>
   </g>
   <g id="patch_75">
    <path d="M 743.076523 128.528148 
L 751.606311 128.528148 
L 751.606311 128.478708 
L 743.076523 128.478708 
z
" clip-path="url(#p492e742928)" style="fill: #00bfff"/>
   </g>
   <g id="line2d_33">
    <path d="M 7.2 128.528148 
L 15.866662 128.528148 
L 24.533324 128.528148 
L 33.199985 128.528148 
L 41.866647 128.528148 
L 50.533309 128.528148 
L 59.199971 128.528148 
L 67.866633 128.528148 
L 76.533295 128.528148 
L 85.199956 128.528148 
L 93.866618 128.528148 
L 102.53328 128.528148 
L 111.199942 128.528148 
L 119.866604 128.528148 
L 128.533265 128.528148 
L 137.199927 128.528148 
L 145.866589 128.528148 
L 154.533251 128.528148 
L 163.199913 128.528148 
L 171.866575 128.528148 
L 180.533236 128.528148 
L 189.199898 128.528148 
L 197.86656 128.528148 
L 206.533222 128.528148 
L 215.199884 128.528147 
L 223.866545 128.528147 
L 232.533207 128.528144 
L 241.199869 128.528133 
L 249.866531 128.528092 
L 258.533193 128.527952 
L 267.199855 128.527501 
L 275.866516 128.526137 
L 284.533178 128.52226 
L 293.19984 128.511923 
L 301.866502 128.486061 
L 310.533164 128.425391 
L 319.199825 128.292 
L 327.866487 128.017332 
L 336.533149 127.488105 
L 345.199811 126.53498 
L 353.866473 124.932782 
L 362.533135 122.423668 
L 371.199796 118.7724 
L 379.866458 113.853123 
L 388.53312 107.75016 
L 397.199782 100.837413 
L 405.866444 93.792785 
L 414.533105 87.515713 
L 423.199767 82.94906 
L 431.866429 80.849706 
L 440.533091 81.583635 
L 449.199753 85.021664 
L 457.866415 90.576601 
L 466.533076 97.367151 
L 475.199738 104.445759 
L 483.8664 111.00976 
L 492.533062 116.533291 
L 501.199724 120.797741 
L 509.866385 123.838761 
L 518.533047 125.850607 
L 527.199709 127.089142 
L 535.866371 127.800208 
L 544.533033 128.181543 
L 553.199695 128.372809 
L 561.866356 128.462619 
L 570.533018 128.502129 
L 579.19968 128.518423 
L 587.866342 128.524727 
L 596.533004 128.527015 
L 605.199665 128.527795 
L 613.866327 128.528044 
L 622.532989 128.528119 
L 631.199651 128.52814 
L 639.866313 128.528146 
L 648.532975 128.528147 
L 657.199636 128.528148 
L 665.866298 128.528148 
L 674.53296 128.528148 
L 683.199622 128.528148 
L 691.866284 128.528148 
L 700.532945 128.528148 
L 709.199607 128.528148 
L 717.866269 128.528148 
L 726.532931 128.528148 
L 735.199593 128.528148 
L 743.866255 128.528148 
L 752.532916 128.528148 
L 761.199578 128.528148 
L 769.86624 128.528148 
L 778.532902 128.528148 
L 787.199564 128.528148 
L 795.866225 128.528148 
L 804.532887 128.528148 
L 813.199549 128.528148 
L 821.866211 128.528148 
L 830.532873 128.528148 
L 839.199535 128.528148 
L 847.866196 128.528148 
L 856.532858 128.528148 
L 865.19952 128.528148 
" clip-path="url(#p492e742928)" style="fill: none; stroke: #1f77b4; stroke-width: 1.5; stroke-linecap: square"/>
   </g>
   <g id="text_11">
    <g id="patch_76">
     <path d="M 35.197823 38.307963 
L 57.868135 38.307963 
Q 60.868135 38.307963 60.868135 35.307963 
L 60.868135 25.629838 
Q 60.868135 22.629838 57.868135 22.629838 
L 35.197823 22.629838 
Q 32.197823 22.629838 32.197823 25.629838 
L 32.197823 35.307963 
Q 32.197823 38.307963 35.197823 38.307963 
z
" style="fill: #ffffff"/>
    </g>
    <!-- -11σ -->
    <g transform="translate(35.197823 33.228276) scale(0.1 -0.1)">
     <use xlink:href="#DejaVuSans-2d"/>
     <use xlink:href="#DejaVuSans-31" x="36.083984"/>
     <use xlink:href="#DejaVuSans-31" x="99.707031"/>
     <use xlink:href="#DejaVuSans-3c3" x="163.330078"/>
    </g>
   </g>
   <g id="text_12">
    <g id="patch_77">
     <path d="M 70.420209 38.307963 
L 93.090522 38.307963 
Q 96.090522 38.307963 96.090522 35.307963 
L 96.090522 25.629838 
Q 96.090522 22.629838 93.090522 22.629838 
L 70.420209 22.629838 
Q 67.420209 22.629838 67.420209 25.629838 
L 67.420209 35.307963 
Q 67.420209 38.307963 70.420209 38.307963 
z
" style="fill: #ffffff"/>
    </g>
    <!-- -10σ -->
    <g transform="translate(70.420209 33.228276) scale(0.1 -0.1)">
     <use xlink:href="#DejaVuSans-2d"/>
     <use xlink:href="#DejaVuSans-31" x="36.083984"/>
     <use xlink:href="#DejaVuSans-30" x="99.707031"/>
     <use xlink:href="#DejaVuSans-3c3" x="163.330078"/>
    </g>
   </g>
   <g id="text_13">
    <g id="patch_78">
     <path d="M 108.823813 38.307963 
L 125.131626 38.307963 
Q 128.131626 38.307963 128.131626 35.307963 
L 128.131626 25.629838 
Q 128.131626 22.629838 125.131626 22.629838 
L 108.823813 22.629838 
Q 105.823813 22.629838 105.823813 25.629838 
L 105.823813 35.307963 
Q 105.823813 38.307963 108.823813 38.307963 
z
" style="fill: #ffffff"/>
    </g>
    <!-- -9σ -->
    <g transform="translate(108.823813 33.228276) scale(0.1 -0.1)">
     <use xlink:href="#DejaVuSans-2d"/>
     <use xlink:href="#DejaVuSans-39" x="36.083984"/>
     <use xlink:href="#DejaVuSans-3c3" x="99.707031"/>
    </g>
   </g>
   <g id="text_14">
    <g id="patch_79">
     <path d="M 144.0462 38.307963 
L 160.354012 38.307963 
Q 163.354012 38.307963 163.354012 35.307963 
L 163.354012 25.629838 
Q 163.354012 22.629838 160.354012 22.629838 
L 144.0462 22.629838 
Q 141.0462 22.629838 141.0462 25.629838 
L 141.0462 35.307963 
Q 141.0462 38.307963 144.0462 38.307963 
z
" style="fill: #ffffff"/>
    </g>
    <!-- -8σ -->
    <g transform="translate(144.0462 33.228276) scale(0.1 -0.1)">
     <use xlink:href="#DejaVuSans-2d"/>
     <use xlink:href="#DejaVuSans-38" x="36.083984"/>
     <use xlink:href="#DejaVuSans-3c3" x="99.707031"/>
    </g>
   </g>
   <g id="text_15">
    <g id="patch_80">
     <path d="M 179.26857 38.307963 
L 195.576383 38.307963 
Q 198.576383 38.307963 198.576383 35.307963 
L 198.576383 25.629838 
Q 198.576383 22.629838 195.576383 22.629838 
L 179.26857 22.629838 
Q 176.26857 22.629838 176.26857 25.629838 
L 176.26857 35.307963 
Q 176.26857 38.307963 179.26857 38.307963 
z
" style="fill: #ffffff"/>
    </g>
    <!-- -7σ -->
    <g transform="translate(179.26857 33.228276) scale(0.1 -0.1)">
     <use xlink:href="#DejaVuSans-2d"/>
     <use xlink:href="#DejaVuSans-37" x="36.083984"/>
     <use xlink:href="#DejaVuSans-3c3" x="99.707031"/>
    </g>
   </g>
   <g id="text_16">
    <g id="patch_81">
     <path d="M 214.490941 38.307963 
L 230.798753 38.307963 
Q 233.798753 38.307963 233.798753 35.307963 
L 233.798753 25.629838 
Q 233.798753 22.629838 230.798753 22.629838 
L 214.490941 22.629838 
Q 211.490941 22.629838 211.490941 25.629838 
L 211.490941 35.307963 
Q 211.490941 38.307963 214.490941 38.307963 
z
" style="fill: #ffffff"/>
    </g>
    <!-- -6σ -->
    <g transform="translate(214.490941 33.228276) scale(0.1 -0.1)">
     <use xlink:href="#DejaVuSans-2d"/>
     <use xlink:href="#DejaVuSans-36" x="36.083984"/>
     <use xlink:href="#DejaVuSans-3c3" x="99.707031"/>
    </g>
   </g>
   <g id="text_17">
    <g id="patch_82">
     <path d="M 249.713327 38.307963 
L 266.02114 38.307963 
Q 269.02114 38.307963 269.02114 35.307963 
L 269.02114 25.629838 
Q 269.02114 22.629838 266.02114 22.629838 
L 249.713327 22.629838 
Q 246.713327 22.629838 246.713327 25.629838 
L 246.713327 35.307963 
Q 246.713327 38.307963 249.713327 38.307963 
z
" style="fill: #ffffff"/>
    </g>
    <!-- -5σ -->
    <g transform="translate(249.713327 33.228276) scale(0.1 -0.1)">
     <use xlink:href="#DejaVuSans-2d"/>
     <use xlink:href="#DejaVuSans-35" x="36.083984"/>
     <use xlink:href="#DejaVuSans-3c3" x="99.707031"/>
    </g>
   </g>
   <g id="text_18">
    <g id="patch_83">
     <path d="M 284.935698 38.307963 
L 301.24351 38.307963 
Q 304.24351 38.307963 304.24351 35.307963 
L 304.24351 25.629838 
Q 304.24351 22.629838 301.24351 22.629838 
L 284.935698 22.629838 
Q 281.935698 22.629838 281.935698 25.629838 
L 281.935698 35.307963 
Q 281.935698 38.307963 284.935698 38.307963 
z
" style="fill: #ffffff"/>
    </g>
    <!-- -4σ -->
    <g transform="translate(284.935698 33.228276) scale(0.1 -0.1)">
     <use xlink:href="#DejaVuSans-2d"/>
     <use xlink:href="#DejaVuSans-34" x="36.083984"/>
     <use xlink:href="#DejaVuSans-3c3" x="99.707031"/>
    </g>
   </g>
   <g id="text_19">
    <g id="patch_84">
     <path d="M 320.158068 38.307963 
L 336.465881 38.307963 
Q 339.465881 38.307963 339.465881 35.307963 
L 339.465881 25.629838 
Q 339.465881 22.629838 336.465881 22.629838 
L 320.158068 22.629838 
Q 317.158068 22.629838 317.158068 25.629838 
L 317.158068 35.307963 
Q 317.158068 38.307963 320.158068 38.307963 
z
" style="fill: #ffffff"/>
    </g>
    <!-- -3σ -->
    <g transform="translate(320.158068 33.228276) scale(0.1 -0.1)">
     <use xlink:href="#DejaVuSans-2d"/>
     <use xlink:href="#DejaVuSans-33" x="36.083984"/>
     <use xlink:href="#DejaVuSans-3c3" x="99.707031"/>
    </g>
   </g>
   <g id="text_20">
    <g id="patch_85">
     <path d="M 355.380447 38.307963 
L 371.688259 38.307963 
Q 374.688259 38.307963 374.688259 35.307963 
L 374.688259 25.629838 
Q 374.688259 22.629838 371.688259 22.629838 
L 355.380447 22.629838 
Q 352.380447 22.629838 352.380447 25.629838 
L 352.380447 35.307963 
Q 352.380447 38.307963 355.380447 38.307963 
z
" style="fill: #ffffff"/>
    </g>
    <!-- -2σ -->
    <g transform="translate(355.380447 33.228276) scale(0.1 -0.1)">
     <use xlink:href="#DejaVuSans-2d"/>
     <use xlink:href="#DejaVuSans-32" x="36.083984"/>
     <use xlink:href="#DejaVuSans-3c3" x="99.707031"/>
    </g>
   </g>
   <g id="text_21">
    <g id="patch_86">
     <path d="M 393.784071 38.307963 
L 403.729384 38.307963 
Q 406.729384 38.307963 406.729384 35.307963 
L 406.729384 25.629838 
Q 406.729384 22.629838 403.729384 22.629838 
L 393.784071 22.629838 
Q 390.784071 22.629838 390.784071 25.629838 
L 390.784071 35.307963 
Q 390.784071 38.307963 393.784071 38.307963 
z
" style="fill: #ffffff"/>
    </g>
    <!-- -σ -->
    <g transform="translate(393.784071 33.228276) scale(0.1 -0.1)">
     <use xlink:href="#DejaVuSans-2d"/>
     <use xlink:href="#DejaVuSans-3c3" x="36.083984"/>
    </g>
   </g>
   <g id="text_22">
    <g id="patch_87">
     <path d="M 430.300197 38.307963 
L 437.65801 38.307963 
Q 440.65801 38.307963 440.65801 35.307963 
L 440.65801 25.629838 
Q 440.65801 22.629838 437.65801 22.629838 
L 430.300197 22.629838 
Q 427.300197 22.629838 427.300197 25.629838 
L 427.300197 35.307963 
Q 427.300197 38.307963 430.300197 38.307963 
z
" style="fill: #ffffff"/>
    </g>
    <!-- μ -->
    <g transform="translate(430.300197 33.217338) scale(0.1 -0.1)">
     <defs>
      <path id="DejaVuSans-Bold-3bc" d="M 544 -1338 
L 544 3500 
L 1672 3500 
L 1672 1466 
Q 1672 1103 1828 926 
Q 1984 750 2303 750 
Q 2625 750 2781 926 
Q 2938 1103 2938 1466 
L 2938 3500 
L 4063 3500 
L 4063 1159 
Q 4063 938 4114 850 
Q 4166 763 4288 763 
Q 4344 763 4395 778 
Q 4447 794 4506 831 
L 4506 50 
Q 4341 -22 4195 -56 
Q 4050 -91 3909 -91 
Q 3631 -91 3454 26 
Q 3278 144 3169 403 
Q 3022 156 2811 32 
Q 2600 -91 2322 -91 
Q 2091 -91 1928 -17 
Q 1766 56 1672 206 
L 1672 -1338 
L 544 -1338 
z
" transform="scale(0.015625)"/>
     </defs>
     <use xlink:href="#DejaVuSans-Bold-3bc"/>
    </g>
   </g>
   <g id="text_23">
    <g id="patch_88">
     <path d="M 461.842884 38.307963 
L 476.560072 38.307963 
Q 479.560072 38.307963 479.560072 35.307963 
L 479.560072 25.629838 
Q 479.560072 22.629838 476.560072 22.629838 
L 461.842884 22.629838 
Q 458.842884 22.629838 458.842884 25.629838 
L 458.842884 35.307963 
Q 458.842884 38.307963 461.842884 38.307963 
z
" style="fill: #ffffff"/>
    </g>
    <!-- +σ -->
    <g transform="translate(461.842884 33.228276) scale(0.1 -0.1)">
     <defs>
      <path id="DejaVuSans-2b" d="M 2944 4013 
L 2944 2272 
L 4684 2272 
L 4684 1741 
L 2944 1741 
L 2944 0 
L 2419 0 
L 2419 1741 
L 678 1741 
L 678 2272 
L 2419 2272 
L 2419 4013 
L 2944 4013 
z
" transform="scale(0.015625)"/>
     </defs>
     <use xlink:href="#DejaVuSans-2b"/>
     <use xlink:href="#DejaVuSans-3c3" x="83.789062"/>
    </g>
   </g>
   <g id="text_24">
    <g id="patch_89">
     <path d="M 493.884007 38.307963 
L 514.963694 38.307963 
Q 517.963694 38.307963 517.963694 35.307963 
L 517.963694 25.629838 
Q 517.963694 22.629838 514.963694 22.629838 
L 493.884007 22.629838 
Q 490.884007 22.629838 490.884007 25.629838 
L 490.884007 35.307963 
Q 490.884007 38.307963 493.884007 38.307963 
z
" style="fill: #ffffff"/>
    </g>
    <!-- +2σ -->
    <g transform="translate(493.884007 33.228276) scale(0.1 -0.1)">
     <use xlink:href="#DejaVuSans-2b"/>
     <use xlink:href="#DejaVuSans-32" x="83.789062"/>
     <use xlink:href="#DejaVuSans-3c3" x="147.412109"/>
    </g>
   </g>
   <g id="text_25">
    <g id="patch_90">
     <path d="M 529.106385 38.307963 
L 550.186073 38.307963 
Q 553.186073 38.307963 553.186073 35.307963 
L 553.186073 25.629838 
Q 553.186073 22.629838 550.186073 22.629838 
L 529.106385 22.629838 
Q 526.106385 22.629838 526.106385 25.629838 
L 526.106385 35.307963 
Q 526.106385 38.307963 529.106385 38.307963 
z
" style="fill: #ffffff"/>
    </g>
    <!-- +3σ -->
    <g transform="translate(529.106385 33.228276) scale(0.1 -0.1)">
     <use xlink:href="#DejaVuSans-2b"/>
     <use xlink:href="#DejaVuSans-33" x="83.789062"/>
     <use xlink:href="#DejaVuSans-3c3" x="147.412109"/>
    </g>
   </g>
   <g id="text_26">
    <g id="patch_91">
     <path d="M 564.328756 38.307963 
L 585.408443 38.307963 
Q 588.408443 38.307963 588.408443 35.307963 
L 588.408443 25.629838 
Q 588.408443 22.629838 585.408443 22.629838 
L 564.328756 22.629838 
Q 561.328756 22.629838 561.328756 25.629838 
L 561.328756 35.307963 
Q 561.328756 38.307963 564.328756 38.307963 
z
" style="fill: #ffffff"/>
    </g>
    <!-- +4σ -->
    <g transform="translate(564.328756 33.228276) scale(0.1 -0.1)">
     <use xlink:href="#DejaVuSans-2b"/>
     <use xlink:href="#DejaVuSans-34" x="83.789062"/>
     <use xlink:href="#DejaVuSans-3c3" x="147.412109"/>
    </g>
   </g>
   <g id="text_27">
    <g id="patch_92">
     <path d="M 599.551126 38.307963 
L 620.630814 38.307963 
Q 623.630814 38.307963 623.630814 35.307963 
L 623.630814 25.629838 
Q 623.630814 22.629838 620.630814 22.629838 
L 599.551126 22.629838 
Q 596.551126 22.629838 596.551126 25.629838 
L 596.551126 35.307963 
Q 596.551126 38.307963 599.551126 38.307963 
z
" style="fill: #ffffff"/>
    </g>
    <!-- +5σ -->
    <g transform="translate(599.551126 33.228276) scale(0.1 -0.1)">
     <use xlink:href="#DejaVuSans-2b"/>
     <use xlink:href="#DejaVuSans-35" x="83.789062"/>
     <use xlink:href="#DejaVuSans-3c3" x="147.412109"/>
    </g>
   </g>
   <g id="text_28">
    <g id="patch_93">
     <path d="M 634.773513 38.307963 
L 655.8532 38.307963 
Q 658.8532 38.307963 658.8532 35.307963 
L 658.8532 25.629838 
Q 658.8532 22.629838 655.8532 22.629838 
L 634.773513 22.629838 
Q 631.773513 22.629838 631.773513 25.629838 
L 631.773513 35.307963 
Q 631.773513 38.307963 634.773513 38.307963 
z
" style="fill: #ffffff"/>
    </g>
    <!-- +6σ -->
    <g transform="translate(634.773513 33.228276) scale(0.1 -0.1)">
     <use xlink:href="#DejaVuSans-2b"/>
     <use xlink:href="#DejaVuSans-36" x="83.789062"/>
     <use xlink:href="#DejaVuSans-3c3" x="147.412109"/>
    </g>
   </g>
   <g id="text_29">
    <g id="patch_94">
     <path d="M 669.995883 38.307963 
L 691.075571 38.307963 
Q 694.075571 38.307963 694.075571 35.307963 
L 694.075571 25.629838 
Q 694.075571 22.629838 691.075571 22.629838 
L 669.995883 22.629838 
Q 666.995883 22.629838 666.995883 25.629838 
L 666.995883 35.307963 
Q 666.995883 38.307963 669.995883 38.307963 
z
" style="fill: #ffffff"/>
    </g>
    <!-- +7σ -->
    <g transform="translate(669.995883 33.228276) scale(0.1 -0.1)">
     <use xlink:href="#DejaVuSans-2b"/>
     <use xlink:href="#DejaVuSans-37" x="83.789062"/>
     <use xlink:href="#DejaVuSans-3c3" x="147.412109"/>
    </g>
   </g>
   <g id="text_30">
    <g id="patch_95">
     <path d="M 705.218254 38.307963 
L 726.297941 38.307963 
Q 729.297941 38.307963 729.297941 35.307963 
L 729.297941 25.629838 
Q 729.297941 22.629838 726.297941 22.629838 
L 705.218254 22.629838 
Q 702.218254 22.629838 702.218254 25.629838 
L 702.218254 35.307963 
Q 702.218254 38.307963 705.218254 38.307963 
z
" style="fill: #ffffff"/>
    </g>
    <!-- +8σ -->
    <g transform="translate(705.218254 33.228276) scale(0.1 -0.1)">
     <use xlink:href="#DejaVuSans-2b"/>
     <use xlink:href="#DejaVuSans-38" x="83.789062"/>
     <use xlink:href="#DejaVuSans-3c3" x="147.412109"/>
    </g>
   </g>
   <g id="text_31">
    <g id="patch_96">
     <path d="M 740.44064 38.307963 
L 761.520328 38.307963 
Q 764.520328 38.307963 764.520328 35.307963 
L 764.520328 25.629838 
Q 764.520328 22.629838 761.520328 22.629838 
L 740.44064 22.629838 
Q 737.44064 22.629838 737.44064 25.629838 
L 737.44064 35.307963 
Q 737.44064 38.307963 740.44064 38.307963 
z
" style="fill: #ffffff"/>
    </g>
    <!-- +9σ -->
    <g transform="translate(740.44064 33.228276) scale(0.1 -0.1)">
     <use xlink:href="#DejaVuSans-2b"/>
     <use xlink:href="#DejaVuSans-39" x="83.789062"/>
     <use xlink:href="#DejaVuSans-3c3" x="147.412109"/>
    </g>
   </g>
   <g id="text_32">
    <g id="patch_97">
     <path d="M 772.481744 38.307963 
L 799.923932 38.307963 
Q 802.923932 38.307963 802.923932 35.307963 
L 802.923932 25.629838 
Q 802.923932 22.629838 799.923932 22.629838 
L 772.481744 22.629838 
Q 769.481744 22.629838 769.481744 25.629838 
L 769.481744 35.307963 
Q 769.481744 38.307963 772.481744 38.307963 
z
" style="fill: #ffffff"/>
    </g>
    <!-- +10σ -->
    <g transform="translate(772.481744 33.228276) scale(0.1 -0.1)">
     <use xlink:href="#DejaVuSans-2b"/>
     <use xlink:href="#DejaVuSans-31" x="83.789062"/>
     <use xlink:href="#DejaVuSans-30" x="147.412109"/>
     <use xlink:href="#DejaVuSans-3c3" x="211.035156"/>
    </g>
   </g>
   <g id="text_33">
    <g id="patch_98">
     <path d="M 807.704131 38.307963 
L 835.146318 38.307963 
Q 838.146318 38.307963 838.146318 35.307963 
L 838.146318 25.629838 
Q 838.146318 22.629838 835.146318 22.629838 
L 807.704131 22.629838 
Q 804.704131 22.629838 804.704131 25.629838 
L 804.704131 35.307963 
Q 804.704131 38.307963 807.704131 38.307963 
z
" style="fill: #ffffff"/>
    </g>
    <!-- +11σ -->
    <g transform="translate(807.704131 33.228276) scale(0.1 -0.1)">
     <use xlink:href="#DejaVuSans-2b"/>
     <use xlink:href="#DejaVuSans-31" x="83.789062"/>
     <use xlink:href="#DejaVuSans-31" x="147.412109"/>
     <use xlink:href="#DejaVuSans-3c3" x="211.035156"/>
    </g>
   </g>
  </g>
 </g>
 <defs>
  <clipPath id="p492e742928">
   <rect x="7.2" y="20.214138" width="857.99952" height="108.31401"/>
  </clipPath>
 </defs>
</svg>
