<?xml version="1.0" encoding="utf-8" standalone="no"?>
<!DOCTYPE svg PUBLIC "-//W3C//DTD SVG 1.1//EN"
  "http://www.w3.org/Graphics/SVG/1.1/DTD/svg11.dtd">
<svg xmlns:xlink="http://www.w3.org/1999/xlink" width="872.39952pt" height="152.406273pt" viewBox="0 0 872.39952 152.406273" xmlns="http://www.w3.org/2000/svg" version="1.1">
 <metadata>
  <rdf:RDF xmlns:dc="http://purl.org/dc/elements/1.1/" xmlns:cc="http://creativecommons.org/ns#" xmlns:rdf="http://www.w3.org/1999/02/22-rdf-syntax-ns#">
   <cc:Work>
    <dc:type rdf:resource="http://purl.org/dc/dcmitype/StillImage"/>
    <dc:format>image/svg+xml</dc:format>
    <dc:creator>
     <cc:Agent>
      <dc:title>Matplotlib, https://matplotlib.org/</dc:title>
     </cc:Agent>
    </dc:creator>
   </cc:Work>
  </rdf:RDF>
 </metadata>
 <defs>
  <style type="text/css">*{stroke-linejoin: round; stroke-linecap: butt}</style>
 </defs>
 <g id="figure_1">
  <g id="patch_1">
   <path d="M 0 152.406273 
L 872.39952 152.406273 
L 872.39952 0 
L 0 0 
z
" style="fill: #ffffff"/>
  </g>
  <g id="axes_1">
   <g id="patch_2">
    <path d="M 7.2 128.528148 
L 865.19952 128.528148 
L 865.19952 20.214138 
L 7.2 20.214138 
z
" style="fill: #ffffff"/>
   </g>
   <g id="matplotlib.axis_1">
    <g id="xtick_1">
     <g id="line2d_1">
      <defs>
       <path id="m8f1de1206a" d="M 0 0 
L 0 3.5 
" style="stroke: #000000; stroke-width: 0.8"/>
      </defs>
      <g>
       <use xlink:href="#m8f1de1206a" x="79.729549" y="128.528148" style="stroke: #000000; stroke-width: 0.8"/>
      </g>
     </g>
     <g id="text_1">
      <!-- −4 -->
      <g transform="translate(72.358455 143.126585) scale(0.1 -0.1)">
       <defs>
        <path id="DejaVuSans-2212" d="M 678 2272 
L 4684 2272 
L 4684 1741 
L 678 1741 
L 678 2272 
z
" transform="scale(0.015625)"/>
        <path id="DejaVuSans-34" d="M 2419 4116 
L 825 1625 
L 2419 1625 
L 2419 4116 
z
M 2253 4666 
L 3047 4666 
L 3047 1625 
L 3713 1625 
L 3713 1100 
L 3047 1100 
L 3047 0 
L 2419 0 
L 2419 1100 
L 313 1100 
L 313 1709 
L 2253 4666 
z
" transform="scale(0.015625)"/>
       </defs>
       <use xlink:href="#DejaVuSans-2212"/>
       <use xlink:href="#DejaVuSans-34" x="83.789062"/>
      </g>
     </g>
    </g>
    <g id="xtick_2">
     <g id="line2d_2">
      <g>
       <use xlink:href="#m8f1de1206a" x="257.882186" y="128.528148" style="stroke: #000000; stroke-width: 0.8"/>
      </g>
     </g>
     <g id="text_2">
      <!-- −2 -->
      <g transform="translate(250.511093 143.126585) scale(0.1 -0.1)">
       <defs>
        <path id="DejaVuSans-32" d="M 1228 531 
L 3431 531 
L 3431 0 
L 469 0 
L 469 531 
Q 828 903 1448 1529 
Q 2069 2156 2228 2338 
Q 2531 2678 2651 2914 
Q 2772 3150 2772 3378 
Q 2772 3750 2511 3984 
Q 2250 4219 1831 4219 
Q 1534 4219 1204 4116 
Q 875 4013 500 3803 
L 500 4441 
Q 881 4594 1212 4672 
Q 1544 4750 1819 4750 
Q 2544 4750 2975 4387 
Q 3406 4025 3406 3419 
Q 3406 3131 3298 2873 
Q 3191 2616 2906 2266 
Q 2828 2175 2409 1742 
Q 1991 1309 1228 531 
z
" transform="scale(0.015625)"/>
       </defs>
       <use xlink:href="#DejaVuSans-2212"/>
       <use xlink:href="#DejaVuSans-32" x="83.789062"/>
      </g>
     </g>
    </g>
    <g id="xtick_3">
     <g id="line2d_3">
      <g>
       <use xlink:href="#m8f1de1206a" x="436.034824" y="128.528148" style="stroke: #000000; stroke-width: 0.8"/>
      </g>
     </g>
     <g id="text_3">
      <!-- 0 -->
      <g transform="translate(432.853574 143.126585) scale(0.1 -0.1)">
       <defs>
        <path id="DejaVuSans-30" d="M 2034 4250 
Q 1547 4250 1301 3770 
Q 1056 3291 1056 2328 
Q 1056 1369 1301 889 
Q 1547 409 2034 409 
Q 2525 409 2770 889 
Q 3016 1369 3016 2328 
Q 3016 3291 2770 3770 
Q 2525 4250 2034 4250 
z
M 2034 4750 
Q 2819 4750 3233 4129 
Q 3647 3509 3647 2328 
Q 3647 1150 3233 529 
Q 2819 -91 2034 -91 
Q 1250 -91 836 529 
Q 422 1150 422 2328 
Q 422 3509 836 4129 
Q 1250 4750 2034 4750 
z
" transform="scale(0.015625)"/>
       </defs>
       <use xlink:href="#DejaVuSans-30"/>
      </g>
     </g>
    </g>
    <g id="xtick_4">
     <g id="line2d_4">
      <g>
       <use xlink:href="#m8f1de1206a" x="614.187461" y="128.528148" style="stroke: #000000; stroke-width: 0.8"/>
      </g>
     </g>
     <g id="text_4">
      <!-- 2 -->
      <g transform="translate(611.006211 143.126585) scale(0.1 -0.1)">
       <use xlink:href="#DejaVuSans-32"/>
      </g>
     </g>
    </g>
    <g id="xtick_5">
     <g id="line2d_5">
      <g>
       <use xlink:href="#m8f1de1206a" x="792.340098" y="128.528148" style="stroke: #000000; stroke-width: 0.8"/>
      </g>
     </g>
     <g id="text_5">
      <!-- 4 -->
      <g transform="translate(789.158848 143.126585) scale(0.1 -0.1)">
       <use xlink:href="#DejaVuSans-34"/>
      </g>
     </g>
    </g>
   </g>
   <g id="matplotlib.axis_2"/>
   <g id="line2d_6">
    <path d="M 183.453735 128.528148 
L 183.453735 20.214138 
" clip-path="url(#pb195ff4a6f)" style="fill: none; stroke: #000000; stroke-width: 1.5; stroke-linecap: square"/>
   </g>
   <g id="line2d_7">
    <path d="M 237.430926 128.528148 
L 237.430926 20.214138 
" clip-path="url(#pb195ff4a6f)" style="fill: none; stroke: #000000; stroke-width: 1.5; stroke-linecap: square"/>
   </g>
   <g id="line2d_8">
    <path d="M 291.408118 128.528148 
L 291.408118 20.214138 
" clip-path="url(#pb195ff4a6f)" style="fill: none; stroke: #000000; stroke-width: 1.5; stroke-linecap: square"/>
   </g>
   <g id="line2d_9">
    <path d="M 345.385309 128.528148 
L 345.385309 20.214138 
" clip-path="url(#pb195ff4a6f)" style="fill: none; stroke: #000000; stroke-width: 1.5; stroke-linecap: square"/>
   </g>
   <g id="line2d_10">
    <path d="M 399.3625 128.528148 
L 399.3625 20.214138 
" clip-path="url(#pb195ff4a6f)" style="fill: none; stroke: #000000; stroke-width: 1.5; stroke-linecap: square"/>
   </g>
   <g id="line2d_11">
    <path d="M 453.339692 128.528148 
L 453.339692 20.214138 
" clip-path="url(#pb195ff4a6f)" style="fill: none; stroke: #000000; stroke-width: 1.5; stroke-linecap: square"/>
   </g>
   <g id="line2d_12">
    <path d="M 507.316883 128.528148 
L 507.316883 20.214138 
" clip-path="url(#pb195ff4a6f)" style="fill: none; stroke: #000000; stroke-width: 1.5; stroke-linecap: square"/>
   </g>
   <g id="line2d_13">
    <path d="M 561.294075 128.528148 
L 561.294075 20.214138 
" clip-path="url(#pb195ff4a6f)" style="fill: none; stroke: #000000; stroke-width: 1.5; stroke-linecap: square"/>
   </g>
   <g id="line2d_14">
    <path d="M 615.271266 128.528148 
L 615.271266 20.214138 
" clip-path="url(#pb195ff4a6f)" style="fill: none; stroke: #000000; stroke-width: 1.5; stroke-linecap: square"/>
   </g>
   <g id="line2d_15">
    <path d="M 669.248458 128.528148 
L 669.248458 20.214138 
" clip-path="url(#pb195ff4a6f)" style="fill: none; stroke: #000000; stroke-width: 1.5; stroke-linecap: square"/>
   </g>
   <g id="line2d_16">
    <path d="M 723.225649 128.528148 
L 723.225649 20.214138 
" clip-path="url(#pb195ff4a6f)" style="fill: none; stroke: #000000; stroke-width: 1.5; stroke-linecap: square"/>
   </g>
   <g id="line2d_17">
    <path d="M 777.202841 128.528148 
L 777.202841 20.214138 
" clip-path="url(#pb195ff4a6f)" style="fill: none; stroke: #000000; stroke-width: 1.5; stroke-linecap: square"/>
   </g>
   <g id="line2d_18">
    <path d="M 831.180032 128.528148 
L 831.180032 20.214138 
" clip-path="url(#pb195ff4a6f)" style="fill: none; stroke: #000000; stroke-width: 1.5; stroke-linecap: square"/>
   </g>
   <g id="line2d_19">
    <path d="M 436.034824 128.528148 
L 436.034824 20.214138 
" clip-path="url(#pb195ff4a6f)" style="fill: none; stroke: #ff0000; stroke-width: 1.5; stroke-linecap: square"/>
   </g>
   <g id="line2d_20">
    <path d="M 848.376 128.528148 
L 848.376 20.214138 
" clip-path="url(#pb195ff4a6f)" style="fill: none; stroke: #ff0000; stroke-width: 1.5; stroke-linecap: square"/>
   </g>
   <g id="patch_3">
    <path d="M 7.2 128.528148 
L 7.2 20.214138 
" style="fill: none; stroke: #000000; stroke-width: 0.8; stroke-linejoin: miter; stroke-linecap: square"/>
   </g>
   <g id="patch_4">
    <path d="M 865.19952 128.528148 
L 865.19952 20.214138 
" style="fill: none; stroke: #000000; stroke-width: 0.8; stroke-linejoin: miter; stroke-linecap: square"/>
   </g>
   <g id="patch_5">
    <path d="M 7.2 128.528148 
L 865.19952 128.528148 
" style="fill: none; stroke: #000000; stroke-width: 0.8; stroke-linejoin: miter; stroke-linecap: square"/>
   </g>
   <g id="patch_6">
    <path d="M 7.2 20.214138 
L 865.19952 20.214138 
" style="fill: none; stroke: #000000; stroke-width: 0.8; stroke-linejoin: miter; stroke-linecap: square"/>
   </g>
   <g id="text_6">
    <g id="patch_7">
     <path d="M 435.034824 92.759424 
L 435.034824 55.982862 
Q 435.034824 55.982862 435.034824 55.982862 
L 425.356699 55.982862 
Q 425.356699 55.982862 425.356699 55.982862 
L 425.356699 92.759424 
Q 425.356699 92.759424 425.356699 92.759424 
L 435.034824 92.759424 
Q 435.034824 92.759424 435.034824 92.759424 
z
" style="fill: #ffffff"/>
    </g>
    <!-- min=0. -->
    <g transform="translate(432.955136 92.759424) rotate(-90) scale(0.1 -0.1)">
     <defs>
      <path id="DejaVuSans-6d" d="M 3328 2828 
Q 3544 3216 3844 3400 
Q 4144 3584 4550 3584 
Q 5097 3584 5394 3201 
Q 5691 2819 5691 2113 
L 5691 0 
L 5113 0 
L 5113 2094 
Q 5113 2597 4934 2840 
Q 4756 3084 4391 3084 
Q 3944 3084 3684 2787 
Q 3425 2491 3425 1978 
L 3425 0 
L 2847 0 
L 2847 2094 
Q 2847 2600 2669 2842 
Q 2491 3084 2119 3084 
Q 1678 3084 1418 2786 
Q 1159 2488 1159 1978 
L 1159 0 
L 581 0 
L 581 3500 
L 1159 3500 
L 1159 2956 
Q 1356 3278 1631 3431 
Q 1906 3584 2284 3584 
Q 2666 3584 2933 3390 
Q 3200 3197 3328 2828 
z
" transform="scale(0.015625)"/>
      <path id="DejaVuSans-69" d="M 603 3500 
L 1178 3500 
L 1178 0 
L 603 0 
L 603 3500 
z
M 603 4863 
L 1178 4863 
L 1178 4134 
L 603 4134 
L 603 4863 
z
" transform="scale(0.015625)"/>
      <path id="DejaVuSans-6e" d="M 3513 2113 
L 3513 0 
L 2938 0 
L 2938 2094 
Q 2938 2591 2744 2837 
Q 2550 3084 2163 3084 
Q 1697 3084 1428 2787 
Q 1159 2491 1159 1978 
L 1159 0 
L 581 0 
L 581 3500 
L 1159 3500 
L 1159 2956 
Q 1366 3272 1645 3428 
Q 1925 3584 2291 3584 
Q 2894 3584 3203 3211 
Q 3513 2838 3513 2113 
z
" transform="scale(0.015625)"/>
      <path id="DejaVuSans-3d" d="M 678 2906 
L 4684 2906 
L 4684 2381 
L 678 2381 
L 678 2906 
z
M 678 1631 
L 4684 1631 
L 4684 1100 
L 678 1100 
L 678 1631 
z
" transform="scale(0.015625)"/>
      <path id="DejaVuSans-2e" d="M 684 794 
L 1344 794 
L 1344 0 
L 684 0 
L 684 794 
z
" transform="scale(0.015625)"/>
     </defs>
     <use xlink:href="#DejaVuSans-6d"/>
     <use xlink:href="#DejaVuSans-69" x="97.412109"/>
     <use xlink:href="#DejaVuSans-6e" x="125.195312"/>
     <use xlink:href="#DejaVuSans-3d" x="188.574219"/>
     <use xlink:href="#DejaVuSans-30" x="272.363281"/>
     <use xlink:href="#DejaVuSans-2e" x="335.986328"/>
    </g>
   </g>
   <g id="text_7">
    <g id="patch_8">
     <path d="M 860.054125 103.768799 
L 860.054125 44.973487 
Q 860.054125 44.973487 860.054125 44.973487 
L 850.376 44.973487 
Q 850.376 44.973487 850.376 44.973487 
L 850.376 103.768799 
Q 850.376 103.768799 850.376 103.768799 
L 860.054125 103.768799 
Q 860.054125 103.768799 860.054125 103.768799 
z
" style="fill: #ffffff"/>
    </g>
    <!-- max=4.629 -->
    <g transform="translate(857.974438 103.768799) rotate(-90) scale(0.1 -0.1)">
     <defs>
      <path id="DejaVuSans-61" d="M 2194 1759 
Q 1497 1759 1228 1600 
Q 959 1441 959 1056 
Q 959 750 1161 570 
Q 1363 391 1709 391 
Q 2188 391 2477 730 
Q 2766 1069 2766 1631 
L 2766 1759 
L 2194 1759 
z
M 3341 1997 
L 3341 0 
L 2766 0 
L 2766 531 
Q 2569 213 2275 61 
Q 1981 -91 1556 -91 
Q 1019 -91 701 211 
Q 384 513 384 1019 
Q 384 1609 779 1909 
Q 1175 2209 1959 2209 
L 2766 2209 
L 2766 2266 
Q 2766 2663 2505 2880 
Q 2244 3097 1772 3097 
Q 1472 3097 1187 3025 
Q 903 2953 641 2809 
L 641 3341 
Q 956 3463 1253 3523 
Q 1550 3584 1831 3584 
Q 2591 3584 2966 3190 
Q 3341 2797 3341 1997 
z
" transform="scale(0.015625)"/>
      <path id="DejaVuSans-78" d="M 3513 3500 
L 2247 1797 
L 3578 0 
L 2900 0 
L 1881 1375 
L 863 0 
L 184 0 
L 1544 1831 
L 300 3500 
L 978 3500 
L 1906 2253 
L 2834 3500 
L 3513 3500 
z
" transform="scale(0.015625)"/>
      <path id="DejaVuSans-36" d="M 2113 2584 
Q 1688 2584 1439 2293 
Q 1191 2003 1191 1497 
Q 1191 994 1439 701 
Q 1688 409 2113 409 
Q 2538 409 2786 701 
Q 3034 994 3034 1497 
Q 3034 2003 2786 2293 
Q 2538 2584 2113 2584 
z
M 3366 4563 
L 3366 3988 
Q 3128 4100 2886 4159 
Q 2644 4219 2406 4219 
Q 1781 4219 1451 3797 
Q 1122 3375 1075 2522 
Q 1259 2794 1537 2939 
Q 1816 3084 2150 3084 
Q 2853 3084 3261 2657 
Q 3669 2231 3669 1497 
Q 3669 778 3244 343 
Q 2819 -91 2113 -91 
Q 1303 -91 875 529 
Q 447 1150 447 2328 
Q 447 3434 972 4092 
Q 1497 4750 2381 4750 
Q 2619 4750 2861 4703 
Q 3103 4656 3366 4563 
z
" transform="scale(0.015625)"/>
      <path id="DejaVuSans-39" d="M 703 97 
L 703 672 
Q 941 559 1184 500 
Q 1428 441 1663 441 
Q 2288 441 2617 861 
Q 2947 1281 2994 2138 
Q 2813 1869 2534 1725 
Q 2256 1581 1919 1581 
Q 1219 1581 811 2004 
Q 403 2428 403 3163 
Q 403 3881 828 4315 
Q 1253 4750 1959 4750 
Q 2769 4750 3195 4129 
Q 3622 3509 3622 2328 
Q 3622 1225 3098 567 
Q 2575 -91 1691 -91 
Q 1453 -91 1209 -44 
Q 966 3 703 97 
z
M 1959 2075 
Q 2384 2075 2632 2365 
Q 2881 2656 2881 3163 
Q 2881 3666 2632 3958 
Q 2384 4250 1959 4250 
Q 1534 4250 1286 3958 
Q 1038 3666 1038 3163 
Q 1038 2656 1286 2365 
Q 1534 2075 1959 2075 
z
" transform="scale(0.015625)"/>
     </defs>
     <use xlink:href="#DejaVuSans-6d"/>
     <use xlink:href="#DejaVuSans-61" x="97.412109"/>
     <use xlink:href="#DejaVuSans-78" x="158.691406"/>
     <use xlink:href="#DejaVuSans-3d" x="217.871094"/>
     <use xlink:href="#DejaVuSans-34" x="301.660156"/>
     <use xlink:href="#DejaVuSans-2e" x="365.283203"/>
     <use xlink:href="#DejaVuSans-36" x="397.070312"/>
     <use xlink:href="#DejaVuSans-32" x="460.693359"/>
     <use xlink:href="#DejaVuSans-39" x="524.316406"/>
    </g>
   </g>
   <g id="text_8">
    <!-- 10000 non-zero samples (μ=0.800, σ=0.606) of tensor[100000] x∈[0., 4.629] μ=0.402 σ=0.590 -->
    <g transform="translate(7.2 14.798437) scale(0.1 -0.1)">
     <defs>
      <path id="DejaVuSans-31" d="M 794 531 
L 1825 531 
L 1825 4091 
L 703 3866 
L 703 4441 
L 1819 4666 
L 2450 4666 
L 2450 531 
L 3481 531 
L 3481 0 
L 794 0 
L 794 531 
z
" transform="scale(0.015625)"/>
      <path id="DejaVuSans-20" transform="scale(0.015625)"/>
      <path id="DejaVuSans-6f" d="M 1959 3097 
Q 1497 3097 1228 2736 
Q 959 2375 959 1747 
Q 959 1119 1226 758 
Q 1494 397 1959 397 
Q 2419 397 2687 759 
Q 2956 1122 2956 1747 
Q 2956 2369 2687 2733 
Q 2419 3097 1959 3097 
z
M 1959 3584 
Q 2709 3584 3137 3096 
Q 3566 2609 3566 1747 
Q 3566 888 3137 398 
Q 2709 -91 1959 -91 
Q 1206 -91 779 398 
Q 353 888 353 1747 
Q 353 2609 779 3096 
Q 1206 3584 1959 3584 
z
" transform="scale(0.015625)"/>
      <path id="DejaVuSans-2d" d="M 313 2009 
L 1997 2009 
L 1997 1497 
L 313 1497 
L 313 2009 
z
" transform="scale(0.015625)"/>
      <path id="DejaVuSans-7a" d="M 353 3500 
L 3084 3500 
L 3084 2975 
L 922 459 
L 3084 459 
L 3084 0 
L 275 0 
L 275 525 
L 2438 3041 
L 353 3041 
L 353 3500 
z
" transform="scale(0.015625)"/>
      <path id="DejaVuSans-65" d="M 3597 1894 
L 3597 1613 
L 953 1613 
Q 991 1019 1311 708 
Q 1631 397 2203 397 
Q 2534 397 2845 478 
Q 3156 559 3463 722 
L 3463 178 
Q 3153 47 2828 -22 
Q 2503 -91 2169 -91 
Q 1331 -91 842 396 
Q 353 884 353 1716 
Q 353 2575 817 3079 
Q 1281 3584 2069 3584 
Q 2775 3584 3186 3129 
Q 3597 2675 3597 1894 
z
M 3022 2063 
Q 3016 2534 2758 2815 
Q 2500 3097 2075 3097 
Q 1594 3097 1305 2825 
Q 1016 2553 972 2059 
L 3022 2063 
z
" transform="scale(0.015625)"/>
      <path id="DejaVuSans-72" d="M 2631 2963 
Q 2534 3019 2420 3045 
Q 2306 3072 2169 3072 
Q 1681 3072 1420 2755 
Q 1159 2438 1159 1844 
L 1159 0 
L 581 0 
L 581 3500 
L 1159 3500 
L 1159 2956 
Q 1341 3275 1631 3429 
Q 1922 3584 2338 3584 
Q 2397 3584 2469 3576 
Q 2541 3569 2628 3553 
L 2631 2963 
z
" transform="scale(0.015625)"/>
      <path id="DejaVuSans-73" d="M 2834 3397 
L 2834 2853 
Q 2591 2978 2328 3040 
Q 2066 3103 1784 3103 
Q 1356 3103 1142 2972 
Q 928 2841 928 2578 
Q 928 2378 1081 2264 
Q 1234 2150 1697 2047 
L 1894 2003 
Q 2506 1872 2764 1633 
Q 3022 1394 3022 966 
Q 3022 478 2636 193 
Q 2250 -91 1575 -91 
Q 1294 -91 989 -36 
Q 684 19 347 128 
L 347 722 
Q 666 556 975 473 
Q 1284 391 1588 391 
Q 1994 391 2212 530 
Q 2431 669 2431 922 
Q 2431 1156 2273 1281 
Q 2116 1406 1581 1522 
L 1381 1569 
Q 847 1681 609 1914 
Q 372 2147 372 2553 
Q 372 3047 722 3315 
Q 1072 3584 1716 3584 
Q 2034 3584 2315 3537 
Q 2597 3491 2834 3397 
z
" transform="scale(0.015625)"/>
      <path id="DejaVuSans-70" d="M 1159 525 
L 1159 -1331 
L 581 -1331 
L 581 3500 
L 1159 3500 
L 1159 2969 
Q 1341 3281 1617 3432 
Q 1894 3584 2278 3584 
Q 2916 3584 3314 3078 
Q 3713 2572 3713 1747 
Q 3713 922 3314 415 
Q 2916 -91 2278 -91 
Q 1894 -91 1617 61 
Q 1341 213 1159 525 
z
M 3116 1747 
Q 3116 2381 2855 2742 
Q 2594 3103 2138 3103 
Q 1681 3103 1420 2742 
Q 1159 2381 1159 1747 
Q 1159 1113 1420 752 
Q 1681 391 2138 391 
Q 2594 391 2855 752 
Q 3116 1113 3116 1747 
z
" transform="scale(0.015625)"/>
      <path id="DejaVuSans-6c" d="M 603 4863 
L 1178 4863 
L 1178 0 
L 603 0 
L 603 4863 
z
" transform="scale(0.015625)"/>
      <path id="DejaVuSans-28" d="M 1984 4856 
Q 1566 4138 1362 3434 
Q 1159 2731 1159 2009 
Q 1159 1288 1364 580 
Q 1569 -128 1984 -844 
L 1484 -844 
Q 1016 -109 783 600 
Q 550 1309 550 2009 
Q 550 2706 781 3412 
Q 1013 4119 1484 4856 
L 1984 4856 
z
" transform="scale(0.015625)"/>
      <path id="DejaVuSans-3bc" d="M 544 -1331 
L 544 3500 
L 1119 3500 
L 1119 1325 
Q 1119 872 1334 640 
Q 1550 409 1972 409 
Q 2434 409 2667 671 
Q 2900 934 2900 1459 
L 2900 3500 
L 3475 3500 
L 3475 806 
Q 3475 619 3529 530 
Q 3584 441 3700 441 
Q 3728 441 3778 458 
Q 3828 475 3916 513 
L 3916 50 
Q 3788 -22 3673 -56 
Q 3559 -91 3450 -91 
Q 3234 -91 3106 31 
Q 2978 153 2931 403 
Q 2775 156 2548 32 
Q 2322 -91 2016 -91 
Q 1697 -91 1473 31 
Q 1250 153 1119 397 
L 1119 -1331 
L 544 -1331 
z
" transform="scale(0.015625)"/>
      <path id="DejaVuSans-38" d="M 2034 2216 
Q 1584 2216 1326 1975 
Q 1069 1734 1069 1313 
Q 1069 891 1326 650 
Q 1584 409 2034 409 
Q 2484 409 2743 651 
Q 3003 894 3003 1313 
Q 3003 1734 2745 1975 
Q 2488 2216 2034 2216 
z
M 1403 2484 
Q 997 2584 770 2862 
Q 544 3141 544 3541 
Q 544 4100 942 4425 
Q 1341 4750 2034 4750 
Q 2731 4750 3128 4425 
Q 3525 4100 3525 3541 
Q 3525 3141 3298 2862 
Q 3072 2584 2669 2484 
Q 3125 2378 3379 2068 
Q 3634 1759 3634 1313 
Q 3634 634 3220 271 
Q 2806 -91 2034 -91 
Q 1263 -91 848 271 
Q 434 634 434 1313 
Q 434 1759 690 2068 
Q 947 2378 1403 2484 
z
M 1172 3481 
Q 1172 3119 1398 2916 
Q 1625 2713 2034 2713 
Q 2441 2713 2670 2916 
Q 2900 3119 2900 3481 
Q 2900 3844 2670 4047 
Q 2441 4250 2034 4250 
Q 1625 4250 1398 4047 
Q 1172 3844 1172 3481 
z
" transform="scale(0.015625)"/>
      <path id="DejaVuSans-2c" d="M 750 794 
L 1409 794 
L 1409 256 
L 897 -744 
L 494 -744 
L 750 256 
L 750 794 
z
" transform="scale(0.015625)"/>
      <path id="DejaVuSans-3c3" d="M 1959 3044 
Q 1484 3044 1228 2700 
Q 959 2341 959 1747 
Q 959 1119 1226 758 
Q 1494 397 1959 397 
Q 2419 397 2687 759 
Q 2956 1122 2956 1747 
Q 2956 2319 2688 2700 
Q 2441 3044 1959 3044 
z
M 1959 3500 
L 3869 3500 
L 3869 2925 
L 3225 2925 
Q 3566 2438 3566 1747 
Q 3566 888 3138 400 
Q 2709 -91 1959 -91 
Q 1206 -91 781 400 
Q 353 888 353 1747 
Q 353 2613 781 3097 
Q 1134 3500 1959 3500 
z
" transform="scale(0.015625)"/>
      <path id="DejaVuSans-29" d="M 513 4856 
L 1013 4856 
Q 1481 4119 1714 3412 
Q 1947 2706 1947 2009 
Q 1947 1309 1714 600 
Q 1481 -109 1013 -844 
L 513 -844 
Q 928 -128 1133 580 
Q 1338 1288 1338 2009 
Q 1338 2731 1133 3434 
Q 928 4138 513 4856 
z
" transform="scale(0.015625)"/>
      <path id="DejaVuSans-66" d="M 2375 4863 
L 2375 4384 
L 1825 4384 
Q 1516 4384 1395 4259 
Q 1275 4134 1275 3809 
L 1275 3500 
L 2222 3500 
L 2222 3053 
L 1275 3053 
L 1275 0 
L 697 0 
L 697 3053 
L 147 3053 
L 147 3500 
L 697 3500 
L 697 3744 
Q 697 4328 969 4595 
Q 1241 4863 1831 4863 
L 2375 4863 
z
" transform="scale(0.015625)"/>
      <path id="DejaVuSans-74" d="M 1172 4494 
L 1172 3500 
L 2356 3500 
L 2356 3053 
L 1172 3053 
L 1172 1153 
Q 1172 725 1289 603 
Q 1406 481 1766 481 
L 2356 481 
L 2356 0 
L 1766 0 
Q 1100 0 847 248 
Q 594 497 594 1153 
L 594 3053 
L 172 3053 
L 172 3500 
L 594 3500 
L 594 4494 
L 1172 4494 
z
" transform="scale(0.015625)"/>
      <path id="DejaVuSans-5b" d="M 550 4863 
L 1875 4863 
L 1875 4416 
L 1125 4416 
L 1125 -397 
L 1875 -397 
L 1875 -844 
L 550 -844 
L 550 4863 
z
" transform="scale(0.015625)"/>
      <path id="DejaVuSans-5d" d="M 1947 4863 
L 1947 -844 
L 622 -844 
L 622 -397 
L 1369 -397 
L 1369 4416 
L 622 4416 
L 622 4863 
L 1947 4863 
z
" transform="scale(0.015625)"/>
      <path id="DejaVuSans-2208" d="M 1072 1959 
Q 1094 1728 1291 1353 
Q 1522 919 1959 675 
Q 2388 438 2850 434 
L 5028 434 
L 5028 -63 
L 2850 -63 
Q 2250 -63 1695 246 
Q 1141 556 844 1106 
Q 547 1656 547 2241 
Q 547 2819 844 3369 
Q 1141 3919 1695 4231 
Q 2250 4544 2850 4544 
L 5028 4544 
L 5028 4047 
L 2850 4047 
Q 2388 4044 1959 3803 
Q 1525 3556 1291 3125 
Q 1091 2750 1063 2459 
L 5028 2459 
L 5028 1959 
L 1072 1959 
z
" transform="scale(0.015625)"/>
      <path id="DejaVuSans-35" d="M 691 4666 
L 3169 4666 
L 3169 4134 
L 1269 4134 
L 1269 2991 
Q 1406 3038 1543 3061 
Q 1681 3084 1819 3084 
Q 2600 3084 3056 2656 
Q 3513 2228 3513 1497 
Q 3513 744 3044 326 
Q 2575 -91 1722 -91 
Q 1428 -91 1123 -41 
Q 819 9 494 109 
L 494 744 
Q 775 591 1075 516 
Q 1375 441 1709 441 
Q 2250 441 2565 725 
Q 2881 1009 2881 1497 
Q 2881 1984 2565 2268 
Q 2250 2553 1709 2553 
Q 1456 2553 1204 2497 
Q 953 2441 691 2322 
L 691 4666 
z
" transform="scale(0.015625)"/>
     </defs>
     <use xlink:href="#DejaVuSans-31"/>
     <use xlink:href="#DejaVuSans-30" x="63.623047"/>
     <use xlink:href="#DejaVuSans-30" x="127.246094"/>
     <use xlink:href="#DejaVuSans-30" x="190.869141"/>
     <use xlink:href="#DejaVuSans-30" x="254.492188"/>
     <use xlink:href="#DejaVuSans-20" x="318.115234"/>
     <use xlink:href="#DejaVuSans-6e" x="349.902344"/>
     <use xlink:href="#DejaVuSans-6f" x="413.28125"/>
     <use xlink:href="#DejaVuSans-6e" x="474.462891"/>
     <use xlink:href="#DejaVuSans-2d" x="537.841797"/>
     <use xlink:href="#DejaVuSans-7a" x="573.925781"/>
     <use xlink:href="#DejaVuSans-65" x="626.416016"/>
     <use xlink:href="#DejaVuSans-72" x="687.939453"/>
     <use xlink:href="#DejaVuSans-6f" x="726.802734"/>
     <use xlink:href="#DejaVuSans-20" x="787.984375"/>
     <use xlink:href="#DejaVuSans-73" x="819.771484"/>
     <use xlink:href="#DejaVuSans-61" x="871.871094"/>
     <use xlink:href="#DejaVuSans-6d" x="933.150391"/>
     <use xlink:href="#DejaVuSans-70" x="1030.5625"/>
     <use xlink:href="#DejaVuSans-6c" x="1094.039062"/>
     <use xlink:href="#DejaVuSans-65" x="1121.822266"/>
     <use xlink:href="#DejaVuSans-73" x="1183.345703"/>
     <use xlink:href="#DejaVuSans-20" x="1235.445312"/>
     <use xlink:href="#DejaVuSans-28" x="1267.232422"/>
     <use xlink:href="#DejaVuSans-3bc" x="1306.246094"/>
     <use xlink:href="#DejaVuSans-3d" x="1369.869141"/>
     <use xlink:href="#DejaVuSans-30" x="1453.658203"/>
     <use xlink:href="#DejaVuSans-2e" x="1517.28125"/>
     <use xlink:href="#DejaVuSans-38" x="1549.068359"/>
     <use xlink:href="#DejaVuSans-30" x="1612.691406"/>
     <use xlink:href="#DejaVuSans-30" x="1676.314453"/>
     <use xlink:href="#DejaVuSans-2c" x="1739.9375"/>
     <use xlink:href="#DejaVuSans-20" x="1771.724609"/>
     <use xlink:href="#DejaVuSans-3c3" x="1803.511719"/>
     <use xlink:href="#DejaVuSans-3d" x="1866.890625"/>
     <use xlink:href="#DejaVuSans-30" x="1950.679688"/>
     <use xlink:href="#DejaVuSans-2e" x="2014.302734"/>
     <use xlink:href="#DejaVuSans-36" x="2046.089844"/>
     <use xlink:href="#DejaVuSans-30" x="2109.712891"/>
     <use xlink:href="#DejaVuSans-36" x="2173.335938"/>
     <use xlink:href="#DejaVuSans-29" x="2236.958984"/>
     <use xlink:href="#DejaVuSans-20" x="2275.972656"/>
     <use xlink:href="#DejaVuSans-6f" x="2307.759766"/>
     <use xlink:href="#DejaVuSans-66" x="2368.941406"/>
     <use xlink:href="#DejaVuSans-20" x="2404.146484"/>
     <use xlink:href="#DejaVuSans-74" x="2435.933594"/>
     <use xlink:href="#DejaVuSans-65" x="2475.142578"/>
     <use xlink:href="#DejaVuSans-6e" x="2536.666016"/>
     <use xlink:href="#DejaVuSans-73" x="2600.044922"/>
     <use xlink:href="#DejaVuSans-6f" x="2652.144531"/>
     <use xlink:href="#DejaVuSans-72" x="2713.326172"/>
     <use xlink:href="#DejaVuSans-5b" x="2754.439453"/>
     <use xlink:href="#DejaVuSans-31" x="2793.453125"/>
     <use xlink:href="#DejaVuSans-30" x="2857.076172"/>
     <use xlink:href="#DejaVuSans-30" x="2920.699219"/>
     <use xlink:href="#DejaVuSans-30" x="2984.322266"/>
     <use xlink:href="#DejaVuSans-30" x="3047.945312"/>
     <use xlink:href="#DejaVuSans-30" x="3111.568359"/>
     <use xlink:href="#DejaVuSans-5d" x="3175.191406"/>
     <use xlink:href="#DejaVuSans-20" x="3214.205078"/>
     <use xlink:href="#DejaVuSans-78" x="3245.992188"/>
     <use xlink:href="#DejaVuSans-2208" x="3305.171875"/>
     <use xlink:href="#DejaVuSans-5b" x="3392.28125"/>
     <use xlink:href="#DejaVuSans-30" x="3431.294922"/>
     <use xlink:href="#DejaVuSans-2e" x="3494.917969"/>
     <use xlink:href="#DejaVuSans-2c" x="3526.705078"/>
     <use xlink:href="#DejaVuSans-20" x="3558.492188"/>
     <use xlink:href="#DejaVuSans-34" x="3590.279297"/>
     <use xlink:href="#DejaVuSans-2e" x="3653.902344"/>
     <use xlink:href="#DejaVuSans-36" x="3685.689453"/>
     <use xlink:href="#DejaVuSans-32" x="3749.3125"/>
     <use xlink:href="#DejaVuSans-39" x="3812.935547"/>
     <use xlink:href="#DejaVuSans-5d" x="3876.558594"/>
     <use xlink:href="#DejaVuSans-20" x="3915.572266"/>
     <use xlink:href="#DejaVuSans-3bc" x="3947.359375"/>
     <use xlink:href="#DejaVuSans-3d" x="4010.982422"/>
     <use xlink:href="#DejaVuSans-30" x="4094.771484"/>
     <use xlink:href="#DejaVuSans-2e" x="4158.394531"/>
     <use xlink:href="#DejaVuSans-34" x="4190.181641"/>
     <use xlink:href="#DejaVuSans-30" x="4253.804688"/>
     <use xlink:href="#DejaVuSans-32" x="4317.427734"/>
     <use xlink:href="#DejaVuSans-20" x="4381.050781"/>
     <use xlink:href="#DejaVuSans-3c3" x="4412.837891"/>
     <use xlink:href="#DejaVuSans-3d" x="4476.216797"/>
     <use xlink:href="#DejaVuSans-30" x="4560.005859"/>
     <use xlink:href="#DejaVuSans-2e" x="4623.628906"/>
     <use xlink:href="#DejaVuSans-35" x="4655.416016"/>
     <use xlink:href="#DejaVuSans-39" x="4719.039062"/>
     <use xlink:href="#DejaVuSans-30" x="4782.662109"/>
    </g>
   </g>
   <g id="patch_9">
    <path d="M 436.057717 128.528148 
L 444.616506 128.528148 
L 444.616506 50.956851 
L 436.057717 50.956851 
z
" clip-path="url(#pb195ff4a6f)" style="fill: #00bfff"/>
   </g>
   <g id="patch_10">
    <path d="M 444.616506 128.528148 
L 453.175295 128.528148 
L 453.175295 50.747482 
L 444.616506 50.747482 
z
" clip-path="url(#pb195ff4a6f)" style="fill: #00bfff"/>
   </g>
   <g id="patch_11">
    <path d="M 453.175295 128.528148 
L 461.734083 128.528148 
L 461.734083 50.852154 
L 453.175295 50.852154 
z
" clip-path="url(#pb195ff4a6f)" style="fill: #00bfff"/>
   </g>
   <g id="patch_12">
    <path d="M 461.734083 128.528148 
L 470.292873 128.528148 
L 470.292873 49.177225 
L 461.734083 49.177225 
z
" clip-path="url(#pb195ff4a6f)" style="fill: #00bfff"/>
   </g>
   <g id="patch_13">
    <path d="M 470.292873 128.528148 
L 478.851661 128.528148 
L 478.851661 52.945847 
L 470.292873 52.945847 
z
" clip-path="url(#pb195ff4a6f)" style="fill: #00bfff"/>
   </g>
   <g id="patch_14">
    <path d="M 478.851661 128.528148 
L 487.410449 128.528148 
L 487.410449 57.028547 
L 478.851661 57.028547 
z
" clip-path="url(#pb195ff4a6f)" style="fill: #00bfff"/>
   </g>
   <g id="patch_15">
    <path d="M 487.410449 128.528148 
L 495.969242 128.528148 
L 495.969242 60.587867 
L 487.410449 60.587867 
z
" clip-path="url(#pb195ff4a6f)" style="fill: #00bfff"/>
   </g>
   <g id="patch_16">
    <path d="M 495.969242 128.528148 
L 504.528029 128.528148 
L 504.528029 68.229802 
L 495.969242 68.229802 
z
" clip-path="url(#pb195ff4a6f)" style="fill: #00bfff"/>
   </g>
   <g id="patch_17">
    <path d="M 504.528029 128.528148 
L 513.086817 128.528148 
L 513.086817 70.323495 
L 504.528029 70.323495 
z
" clip-path="url(#pb195ff4a6f)" style="fill: #00bfff"/>
   </g>
   <g id="patch_18">
    <path d="M 513.086817 128.528148 
L 521.645605 128.528148 
L 521.645605 79.221688 
L 513.086817 79.221688 
z
" clip-path="url(#pb195ff4a6f)" style="fill: #00bfff"/>
   </g>
   <g id="patch_19">
    <path d="M 521.645605 128.528148 
L 530.204392 128.528148 
L 530.204392 79.640427 
L 521.645605 79.640427 
z
" clip-path="url(#pb195ff4a6f)" style="fill: #00bfff"/>
   </g>
   <g id="patch_20">
    <path d="M 530.204392 128.528148 
L 538.76318 128.528148 
L 538.76318 85.398081 
L 530.204392 85.398081 
z
" clip-path="url(#pb195ff4a6f)" style="fill: #00bfff"/>
   </g>
   <g id="patch_21">
    <path d="M 538.76318 128.528148 
L 547.321978 128.528148 
L 547.321978 92.307312 
L 538.76318 92.307312 
z
" clip-path="url(#pb195ff4a6f)" style="fill: #00bfff"/>
   </g>
   <g id="patch_22">
    <path d="M 547.321978 128.528148 
L 555.880766 128.528148 
L 555.880766 93.668167 
L 547.321978 93.668167 
z
" clip-path="url(#pb195ff4a6f)" style="fill: #00bfff"/>
   </g>
   <g id="patch_23">
    <path d="M 555.880766 128.528148 
L 564.439553 128.528148 
L 564.439553 99.216452 
L 555.880766 99.216452 
z
" clip-path="url(#pb195ff4a6f)" style="fill: #00bfff"/>
   </g>
   <g id="patch_24">
    <path d="M 564.439553 128.528148 
L 572.998341 128.528148 
L 572.998341 102.252306 
L 564.439553 102.252306 
z
" clip-path="url(#pb195ff4a6f)" style="fill: #00bfff"/>
   </g>
   <g id="patch_25">
    <path d="M 572.998341 128.528148 
L 581.557129 128.528148 
L 581.557129 105.706899 
L 572.998341 105.706899 
z
" clip-path="url(#pb195ff4a6f)" style="fill: #00bfff"/>
   </g>
   <g id="patch_26">
    <path d="M 581.557129 128.528148 
L 590.115916 128.528148 
L 590.115916 108.533384 
L 581.557129 108.533384 
z
" clip-path="url(#pb195ff4a6f)" style="fill: #00bfff"/>
   </g>
   <g id="patch_27">
    <path d="M 590.115916 128.528148 
L 598.674704 128.528148 
L 598.674704 114.395723 
L 590.115916 114.395723 
z
" clip-path="url(#pb195ff4a6f)" style="fill: #00bfff"/>
   </g>
   <g id="patch_28">
    <path d="M 598.674704 128.528148 
L 607.233492 128.528148 
L 607.233492 113.558246 
L 598.674704 113.558246 
z
" clip-path="url(#pb195ff4a6f)" style="fill: #00bfff"/>
   </g>
   <g id="patch_29">
    <path d="M 607.233492 128.528148 
L 615.79229 128.528148 
L 615.79229 116.175377 
L 607.233492 116.175377 
z
" clip-path="url(#pb195ff4a6f)" style="fill: #00bfff"/>
   </g>
   <g id="patch_30">
    <path d="M 615.79229 128.528148 
L 624.351067 128.528148 
L 624.351067 117.640933 
L 615.79229 117.640933 
z
" clip-path="url(#pb195ff4a6f)" style="fill: #00bfff"/>
   </g>
   <g id="patch_31">
    <path d="M 624.351067 128.528148 
L 632.909865 128.528148 
L 632.909865 120.258072 
L 624.351067 120.258072 
z
" clip-path="url(#pb195ff4a6f)" style="fill: #00bfff"/>
   </g>
   <g id="patch_32">
    <path d="M 632.909865 128.528148 
L 641.468642 128.528148 
L 641.468642 121.618954 
L 632.909865 121.618954 
z
" clip-path="url(#pb195ff4a6f)" style="fill: #00bfff"/>
   </g>
   <g id="patch_33">
    <path d="M 641.468642 128.528148 
L 650.02744 128.528148 
L 650.02744 123.293923 
L 641.468642 123.293923 
z
" clip-path="url(#pb195ff4a6f)" style="fill: #00bfff"/>
   </g>
   <g id="patch_34">
    <path d="M 650.02744 128.528148 
L 658.586239 128.528148 
L 658.586239 124.86419 
L 650.02744 124.86419 
z
" clip-path="url(#pb195ff4a6f)" style="fill: #00bfff"/>
   </g>
   <g id="patch_35">
    <path d="M 658.586239 128.528148 
L 667.145016 128.528148 
L 667.145016 125.178235 
L 658.586239 125.178235 
z
" clip-path="url(#pb195ff4a6f)" style="fill: #00bfff"/>
   </g>
   <g id="patch_36">
    <path d="M 667.145016 128.528148 
L 675.703814 128.528148 
L 675.703814 125.596982 
L 667.145016 125.596982 
z
" clip-path="url(#pb195ff4a6f)" style="fill: #00bfff"/>
   </g>
   <g id="patch_37">
    <path d="M 675.703814 128.528148 
L 684.262591 128.528148 
L 684.262591 126.643822 
L 675.703814 126.643822 
z
" clip-path="url(#pb195ff4a6f)" style="fill: #00bfff"/>
   </g>
   <g id="patch_38">
    <path d="M 684.262591 128.528148 
L 692.821389 128.528148 
L 692.821389 127.271934 
L 684.262591 127.271934 
z
" clip-path="url(#pb195ff4a6f)" style="fill: #00bfff"/>
   </g>
   <g id="patch_39">
    <path d="M 692.821389 128.528148 
L 701.380166 128.528148 
L 701.380166 127.376615 
L 692.821389 127.376615 
z
" clip-path="url(#pb195ff4a6f)" style="fill: #00bfff"/>
   </g>
   <g id="patch_40">
    <path d="M 701.380166 128.528148 
L 709.938965 128.528148 
L 709.938965 127.690672 
L 701.380166 127.690672 
z
" clip-path="url(#pb195ff4a6f)" style="fill: #00bfff"/>
   </g>
   <g id="patch_41">
    <path d="M 709.938965 128.528148 
L 718.497742 128.528148 
L 718.497742 127.900039 
L 709.938965 127.900039 
z
" clip-path="url(#pb195ff4a6f)" style="fill: #00bfff"/>
   </g>
   <g id="patch_42">
    <path d="M 718.497742 128.528148 
L 727.05654 128.528148 
L 727.05654 128.004725 
L 718.497742 128.004725 
z
" clip-path="url(#pb195ff4a6f)" style="fill: #00bfff"/>
   </g>
   <g id="patch_43">
    <path d="M 727.05654 128.528148 
L 735.615338 128.528148 
L 735.615338 128.004725 
L 727.05654 128.004725 
z
" clip-path="url(#pb195ff4a6f)" style="fill: #00bfff"/>
   </g>
   <g id="patch_44">
    <path d="M 735.615338 128.528148 
L 744.174115 128.528148 
L 744.174115 128.318778 
L 735.615338 128.318778 
z
" clip-path="url(#pb195ff4a6f)" style="fill: #00bfff"/>
   </g>
   <g id="patch_45">
    <path d="M 744.174115 128.528148 
L 752.732913 128.528148 
L 752.732913 128.423463 
L 744.174115 128.423463 
z
" clip-path="url(#pb195ff4a6f)" style="fill: #00bfff"/>
   </g>
   <g id="patch_46">
    <path d="M 752.732913 128.528148 
L 761.29169 128.528148 
L 761.29169 128.318778 
L 752.732913 128.318778 
z
" clip-path="url(#pb195ff4a6f)" style="fill: #00bfff"/>
   </g>
   <g id="patch_47">
    <path d="M 761.29169 128.528148 
L 769.850489 128.528148 
L 769.850489 128.528148 
L 761.29169 128.528148 
z
" clip-path="url(#pb195ff4a6f)" style="fill: #00bfff"/>
   </g>
   <g id="patch_48">
    <path d="M 769.850489 128.528148 
L 778.409266 128.528148 
L 778.409266 128.528148 
L 769.850489 128.528148 
z
" clip-path="url(#pb195ff4a6f)" style="fill: #00bfff"/>
   </g>
   <g id="patch_49">
    <path d="M 778.409266 128.528148 
L 786.968064 128.528148 
L 786.968064 128.528148 
L 778.409266 128.528148 
z
" clip-path="url(#pb195ff4a6f)" style="fill: #00bfff"/>
   </g>
   <g id="patch_50">
    <path d="M 786.968064 128.528148 
L 795.526862 128.528148 
L 795.526862 128.528148 
L 786.968064 128.528148 
z
" clip-path="url(#pb195ff4a6f)" style="fill: #00bfff"/>
   </g>
   <g id="patch_51">
    <path d="M 795.526862 128.528148 
L 804.085639 128.528148 
L 804.085639 128.423463 
L 795.526862 128.423463 
z
" clip-path="url(#pb195ff4a6f)" style="fill: #00bfff"/>
   </g>
   <g id="line2d_21">
    <path d="M 7.2 128.528148 
L 15.866662 128.528148 
L 24.533324 128.528148 
L 33.199985 128.528148 
L 41.866647 128.528148 
L 50.533309 128.528148 
L 59.199971 128.528148 
L 67.866633 128.528148 
L 76.533295 128.528148 
L 85.199956 128.528148 
L 93.866618 128.528148 
L 102.53328 128.528148 
L 111.199942 128.528148 
L 119.866604 128.528148 
L 128.533265 128.528148 
L 137.199927 128.528148 
L 145.866589 128.528148 
L 154.533251 128.528148 
L 163.199913 128.528148 
L 171.866575 128.528147 
L 180.533236 128.528147 
L 189.199898 128.528146 
L 197.86656 128.528143 
L 206.533222 128.528136 
L 215.199884 128.528119 
L 223.866545 128.52808 
L 232.533207 128.527991 
L 241.199869 128.527799 
L 249.866531 128.527387 
L 258.533193 128.526533 
L 267.199855 128.524807 
L 275.866516 128.521411 
L 284.533178 128.514909 
L 293.19984 128.502793 
L 301.866502 128.480824 
L 310.533164 128.44207 
L 319.199825 128.375563 
L 327.866487 128.264556 
L 336.533149 128.084376 
L 345.199811 127.80005 
L 353.866473 127.363956 
L 362.533135 126.714041 
L 371.199796 125.773252 
L 379.866458 124.451048 
L 388.53312 122.647822 
L 397.199782 120.262909 
L 405.866444 117.206406 
L 414.533105 113.414301 
L 423.199767 108.865562 
L 431.866429 103.598844 
L 440.533091 97.725819 
L 449.199753 91.437806 
L 457.866415 85.002826 
L 466.533076 78.75134 
L 475.199738 73.050765 
L 483.8664 68.270972 
L 492.533062 64.745071 
L 501.199724 62.731155 
L 509.866385 62.381095 
L 518.533047 63.721607 
L 527.199709 66.650889 
L 535.866371 70.951395 
L 544.533033 76.316529 
L 553.199695 82.38672 
L 561.866356 88.788979 
L 570.533018 95.173956 
L 579.19968 101.245536 
L 587.866342 106.779847 
L 596.533004 111.632742 
L 605.199665 115.736815 
L 613.866327 119.090433 
L 622.532989 121.742024 
L 631.199651 123.772819 
L 639.866313 125.280692 
L 648.532975 126.366873 
L 657.199636 127.126366 
L 665.866298 127.642105 
L 674.53296 127.982348 
L 683.199622 128.200494 
L 691.866284 128.336457 
L 700.532945 128.418855 
L 709.199607 128.46742 
L 717.866269 128.495264 
L 726.532931 128.510794 
L 735.199593 128.519223 
L 743.866255 128.523675 
L 752.532916 128.525963 
L 761.199578 128.527108 
L 769.86624 128.527665 
L 778.532902 128.527929 
L 787.199564 128.528052 
L 795.866225 128.528106 
L 804.532887 128.52813 
L 813.199549 128.528141 
L 821.866211 128.528145 
L 830.532873 128.528147 
L 839.199535 128.528147 
L 847.866196 128.528147 
L 856.532858 128.528148 
L 865.19952 128.528148 
" clip-path="url(#pb195ff4a6f)" style="fill: none; stroke: #1f77b4; stroke-width: 1.5; stroke-linecap: square"/>
   </g>
   <g id="text_9">
    <g id="patch_52">
     <path d="M 175.299828 38.307963 
L 191.607641 38.307963 
Q 194.607641 38.307963 194.607641 35.307963 
L 194.607641 25.629838 
Q 194.607641 22.629838 191.607641 22.629838 
L 175.299828 22.629838 
Q 172.299828 22.629838 172.299828 25.629838 
L 172.299828 35.307963 
Q 172.299828 38.307963 175.299828 38.307963 
z
" style="fill: #ffffff"/>
    </g>
    <!-- -6σ -->
    <g transform="translate(175.299828 33.228276) scale(0.1 -0.1)">
     <use xlink:href="#DejaVuSans-2d"/>
     <use xlink:href="#DejaVuSans-36" x="36.083984"/>
     <use xlink:href="#DejaVuSans-3c3" x="99.707031"/>
    </g>
   </g>
   <g id="text_10">
    <g id="patch_53">
     <path d="M 229.27702 38.307963 
L 245.584832 38.307963 
Q 248.584832 38.307963 248.584832 35.307963 
L 248.584832 25.629838 
Q 248.584832 22.629838 245.584832 22.629838 
L 229.27702 22.629838 
Q 226.27702 22.629838 226.27702 25.629838 
L 226.27702 35.307963 
Q 226.27702 38.307963 229.27702 38.307963 
z
" style="fill: #ffffff"/>
    </g>
    <!-- -5σ -->
    <g transform="translate(229.27702 33.228276) scale(0.1 -0.1)">
     <use xlink:href="#DejaVuSans-2d"/>
     <use xlink:href="#DejaVuSans-35" x="36.083984"/>
     <use xlink:href="#DejaVuSans-3c3" x="99.707031"/>
    </g>
   </g>
   <g id="text_11">
    <g id="patch_54">
     <path d="M 283.254211 38.307963 
L 299.562024 38.307963 
Q 302.562024 38.307963 302.562024 35.307963 
L 302.562024 25.629838 
Q 302.562024 22.629838 299.562024 22.629838 
L 283.254211 22.629838 
Q 280.254211 22.629838 280.254211 25.629838 
L 280.254211 35.307963 
Q 280.254211 38.307963 283.254211 38.307963 
z
" style="fill: #ffffff"/>
    </g>
    <!-- -4σ -->
    <g transform="translate(283.254211 33.228276) scale(0.1 -0.1)">
     <use xlink:href="#DejaVuSans-2d"/>
     <use xlink:href="#DejaVuSans-34" x="36.083984"/>
     <use xlink:href="#DejaVuSans-3c3" x="99.707031"/>
    </g>
   </g>
   <g id="text_12">
    <g id="patch_55">
     <path d="M 337.231403 38.307963 
L 353.539215 38.307963 
Q 356.539215 38.307963 356.539215 35.307963 
L 356.539215 25.629838 
Q 356.539215 22.629838 353.539215 22.629838 
L 337.231403 22.629838 
Q 334.231403 22.629838 334.231403 25.629838 
L 334.231403 35.307963 
Q 334.231403 38.307963 337.231403 38.307963 
z
" style="fill: #ffffff"/>
    </g>
    <!-- -3σ -->
    <g transform="translate(337.231403 33.228276) scale(0.1 -0.1)">
     <defs>
      <path id="DejaVuSans-33" d="M 2597 2516 
Q 3050 2419 3304 2112 
Q 3559 1806 3559 1356 
Q 3559 666 3084 287 
Q 2609 -91 1734 -91 
Q 1441 -91 1130 -33 
Q 819 25 488 141 
L 488 750 
Q 750 597 1062 519 
Q 1375 441 1716 441 
Q 2309 441 2620 675 
Q 2931 909 2931 1356 
Q 2931 1769 2642 2001 
Q 2353 2234 1838 2234 
L 1294 2234 
L 1294 2753 
L 1863 2753 
Q 2328 2753 2575 2939 
Q 2822 3125 2822 3475 
Q 2822 3834 2567 4026 
Q 2313 4219 1838 4219 
Q 1578 4219 1281 4162 
Q 984 4106 628 3988 
L 628 4550 
Q 988 4650 1302 4700 
Q 1616 4750 1894 4750 
Q 2613 4750 3031 4423 
Q 3450 4097 3450 3541 
Q 3450 3153 3228 2886 
Q 3006 2619 2597 2516 
z
" transform="scale(0.015625)"/>
     </defs>
     <use xlink:href="#DejaVuSans-2d"/>
     <use xlink:href="#DejaVuSans-33" x="36.083984"/>
     <use xlink:href="#DejaVuSans-3c3" x="99.707031"/>
    </g>
   </g>
   <g id="text_13">
    <g id="patch_56">
     <path d="M 391.208594 38.307963 
L 407.516407 38.307963 
Q 410.516407 38.307963 410.516407 35.307963 
L 410.516407 25.629838 
Q 410.516407 22.629838 407.516407 22.629838 
L 391.208594 22.629838 
Q 388.208594 22.629838 388.208594 25.629838 
L 388.208594 35.307963 
Q 388.208594 38.307963 391.208594 38.307963 
z
" style="fill: #ffffff"/>
    </g>
    <!-- -2σ -->
    <g transform="translate(391.208594 33.228276) scale(0.1 -0.1)">
     <use xlink:href="#DejaVuSans-2d"/>
     <use xlink:href="#DejaVuSans-32" x="36.083984"/>
     <use xlink:href="#DejaVuSans-3c3" x="99.707031"/>
    </g>
   </g>
   <g id="text_14">
    <g id="patch_57">
     <path d="M 448.367036 38.307963 
L 458.312348 38.307963 
Q 461.312348 38.307963 461.312348 35.307963 
L 461.312348 25.629838 
Q 461.312348 22.629838 458.312348 22.629838 
L 448.367036 22.629838 
Q 445.367036 22.629838 445.367036 25.629838 
L 445.367036 35.307963 
Q 445.367036 38.307963 448.367036 38.307963 
z
" style="fill: #ffffff"/>
    </g>
    <!-- -σ -->
    <g transform="translate(448.367036 33.228276) scale(0.1 -0.1)">
     <use xlink:href="#DejaVuSans-2d"/>
     <use xlink:href="#DejaVuSans-3c3" x="36.083984"/>
    </g>
   </g>
   <g id="text_15">
    <g id="patch_58">
     <path d="M 503.637977 38.307963 
L 510.99579 38.307963 
Q 513.99579 38.307963 513.99579 35.307963 
L 513.99579 25.629838 
Q 513.99579 22.629838 510.99579 22.629838 
L 503.637977 22.629838 
Q 500.637977 22.629838 500.637977 25.629838 
L 500.637977 35.307963 
Q 500.637977 38.307963 503.637977 38.307963 
z
" style="fill: #ffffff"/>
    </g>
    <!-- μ -->
    <g transform="translate(503.637977 33.217338) scale(0.1 -0.1)">
     <defs>
      <path id="DejaVuSans-Bold-3bc" d="M 544 -1338 
L 544 3500 
L 1672 3500 
L 1672 1466 
Q 1672 1103 1828 926 
Q 1984 750 2303 750 
Q 2625 750 2781 926 
Q 2938 1103 2938 1466 
L 2938 3500 
L 4063 3500 
L 4063 1159 
Q 4063 938 4114 850 
Q 4166 763 4288 763 
Q 4344 763 4395 778 
Q 4447 794 4506 831 
L 4506 50 
Q 4341 -22 4195 -56 
Q 4050 -91 3909 -91 
Q 3631 -91 3454 26 
Q 3278 144 3169 403 
Q 3022 156 2811 32 
Q 2600 -91 2322 -91 
Q 2091 -91 1928 -17 
Q 1766 56 1672 206 
L 1672 -1338 
L 544 -1338 
z
" transform="scale(0.015625)"/>
     </defs>
     <use xlink:href="#DejaVuSans-Bold-3bc"/>
    </g>
   </g>
   <g id="text_16">
    <g id="patch_59">
     <path d="M 553.935481 38.307963 
L 568.652669 38.307963 
Q 571.652669 38.307963 571.652669 35.307963 
L 571.652669 25.629838 
Q 571.652669 22.629838 568.652669 22.629838 
L 553.935481 22.629838 
Q 550.935481 22.629838 550.935481 25.629838 
L 550.935481 35.307963 
Q 550.935481 38.307963 553.935481 38.307963 
z
" style="fill: #ffffff"/>
    </g>
    <!-- +σ -->
    <g transform="translate(553.935481 33.228276) scale(0.1 -0.1)">
     <defs>
      <path id="DejaVuSans-2b" d="M 2944 4013 
L 2944 2272 
L 4684 2272 
L 4684 1741 
L 2944 1741 
L 2944 0 
L 2419 0 
L 2419 1741 
L 678 1741 
L 678 2272 
L 2419 2272 
L 2419 4013 
L 2944 4013 
z
" transform="scale(0.015625)"/>
     </defs>
     <use xlink:href="#DejaVuSans-2b"/>
     <use xlink:href="#DejaVuSans-3c3" x="83.789062"/>
    </g>
   </g>
   <g id="text_17">
    <g id="patch_60">
     <path d="M 604.731422 38.307963 
L 625.81111 38.307963 
Q 628.81111 38.307963 628.81111 35.307963 
L 628.81111 25.629838 
Q 628.81111 22.629838 625.81111 22.629838 
L 604.731422 22.629838 
Q 601.731422 22.629838 601.731422 25.629838 
L 601.731422 35.307963 
Q 601.731422 38.307963 604.731422 38.307963 
z
" style="fill: #ffffff"/>
    </g>
    <!-- +2σ -->
    <g transform="translate(604.731422 33.228276) scale(0.1 -0.1)">
     <use xlink:href="#DejaVuSans-2b"/>
     <use xlink:href="#DejaVuSans-32" x="83.789062"/>
     <use xlink:href="#DejaVuSans-3c3" x="147.412109"/>
    </g>
   </g>
   <g id="text_18">
    <g id="patch_61">
     <path d="M 658.708614 38.307963 
L 679.788301 38.307963 
Q 682.788301 38.307963 682.788301 35.307963 
L 682.788301 25.629838 
Q 682.788301 22.629838 679.788301 22.629838 
L 658.708614 22.629838 
Q 655.708614 22.629838 655.708614 25.629838 
L 655.708614 35.307963 
Q 655.708614 38.307963 658.708614 38.307963 
z
" style="fill: #ffffff"/>
    </g>
    <!-- +3σ -->
    <g transform="translate(658.708614 33.228276) scale(0.1 -0.1)">
     <use xlink:href="#DejaVuSans-2b"/>
     <use xlink:href="#DejaVuSans-33" x="83.789062"/>
     <use xlink:href="#DejaVuSans-3c3" x="147.412109"/>
    </g>
   </g>
   <g id="text_19">
    <g id="patch_62">
     <path d="M 712.685805 38.307963 
L 733.765493 38.307963 
Q 736.765493 38.307963 736.765493 35.307963 
L 736.765493 25.629838 
Q 736.765493 22.629838 733.765493 22.629838 
L 712.685805 22.629838 
Q 709.685805 22.629838 709.685805 25.629838 
L 709.685805 35.307963 
Q 709.685805 38.307963 712.685805 38.307963 
z
" style="fill: #ffffff"/>
    </g>
    <!-- +4σ -->
    <g transform="translate(712.685805 33.228276) scale(0.1 -0.1)">
     <use xlink:href="#DejaVuSans-2b"/>
     <use xlink:href="#DejaVuSans-34" x="83.789062"/>
     <use xlink:href="#DejaVuSans-3c3" x="147.412109"/>
    </g>
   </g>
   <g id="text_20">
    <g id="patch_63">
     <path d="M 766.662997 38.307963 
L 787.742684 38.307963 
Q 790.742684 38.307963 790.742684 35.307963 
L 790.742684 25.629838 
Q 790.742684 22.629838 787.742684 22.629838 
L 766.662997 22.629838 
Q 763.662997 22.629838 763.662997 25.629838 
L 763.662997 35.307963 
Q 763.662997 38.307963 766.662997 38.307963 
z
" style="fill: #ffffff"/>
    </g>
    <!-- +5σ -->
    <g transform="translate(766.662997 33.228276) scale(0.1 -0.1)">
     <use xlink:href="#DejaVuSans-2b"/>
     <use xlink:href="#DejaVuSans-35" x="83.789062"/>
     <use xlink:href="#DejaVuSans-3c3" x="147.412109"/>
    </g>
   </g>
   <g id="text_21">
    <g id="patch_64">
     <path d="M 820.640188 38.307963 
L 841.719876 38.307963 
Q 844.719876 38.307963 844.719876 35.307963 
L 844.719876 25.629838 
Q 844.719876 22.629838 841.719876 22.629838 
L 820.640188 22.629838 
Q 817.640188 22.629838 817.640188 25.629838 
L 817.640188 35.307963 
Q 817.640188 38.307963 820.640188 38.307963 
z
" style="fill: #ffffff"/>
    </g>
    <!-- +6σ -->
    <g transform="translate(820.640188 33.228276) scale(0.1 -0.1)">
     <use xlink:href="#DejaVuSans-2b"/>
     <use xlink:href="#DejaVuSans-36" x="83.789062"/>
     <use xlink:href="#DejaVuSans-3c3" x="147.412109"/>
    </g>
   </g>
  </g>
 </g>
 <defs>
  <clipPath id="pb195ff4a6f">
   <rect x="7.2" y="20.214138" width="857.99952" height="108.31401"/>
  </clipPath>
 </defs>
</svg>
