<?xml version="1.0" encoding="utf-8" standalone="no"?>
<!DOCTYPE svg PUBLIC "-//W3C//DTD SVG 1.1//EN"
  "http://www.w3.org/Graphics/SVG/1.1/DTD/svg11.dtd">
<svg xmlns:xlink="http://www.w3.org/1999/xlink" width="872.39952pt" height="152.406273pt" viewBox="0 0 872.39952 152.406273" xmlns="http://www.w3.org/2000/svg" version="1.1">
 <metadata>
  <rdf:RDF xmlns:dc="http://purl.org/dc/elements/1.1/" xmlns:cc="http://creativecommons.org/ns#" xmlns:rdf="http://www.w3.org/1999/02/22-rdf-syntax-ns#">
   <cc:Work>
    <dc:type rdf:resource="http://purl.org/dc/dcmitype/StillImage"/>
    <dc:format>image/svg+xml</dc:format>
    <dc:creator>
     <cc:Agent>
      <dc:title>Matplotlib, https://matplotlib.org/</dc:title>
     </cc:Agent>
    </dc:creator>
   </cc:Work>
  </rdf:RDF>
 </metadata>
 <defs>
  <style type="text/css">*{stroke-linejoin: round; stroke-linecap: butt}</style>
 </defs>
 <g id="figure_1">
  <g id="patch_1">
   <path d="M 0 152.406273 
L 872.39952 152.406273 
L 872.39952 0 
L 0 0 
z
" style="fill: #ffffff"/>
  </g>
  <g id="axes_1">
   <g id="patch_2">
    <path d="M 7.2 128.528148 
L 865.19952 128.528148 
L 865.19952 20.214138 
L 7.2 20.214138 
z
" style="fill: #ffffff"/>
   </g>
   <g id="matplotlib.axis_1">
    <g id="xtick_1">
     <g id="line2d_1">
      <defs>
       <path id="m8f1de1206a" d="M 0 0 
L 0 3.5 
" style="stroke: #000000; stroke-width: 0.8"/>
      </defs>
      <g>
       <use xlink:href="#m8f1de1206a" x="165.961385" y="128.528148" style="stroke: #000000; stroke-width: 0.8"/>
      </g>
     </g>
     <g id="text_1">
      <!-- 0 -->
      <g transform="translate(162.780135 143.126585) scale(0.1 -0.1)">
       <defs>
        <path id="DejaVuSans-30" d="M 2034 4250 
Q 1547 4250 1301 3770 
Q 1056 3291 1056 2328 
Q 1056 1369 1301 889 
Q 1547 409 2034 409 
Q 2525 409 2770 889 
Q 3016 1369 3016 2328 
Q 3016 3291 2770 3770 
Q 2525 4250 2034 4250 
z
M 2034 4750 
Q 2819 4750 3233 4129 
Q 3647 3509 3647 2328 
Q 3647 1150 3233 529 
Q 2819 -91 2034 -91 
Q 1250 -91 836 529 
Q 422 1150 422 2328 
Q 422 3509 836 4129 
Q 1250 4750 2034 4750 
z
" transform="scale(0.015625)"/>
       </defs>
       <use xlink:href="#DejaVuSans-30"/>
      </g>
     </g>
    </g>
    <g id="xtick_2">
     <g id="line2d_2">
      <g>
       <use xlink:href="#m8f1de1206a" x="344.859723" y="128.528148" style="stroke: #000000; stroke-width: 0.8"/>
      </g>
     </g>
     <g id="text_2">
      <!-- 2 -->
      <g transform="translate(341.678473 143.126585) scale(0.1 -0.1)">
       <defs>
        <path id="DejaVuSans-32" d="M 1228 531 
L 3431 531 
L 3431 0 
L 469 0 
L 469 531 
Q 828 903 1448 1529 
Q 2069 2156 2228 2338 
Q 2531 2678 2651 2914 
Q 2772 3150 2772 3378 
Q 2772 3750 2511 3984 
Q 2250 4219 1831 4219 
Q 1534 4219 1204 4116 
Q 875 4013 500 3803 
L 500 4441 
Q 881 4594 1212 4672 
Q 1544 4750 1819 4750 
Q 2544 4750 2975 4387 
Q 3406 4025 3406 3419 
Q 3406 3131 3298 2873 
Q 3191 2616 2906 2266 
Q 2828 2175 2409 1742 
Q 1991 1309 1228 531 
z
" transform="scale(0.015625)"/>
       </defs>
       <use xlink:href="#DejaVuSans-32"/>
      </g>
     </g>
    </g>
    <g id="xtick_3">
     <g id="line2d_3">
      <g>
       <use xlink:href="#m8f1de1206a" x="523.758061" y="128.528148" style="stroke: #000000; stroke-width: 0.8"/>
      </g>
     </g>
     <g id="text_3">
      <!-- 4 -->
      <g transform="translate(520.576811 143.126585) scale(0.1 -0.1)">
       <defs>
        <path id="DejaVuSans-34" d="M 2419 4116 
L 825 1625 
L 2419 1625 
L 2419 4116 
z
M 2253 4666 
L 3047 4666 
L 3047 1625 
L 3713 1625 
L 3713 1100 
L 3047 1100 
L 3047 0 
L 2419 0 
L 2419 1100 
L 313 1100 
L 313 1709 
L 2253 4666 
z
" transform="scale(0.015625)"/>
       </defs>
       <use xlink:href="#DejaVuSans-34"/>
      </g>
     </g>
    </g>
    <g id="xtick_4">
     <g id="line2d_4">
      <g>
       <use xlink:href="#m8f1de1206a" x="702.656398" y="128.528148" style="stroke: #000000; stroke-width: 0.8"/>
      </g>
     </g>
     <g id="text_4">
      <!-- 6 -->
      <g transform="translate(699.475148 143.126585) scale(0.1 -0.1)">
       <defs>
        <path id="DejaVuSans-36" d="M 2113 2584 
Q 1688 2584 1439 2293 
Q 1191 2003 1191 1497 
Q 1191 994 1439 701 
Q 1688 409 2113 409 
Q 2538 409 2786 701 
Q 3034 994 3034 1497 
Q 3034 2003 2786 2293 
Q 2538 2584 2113 2584 
z
M 3366 4563 
L 3366 3988 
Q 3128 4100 2886 4159 
Q 2644 4219 2406 4219 
Q 1781 4219 1451 3797 
Q 1122 3375 1075 2522 
Q 1259 2794 1537 2939 
Q 1816 3084 2150 3084 
Q 2853 3084 3261 2657 
Q 3669 2231 3669 1497 
Q 3669 778 3244 343 
Q 2819 -91 2113 -91 
Q 1303 -91 875 529 
Q 447 1150 447 2328 
Q 447 3434 972 4092 
Q 1497 4750 2381 4750 
Q 2619 4750 2861 4703 
Q 3103 4656 3366 4563 
z
" transform="scale(0.015625)"/>
       </defs>
       <use xlink:href="#DejaVuSans-36"/>
      </g>
     </g>
    </g>
   </g>
   <g id="matplotlib.axis_2"/>
   <g id="line2d_5">
    <path d="M 73.939364 128.528148 
L 73.939364 20.214138 
" clip-path="url(#p114c135044)" style="fill: none; stroke: #000000; stroke-width: 1.5; stroke-linecap: square"/>
   </g>
   <g id="line2d_6">
    <path d="M 163.946216 128.528148 
L 163.946216 20.214138 
" clip-path="url(#p114c135044)" style="fill: none; stroke: #000000; stroke-width: 1.5; stroke-linecap: square"/>
   </g>
   <g id="line2d_7">
    <path d="M 253.95309 128.528148 
L 253.95309 20.214138 
" clip-path="url(#p114c135044)" style="fill: none; stroke: #000000; stroke-width: 1.5; stroke-linecap: square"/>
   </g>
   <g id="line2d_8">
    <path d="M 343.959954 128.528148 
L 343.959954 20.214138 
" clip-path="url(#p114c135044)" style="fill: none; stroke: #000000; stroke-width: 1.5; stroke-linecap: square"/>
   </g>
   <g id="line2d_9">
    <path d="M 433.966817 128.528148 
L 433.966817 20.214138 
" clip-path="url(#p114c135044)" style="fill: none; stroke: #000000; stroke-width: 1.5; stroke-linecap: square"/>
   </g>
   <g id="line2d_10">
    <path d="M 523.97367 128.528148 
L 523.97367 20.214138 
" clip-path="url(#p114c135044)" style="fill: none; stroke: #000000; stroke-width: 1.5; stroke-linecap: square"/>
   </g>
   <g id="line2d_11">
    <path d="M 613.980523 128.528148 
L 613.980523 20.214138 
" clip-path="url(#p114c135044)" style="fill: none; stroke: #000000; stroke-width: 1.5; stroke-linecap: square"/>
   </g>
   <g id="line2d_12">
    <path d="M 703.987418 128.528148 
L 703.987418 20.214138 
" clip-path="url(#p114c135044)" style="fill: none; stroke: #000000; stroke-width: 1.5; stroke-linecap: square"/>
   </g>
   <g id="line2d_13">
    <path d="M 793.994271 128.528148 
L 793.994271 20.214138 
" clip-path="url(#p114c135044)" style="fill: none; stroke: #000000; stroke-width: 1.5; stroke-linecap: square"/>
   </g>
   <g id="line2d_14">
    <path d="M 23.693645 128.528148 
L 23.693645 20.214138 
" clip-path="url(#p114c135044)" style="fill: none; stroke: #ff0000; stroke-width: 1.5; stroke-linecap: square"/>
   </g>
   <g id="line2d_15">
    <path d="M 848.37602 128.528148 
L 848.37602 20.214138 
" clip-path="url(#p114c135044)" style="fill: none; stroke: #ff0000; stroke-width: 1.5; stroke-linecap: square"/>
   </g>
   <g id="patch_3">
    <path d="M 7.2 128.528148 
L 7.2 20.214138 
" style="fill: none; stroke: #000000; stroke-width: 0.8; stroke-linejoin: miter; stroke-linecap: square"/>
   </g>
   <g id="patch_4">
    <path d="M 865.19952 128.528148 
L 865.19952 20.214138 
" style="fill: none; stroke: #000000; stroke-width: 0.8; stroke-linejoin: miter; stroke-linecap: square"/>
   </g>
   <g id="patch_5">
    <path d="M 7.2 128.528148 
L 865.19952 128.528148 
" style="fill: none; stroke: #000000; stroke-width: 0.8; stroke-linejoin: miter; stroke-linecap: square"/>
   </g>
   <g id="patch_6">
    <path d="M 7.2 20.214138 
L 865.19952 20.214138 
" style="fill: none; stroke: #000000; stroke-width: 0.8; stroke-linejoin: miter; stroke-linecap: square"/>
   </g>
   <g id="text_5">
    <g id="patch_7">
     <path d="M 22.693645 104.10708 
L 22.693645 44.635205 
Q 22.693645 44.635205 22.693645 44.635205 
L 13.01552 44.635205 
Q 13.01552 44.635205 13.01552 44.635205 
L 13.01552 104.10708 
Q 13.01552 104.10708 13.01552 104.10708 
L 22.693645 104.10708 
Q 22.693645 104.10708 22.693645 104.10708 
z
" style="fill: #ffffff"/>
    </g>
    <!-- min=-1.590 -->
    <g transform="translate(20.613957 104.10708) rotate(-90) scale(0.1 -0.1)">
     <defs>
      <path id="DejaVuSans-6d" d="M 3328 2828 
Q 3544 3216 3844 3400 
Q 4144 3584 4550 3584 
Q 5097 3584 5394 3201 
Q 5691 2819 5691 2113 
L 5691 0 
L 5113 0 
L 5113 2094 
Q 5113 2597 4934 2840 
Q 4756 3084 4391 3084 
Q 3944 3084 3684 2787 
Q 3425 2491 3425 1978 
L 3425 0 
L 2847 0 
L 2847 2094 
Q 2847 2600 2669 2842 
Q 2491 3084 2119 3084 
Q 1678 3084 1418 2786 
Q 1159 2488 1159 1978 
L 1159 0 
L 581 0 
L 581 3500 
L 1159 3500 
L 1159 2956 
Q 1356 3278 1631 3431 
Q 1906 3584 2284 3584 
Q 2666 3584 2933 3390 
Q 3200 3197 3328 2828 
z
" transform="scale(0.015625)"/>
      <path id="DejaVuSans-69" d="M 603 3500 
L 1178 3500 
L 1178 0 
L 603 0 
L 603 3500 
z
M 603 4863 
L 1178 4863 
L 1178 4134 
L 603 4134 
L 603 4863 
z
" transform="scale(0.015625)"/>
      <path id="DejaVuSans-6e" d="M 3513 2113 
L 3513 0 
L 2938 0 
L 2938 2094 
Q 2938 2591 2744 2837 
Q 2550 3084 2163 3084 
Q 1697 3084 1428 2787 
Q 1159 2491 1159 1978 
L 1159 0 
L 581 0 
L 581 3500 
L 1159 3500 
L 1159 2956 
Q 1366 3272 1645 3428 
Q 1925 3584 2291 3584 
Q 2894 3584 3203 3211 
Q 3513 2838 3513 2113 
z
" transform="scale(0.015625)"/>
      <path id="DejaVuSans-3d" d="M 678 2906 
L 4684 2906 
L 4684 2381 
L 678 2381 
L 678 2906 
z
M 678 1631 
L 4684 1631 
L 4684 1100 
L 678 1100 
L 678 1631 
z
" transform="scale(0.015625)"/>
      <path id="DejaVuSans-2d" d="M 313 2009 
L 1997 2009 
L 1997 1497 
L 313 1497 
L 313 2009 
z
" transform="scale(0.015625)"/>
      <path id="DejaVuSans-31" d="M 794 531 
L 1825 531 
L 1825 4091 
L 703 3866 
L 703 4441 
L 1819 4666 
L 2450 4666 
L 2450 531 
L 3481 531 
L 3481 0 
L 794 0 
L 794 531 
z
" transform="scale(0.015625)"/>
      <path id="DejaVuSans-2e" d="M 684 794 
L 1344 794 
L 1344 0 
L 684 0 
L 684 794 
z
" transform="scale(0.015625)"/>
      <path id="DejaVuSans-35" d="M 691 4666 
L 3169 4666 
L 3169 4134 
L 1269 4134 
L 1269 2991 
Q 1406 3038 1543 3061 
Q 1681 3084 1819 3084 
Q 2600 3084 3056 2656 
Q 3513 2228 3513 1497 
Q 3513 744 3044 326 
Q 2575 -91 1722 -91 
Q 1428 -91 1123 -41 
Q 819 9 494 109 
L 494 744 
Q 775 591 1075 516 
Q 1375 441 1709 441 
Q 2250 441 2565 725 
Q 2881 1009 2881 1497 
Q 2881 1984 2565 2268 
Q 2250 2553 1709 2553 
Q 1456 2553 1204 2497 
Q 953 2441 691 2322 
L 691 4666 
z
" transform="scale(0.015625)"/>
      <path id="DejaVuSans-39" d="M 703 97 
L 703 672 
Q 941 559 1184 500 
Q 1428 441 1663 441 
Q 2288 441 2617 861 
Q 2947 1281 2994 2138 
Q 2813 1869 2534 1725 
Q 2256 1581 1919 1581 
Q 1219 1581 811 2004 
Q 403 2428 403 3163 
Q 403 3881 828 4315 
Q 1253 4750 1959 4750 
Q 2769 4750 3195 4129 
Q 3622 3509 3622 2328 
Q 3622 1225 3098 567 
Q 2575 -91 1691 -91 
Q 1453 -91 1209 -44 
Q 966 3 703 97 
z
M 1959 2075 
Q 2384 2075 2632 2365 
Q 2881 2656 2881 3163 
Q 2881 3666 2632 3958 
Q 2384 4250 1959 4250 
Q 1534 4250 1286 3958 
Q 1038 3666 1038 3163 
Q 1038 2656 1286 2365 
Q 1534 2075 1959 2075 
z
" transform="scale(0.015625)"/>
     </defs>
     <use xlink:href="#DejaVuSans-6d"/>
     <use xlink:href="#DejaVuSans-69" transform="translate(97.412109 0)"/>
     <use xlink:href="#DejaVuSans-6e" transform="translate(125.195312 0)"/>
     <use xlink:href="#DejaVuSans-3d" transform="translate(188.574219 0)"/>
     <use xlink:href="#DejaVuSans-2d" transform="translate(272.363281 0)"/>
     <use xlink:href="#DejaVuSans-31" transform="translate(308.447266 0)"/>
     <use xlink:href="#DejaVuSans-2e" transform="translate(372.070312 0)"/>
     <use xlink:href="#DejaVuSans-35" transform="translate(403.857422 0)"/>
     <use xlink:href="#DejaVuSans-39" transform="translate(467.480469 0)"/>
     <use xlink:href="#DejaVuSans-30" transform="translate(531.103516 0)"/>
    </g>
   </g>
   <g id="text_6">
    <g id="patch_8">
     <path d="M 860.054145 103.768799 
L 860.054145 44.973487 
Q 860.054145 44.973487 860.054145 44.973487 
L 850.37602 44.973487 
Q 850.37602 44.973487 850.37602 44.973487 
L 850.37602 103.768799 
Q 850.37602 103.768799 850.37602 103.768799 
L 860.054145 103.768799 
Q 860.054145 103.768799 860.054145 103.768799 
z
" style="fill: #ffffff"/>
    </g>
    <!-- max=7.629 -->
    <g transform="translate(857.974458 103.768799) rotate(-90) scale(0.1 -0.1)">
     <defs>
      <path id="DejaVuSans-61" d="M 2194 1759 
Q 1497 1759 1228 1600 
Q 959 1441 959 1056 
Q 959 750 1161 570 
Q 1363 391 1709 391 
Q 2188 391 2477 730 
Q 2766 1069 2766 1631 
L 2766 1759 
L 2194 1759 
z
M 3341 1997 
L 3341 0 
L 2766 0 
L 2766 531 
Q 2569 213 2275 61 
Q 1981 -91 1556 -91 
Q 1019 -91 701 211 
Q 384 513 384 1019 
Q 384 1609 779 1909 
Q 1175 2209 1959 2209 
L 2766 2209 
L 2766 2266 
Q 2766 2663 2505 2880 
Q 2244 3097 1772 3097 
Q 1472 3097 1187 3025 
Q 903 2953 641 2809 
L 641 3341 
Q 956 3463 1253 3523 
Q 1550 3584 1831 3584 
Q 2591 3584 2966 3190 
Q 3341 2797 3341 1997 
z
" transform="scale(0.015625)"/>
      <path id="DejaVuSans-78" d="M 3513 3500 
L 2247 1797 
L 3578 0 
L 2900 0 
L 1881 1375 
L 863 0 
L 184 0 
L 1544 1831 
L 300 3500 
L 978 3500 
L 1906 2253 
L 2834 3500 
L 3513 3500 
z
" transform="scale(0.015625)"/>
      <path id="DejaVuSans-37" d="M 525 4666 
L 3525 4666 
L 3525 4397 
L 1831 0 
L 1172 0 
L 2766 4134 
L 525 4134 
L 525 4666 
z
" transform="scale(0.015625)"/>
     </defs>
     <use xlink:href="#DejaVuSans-6d"/>
     <use xlink:href="#DejaVuSans-61" transform="translate(97.412109 0)"/>
     <use xlink:href="#DejaVuSans-78" transform="translate(158.691406 0)"/>
     <use xlink:href="#DejaVuSans-3d" transform="translate(217.871094 0)"/>
     <use xlink:href="#DejaVuSans-37" transform="translate(301.660156 0)"/>
     <use xlink:href="#DejaVuSans-2e" transform="translate(365.283203 0)"/>
     <use xlink:href="#DejaVuSans-36" transform="translate(397.070312 0)"/>
     <use xlink:href="#DejaVuSans-32" transform="translate(460.693359 0)"/>
     <use xlink:href="#DejaVuSans-39" transform="translate(524.316406 0)"/>
    </g>
   </g>
   <g id="text_7">
    <!-- 10000 samples (μ=2.996, σ=1.006) of tensor[100000] x∈[-1.590, 7.629] μ=3.002 σ=1.006 -->
    <g transform="translate(7.2 14.798437) scale(0.1 -0.1)">
     <defs>
      <path id="DejaVuSans-20" transform="scale(0.015625)"/>
      <path id="DejaVuSans-73" d="M 2834 3397 
L 2834 2853 
Q 2591 2978 2328 3040 
Q 2066 3103 1784 3103 
Q 1356 3103 1142 2972 
Q 928 2841 928 2578 
Q 928 2378 1081 2264 
Q 1234 2150 1697 2047 
L 1894 2003 
Q 2506 1872 2764 1633 
Q 3022 1394 3022 966 
Q 3022 478 2636 193 
Q 2250 -91 1575 -91 
Q 1294 -91 989 -36 
Q 684 19 347 128 
L 347 722 
Q 666 556 975 473 
Q 1284 391 1588 391 
Q 1994 391 2212 530 
Q 2431 669 2431 922 
Q 2431 1156 2273 1281 
Q 2116 1406 1581 1522 
L 1381 1569 
Q 847 1681 609 1914 
Q 372 2147 372 2553 
Q 372 3047 722 3315 
Q 1072 3584 1716 3584 
Q 2034 3584 2315 3537 
Q 2597 3491 2834 3397 
z
" transform="scale(0.015625)"/>
      <path id="DejaVuSans-70" d="M 1159 525 
L 1159 -1331 
L 581 -1331 
L 581 3500 
L 1159 3500 
L 1159 2969 
Q 1341 3281 1617 3432 
Q 1894 3584 2278 3584 
Q 2916 3584 3314 3078 
Q 3713 2572 3713 1747 
Q 3713 922 3314 415 
Q 2916 -91 2278 -91 
Q 1894 -91 1617 61 
Q 1341 213 1159 525 
z
M 3116 1747 
Q 3116 2381 2855 2742 
Q 2594 3103 2138 3103 
Q 1681 3103 1420 2742 
Q 1159 2381 1159 1747 
Q 1159 1113 1420 752 
Q 1681 391 2138 391 
Q 2594 391 2855 752 
Q 3116 1113 3116 1747 
z
" transform="scale(0.015625)"/>
      <path id="DejaVuSans-6c" d="M 603 4863 
L 1178 4863 
L 1178 0 
L 603 0 
L 603 4863 
z
" transform="scale(0.015625)"/>
      <path id="DejaVuSans-65" d="M 3597 1894 
L 3597 1613 
L 953 1613 
Q 991 1019 1311 708 
Q 1631 397 2203 397 
Q 2534 397 2845 478 
Q 3156 559 3463 722 
L 3463 178 
Q 3153 47 2828 -22 
Q 2503 -91 2169 -91 
Q 1331 -91 842 396 
Q 353 884 353 1716 
Q 353 2575 817 3079 
Q 1281 3584 2069 3584 
Q 2775 3584 3186 3129 
Q 3597 2675 3597 1894 
z
M 3022 2063 
Q 3016 2534 2758 2815 
Q 2500 3097 2075 3097 
Q 1594 3097 1305 2825 
Q 1016 2553 972 2059 
L 3022 2063 
z
" transform="scale(0.015625)"/>
      <path id="DejaVuSans-28" d="M 1984 4856 
Q 1566 4138 1362 3434 
Q 1159 2731 1159 2009 
Q 1159 1288 1364 580 
Q 1569 -128 1984 -844 
L 1484 -844 
Q 1016 -109 783 600 
Q 550 1309 550 2009 
Q 550 2706 781 3412 
Q 1013 4119 1484 4856 
L 1984 4856 
z
" transform="scale(0.015625)"/>
      <path id="DejaVuSans-3bc" d="M 544 -1331 
L 544 3500 
L 1119 3500 
L 1119 1325 
Q 1119 872 1334 640 
Q 1550 409 1972 409 
Q 2434 409 2667 671 
Q 2900 934 2900 1459 
L 2900 3500 
L 3475 3500 
L 3475 806 
Q 3475 619 3529 530 
Q 3584 441 3700 441 
Q 3728 441 3778 458 
Q 3828 475 3916 513 
L 3916 50 
Q 3788 -22 3673 -56 
Q 3559 -91 3450 -91 
Q 3234 -91 3106 31 
Q 2978 153 2931 403 
Q 2775 156 2548 32 
Q 2322 -91 2016 -91 
Q 1697 -91 1473 31 
Q 1250 153 1119 397 
L 1119 -1331 
L 544 -1331 
z
" transform="scale(0.015625)"/>
      <path id="DejaVuSans-2c" d="M 750 794 
L 1409 794 
L 1409 256 
L 897 -744 
L 494 -744 
L 750 256 
L 750 794 
z
" transform="scale(0.015625)"/>
      <path id="DejaVuSans-3c3" d="M 1959 3044 
Q 1484 3044 1228 2700 
Q 959 2341 959 1747 
Q 959 1119 1226 758 
Q 1494 397 1959 397 
Q 2419 397 2687 759 
Q 2956 1122 2956 1747 
Q 2956 2319 2688 2700 
Q 2441 3044 1959 3044 
z
M 1959 3500 
L 3869 3500 
L 3869 2925 
L 3225 2925 
Q 3566 2438 3566 1747 
Q 3566 888 3138 400 
Q 2709 -91 1959 -91 
Q 1206 -91 781 400 
Q 353 888 353 1747 
Q 353 2613 781 3097 
Q 1134 3500 1959 3500 
z
" transform="scale(0.015625)"/>
      <path id="DejaVuSans-29" d="M 513 4856 
L 1013 4856 
Q 1481 4119 1714 3412 
Q 1947 2706 1947 2009 
Q 1947 1309 1714 600 
Q 1481 -109 1013 -844 
L 513 -844 
Q 928 -128 1133 580 
Q 1338 1288 1338 2009 
Q 1338 2731 1133 3434 
Q 928 4138 513 4856 
z
" transform="scale(0.015625)"/>
      <path id="DejaVuSans-6f" d="M 1959 3097 
Q 1497 3097 1228 2736 
Q 959 2375 959 1747 
Q 959 1119 1226 758 
Q 1494 397 1959 397 
Q 2419 397 2687 759 
Q 2956 1122 2956 1747 
Q 2956 2369 2687 2733 
Q 2419 3097 1959 3097 
z
M 1959 3584 
Q 2709 3584 3137 3096 
Q 3566 2609 3566 1747 
Q 3566 888 3137 398 
Q 2709 -91 1959 -91 
Q 1206 -91 779 398 
Q 353 888 353 1747 
Q 353 2609 779 3096 
Q 1206 3584 1959 3584 
z
" transform="scale(0.015625)"/>
      <path id="DejaVuSans-66" d="M 2375 4863 
L 2375 4384 
L 1825 4384 
Q 1516 4384 1395 4259 
Q 1275 4134 1275 3809 
L 1275 3500 
L 2222 3500 
L 2222 3053 
L 1275 3053 
L 1275 0 
L 697 0 
L 697 3053 
L 147 3053 
L 147 3500 
L 697 3500 
L 697 3744 
Q 697 4328 969 4595 
Q 1241 4863 1831 4863 
L 2375 4863 
z
" transform="scale(0.015625)"/>
      <path id="DejaVuSans-74" d="M 1172 4494 
L 1172 3500 
L 2356 3500 
L 2356 3053 
L 1172 3053 
L 1172 1153 
Q 1172 725 1289 603 
Q 1406 481 1766 481 
L 2356 481 
L 2356 0 
L 1766 0 
Q 1100 0 847 248 
Q 594 497 594 1153 
L 594 3053 
L 172 3053 
L 172 3500 
L 594 3500 
L 594 4494 
L 1172 4494 
z
" transform="scale(0.015625)"/>
      <path id="DejaVuSans-72" d="M 2631 2963 
Q 2534 3019 2420 3045 
Q 2306 3072 2169 3072 
Q 1681 3072 1420 2755 
Q 1159 2438 1159 1844 
L 1159 0 
L 581 0 
L 581 3500 
L 1159 3500 
L 1159 2956 
Q 1341 3275 1631 3429 
Q 1922 3584 2338 3584 
Q 2397 3584 2469 3576 
Q 2541 3569 2628 3553 
L 2631 2963 
z
" transform="scale(0.015625)"/>
      <path id="DejaVuSans-5b" d="M 550 4863 
L 1875 4863 
L 1875 4416 
L 1125 4416 
L 1125 -397 
L 1875 -397 
L 1875 -844 
L 550 -844 
L 550 4863 
z
" transform="scale(0.015625)"/>
      <path id="DejaVuSans-5d" d="M 1947 4863 
L 1947 -844 
L 622 -844 
L 622 -397 
L 1369 -397 
L 1369 4416 
L 622 4416 
L 622 4863 
L 1947 4863 
z
" transform="scale(0.015625)"/>
      <path id="DejaVuSans-2208" d="M 1072 1959 
Q 1094 1728 1291 1353 
Q 1522 919 1959 675 
Q 2388 438 2850 434 
L 5028 434 
L 5028 -63 
L 2850 -63 
Q 2250 -63 1695 246 
Q 1141 556 844 1106 
Q 547 1656 547 2241 
Q 547 2819 844 3369 
Q 1141 3919 1695 4231 
Q 2250 4544 2850 4544 
L 5028 4544 
L 5028 4047 
L 2850 4047 
Q 2388 4044 1959 3803 
Q 1525 3556 1291 3125 
Q 1091 2750 1063 2459 
L 5028 2459 
L 5028 1959 
L 1072 1959 
z
" transform="scale(0.015625)"/>
      <path id="DejaVuSans-33" d="M 2597 2516 
Q 3050 2419 3304 2112 
Q 3559 1806 3559 1356 
Q 3559 666 3084 287 
Q 2609 -91 1734 -91 
Q 1441 -91 1130 -33 
Q 819 25 488 141 
L 488 750 
Q 750 597 1062 519 
Q 1375 441 1716 441 
Q 2309 441 2620 675 
Q 2931 909 2931 1356 
Q 2931 1769 2642 2001 
Q 2353 2234 1838 2234 
L 1294 2234 
L 1294 2753 
L 1863 2753 
Q 2328 2753 2575 2939 
Q 2822 3125 2822 3475 
Q 2822 3834 2567 4026 
Q 2313 4219 1838 4219 
Q 1578 4219 1281 4162 
Q 984 4106 628 3988 
L 628 4550 
Q 988 4650 1302 4700 
Q 1616 4750 1894 4750 
Q 2613 4750 3031 4423 
Q 3450 4097 3450 3541 
Q 3450 3153 3228 2886 
Q 3006 2619 2597 2516 
z
" transform="scale(0.015625)"/>
     </defs>
     <use xlink:href="#DejaVuSans-31"/>
     <use xlink:href="#DejaVuSans-30" transform="translate(63.623047 0)"/>
     <use xlink:href="#DejaVuSans-30" transform="translate(127.246094 0)"/>
     <use xlink:href="#DejaVuSans-30" transform="translate(190.869141 0)"/>
     <use xlink:href="#DejaVuSans-30" transform="translate(254.492188 0)"/>
     <use xlink:href="#DejaVuSans-20" transform="translate(318.115234 0)"/>
     <use xlink:href="#DejaVuSans-73" transform="translate(349.902344 0)"/>
     <use xlink:href="#DejaVuSans-61" transform="translate(402.001953 0)"/>
     <use xlink:href="#DejaVuSans-6d" transform="translate(463.28125 0)"/>
     <use xlink:href="#DejaVuSans-70" transform="translate(560.693359 0)"/>
     <use xlink:href="#DejaVuSans-6c" transform="translate(624.169922 0)"/>
     <use xlink:href="#DejaVuSans-65" transform="translate(651.953125 0)"/>
     <use xlink:href="#DejaVuSans-73" transform="translate(713.476562 0)"/>
     <use xlink:href="#DejaVuSans-20" transform="translate(765.576172 0)"/>
     <use xlink:href="#DejaVuSans-28" transform="translate(797.363281 0)"/>
     <use xlink:href="#DejaVuSans-3bc" transform="translate(836.376953 0)"/>
     <use xlink:href="#DejaVuSans-3d" transform="translate(900 0)"/>
     <use xlink:href="#DejaVuSans-32" transform="translate(983.789062 0)"/>
     <use xlink:href="#DejaVuSans-2e" transform="translate(1047.412109 0)"/>
     <use xlink:href="#DejaVuSans-39" transform="translate(1079.199219 0)"/>
     <use xlink:href="#DejaVuSans-39" transform="translate(1142.822266 0)"/>
     <use xlink:href="#DejaVuSans-36" transform="translate(1206.445312 0)"/>
     <use xlink:href="#DejaVuSans-2c" transform="translate(1270.068359 0)"/>
     <use xlink:href="#DejaVuSans-20" transform="translate(1301.855469 0)"/>
     <use xlink:href="#DejaVuSans-3c3" transform="translate(1333.642578 0)"/>
     <use xlink:href="#DejaVuSans-3d" transform="translate(1397.021484 0)"/>
     <use xlink:href="#DejaVuSans-31" transform="translate(1480.810547 0)"/>
     <use xlink:href="#DejaVuSans-2e" transform="translate(1544.433594 0)"/>
     <use xlink:href="#DejaVuSans-30" transform="translate(1576.220703 0)"/>
     <use xlink:href="#DejaVuSans-30" transform="translate(1639.84375 0)"/>
     <use xlink:href="#DejaVuSans-36" transform="translate(1703.466797 0)"/>
     <use xlink:href="#DejaVuSans-29" transform="translate(1767.089844 0)"/>
     <use xlink:href="#DejaVuSans-20" transform="translate(1806.103516 0)"/>
     <use xlink:href="#DejaVuSans-6f" transform="translate(1837.890625 0)"/>
     <use xlink:href="#DejaVuSans-66" transform="translate(1899.072266 0)"/>
     <use xlink:href="#DejaVuSans-20" transform="translate(1934.277344 0)"/>
     <use xlink:href="#DejaVuSans-74" transform="translate(1966.064453 0)"/>
     <use xlink:href="#DejaVuSans-65" transform="translate(2005.273438 0)"/>
     <use xlink:href="#DejaVuSans-6e" transform="translate(2066.796875 0)"/>
     <use xlink:href="#DejaVuSans-73" transform="translate(2130.175781 0)"/>
     <use xlink:href="#DejaVuSans-6f" transform="translate(2182.275391 0)"/>
     <use xlink:href="#DejaVuSans-72" transform="translate(2243.457031 0)"/>
     <use xlink:href="#DejaVuSans-5b" transform="translate(2284.570312 0)"/>
     <use xlink:href="#DejaVuSans-31" transform="translate(2323.583984 0)"/>
     <use xlink:href="#DejaVuSans-30" transform="translate(2387.207031 0)"/>
     <use xlink:href="#DejaVuSans-30" transform="translate(2450.830078 0)"/>
     <use xlink:href="#DejaVuSans-30" transform="translate(2514.453125 0)"/>
     <use xlink:href="#DejaVuSans-30" transform="translate(2578.076172 0)"/>
     <use xlink:href="#DejaVuSans-30" transform="translate(2641.699219 0)"/>
     <use xlink:href="#DejaVuSans-5d" transform="translate(2705.322266 0)"/>
     <use xlink:href="#DejaVuSans-20" transform="translate(2744.335938 0)"/>
     <use xlink:href="#DejaVuSans-78" transform="translate(2776.123047 0)"/>
     <use xlink:href="#DejaVuSans-2208" transform="translate(2835.302734 0)"/>
     <use xlink:href="#DejaVuSans-5b" transform="translate(2922.412109 0)"/>
     <use xlink:href="#DejaVuSans-2d" transform="translate(2961.425781 0)"/>
     <use xlink:href="#DejaVuSans-31" transform="translate(2997.509766 0)"/>
     <use xlink:href="#DejaVuSans-2e" transform="translate(3061.132812 0)"/>
     <use xlink:href="#DejaVuSans-35" transform="translate(3092.919922 0)"/>
     <use xlink:href="#DejaVuSans-39" transform="translate(3156.542969 0)"/>
     <use xlink:href="#DejaVuSans-30" transform="translate(3220.166016 0)"/>
     <use xlink:href="#DejaVuSans-2c" transform="translate(3283.789062 0)"/>
     <use xlink:href="#DejaVuSans-20" transform="translate(3315.576172 0)"/>
     <use xlink:href="#DejaVuSans-37" transform="translate(3347.363281 0)"/>
     <use xlink:href="#DejaVuSans-2e" transform="translate(3410.986328 0)"/>
     <use xlink:href="#DejaVuSans-36" transform="translate(3442.773438 0)"/>
     <use xlink:href="#DejaVuSans-32" transform="translate(3506.396484 0)"/>
     <use xlink:href="#DejaVuSans-39" transform="translate(3570.019531 0)"/>
     <use xlink:href="#DejaVuSans-5d" transform="translate(3633.642578 0)"/>
     <use xlink:href="#DejaVuSans-20" transform="translate(3672.65625 0)"/>
     <use xlink:href="#DejaVuSans-3bc" transform="translate(3704.443359 0)"/>
     <use xlink:href="#DejaVuSans-3d" transform="translate(3768.066406 0)"/>
     <use xlink:href="#DejaVuSans-33" transform="translate(3851.855469 0)"/>
     <use xlink:href="#DejaVuSans-2e" transform="translate(3915.478516 0)"/>
     <use xlink:href="#DejaVuSans-30" transform="translate(3947.265625 0)"/>
     <use xlink:href="#DejaVuSans-30" transform="translate(4010.888672 0)"/>
     <use xlink:href="#DejaVuSans-32" transform="translate(4074.511719 0)"/>
     <use xlink:href="#DejaVuSans-20" transform="translate(4138.134766 0)"/>
     <use xlink:href="#DejaVuSans-3c3" transform="translate(4169.921875 0)"/>
     <use xlink:href="#DejaVuSans-3d" transform="translate(4233.300781 0)"/>
     <use xlink:href="#DejaVuSans-31" transform="translate(4317.089844 0)"/>
     <use xlink:href="#DejaVuSans-2e" transform="translate(4380.712891 0)"/>
     <use xlink:href="#DejaVuSans-30" transform="translate(4412.5 0)"/>
     <use xlink:href="#DejaVuSans-30" transform="translate(4476.123047 0)"/>
     <use xlink:href="#DejaVuSans-36" transform="translate(4539.746094 0)"/>
    </g>
   </g>
   <g id="patch_9">
    <path d="M 51.018919 128.528148 
L 59.510823 128.528148 
L 59.510823 128.327258 
L 51.018919 128.327258 
z
" clip-path="url(#p114c135044)" style="fill: #00bfff"/>
   </g>
   <g id="patch_10">
    <path d="M 59.510823 128.528148 
L 68.002739 128.528148 
L 68.002739 128.528148 
L 59.510823 128.528148 
z
" clip-path="url(#p114c135044)" style="fill: #00bfff"/>
   </g>
   <g id="patch_11">
    <path d="M 68.002739 128.528148 
L 76.494644 128.528148 
L 76.494644 128.528148 
L 68.002739 128.528148 
z
" clip-path="url(#p114c135044)" style="fill: #00bfff"/>
   </g>
   <g id="patch_12">
    <path d="M 76.494644 128.528148 
L 84.986559 128.528148 
L 84.986559 128.528148 
L 76.494644 128.528148 
z
" clip-path="url(#p114c135044)" style="fill: #00bfff"/>
   </g>
   <g id="patch_13">
    <path d="M 84.986559 128.528148 
L 93.478464 128.528148 
L 93.478464 128.528148 
L 84.986559 128.528148 
z
" clip-path="url(#p114c135044)" style="fill: #00bfff"/>
   </g>
   <g id="patch_14">
    <path d="M 93.478464 128.528148 
L 101.970374 128.528148 
L 101.970374 128.528148 
L 93.478464 128.528148 
z
" clip-path="url(#p114c135044)" style="fill: #00bfff"/>
   </g>
   <g id="patch_15">
    <path d="M 101.970374 128.528148 
L 110.462284 128.528148 
L 110.462284 128.528148 
L 101.970374 128.528148 
z
" clip-path="url(#p114c135044)" style="fill: #00bfff"/>
   </g>
   <g id="patch_16">
    <path d="M 110.462284 128.528148 
L 118.954194 128.528148 
L 118.954194 128.528148 
L 110.462284 128.528148 
z
" clip-path="url(#p114c135044)" style="fill: #00bfff"/>
   </g>
   <g id="patch_17">
    <path d="M 118.954194 128.528148 
L 127.446105 128.528148 
L 127.446105 127.92548 
L 118.954194 127.92548 
z
" clip-path="url(#p114c135044)" style="fill: #00bfff"/>
   </g>
   <g id="patch_18">
    <path d="M 127.446105 128.528148 
L 135.938015 128.528148 
L 135.938015 128.12637 
L 127.446105 128.12637 
z
" clip-path="url(#p114c135044)" style="fill: #00bfff"/>
   </g>
   <g id="patch_19">
    <path d="M 135.938015 128.528148 
L 144.429925 128.528148 
L 144.429925 127.92548 
L 135.938015 127.92548 
z
" clip-path="url(#p114c135044)" style="fill: #00bfff"/>
   </g>
   <g id="patch_20">
    <path d="M 144.429925 128.528148 
L 152.92183 128.528148 
L 152.92183 128.327258 
L 144.429925 128.327258 
z
" clip-path="url(#p114c135044)" style="fill: #00bfff"/>
   </g>
   <g id="patch_21">
    <path d="M 152.92183 128.528148 
L 161.413745 128.528148 
L 161.413745 128.12637 
L 152.92183 128.12637 
z
" clip-path="url(#p114c135044)" style="fill: #00bfff"/>
   </g>
   <g id="patch_22">
    <path d="M 161.413745 128.528148 
L 169.90565 128.528148 
L 169.90565 127.724591 
L 161.413745 127.724591 
z
" clip-path="url(#p114c135044)" style="fill: #00bfff"/>
   </g>
   <g id="patch_23">
    <path d="M 169.90565 128.528148 
L 178.397565 128.528148 
L 178.397565 128.12637 
L 169.90565 128.12637 
z
" clip-path="url(#p114c135044)" style="fill: #00bfff"/>
   </g>
   <g id="patch_24">
    <path d="M 178.397565 128.528148 
L 186.88947 128.528148 
L 186.88947 127.121923 
L 178.397565 127.121923 
z
" clip-path="url(#p114c135044)" style="fill: #00bfff"/>
   </g>
   <g id="patch_25">
    <path d="M 186.88947 128.528148 
L 195.381375 128.528148 
L 195.381375 126.519256 
L 186.88947 126.519256 
z
" clip-path="url(#p114c135044)" style="fill: #00bfff"/>
   </g>
   <g id="patch_26">
    <path d="M 195.381375 128.528148 
L 203.873291 128.528148 
L 203.873291 125.715703 
L 195.381375 125.715703 
z
" clip-path="url(#p114c135044)" style="fill: #00bfff"/>
   </g>
   <g id="patch_27">
    <path d="M 203.873291 128.528148 
L 212.365195 128.528148 
L 212.365195 125.113032 
L 203.873291 125.113032 
z
" clip-path="url(#p114c135044)" style="fill: #00bfff"/>
   </g>
   <g id="patch_28">
    <path d="M 212.365195 128.528148 
L 220.857111 128.528148 
L 220.857111 124.711258 
L 212.365195 124.711258 
z
" clip-path="url(#p114c135044)" style="fill: #00bfff"/>
   </g>
   <g id="patch_29">
    <path d="M 220.857111 128.528148 
L 229.349016 128.528148 
L 229.349016 123.305029 
L 220.857111 123.305029 
z
" clip-path="url(#p114c135044)" style="fill: #00bfff"/>
   </g>
   <g id="patch_30">
    <path d="M 229.349016 128.528148 
L 237.840931 128.528148 
L 237.840931 120.69348 
L 229.349016 120.69348 
z
" clip-path="url(#p114c135044)" style="fill: #00bfff"/>
   </g>
   <g id="patch_31">
    <path d="M 237.840931 128.528148 
L 246.332847 128.528148 
L 246.332847 120.291702 
L 237.840931 120.291702 
z
" clip-path="url(#p114c135044)" style="fill: #00bfff"/>
   </g>
   <g id="patch_32">
    <path d="M 246.332847 128.528148 
L 254.824741 128.528148 
L 254.824741 118.081898 
L 246.332847 118.081898 
z
" clip-path="url(#p114c135044)" style="fill: #00bfff"/>
   </g>
   <g id="patch_33">
    <path d="M 254.824741 128.528148 
L 263.316656 128.528148 
L 263.316656 116.273924 
L 254.824741 116.273924 
z
" clip-path="url(#p114c135044)" style="fill: #00bfff"/>
   </g>
   <g id="patch_34">
    <path d="M 263.316656 128.528148 
L 271.808572 128.528148 
L 271.808572 116.073035 
L 263.316656 116.073035 
z
" clip-path="url(#p114c135044)" style="fill: #00bfff"/>
   </g>
   <g id="patch_35">
    <path d="M 271.808572 128.528148 
L 280.300466 128.528148 
L 280.300466 112.456994 
L 271.808572 112.456994 
z
" clip-path="url(#p114c135044)" style="fill: #00bfff"/>
   </g>
   <g id="patch_36">
    <path d="M 280.300466 128.528148 
L 288.792381 128.528148 
L 288.792381 106.430367 
L 280.300466 106.430367 
z
" clip-path="url(#p114c135044)" style="fill: #00bfff"/>
   </g>
   <g id="patch_37">
    <path d="M 288.792381 128.528148 
L 297.284297 128.528148 
L 297.284297 107.033034 
L 288.792381 107.033034 
z
" clip-path="url(#p114c135044)" style="fill: #00bfff"/>
   </g>
   <g id="patch_38">
    <path d="M 297.284297 128.528148 
L 305.776212 128.528148 
L 305.776212 101.609033 
L 297.284297 101.609033 
z
" clip-path="url(#p114c135044)" style="fill: #00bfff"/>
   </g>
   <g id="patch_39">
    <path d="M 305.776212 128.528148 
L 314.268107 128.528148 
L 314.268107 96.184951 
L 305.776212 96.184951 
z
" clip-path="url(#p114c135044)" style="fill: #00bfff"/>
   </g>
   <g id="patch_40">
    <path d="M 314.268107 128.528148 
L 322.760022 128.528148 
L 322.760022 93.372587 
L 314.268107 93.372587 
z
" clip-path="url(#p114c135044)" style="fill: #00bfff"/>
   </g>
   <g id="patch_41">
    <path d="M 322.760022 128.528148 
L 331.251937 128.528148 
L 331.251937 92.970809 
L 322.760022 92.970809 
z
" clip-path="url(#p114c135044)" style="fill: #00bfff"/>
   </g>
   <g id="patch_42">
    <path d="M 331.251937 128.528148 
L 339.743832 128.528148 
L 339.743832 90.359158 
L 331.251937 90.359158 
z
" clip-path="url(#p114c135044)" style="fill: #00bfff"/>
   </g>
   <g id="patch_43">
    <path d="M 339.743832 128.528148 
L 348.235747 128.528148 
L 348.235747 83.52903 
L 339.743832 83.52903 
z
" clip-path="url(#p114c135044)" style="fill: #00bfff"/>
   </g>
   <g id="patch_44">
    <path d="M 348.235747 128.528148 
L 356.727663 128.528148 
L 356.727663 81.319252 
L 348.235747 81.319252 
z
" clip-path="url(#p114c135044)" style="fill: #00bfff"/>
   </g>
   <g id="patch_45">
    <path d="M 356.727663 128.528148 
L 365.219578 128.528148 
L 365.219578 73.283696 
L 356.727663 73.283696 
z
" clip-path="url(#p114c135044)" style="fill: #00bfff"/>
   </g>
   <g id="patch_46">
    <path d="M 365.219578 128.528148 
L 373.711472 128.528148 
L 373.711472 66.654206 
L 365.219578 66.654206 
z
" clip-path="url(#p114c135044)" style="fill: #00bfff"/>
   </g>
   <g id="patch_47">
    <path d="M 373.711472 128.528148 
L 382.203388 128.528148 
L 382.203388 71.073917 
L 373.711472 71.073917 
z
" clip-path="url(#p114c135044)" style="fill: #00bfff"/>
   </g>
   <g id="patch_48">
    <path d="M 382.203388 128.528148 
L 390.695303 128.528148 
L 390.695303 62.033916 
L 382.203388 62.033916 
z
" clip-path="url(#p114c135044)" style="fill: #00bfff"/>
   </g>
   <g id="patch_49">
    <path d="M 390.695303 128.528148 
L 399.187197 128.528148 
L 399.187197 67.055985 
L 390.695303 67.055985 
z
" clip-path="url(#p114c135044)" style="fill: #00bfff"/>
   </g>
   <g id="patch_50">
    <path d="M 399.187197 128.528148 
L 407.679113 128.528148 
L 407.679113 60.225916 
L 399.187197 60.225916 
z
" clip-path="url(#p114c135044)" style="fill: #00bfff"/>
   </g>
   <g id="patch_51">
    <path d="M 407.679113 128.528148 
L 416.171007 128.528148 
L 416.171007 56.609735 
L 407.679113 56.609735 
z
" clip-path="url(#p114c135044)" style="fill: #00bfff"/>
   </g>
   <g id="patch_52">
    <path d="M 416.171007 128.528148 
L 424.662944 128.528148 
L 424.662944 49.177225 
L 416.171007 49.177225 
z
" clip-path="url(#p114c135044)" style="fill: #00bfff"/>
   </g>
   <g id="patch_53">
    <path d="M 424.662944 128.528148 
L 433.154838 128.528148 
L 433.154838 59.020408 
L 424.662944 59.020408 
z
" clip-path="url(#p114c135044)" style="fill: #00bfff"/>
   </g>
   <g id="patch_54">
    <path d="M 433.154838 128.528148 
L 441.646775 128.528148 
L 441.646775 54.400324 
L 433.154838 54.400324 
z
" clip-path="url(#p114c135044)" style="fill: #00bfff"/>
   </g>
   <g id="patch_55">
    <path d="M 441.646775 128.528148 
L 450.138669 128.528148 
L 450.138669 58.819518 
L 441.646775 58.819518 
z
" clip-path="url(#p114c135044)" style="fill: #00bfff"/>
   </g>
   <g id="patch_56">
    <path d="M 450.138669 128.528148 
L 458.630563 128.528148 
L 458.630563 52.391057 
L 450.138669 52.391057 
z
" clip-path="url(#p114c135044)" style="fill: #00bfff"/>
   </g>
   <g id="patch_57">
    <path d="M 458.630563 128.528148 
L 467.1225 128.528148 
L 467.1225 50.985221 
L 458.630563 50.985221 
z
" clip-path="url(#p114c135044)" style="fill: #00bfff"/>
   </g>
   <g id="patch_58">
    <path d="M 467.1225 128.528148 
L 475.614394 128.528148 
L 475.614394 52.391057 
L 467.1225 52.391057 
z
" clip-path="url(#p114c135044)" style="fill: #00bfff"/>
   </g>
   <g id="patch_59">
    <path d="M 475.614394 128.528148 
L 484.106288 128.528148 
L 484.106288 59.823966 
L 475.614394 59.823966 
z
" clip-path="url(#p114c135044)" style="fill: #00bfff"/>
   </g>
   <g id="patch_60">
    <path d="M 484.106288 128.528148 
L 492.598225 128.528148 
L 492.598225 67.257182 
L 484.106288 67.257182 
z
" clip-path="url(#p114c135044)" style="fill: #00bfff"/>
   </g>
   <g id="patch_61">
    <path d="M 492.598225 128.528148 
L 501.090119 128.528148 
L 501.090119 67.859542 
L 492.598225 67.859542 
z
" clip-path="url(#p114c135044)" style="fill: #00bfff"/>
   </g>
   <g id="patch_62">
    <path d="M 501.090119 128.528148 
L 509.582013 128.528148 
L 509.582013 73.082667 
L 501.090119 73.082667 
z
" clip-path="url(#p114c135044)" style="fill: #00bfff"/>
   </g>
   <g id="patch_63">
    <path d="M 509.582013 128.528148 
L 518.07395 128.528148 
L 518.07395 73.685611 
L 509.582013 73.685611 
z
" clip-path="url(#p114c135044)" style="fill: #00bfff"/>
   </g>
   <g id="patch_64">
    <path d="M 518.07395 128.528148 
L 526.565844 128.528148 
L 526.565844 82.72536 
L 518.07395 82.72536 
z
" clip-path="url(#p114c135044)" style="fill: #00bfff"/>
   </g>
   <g id="patch_65">
    <path d="M 526.565844 128.528148 
L 535.057738 128.528148 
L 535.057738 89.35471 
L 526.565844 89.35471 
z
" clip-path="url(#p114c135044)" style="fill: #00bfff"/>
   </g>
   <g id="patch_66">
    <path d="M 535.057738 128.528148 
L 543.549675 128.528148 
L 543.549675 87.7478 
L 535.057738 87.7478 
z
" clip-path="url(#p114c135044)" style="fill: #00bfff"/>
   </g>
   <g id="patch_67">
    <path d="M 543.549675 128.528148 
L 552.041569 128.528148 
L 552.041569 93.573388 
L 543.549675 93.573388 
z
" clip-path="url(#p114c135044)" style="fill: #00bfff"/>
   </g>
   <g id="patch_68">
    <path d="M 552.041569 128.528148 
L 560.533506 128.528148 
L 560.533506 96.988667 
L 552.041569 96.988667 
z
" clip-path="url(#p114c135044)" style="fill: #00bfff"/>
   </g>
   <g id="patch_69">
    <path d="M 560.533506 128.528148 
L 569.0254 128.528148 
L 569.0254 100.403629 
L 560.533506 100.403629 
z
" clip-path="url(#p114c135044)" style="fill: #00bfff"/>
   </g>
   <g id="patch_70">
    <path d="M 569.0254 128.528148 
L 577.517295 128.528148 
L 577.517295 106.631201 
L 569.0254 106.631201 
z
" clip-path="url(#p114c135044)" style="fill: #00bfff"/>
   </g>
   <g id="patch_71">
    <path d="M 577.517295 128.528148 
L 586.009231 128.528148 
L 586.009231 109.845525 
L 577.517295 109.845525 
z
" clip-path="url(#p114c135044)" style="fill: #00bfff"/>
   </g>
   <g id="patch_72">
    <path d="M 586.009231 128.528148 
L 594.501125 128.528148 
L 594.501125 111.653436 
L 586.009231 111.653436 
z
" clip-path="url(#p114c135044)" style="fill: #00bfff"/>
   </g>
   <g id="patch_73">
    <path d="M 594.501125 128.528148 
L 602.99302 128.528148 
L 602.99302 115.269446 
L 594.501125 115.269446 
z
" clip-path="url(#p114c135044)" style="fill: #00bfff"/>
   </g>
   <g id="patch_74">
    <path d="M 602.99302 128.528148 
L 611.484956 128.528148 
L 611.484956 118.08195 
L 602.99302 118.08195 
z
" clip-path="url(#p114c135044)" style="fill: #00bfff"/>
   </g>
   <g id="patch_75">
    <path d="M 611.484956 128.528148 
L 619.976851 128.528148 
L 619.976851 117.479229 
L 611.484956 117.479229 
z
" clip-path="url(#p114c135044)" style="fill: #00bfff"/>
   </g>
   <g id="patch_76">
    <path d="M 619.976851 128.528148 
L 628.468745 128.528148 
L 628.468745 121.697907 
L 619.976851 121.697907 
z
" clip-path="url(#p114c135044)" style="fill: #00bfff"/>
   </g>
   <g id="patch_77">
    <path d="M 628.468745 128.528148 
L 636.960682 128.528148 
L 636.960682 121.89883 
L 628.468745 121.89883 
z
" clip-path="url(#p114c135044)" style="fill: #00bfff"/>
   </g>
   <g id="patch_78">
    <path d="M 636.960682 128.528148 
L 645.452576 128.528148 
L 645.452576 122.300576 
L 636.960682 122.300576 
z
" clip-path="url(#p114c135044)" style="fill: #00bfff"/>
   </g>
   <g id="patch_79">
    <path d="M 645.452576 128.528148 
L 653.944513 128.528148 
L 653.944513 123.505937 
L 645.452576 123.505937 
z
" clip-path="url(#p114c135044)" style="fill: #00bfff"/>
   </g>
   <g id="patch_80">
    <path d="M 653.944513 128.528148 
L 662.436407 128.528148 
L 662.436407 125.715696 
L 653.944513 125.715696 
z
" clip-path="url(#p114c135044)" style="fill: #00bfff"/>
   </g>
   <g id="patch_81">
    <path d="M 662.436407 128.528148 
L 670.928301 128.528148 
L 670.928301 125.715696 
L 662.436407 125.715696 
z
" clip-path="url(#p114c135044)" style="fill: #00bfff"/>
   </g>
   <g id="patch_82">
    <path d="M 670.928301 128.528148 
L 679.420238 128.528148 
L 679.420238 127.523706 
L 670.928301 127.523706 
z
" clip-path="url(#p114c135044)" style="fill: #00bfff"/>
   </g>
   <g id="patch_83">
    <path d="M 679.420238 128.528148 
L 687.912132 128.528148 
L 687.912132 127.925479 
L 679.420238 127.925479 
z
" clip-path="url(#p114c135044)" style="fill: #00bfff"/>
   </g>
   <g id="patch_84">
    <path d="M 687.912132 128.528148 
L 696.404026 128.528148 
L 696.404026 127.322811 
L 687.912132 127.322811 
z
" clip-path="url(#p114c135044)" style="fill: #00bfff"/>
   </g>
   <g id="patch_85">
    <path d="M 696.404026 128.528148 
L 704.895963 128.528148 
L 704.895963 127.523706 
L 696.404026 127.523706 
z
" clip-path="url(#p114c135044)" style="fill: #00bfff"/>
   </g>
   <g id="patch_86">
    <path d="M 704.895963 128.528148 
L 713.387857 128.528148 
L 713.387857 127.925479 
L 704.895963 127.925479 
z
" clip-path="url(#p114c135044)" style="fill: #00bfff"/>
   </g>
   <g id="patch_87">
    <path d="M 713.387857 128.528148 
L 721.879751 128.528148 
L 721.879751 127.72459 
L 713.387857 127.72459 
z
" clip-path="url(#p114c135044)" style="fill: #00bfff"/>
   </g>
   <g id="patch_88">
    <path d="M 721.879751 128.528148 
L 730.371688 128.528148 
L 730.371688 128.126371 
L 721.879751 128.126371 
z
" clip-path="url(#p114c135044)" style="fill: #00bfff"/>
   </g>
   <g id="patch_89">
    <path d="M 730.371688 128.528148 
L 738.863582 128.528148 
L 738.863582 128.126369 
L 730.371688 128.126369 
z
" clip-path="url(#p114c135044)" style="fill: #00bfff"/>
   </g>
   <g id="patch_90">
    <path d="M 738.863582 128.528148 
L 747.355476 128.528148 
L 747.355476 128.528148 
L 738.863582 128.528148 
z
" clip-path="url(#p114c135044)" style="fill: #00bfff"/>
   </g>
   <g id="patch_91">
    <path d="M 747.355476 128.528148 
L 755.847413 128.528148 
L 755.847413 128.327259 
L 747.355476 128.327259 
z
" clip-path="url(#p114c135044)" style="fill: #00bfff"/>
   </g>
   <g id="line2d_16">
    <path d="M 7.2 128.527155 
L 15.866662 128.526588 
L 24.533324 128.52572 
L 33.199985 128.524403 
L 41.866647 128.522424 
L 50.533309 128.519482 
L 59.199971 128.515148 
L 67.866633 128.508826 
L 76.533295 128.499695 
L 85.199956 128.486635 
L 93.866618 128.468141 
L 102.53328 128.442206 
L 111.199942 128.4062 
L 119.866604 128.356704 
L 128.533265 128.289344 
L 137.199927 128.198589 
L 145.866589 128.077539 
L 154.533251 127.917712 
L 163.199913 127.708829 
L 171.866575 127.438617 
L 180.533236 127.09266 
L 189.199898 126.654305 
L 197.86656 126.104665 
L 206.533222 125.422728 
L 215.199884 124.585627 
L 223.866545 123.569067 
L 232.533207 122.347959 
L 241.199869 120.897248 
L 249.866531 119.192958 
L 258.533193 117.213423 
L 267.199855 114.94069 
L 275.866516 112.362025 
L 284.533178 109.471481 
L 293.19984 106.271414 
L 301.866502 102.773872 
L 310.533164 99.001737 
L 319.199825 94.989512 
L 327.866487 90.783659 
L 336.533149 86.442393 
L 345.199811 82.034877 
L 353.866473 77.639782 
L 362.533135 73.34324 
L 371.199796 69.236223 
L 379.866458 65.41146 
L 388.53312 61.960032 
L 397.199782 58.9678 
L 405.866444 56.511875 
L 414.533105 54.657322 
L 423.199767 53.454299 
L 431.866429 52.935801 
L 440.533091 53.11616 
L 449.199753 53.990383 
L 457.866415 55.534383 
L 466.533076 57.706085 
L 475.199738 60.447325 
L 483.8664 63.686441 
L 492.533062 67.341382 
L 501.199724 71.323151 
L 509.866385 75.539375 
L 518.533047 79.897824 
L 527.199709 84.30966 
L 535.866371 88.692304 
L 544.533033 92.971765 
L 553.199695 97.084382 
L 561.866356 100.977936 
L 570.533018 104.612137 
L 579.19968 107.958543 
L 587.866342 110.999977 
L 596.533004 113.729547 
L 605.199665 116.14936 
L 613.866327 118.269054 
L 622.532989 120.104246 
L 631.199651 121.674986 
L 639.866313 123.004294 
L 648.532975 124.116847 
L 657.199636 125.037833 
L 665.866298 125.792022 
L 674.53296 126.403041 
L 683.199622 126.892842 
L 691.866284 127.281365 
L 700.532945 127.586354 
L 709.199607 127.823302 
L 717.866269 128.005504 
L 726.532931 128.144183 
L 735.199593 128.248668 
L 743.866255 128.326598 
L 752.532916 128.384139 
L 761.199578 128.426202 
L 769.86624 128.456645 
L 778.532902 128.47846 
L 787.199564 128.493938 
L 795.866225 128.504812 
L 804.532887 128.512376 
L 813.199549 128.517587 
L 821.866211 128.521142 
L 830.532873 128.523542 
L 839.199535 128.525149 
L 847.866196 128.526213 
L 856.532858 128.526911 
L 865.19952 128.527364 
" clip-path="url(#p114c135044)" style="fill: none; stroke: #1f77b4; stroke-width: 1.5; stroke-linecap: square"/>
   </g>
   <g id="text_8">
    <g id="patch_92">
     <path d="M 65.785458 38.307963 
L 82.09327 38.307963 
Q 85.09327 38.307963 85.09327 35.307963 
L 85.09327 25.629838 
Q 85.09327 22.629838 82.09327 22.629838 
L 65.785458 22.629838 
Q 62.785458 22.629838 62.785458 25.629838 
L 62.785458 35.307963 
Q 62.785458 38.307963 65.785458 38.307963 
z
" style="fill: #ffffff"/>
    </g>
    <!-- -4σ -->
    <g transform="translate(65.785458 33.228276) scale(0.1 -0.1)">
     <use xlink:href="#DejaVuSans-2d"/>
     <use xlink:href="#DejaVuSans-34" transform="translate(36.083984 0)"/>
     <use xlink:href="#DejaVuSans-3c3" transform="translate(99.707031 0)"/>
    </g>
   </g>
   <g id="text_9">
    <g id="patch_93">
     <path d="M 155.79231 38.307963 
L 172.100123 38.307963 
Q 175.100123 38.307963 175.100123 35.307963 
L 175.100123 25.629838 
Q 175.100123 22.629838 172.100123 22.629838 
L 155.79231 22.629838 
Q 152.79231 22.629838 152.79231 25.629838 
L 152.79231 35.307963 
Q 152.79231 38.307963 155.79231 38.307963 
z
" style="fill: #ffffff"/>
    </g>
    <!-- -3σ -->
    <g transform="translate(155.79231 33.228276) scale(0.1 -0.1)">
     <use xlink:href="#DejaVuSans-2d"/>
     <use xlink:href="#DejaVuSans-33" transform="translate(36.083984 0)"/>
     <use xlink:href="#DejaVuSans-3c3" transform="translate(99.707031 0)"/>
    </g>
   </g>
   <g id="text_10">
    <g id="patch_94">
     <path d="M 245.799184 38.307963 
L 262.106997 38.307963 
Q 265.106997 38.307963 265.106997 35.307963 
L 265.106997 25.629838 
Q 265.106997 22.629838 262.106997 22.629838 
L 245.799184 22.629838 
Q 242.799184 22.629838 242.799184 25.629838 
L 242.799184 35.307963 
Q 242.799184 38.307963 245.799184 38.307963 
z
" style="fill: #ffffff"/>
    </g>
    <!-- -2σ -->
    <g transform="translate(245.799184 33.228276) scale(0.1 -0.1)">
     <use xlink:href="#DejaVuSans-2d"/>
     <use xlink:href="#DejaVuSans-32" transform="translate(36.083984 0)"/>
     <use xlink:href="#DejaVuSans-3c3" transform="translate(99.707031 0)"/>
    </g>
   </g>
   <g id="text_11">
    <g id="patch_95">
     <path d="M 338.987298 38.307963 
L 348.93261 38.307963 
Q 351.93261 38.307963 351.93261 35.307963 
L 351.93261 25.629838 
Q 351.93261 22.629838 348.93261 22.629838 
L 338.987298 22.629838 
Q 335.987298 22.629838 335.987298 25.629838 
L 335.987298 35.307963 
Q 335.987298 38.307963 338.987298 38.307963 
z
" style="fill: #ffffff"/>
    </g>
    <!-- -σ -->
    <g transform="translate(338.987298 33.228276) scale(0.1 -0.1)">
     <use xlink:href="#DejaVuSans-2d"/>
     <use xlink:href="#DejaVuSans-3c3" transform="translate(36.083984 0)"/>
    </g>
   </g>
   <g id="text_12">
    <g id="patch_96">
     <path d="M 430.287911 38.307963 
L 437.645723 38.307963 
Q 440.645723 38.307963 440.645723 35.307963 
L 440.645723 25.629838 
Q 440.645723 22.629838 437.645723 22.629838 
L 430.287911 22.629838 
Q 427.287911 22.629838 427.287911 25.629838 
L 427.287911 35.307963 
Q 427.287911 38.307963 430.287911 38.307963 
z
" style="fill: #ffffff"/>
    </g>
    <!-- μ -->
    <g transform="translate(430.287911 33.217338) scale(0.1 -0.1)">
     <defs>
      <path id="DejaVuSans-Bold-3bc" d="M 544 -1338 
L 544 3500 
L 1672 3500 
L 1672 1466 
Q 1672 1103 1828 926 
Q 1984 750 2303 750 
Q 2625 750 2781 926 
Q 2938 1103 2938 1466 
L 2938 3500 
L 4063 3500 
L 4063 1159 
Q 4063 938 4114 850 
Q 4166 763 4288 763 
Q 4344 763 4395 778 
Q 4447 794 4506 831 
L 4506 50 
Q 4341 -22 4195 -56 
Q 4050 -91 3909 -91 
Q 3631 -91 3454 26 
Q 3278 144 3169 403 
Q 3022 156 2811 32 
Q 2600 -91 2322 -91 
Q 2091 -91 1928 -17 
Q 1766 56 1672 206 
L 1672 -1338 
L 544 -1338 
z
" transform="scale(0.015625)"/>
     </defs>
     <use xlink:href="#DejaVuSans-Bold-3bc"/>
    </g>
   </g>
   <g id="text_13">
    <g id="patch_97">
     <path d="M 516.615076 38.307963 
L 531.332264 38.307963 
Q 534.332264 38.307963 534.332264 35.307963 
L 534.332264 25.629838 
Q 534.332264 22.629838 531.332264 22.629838 
L 516.615076 22.629838 
Q 513.615076 22.629838 513.615076 25.629838 
L 513.615076 35.307963 
Q 513.615076 38.307963 516.615076 38.307963 
z
" style="fill: #ffffff"/>
    </g>
    <!-- +σ -->
    <g transform="translate(516.615076 33.228276) scale(0.1 -0.1)">
     <defs>
      <path id="DejaVuSans-2b" d="M 2944 4013 
L 2944 2272 
L 4684 2272 
L 4684 1741 
L 2944 1741 
L 2944 0 
L 2419 0 
L 2419 1741 
L 678 1741 
L 678 2272 
L 2419 2272 
L 2419 4013 
L 2944 4013 
z
" transform="scale(0.015625)"/>
     </defs>
     <use xlink:href="#DejaVuSans-2b"/>
     <use xlink:href="#DejaVuSans-3c3" transform="translate(83.789062 0)"/>
    </g>
   </g>
   <g id="text_14">
    <g id="patch_98">
     <path d="M 603.440679 38.307963 
L 624.520366 38.307963 
Q 627.520366 38.307963 627.520366 35.307963 
L 627.520366 25.629838 
Q 627.520366 22.629838 624.520366 22.629838 
L 603.440679 22.629838 
Q 600.440679 22.629838 600.440679 25.629838 
L 600.440679 35.307963 
Q 600.440679 38.307963 603.440679 38.307963 
z
" style="fill: #ffffff"/>
    </g>
    <!-- +2σ -->
    <g transform="translate(603.440679 33.228276) scale(0.1 -0.1)">
     <use xlink:href="#DejaVuSans-2b"/>
     <use xlink:href="#DejaVuSans-32" transform="translate(83.789062 0)"/>
     <use xlink:href="#DejaVuSans-3c3" transform="translate(147.412109 0)"/>
    </g>
   </g>
   <g id="text_15">
    <g id="patch_99">
     <path d="M 693.447574 38.307963 
L 714.527262 38.307963 
Q 717.527262 38.307963 717.527262 35.307963 
L 717.527262 25.629838 
Q 717.527262 22.629838 714.527262 22.629838 
L 693.447574 22.629838 
Q 690.447574 22.629838 690.447574 25.629838 
L 690.447574 35.307963 
Q 690.447574 38.307963 693.447574 38.307963 
z
" style="fill: #ffffff"/>
    </g>
    <!-- +3σ -->
    <g transform="translate(693.447574 33.228276) scale(0.1 -0.1)">
     <use xlink:href="#DejaVuSans-2b"/>
     <use xlink:href="#DejaVuSans-33" transform="translate(83.789062 0)"/>
     <use xlink:href="#DejaVuSans-3c3" transform="translate(147.412109 0)"/>
    </g>
   </g>
   <g id="text_16">
    <g id="patch_100">
     <path d="M 783.454427 38.307963 
L 804.534114 38.307963 
Q 807.534114 38.307963 807.534114 35.307963 
L 807.534114 25.629838 
Q 807.534114 22.629838 804.534114 22.629838 
L 783.454427 22.629838 
Q 780.454427 22.629838 780.454427 25.629838 
L 780.454427 35.307963 
Q 780.454427 38.307963 783.454427 38.307963 
z
" style="fill: #ffffff"/>
    </g>
    <!-- +4σ -->
    <g transform="translate(783.454427 33.228276) scale(0.1 -0.1)">
     <use xlink:href="#DejaVuSans-2b"/>
     <use xlink:href="#DejaVuSans-34" transform="translate(83.789062 0)"/>
     <use xlink:href="#DejaVuSans-3c3" transform="translate(147.412109 0)"/>
    </g>
   </g>
  </g>
 </g>
 <defs>
  <clipPath id="p114c135044">
   <rect x="7.2" y="20.214138" width="857.99952" height="108.31401"/>
  </clipPath>
 </defs>
</svg>
