<?xml version="1.0" encoding="utf-8" standalone="no"?>
<!DOCTYPE svg PUBLIC "-//W3C//DTD SVG 1.1//EN"
  "http://www.w3.org/Graphics/SVG/1.1/DTD/svg11.dtd">
<svg xmlns:xlink="http://www.w3.org/1999/xlink" width="478.2375pt" height="145.104562pt" viewBox="0 0 478.2375 145.104562" xmlns="http://www.w3.org/2000/svg" version="1.1">
 <metadata>
  <rdf:RDF xmlns:dc="http://purl.org/dc/elements/1.1/" xmlns:cc="http://creativecommons.org/ns#" xmlns:rdf="http://www.w3.org/1999/02/22-rdf-syntax-ns#">
   <cc:Work>
    <dc:type rdf:resource="http://purl.org/dc/dcmitype/StillImage"/>
    <dc:format>image/svg+xml</dc:format>
    <dc:creator>
     <cc:Agent>
      <dc:title>Matplotlib, https://matplotlib.org/</dc:title>
     </cc:Agent>
    </dc:creator>
   </cc:Work>
  </rdf:RDF>
 </metadata>
 <defs>
  <style type="text/css">*{stroke-linejoin: round; stroke-linecap: butt}</style>
 </defs>
 <g id="figure_1">
  <g id="patch_1">
   <path d="M 0 145.104562 
L 478.2375 145.104562 
L 478.2375 0 
L 0 0 
z
" style="fill: #ffffff"/>
  </g>
  <g id="axes_1">
   <g id="patch_2">
    <path d="M 10.7 121.226437 
L 390.205 121.226437 
L 390.205 19.866437 
L 10.7 19.866437 
z
" style="fill: #ffffff"/>
   </g>
   <g id="matplotlib.axis_1">
    <g id="xtick_1">
     <g id="line2d_1">
      <defs>
       <path id="m8f1de1206a" d="M 0 0 
L 0 3.5 
" style="stroke: #000000; stroke-width: 0.8"/>
      </defs>
      <g>
       <use xlink:href="#m8f1de1206a" x="56.94083" y="121.226437" style="stroke: #000000; stroke-width: 0.8"/>
      </g>
     </g>
     <g id="text_1">
      <!-- −6 -->
      <g transform="translate(49.569736 135.824875) scale(0.1 -0.1)">
       <defs>
        <path id="DejaVuSans-2212" d="M 678 2272 
L 4684 2272 
L 4684 1741 
L 678 1741 
L 678 2272 
z
" transform="scale(0.015625)"/>
        <path id="DejaVuSans-36" d="M 2113 2584 
Q 1688 2584 1439 2293 
Q 1191 2003 1191 1497 
Q 1191 994 1439 701 
Q 1688 409 2113 409 
Q 2538 409 2786 701 
Q 3034 994 3034 1497 
Q 3034 2003 2786 2293 
Q 2538 2584 2113 2584 
z
M 3366 4563 
L 3366 3988 
Q 3128 4100 2886 4159 
Q 2644 4219 2406 4219 
Q 1781 4219 1451 3797 
Q 1122 3375 1075 2522 
Q 1259 2794 1537 2939 
Q 1816 3084 2150 3084 
Q 2853 3084 3261 2657 
Q 3669 2231 3669 1497 
Q 3669 778 3244 343 
Q 2819 -91 2113 -91 
Q 1303 -91 875 529 
Q 447 1150 447 2328 
Q 447 3434 972 4092 
Q 1497 4750 2381 4750 
Q 2619 4750 2861 4703 
Q 3103 4656 3366 4563 
z
" transform="scale(0.015625)"/>
       </defs>
       <use xlink:href="#DejaVuSans-2212"/>
       <use xlink:href="#DejaVuSans-36" x="83.789062"/>
      </g>
     </g>
    </g>
    <g id="xtick_2">
     <g id="line2d_2">
      <g>
       <use xlink:href="#m8f1de1206a" x="104.753735" y="121.226437" style="stroke: #000000; stroke-width: 0.8"/>
      </g>
     </g>
     <g id="text_2">
      <!-- −4 -->
      <g transform="translate(97.382642 135.824875) scale(0.1 -0.1)">
       <defs>
        <path id="DejaVuSans-34" d="M 2419 4116 
L 825 1625 
L 2419 1625 
L 2419 4116 
z
M 2253 4666 
L 3047 4666 
L 3047 1625 
L 3713 1625 
L 3713 1100 
L 3047 1100 
L 3047 0 
L 2419 0 
L 2419 1100 
L 313 1100 
L 313 1709 
L 2253 4666 
z
" transform="scale(0.015625)"/>
       </defs>
       <use xlink:href="#DejaVuSans-2212"/>
       <use xlink:href="#DejaVuSans-34" x="83.789062"/>
      </g>
     </g>
    </g>
    <g id="xtick_3">
     <g id="line2d_3">
      <g>
       <use xlink:href="#m8f1de1206a" x="152.566641" y="121.226437" style="stroke: #000000; stroke-width: 0.8"/>
      </g>
     </g>
     <g id="text_3">
      <!-- −2 -->
      <g transform="translate(145.195547 135.824875) scale(0.1 -0.1)">
       <defs>
        <path id="DejaVuSans-32" d="M 1228 531 
L 3431 531 
L 3431 0 
L 469 0 
L 469 531 
Q 828 903 1448 1529 
Q 2069 2156 2228 2338 
Q 2531 2678 2651 2914 
Q 2772 3150 2772 3378 
Q 2772 3750 2511 3984 
Q 2250 4219 1831 4219 
Q 1534 4219 1204 4116 
Q 875 4013 500 3803 
L 500 4441 
Q 881 4594 1212 4672 
Q 1544 4750 1819 4750 
Q 2544 4750 2975 4387 
Q 3406 4025 3406 3419 
Q 3406 3131 3298 2873 
Q 3191 2616 2906 2266 
Q 2828 2175 2409 1742 
Q 1991 1309 1228 531 
z
" transform="scale(0.015625)"/>
       </defs>
       <use xlink:href="#DejaVuSans-2212"/>
       <use xlink:href="#DejaVuSans-32" x="83.789062"/>
      </g>
     </g>
    </g>
    <g id="xtick_4">
     <g id="line2d_4">
      <g>
       <use xlink:href="#m8f1de1206a" x="200.379546" y="121.226437" style="stroke: #000000; stroke-width: 0.8"/>
      </g>
     </g>
     <g id="text_4">
      <!-- 0 -->
      <g transform="translate(197.198296 135.824875) scale(0.1 -0.1)">
       <defs>
        <path id="DejaVuSans-30" d="M 2034 4250 
Q 1547 4250 1301 3770 
Q 1056 3291 1056 2328 
Q 1056 1369 1301 889 
Q 1547 409 2034 409 
Q 2525 409 2770 889 
Q 3016 1369 3016 2328 
Q 3016 3291 2770 3770 
Q 2525 4250 2034 4250 
z
M 2034 4750 
Q 2819 4750 3233 4129 
Q 3647 3509 3647 2328 
Q 3647 1150 3233 529 
Q 2819 -91 2034 -91 
Q 1250 -91 836 529 
Q 422 1150 422 2328 
Q 422 3509 836 4129 
Q 1250 4750 2034 4750 
z
" transform="scale(0.015625)"/>
       </defs>
       <use xlink:href="#DejaVuSans-30"/>
      </g>
     </g>
    </g>
    <g id="xtick_5">
     <g id="line2d_5">
      <g>
       <use xlink:href="#m8f1de1206a" x="248.192452" y="121.226437" style="stroke: #000000; stroke-width: 0.8"/>
      </g>
     </g>
     <g id="text_5">
      <!-- 2 -->
      <g transform="translate(245.011202 135.824875) scale(0.1 -0.1)">
       <use xlink:href="#DejaVuSans-32"/>
      </g>
     </g>
    </g>
    <g id="xtick_6">
     <g id="line2d_6">
      <g>
       <use xlink:href="#m8f1de1206a" x="296.005357" y="121.226437" style="stroke: #000000; stroke-width: 0.8"/>
      </g>
     </g>
     <g id="text_6">
      <!-- 4 -->
      <g transform="translate(292.824107 135.824875) scale(0.1 -0.1)">
       <use xlink:href="#DejaVuSans-34"/>
      </g>
     </g>
    </g>
    <g id="xtick_7">
     <g id="line2d_7">
      <g>
       <use xlink:href="#m8f1de1206a" x="343.818263" y="121.226437" style="stroke: #000000; stroke-width: 0.8"/>
      </g>
     </g>
     <g id="text_7">
      <!-- 6 -->
      <g transform="translate(340.637013 135.824875) scale(0.1 -0.1)">
       <use xlink:href="#DejaVuSans-36"/>
      </g>
     </g>
    </g>
   </g>
   <g id="matplotlib.axis_2"/>
   <g id="line2d_8">
    <path d="M 175.785465 121.226437 
L 175.785465 19.866437 
" clip-path="url(#pc31649a5e6)" style="fill: none; stroke: #000000; stroke-width: 1.5; stroke-linecap: square"/>
   </g>
   <g id="line2d_9">
    <path d="M 199.840969 121.226437 
L 199.840969 19.866437 
" clip-path="url(#pc31649a5e6)" style="fill: none; stroke: #000000; stroke-width: 1.5; stroke-linecap: square"/>
   </g>
   <g id="line2d_10">
    <path d="M 223.896473 121.226437 
L 223.896473 19.866437 
" clip-path="url(#pc31649a5e6)" style="fill: none; stroke: #000000; stroke-width: 1.5; stroke-linecap: square"/>
   </g>
   <g id="line2d_11">
    <path d="M 247.951977 121.226437 
L 247.951977 19.866437 
" clip-path="url(#pc31649a5e6)" style="fill: none; stroke: #000000; stroke-width: 1.5; stroke-linecap: square"/>
   </g>
   <g id="line2d_12">
    <path d="M 272.007481 121.226437 
L 272.007481 19.866437 
" clip-path="url(#pc31649a5e6)" style="fill: none; stroke: #000000; stroke-width: 1.5; stroke-linecap: square"/>
   </g>
   <g id="line2d_13">
    <path d="M 296.062985 121.226437 
L 296.062985 19.866437 
" clip-path="url(#pc31649a5e6)" style="fill: none; stroke: #000000; stroke-width: 1.5; stroke-linecap: square"/>
   </g>
   <g id="line2d_14">
    <path d="M 320.118488 121.226437 
L 320.118488 19.866437 
" clip-path="url(#pc31649a5e6)" style="fill: none; stroke: #000000; stroke-width: 1.5; stroke-linecap: square"/>
   </g>
   <g id="line2d_15">
    <path d="M 344.173992 121.226437 
L 344.173992 19.866437 
" clip-path="url(#pc31649a5e6)" style="fill: none; stroke: #000000; stroke-width: 1.5; stroke-linecap: square"/>
   </g>
   <g id="line2d_16">
    <path d="M 368.229496 121.226437 
L 368.229496 19.866437 
" clip-path="url(#pc31649a5e6)" style="fill: none; stroke: #000000; stroke-width: 1.5; stroke-linecap: square"/>
   </g>
   <g id="line2d_17">
    <path d="M 162.356644 121.226437 
L 162.356644 19.866437 
" clip-path="url(#pc31649a5e6)" style="fill: none; stroke: #ff0000; stroke-width: 1.5; stroke-linecap: square"/>
   </g>
   <g id="line2d_18">
    <path d="M 382.763725 121.226437 
L 382.763725 19.866437 
" clip-path="url(#pc31649a5e6)" style="fill: none; stroke: #ff0000; stroke-width: 1.5; stroke-linecap: square"/>
   </g>
   <g id="patch_3">
    <path d="M 10.7 121.226437 
L 10.7 19.866437 
" style="fill: none; stroke: #000000; stroke-width: 0.8; stroke-linejoin: miter; stroke-linecap: square"/>
   </g>
   <g id="patch_4">
    <path d="M 390.205 121.226437 
L 390.205 19.866437 
" style="fill: none; stroke: #000000; stroke-width: 0.8; stroke-linejoin: miter; stroke-linecap: square"/>
   </g>
   <g id="patch_5">
    <path d="M 10.7 121.226437 
L 390.205 121.226437 
" style="fill: none; stroke: #000000; stroke-width: 0.8; stroke-linejoin: miter; stroke-linecap: square"/>
   </g>
   <g id="patch_6">
    <path d="M 10.7 19.866437 
L 390.205 19.866437 
" style="fill: none; stroke: #000000; stroke-width: 0.8; stroke-linejoin: miter; stroke-linecap: square"/>
   </g>
   <g id="text_8">
    <g id="patch_7">
     <path d="M 161.356644 100.282375 
L 161.356644 40.8105 
Q 161.356644 40.8105 161.356644 40.8105 
L 151.678519 40.8105 
Q 151.678519 40.8105 151.678519 40.8105 
L 151.678519 100.282375 
Q 151.678519 100.282375 151.678519 100.282375 
L 161.356644 100.282375 
Q 161.356644 100.282375 161.356644 100.282375 
z
" style="fill: #ffffff"/>
    </g>
    <!-- min=-1.590 -->
    <g transform="translate(159.276956 100.282375) rotate(-90) scale(0.1 -0.1)">
     <defs>
      <path id="DejaVuSans-6d" d="M 3328 2828 
Q 3544 3216 3844 3400 
Q 4144 3584 4550 3584 
Q 5097 3584 5394 3201 
Q 5691 2819 5691 2113 
L 5691 0 
L 5113 0 
L 5113 2094 
Q 5113 2597 4934 2840 
Q 4756 3084 4391 3084 
Q 3944 3084 3684 2787 
Q 3425 2491 3425 1978 
L 3425 0 
L 2847 0 
L 2847 2094 
Q 2847 2600 2669 2842 
Q 2491 3084 2119 3084 
Q 1678 3084 1418 2786 
Q 1159 2488 1159 1978 
L 1159 0 
L 581 0 
L 581 3500 
L 1159 3500 
L 1159 2956 
Q 1356 3278 1631 3431 
Q 1906 3584 2284 3584 
Q 2666 3584 2933 3390 
Q 3200 3197 3328 2828 
z
" transform="scale(0.015625)"/>
      <path id="DejaVuSans-69" d="M 603 3500 
L 1178 3500 
L 1178 0 
L 603 0 
L 603 3500 
z
M 603 4863 
L 1178 4863 
L 1178 4134 
L 603 4134 
L 603 4863 
z
" transform="scale(0.015625)"/>
      <path id="DejaVuSans-6e" d="M 3513 2113 
L 3513 0 
L 2938 0 
L 2938 2094 
Q 2938 2591 2744 2837 
Q 2550 3084 2163 3084 
Q 1697 3084 1428 2787 
Q 1159 2491 1159 1978 
L 1159 0 
L 581 0 
L 581 3500 
L 1159 3500 
L 1159 2956 
Q 1366 3272 1645 3428 
Q 1925 3584 2291 3584 
Q 2894 3584 3203 3211 
Q 3513 2838 3513 2113 
z
" transform="scale(0.015625)"/>
      <path id="DejaVuSans-3d" d="M 678 2906 
L 4684 2906 
L 4684 2381 
L 678 2381 
L 678 2906 
z
M 678 1631 
L 4684 1631 
L 4684 1100 
L 678 1100 
L 678 1631 
z
" transform="scale(0.015625)"/>
      <path id="DejaVuSans-2d" d="M 313 2009 
L 1997 2009 
L 1997 1497 
L 313 1497 
L 313 2009 
z
" transform="scale(0.015625)"/>
      <path id="DejaVuSans-31" d="M 794 531 
L 1825 531 
L 1825 4091 
L 703 3866 
L 703 4441 
L 1819 4666 
L 2450 4666 
L 2450 531 
L 3481 531 
L 3481 0 
L 794 0 
L 794 531 
z
" transform="scale(0.015625)"/>
      <path id="DejaVuSans-2e" d="M 684 794 
L 1344 794 
L 1344 0 
L 684 0 
L 684 794 
z
" transform="scale(0.015625)"/>
      <path id="DejaVuSans-35" d="M 691 4666 
L 3169 4666 
L 3169 4134 
L 1269 4134 
L 1269 2991 
Q 1406 3038 1543 3061 
Q 1681 3084 1819 3084 
Q 2600 3084 3056 2656 
Q 3513 2228 3513 1497 
Q 3513 744 3044 326 
Q 2575 -91 1722 -91 
Q 1428 -91 1123 -41 
Q 819 9 494 109 
L 494 744 
Q 775 591 1075 516 
Q 1375 441 1709 441 
Q 2250 441 2565 725 
Q 2881 1009 2881 1497 
Q 2881 1984 2565 2268 
Q 2250 2553 1709 2553 
Q 1456 2553 1204 2497 
Q 953 2441 691 2322 
L 691 4666 
z
" transform="scale(0.015625)"/>
      <path id="DejaVuSans-39" d="M 703 97 
L 703 672 
Q 941 559 1184 500 
Q 1428 441 1663 441 
Q 2288 441 2617 861 
Q 2947 1281 2994 2138 
Q 2813 1869 2534 1725 
Q 2256 1581 1919 1581 
Q 1219 1581 811 2004 
Q 403 2428 403 3163 
Q 403 3881 828 4315 
Q 1253 4750 1959 4750 
Q 2769 4750 3195 4129 
Q 3622 3509 3622 2328 
Q 3622 1225 3098 567 
Q 2575 -91 1691 -91 
Q 1453 -91 1209 -44 
Q 966 3 703 97 
z
M 1959 2075 
Q 2384 2075 2632 2365 
Q 2881 2656 2881 3163 
Q 2881 3666 2632 3958 
Q 2384 4250 1959 4250 
Q 1534 4250 1286 3958 
Q 1038 3666 1038 3163 
Q 1038 2656 1286 2365 
Q 1534 2075 1959 2075 
z
" transform="scale(0.015625)"/>
     </defs>
     <use xlink:href="#DejaVuSans-6d"/>
     <use xlink:href="#DejaVuSans-69" x="97.412109"/>
     <use xlink:href="#DejaVuSans-6e" x="125.195312"/>
     <use xlink:href="#DejaVuSans-3d" x="188.574219"/>
     <use xlink:href="#DejaVuSans-2d" x="272.363281"/>
     <use xlink:href="#DejaVuSans-31" x="308.447266"/>
     <use xlink:href="#DejaVuSans-2e" x="372.070312"/>
     <use xlink:href="#DejaVuSans-35" x="403.857422"/>
     <use xlink:href="#DejaVuSans-39" x="467.480469"/>
     <use xlink:href="#DejaVuSans-30" x="531.103516"/>
    </g>
   </g>
   <g id="text_9">
    <g id="patch_8">
     <path d="M 394.44185 99.944094 
L 394.44185 41.148781 
Q 394.44185 41.148781 394.44185 41.148781 
L 384.763725 41.148781 
Q 384.763725 41.148781 384.763725 41.148781 
L 384.763725 99.944094 
Q 384.763725 99.944094 384.763725 99.944094 
L 394.44185 99.944094 
Q 394.44185 99.944094 394.44185 99.944094 
z
" style="fill: #ffffff"/>
    </g>
    <!-- max=7.629 -->
    <g transform="translate(392.362163 99.944094) rotate(-90) scale(0.1 -0.1)">
     <defs>
      <path id="DejaVuSans-61" d="M 2194 1759 
Q 1497 1759 1228 1600 
Q 959 1441 959 1056 
Q 959 750 1161 570 
Q 1363 391 1709 391 
Q 2188 391 2477 730 
Q 2766 1069 2766 1631 
L 2766 1759 
L 2194 1759 
z
M 3341 1997 
L 3341 0 
L 2766 0 
L 2766 531 
Q 2569 213 2275 61 
Q 1981 -91 1556 -91 
Q 1019 -91 701 211 
Q 384 513 384 1019 
Q 384 1609 779 1909 
Q 1175 2209 1959 2209 
L 2766 2209 
L 2766 2266 
Q 2766 2663 2505 2880 
Q 2244 3097 1772 3097 
Q 1472 3097 1187 3025 
Q 903 2953 641 2809 
L 641 3341 
Q 956 3463 1253 3523 
Q 1550 3584 1831 3584 
Q 2591 3584 2966 3190 
Q 3341 2797 3341 1997 
z
" transform="scale(0.015625)"/>
      <path id="DejaVuSans-78" d="M 3513 3500 
L 2247 1797 
L 3578 0 
L 2900 0 
L 1881 1375 
L 863 0 
L 184 0 
L 1544 1831 
L 300 3500 
L 978 3500 
L 1906 2253 
L 2834 3500 
L 3513 3500 
z
" transform="scale(0.015625)"/>
      <path id="DejaVuSans-37" d="M 525 4666 
L 3525 4666 
L 3525 4397 
L 1831 0 
L 1172 0 
L 2766 4134 
L 525 4134 
L 525 4666 
z
" transform="scale(0.015625)"/>
     </defs>
     <use xlink:href="#DejaVuSans-6d"/>
     <use xlink:href="#DejaVuSans-61" x="97.412109"/>
     <use xlink:href="#DejaVuSans-78" x="158.691406"/>
     <use xlink:href="#DejaVuSans-3d" x="217.871094"/>
     <use xlink:href="#DejaVuSans-37" x="301.660156"/>
     <use xlink:href="#DejaVuSans-2e" x="365.283203"/>
     <use xlink:href="#DejaVuSans-36" x="397.070312"/>
     <use xlink:href="#DejaVuSans-32" x="460.693359"/>
     <use xlink:href="#DejaVuSans-39" x="524.316406"/>
    </g>
   </g>
   <g id="text_10">
    <!-- 10000 samples (μ=2.996, σ=1.006) of tensor[100000] x∈[-1.590, 7.629] μ=3.002 σ=1.006 -->
    <g transform="translate(10.7 14.798437) scale(0.1 -0.1)">
     <defs>
      <path id="DejaVuSans-20" transform="scale(0.015625)"/>
      <path id="DejaVuSans-73" d="M 2834 3397 
L 2834 2853 
Q 2591 2978 2328 3040 
Q 2066 3103 1784 3103 
Q 1356 3103 1142 2972 
Q 928 2841 928 2578 
Q 928 2378 1081 2264 
Q 1234 2150 1697 2047 
L 1894 2003 
Q 2506 1872 2764 1633 
Q 3022 1394 3022 966 
Q 3022 478 2636 193 
Q 2250 -91 1575 -91 
Q 1294 -91 989 -36 
Q 684 19 347 128 
L 347 722 
Q 666 556 975 473 
Q 1284 391 1588 391 
Q 1994 391 2212 530 
Q 2431 669 2431 922 
Q 2431 1156 2273 1281 
Q 2116 1406 1581 1522 
L 1381 1569 
Q 847 1681 609 1914 
Q 372 2147 372 2553 
Q 372 3047 722 3315 
Q 1072 3584 1716 3584 
Q 2034 3584 2315 3537 
Q 2597 3491 2834 3397 
z
" transform="scale(0.015625)"/>
      <path id="DejaVuSans-70" d="M 1159 525 
L 1159 -1331 
L 581 -1331 
L 581 3500 
L 1159 3500 
L 1159 2969 
Q 1341 3281 1617 3432 
Q 1894 3584 2278 3584 
Q 2916 3584 3314 3078 
Q 3713 2572 3713 1747 
Q 3713 922 3314 415 
Q 2916 -91 2278 -91 
Q 1894 -91 1617 61 
Q 1341 213 1159 525 
z
M 3116 1747 
Q 3116 2381 2855 2742 
Q 2594 3103 2138 3103 
Q 1681 3103 1420 2742 
Q 1159 2381 1159 1747 
Q 1159 1113 1420 752 
Q 1681 391 2138 391 
Q 2594 391 2855 752 
Q 3116 1113 3116 1747 
z
" transform="scale(0.015625)"/>
      <path id="DejaVuSans-6c" d="M 603 4863 
L 1178 4863 
L 1178 0 
L 603 0 
L 603 4863 
z
" transform="scale(0.015625)"/>
      <path id="DejaVuSans-65" d="M 3597 1894 
L 3597 1613 
L 953 1613 
Q 991 1019 1311 708 
Q 1631 397 2203 397 
Q 2534 397 2845 478 
Q 3156 559 3463 722 
L 3463 178 
Q 3153 47 2828 -22 
Q 2503 -91 2169 -91 
Q 1331 -91 842 396 
Q 353 884 353 1716 
Q 353 2575 817 3079 
Q 1281 3584 2069 3584 
Q 2775 3584 3186 3129 
Q 3597 2675 3597 1894 
z
M 3022 2063 
Q 3016 2534 2758 2815 
Q 2500 3097 2075 3097 
Q 1594 3097 1305 2825 
Q 1016 2553 972 2059 
L 3022 2063 
z
" transform="scale(0.015625)"/>
      <path id="DejaVuSans-28" d="M 1984 4856 
Q 1566 4138 1362 3434 
Q 1159 2731 1159 2009 
Q 1159 1288 1364 580 
Q 1569 -128 1984 -844 
L 1484 -844 
Q 1016 -109 783 600 
Q 550 1309 550 2009 
Q 550 2706 781 3412 
Q 1013 4119 1484 4856 
L 1984 4856 
z
" transform="scale(0.015625)"/>
      <path id="DejaVuSans-3bc" d="M 544 -1331 
L 544 3500 
L 1119 3500 
L 1119 1325 
Q 1119 872 1334 640 
Q 1550 409 1972 409 
Q 2434 409 2667 671 
Q 2900 934 2900 1459 
L 2900 3500 
L 3475 3500 
L 3475 806 
Q 3475 619 3529 530 
Q 3584 441 3700 441 
Q 3728 441 3778 458 
Q 3828 475 3916 513 
L 3916 50 
Q 3788 -22 3673 -56 
Q 3559 -91 3450 -91 
Q 3234 -91 3106 31 
Q 2978 153 2931 403 
Q 2775 156 2548 32 
Q 2322 -91 2016 -91 
Q 1697 -91 1473 31 
Q 1250 153 1119 397 
L 1119 -1331 
L 544 -1331 
z
" transform="scale(0.015625)"/>
      <path id="DejaVuSans-2c" d="M 750 794 
L 1409 794 
L 1409 256 
L 897 -744 
L 494 -744 
L 750 256 
L 750 794 
z
" transform="scale(0.015625)"/>
      <path id="DejaVuSans-3c3" d="M 1959 3044 
Q 1484 3044 1228 2700 
Q 959 2341 959 1747 
Q 959 1119 1226 758 
Q 1494 397 1959 397 
Q 2419 397 2687 759 
Q 2956 1122 2956 1747 
Q 2956 2319 2688 2700 
Q 2441 3044 1959 3044 
z
M 1959 3500 
L 3869 3500 
L 3869 2925 
L 3225 2925 
Q 3566 2438 3566 1747 
Q 3566 888 3138 400 
Q 2709 -91 1959 -91 
Q 1206 -91 781 400 
Q 353 888 353 1747 
Q 353 2613 781 3097 
Q 1134 3500 1959 3500 
z
" transform="scale(0.015625)"/>
      <path id="DejaVuSans-29" d="M 513 4856 
L 1013 4856 
Q 1481 4119 1714 3412 
Q 1947 2706 1947 2009 
Q 1947 1309 1714 600 
Q 1481 -109 1013 -844 
L 513 -844 
Q 928 -128 1133 580 
Q 1338 1288 1338 2009 
Q 1338 2731 1133 3434 
Q 928 4138 513 4856 
z
" transform="scale(0.015625)"/>
      <path id="DejaVuSans-6f" d="M 1959 3097 
Q 1497 3097 1228 2736 
Q 959 2375 959 1747 
Q 959 1119 1226 758 
Q 1494 397 1959 397 
Q 2419 397 2687 759 
Q 2956 1122 2956 1747 
Q 2956 2369 2687 2733 
Q 2419 3097 1959 3097 
z
M 1959 3584 
Q 2709 3584 3137 3096 
Q 3566 2609 3566 1747 
Q 3566 888 3137 398 
Q 2709 -91 1959 -91 
Q 1206 -91 779 398 
Q 353 888 353 1747 
Q 353 2609 779 3096 
Q 1206 3584 1959 3584 
z
" transform="scale(0.015625)"/>
      <path id="DejaVuSans-66" d="M 2375 4863 
L 2375 4384 
L 1825 4384 
Q 1516 4384 1395 4259 
Q 1275 4134 1275 3809 
L 1275 3500 
L 2222 3500 
L 2222 3053 
L 1275 3053 
L 1275 0 
L 697 0 
L 697 3053 
L 147 3053 
L 147 3500 
L 697 3500 
L 697 3744 
Q 697 4328 969 4595 
Q 1241 4863 1831 4863 
L 2375 4863 
z
" transform="scale(0.015625)"/>
      <path id="DejaVuSans-74" d="M 1172 4494 
L 1172 3500 
L 2356 3500 
L 2356 3053 
L 1172 3053 
L 1172 1153 
Q 1172 725 1289 603 
Q 1406 481 1766 481 
L 2356 481 
L 2356 0 
L 1766 0 
Q 1100 0 847 248 
Q 594 497 594 1153 
L 594 3053 
L 172 3053 
L 172 3500 
L 594 3500 
L 594 4494 
L 1172 4494 
z
" transform="scale(0.015625)"/>
      <path id="DejaVuSans-72" d="M 2631 2963 
Q 2534 3019 2420 3045 
Q 2306 3072 2169 3072 
Q 1681 3072 1420 2755 
Q 1159 2438 1159 1844 
L 1159 0 
L 581 0 
L 581 3500 
L 1159 3500 
L 1159 2956 
Q 1341 3275 1631 3429 
Q 1922 3584 2338 3584 
Q 2397 3584 2469 3576 
Q 2541 3569 2628 3553 
L 2631 2963 
z
" transform="scale(0.015625)"/>
      <path id="DejaVuSans-5b" d="M 550 4863 
L 1875 4863 
L 1875 4416 
L 1125 4416 
L 1125 -397 
L 1875 -397 
L 1875 -844 
L 550 -844 
L 550 4863 
z
" transform="scale(0.015625)"/>
      <path id="DejaVuSans-5d" d="M 1947 4863 
L 1947 -844 
L 622 -844 
L 622 -397 
L 1369 -397 
L 1369 4416 
L 622 4416 
L 622 4863 
L 1947 4863 
z
" transform="scale(0.015625)"/>
      <path id="DejaVuSans-2208" d="M 1072 1959 
Q 1094 1728 1291 1353 
Q 1522 919 1959 675 
Q 2388 438 2850 434 
L 5028 434 
L 5028 -63 
L 2850 -63 
Q 2250 -63 1695 246 
Q 1141 556 844 1106 
Q 547 1656 547 2241 
Q 547 2819 844 3369 
Q 1141 3919 1695 4231 
Q 2250 4544 2850 4544 
L 5028 4544 
L 5028 4047 
L 2850 4047 
Q 2388 4044 1959 3803 
Q 1525 3556 1291 3125 
Q 1091 2750 1063 2459 
L 5028 2459 
L 5028 1959 
L 1072 1959 
z
" transform="scale(0.015625)"/>
      <path id="DejaVuSans-33" d="M 2597 2516 
Q 3050 2419 3304 2112 
Q 3559 1806 3559 1356 
Q 3559 666 3084 287 
Q 2609 -91 1734 -91 
Q 1441 -91 1130 -33 
Q 819 25 488 141 
L 488 750 
Q 750 597 1062 519 
Q 1375 441 1716 441 
Q 2309 441 2620 675 
Q 2931 909 2931 1356 
Q 2931 1769 2642 2001 
Q 2353 2234 1838 2234 
L 1294 2234 
L 1294 2753 
L 1863 2753 
Q 2328 2753 2575 2939 
Q 2822 3125 2822 3475 
Q 2822 3834 2567 4026 
Q 2313 4219 1838 4219 
Q 1578 4219 1281 4162 
Q 984 4106 628 3988 
L 628 4550 
Q 988 4650 1302 4700 
Q 1616 4750 1894 4750 
Q 2613 4750 3031 4423 
Q 3450 4097 3450 3541 
Q 3450 3153 3228 2886 
Q 3006 2619 2597 2516 
z
" transform="scale(0.015625)"/>
     </defs>
     <use xlink:href="#DejaVuSans-31"/>
     <use xlink:href="#DejaVuSans-30" x="63.623047"/>
     <use xlink:href="#DejaVuSans-30" x="127.246094"/>
     <use xlink:href="#DejaVuSans-30" x="190.869141"/>
     <use xlink:href="#DejaVuSans-30" x="254.492188"/>
     <use xlink:href="#DejaVuSans-20" x="318.115234"/>
     <use xlink:href="#DejaVuSans-73" x="349.902344"/>
     <use xlink:href="#DejaVuSans-61" x="402.001953"/>
     <use xlink:href="#DejaVuSans-6d" x="463.28125"/>
     <use xlink:href="#DejaVuSans-70" x="560.693359"/>
     <use xlink:href="#DejaVuSans-6c" x="624.169922"/>
     <use xlink:href="#DejaVuSans-65" x="651.953125"/>
     <use xlink:href="#DejaVuSans-73" x="713.476562"/>
     <use xlink:href="#DejaVuSans-20" x="765.576172"/>
     <use xlink:href="#DejaVuSans-28" x="797.363281"/>
     <use xlink:href="#DejaVuSans-3bc" x="836.376953"/>
     <use xlink:href="#DejaVuSans-3d" x="900"/>
     <use xlink:href="#DejaVuSans-32" x="983.789062"/>
     <use xlink:href="#DejaVuSans-2e" x="1047.412109"/>
     <use xlink:href="#DejaVuSans-39" x="1079.199219"/>
     <use xlink:href="#DejaVuSans-39" x="1142.822266"/>
     <use xlink:href="#DejaVuSans-36" x="1206.445312"/>
     <use xlink:href="#DejaVuSans-2c" x="1270.068359"/>
     <use xlink:href="#DejaVuSans-20" x="1301.855469"/>
     <use xlink:href="#DejaVuSans-3c3" x="1333.642578"/>
     <use xlink:href="#DejaVuSans-3d" x="1397.021484"/>
     <use xlink:href="#DejaVuSans-31" x="1480.810547"/>
     <use xlink:href="#DejaVuSans-2e" x="1544.433594"/>
     <use xlink:href="#DejaVuSans-30" x="1576.220703"/>
     <use xlink:href="#DejaVuSans-30" x="1639.84375"/>
     <use xlink:href="#DejaVuSans-36" x="1703.466797"/>
     <use xlink:href="#DejaVuSans-29" x="1767.089844"/>
     <use xlink:href="#DejaVuSans-20" x="1806.103516"/>
     <use xlink:href="#DejaVuSans-6f" x="1837.890625"/>
     <use xlink:href="#DejaVuSans-66" x="1899.072266"/>
     <use xlink:href="#DejaVuSans-20" x="1934.277344"/>
     <use xlink:href="#DejaVuSans-74" x="1966.064453"/>
     <use xlink:href="#DejaVuSans-65" x="2005.273438"/>
     <use xlink:href="#DejaVuSans-6e" x="2066.796875"/>
     <use xlink:href="#DejaVuSans-73" x="2130.175781"/>
     <use xlink:href="#DejaVuSans-6f" x="2182.275391"/>
     <use xlink:href="#DejaVuSans-72" x="2243.457031"/>
     <use xlink:href="#DejaVuSans-5b" x="2284.570312"/>
     <use xlink:href="#DejaVuSans-31" x="2323.583984"/>
     <use xlink:href="#DejaVuSans-30" x="2387.207031"/>
     <use xlink:href="#DejaVuSans-30" x="2450.830078"/>
     <use xlink:href="#DejaVuSans-30" x="2514.453125"/>
     <use xlink:href="#DejaVuSans-30" x="2578.076172"/>
     <use xlink:href="#DejaVuSans-30" x="2641.699219"/>
     <use xlink:href="#DejaVuSans-5d" x="2705.322266"/>
     <use xlink:href="#DejaVuSans-20" x="2744.335938"/>
     <use xlink:href="#DejaVuSans-78" x="2776.123047"/>
     <use xlink:href="#DejaVuSans-2208" x="2835.302734"/>
     <use xlink:href="#DejaVuSans-5b" x="2922.412109"/>
     <use xlink:href="#DejaVuSans-2d" x="2961.425781"/>
     <use xlink:href="#DejaVuSans-31" x="2997.509766"/>
     <use xlink:href="#DejaVuSans-2e" x="3061.132812"/>
     <use xlink:href="#DejaVuSans-35" x="3092.919922"/>
     <use xlink:href="#DejaVuSans-39" x="3156.542969"/>
     <use xlink:href="#DejaVuSans-30" x="3220.166016"/>
     <use xlink:href="#DejaVuSans-2c" x="3283.789062"/>
     <use xlink:href="#DejaVuSans-20" x="3315.576172"/>
     <use xlink:href="#DejaVuSans-37" x="3347.363281"/>
     <use xlink:href="#DejaVuSans-2e" x="3410.986328"/>
     <use xlink:href="#DejaVuSans-36" x="3442.773438"/>
     <use xlink:href="#DejaVuSans-32" x="3506.396484"/>
     <use xlink:href="#DejaVuSans-39" x="3570.019531"/>
     <use xlink:href="#DejaVuSans-5d" x="3633.642578"/>
     <use xlink:href="#DejaVuSans-20" x="3672.65625"/>
     <use xlink:href="#DejaVuSans-3bc" x="3704.443359"/>
     <use xlink:href="#DejaVuSans-3d" x="3768.066406"/>
     <use xlink:href="#DejaVuSans-33" x="3851.855469"/>
     <use xlink:href="#DejaVuSans-2e" x="3915.478516"/>
     <use xlink:href="#DejaVuSans-30" x="3947.265625"/>
     <use xlink:href="#DejaVuSans-30" x="4010.888672"/>
     <use xlink:href="#DejaVuSans-32" x="4074.511719"/>
     <use xlink:href="#DejaVuSans-20" x="4138.134766"/>
     <use xlink:href="#DejaVuSans-3c3" x="4169.921875"/>
     <use xlink:href="#DejaVuSans-3d" x="4233.300781"/>
     <use xlink:href="#DejaVuSans-31" x="4317.089844"/>
     <use xlink:href="#DejaVuSans-2e" x="4380.712891"/>
     <use xlink:href="#DejaVuSans-30" x="4412.5"/>
     <use xlink:href="#DejaVuSans-30" x="4476.123047"/>
     <use xlink:href="#DejaVuSans-36" x="4539.746094"/>
    </g>
   </g>
   <g id="patch_9">
    <path d="M 169.659678 121.226437 
L 173.427171 121.226437 
L 173.427171 121.109129 
L 169.659678 121.109129 
z
" clip-path="url(#pc31649a5e6)" style="fill: #00bfff"/>
   </g>
   <g id="patch_10">
    <path d="M 173.427171 121.226437 
L 177.194661 121.226437 
L 177.194661 121.226437 
L 173.427171 121.226437 
z
" clip-path="url(#pc31649a5e6)" style="fill: #00bfff"/>
   </g>
   <g id="patch_11">
    <path d="M 177.194661 121.226437 
L 180.962152 121.226437 
L 180.962152 121.226437 
L 177.194661 121.226437 
z
" clip-path="url(#pc31649a5e6)" style="fill: #00bfff"/>
   </g>
   <g id="patch_12">
    <path d="M 180.962152 121.226437 
L 184.729644 121.226437 
L 184.729644 121.226437 
L 180.962152 121.226437 
z
" clip-path="url(#pc31649a5e6)" style="fill: #00bfff"/>
   </g>
   <g id="patch_13">
    <path d="M 184.729644 121.226437 
L 188.497136 121.226437 
L 188.497136 121.226437 
L 184.729644 121.226437 
z
" clip-path="url(#pc31649a5e6)" style="fill: #00bfff"/>
   </g>
   <g id="patch_14">
    <path d="M 188.497136 121.226437 
L 192.264627 121.226437 
L 192.264627 120.639894 
L 188.497136 120.639894 
z
" clip-path="url(#pc31649a5e6)" style="fill: #00bfff"/>
   </g>
   <g id="patch_15">
    <path d="M 192.264627 121.226437 
L 196.032119 121.226437 
L 196.032119 120.874512 
L 192.264627 120.874512 
z
" clip-path="url(#pc31649a5e6)" style="fill: #00bfff"/>
   </g>
   <g id="patch_16">
    <path d="M 196.032119 121.226437 
L 199.79961 121.226437 
L 199.79961 120.757203 
L 196.032119 120.757203 
z
" clip-path="url(#pc31649a5e6)" style="fill: #00bfff"/>
   </g>
   <g id="patch_17">
    <path d="M 199.79961 121.226437 
L 203.567102 121.226437 
L 203.567102 120.757203 
L 199.79961 120.757203 
z
" clip-path="url(#pc31649a5e6)" style="fill: #00bfff"/>
   </g>
   <g id="patch_18">
    <path d="M 203.567102 121.226437 
L 207.334593 121.226437 
L 207.334593 119.818734 
L 203.567102 119.818734 
z
" clip-path="url(#pc31649a5e6)" style="fill: #00bfff"/>
   </g>
   <g id="patch_19">
    <path d="M 207.334593 121.226437 
L 211.102085 121.226437 
L 211.102085 118.293722 
L 207.334593 118.293722 
z
" clip-path="url(#pc31649a5e6)" style="fill: #00bfff"/>
   </g>
   <g id="patch_20">
    <path d="M 211.102085 121.226437 
L 214.869576 121.226437 
L 214.869576 117.707177 
L 211.102085 117.707177 
z
" clip-path="url(#pc31649a5e6)" style="fill: #00bfff"/>
   </g>
   <g id="patch_21">
    <path d="M 214.869576 121.226437 
L 218.637068 121.226437 
L 218.637068 115.595624 
L 214.869576 115.595624 
z
" clip-path="url(#pc31649a5e6)" style="fill: #00bfff"/>
   </g>
   <g id="patch_22">
    <path d="M 218.637068 121.226437 
L 222.40456 121.226437 
L 222.40456 113.484066 
L 218.637068 113.484066 
z
" clip-path="url(#pc31649a5e6)" style="fill: #00bfff"/>
   </g>
   <g id="patch_23">
    <path d="M 222.40456 121.226437 
L 226.17205 121.226437 
L 226.17205 109.964802 
L 222.40456 109.964802 
z
" clip-path="url(#pc31649a5e6)" style="fill: #00bfff"/>
   </g>
   <g id="patch_24">
    <path d="M 226.17205 121.226437 
L 229.939542 121.226437 
L 229.939542 107.501329 
L 226.17205 107.501329 
z
" clip-path="url(#pc31649a5e6)" style="fill: #00bfff"/>
   </g>
   <g id="patch_25">
    <path d="M 229.939542 121.226437 
L 233.707035 121.226437 
L 233.707035 101.987824 
L 229.939542 101.987824 
z
" clip-path="url(#pc31649a5e6)" style="fill: #00bfff"/>
   </g>
   <g id="patch_26">
    <path d="M 233.707035 121.226437 
L 237.474525 121.226437 
L 237.474525 97.530079 
L 233.707035 97.530079 
z
" clip-path="url(#pc31649a5e6)" style="fill: #00bfff"/>
   </g>
   <g id="patch_27">
    <path d="M 237.474525 121.226437 
L 241.242018 121.226437 
L 241.242018 88.497334 
L 237.474525 88.497334 
z
" clip-path="url(#pc31649a5e6)" style="fill: #00bfff"/>
   </g>
   <g id="patch_28">
    <path d="M 241.242018 121.226437 
L 245.009508 121.226437 
L 245.009508 86.62037 
L 241.242018 86.62037 
z
" clip-path="url(#pc31649a5e6)" style="fill: #00bfff"/>
   </g>
   <g id="patch_29">
    <path d="M 245.009508 121.226437 
L 248.777 121.226437 
L 248.777 80.872274 
L 245.009508 80.872274 
z
" clip-path="url(#pc31649a5e6)" style="fill: #00bfff"/>
   </g>
   <g id="patch_30">
    <path d="M 248.777 121.226437 
L 252.54449 121.226437 
L 252.54449 74.654882 
L 248.777 74.654882 
z
" clip-path="url(#pc31649a5e6)" style="fill: #00bfff"/>
   </g>
   <g id="patch_31">
    <path d="M 252.54449 121.226437 
L 256.31198 121.226437 
L 256.31198 62.454776 
L 252.54449 62.454776 
z
" clip-path="url(#pc31649a5e6)" style="fill: #00bfff"/>
   </g>
   <g id="patch_32">
    <path d="M 256.31198 121.226437 
L 260.079476 121.226437 
L 260.079476 59.874078 
L 256.31198 59.874078 
z
" clip-path="url(#pc31649a5e6)" style="fill: #00bfff"/>
   </g>
   <g id="patch_33">
    <path d="M 260.079476 121.226437 
L 263.846966 121.226437 
L 263.846966 59.639367 
L 260.079476 59.639367 
z
" clip-path="url(#pc31649a5e6)" style="fill: #00bfff"/>
   </g>
   <g id="patch_34">
    <path d="M 263.846966 121.226437 
L 267.614455 121.226437 
L 267.614455 53.187389 
L 263.846966 53.187389 
z
" clip-path="url(#pc31649a5e6)" style="fill: #00bfff"/>
   </g>
   <g id="patch_35">
    <path d="M 267.614455 121.226437 
L 271.381951 121.226437 
L 271.381951 47.322065 
L 267.614455 47.322065 
z
" clip-path="url(#pc31649a5e6)" style="fill: #00bfff"/>
   </g>
   <g id="patch_36">
    <path d="M 271.381951 121.226437 
L 275.149441 121.226437 
L 275.149441 51.545067 
L 271.381951 51.545067 
z
" clip-path="url(#pc31649a5e6)" style="fill: #00bfff"/>
   </g>
   <g id="patch_37">
    <path d="M 275.149441 121.226437 
L 278.916931 121.226437 
L 278.916931 49.902745 
L 275.149441 49.902745 
z
" clip-path="url(#pc31649a5e6)" style="fill: #00bfff"/>
   </g>
   <g id="patch_38">
    <path d="M 278.916931 121.226437 
L 282.684421 121.226437 
L 282.684421 46.970027 
L 278.916931 46.970027 
z
" clip-path="url(#pc31649a5e6)" style="fill: #00bfff"/>
   </g>
   <g id="patch_39">
    <path d="M 282.684421 121.226437 
L 286.451916 121.226437 
L 286.451916 55.885588 
L 282.684421 55.885588 
z
" clip-path="url(#pc31649a5e6)" style="fill: #00bfff"/>
   </g>
   <g id="patch_40">
    <path d="M 286.451916 121.226437 
L 290.219406 121.226437 
L 290.219406 62.220159 
L 286.451916 62.220159 
z
" clip-path="url(#pc31649a5e6)" style="fill: #00bfff"/>
   </g>
   <g id="patch_41">
    <path d="M 290.219406 121.226437 
L 293.986896 121.226437 
L 293.986896 70.079842 
L 290.219406 70.079842 
z
" clip-path="url(#pc31649a5e6)" style="fill: #00bfff"/>
   </g>
   <g id="patch_42">
    <path d="M 293.986896 121.226437 
L 297.754392 121.226437 
L 297.754392 74.772261 
L 293.986896 74.772261 
z
" clip-path="url(#pc31649a5e6)" style="fill: #00bfff"/>
   </g>
   <g id="patch_43">
    <path d="M 297.754392 121.226437 
L 301.521876 121.226437 
L 301.521876 83.101051 
L 297.754392 83.101051 
z
" clip-path="url(#pc31649a5e6)" style="fill: #00bfff"/>
   </g>
   <g id="patch_44">
    <path d="M 301.521876 121.226437 
L 305.289371 121.226437 
L 305.289371 88.028124 
L 301.521876 88.028124 
z
" clip-path="url(#pc31649a5e6)" style="fill: #00bfff"/>
   </g>
   <g id="patch_45">
    <path d="M 305.289371 121.226437 
L 309.056867 121.226437 
L 309.056867 96.122413 
L 305.289371 96.122413 
z
" clip-path="url(#pc31649a5e6)" style="fill: #00bfff"/>
   </g>
   <g id="patch_46">
    <path d="M 309.056867 121.226437 
L 312.824351 121.226437 
L 312.824351 101.401236 
L 309.056867 101.401236 
z
" clip-path="url(#pc31649a5e6)" style="fill: #00bfff"/>
   </g>
   <g id="patch_47">
    <path d="M 312.824351 121.226437 
L 316.591847 121.226437 
L 316.591847 106.093637 
L 312.824351 106.093637 
z
" clip-path="url(#pc31649a5e6)" style="fill: #00bfff"/>
   </g>
   <g id="patch_48">
    <path d="M 316.591847 121.226437 
L 320.359342 121.226437 
L 320.359342 110.66867 
L 316.591847 110.66867 
z
" clip-path="url(#pc31649a5e6)" style="fill: #00bfff"/>
   </g>
   <g id="patch_49">
    <path d="M 320.359342 121.226437 
L 324.126827 121.226437 
L 324.126827 113.484051 
L 320.359342 113.484051 
z
" clip-path="url(#pc31649a5e6)" style="fill: #00bfff"/>
   </g>
   <g id="patch_50">
    <path d="M 324.126827 121.226437 
L 327.894322 121.226437 
L 327.894322 115.243703 
L 324.126827 115.243703 
z
" clip-path="url(#pc31649a5e6)" style="fill: #00bfff"/>
   </g>
   <g id="patch_51">
    <path d="M 327.894322 121.226437 
L 331.661818 121.226437 
L 331.661818 116.534096 
L 327.894322 116.534096 
z
" clip-path="url(#pc31649a5e6)" style="fill: #00bfff"/>
   </g>
   <g id="patch_52">
    <path d="M 331.661818 121.226437 
L 335.429302 121.226437 
L 335.429302 118.411024 
L 331.661818 118.411024 
z
" clip-path="url(#pc31649a5e6)" style="fill: #00bfff"/>
   </g>
   <g id="patch_53">
    <path d="M 335.429302 121.226437 
L 339.196798 121.226437 
L 339.196798 120.287969 
L 335.429302 120.287969 
z
" clip-path="url(#pc31649a5e6)" style="fill: #00bfff"/>
   </g>
   <g id="patch_54">
    <path d="M 339.196798 121.226437 
L 342.964282 121.226437 
L 342.964282 120.522584 
L 339.196798 120.522584 
z
" clip-path="url(#pc31649a5e6)" style="fill: #00bfff"/>
   </g>
   <g id="patch_55">
    <path d="M 342.964282 121.226437 
L 346.731777 121.226437 
L 346.731777 120.170661 
L 342.964282 120.170661 
z
" clip-path="url(#pc31649a5e6)" style="fill: #00bfff"/>
   </g>
   <g id="patch_56">
    <path d="M 346.731777 121.226437 
L 350.499273 121.226437 
L 350.499273 120.757203 
L 346.731777 120.757203 
z
" clip-path="url(#pc31649a5e6)" style="fill: #00bfff"/>
   </g>
   <g id="patch_57">
    <path d="M 350.499273 121.226437 
L 354.266757 121.226437 
L 354.266757 120.874511 
L 350.499273 120.874511 
z
" clip-path="url(#pc31649a5e6)" style="fill: #00bfff"/>
   </g>
   <g id="patch_58">
    <path d="M 354.266757 121.226437 
L 358.034253 121.226437 
L 358.034253 121.109129 
L 354.266757 121.109129 
z
" clip-path="url(#pc31649a5e6)" style="fill: #00bfff"/>
   </g>
   <g id="line2d_19">
    <path d="M 10.7 121.226437 
L 14.533384 121.226437 
L 18.366768 121.226437 
L 22.200152 121.226437 
L 26.033535 121.226437 
L 29.866919 121.226437 
L 33.700303 121.226437 
L 37.533687 121.226437 
L 41.367071 121.226437 
L 45.200455 121.226437 
L 49.033838 121.226437 
L 52.867222 121.226437 
L 56.700606 121.226437 
L 60.53399 121.226437 
L 64.367374 121.226437 
L 68.200758 121.226437 
L 72.034141 121.226437 
L 75.867525 121.226437 
L 79.700909 121.226437 
L 83.534293 121.226437 
L 87.367677 121.226437 
L 91.201061 121.226437 
L 95.034444 121.226437 
L 98.867828 121.226437 
L 102.701212 121.226437 
L 106.534596 121.226437 
L 110.36798 121.226437 
L 114.201364 121.226437 
L 118.034747 121.226437 
L 121.868131 121.226437 
L 125.701515 121.226437 
L 129.534899 121.226436 
L 133.368283 121.226433 
L 137.201667 121.226426 
L 141.035051 121.226411 
L 144.868434 121.226374 
L 148.701818 121.226293 
L 152.535202 121.226115 
L 156.368586 121.225734 
L 160.20197 121.224944 
L 164.035354 121.223345 
L 167.868737 121.220193 
L 171.702121 121.214147 
L 175.535505 121.202852 
L 179.368889 121.182313 
L 183.202273 121.145958 
L 187.035657 121.083329 
L 190.86904 120.978345 
L 194.702424 120.80713 
L 198.535808 120.535523 
L 202.369192 120.11653 
L 206.202576 119.488154 
L 210.03596 118.572283 
L 213.869343 117.275473 
L 217.702727 115.492521 
L 221.536111 113.113632 
L 225.369495 110.03561 
L 229.202879 106.176846 
L 233.036263 101.495003 
L 236.869646 96.005339 
L 240.70303 89.796701 
L 244.536414 83.04178 
L 248.369798 75.998324 
L 252.203182 68.998912 
L 256.036566 62.428534 
L 259.869949 56.691389 
L 263.703333 52.170528 
L 267.536717 49.185813 
L 271.370101 47.956555 
L 275.203485 48.574879 
L 279.036869 50.994317 
L 282.870253 55.035576 
L 286.703636 60.408498 
L 290.53702 66.746478 
L 294.370404 73.647662 
L 298.203788 80.716539 
L 302.037172 87.600031 
L 305.870556 94.013766 
L 309.703939 99.756376 
L 313.537323 104.711884 
L 317.370707 108.842129 
L 321.204091 112.172278 
L 325.037475 114.772929 
L 328.870859 116.741927 
L 332.704242 118.188313 
L 336.537626 119.219806 
L 340.37101 119.934323 
L 344.204394 120.415279 
L 348.037778 120.72998 
L 351.871162 120.930207 
L 355.704545 121.054112 
L 359.537929 121.128705 
L 363.371313 121.172399 
L 367.204697 121.197308 
L 371.038081 121.211129 
L 374.871465 121.218594 
L 378.704848 121.22252 
L 382.538232 121.224529 
L 386.371616 121.225532 
L 390.205 121.226018 
" clip-path="url(#pc31649a5e6)" style="fill: none; stroke: #1f77b4; stroke-width: 1.5; stroke-linecap: square"/>
   </g>
   <g id="text_11">
    <g id="patch_59">
     <path d="M 167.631559 37.612562 
L 183.939372 37.612562 
Q 186.939372 37.612562 186.939372 34.612562 
L 186.939372 24.934437 
Q 186.939372 21.934437 183.939372 21.934437 
L 167.631559 21.934437 
Q 164.631559 21.934437 164.631559 24.934437 
L 164.631559 34.612562 
Q 164.631559 37.612562 167.631559 37.612562 
z
" style="fill: #ffffff"/>
    </g>
    <!-- -4σ -->
    <g transform="translate(167.631559 32.532875) scale(0.1 -0.1)">
     <use xlink:href="#DejaVuSans-2d"/>
     <use xlink:href="#DejaVuSans-34" x="36.083984"/>
     <use xlink:href="#DejaVuSans-3c3" x="99.707031"/>
    </g>
   </g>
   <g id="text_12">
    <g id="patch_60">
     <path d="M 191.687063 37.612562 
L 207.994875 37.612562 
Q 210.994875 37.612562 210.994875 34.612562 
L 210.994875 24.934437 
Q 210.994875 21.934437 207.994875 21.934437 
L 191.687063 21.934437 
Q 188.687063 21.934437 188.687063 24.934437 
L 188.687063 34.612562 
Q 188.687063 37.612562 191.687063 37.612562 
z
" style="fill: #ffffff"/>
    </g>
    <!-- -3σ -->
    <g transform="translate(191.687063 32.532875) scale(0.1 -0.1)">
     <use xlink:href="#DejaVuSans-2d"/>
     <use xlink:href="#DejaVuSans-33" x="36.083984"/>
     <use xlink:href="#DejaVuSans-3c3" x="99.707031"/>
    </g>
   </g>
   <g id="text_13">
    <g id="patch_61">
     <path d="M 215.742567 37.612562 
L 232.050379 37.612562 
Q 235.050379 37.612562 235.050379 34.612562 
L 235.050379 24.934437 
Q 235.050379 21.934437 232.050379 21.934437 
L 215.742567 21.934437 
Q 212.742567 21.934437 212.742567 24.934437 
L 212.742567 34.612562 
Q 212.742567 37.612562 215.742567 37.612562 
z
" style="fill: #ffffff"/>
    </g>
    <!-- -2σ -->
    <g transform="translate(215.742567 32.532875) scale(0.1 -0.1)">
     <use xlink:href="#DejaVuSans-2d"/>
     <use xlink:href="#DejaVuSans-32" x="36.083984"/>
     <use xlink:href="#DejaVuSans-3c3" x="99.707031"/>
    </g>
   </g>
   <g id="text_14">
    <g id="patch_62">
     <path d="M 242.979321 37.612562 
L 252.924633 37.612562 
Q 255.924633 37.612562 255.924633 34.612562 
L 255.924633 24.934437 
Q 255.924633 21.934437 252.924633 21.934437 
L 242.979321 21.934437 
Q 239.979321 21.934437 239.979321 24.934437 
L 239.979321 34.612562 
Q 239.979321 37.612562 242.979321 37.612562 
z
" style="fill: #ffffff"/>
    </g>
    <!-- -σ -->
    <g transform="translate(242.979321 32.532875) scale(0.1 -0.1)">
     <use xlink:href="#DejaVuSans-2d"/>
     <use xlink:href="#DejaVuSans-3c3" x="36.083984"/>
    </g>
   </g>
   <g id="text_15">
    <g id="patch_63">
     <path d="M 268.328574 37.612562 
L 275.686387 37.612562 
Q 278.686387 37.612562 278.686387 34.612562 
L 278.686387 24.934437 
Q 278.686387 21.934437 275.686387 21.934437 
L 268.328574 21.934437 
Q 265.328574 21.934437 265.328574 24.934437 
L 265.328574 34.612562 
Q 265.328574 37.612562 268.328574 37.612562 
z
" style="fill: #ffffff"/>
    </g>
    <!-- μ -->
    <g transform="translate(268.328574 32.521937) scale(0.1 -0.1)">
     <defs>
      <path id="DejaVuSans-Bold-3bc" d="M 544 -1338 
L 544 3500 
L 1672 3500 
L 1672 1466 
Q 1672 1103 1828 926 
Q 1984 750 2303 750 
Q 2625 750 2781 926 
Q 2938 1103 2938 1466 
L 2938 3500 
L 4063 3500 
L 4063 1159 
Q 4063 938 4114 850 
Q 4166 763 4288 763 
Q 4344 763 4395 778 
Q 4447 794 4506 831 
L 4506 50 
Q 4341 -22 4195 -56 
Q 4050 -91 3909 -91 
Q 3631 -91 3454 26 
Q 3278 144 3169 403 
Q 3022 156 2811 32 
Q 2600 -91 2322 -91 
Q 2091 -91 1928 -17 
Q 1766 56 1672 206 
L 1672 -1338 
L 544 -1338 
z
" transform="scale(0.015625)"/>
     </defs>
     <use xlink:href="#DejaVuSans-Bold-3bc"/>
    </g>
   </g>
   <g id="text_16">
    <g id="patch_64">
     <path d="M 288.704391 37.612562 
L 303.421578 37.612562 
Q 306.421578 37.612562 306.421578 34.612562 
L 306.421578 24.934437 
Q 306.421578 21.934437 303.421578 21.934437 
L 288.704391 21.934437 
Q 285.704391 21.934437 285.704391 24.934437 
L 285.704391 34.612562 
Q 285.704391 37.612562 288.704391 37.612562 
z
" style="fill: #ffffff"/>
    </g>
    <!-- +σ -->
    <g transform="translate(288.704391 32.532875) scale(0.1 -0.1)">
     <defs>
      <path id="DejaVuSans-2b" d="M 2944 4013 
L 2944 2272 
L 4684 2272 
L 4684 1741 
L 2944 1741 
L 2944 0 
L 2419 0 
L 2419 1741 
L 678 1741 
L 678 2272 
L 2419 2272 
L 2419 4013 
L 2944 4013 
z
" transform="scale(0.015625)"/>
     </defs>
     <use xlink:href="#DejaVuSans-2b"/>
     <use xlink:href="#DejaVuSans-3c3" x="83.789062"/>
    </g>
   </g>
   <g id="text_17">
    <g id="patch_65">
     <path d="M 309.578645 37.612562 
L 330.658332 37.612562 
Q 333.658332 37.612562 333.658332 34.612562 
L 333.658332 24.934437 
Q 333.658332 21.934437 330.658332 21.934437 
L 309.578645 21.934437 
Q 306.578645 21.934437 306.578645 24.934437 
L 306.578645 34.612562 
Q 306.578645 37.612562 309.578645 37.612562 
z
" style="fill: #ffffff"/>
    </g>
    <!-- +2σ -->
    <g transform="translate(309.578645 32.532875) scale(0.1 -0.1)">
     <use xlink:href="#DejaVuSans-2b"/>
     <use xlink:href="#DejaVuSans-32" x="83.789062"/>
     <use xlink:href="#DejaVuSans-3c3" x="147.412109"/>
    </g>
   </g>
   <g id="text_18">
    <g id="patch_66">
     <path d="M 333.634149 37.612562 
L 354.713836 37.612562 
Q 357.713836 37.612562 357.713836 34.612562 
L 357.713836 24.934437 
Q 357.713836 21.934437 354.713836 21.934437 
L 333.634149 21.934437 
Q 330.634149 21.934437 330.634149 24.934437 
L 330.634149 34.612562 
Q 330.634149 37.612562 333.634149 37.612562 
z
" style="fill: #ffffff"/>
    </g>
    <!-- +3σ -->
    <g transform="translate(333.634149 32.532875) scale(0.1 -0.1)">
     <use xlink:href="#DejaVuSans-2b"/>
     <use xlink:href="#DejaVuSans-33" x="83.789062"/>
     <use xlink:href="#DejaVuSans-3c3" x="147.412109"/>
    </g>
   </g>
   <g id="text_19">
    <g id="patch_67">
     <path d="M 357.689652 37.612562 
L 378.76934 37.612562 
Q 381.76934 37.612562 381.76934 34.612562 
L 381.76934 24.934437 
Q 381.76934 21.934437 378.76934 21.934437 
L 357.689652 21.934437 
Q 354.689652 21.934437 354.689652 24.934437 
L 354.689652 34.612562 
Q 354.689652 37.612562 357.689652 37.612562 
z
" style="fill: #ffffff"/>
    </g>
    <!-- +4σ -->
    <g transform="translate(357.689652 32.532875) scale(0.1 -0.1)">
     <use xlink:href="#DejaVuSans-2b"/>
     <use xlink:href="#DejaVuSans-34" x="83.789062"/>
     <use xlink:href="#DejaVuSans-3c3" x="147.412109"/>
    </g>
   </g>
  </g>
 </g>
 <defs>
  <clipPath id="pc31649a5e6">
   <rect x="10.7" y="19.866437" width="379.505" height="101.36"/>
  </clipPath>
 </defs>
</svg>
