<?xml version="1.0" encoding="utf-8" standalone="no"?>
<!DOCTYPE svg PUBLIC "-//W3C//DTD SVG 1.1//EN"
  "http://www.w3.org/Graphics/SVG/1.1/DTD/svg11.dtd">
<svg xmlns:xlink="http://www.w3.org/1999/xlink" width="872.39952pt" height="152.406273pt" viewBox="0 0 872.39952 152.406273" xmlns="http://www.w3.org/2000/svg" version="1.1">
 <metadata>
  <rdf:RDF xmlns:dc="http://purl.org/dc/elements/1.1/" xmlns:cc="http://creativecommons.org/ns#" xmlns:rdf="http://www.w3.org/1999/02/22-rdf-syntax-ns#">
   <cc:Work>
    <dc:type rdf:resource="http://purl.org/dc/dcmitype/StillImage"/>
    <dc:format>image/svg+xml</dc:format>
    <dc:creator>
     <cc:Agent>
      <dc:title>Matplotlib, https://matplotlib.org/</dc:title>
     </cc:Agent>
    </dc:creator>
   </cc:Work>
  </rdf:RDF>
 </metadata>
 <defs>
  <style type="text/css">*{stroke-linejoin: round; stroke-linecap: butt}</style>
 </defs>
 <g id="figure_1">
  <g id="patch_1">
   <path d="M 0 152.406273 
L 872.39952 152.406273 
L 872.39952 0 
L 0 0 
z
" style="fill: #ffffff"/>
  </g>
  <g id="axes_1">
   <g id="patch_2">
    <path d="M 7.2 128.528148 
L 865.19952 128.528148 
L 865.19952 20.214138 
L 7.2 20.214138 
z
" style="fill: #ffffff"/>
   </g>
   <g id="matplotlib.axis_1">
    <g id="xtick_1">
     <g id="line2d_1">
      <defs>
       <path id="m8f1de1206a" d="M 0 0 
L 0 3.5 
" style="stroke: #000000; stroke-width: 0.8"/>
      </defs>
      <g>
       <use xlink:href="#m8f1de1206a" x="169.36682" y="128.528148" style="stroke: #000000; stroke-width: 0.8"/>
      </g>
     </g>
     <g id="text_1">
      <!-- 0 -->
      <g transform="translate(166.18557 143.126585) scale(0.1 -0.1)">
       <defs>
        <path id="DejaVuSans-30" d="M 2034 4250 
Q 1547 4250 1301 3770 
Q 1056 3291 1056 2328 
Q 1056 1369 1301 889 
Q 1547 409 2034 409 
Q 2525 409 2770 889 
Q 3016 1369 3016 2328 
Q 3016 3291 2770 3770 
Q 2525 4250 2034 4250 
z
M 2034 4750 
Q 2819 4750 3233 4129 
Q 3647 3509 3647 2328 
Q 3647 1150 3233 529 
Q 2819 -91 2034 -91 
Q 1250 -91 836 529 
Q 422 1150 422 2328 
Q 422 3509 836 4129 
Q 1250 4750 2034 4750 
z
" transform="scale(0.015625)"/>
       </defs>
       <use xlink:href="#DejaVuSans-30"/>
      </g>
     </g>
    </g>
    <g id="xtick_2">
     <g id="line2d_2">
      <g>
       <use xlink:href="#m8f1de1206a" x="347.372401" y="128.528148" style="stroke: #000000; stroke-width: 0.8"/>
      </g>
     </g>
     <g id="text_2">
      <!-- 2 -->
      <g transform="translate(344.191151 143.126585) scale(0.1 -0.1)">
       <defs>
        <path id="DejaVuSans-32" d="M 1228 531 
L 3431 531 
L 3431 0 
L 469 0 
L 469 531 
Q 828 903 1448 1529 
Q 2069 2156 2228 2338 
Q 2531 2678 2651 2914 
Q 2772 3150 2772 3378 
Q 2772 3750 2511 3984 
Q 2250 4219 1831 4219 
Q 1534 4219 1204 4116 
Q 875 4013 500 3803 
L 500 4441 
Q 881 4594 1212 4672 
Q 1544 4750 1819 4750 
Q 2544 4750 2975 4387 
Q 3406 4025 3406 3419 
Q 3406 3131 3298 2873 
Q 3191 2616 2906 2266 
Q 2828 2175 2409 1742 
Q 1991 1309 1228 531 
z
" transform="scale(0.015625)"/>
       </defs>
       <use xlink:href="#DejaVuSans-32"/>
      </g>
     </g>
    </g>
    <g id="xtick_3">
     <g id="line2d_3">
      <g>
       <use xlink:href="#m8f1de1206a" x="525.377981" y="128.528148" style="stroke: #000000; stroke-width: 0.8"/>
      </g>
     </g>
     <g id="text_3">
      <!-- 4 -->
      <g transform="translate(522.196731 143.126585) scale(0.1 -0.1)">
       <defs>
        <path id="DejaVuSans-34" d="M 2419 4116 
L 825 1625 
L 2419 1625 
L 2419 4116 
z
M 2253 4666 
L 3047 4666 
L 3047 1625 
L 3713 1625 
L 3713 1100 
L 3047 1100 
L 3047 0 
L 2419 0 
L 2419 1100 
L 313 1100 
L 313 1709 
L 2253 4666 
z
" transform="scale(0.015625)"/>
       </defs>
       <use xlink:href="#DejaVuSans-34"/>
      </g>
     </g>
    </g>
    <g id="xtick_4">
     <g id="line2d_4">
      <g>
       <use xlink:href="#m8f1de1206a" x="703.383562" y="128.528148" style="stroke: #000000; stroke-width: 0.8"/>
      </g>
     </g>
     <g id="text_4">
      <!-- 6 -->
      <g transform="translate(700.202312 143.126585) scale(0.1 -0.1)">
       <defs>
        <path id="DejaVuSans-36" d="M 2113 2584 
Q 1688 2584 1439 2293 
Q 1191 2003 1191 1497 
Q 1191 994 1439 701 
Q 1688 409 2113 409 
Q 2538 409 2786 701 
Q 3034 994 3034 1497 
Q 3034 2003 2786 2293 
Q 2538 2584 2113 2584 
z
M 3366 4563 
L 3366 3988 
Q 3128 4100 2886 4159 
Q 2644 4219 2406 4219 
Q 1781 4219 1451 3797 
Q 1122 3375 1075 2522 
Q 1259 2794 1537 2939 
Q 1816 3084 2150 3084 
Q 2853 3084 3261 2657 
Q 3669 2231 3669 1497 
Q 3669 778 3244 343 
Q 2819 -91 2113 -91 
Q 1303 -91 875 529 
Q 447 1150 447 2328 
Q 447 3434 972 4092 
Q 1497 4750 2381 4750 
Q 2619 4750 2861 4703 
Q 3103 4656 3366 4563 
z
" transform="scale(0.015625)"/>
       </defs>
       <use xlink:href="#DejaVuSans-36"/>
      </g>
     </g>
    </g>
   </g>
   <g id="matplotlib.axis_2"/>
   <g id="line2d_5">
    <path d="M 77.804016 128.528148 
L 77.804016 20.214138 
" clip-path="url(#p393f2d3638)" style="fill: none; stroke: #000000; stroke-width: 1.5; stroke-linecap: square"/>
   </g>
   <g id="line2d_6">
    <path d="M 167.361718 128.528148 
L 167.361718 20.214138 
" clip-path="url(#p393f2d3638)" style="fill: none; stroke: #000000; stroke-width: 1.5; stroke-linecap: square"/>
   </g>
   <g id="line2d_7">
    <path d="M 256.91942 128.528148 
L 256.91942 20.214138 
" clip-path="url(#p393f2d3638)" style="fill: none; stroke: #000000; stroke-width: 1.5; stroke-linecap: square"/>
   </g>
   <g id="line2d_8">
    <path d="M 346.477122 128.528148 
L 346.477122 20.214138 
" clip-path="url(#p393f2d3638)" style="fill: none; stroke: #000000; stroke-width: 1.5; stroke-linecap: square"/>
   </g>
   <g id="line2d_9">
    <path d="M 436.034824 128.528148 
L 436.034824 20.214138 
" clip-path="url(#p393f2d3638)" style="fill: none; stroke: #000000; stroke-width: 1.5; stroke-linecap: square"/>
   </g>
   <g id="line2d_10">
    <path d="M 525.592525 128.528148 
L 525.592525 20.214138 
" clip-path="url(#p393f2d3638)" style="fill: none; stroke: #000000; stroke-width: 1.5; stroke-linecap: square"/>
   </g>
   <g id="line2d_11">
    <path d="M 615.150227 128.528148 
L 615.150227 20.214138 
" clip-path="url(#p393f2d3638)" style="fill: none; stroke: #000000; stroke-width: 1.5; stroke-linecap: square"/>
   </g>
   <g id="line2d_12">
    <path d="M 704.707929 128.528148 
L 704.707929 20.214138 
" clip-path="url(#p393f2d3638)" style="fill: none; stroke: #000000; stroke-width: 1.5; stroke-linecap: square"/>
   </g>
   <g id="line2d_13">
    <path d="M 794.265631 128.528148 
L 794.265631 20.214138 
" clip-path="url(#p393f2d3638)" style="fill: none; stroke: #000000; stroke-width: 1.5; stroke-linecap: square"/>
   </g>
   <g id="line2d_14">
    <path d="M 27.809038 128.528148 
L 27.809038 20.214138 
" clip-path="url(#p393f2d3638)" style="fill: none; stroke: #ff0000; stroke-width: 1.5; stroke-linecap: square"/>
   </g>
   <g id="line2d_15">
    <path d="M 848.376 128.528148 
L 848.376 20.214138 
" clip-path="url(#p393f2d3638)" style="fill: none; stroke: #ff0000; stroke-width: 1.5; stroke-linecap: square"/>
   </g>
   <g id="patch_3">
    <path d="M 7.2 128.528148 
L 7.2 20.214138 
" style="fill: none; stroke: #000000; stroke-width: 0.8; stroke-linejoin: miter; stroke-linecap: square"/>
   </g>
   <g id="patch_4">
    <path d="M 865.19952 128.528148 
L 865.19952 20.214138 
" style="fill: none; stroke: #000000; stroke-width: 0.8; stroke-linejoin: miter; stroke-linecap: square"/>
   </g>
   <g id="patch_5">
    <path d="M 7.2 128.528148 
L 865.19952 128.528148 
" style="fill: none; stroke: #000000; stroke-width: 0.8; stroke-linejoin: miter; stroke-linecap: square"/>
   </g>
   <g id="patch_6">
    <path d="M 7.2 20.214138 
L 865.19952 20.214138 
" style="fill: none; stroke: #000000; stroke-width: 0.8; stroke-linejoin: miter; stroke-linecap: square"/>
   </g>
   <g id="text_5">
    <g id="patch_7">
     <path d="M 26.809038 104.10708 
L 26.809038 44.635205 
Q 26.809038 44.635205 26.809038 44.635205 
L 17.130913 44.635205 
Q 17.130913 44.635205 17.130913 44.635205 
L 17.130913 104.10708 
Q 17.130913 104.10708 17.130913 104.10708 
L 26.809038 104.10708 
Q 26.809038 104.10708 26.809038 104.10708 
z
" style="fill: #ffffff"/>
    </g>
    <!-- min=-1.590 -->
    <g transform="translate(24.729351 104.10708) rotate(-90) scale(0.1 -0.1)">
     <defs>
      <path id="DejaVuSans-6d" d="M 3328 2828 
Q 3544 3216 3844 3400 
Q 4144 3584 4550 3584 
Q 5097 3584 5394 3201 
Q 5691 2819 5691 2113 
L 5691 0 
L 5113 0 
L 5113 2094 
Q 5113 2597 4934 2840 
Q 4756 3084 4391 3084 
Q 3944 3084 3684 2787 
Q 3425 2491 3425 1978 
L 3425 0 
L 2847 0 
L 2847 2094 
Q 2847 2600 2669 2842 
Q 2491 3084 2119 3084 
Q 1678 3084 1418 2786 
Q 1159 2488 1159 1978 
L 1159 0 
L 581 0 
L 581 3500 
L 1159 3500 
L 1159 2956 
Q 1356 3278 1631 3431 
Q 1906 3584 2284 3584 
Q 2666 3584 2933 3390 
Q 3200 3197 3328 2828 
z
" transform="scale(0.015625)"/>
      <path id="DejaVuSans-69" d="M 603 3500 
L 1178 3500 
L 1178 0 
L 603 0 
L 603 3500 
z
M 603 4863 
L 1178 4863 
L 1178 4134 
L 603 4134 
L 603 4863 
z
" transform="scale(0.015625)"/>
      <path id="DejaVuSans-6e" d="M 3513 2113 
L 3513 0 
L 2938 0 
L 2938 2094 
Q 2938 2591 2744 2837 
Q 2550 3084 2163 3084 
Q 1697 3084 1428 2787 
Q 1159 2491 1159 1978 
L 1159 0 
L 581 0 
L 581 3500 
L 1159 3500 
L 1159 2956 
Q 1366 3272 1645 3428 
Q 1925 3584 2291 3584 
Q 2894 3584 3203 3211 
Q 3513 2838 3513 2113 
z
" transform="scale(0.015625)"/>
      <path id="DejaVuSans-3d" d="M 678 2906 
L 4684 2906 
L 4684 2381 
L 678 2381 
L 678 2906 
z
M 678 1631 
L 4684 1631 
L 4684 1100 
L 678 1100 
L 678 1631 
z
" transform="scale(0.015625)"/>
      <path id="DejaVuSans-2d" d="M 313 2009 
L 1997 2009 
L 1997 1497 
L 313 1497 
L 313 2009 
z
" transform="scale(0.015625)"/>
      <path id="DejaVuSans-31" d="M 794 531 
L 1825 531 
L 1825 4091 
L 703 3866 
L 703 4441 
L 1819 4666 
L 2450 4666 
L 2450 531 
L 3481 531 
L 3481 0 
L 794 0 
L 794 531 
z
" transform="scale(0.015625)"/>
      <path id="DejaVuSans-2e" d="M 684 794 
L 1344 794 
L 1344 0 
L 684 0 
L 684 794 
z
" transform="scale(0.015625)"/>
      <path id="DejaVuSans-35" d="M 691 4666 
L 3169 4666 
L 3169 4134 
L 1269 4134 
L 1269 2991 
Q 1406 3038 1543 3061 
Q 1681 3084 1819 3084 
Q 2600 3084 3056 2656 
Q 3513 2228 3513 1497 
Q 3513 744 3044 326 
Q 2575 -91 1722 -91 
Q 1428 -91 1123 -41 
Q 819 9 494 109 
L 494 744 
Q 775 591 1075 516 
Q 1375 441 1709 441 
Q 2250 441 2565 725 
Q 2881 1009 2881 1497 
Q 2881 1984 2565 2268 
Q 2250 2553 1709 2553 
Q 1456 2553 1204 2497 
Q 953 2441 691 2322 
L 691 4666 
z
" transform="scale(0.015625)"/>
      <path id="DejaVuSans-39" d="M 703 97 
L 703 672 
Q 941 559 1184 500 
Q 1428 441 1663 441 
Q 2288 441 2617 861 
Q 2947 1281 2994 2138 
Q 2813 1869 2534 1725 
Q 2256 1581 1919 1581 
Q 1219 1581 811 2004 
Q 403 2428 403 3163 
Q 403 3881 828 4315 
Q 1253 4750 1959 4750 
Q 2769 4750 3195 4129 
Q 3622 3509 3622 2328 
Q 3622 1225 3098 567 
Q 2575 -91 1691 -91 
Q 1453 -91 1209 -44 
Q 966 3 703 97 
z
M 1959 2075 
Q 2384 2075 2632 2365 
Q 2881 2656 2881 3163 
Q 2881 3666 2632 3958 
Q 2384 4250 1959 4250 
Q 1534 4250 1286 3958 
Q 1038 3666 1038 3163 
Q 1038 2656 1286 2365 
Q 1534 2075 1959 2075 
z
" transform="scale(0.015625)"/>
     </defs>
     <use xlink:href="#DejaVuSans-6d"/>
     <use xlink:href="#DejaVuSans-69" x="97.412109"/>
     <use xlink:href="#DejaVuSans-6e" x="125.195312"/>
     <use xlink:href="#DejaVuSans-3d" x="188.574219"/>
     <use xlink:href="#DejaVuSans-2d" x="272.363281"/>
     <use xlink:href="#DejaVuSans-31" x="308.447266"/>
     <use xlink:href="#DejaVuSans-2e" x="372.070312"/>
     <use xlink:href="#DejaVuSans-35" x="403.857422"/>
     <use xlink:href="#DejaVuSans-39" x="467.480469"/>
     <use xlink:href="#DejaVuSans-30" x="531.103516"/>
    </g>
   </g>
   <g id="text_6">
    <g id="patch_8">
     <path d="M 860.054125 103.768799 
L 860.054125 44.973487 
Q 860.054125 44.973487 860.054125 44.973487 
L 850.376 44.973487 
Q 850.376 44.973487 850.376 44.973487 
L 850.376 103.768799 
Q 850.376 103.768799 850.376 103.768799 
L 860.054125 103.768799 
Q 860.054125 103.768799 860.054125 103.768799 
z
" style="fill: #ffffff"/>
    </g>
    <!-- max=7.629 -->
    <g transform="translate(857.974438 103.768799) rotate(-90) scale(0.1 -0.1)">
     <defs>
      <path id="DejaVuSans-61" d="M 2194 1759 
Q 1497 1759 1228 1600 
Q 959 1441 959 1056 
Q 959 750 1161 570 
Q 1363 391 1709 391 
Q 2188 391 2477 730 
Q 2766 1069 2766 1631 
L 2766 1759 
L 2194 1759 
z
M 3341 1997 
L 3341 0 
L 2766 0 
L 2766 531 
Q 2569 213 2275 61 
Q 1981 -91 1556 -91 
Q 1019 -91 701 211 
Q 384 513 384 1019 
Q 384 1609 779 1909 
Q 1175 2209 1959 2209 
L 2766 2209 
L 2766 2266 
Q 2766 2663 2505 2880 
Q 2244 3097 1772 3097 
Q 1472 3097 1187 3025 
Q 903 2953 641 2809 
L 641 3341 
Q 956 3463 1253 3523 
Q 1550 3584 1831 3584 
Q 2591 3584 2966 3190 
Q 3341 2797 3341 1997 
z
" transform="scale(0.015625)"/>
      <path id="DejaVuSans-78" d="M 3513 3500 
L 2247 1797 
L 3578 0 
L 2900 0 
L 1881 1375 
L 863 0 
L 184 0 
L 1544 1831 
L 300 3500 
L 978 3500 
L 1906 2253 
L 2834 3500 
L 3513 3500 
z
" transform="scale(0.015625)"/>
      <path id="DejaVuSans-37" d="M 525 4666 
L 3525 4666 
L 3525 4397 
L 1831 0 
L 1172 0 
L 2766 4134 
L 525 4134 
L 525 4666 
z
" transform="scale(0.015625)"/>
     </defs>
     <use xlink:href="#DejaVuSans-6d"/>
     <use xlink:href="#DejaVuSans-61" x="97.412109"/>
     <use xlink:href="#DejaVuSans-78" x="158.691406"/>
     <use xlink:href="#DejaVuSans-3d" x="217.871094"/>
     <use xlink:href="#DejaVuSans-37" x="301.660156"/>
     <use xlink:href="#DejaVuSans-2e" x="365.283203"/>
     <use xlink:href="#DejaVuSans-36" x="397.070312"/>
     <use xlink:href="#DejaVuSans-32" x="460.693359"/>
     <use xlink:href="#DejaVuSans-39" x="524.316406"/>
    </g>
   </g>
   <g id="text_7">
    <!-- 10000 samples (μ=2.996, σ=1.006) of tensor[100000] x∈[-1.590, 7.629] μ=3.002 σ=1.006 -->
    <g transform="translate(7.2 14.798437) scale(0.1 -0.1)">
     <defs>
      <path id="DejaVuSans-20" transform="scale(0.015625)"/>
      <path id="DejaVuSans-73" d="M 2834 3397 
L 2834 2853 
Q 2591 2978 2328 3040 
Q 2066 3103 1784 3103 
Q 1356 3103 1142 2972 
Q 928 2841 928 2578 
Q 928 2378 1081 2264 
Q 1234 2150 1697 2047 
L 1894 2003 
Q 2506 1872 2764 1633 
Q 3022 1394 3022 966 
Q 3022 478 2636 193 
Q 2250 -91 1575 -91 
Q 1294 -91 989 -36 
Q 684 19 347 128 
L 347 722 
Q 666 556 975 473 
Q 1284 391 1588 391 
Q 1994 391 2212 530 
Q 2431 669 2431 922 
Q 2431 1156 2273 1281 
Q 2116 1406 1581 1522 
L 1381 1569 
Q 847 1681 609 1914 
Q 372 2147 372 2553 
Q 372 3047 722 3315 
Q 1072 3584 1716 3584 
Q 2034 3584 2315 3537 
Q 2597 3491 2834 3397 
z
" transform="scale(0.015625)"/>
      <path id="DejaVuSans-70" d="M 1159 525 
L 1159 -1331 
L 581 -1331 
L 581 3500 
L 1159 3500 
L 1159 2969 
Q 1341 3281 1617 3432 
Q 1894 3584 2278 3584 
Q 2916 3584 3314 3078 
Q 3713 2572 3713 1747 
Q 3713 922 3314 415 
Q 2916 -91 2278 -91 
Q 1894 -91 1617 61 
Q 1341 213 1159 525 
z
M 3116 1747 
Q 3116 2381 2855 2742 
Q 2594 3103 2138 3103 
Q 1681 3103 1420 2742 
Q 1159 2381 1159 1747 
Q 1159 1113 1420 752 
Q 1681 391 2138 391 
Q 2594 391 2855 752 
Q 3116 1113 3116 1747 
z
" transform="scale(0.015625)"/>
      <path id="DejaVuSans-6c" d="M 603 4863 
L 1178 4863 
L 1178 0 
L 603 0 
L 603 4863 
z
" transform="scale(0.015625)"/>
      <path id="DejaVuSans-65" d="M 3597 1894 
L 3597 1613 
L 953 1613 
Q 991 1019 1311 708 
Q 1631 397 2203 397 
Q 2534 397 2845 478 
Q 3156 559 3463 722 
L 3463 178 
Q 3153 47 2828 -22 
Q 2503 -91 2169 -91 
Q 1331 -91 842 396 
Q 353 884 353 1716 
Q 353 2575 817 3079 
Q 1281 3584 2069 3584 
Q 2775 3584 3186 3129 
Q 3597 2675 3597 1894 
z
M 3022 2063 
Q 3016 2534 2758 2815 
Q 2500 3097 2075 3097 
Q 1594 3097 1305 2825 
Q 1016 2553 972 2059 
L 3022 2063 
z
" transform="scale(0.015625)"/>
      <path id="DejaVuSans-28" d="M 1984 4856 
Q 1566 4138 1362 3434 
Q 1159 2731 1159 2009 
Q 1159 1288 1364 580 
Q 1569 -128 1984 -844 
L 1484 -844 
Q 1016 -109 783 600 
Q 550 1309 550 2009 
Q 550 2706 781 3412 
Q 1013 4119 1484 4856 
L 1984 4856 
z
" transform="scale(0.015625)"/>
      <path id="DejaVuSans-3bc" d="M 544 -1331 
L 544 3500 
L 1119 3500 
L 1119 1325 
Q 1119 872 1334 640 
Q 1550 409 1972 409 
Q 2434 409 2667 671 
Q 2900 934 2900 1459 
L 2900 3500 
L 3475 3500 
L 3475 806 
Q 3475 619 3529 530 
Q 3584 441 3700 441 
Q 3728 441 3778 458 
Q 3828 475 3916 513 
L 3916 50 
Q 3788 -22 3673 -56 
Q 3559 -91 3450 -91 
Q 3234 -91 3106 31 
Q 2978 153 2931 403 
Q 2775 156 2548 32 
Q 2322 -91 2016 -91 
Q 1697 -91 1473 31 
Q 1250 153 1119 397 
L 1119 -1331 
L 544 -1331 
z
" transform="scale(0.015625)"/>
      <path id="DejaVuSans-2c" d="M 750 794 
L 1409 794 
L 1409 256 
L 897 -744 
L 494 -744 
L 750 256 
L 750 794 
z
" transform="scale(0.015625)"/>
      <path id="DejaVuSans-3c3" d="M 1959 3044 
Q 1484 3044 1228 2700 
Q 959 2341 959 1747 
Q 959 1119 1226 758 
Q 1494 397 1959 397 
Q 2419 397 2687 759 
Q 2956 1122 2956 1747 
Q 2956 2319 2688 2700 
Q 2441 3044 1959 3044 
z
M 1959 3500 
L 3869 3500 
L 3869 2925 
L 3225 2925 
Q 3566 2438 3566 1747 
Q 3566 888 3138 400 
Q 2709 -91 1959 -91 
Q 1206 -91 781 400 
Q 353 888 353 1747 
Q 353 2613 781 3097 
Q 1134 3500 1959 3500 
z
" transform="scale(0.015625)"/>
      <path id="DejaVuSans-29" d="M 513 4856 
L 1013 4856 
Q 1481 4119 1714 3412 
Q 1947 2706 1947 2009 
Q 1947 1309 1714 600 
Q 1481 -109 1013 -844 
L 513 -844 
Q 928 -128 1133 580 
Q 1338 1288 1338 2009 
Q 1338 2731 1133 3434 
Q 928 4138 513 4856 
z
" transform="scale(0.015625)"/>
      <path id="DejaVuSans-6f" d="M 1959 3097 
Q 1497 3097 1228 2736 
Q 959 2375 959 1747 
Q 959 1119 1226 758 
Q 1494 397 1959 397 
Q 2419 397 2687 759 
Q 2956 1122 2956 1747 
Q 2956 2369 2687 2733 
Q 2419 3097 1959 3097 
z
M 1959 3584 
Q 2709 3584 3137 3096 
Q 3566 2609 3566 1747 
Q 3566 888 3137 398 
Q 2709 -91 1959 -91 
Q 1206 -91 779 398 
Q 353 888 353 1747 
Q 353 2609 779 3096 
Q 1206 3584 1959 3584 
z
" transform="scale(0.015625)"/>
      <path id="DejaVuSans-66" d="M 2375 4863 
L 2375 4384 
L 1825 4384 
Q 1516 4384 1395 4259 
Q 1275 4134 1275 3809 
L 1275 3500 
L 2222 3500 
L 2222 3053 
L 1275 3053 
L 1275 0 
L 697 0 
L 697 3053 
L 147 3053 
L 147 3500 
L 697 3500 
L 697 3744 
Q 697 4328 969 4595 
Q 1241 4863 1831 4863 
L 2375 4863 
z
" transform="scale(0.015625)"/>
      <path id="DejaVuSans-74" d="M 1172 4494 
L 1172 3500 
L 2356 3500 
L 2356 3053 
L 1172 3053 
L 1172 1153 
Q 1172 725 1289 603 
Q 1406 481 1766 481 
L 2356 481 
L 2356 0 
L 1766 0 
Q 1100 0 847 248 
Q 594 497 594 1153 
L 594 3053 
L 172 3053 
L 172 3500 
L 594 3500 
L 594 4494 
L 1172 4494 
z
" transform="scale(0.015625)"/>
      <path id="DejaVuSans-72" d="M 2631 2963 
Q 2534 3019 2420 3045 
Q 2306 3072 2169 3072 
Q 1681 3072 1420 2755 
Q 1159 2438 1159 1844 
L 1159 0 
L 581 0 
L 581 3500 
L 1159 3500 
L 1159 2956 
Q 1341 3275 1631 3429 
Q 1922 3584 2338 3584 
Q 2397 3584 2469 3576 
Q 2541 3569 2628 3553 
L 2631 2963 
z
" transform="scale(0.015625)"/>
      <path id="DejaVuSans-5b" d="M 550 4863 
L 1875 4863 
L 1875 4416 
L 1125 4416 
L 1125 -397 
L 1875 -397 
L 1875 -844 
L 550 -844 
L 550 4863 
z
" transform="scale(0.015625)"/>
      <path id="DejaVuSans-5d" d="M 1947 4863 
L 1947 -844 
L 622 -844 
L 622 -397 
L 1369 -397 
L 1369 4416 
L 622 4416 
L 622 4863 
L 1947 4863 
z
" transform="scale(0.015625)"/>
      <path id="DejaVuSans-2208" d="M 1072 1959 
Q 1094 1728 1291 1353 
Q 1522 919 1959 675 
Q 2388 438 2850 434 
L 5028 434 
L 5028 -63 
L 2850 -63 
Q 2250 -63 1695 246 
Q 1141 556 844 1106 
Q 547 1656 547 2241 
Q 547 2819 844 3369 
Q 1141 3919 1695 4231 
Q 2250 4544 2850 4544 
L 5028 4544 
L 5028 4047 
L 2850 4047 
Q 2388 4044 1959 3803 
Q 1525 3556 1291 3125 
Q 1091 2750 1063 2459 
L 5028 2459 
L 5028 1959 
L 1072 1959 
z
" transform="scale(0.015625)"/>
      <path id="DejaVuSans-33" d="M 2597 2516 
Q 3050 2419 3304 2112 
Q 3559 1806 3559 1356 
Q 3559 666 3084 287 
Q 2609 -91 1734 -91 
Q 1441 -91 1130 -33 
Q 819 25 488 141 
L 488 750 
Q 750 597 1062 519 
Q 1375 441 1716 441 
Q 2309 441 2620 675 
Q 2931 909 2931 1356 
Q 2931 1769 2642 2001 
Q 2353 2234 1838 2234 
L 1294 2234 
L 1294 2753 
L 1863 2753 
Q 2328 2753 2575 2939 
Q 2822 3125 2822 3475 
Q 2822 3834 2567 4026 
Q 2313 4219 1838 4219 
Q 1578 4219 1281 4162 
Q 984 4106 628 3988 
L 628 4550 
Q 988 4650 1302 4700 
Q 1616 4750 1894 4750 
Q 2613 4750 3031 4423 
Q 3450 4097 3450 3541 
Q 3450 3153 3228 2886 
Q 3006 2619 2597 2516 
z
" transform="scale(0.015625)"/>
     </defs>
     <use xlink:href="#DejaVuSans-31"/>
     <use xlink:href="#DejaVuSans-30" x="63.623047"/>
     <use xlink:href="#DejaVuSans-30" x="127.246094"/>
     <use xlink:href="#DejaVuSans-30" x="190.869141"/>
     <use xlink:href="#DejaVuSans-30" x="254.492188"/>
     <use xlink:href="#DejaVuSans-20" x="318.115234"/>
     <use xlink:href="#DejaVuSans-73" x="349.902344"/>
     <use xlink:href="#DejaVuSans-61" x="402.001953"/>
     <use xlink:href="#DejaVuSans-6d" x="463.28125"/>
     <use xlink:href="#DejaVuSans-70" x="560.693359"/>
     <use xlink:href="#DejaVuSans-6c" x="624.169922"/>
     <use xlink:href="#DejaVuSans-65" x="651.953125"/>
     <use xlink:href="#DejaVuSans-73" x="713.476562"/>
     <use xlink:href="#DejaVuSans-20" x="765.576172"/>
     <use xlink:href="#DejaVuSans-28" x="797.363281"/>
     <use xlink:href="#DejaVuSans-3bc" x="836.376953"/>
     <use xlink:href="#DejaVuSans-3d" x="900"/>
     <use xlink:href="#DejaVuSans-32" x="983.789062"/>
     <use xlink:href="#DejaVuSans-2e" x="1047.412109"/>
     <use xlink:href="#DejaVuSans-39" x="1079.199219"/>
     <use xlink:href="#DejaVuSans-39" x="1142.822266"/>
     <use xlink:href="#DejaVuSans-36" x="1206.445312"/>
     <use xlink:href="#DejaVuSans-2c" x="1270.068359"/>
     <use xlink:href="#DejaVuSans-20" x="1301.855469"/>
     <use xlink:href="#DejaVuSans-3c3" x="1333.642578"/>
     <use xlink:href="#DejaVuSans-3d" x="1397.021484"/>
     <use xlink:href="#DejaVuSans-31" x="1480.810547"/>
     <use xlink:href="#DejaVuSans-2e" x="1544.433594"/>
     <use xlink:href="#DejaVuSans-30" x="1576.220703"/>
     <use xlink:href="#DejaVuSans-30" x="1639.84375"/>
     <use xlink:href="#DejaVuSans-36" x="1703.466797"/>
     <use xlink:href="#DejaVuSans-29" x="1767.089844"/>
     <use xlink:href="#DejaVuSans-20" x="1806.103516"/>
     <use xlink:href="#DejaVuSans-6f" x="1837.890625"/>
     <use xlink:href="#DejaVuSans-66" x="1899.072266"/>
     <use xlink:href="#DejaVuSans-20" x="1934.277344"/>
     <use xlink:href="#DejaVuSans-74" x="1966.064453"/>
     <use xlink:href="#DejaVuSans-65" x="2005.273438"/>
     <use xlink:href="#DejaVuSans-6e" x="2066.796875"/>
     <use xlink:href="#DejaVuSans-73" x="2130.175781"/>
     <use xlink:href="#DejaVuSans-6f" x="2182.275391"/>
     <use xlink:href="#DejaVuSans-72" x="2243.457031"/>
     <use xlink:href="#DejaVuSans-5b" x="2284.570312"/>
     <use xlink:href="#DejaVuSans-31" x="2323.583984"/>
     <use xlink:href="#DejaVuSans-30" x="2387.207031"/>
     <use xlink:href="#DejaVuSans-30" x="2450.830078"/>
     <use xlink:href="#DejaVuSans-30" x="2514.453125"/>
     <use xlink:href="#DejaVuSans-30" x="2578.076172"/>
     <use xlink:href="#DejaVuSans-30" x="2641.699219"/>
     <use xlink:href="#DejaVuSans-5d" x="2705.322266"/>
     <use xlink:href="#DejaVuSans-20" x="2744.335938"/>
     <use xlink:href="#DejaVuSans-78" x="2776.123047"/>
     <use xlink:href="#DejaVuSans-2208" x="2835.302734"/>
     <use xlink:href="#DejaVuSans-5b" x="2922.412109"/>
     <use xlink:href="#DejaVuSans-2d" x="2961.425781"/>
     <use xlink:href="#DejaVuSans-31" x="2997.509766"/>
     <use xlink:href="#DejaVuSans-2e" x="3061.132812"/>
     <use xlink:href="#DejaVuSans-35" x="3092.919922"/>
     <use xlink:href="#DejaVuSans-39" x="3156.542969"/>
     <use xlink:href="#DejaVuSans-30" x="3220.166016"/>
     <use xlink:href="#DejaVuSans-2c" x="3283.789062"/>
     <use xlink:href="#DejaVuSans-20" x="3315.576172"/>
     <use xlink:href="#DejaVuSans-37" x="3347.363281"/>
     <use xlink:href="#DejaVuSans-2e" x="3410.986328"/>
     <use xlink:href="#DejaVuSans-36" x="3442.773438"/>
     <use xlink:href="#DejaVuSans-32" x="3506.396484"/>
     <use xlink:href="#DejaVuSans-39" x="3570.019531"/>
     <use xlink:href="#DejaVuSans-5d" x="3633.642578"/>
     <use xlink:href="#DejaVuSans-20" x="3672.65625"/>
     <use xlink:href="#DejaVuSans-3bc" x="3704.443359"/>
     <use xlink:href="#DejaVuSans-3d" x="3768.066406"/>
     <use xlink:href="#DejaVuSans-33" x="3851.855469"/>
     <use xlink:href="#DejaVuSans-2e" x="3915.478516"/>
     <use xlink:href="#DejaVuSans-30" x="3947.265625"/>
     <use xlink:href="#DejaVuSans-30" x="4010.888672"/>
     <use xlink:href="#DejaVuSans-32" x="4074.511719"/>
     <use xlink:href="#DejaVuSans-20" x="4138.134766"/>
     <use xlink:href="#DejaVuSans-3c3" x="4169.921875"/>
     <use xlink:href="#DejaVuSans-3d" x="4233.300781"/>
     <use xlink:href="#DejaVuSans-31" x="4317.089844"/>
     <use xlink:href="#DejaVuSans-2e" x="4380.712891"/>
     <use xlink:href="#DejaVuSans-30" x="4412.5"/>
     <use xlink:href="#DejaVuSans-30" x="4476.123047"/>
     <use xlink:href="#DejaVuSans-36" x="4539.746094"/>
    </g>
   </g>
   <g id="patch_9">
    <path d="M 54.99795 128.528148 
L 63.550522 128.528148 
L 63.550522 128.33366 
L 54.99795 128.33366 
z
" clip-path="url(#p393f2d3638)" style="fill: #00bfff"/>
   </g>
   <g id="patch_10">
    <path d="M 63.550522 128.528148 
L 72.103104 128.528148 
L 72.103104 128.528148 
L 63.550522 128.528148 
z
" clip-path="url(#p393f2d3638)" style="fill: #00bfff"/>
   </g>
   <g id="patch_11">
    <path d="M 72.103104 128.528148 
L 80.655676 128.528148 
L 80.655676 128.528148 
L 72.103104 128.528148 
z
" clip-path="url(#p393f2d3638)" style="fill: #00bfff"/>
   </g>
   <g id="patch_12">
    <path d="M 80.655676 128.528148 
L 89.208253 128.528148 
L 89.208253 128.528148 
L 80.655676 128.528148 
z
" clip-path="url(#p393f2d3638)" style="fill: #00bfff"/>
   </g>
   <g id="patch_13">
    <path d="M 89.208253 128.528148 
L 97.760829 128.528148 
L 97.760829 128.528148 
L 89.208253 128.528148 
z
" clip-path="url(#p393f2d3638)" style="fill: #00bfff"/>
   </g>
   <g id="patch_14">
    <path d="M 97.760829 128.528148 
L 106.313401 128.528148 
L 106.313401 128.528148 
L 97.760829 128.528148 
z
" clip-path="url(#p393f2d3638)" style="fill: #00bfff"/>
   </g>
   <g id="patch_15">
    <path d="M 106.313401 128.528148 
L 114.865978 128.528148 
L 114.865978 128.528148 
L 106.313401 128.528148 
z
" clip-path="url(#p393f2d3638)" style="fill: #00bfff"/>
   </g>
   <g id="patch_16">
    <path d="M 114.865978 128.528148 
L 123.418555 128.528148 
L 123.418555 128.528148 
L 114.865978 128.528148 
z
" clip-path="url(#p393f2d3638)" style="fill: #00bfff"/>
   </g>
   <g id="patch_17">
    <path d="M 123.418555 128.528148 
L 131.971129 128.528148 
L 131.971129 127.944684 
L 123.418555 127.944684 
z
" clip-path="url(#p393f2d3638)" style="fill: #00bfff"/>
   </g>
   <g id="patch_18">
    <path d="M 131.971129 128.528148 
L 140.523706 128.528148 
L 140.523706 128.139172 
L 131.971129 128.139172 
z
" clip-path="url(#p393f2d3638)" style="fill: #00bfff"/>
   </g>
   <g id="patch_19">
    <path d="M 140.523706 128.528148 
L 149.07628 128.528148 
L 149.07628 127.944684 
L 140.523706 127.944684 
z
" clip-path="url(#p393f2d3638)" style="fill: #00bfff"/>
   </g>
   <g id="patch_20">
    <path d="M 149.07628 128.528148 
L 157.628856 128.528148 
L 157.628856 128.33366 
L 149.07628 128.33366 
z
" clip-path="url(#p393f2d3638)" style="fill: #00bfff"/>
   </g>
   <g id="patch_21">
    <path d="M 157.628856 128.528148 
L 166.181431 128.528148 
L 166.181431 127.944684 
L 157.628856 127.944684 
z
" clip-path="url(#p393f2d3638)" style="fill: #00bfff"/>
   </g>
   <g id="patch_22">
    <path d="M 166.181431 128.528148 
L 174.734007 128.528148 
L 174.734007 127.944684 
L 166.181431 127.944684 
z
" clip-path="url(#p393f2d3638)" style="fill: #00bfff"/>
   </g>
   <g id="patch_23">
    <path d="M 174.734007 128.528148 
L 183.286582 128.528148 
L 183.286582 127.944684 
L 174.734007 127.944684 
z
" clip-path="url(#p393f2d3638)" style="fill: #00bfff"/>
   </g>
   <g id="patch_24">
    <path d="M 183.286582 128.528148 
L 191.839157 128.528148 
L 191.839157 127.166733 
L 183.286582 127.166733 
z
" clip-path="url(#p393f2d3638)" style="fill: #00bfff"/>
   </g>
   <g id="patch_25">
    <path d="M 191.839157 128.528148 
L 200.391734 128.528148 
L 200.391734 126.583271 
L 191.839157 126.583271 
z
" clip-path="url(#p393f2d3638)" style="fill: #00bfff"/>
   </g>
   <g id="patch_26">
    <path d="M 200.391734 128.528148 
L 208.944308 128.528148 
L 208.944308 125.221856 
L 200.391734 125.221856 
z
" clip-path="url(#p393f2d3638)" style="fill: #00bfff"/>
   </g>
   <g id="patch_27">
    <path d="M 208.944308 128.528148 
L 217.496885 128.528148 
L 217.496885 125.221857 
L 208.944308 125.221857 
z
" clip-path="url(#p393f2d3638)" style="fill: #00bfff"/>
   </g>
   <g id="patch_28">
    <path d="M 217.496885 128.528148 
L 226.049462 128.528148 
L 226.049462 124.832882 
L 217.496885 124.832882 
z
" clip-path="url(#p393f2d3638)" style="fill: #00bfff"/>
   </g>
   <g id="patch_29">
    <path d="M 226.049462 128.528148 
L 234.602033 128.528148 
L 234.602033 121.721075 
L 226.049462 121.721075 
z
" clip-path="url(#p393f2d3638)" style="fill: #00bfff"/>
   </g>
   <g id="patch_30">
    <path d="M 234.602033 128.528148 
L 243.15461 128.528148 
L 243.15461 121.332104 
L 234.602033 121.332104 
z
" clip-path="url(#p393f2d3638)" style="fill: #00bfff"/>
   </g>
   <g id="patch_31">
    <path d="M 243.15461 128.528148 
L 251.707187 128.528148 
L 251.707187 121.137616 
L 243.15461 121.137616 
z
" clip-path="url(#p393f2d3638)" style="fill: #00bfff"/>
   </g>
   <g id="patch_32">
    <path d="M 251.707187 128.528148 
L 260.259764 128.528148 
L 260.259764 116.858887 
L 251.707187 116.858887 
z
" clip-path="url(#p393f2d3638)" style="fill: #00bfff"/>
   </g>
   <g id="patch_33">
    <path d="M 260.259764 128.528148 
L 268.812335 128.528148 
L 268.812335 115.10849 
L 260.259764 115.10849 
z
" clip-path="url(#p393f2d3638)" style="fill: #00bfff"/>
   </g>
   <g id="patch_34">
    <path d="M 268.812335 128.528148 
L 277.364918 128.528148 
L 277.364918 115.302994 
L 268.812335 115.302994 
z
" clip-path="url(#p393f2d3638)" style="fill: #00bfff"/>
   </g>
   <g id="patch_35">
    <path d="M 277.364918 128.528148 
L 285.917489 128.528148 
L 285.917489 111.802197 
L 277.364918 111.802197 
z
" clip-path="url(#p393f2d3638)" style="fill: #00bfff"/>
   </g>
   <g id="patch_36">
    <path d="M 285.917489 128.528148 
L 294.470061 128.528148 
L 294.470061 107.523466 
L 285.917489 107.523466 
z
" clip-path="url(#p393f2d3638)" style="fill: #00bfff"/>
   </g>
   <g id="patch_37">
    <path d="M 294.470061 128.528148 
L 303.022643 128.528148 
L 303.022643 104.995153 
L 294.470061 104.995153 
z
" clip-path="url(#p393f2d3638)" style="fill: #00bfff"/>
   </g>
   <g id="patch_38">
    <path d="M 303.022643 128.528148 
L 311.575214 128.528148 
L 311.575214 101.494344 
L 303.022643 101.494344 
z
" clip-path="url(#p393f2d3638)" style="fill: #00bfff"/>
   </g>
   <g id="patch_39">
    <path d="M 311.575214 128.528148 
L 320.127786 128.528148 
L 320.127786 95.65971 
L 311.575214 95.65971 
z
" clip-path="url(#p393f2d3638)" style="fill: #00bfff"/>
   </g>
   <g id="patch_40">
    <path d="M 320.127786 128.528148 
L 328.680368 128.528148 
L 328.680368 91.77 
L 320.127786 91.77 
z
" clip-path="url(#p393f2d3638)" style="fill: #00bfff"/>
   </g>
   <g id="patch_41">
    <path d="M 328.680368 128.528148 
L 337.23294 128.528148 
L 337.23294 92.547905 
L 328.680368 92.547905 
z
" clip-path="url(#p393f2d3638)" style="fill: #00bfff"/>
   </g>
   <g id="patch_42">
    <path d="M 337.23294 128.528148 
L 345.785511 128.528148 
L 345.785511 87.880198 
L 337.23294 87.880198 
z
" clip-path="url(#p393f2d3638)" style="fill: #00bfff"/>
   </g>
   <g id="patch_43">
    <path d="M 345.785511 128.528148 
L 354.338094 128.528148 
L 354.338094 86.907811 
L 345.785511 86.907811 
z
" clip-path="url(#p393f2d3638)" style="fill: #00bfff"/>
   </g>
   <g id="patch_44">
    <path d="M 354.338094 128.528148 
L 362.890676 128.528148 
L 362.890676 77.183433 
L 354.338094 77.183433 
z
" clip-path="url(#p393f2d3638)" style="fill: #00bfff"/>
   </g>
   <g id="patch_45">
    <path d="M 362.890676 128.528148 
L 371.443237 128.528148 
L 371.443237 70.959688 
L 362.890676 70.959688 
z
" clip-path="url(#p393f2d3638)" style="fill: #00bfff"/>
   </g>
   <g id="patch_46">
    <path d="M 371.443237 128.528148 
L 379.995819 128.528148 
L 379.995819 70.959831 
L 371.443237 70.959831 
z
" clip-path="url(#p393f2d3638)" style="fill: #00bfff"/>
   </g>
   <g id="patch_47">
    <path d="M 379.995819 128.528148 
L 388.548401 128.528148 
L 388.548401 67.264568 
L 379.995819 67.264568 
z
" clip-path="url(#p393f2d3638)" style="fill: #00bfff"/>
   </g>
   <g id="patch_48">
    <path d="M 388.548401 128.528148 
L 397.100962 128.528148 
L 397.100962 65.125047 
L 388.548401 65.125047 
z
" clip-path="url(#p393f2d3638)" style="fill: #00bfff"/>
   </g>
   <g id="patch_49">
    <path d="M 397.100962 128.528148 
L 405.653544 128.528148 
L 405.653544 64.736229 
L 397.100962 64.736229 
z
" clip-path="url(#p393f2d3638)" style="fill: #00bfff"/>
   </g>
   <g id="patch_50">
    <path d="M 405.653544 128.528148 
L 414.206126 128.528148 
L 414.206126 61.624428 
L 405.653544 61.624428 
z
" clip-path="url(#p393f2d3638)" style="fill: #00bfff"/>
   </g>
   <g id="patch_51">
    <path d="M 414.206126 128.528148 
L 422.758687 128.528148 
L 422.758687 54.039229 
L 414.206126 54.039229 
z
" clip-path="url(#p393f2d3638)" style="fill: #00bfff"/>
   </g>
   <g id="patch_52">
    <path d="M 422.758687 128.528148 
L 431.31127 128.528148 
L 431.31127 53.066976 
L 422.758687 53.066976 
z
" clip-path="url(#p393f2d3638)" style="fill: #00bfff"/>
   </g>
   <g id="patch_53">
    <path d="M 431.31127 128.528148 
L 439.863852 128.528148 
L 439.863852 61.429941 
L 431.31127 61.429941 
z
" clip-path="url(#p393f2d3638)" style="fill: #00bfff"/>
   </g>
   <g id="patch_54">
    <path d="M 439.863852 128.528148 
L 448.416413 128.528148 
L 448.416413 57.92899 
L 439.863852 57.92899 
z
" clip-path="url(#p393f2d3638)" style="fill: #00bfff"/>
   </g>
   <g id="patch_55">
    <path d="M 448.416413 128.528148 
L 456.968995 128.528148 
L 456.968995 55.595314 
L 448.416413 55.595314 
z
" clip-path="url(#p393f2d3638)" style="fill: #00bfff"/>
   </g>
   <g id="patch_56">
    <path d="M 456.968995 128.528148 
L 465.521577 128.528148 
L 465.521577 49.177225 
L 456.968995 49.177225 
z
" clip-path="url(#p393f2d3638)" style="fill: #00bfff"/>
   </g>
   <g id="patch_57">
    <path d="M 465.521577 128.528148 
L 474.074138 128.528148 
L 474.074138 56.373085 
L 465.521577 56.373085 
z
" clip-path="url(#p393f2d3638)" style="fill: #00bfff"/>
   </g>
   <g id="patch_58">
    <path d="M 474.074138 128.528148 
L 482.62672 128.528148 
L 482.62672 56.762239 
L 474.074138 56.762239 
z
" clip-path="url(#p393f2d3638)" style="fill: #00bfff"/>
   </g>
   <g id="patch_59">
    <path d="M 482.62672 128.528148 
L 491.179302 128.528148 
L 491.179302 68.820468 
L 482.62672 68.820468 
z
" clip-path="url(#p393f2d3638)" style="fill: #00bfff"/>
   </g>
   <g id="patch_60">
    <path d="M 491.179302 128.528148 
L 499.731885 128.528148 
L 499.731885 68.820468 
L 491.179302 68.820468 
z
" clip-path="url(#p393f2d3638)" style="fill: #00bfff"/>
   </g>
   <g id="patch_61">
    <path d="M 499.731885 128.528148 
L 508.284446 128.528148 
L 508.284446 68.625832 
L 499.731885 68.625832 
z
" clip-path="url(#p393f2d3638)" style="fill: #00bfff"/>
   </g>
   <g id="patch_62">
    <path d="M 508.284446 128.528148 
L 516.837028 128.528148 
L 516.837028 80.489721 
L 508.284446 80.489721 
z
" clip-path="url(#p393f2d3638)" style="fill: #00bfff"/>
   </g>
   <g id="patch_63">
    <path d="M 516.837028 128.528148 
L 525.38961 128.528148 
L 525.38961 78.350358 
L 516.837028 78.350358 
z
" clip-path="url(#p393f2d3638)" style="fill: #00bfff"/>
   </g>
   <g id="patch_64">
    <path d="M 525.38961 128.528148 
L 533.942171 128.528148 
L 533.942171 87.296683 
L 525.38961 87.296683 
z
" clip-path="url(#p393f2d3638)" style="fill: #00bfff"/>
   </g>
   <g id="patch_65">
    <path d="M 533.942171 128.528148 
L 542.494732 128.528148 
L 542.494732 87.68566 
L 533.942171 87.68566 
z
" clip-path="url(#p393f2d3638)" style="fill: #00bfff"/>
   </g>
   <g id="patch_66">
    <path d="M 542.494732 128.528148 
L 551.047335 128.528148 
L 551.047335 95.465345 
L 542.494732 95.465345 
z
" clip-path="url(#p393f2d3638)" style="fill: #00bfff"/>
   </g>
   <g id="patch_67">
    <path d="M 551.047335 128.528148 
L 559.599896 128.528148 
L 559.599896 94.687229 
L 551.047335 94.687229 
z
" clip-path="url(#p393f2d3638)" style="fill: #00bfff"/>
   </g>
   <g id="patch_68">
    <path d="M 559.599896 128.528148 
L 568.152457 128.528148 
L 568.152457 101.105334 
L 559.599896 101.105334 
z
" clip-path="url(#p393f2d3638)" style="fill: #00bfff"/>
   </g>
   <g id="patch_69">
    <path d="M 568.152457 128.528148 
L 576.705061 128.528148 
L 576.705061 103.828289 
L 568.152457 103.828289 
z
" clip-path="url(#p393f2d3638)" style="fill: #00bfff"/>
   </g>
   <g id="patch_70">
    <path d="M 576.705061 128.528148 
L 585.257622 128.528148 
L 585.257622 110.635248 
L 576.705061 110.635248 
z
" clip-path="url(#p393f2d3638)" style="fill: #00bfff"/>
   </g>
   <g id="patch_71">
    <path d="M 585.257622 128.528148 
L 593.810225 128.528148 
L 593.810225 111.607772 
L 585.257622 111.607772 
z
" clip-path="url(#p393f2d3638)" style="fill: #00bfff"/>
   </g>
   <g id="patch_72">
    <path d="M 593.810225 128.528148 
L 602.362786 128.528148 
L 602.362786 114.330521 
L 593.810225 114.330521 
z
" clip-path="url(#p393f2d3638)" style="fill: #00bfff"/>
   </g>
   <g id="patch_73">
    <path d="M 602.362786 128.528148 
L 610.915347 128.528148 
L 610.915347 118.803746 
L 602.362786 118.803746 
z
" clip-path="url(#p393f2d3638)" style="fill: #00bfff"/>
   </g>
   <g id="patch_74">
    <path d="M 610.915347 128.528148 
L 619.46795 128.528148 
L 619.46795 117.05341 
L 610.915347 117.05341 
z
" clip-path="url(#p393f2d3638)" style="fill: #00bfff"/>
   </g>
   <g id="patch_75">
    <path d="M 619.46795 128.528148 
L 628.020511 128.528148 
L 628.020511 121.33209 
L 619.46795 121.33209 
z
" clip-path="url(#p393f2d3638)" style="fill: #00bfff"/>
   </g>
   <g id="patch_76">
    <path d="M 628.020511 128.528148 
L 636.573072 128.528148 
L 636.573072 122.110042 
L 628.020511 122.110042 
z
" clip-path="url(#p393f2d3638)" style="fill: #00bfff"/>
   </g>
   <g id="patch_77">
    <path d="M 636.573072 128.528148 
L 645.125676 128.528148 
L 645.125676 122.499048 
L 636.573072 122.499048 
z
" clip-path="url(#p393f2d3638)" style="fill: #00bfff"/>
   </g>
   <g id="patch_78">
    <path d="M 645.125676 128.528148 
L 653.678237 128.528148 
L 653.678237 123.276971 
L 645.125676 123.276971 
z
" clip-path="url(#p393f2d3638)" style="fill: #00bfff"/>
   </g>
   <g id="patch_79">
    <path d="M 653.678237 128.528148 
L 662.230798 128.528148 
L 662.230798 125.610827 
L 653.678237 125.610827 
z
" clip-path="url(#p393f2d3638)" style="fill: #00bfff"/>
   </g>
   <g id="patch_80">
    <path d="M 662.230798 128.528148 
L 670.783401 128.528148 
L 670.783401 125.416354 
L 662.230798 125.416354 
z
" clip-path="url(#p393f2d3638)" style="fill: #00bfff"/>
   </g>
   <g id="patch_81">
    <path d="M 670.783401 128.528148 
L 679.335962 128.528148 
L 679.335962 127.750195 
L 670.783401 127.750195 
z
" clip-path="url(#p393f2d3638)" style="fill: #00bfff"/>
   </g>
   <g id="patch_82">
    <path d="M 679.335962 128.528148 
L 687.888523 128.528148 
L 687.888523 127.555707 
L 679.335962 127.555707 
z
" clip-path="url(#p393f2d3638)" style="fill: #00bfff"/>
   </g>
   <g id="patch_83">
    <path d="M 687.888523 128.528148 
L 696.441126 128.528148 
L 696.441126 127.750199 
L 687.888523 127.750199 
z
" clip-path="url(#p393f2d3638)" style="fill: #00bfff"/>
   </g>
   <g id="patch_84">
    <path d="M 696.441126 128.528148 
L 704.993687 128.528148 
L 704.993687 127.166731 
L 696.441126 127.166731 
z
" clip-path="url(#p393f2d3638)" style="fill: #00bfff"/>
   </g>
   <g id="patch_85">
    <path d="M 704.993687 128.528148 
L 713.546248 128.528148 
L 713.546248 127.944683 
L 704.993687 127.944683 
z
" clip-path="url(#p393f2d3638)" style="fill: #00bfff"/>
   </g>
   <g id="patch_86">
    <path d="M 713.546248 128.528148 
L 722.098852 128.528148 
L 722.098852 127.944686 
L 713.546248 127.944686 
z
" clip-path="url(#p393f2d3638)" style="fill: #00bfff"/>
   </g>
   <g id="patch_87">
    <path d="M 722.098852 128.528148 
L 730.651413 128.528148 
L 730.651413 127.944683 
L 722.098852 127.944683 
z
" clip-path="url(#p393f2d3638)" style="fill: #00bfff"/>
   </g>
   <g id="patch_88">
    <path d="M 730.651413 128.528148 
L 739.203974 128.528148 
L 739.203974 128.139172 
L 730.651413 128.139172 
z
" clip-path="url(#p393f2d3638)" style="fill: #00bfff"/>
   </g>
   <g id="patch_89">
    <path d="M 739.203974 128.528148 
L 747.756577 128.528148 
L 747.756577 128.528148 
L 739.203974 128.528148 
z
" clip-path="url(#p393f2d3638)" style="fill: #00bfff"/>
   </g>
   <g id="patch_90">
    <path d="M 747.756577 128.528148 
L 756.309138 128.528148 
L 756.309138 128.33366 
L 747.756577 128.33366 
z
" clip-path="url(#p393f2d3638)" style="fill: #00bfff"/>
   </g>
   <g id="line2d_16">
    <path d="M 7.2 128.52737 
L 15.866662 128.526917 
L 24.533324 128.526219 
L 33.199985 128.525153 
L 41.866647 128.523541 
L 50.533309 128.521128 
L 59.199971 128.51755 
L 67.866633 128.512298 
L 76.533295 128.504665 
L 85.199956 128.493679 
L 93.866618 128.478026 
L 102.53328 128.455943 
L 111.199942 128.4251 
L 119.866604 128.382454 
L 128.533265 128.324078 
L 137.199927 128.244977 
L 145.866589 128.138877 
L 154.533251 127.998012 
L 163.199913 127.8129 
L 171.866575 127.572147 
L 180.533236 127.262266 
L 189.199898 126.867564 
L 197.86656 126.370098 
L 206.533222 125.749746 
L 215.199884 124.98441 
L 223.866545 124.050385 
L 232.533207 122.922918 
L 241.199869 121.576964 
L 249.866531 119.988165 
L 258.533193 118.134017 
L 267.199855 115.995228 
L 275.866516 113.557201 
L 284.533178 110.811596 
L 293.19984 107.757881 
L 301.866502 104.404785 
L 310.533164 100.771528 
L 319.199825 96.88875 
L 327.866487 92.79899 
L 336.533149 88.556664 
L 345.199811 84.227437 
L 353.866473 79.886975 
L 362.533135 75.619056 
L 371.199796 71.513099 
L 379.866458 67.661186 
L 388.53312 64.154715 
L 397.199782 61.080837 
L 405.866444 58.51888 
L 414.533105 56.536957 
L 423.199767 55.188958 
L 431.866429 54.512119 
L 440.533091 54.525309 
L 449.199753 55.22816 
L 457.866415 56.60108 
L 466.533076 58.606166 
L 475.199738 61.188936 
L 483.8664 64.280792 
L 492.533062 67.802045 
L 501.199724 71.665316 
L 509.866385 75.779116 
L 518.533047 80.051407 
L 527.199709 84.39293 
L 535.866371 88.720176 
L 544.533033 92.957829 
L 553.199695 97.040633 
L 561.866356 100.914617 
L 570.533018 104.537696 
L 579.19968 107.87968 
L 587.866342 110.921764 
L 596.533004 113.655598 
L 605.199665 116.082039 
L 613.866327 118.209692 
L 622.532989 120.053362 
L 631.199651 121.63249 
L 639.866313 122.969674 
L 648.532975 124.089319 
L 657.199636 125.016474 
L 665.866298 125.775866 
L 674.53296 126.391148 
L 683.199622 126.884348 
L 691.866284 127.275507 
L 700.532945 127.582484 
L 709.199607 127.820886 
L 717.866269 128.004118 
L 726.532931 128.143498 
L 735.199593 128.248438 
L 743.866255 128.326644 
L 752.532916 128.384337 
L 761.199578 128.426469 
L 769.86624 128.456927 
L 778.532902 128.478727 
L 787.199564 128.494173 
L 795.866225 128.50501 
L 804.532887 128.512537 
L 813.199549 128.517713 
L 821.866211 128.521238 
L 830.532873 128.523615 
L 839.199535 128.525202 
L 847.866196 128.526251 
L 856.532858 128.526938 
L 865.19952 128.527383 
" clip-path="url(#p393f2d3638)" style="fill: none; stroke: #1f77b4; stroke-width: 1.5; stroke-linecap: square"/>
   </g>
   <g id="text_8">
    <g id="patch_91">
     <path d="M 69.650109 38.307963 
L 85.957922 38.307963 
Q 88.957922 38.307963 88.957922 35.307963 
L 88.957922 25.629838 
Q 88.957922 22.629838 85.957922 22.629838 
L 69.650109 22.629838 
Q 66.650109 22.629838 66.650109 25.629838 
L 66.650109 35.307963 
Q 66.650109 38.307963 69.650109 38.307963 
z
" style="fill: #ffffff"/>
    </g>
    <!-- -4σ -->
    <g transform="translate(69.650109 33.228276) scale(0.1 -0.1)">
     <use xlink:href="#DejaVuSans-2d"/>
     <use xlink:href="#DejaVuSans-34" x="36.083984"/>
     <use xlink:href="#DejaVuSans-3c3" x="99.707031"/>
    </g>
   </g>
   <g id="text_9">
    <g id="patch_92">
     <path d="M 159.207811 38.307963 
L 175.515624 38.307963 
Q 178.515624 38.307963 178.515624 35.307963 
L 178.515624 25.629838 
Q 178.515624 22.629838 175.515624 22.629838 
L 159.207811 22.629838 
Q 156.207811 22.629838 156.207811 25.629838 
L 156.207811 35.307963 
Q 156.207811 38.307963 159.207811 38.307963 
z
" style="fill: #ffffff"/>
    </g>
    <!-- -3σ -->
    <g transform="translate(159.207811 33.228276) scale(0.1 -0.1)">
     <use xlink:href="#DejaVuSans-2d"/>
     <use xlink:href="#DejaVuSans-33" x="36.083984"/>
     <use xlink:href="#DejaVuSans-3c3" x="99.707031"/>
    </g>
   </g>
   <g id="text_10">
    <g id="patch_93">
     <path d="M 248.765513 38.307963 
L 265.073326 38.307963 
Q 268.073326 38.307963 268.073326 35.307963 
L 268.073326 25.629838 
Q 268.073326 22.629838 265.073326 22.629838 
L 248.765513 22.629838 
Q 245.765513 22.629838 245.765513 25.629838 
L 245.765513 35.307963 
Q 245.765513 38.307963 248.765513 38.307963 
z
" style="fill: #ffffff"/>
    </g>
    <!-- -2σ -->
    <g transform="translate(248.765513 33.228276) scale(0.1 -0.1)">
     <use xlink:href="#DejaVuSans-2d"/>
     <use xlink:href="#DejaVuSans-32" x="36.083984"/>
     <use xlink:href="#DejaVuSans-3c3" x="99.707031"/>
    </g>
   </g>
   <g id="text_11">
    <g id="patch_94">
     <path d="M 341.504465 38.307963 
L 351.449778 38.307963 
Q 354.449778 38.307963 354.449778 35.307963 
L 354.449778 25.629838 
Q 354.449778 22.629838 351.449778 22.629838 
L 341.504465 22.629838 
Q 338.504465 22.629838 338.504465 25.629838 
L 338.504465 35.307963 
Q 338.504465 38.307963 341.504465 38.307963 
z
" style="fill: #ffffff"/>
    </g>
    <!-- -σ -->
    <g transform="translate(341.504465 33.228276) scale(0.1 -0.1)">
     <use xlink:href="#DejaVuSans-2d"/>
     <use xlink:href="#DejaVuSans-3c3" x="36.083984"/>
    </g>
   </g>
   <g id="text_12">
    <g id="patch_95">
     <path d="M 432.355917 38.307963 
L 439.71373 38.307963 
Q 442.71373 38.307963 442.71373 35.307963 
L 442.71373 25.629838 
Q 442.71373 22.629838 439.71373 22.629838 
L 432.355917 22.629838 
Q 429.355917 22.629838 429.355917 25.629838 
L 429.355917 35.307963 
Q 429.355917 38.307963 432.355917 38.307963 
z
" style="fill: #ffffff"/>
    </g>
    <!-- μ -->
    <g transform="translate(432.355917 33.217338) scale(0.1 -0.1)">
     <defs>
      <path id="DejaVuSans-Bold-3bc" d="M 544 -1338 
L 544 3500 
L 1672 3500 
L 1672 1466 
Q 1672 1103 1828 926 
Q 1984 750 2303 750 
Q 2625 750 2781 926 
Q 2938 1103 2938 1466 
L 2938 3500 
L 4063 3500 
L 4063 1159 
Q 4063 938 4114 850 
Q 4166 763 4288 763 
Q 4344 763 4395 778 
Q 4447 794 4506 831 
L 4506 50 
Q 4341 -22 4195 -56 
Q 4050 -91 3909 -91 
Q 3631 -91 3454 26 
Q 3278 144 3169 403 
Q 3022 156 2811 32 
Q 2600 -91 2322 -91 
Q 2091 -91 1928 -17 
Q 1766 56 1672 206 
L 1672 -1338 
L 544 -1338 
z
" transform="scale(0.015625)"/>
     </defs>
     <use xlink:href="#DejaVuSans-Bold-3bc"/>
    </g>
   </g>
   <g id="text_13">
    <g id="patch_96">
     <path d="M 518.233932 38.307963 
L 532.951119 38.307963 
Q 535.951119 38.307963 535.951119 35.307963 
L 535.951119 25.629838 
Q 535.951119 22.629838 532.951119 22.629838 
L 518.233932 22.629838 
Q 515.233932 22.629838 515.233932 25.629838 
L 515.233932 35.307963 
Q 515.233932 38.307963 518.233932 38.307963 
z
" style="fill: #ffffff"/>
    </g>
    <!-- +σ -->
    <g transform="translate(518.233932 33.228276) scale(0.1 -0.1)">
     <defs>
      <path id="DejaVuSans-2b" d="M 2944 4013 
L 2944 2272 
L 4684 2272 
L 4684 1741 
L 2944 1741 
L 2944 0 
L 2419 0 
L 2419 1741 
L 678 1741 
L 678 2272 
L 2419 2272 
L 2419 4013 
L 2944 4013 
z
" transform="scale(0.015625)"/>
     </defs>
     <use xlink:href="#DejaVuSans-2b"/>
     <use xlink:href="#DejaVuSans-3c3" x="83.789062"/>
    </g>
   </g>
   <g id="text_14">
    <g id="patch_97">
     <path d="M 604.610384 38.307963 
L 625.690071 38.307963 
Q 628.690071 38.307963 628.690071 35.307963 
L 628.690071 25.629838 
Q 628.690071 22.629838 625.690071 22.629838 
L 604.610384 22.629838 
Q 601.610384 22.629838 601.610384 25.629838 
L 601.610384 35.307963 
Q 601.610384 38.307963 604.610384 38.307963 
z
" style="fill: #ffffff"/>
    </g>
    <!-- +2σ -->
    <g transform="translate(604.610384 33.228276) scale(0.1 -0.1)">
     <use xlink:href="#DejaVuSans-2b"/>
     <use xlink:href="#DejaVuSans-32" x="83.789062"/>
     <use xlink:href="#DejaVuSans-3c3" x="147.412109"/>
    </g>
   </g>
   <g id="text_15">
    <g id="patch_98">
     <path d="M 694.168086 38.307963 
L 715.247773 38.307963 
Q 718.247773 38.307963 718.247773 35.307963 
L 718.247773 25.629838 
Q 718.247773 22.629838 715.247773 22.629838 
L 694.168086 22.629838 
Q 691.168086 22.629838 691.168086 25.629838 
L 691.168086 35.307963 
Q 691.168086 38.307963 694.168086 38.307963 
z
" style="fill: #ffffff"/>
    </g>
    <!-- +3σ -->
    <g transform="translate(694.168086 33.228276) scale(0.1 -0.1)">
     <use xlink:href="#DejaVuSans-2b"/>
     <use xlink:href="#DejaVuSans-33" x="83.789062"/>
     <use xlink:href="#DejaVuSans-3c3" x="147.412109"/>
    </g>
   </g>
   <g id="text_16">
    <g id="patch_99">
     <path d="M 783.725788 38.307963 
L 804.805475 38.307963 
Q 807.805475 38.307963 807.805475 35.307963 
L 807.805475 25.629838 
Q 807.805475 22.629838 804.805475 22.629838 
L 783.725788 22.629838 
Q 780.725788 22.629838 780.725788 25.629838 
L 780.725788 35.307963 
Q 780.725788 38.307963 783.725788 38.307963 
z
" style="fill: #ffffff"/>
    </g>
    <!-- +4σ -->
    <g transform="translate(783.725788 33.228276) scale(0.1 -0.1)">
     <use xlink:href="#DejaVuSans-2b"/>
     <use xlink:href="#DejaVuSans-34" x="83.789062"/>
     <use xlink:href="#DejaVuSans-3c3" x="147.412109"/>
    </g>
   </g>
  </g>
 </g>
 <defs>
  <clipPath id="p393f2d3638">
   <rect x="7.2" y="20.214138" width="857.99952" height="108.31401"/>
  </clipPath>
 </defs>
</svg>
