<?xml version="1.0" encoding="utf-8" standalone="no"?>
<!DOCTYPE svg PUBLIC "-//W3C//DTD SVG 1.1//EN"
  "http://www.w3.org/Graphics/SVG/1.1/DTD/svg11.dtd">
<svg xmlns:xlink="http://www.w3.org/1999/xlink" width="560.598437pt" height="155.100562pt" viewBox="0 0 560.598437 155.100562" xmlns="http://www.w3.org/2000/svg" version="1.1">
 <metadata>
  <rdf:RDF xmlns:dc="http://purl.org/dc/elements/1.1/" xmlns:cc="http://creativecommons.org/ns#" xmlns:rdf="http://www.w3.org/1999/02/22-rdf-syntax-ns#">
   <cc:Work>
    <dc:type rdf:resource="http://purl.org/dc/dcmitype/StillImage"/>
    <dc:format>image/svg+xml</dc:format>
    <dc:creator>
     <cc:Agent>
      <dc:title>Matplotlib, https://matplotlib.org/</dc:title>
     </cc:Agent>
    </dc:creator>
   </cc:Work>
  </rdf:RDF>
 </metadata>
 <defs>
  <style type="text/css">*{stroke-linejoin: round; stroke-linecap: butt}</style>
 </defs>
 <g id="figure_1">
  <g id="patch_1">
   <path d="M 0 155.100562 
L 560.598437 155.100562 
L 560.598437 0 
L 0 0 
z
" style="fill: #ffffff"/>
  </g>
  <g id="axes_1">
   <g id="patch_2">
    <path d="M 10.7 131.222437 
L 345.5 131.222437 
L 345.5 20.342437 
L 10.7 20.342437 
z
" style="fill: #ffffff"/>
   </g>
   <g id="matplotlib.axis_1">
    <g id="xtick_1">
     <g id="line2d_1">
      <defs>
       <path id="m8f1de1206a" d="M 0 0 
L 0 3.5 
" style="stroke: #000000; stroke-width: 0.8"/>
      </defs>
      <g>
       <use xlink:href="#m8f1de1206a" x="56.141968" y="131.222437" style="stroke: #000000; stroke-width: 0.8"/>
      </g>
     </g>
     <g id="text_1">
      <!-- −2 -->
      <g transform="translate(48.770874 145.820875) scale(0.1 -0.1)">
       <defs>
        <path id="DejaVuSans-2212" d="M 678 2272 
L 4684 2272 
L 4684 1741 
L 678 1741 
L 678 2272 
z
" transform="scale(0.015625)"/>
        <path id="DejaVuSans-32" d="M 1228 531 
L 3431 531 
L 3431 0 
L 469 0 
L 469 531 
Q 828 903 1448 1529 
Q 2069 2156 2228 2338 
Q 2531 2678 2651 2914 
Q 2772 3150 2772 3378 
Q 2772 3750 2511 3984 
Q 2250 4219 1831 4219 
Q 1534 4219 1204 4116 
Q 875 4013 500 3803 
L 500 4441 
Q 881 4594 1212 4672 
Q 1544 4750 1819 4750 
Q 2544 4750 2975 4387 
Q 3406 4025 3406 3419 
Q 3406 3131 3298 2873 
Q 3191 2616 2906 2266 
Q 2828 2175 2409 1742 
Q 1991 1309 1228 531 
z
" transform="scale(0.015625)"/>
       </defs>
       <use xlink:href="#DejaVuSans-2212"/>
       <use xlink:href="#DejaVuSans-32" x="83.789062"/>
      </g>
     </g>
    </g>
    <g id="xtick_2">
     <g id="line2d_2">
      <g>
       <use xlink:href="#m8f1de1206a" x="117.088804" y="131.222437" style="stroke: #000000; stroke-width: 0.8"/>
      </g>
     </g>
     <g id="text_2">
      <!-- −1 -->
      <g transform="translate(109.71771 145.820875) scale(0.1 -0.1)">
       <defs>
        <path id="DejaVuSans-31" d="M 794 531 
L 1825 531 
L 1825 4091 
L 703 3866 
L 703 4441 
L 1819 4666 
L 2450 4666 
L 2450 531 
L 3481 531 
L 3481 0 
L 794 0 
L 794 531 
z
" transform="scale(0.015625)"/>
       </defs>
       <use xlink:href="#DejaVuSans-2212"/>
       <use xlink:href="#DejaVuSans-31" x="83.789062"/>
      </g>
     </g>
    </g>
    <g id="xtick_3">
     <g id="line2d_3">
      <g>
       <use xlink:href="#m8f1de1206a" x="178.03564" y="131.222437" style="stroke: #000000; stroke-width: 0.8"/>
      </g>
     </g>
     <g id="text_3">
      <!-- 0 -->
      <g transform="translate(174.85439 145.820875) scale(0.1 -0.1)">
       <defs>
        <path id="DejaVuSans-30" d="M 2034 4250 
Q 1547 4250 1301 3770 
Q 1056 3291 1056 2328 
Q 1056 1369 1301 889 
Q 1547 409 2034 409 
Q 2525 409 2770 889 
Q 3016 1369 3016 2328 
Q 3016 3291 2770 3770 
Q 2525 4250 2034 4250 
z
M 2034 4750 
Q 2819 4750 3233 4129 
Q 3647 3509 3647 2328 
Q 3647 1150 3233 529 
Q 2819 -91 2034 -91 
Q 1250 -91 836 529 
Q 422 1150 422 2328 
Q 422 3509 836 4129 
Q 1250 4750 2034 4750 
z
" transform="scale(0.015625)"/>
       </defs>
       <use xlink:href="#DejaVuSans-30"/>
      </g>
     </g>
    </g>
    <g id="xtick_4">
     <g id="line2d_4">
      <g>
       <use xlink:href="#m8f1de1206a" x="238.982476" y="131.222437" style="stroke: #000000; stroke-width: 0.8"/>
      </g>
     </g>
     <g id="text_4">
      <!-- 1 -->
      <g transform="translate(235.801226 145.820875) scale(0.1 -0.1)">
       <use xlink:href="#DejaVuSans-31"/>
      </g>
     </g>
    </g>
    <g id="xtick_5">
     <g id="line2d_5">
      <g>
       <use xlink:href="#m8f1de1206a" x="299.929313" y="131.222437" style="stroke: #000000; stroke-width: 0.8"/>
      </g>
     </g>
     <g id="text_5">
      <!-- 2 -->
      <g transform="translate(296.748063 145.820875) scale(0.1 -0.1)">
       <use xlink:href="#DejaVuSans-32"/>
      </g>
     </g>
    </g>
   </g>
   <g id="matplotlib.axis_2"/>
   <g id="line2d_6">
    <path d="M 22.917232 131.222437 
L 22.917232 20.342437 
" clip-path="url(#pc4f712067b)" style="fill: none; stroke: #000000; stroke-width: 1.5; stroke-linecap: square"/>
   </g>
   <g id="line2d_7">
    <path d="M 88.544508 131.222437 
L 88.544508 20.342437 
" clip-path="url(#pc4f712067b)" style="fill: none; stroke: #000000; stroke-width: 1.5; stroke-linecap: square"/>
   </g>
   <g id="line2d_8">
    <path d="M 154.171784 131.222437 
L 154.171784 20.342437 
" clip-path="url(#pc4f712067b)" style="fill: none; stroke: #000000; stroke-width: 1.5; stroke-linecap: square"/>
   </g>
   <g id="line2d_9">
    <path d="M 219.799061 131.222437 
L 219.799061 20.342437 
" clip-path="url(#pc4f712067b)" style="fill: none; stroke: #000000; stroke-width: 1.5; stroke-linecap: square"/>
   </g>
   <g id="line2d_10">
    <path d="M 285.426337 131.222437 
L 285.426337 20.342437 
" clip-path="url(#pc4f712067b)" style="fill: none; stroke: #000000; stroke-width: 1.5; stroke-linecap: square"/>
   </g>
   <g id="line2d_11">
    <path d="M 48.956095 131.222437 
L 48.956095 20.342437 
" clip-path="url(#pc4f712067b)" style="fill: none; stroke: #ff0000; stroke-width: 1.5; stroke-linecap: square"/>
   </g>
   <g id="line2d_12">
    <path d="M 338.935294 131.222437 
L 338.935294 20.342437 
" clip-path="url(#pc4f712067b)" style="fill: none; stroke: #ff0000; stroke-width: 1.5; stroke-linecap: square"/>
   </g>
   <g id="patch_3">
    <path d="M 10.7 131.222437 
L 10.7 20.342437 
" style="fill: none; stroke: #000000; stroke-width: 0.8; stroke-linejoin: miter; stroke-linecap: square"/>
   </g>
   <g id="patch_4">
    <path d="M 345.5 131.222437 
L 345.5 20.342437 
" style="fill: none; stroke: #000000; stroke-width: 0.8; stroke-linejoin: miter; stroke-linecap: square"/>
   </g>
   <g id="patch_5">
    <path d="M 10.7 131.222437 
L 345.5 131.222437 
" style="fill: none; stroke: #000000; stroke-width: 0.8; stroke-linejoin: miter; stroke-linecap: square"/>
   </g>
   <g id="patch_6">
    <path d="M 10.7 20.342437 
L 345.5 20.342437 
" style="fill: none; stroke: #000000; stroke-width: 0.8; stroke-linejoin: miter; stroke-linecap: square"/>
   </g>
   <g id="text_6">
    <g id="patch_7">
     <path d="M 47.956095 105.518375 
L 47.956095 46.0465 
Q 47.956095 46.0465 47.956095 46.0465 
L 38.27797 46.0465 
Q 38.27797 46.0465 38.27797 46.0465 
L 38.27797 105.518375 
Q 38.27797 105.518375 38.27797 105.518375 
L 47.956095 105.518375 
Q 47.956095 105.518375 47.956095 105.518375 
z
" style="fill: #ffffff"/>
    </g>
    <!-- min=-2.118 -->
    <g transform="translate(45.876408 105.518375) rotate(-90) scale(0.1 -0.1)">
     <defs>
      <path id="DejaVuSans-6d" d="M 3328 2828 
Q 3544 3216 3844 3400 
Q 4144 3584 4550 3584 
Q 5097 3584 5394 3201 
Q 5691 2819 5691 2113 
L 5691 0 
L 5113 0 
L 5113 2094 
Q 5113 2597 4934 2840 
Q 4756 3084 4391 3084 
Q 3944 3084 3684 2787 
Q 3425 2491 3425 1978 
L 3425 0 
L 2847 0 
L 2847 2094 
Q 2847 2600 2669 2842 
Q 2491 3084 2119 3084 
Q 1678 3084 1418 2786 
Q 1159 2488 1159 1978 
L 1159 0 
L 581 0 
L 581 3500 
L 1159 3500 
L 1159 2956 
Q 1356 3278 1631 3431 
Q 1906 3584 2284 3584 
Q 2666 3584 2933 3390 
Q 3200 3197 3328 2828 
z
" transform="scale(0.015625)"/>
      <path id="DejaVuSans-69" d="M 603 3500 
L 1178 3500 
L 1178 0 
L 603 0 
L 603 3500 
z
M 603 4863 
L 1178 4863 
L 1178 4134 
L 603 4134 
L 603 4863 
z
" transform="scale(0.015625)"/>
      <path id="DejaVuSans-6e" d="M 3513 2113 
L 3513 0 
L 2938 0 
L 2938 2094 
Q 2938 2591 2744 2837 
Q 2550 3084 2163 3084 
Q 1697 3084 1428 2787 
Q 1159 2491 1159 1978 
L 1159 0 
L 581 0 
L 581 3500 
L 1159 3500 
L 1159 2956 
Q 1366 3272 1645 3428 
Q 1925 3584 2291 3584 
Q 2894 3584 3203 3211 
Q 3513 2838 3513 2113 
z
" transform="scale(0.015625)"/>
      <path id="DejaVuSans-3d" d="M 678 2906 
L 4684 2906 
L 4684 2381 
L 678 2381 
L 678 2906 
z
M 678 1631 
L 4684 1631 
L 4684 1100 
L 678 1100 
L 678 1631 
z
" transform="scale(0.015625)"/>
      <path id="DejaVuSans-2d" d="M 313 2009 
L 1997 2009 
L 1997 1497 
L 313 1497 
L 313 2009 
z
" transform="scale(0.015625)"/>
      <path id="DejaVuSans-2e" d="M 684 794 
L 1344 794 
L 1344 0 
L 684 0 
L 684 794 
z
" transform="scale(0.015625)"/>
      <path id="DejaVuSans-38" d="M 2034 2216 
Q 1584 2216 1326 1975 
Q 1069 1734 1069 1313 
Q 1069 891 1326 650 
Q 1584 409 2034 409 
Q 2484 409 2743 651 
Q 3003 894 3003 1313 
Q 3003 1734 2745 1975 
Q 2488 2216 2034 2216 
z
M 1403 2484 
Q 997 2584 770 2862 
Q 544 3141 544 3541 
Q 544 4100 942 4425 
Q 1341 4750 2034 4750 
Q 2731 4750 3128 4425 
Q 3525 4100 3525 3541 
Q 3525 3141 3298 2862 
Q 3072 2584 2669 2484 
Q 3125 2378 3379 2068 
Q 3634 1759 3634 1313 
Q 3634 634 3220 271 
Q 2806 -91 2034 -91 
Q 1263 -91 848 271 
Q 434 634 434 1313 
Q 434 1759 690 2068 
Q 947 2378 1403 2484 
z
M 1172 3481 
Q 1172 3119 1398 2916 
Q 1625 2713 2034 2713 
Q 2441 2713 2670 2916 
Q 2900 3119 2900 3481 
Q 2900 3844 2670 4047 
Q 2441 4250 2034 4250 
Q 1625 4250 1398 4047 
Q 1172 3844 1172 3481 
z
" transform="scale(0.015625)"/>
     </defs>
     <use xlink:href="#DejaVuSans-6d"/>
     <use xlink:href="#DejaVuSans-69" x="97.412109"/>
     <use xlink:href="#DejaVuSans-6e" x="125.195312"/>
     <use xlink:href="#DejaVuSans-3d" x="188.574219"/>
     <use xlink:href="#DejaVuSans-2d" x="272.363281"/>
     <use xlink:href="#DejaVuSans-32" x="308.447266"/>
     <use xlink:href="#DejaVuSans-2e" x="372.070312"/>
     <use xlink:href="#DejaVuSans-31" x="403.857422"/>
     <use xlink:href="#DejaVuSans-31" x="467.480469"/>
     <use xlink:href="#DejaVuSans-38" x="531.103516"/>
    </g>
   </g>
   <g id="text_7">
    <g id="patch_8">
     <path d="M 350.613419 105.180094 
L 350.613419 46.384781 
Q 350.613419 46.384781 350.613419 46.384781 
L 340.935294 46.384781 
Q 340.935294 46.384781 340.935294 46.384781 
L 340.935294 105.180094 
Q 340.935294 105.180094 340.935294 105.180094 
L 350.613419 105.180094 
Q 350.613419 105.180094 350.613419 105.180094 
z
" style="fill: #ffffff"/>
    </g>
    <!-- max=2.640 -->
    <g transform="translate(348.533732 105.180094) rotate(-90) scale(0.1 -0.1)">
     <defs>
      <path id="DejaVuSans-61" d="M 2194 1759 
Q 1497 1759 1228 1600 
Q 959 1441 959 1056 
Q 959 750 1161 570 
Q 1363 391 1709 391 
Q 2188 391 2477 730 
Q 2766 1069 2766 1631 
L 2766 1759 
L 2194 1759 
z
M 3341 1997 
L 3341 0 
L 2766 0 
L 2766 531 
Q 2569 213 2275 61 
Q 1981 -91 1556 -91 
Q 1019 -91 701 211 
Q 384 513 384 1019 
Q 384 1609 779 1909 
Q 1175 2209 1959 2209 
L 2766 2209 
L 2766 2266 
Q 2766 2663 2505 2880 
Q 2244 3097 1772 3097 
Q 1472 3097 1187 3025 
Q 903 2953 641 2809 
L 641 3341 
Q 956 3463 1253 3523 
Q 1550 3584 1831 3584 
Q 2591 3584 2966 3190 
Q 3341 2797 3341 1997 
z
" transform="scale(0.015625)"/>
      <path id="DejaVuSans-78" d="M 3513 3500 
L 2247 1797 
L 3578 0 
L 2900 0 
L 1881 1375 
L 863 0 
L 184 0 
L 1544 1831 
L 300 3500 
L 978 3500 
L 1906 2253 
L 2834 3500 
L 3513 3500 
z
" transform="scale(0.015625)"/>
      <path id="DejaVuSans-36" d="M 2113 2584 
Q 1688 2584 1439 2293 
Q 1191 2003 1191 1497 
Q 1191 994 1439 701 
Q 1688 409 2113 409 
Q 2538 409 2786 701 
Q 3034 994 3034 1497 
Q 3034 2003 2786 2293 
Q 2538 2584 2113 2584 
z
M 3366 4563 
L 3366 3988 
Q 3128 4100 2886 4159 
Q 2644 4219 2406 4219 
Q 1781 4219 1451 3797 
Q 1122 3375 1075 2522 
Q 1259 2794 1537 2939 
Q 1816 3084 2150 3084 
Q 2853 3084 3261 2657 
Q 3669 2231 3669 1497 
Q 3669 778 3244 343 
Q 2819 -91 2113 -91 
Q 1303 -91 875 529 
Q 447 1150 447 2328 
Q 447 3434 972 4092 
Q 1497 4750 2381 4750 
Q 2619 4750 2861 4703 
Q 3103 4656 3366 4563 
z
" transform="scale(0.015625)"/>
      <path id="DejaVuSans-34" d="M 2419 4116 
L 825 1625 
L 2419 1625 
L 2419 4116 
z
M 2253 4666 
L 3047 4666 
L 3047 1625 
L 3713 1625 
L 3713 1100 
L 3047 1100 
L 3047 0 
L 2419 0 
L 2419 1100 
L 313 1100 
L 313 1709 
L 2253 4666 
z
" transform="scale(0.015625)"/>
     </defs>
     <use xlink:href="#DejaVuSans-6d"/>
     <use xlink:href="#DejaVuSans-61" x="97.412109"/>
     <use xlink:href="#DejaVuSans-78" x="158.691406"/>
     <use xlink:href="#DejaVuSans-3d" x="217.871094"/>
     <use xlink:href="#DejaVuSans-32" x="301.660156"/>
     <use xlink:href="#DejaVuSans-2e" x="365.283203"/>
     <use xlink:href="#DejaVuSans-36" x="397.070312"/>
     <use xlink:href="#DejaVuSans-34" x="460.693359"/>
     <use xlink:href="#DejaVuSans-30" x="524.316406"/>
    </g>
   </g>
   <g id="text_8">
    <!-- 10000 samples (μ=-0.392, σ=1.077) of tensor[3, 196, 196] n=115248 x∈[-2.118, 2.640] μ=-0.388 σ=1.073 -->
    <g transform="translate(10.7 14.798437) scale(0.1 -0.1)">
     <defs>
      <path id="DejaVuSans-20" transform="scale(0.015625)"/>
      <path id="DejaVuSans-73" d="M 2834 3397 
L 2834 2853 
Q 2591 2978 2328 3040 
Q 2066 3103 1784 3103 
Q 1356 3103 1142 2972 
Q 928 2841 928 2578 
Q 928 2378 1081 2264 
Q 1234 2150 1697 2047 
L 1894 2003 
Q 2506 1872 2764 1633 
Q 3022 1394 3022 966 
Q 3022 478 2636 193 
Q 2250 -91 1575 -91 
Q 1294 -91 989 -36 
Q 684 19 347 128 
L 347 722 
Q 666 556 975 473 
Q 1284 391 1588 391 
Q 1994 391 2212 530 
Q 2431 669 2431 922 
Q 2431 1156 2273 1281 
Q 2116 1406 1581 1522 
L 1381 1569 
Q 847 1681 609 1914 
Q 372 2147 372 2553 
Q 372 3047 722 3315 
Q 1072 3584 1716 3584 
Q 2034 3584 2315 3537 
Q 2597 3491 2834 3397 
z
" transform="scale(0.015625)"/>
      <path id="DejaVuSans-70" d="M 1159 525 
L 1159 -1331 
L 581 -1331 
L 581 3500 
L 1159 3500 
L 1159 2969 
Q 1341 3281 1617 3432 
Q 1894 3584 2278 3584 
Q 2916 3584 3314 3078 
Q 3713 2572 3713 1747 
Q 3713 922 3314 415 
Q 2916 -91 2278 -91 
Q 1894 -91 1617 61 
Q 1341 213 1159 525 
z
M 3116 1747 
Q 3116 2381 2855 2742 
Q 2594 3103 2138 3103 
Q 1681 3103 1420 2742 
Q 1159 2381 1159 1747 
Q 1159 1113 1420 752 
Q 1681 391 2138 391 
Q 2594 391 2855 752 
Q 3116 1113 3116 1747 
z
" transform="scale(0.015625)"/>
      <path id="DejaVuSans-6c" d="M 603 4863 
L 1178 4863 
L 1178 0 
L 603 0 
L 603 4863 
z
" transform="scale(0.015625)"/>
      <path id="DejaVuSans-65" d="M 3597 1894 
L 3597 1613 
L 953 1613 
Q 991 1019 1311 708 
Q 1631 397 2203 397 
Q 2534 397 2845 478 
Q 3156 559 3463 722 
L 3463 178 
Q 3153 47 2828 -22 
Q 2503 -91 2169 -91 
Q 1331 -91 842 396 
Q 353 884 353 1716 
Q 353 2575 817 3079 
Q 1281 3584 2069 3584 
Q 2775 3584 3186 3129 
Q 3597 2675 3597 1894 
z
M 3022 2063 
Q 3016 2534 2758 2815 
Q 2500 3097 2075 3097 
Q 1594 3097 1305 2825 
Q 1016 2553 972 2059 
L 3022 2063 
z
" transform="scale(0.015625)"/>
      <path id="DejaVuSans-28" d="M 1984 4856 
Q 1566 4138 1362 3434 
Q 1159 2731 1159 2009 
Q 1159 1288 1364 580 
Q 1569 -128 1984 -844 
L 1484 -844 
Q 1016 -109 783 600 
Q 550 1309 550 2009 
Q 550 2706 781 3412 
Q 1013 4119 1484 4856 
L 1984 4856 
z
" transform="scale(0.015625)"/>
      <path id="DejaVuSans-3bc" d="M 544 -1331 
L 544 3500 
L 1119 3500 
L 1119 1325 
Q 1119 872 1334 640 
Q 1550 409 1972 409 
Q 2434 409 2667 671 
Q 2900 934 2900 1459 
L 2900 3500 
L 3475 3500 
L 3475 806 
Q 3475 619 3529 530 
Q 3584 441 3700 441 
Q 3728 441 3778 458 
Q 3828 475 3916 513 
L 3916 50 
Q 3788 -22 3673 -56 
Q 3559 -91 3450 -91 
Q 3234 -91 3106 31 
Q 2978 153 2931 403 
Q 2775 156 2548 32 
Q 2322 -91 2016 -91 
Q 1697 -91 1473 31 
Q 1250 153 1119 397 
L 1119 -1331 
L 544 -1331 
z
" transform="scale(0.015625)"/>
      <path id="DejaVuSans-33" d="M 2597 2516 
Q 3050 2419 3304 2112 
Q 3559 1806 3559 1356 
Q 3559 666 3084 287 
Q 2609 -91 1734 -91 
Q 1441 -91 1130 -33 
Q 819 25 488 141 
L 488 750 
Q 750 597 1062 519 
Q 1375 441 1716 441 
Q 2309 441 2620 675 
Q 2931 909 2931 1356 
Q 2931 1769 2642 2001 
Q 2353 2234 1838 2234 
L 1294 2234 
L 1294 2753 
L 1863 2753 
Q 2328 2753 2575 2939 
Q 2822 3125 2822 3475 
Q 2822 3834 2567 4026 
Q 2313 4219 1838 4219 
Q 1578 4219 1281 4162 
Q 984 4106 628 3988 
L 628 4550 
Q 988 4650 1302 4700 
Q 1616 4750 1894 4750 
Q 2613 4750 3031 4423 
Q 3450 4097 3450 3541 
Q 3450 3153 3228 2886 
Q 3006 2619 2597 2516 
z
" transform="scale(0.015625)"/>
      <path id="DejaVuSans-39" d="M 703 97 
L 703 672 
Q 941 559 1184 500 
Q 1428 441 1663 441 
Q 2288 441 2617 861 
Q 2947 1281 2994 2138 
Q 2813 1869 2534 1725 
Q 2256 1581 1919 1581 
Q 1219 1581 811 2004 
Q 403 2428 403 3163 
Q 403 3881 828 4315 
Q 1253 4750 1959 4750 
Q 2769 4750 3195 4129 
Q 3622 3509 3622 2328 
Q 3622 1225 3098 567 
Q 2575 -91 1691 -91 
Q 1453 -91 1209 -44 
Q 966 3 703 97 
z
M 1959 2075 
Q 2384 2075 2632 2365 
Q 2881 2656 2881 3163 
Q 2881 3666 2632 3958 
Q 2384 4250 1959 4250 
Q 1534 4250 1286 3958 
Q 1038 3666 1038 3163 
Q 1038 2656 1286 2365 
Q 1534 2075 1959 2075 
z
" transform="scale(0.015625)"/>
      <path id="DejaVuSans-2c" d="M 750 794 
L 1409 794 
L 1409 256 
L 897 -744 
L 494 -744 
L 750 256 
L 750 794 
z
" transform="scale(0.015625)"/>
      <path id="DejaVuSans-3c3" d="M 1959 3044 
Q 1484 3044 1228 2700 
Q 959 2341 959 1747 
Q 959 1119 1226 758 
Q 1494 397 1959 397 
Q 2419 397 2687 759 
Q 2956 1122 2956 1747 
Q 2956 2319 2688 2700 
Q 2441 3044 1959 3044 
z
M 1959 3500 
L 3869 3500 
L 3869 2925 
L 3225 2925 
Q 3566 2438 3566 1747 
Q 3566 888 3138 400 
Q 2709 -91 1959 -91 
Q 1206 -91 781 400 
Q 353 888 353 1747 
Q 353 2613 781 3097 
Q 1134 3500 1959 3500 
z
" transform="scale(0.015625)"/>
      <path id="DejaVuSans-37" d="M 525 4666 
L 3525 4666 
L 3525 4397 
L 1831 0 
L 1172 0 
L 2766 4134 
L 525 4134 
L 525 4666 
z
" transform="scale(0.015625)"/>
      <path id="DejaVuSans-29" d="M 513 4856 
L 1013 4856 
Q 1481 4119 1714 3412 
Q 1947 2706 1947 2009 
Q 1947 1309 1714 600 
Q 1481 -109 1013 -844 
L 513 -844 
Q 928 -128 1133 580 
Q 1338 1288 1338 2009 
Q 1338 2731 1133 3434 
Q 928 4138 513 4856 
z
" transform="scale(0.015625)"/>
      <path id="DejaVuSans-6f" d="M 1959 3097 
Q 1497 3097 1228 2736 
Q 959 2375 959 1747 
Q 959 1119 1226 758 
Q 1494 397 1959 397 
Q 2419 397 2687 759 
Q 2956 1122 2956 1747 
Q 2956 2369 2687 2733 
Q 2419 3097 1959 3097 
z
M 1959 3584 
Q 2709 3584 3137 3096 
Q 3566 2609 3566 1747 
Q 3566 888 3137 398 
Q 2709 -91 1959 -91 
Q 1206 -91 779 398 
Q 353 888 353 1747 
Q 353 2609 779 3096 
Q 1206 3584 1959 3584 
z
" transform="scale(0.015625)"/>
      <path id="DejaVuSans-66" d="M 2375 4863 
L 2375 4384 
L 1825 4384 
Q 1516 4384 1395 4259 
Q 1275 4134 1275 3809 
L 1275 3500 
L 2222 3500 
L 2222 3053 
L 1275 3053 
L 1275 0 
L 697 0 
L 697 3053 
L 147 3053 
L 147 3500 
L 697 3500 
L 697 3744 
Q 697 4328 969 4595 
Q 1241 4863 1831 4863 
L 2375 4863 
z
" transform="scale(0.015625)"/>
      <path id="DejaVuSans-74" d="M 1172 4494 
L 1172 3500 
L 2356 3500 
L 2356 3053 
L 1172 3053 
L 1172 1153 
Q 1172 725 1289 603 
Q 1406 481 1766 481 
L 2356 481 
L 2356 0 
L 1766 0 
Q 1100 0 847 248 
Q 594 497 594 1153 
L 594 3053 
L 172 3053 
L 172 3500 
L 594 3500 
L 594 4494 
L 1172 4494 
z
" transform="scale(0.015625)"/>
      <path id="DejaVuSans-72" d="M 2631 2963 
Q 2534 3019 2420 3045 
Q 2306 3072 2169 3072 
Q 1681 3072 1420 2755 
Q 1159 2438 1159 1844 
L 1159 0 
L 581 0 
L 581 3500 
L 1159 3500 
L 1159 2956 
Q 1341 3275 1631 3429 
Q 1922 3584 2338 3584 
Q 2397 3584 2469 3576 
Q 2541 3569 2628 3553 
L 2631 2963 
z
" transform="scale(0.015625)"/>
      <path id="DejaVuSans-5b" d="M 550 4863 
L 1875 4863 
L 1875 4416 
L 1125 4416 
L 1125 -397 
L 1875 -397 
L 1875 -844 
L 550 -844 
L 550 4863 
z
" transform="scale(0.015625)"/>
      <path id="DejaVuSans-5d" d="M 1947 4863 
L 1947 -844 
L 622 -844 
L 622 -397 
L 1369 -397 
L 1369 4416 
L 622 4416 
L 622 4863 
L 1947 4863 
z
" transform="scale(0.015625)"/>
      <path id="DejaVuSans-35" d="M 691 4666 
L 3169 4666 
L 3169 4134 
L 1269 4134 
L 1269 2991 
Q 1406 3038 1543 3061 
Q 1681 3084 1819 3084 
Q 2600 3084 3056 2656 
Q 3513 2228 3513 1497 
Q 3513 744 3044 326 
Q 2575 -91 1722 -91 
Q 1428 -91 1123 -41 
Q 819 9 494 109 
L 494 744 
Q 775 591 1075 516 
Q 1375 441 1709 441 
Q 2250 441 2565 725 
Q 2881 1009 2881 1497 
Q 2881 1984 2565 2268 
Q 2250 2553 1709 2553 
Q 1456 2553 1204 2497 
Q 953 2441 691 2322 
L 691 4666 
z
" transform="scale(0.015625)"/>
      <path id="DejaVuSans-2208" d="M 1072 1959 
Q 1094 1728 1291 1353 
Q 1522 919 1959 675 
Q 2388 438 2850 434 
L 5028 434 
L 5028 -63 
L 2850 -63 
Q 2250 -63 1695 246 
Q 1141 556 844 1106 
Q 547 1656 547 2241 
Q 547 2819 844 3369 
Q 1141 3919 1695 4231 
Q 2250 4544 2850 4544 
L 5028 4544 
L 5028 4047 
L 2850 4047 
Q 2388 4044 1959 3803 
Q 1525 3556 1291 3125 
Q 1091 2750 1063 2459 
L 5028 2459 
L 5028 1959 
L 1072 1959 
z
" transform="scale(0.015625)"/>
     </defs>
     <use xlink:href="#DejaVuSans-31"/>
     <use xlink:href="#DejaVuSans-30" x="63.623047"/>
     <use xlink:href="#DejaVuSans-30" x="127.246094"/>
     <use xlink:href="#DejaVuSans-30" x="190.869141"/>
     <use xlink:href="#DejaVuSans-30" x="254.492188"/>
     <use xlink:href="#DejaVuSans-20" x="318.115234"/>
     <use xlink:href="#DejaVuSans-73" x="349.902344"/>
     <use xlink:href="#DejaVuSans-61" x="402.001953"/>
     <use xlink:href="#DejaVuSans-6d" x="463.28125"/>
     <use xlink:href="#DejaVuSans-70" x="560.693359"/>
     <use xlink:href="#DejaVuSans-6c" x="624.169922"/>
     <use xlink:href="#DejaVuSans-65" x="651.953125"/>
     <use xlink:href="#DejaVuSans-73" x="713.476562"/>
     <use xlink:href="#DejaVuSans-20" x="765.576172"/>
     <use xlink:href="#DejaVuSans-28" x="797.363281"/>
     <use xlink:href="#DejaVuSans-3bc" x="836.376953"/>
     <use xlink:href="#DejaVuSans-3d" x="900"/>
     <use xlink:href="#DejaVuSans-2d" x="983.789062"/>
     <use xlink:href="#DejaVuSans-30" x="1019.873047"/>
     <use xlink:href="#DejaVuSans-2e" x="1083.496094"/>
     <use xlink:href="#DejaVuSans-33" x="1115.283203"/>
     <use xlink:href="#DejaVuSans-39" x="1178.90625"/>
     <use xlink:href="#DejaVuSans-32" x="1242.529297"/>
     <use xlink:href="#DejaVuSans-2c" x="1306.152344"/>
     <use xlink:href="#DejaVuSans-20" x="1337.939453"/>
     <use xlink:href="#DejaVuSans-3c3" x="1369.726562"/>
     <use xlink:href="#DejaVuSans-3d" x="1433.105469"/>
     <use xlink:href="#DejaVuSans-31" x="1516.894531"/>
     <use xlink:href="#DejaVuSans-2e" x="1580.517578"/>
     <use xlink:href="#DejaVuSans-30" x="1612.304688"/>
     <use xlink:href="#DejaVuSans-37" x="1675.927734"/>
     <use xlink:href="#DejaVuSans-37" x="1739.550781"/>
     <use xlink:href="#DejaVuSans-29" x="1803.173828"/>
     <use xlink:href="#DejaVuSans-20" x="1842.1875"/>
     <use xlink:href="#DejaVuSans-6f" x="1873.974609"/>
     <use xlink:href="#DejaVuSans-66" x="1935.15625"/>
     <use xlink:href="#DejaVuSans-20" x="1970.361328"/>
     <use xlink:href="#DejaVuSans-74" x="2002.148438"/>
     <use xlink:href="#DejaVuSans-65" x="2041.357422"/>
     <use xlink:href="#DejaVuSans-6e" x="2102.880859"/>
     <use xlink:href="#DejaVuSans-73" x="2166.259766"/>
     <use xlink:href="#DejaVuSans-6f" x="2218.359375"/>
     <use xlink:href="#DejaVuSans-72" x="2279.541016"/>
     <use xlink:href="#DejaVuSans-5b" x="2320.654297"/>
     <use xlink:href="#DejaVuSans-33" x="2359.667969"/>
     <use xlink:href="#DejaVuSans-2c" x="2423.291016"/>
     <use xlink:href="#DejaVuSans-20" x="2455.078125"/>
     <use xlink:href="#DejaVuSans-31" x="2486.865234"/>
     <use xlink:href="#DejaVuSans-39" x="2550.488281"/>
     <use xlink:href="#DejaVuSans-36" x="2614.111328"/>
     <use xlink:href="#DejaVuSans-2c" x="2677.734375"/>
     <use xlink:href="#DejaVuSans-20" x="2709.521484"/>
     <use xlink:href="#DejaVuSans-31" x="2741.308594"/>
     <use xlink:href="#DejaVuSans-39" x="2804.931641"/>
     <use xlink:href="#DejaVuSans-36" x="2868.554688"/>
     <use xlink:href="#DejaVuSans-5d" x="2932.177734"/>
     <use xlink:href="#DejaVuSans-20" x="2971.191406"/>
     <use xlink:href="#DejaVuSans-6e" x="3002.978516"/>
     <use xlink:href="#DejaVuSans-3d" x="3066.357422"/>
     <use xlink:href="#DejaVuSans-31" x="3150.146484"/>
     <use xlink:href="#DejaVuSans-31" x="3213.769531"/>
     <use xlink:href="#DejaVuSans-35" x="3277.392578"/>
     <use xlink:href="#DejaVuSans-32" x="3341.015625"/>
     <use xlink:href="#DejaVuSans-34" x="3404.638672"/>
     <use xlink:href="#DejaVuSans-38" x="3468.261719"/>
     <use xlink:href="#DejaVuSans-20" x="3531.884766"/>
     <use xlink:href="#DejaVuSans-78" x="3563.671875"/>
     <use xlink:href="#DejaVuSans-2208" x="3622.851562"/>
     <use xlink:href="#DejaVuSans-5b" x="3709.960938"/>
     <use xlink:href="#DejaVuSans-2d" x="3748.974609"/>
     <use xlink:href="#DejaVuSans-32" x="3785.058594"/>
     <use xlink:href="#DejaVuSans-2e" x="3848.681641"/>
     <use xlink:href="#DejaVuSans-31" x="3880.46875"/>
     <use xlink:href="#DejaVuSans-31" x="3944.091797"/>
     <use xlink:href="#DejaVuSans-38" x="4007.714844"/>
     <use xlink:href="#DejaVuSans-2c" x="4071.337891"/>
     <use xlink:href="#DejaVuSans-20" x="4103.125"/>
     <use xlink:href="#DejaVuSans-32" x="4134.912109"/>
     <use xlink:href="#DejaVuSans-2e" x="4198.535156"/>
     <use xlink:href="#DejaVuSans-36" x="4230.322266"/>
     <use xlink:href="#DejaVuSans-34" x="4293.945312"/>
     <use xlink:href="#DejaVuSans-30" x="4357.568359"/>
     <use xlink:href="#DejaVuSans-5d" x="4421.191406"/>
     <use xlink:href="#DejaVuSans-20" x="4460.205078"/>
     <use xlink:href="#DejaVuSans-3bc" x="4491.992188"/>
     <use xlink:href="#DejaVuSans-3d" x="4555.615234"/>
     <use xlink:href="#DejaVuSans-2d" x="4639.404297"/>
     <use xlink:href="#DejaVuSans-30" x="4675.488281"/>
     <use xlink:href="#DejaVuSans-2e" x="4739.111328"/>
     <use xlink:href="#DejaVuSans-33" x="4770.898438"/>
     <use xlink:href="#DejaVuSans-38" x="4834.521484"/>
     <use xlink:href="#DejaVuSans-38" x="4898.144531"/>
     <use xlink:href="#DejaVuSans-20" x="4961.767578"/>
     <use xlink:href="#DejaVuSans-3c3" x="4993.554688"/>
     <use xlink:href="#DejaVuSans-3d" x="5056.933594"/>
     <use xlink:href="#DejaVuSans-31" x="5140.722656"/>
     <use xlink:href="#DejaVuSans-2e" x="5204.345703"/>
     <use xlink:href="#DejaVuSans-30" x="5236.132812"/>
     <use xlink:href="#DejaVuSans-37" x="5299.755859"/>
     <use xlink:href="#DejaVuSans-33" x="5363.378906"/>
    </g>
   </g>
   <g id="patch_9">
    <path d="M 52.08719 131.222437 
L 55.410281 131.222437 
L 55.410281 130.846369 
L 52.08719 130.846369 
z
" clip-path="url(#pc4f712067b)" style="fill: #00bfff"/>
   </g>
   <g id="patch_10">
    <path d="M 55.410281 131.222437 
L 58.733372 131.222437 
L 58.733372 129.154061 
L 55.410281 129.154061 
z
" clip-path="url(#pc4f712067b)" style="fill: #00bfff"/>
   </g>
   <g id="patch_11">
    <path d="M 58.733372 131.222437 
L 62.056463 131.222437 
L 62.056463 125.769446 
L 58.733372 125.769446 
z
" clip-path="url(#pc4f712067b)" style="fill: #00bfff"/>
   </g>
   <g id="patch_12">
    <path d="M 62.056463 131.222437 
L 65.379554 131.222437 
L 65.379554 126.145514 
L 62.056463 126.145514 
z
" clip-path="url(#pc4f712067b)" style="fill: #00bfff"/>
   </g>
   <g id="patch_13">
    <path d="M 65.379554 131.222437 
L 68.702645 131.222437 
L 68.702645 119.752352 
L 65.379554 119.752352 
z
" clip-path="url(#pc4f712067b)" style="fill: #00bfff"/>
   </g>
   <g id="patch_14">
    <path d="M 68.702645 131.222437 
L 72.025736 131.222437 
L 72.025736 116.743805 
L 68.702645 116.743805 
z
" clip-path="url(#pc4f712067b)" style="fill: #00bfff"/>
   </g>
   <g id="patch_15">
    <path d="M 72.025736 131.222437 
L 75.348827 131.222437 
L 75.348827 110.350643 
L 72.025736 110.350643 
z
" clip-path="url(#pc4f712067b)" style="fill: #00bfff"/>
   </g>
   <g id="patch_16">
    <path d="M 75.348827 131.222437 
L 78.671918 131.222437 
L 78.671918 107.906198 
L 75.348827 107.906198 
z
" clip-path="url(#pc4f712067b)" style="fill: #00bfff"/>
   </g>
   <g id="patch_17">
    <path d="M 78.671918 131.222437 
L 81.995009 131.222437 
L 81.995009 108.282267 
L 78.671918 108.282267 
z
" clip-path="url(#pc4f712067b)" style="fill: #00bfff"/>
   </g>
   <g id="patch_18">
    <path d="M 81.995009 131.222437 
L 85.3181 131.222437 
L 85.3181 106.966027 
L 81.995009 106.966027 
z
" clip-path="url(#pc4f712067b)" style="fill: #00bfff"/>
   </g>
   <g id="patch_19">
    <path d="M 85.3181 131.222437 
L 88.641198 131.222437 
L 88.641198 101.513101 
L 85.3181 101.513101 
z
" clip-path="url(#pc4f712067b)" style="fill: #00bfff"/>
   </g>
   <g id="patch_20">
    <path d="M 88.641198 131.222437 
L 91.964289 131.222437 
L 91.964289 101.889104 
L 88.641198 101.889104 
z
" clip-path="url(#pc4f712067b)" style="fill: #00bfff"/>
   </g>
   <g id="patch_21">
    <path d="M 91.964289 131.222437 
L 95.28738 131.222437 
L 95.28738 104.709617 
L 91.964289 104.709617 
z
" clip-path="url(#pc4f712067b)" style="fill: #00bfff"/>
   </g>
   <g id="patch_22">
    <path d="M 95.28738 131.222437 
L 98.610471 131.222437 
L 98.610471 95.307908 
L 95.28738 95.307908 
z
" clip-path="url(#pc4f712067b)" style="fill: #00bfff"/>
   </g>
   <g id="patch_23">
    <path d="M 98.610471 131.222437 
L 101.933562 131.222437 
L 101.933562 84.589959 
L 98.610471 84.589959 
z
" clip-path="url(#pc4f712067b)" style="fill: #00bfff"/>
   </g>
   <g id="patch_24">
    <path d="M 101.933562 131.222437 
L 105.256653 131.222437 
L 105.256653 60.145514 
L 101.933562 60.145514 
z
" clip-path="url(#pc4f712067b)" style="fill: #00bfff"/>
   </g>
   <g id="patch_25">
    <path d="M 105.256653 131.222437 
L 108.579744 131.222437 
L 108.579744 61.27372 
L 105.256653 61.27372 
z
" clip-path="url(#pc4f712067b)" style="fill: #00bfff"/>
   </g>
   <g id="patch_26">
    <path d="M 108.579744 131.222437 
L 111.902835 131.222437 
L 111.902835 59.393378 
L 108.579744 59.393378 
z
" clip-path="url(#pc4f712067b)" style="fill: #00bfff"/>
   </g>
   <g id="patch_27">
    <path d="M 111.902835 131.222437 
L 115.225926 131.222437 
L 115.225926 64.658335 
L 111.902835 64.658335 
z
" clip-path="url(#pc4f712067b)" style="fill: #00bfff"/>
   </g>
   <g id="patch_28">
    <path d="M 115.225926 131.222437 
L 118.549017 131.222437 
L 118.549017 78.196796 
L 115.225926 78.196796 
z
" clip-path="url(#pc4f712067b)" style="fill: #00bfff"/>
   </g>
   <g id="patch_29">
    <path d="M 118.549017 131.222437 
L 121.872108 131.222437 
L 121.872108 84.21389 
L 118.549017 84.21389 
z
" clip-path="url(#pc4f712067b)" style="fill: #00bfff"/>
   </g>
   <g id="patch_30">
    <path d="M 121.872108 131.222437 
L 125.195199 131.222437 
L 125.195199 74.436113 
L 121.872108 74.436113 
z
" clip-path="url(#pc4f712067b)" style="fill: #00bfff"/>
   </g>
   <g id="patch_31">
    <path d="M 125.195199 131.222437 
L 128.51829 131.222437 
L 128.51829 71.051497 
L 125.195199 71.051497 
z
" clip-path="url(#pc4f712067b)" style="fill: #00bfff"/>
   </g>
   <g id="patch_32">
    <path d="M 128.51829 131.222437 
L 131.841381 131.222437 
L 131.841381 65.034403 
L 128.51829 65.034403 
z
" clip-path="url(#pc4f712067b)" style="fill: #00bfff"/>
   </g>
   <g id="patch_33">
    <path d="M 131.841381 131.222437 
L 135.164472 131.222437 
L 135.164472 49.991668 
L 131.841381 49.991668 
z
" clip-path="url(#pc4f712067b)" style="fill: #00bfff"/>
   </g>
   <g id="patch_34">
    <path d="M 135.164472 131.222437 
L 138.487563 131.222437 
L 138.487563 64.846369 
L 135.164472 64.846369 
z
" clip-path="url(#pc4f712067b)" style="fill: #00bfff"/>
   </g>
   <g id="patch_35">
    <path d="M 138.487563 131.222437 
L 141.810658 131.222437 
L 141.810658 57.325082 
L 138.487563 57.325082 
z
" clip-path="url(#pc4f712067b)" style="fill: #00bfff"/>
   </g>
   <g id="patch_36">
    <path d="M 141.810658 131.222437 
L 145.133749 131.222437 
L 145.133749 55.820728 
L 141.810658 55.820728 
z
" clip-path="url(#pc4f712067b)" style="fill: #00bfff"/>
   </g>
   <g id="patch_37">
    <path d="M 145.133749 131.222437 
L 148.456838 131.222437 
L 148.456838 66.538641 
L 145.133749 66.538641 
z
" clip-path="url(#pc4f712067b)" style="fill: #00bfff"/>
   </g>
   <g id="patch_38">
    <path d="M 148.456838 131.222437 
L 151.779931 131.222437 
L 151.779931 75.564348 
L 148.456838 75.564348 
z
" clip-path="url(#pc4f712067b)" style="fill: #00bfff"/>
   </g>
   <g id="patch_39">
    <path d="M 151.779931 131.222437 
L 155.103022 131.222437 
L 155.103022 79.325002 
L 151.779931 79.325002 
z
" clip-path="url(#pc4f712067b)" style="fill: #00bfff"/>
   </g>
   <g id="patch_40">
    <path d="M 155.103022 131.222437 
L 158.426113 131.222437 
L 158.426113 94.367737 
L 155.103022 94.367737 
z
" clip-path="url(#pc4f712067b)" style="fill: #00bfff"/>
   </g>
   <g id="patch_41">
    <path d="M 158.426113 131.222437 
L 161.749204 131.222437 
L 161.749204 97.376284 
L 158.426113 97.376284 
z
" clip-path="url(#pc4f712067b)" style="fill: #00bfff"/>
   </g>
   <g id="patch_42">
    <path d="M 161.749204 131.222437 
L 165.072296 131.222437 
L 165.072296 114.675433 
L 161.749204 114.675433 
z
" clip-path="url(#pc4f712067b)" style="fill: #00bfff"/>
   </g>
   <g id="patch_43">
    <path d="M 165.072296 131.222437 
L 168.395387 131.222437 
L 168.395387 118.248079 
L 165.072296 118.248079 
z
" clip-path="url(#pc4f712067b)" style="fill: #00bfff"/>
   </g>
   <g id="patch_44">
    <path d="M 168.395387 131.222437 
L 171.718478 131.222437 
L 171.718478 123.136969 
L 168.395387 123.136969 
z
" clip-path="url(#pc4f712067b)" style="fill: #00bfff"/>
   </g>
   <g id="patch_45">
    <path d="M 171.718478 131.222437 
L 175.041569 131.222437 
L 175.041569 120.50449 
L 171.718478 120.50449 
z
" clip-path="url(#pc4f712067b)" style="fill: #00bfff"/>
   </g>
   <g id="patch_46">
    <path d="M 175.041569 131.222437 
L 178.364661 131.222437 
L 178.364661 123.136969 
L 175.041569 123.136969 
z
" clip-path="url(#pc4f712067b)" style="fill: #00bfff"/>
   </g>
   <g id="patch_47">
    <path d="M 178.364661 131.222437 
L 181.687752 131.222437 
L 181.687752 123.701071 
L 178.364661 123.701071 
z
" clip-path="url(#pc4f712067b)" style="fill: #00bfff"/>
   </g>
   <g id="patch_48">
    <path d="M 181.687752 131.222437 
L 185.010843 131.222437 
L 185.010843 125.393378 
L 181.687752 125.393378 
z
" clip-path="url(#pc4f712067b)" style="fill: #00bfff"/>
   </g>
   <g id="patch_49">
    <path d="M 185.010843 131.222437 
L 188.333934 131.222437 
L 188.333934 122.760899 
L 185.010843 122.760899 
z
" clip-path="url(#pc4f712067b)" style="fill: #00bfff"/>
   </g>
   <g id="patch_50">
    <path d="M 188.333934 131.222437 
L 191.657026 131.222437 
L 191.657026 124.265174 
L 188.333934 124.265174 
z
" clip-path="url(#pc4f712067b)" style="fill: #00bfff"/>
   </g>
   <g id="patch_51">
    <path d="M 191.657026 131.222437 
L 194.980117 131.222437 
L 194.980117 121.44466 
L 191.657026 121.44466 
z
" clip-path="url(#pc4f712067b)" style="fill: #00bfff"/>
   </g>
   <g id="patch_52">
    <path d="M 194.980117 131.222437 
L 198.303208 131.222437 
L 198.303208 125.205343 
L 194.980117 125.205343 
z
" clip-path="url(#pc4f712067b)" style="fill: #00bfff"/>
   </g>
   <g id="patch_53">
    <path d="M 198.303208 131.222437 
L 201.626299 131.222437 
L 201.626299 123.136967 
L 198.303208 123.136967 
z
" clip-path="url(#pc4f712067b)" style="fill: #00bfff"/>
   </g>
   <g id="patch_54">
    <path d="M 201.626299 131.222437 
L 204.949392 131.222437 
L 204.949392 123.136972 
L 201.626299 123.136972 
z
" clip-path="url(#pc4f712067b)" style="fill: #00bfff"/>
   </g>
   <g id="patch_55">
    <path d="M 204.949392 131.222437 
L 208.272483 131.222437 
L 208.272483 122.948933 
L 204.949392 122.948933 
z
" clip-path="url(#pc4f712067b)" style="fill: #00bfff"/>
   </g>
   <g id="patch_56">
    <path d="M 208.272483 131.222437 
L 211.595572 131.222437 
L 211.595572 122.008757 
L 208.272483 122.008757 
z
" clip-path="url(#pc4f712067b)" style="fill: #00bfff"/>
   </g>
   <g id="patch_57">
    <path d="M 211.595572 131.222437 
L 214.918667 131.222437 
L 214.918667 124.26518 
L 211.595572 124.26518 
z
" clip-path="url(#pc4f712067b)" style="fill: #00bfff"/>
   </g>
   <g id="patch_58">
    <path d="M 214.918667 131.222437 
L 218.241758 131.222437 
L 218.241758 124.077138 
L 214.918667 124.077138 
z
" clip-path="url(#pc4f712067b)" style="fill: #00bfff"/>
   </g>
   <g id="patch_59">
    <path d="M 218.241758 131.222437 
L 221.564849 131.222437 
L 221.564849 124.453207 
L 218.241758 124.453207 
z
" clip-path="url(#pc4f712067b)" style="fill: #00bfff"/>
   </g>
   <g id="patch_60">
    <path d="M 221.564849 131.222437 
L 224.88794 131.222437 
L 224.88794 124.453207 
L 221.564849 124.453207 
z
" clip-path="url(#pc4f712067b)" style="fill: #00bfff"/>
   </g>
   <g id="patch_61">
    <path d="M 224.88794 131.222437 
L 228.211031 131.222437 
L 228.211031 123.70107 
L 224.88794 123.70107 
z
" clip-path="url(#pc4f712067b)" style="fill: #00bfff"/>
   </g>
   <g id="patch_62">
    <path d="M 228.211031 131.222437 
L 231.534122 131.222437 
L 231.534122 126.333549 
L 228.211031 126.333549 
z
" clip-path="url(#pc4f712067b)" style="fill: #00bfff"/>
   </g>
   <g id="patch_63">
    <path d="M 231.534122 131.222437 
L 234.857213 131.222437 
L 234.857213 125.393378 
L 231.534122 125.393378 
z
" clip-path="url(#pc4f712067b)" style="fill: #00bfff"/>
   </g>
   <g id="patch_64">
    <path d="M 234.857213 131.222437 
L 238.180304 131.222437 
L 238.180304 128.589959 
L 234.857213 128.589959 
z
" clip-path="url(#pc4f712067b)" style="fill: #00bfff"/>
   </g>
   <g id="patch_65">
    <path d="M 238.180304 131.222437 
L 241.503399 131.222437 
L 241.503399 127.08569 
L 238.180304 127.08569 
z
" clip-path="url(#pc4f712067b)" style="fill: #00bfff"/>
   </g>
   <g id="patch_66">
    <path d="M 241.503399 131.222437 
L 244.82649 131.222437 
L 244.82649 127.085685 
L 241.503399 127.085685 
z
" clip-path="url(#pc4f712067b)" style="fill: #00bfff"/>
   </g>
   <g id="patch_67">
    <path d="M 244.82649 131.222437 
L 248.149581 131.222437 
L 248.149581 126.145514 
L 244.82649 126.145514 
z
" clip-path="url(#pc4f712067b)" style="fill: #00bfff"/>
   </g>
   <g id="patch_68">
    <path d="M 248.149581 131.222437 
L 251.472672 131.222437 
L 251.472672 123.513036 
L 248.149581 123.513036 
z
" clip-path="url(#pc4f712067b)" style="fill: #00bfff"/>
   </g>
   <g id="patch_69">
    <path d="M 251.472672 131.222437 
L 254.795763 131.222437 
L 254.795763 124.829275 
L 251.472672 124.829275 
z
" clip-path="url(#pc4f712067b)" style="fill: #00bfff"/>
   </g>
   <g id="patch_70">
    <path d="M 254.795763 131.222437 
L 258.118854 131.222437 
L 258.118854 123.325002 
L 254.795763 123.325002 
z
" clip-path="url(#pc4f712067b)" style="fill: #00bfff"/>
   </g>
   <g id="patch_71">
    <path d="M 258.118854 131.222437 
L 261.441945 131.222437 
L 261.441945 124.453207 
L 258.118854 124.453207 
z
" clip-path="url(#pc4f712067b)" style="fill: #00bfff"/>
   </g>
   <g id="patch_72">
    <path d="M 261.441945 131.222437 
L 264.765036 131.222437 
L 264.765036 124.077138 
L 261.441945 124.077138 
z
" clip-path="url(#pc4f712067b)" style="fill: #00bfff"/>
   </g>
   <g id="patch_73">
    <path d="M 264.765036 131.222437 
L 268.088127 131.222437 
L 268.088127 122.384831 
L 264.765036 122.384831 
z
" clip-path="url(#pc4f712067b)" style="fill: #00bfff"/>
   </g>
   <g id="patch_74">
    <path d="M 268.088127 131.222437 
L 271.411218 131.222437 
L 271.411218 118.060044 
L 268.088127 118.060044 
z
" clip-path="url(#pc4f712067b)" style="fill: #00bfff"/>
   </g>
   <g id="patch_75">
    <path d="M 271.411218 131.222437 
L 274.734309 131.222437 
L 274.734309 117.87201 
L 271.411218 117.87201 
z
" clip-path="url(#pc4f712067b)" style="fill: #00bfff"/>
   </g>
   <g id="patch_76">
    <path d="M 274.734309 131.222437 
L 278.0574 131.222437 
L 278.0574 114.863463 
L 274.734309 114.863463 
z
" clip-path="url(#pc4f712067b)" style="fill: #00bfff"/>
   </g>
   <g id="patch_77">
    <path d="M 278.0574 131.222437 
L 281.380491 131.222437 
L 281.380491 116.367737 
L 278.0574 116.367737 
z
" clip-path="url(#pc4f712067b)" style="fill: #00bfff"/>
   </g>
   <g id="patch_78">
    <path d="M 281.380491 131.222437 
L 284.703582 131.222437 
L 284.703582 113.735258 
L 281.380491 113.735258 
z
" clip-path="url(#pc4f712067b)" style="fill: #00bfff"/>
   </g>
   <g id="patch_79">
    <path d="M 284.703582 131.222437 
L 288.026673 131.222437 
L 288.026673 113.171155 
L 284.703582 113.171155 
z
" clip-path="url(#pc4f712067b)" style="fill: #00bfff"/>
   </g>
   <g id="patch_80">
    <path d="M 288.026673 131.222437 
L 291.349764 131.222437 
L 291.349764 114.111326 
L 288.026673 114.111326 
z
" clip-path="url(#pc4f712067b)" style="fill: #00bfff"/>
   </g>
   <g id="patch_81">
    <path d="M 291.349764 131.222437 
L 294.672855 131.222437 
L 294.672855 114.299361 
L 291.349764 114.299361 
z
" clip-path="url(#pc4f712067b)" style="fill: #00bfff"/>
   </g>
   <g id="patch_82">
    <path d="M 294.672855 131.222437 
L 297.995946 131.222437 
L 297.995946 115.6156 
L 294.672855 115.6156 
z
" clip-path="url(#pc4f712067b)" style="fill: #00bfff"/>
   </g>
   <g id="patch_83">
    <path d="M 297.995946 131.222437 
L 301.319044 131.222437 
L 301.319044 115.4276 
L 297.995946 115.4276 
z
" clip-path="url(#pc4f712067b)" style="fill: #00bfff"/>
   </g>
   <g id="patch_84">
    <path d="M 301.319044 131.222437 
L 304.642135 131.222437 
L 304.642135 117.683976 
L 301.319044 117.683976 
z
" clip-path="url(#pc4f712067b)" style="fill: #00bfff"/>
   </g>
   <g id="patch_85">
    <path d="M 304.642135 131.222437 
L 307.965226 131.222437 
L 307.965226 119.940386 
L 304.642135 119.940386 
z
" clip-path="url(#pc4f712067b)" style="fill: #00bfff"/>
   </g>
   <g id="patch_86">
    <path d="M 307.965226 131.222437 
L 311.288317 131.222437 
L 311.288317 121.256626 
L 307.965226 121.256626 
z
" clip-path="url(#pc4f712067b)" style="fill: #00bfff"/>
   </g>
   <g id="patch_87">
    <path d="M 311.288317 131.222437 
L 314.611408 131.222437 
L 314.611408 119.000215 
L 311.288317 119.000215 
z
" clip-path="url(#pc4f712067b)" style="fill: #00bfff"/>
   </g>
   <g id="patch_88">
    <path d="M 314.611408 131.222437 
L 317.934499 131.222437 
L 317.934499 123.136967 
L 314.611408 123.136967 
z
" clip-path="url(#pc4f712067b)" style="fill: #00bfff"/>
   </g>
   <g id="patch_89">
    <path d="M 317.934499 131.222437 
L 321.25759 131.222437 
L 321.25759 123.136967 
L 317.934499 123.136967 
z
" clip-path="url(#pc4f712067b)" style="fill: #00bfff"/>
   </g>
   <g id="patch_90">
    <path d="M 321.25759 131.222437 
L 324.580681 131.222437 
L 324.580681 123.889104 
L 321.25759 123.889104 
z
" clip-path="url(#pc4f712067b)" style="fill: #00bfff"/>
   </g>
   <g id="patch_91">
    <path d="M 324.580681 131.222437 
L 327.903772 131.222437 
L 327.903772 123.889104 
L 324.580681 123.889104 
z
" clip-path="url(#pc4f712067b)" style="fill: #00bfff"/>
   </g>
   <g id="patch_92">
    <path d="M 327.903772 131.222437 
L 331.226863 131.222437 
L 331.226863 130.094232 
L 327.903772 130.094232 
z
" clip-path="url(#pc4f712067b)" style="fill: #00bfff"/>
   </g>
   <g id="patch_93">
    <path d="M 331.226863 131.222437 
L 334.549954 131.222437 
L 334.549954 130.846369 
L 331.226863 130.846369 
z
" clip-path="url(#pc4f712067b)" style="fill: #00bfff"/>
   </g>
   <g id="patch_94">
    <path d="M 334.549954 131.222437 
L 337.873045 131.222437 
L 337.873045 131.034403 
L 334.549954 131.034403 
z
" clip-path="url(#pc4f712067b)" style="fill: #00bfff"/>
   </g>
   <g id="line2d_13">
    <path d="M 10.7 127.740724 
L 14.081818 127.330717 
L 17.463636 126.883964 
L 20.845455 126.398752 
L 24.227273 125.873496 
L 27.609091 125.306773 
L 30.990909 124.697356 
L 34.372727 124.044245 
L 37.754545 123.346704 
L 41.136364 122.604294 
L 44.518182 121.816909 
L 47.9 120.984807 
L 51.281818 120.10864 
L 54.663636 119.189484 
L 58.045455 118.228858 
L 61.427273 117.228751 
L 64.809091 116.191633 
L 68.190909 115.120465 
L 71.572727 114.018703 
L 74.954545 112.890299 
L 78.336364 111.739685 
L 81.718182 110.571763 
L 85.1 109.391873 
L 88.481818 108.20577 
L 91.863636 107.019577 
L 95.245455 105.839743 
L 98.627273 104.672989 
L 102.009091 103.526245 
L 105.390909 102.40659 
L 108.772727 101.321177 
L 112.154545 100.277161 
L 115.536364 99.281621 
L 118.918182 98.341482 
L 122.3 97.463435 
L 125.681818 96.653856 
L 129.063636 95.918734 
L 132.445455 95.26359 
L 135.827273 94.693418 
L 139.209091 94.212611 
L 142.590909 93.824914 
L 145.972727 93.533368 
L 149.354545 93.340276 
L 152.736364 93.247169 
L 156.118182 93.254786 
L 159.5 93.363068 
L 162.881818 93.571153 
L 166.263636 93.877393 
L 169.645455 94.279372 
L 173.027273 94.773938 
L 176.409091 95.357246 
L 179.790909 96.024808 
L 183.172727 96.771547 
L 186.554545 97.591866 
L 189.936364 98.479712 
L 193.318182 99.428657 
L 196.7 100.43197 
L 200.081818 101.482698 
L 203.463636 102.573745 
L 206.845455 103.69795 
L 210.227273 104.848169 
L 213.609091 106.01734 
L 216.990909 107.198559 
L 220.372727 108.385145 
L 223.754545 109.570693 
L 227.136364 110.749134 
L 230.518182 111.914774 
L 233.9 113.062334 
L 237.281818 114.186986 
L 240.663636 115.284366 
L 244.045455 116.350599 
L 247.427273 117.382303 
L 250.809091 118.37659 
L 254.190909 119.331066 
L 257.572727 120.243814 
L 260.954545 121.11338 
L 264.336364 121.938758 
L 267.718182 122.719354 
L 271.1 123.45497 
L 274.481818 124.145762 
L 277.863636 124.792217 
L 281.245455 125.395113 
L 284.627273 125.955486 
L 288.009091 126.474596 
L 291.390909 126.953892 
L 294.772727 127.39498 
L 298.154545 127.79959 
L 301.536364 128.169545 
L 304.918182 128.506735 
L 308.3 128.813088 
L 311.681818 129.090551 
L 315.063636 129.341064 
L 318.445455 129.566542 
L 321.827273 129.768862 
L 325.209091 129.949846 
L 328.590909 130.111251 
L 331.972727 130.254757 
L 335.354545 130.381965 
L 338.736364 130.494386 
L 342.118182 130.593442 
L 345.5 130.680463 
" clip-path="url(#pc4f712067b)" style="fill: none; stroke: #1f77b4; stroke-width: 1.5; stroke-linecap: square"/>
   </g>
   <g id="text_9">
    <g id="patch_95">
     <path d="M 14.763325 38.564562 
L 31.071138 38.564562 
Q 34.071138 38.564562 34.071138 35.564562 
L 34.071138 25.886437 
Q 34.071138 22.886437 31.071138 22.886437 
L 14.763325 22.886437 
Q 11.763325 22.886437 11.763325 25.886437 
L 11.763325 35.564562 
Q 11.763325 38.564562 14.763325 38.564562 
z
" style="fill: #ffffff"/>
    </g>
    <!-- -2σ -->
    <g transform="translate(14.763325 33.484875) scale(0.1 -0.1)">
     <use xlink:href="#DejaVuSans-2d"/>
     <use xlink:href="#DejaVuSans-32" x="36.083984"/>
     <use xlink:href="#DejaVuSans-3c3" x="99.707031"/>
    </g>
   </g>
   <g id="text_10">
    <g id="patch_96">
     <path d="M 83.571852 38.564562 
L 93.517164 38.564562 
Q 96.517164 38.564562 96.517164 35.564562 
L 96.517164 25.886437 
Q 96.517164 22.886437 93.517164 22.886437 
L 83.571852 22.886437 
Q 80.571852 22.886437 80.571852 25.886437 
L 80.571852 35.564562 
Q 80.571852 38.564562 83.571852 38.564562 
z
" style="fill: #ffffff"/>
    </g>
    <!-- -σ -->
    <g transform="translate(83.571852 33.484875) scale(0.1 -0.1)">
     <use xlink:href="#DejaVuSans-2d"/>
     <use xlink:href="#DejaVuSans-3c3" x="36.083984"/>
    </g>
   </g>
   <g id="text_11">
    <g id="patch_97">
     <path d="M 150.492878 38.564562 
L 157.850691 38.564562 
Q 160.850691 38.564562 160.850691 35.564562 
L 160.850691 25.886437 
Q 160.850691 22.886437 157.850691 22.886437 
L 150.492878 22.886437 
Q 147.492878 22.886437 147.492878 25.886437 
L 147.492878 35.564562 
Q 147.492878 38.564562 150.492878 38.564562 
z
" style="fill: #ffffff"/>
    </g>
    <!-- μ -->
    <g transform="translate(150.492878 33.473938) scale(0.1 -0.1)">
     <defs>
      <path id="DejaVuSans-Bold-3bc" d="M 544 -1338 
L 544 3500 
L 1672 3500 
L 1672 1466 
Q 1672 1103 1828 926 
Q 1984 750 2303 750 
Q 2625 750 2781 926 
Q 2938 1103 2938 1466 
L 2938 3500 
L 4063 3500 
L 4063 1159 
Q 4063 938 4114 850 
Q 4166 763 4288 763 
Q 4344 763 4395 778 
Q 4447 794 4506 831 
L 4506 50 
Q 4341 -22 4195 -56 
Q 4050 -91 3909 -91 
Q 3631 -91 3454 26 
Q 3278 144 3169 403 
Q 3022 156 2811 32 
Q 2600 -91 2322 -91 
Q 2091 -91 1928 -17 
Q 1766 56 1672 206 
L 1672 -1338 
L 544 -1338 
z
" transform="scale(0.015625)"/>
     </defs>
     <use xlink:href="#DejaVuSans-Bold-3bc"/>
    </g>
   </g>
   <g id="text_12">
    <g id="patch_98">
     <path d="M 212.440467 38.564562 
L 227.157655 38.564562 
Q 230.157655 38.564562 230.157655 35.564562 
L 230.157655 25.886437 
Q 230.157655 22.886437 227.157655 22.886437 
L 212.440467 22.886437 
Q 209.440467 22.886437 209.440467 25.886437 
L 209.440467 35.564562 
Q 209.440467 38.564562 212.440467 38.564562 
z
" style="fill: #ffffff"/>
    </g>
    <!-- +σ -->
    <g transform="translate(212.440467 33.484875) scale(0.1 -0.1)">
     <defs>
      <path id="DejaVuSans-2b" d="M 2944 4013 
L 2944 2272 
L 4684 2272 
L 4684 1741 
L 2944 1741 
L 2944 0 
L 2419 0 
L 2419 1741 
L 678 1741 
L 678 2272 
L 2419 2272 
L 2419 4013 
L 2944 4013 
z
" transform="scale(0.015625)"/>
     </defs>
     <use xlink:href="#DejaVuSans-2b"/>
     <use xlink:href="#DejaVuSans-3c3" x="83.789062"/>
    </g>
   </g>
   <g id="text_13">
    <g id="patch_99">
     <path d="M 274.886494 38.564562 
L 295.966181 38.564562 
Q 298.966181 38.564562 298.966181 35.564562 
L 298.966181 25.886437 
Q 298.966181 22.886437 295.966181 22.886437 
L 274.886494 22.886437 
Q 271.886494 22.886437 271.886494 25.886437 
L 271.886494 35.564562 
Q 271.886494 38.564562 274.886494 38.564562 
z
" style="fill: #ffffff"/>
    </g>
    <!-- +2σ -->
    <g transform="translate(274.886494 33.484875) scale(0.1 -0.1)">
     <use xlink:href="#DejaVuSans-2b"/>
     <use xlink:href="#DejaVuSans-32" x="83.789062"/>
     <use xlink:href="#DejaVuSans-3c3" x="147.412109"/>
    </g>
   </g>
  </g>
 </g>
 <defs>
  <clipPath id="pc4f712067b">
   <rect x="10.7" y="20.342437" width="334.8" height="110.88"/>
  </clipPath>
 </defs>
</svg>
